;TYPE=PLATED
;Layer: PTH_Through_Via
;EasyEDA Pro v2.2.40.8, 2025-08-03 21:23:04
;Gerber Generator version 0.3
M48
METRIC,LZ,0000.00000
;Hole size 1 = 0.30480 METRIC
T01C0.30480
;Hole size 2 = 0.30500 METRIC
T02C0.30500
%
G05
G90
T01
X12.954Y30.48
X16.637Y44.577
X35.56Y19.67636
X4.572Y33.909
X4.572Y29.845
X41.021Y29.845
T02
X4.445Y28.575
X5.715Y28.575
X6.985Y28.575
X8.255Y28.575
X9.525Y28.575
X9.779Y39.243
X11.9126Y40.0812
X9.7818Y40.84268
X9.77869Y41.60468
X6.731Y43.307
X8.07456Y42.926
X15.621Y44.577
X3.048Y20.955
X4.44906Y20.955
X4.445Y19.685
X4.445Y18.415
X4.44333Y17.145
X3.048Y19.685
X3.048Y18.41057
X3.03768Y17.145
X3.048Y24.765
X4.42187Y24.765
X3.048Y27.305
X4.445Y27.305
X3.302Y38.989
X3.4925Y38.0365
X3.175Y33.02
X44.323Y9.271
X43.18Y17.272
X43.307Y15.875
X38.989Y17.145
X31.242Y18.669
X28.575Y15.748
X32.766Y14.605
X4.318Y4.064
X5.715Y4.064
X7.00127Y4.064
X8.255Y4.064
X9.525Y4.064
X10.80123Y4.064
X12.065Y4.064
X13.34508Y4.064
X14.62957Y4.064
X39.751Y10.541
X39.751Y8.94811
X41.783Y20.066
X40.005Y19.304
X7.62Y31.877
X5.969Y30.861
X10.922Y34.417
X9.906Y32.258
X26.162Y35.433
X41.148Y35.433
X21.971Y33.274
X27.22087Y33.274
X37.338Y33.274
X42.545Y33.274
M30