G04 Layer: BottomSilkscreenLayer*
G04 EasyEDA Pro v2.2.40.8, 2025-08-03 21:23:04*
G04 Gerber Generator version 0.3*
G04 Scale: 100 percent, Rotated: No, Reflected: No*
G04 Dimensions in millimeters*
G04 Leading zeros omitted, absolute positions, 4 integers and 5 decimals*
G04 Generated by one-click*
%FSLAX45Y45*%
%MOMM*%
%ADD10C,0.1524*%
%ADD11C,0.254*%
%ADD12C,0.14999*%
%ADD13C,0.1*%
%ADD14C,0.5354*%
G75*


G04 Text Start*
G54D10*
G01X359611Y3469749D02*
G01X356563Y3463399D01*
G01X350213Y3457303D01*
G01X344117Y3454255D01*
G01X331671Y3454255D01*
G01X325575Y3457303D01*
G01X319225Y3463399D01*
G01X316177Y3469749D01*
G01X313129Y3478893D01*
G01X313129Y3494387D01*
G01X316177Y3503785D01*
G01X319225Y3509881D01*
G01X325575Y3516231D01*
G01X331671Y3519279D01*
G01X344117Y3519279D01*
G01X350213Y3516231D01*
G01X356563Y3509881D01*
G01X359611Y3503785D01*
G01X392885Y3469749D02*
G01X392885Y3466701D01*
G01X395933Y3460351D01*
G01X398981Y3457303D01*
G01X405077Y3454255D01*
G01X417523Y3454255D01*
G01X423873Y3457303D01*
G01X426921Y3460351D01*
G01X429969Y3466701D01*
G01X429969Y3472797D01*
G01X426921Y3478893D01*
G01X420571Y3488291D01*
G01X389837Y3519279D01*
G01X433017Y3519279D01*
G01X500327Y3463399D02*
G01X497279Y3457303D01*
G01X487881Y3454255D01*
G01X481785Y3454255D01*
G01X472387Y3457303D01*
G01X466291Y3466701D01*
G01X463243Y3481941D01*
G01X463243Y3497435D01*
G01X466291Y3509881D01*
G01X472387Y3516231D01*
G01X481785Y3519279D01*
G01X484833Y3519279D01*
G01X493977Y3516231D01*
G01X500327Y3509881D01*
G01X503375Y3500737D01*
G01X503375Y3497435D01*
G01X500327Y3488291D01*
G01X493977Y3481941D01*
G01X484833Y3478893D01*
G01X481785Y3478893D01*
G01X472387Y3481941D01*
G01X466291Y3488291D01*
G01X463243Y3497435D01*
G01X549402Y4594860D02*
G01X546354Y4588510D01*
G01X540004Y4582414D01*
G01X533908Y4579366D01*
G01X521462Y4579366D01*
G01X515366Y4582414D01*
G01X509016Y4588510D01*
G01X505968Y4594860D01*
G01X502920Y4604004D01*
G01X502920Y4619498D01*
G01X505968Y4628896D01*
G01X509016Y4634992D01*
G01X515366Y4641342D01*
G01X521462Y4644390D01*
G01X533908Y4644390D01*
G01X540004Y4641342D01*
G01X546354Y4634992D01*
G01X549402Y4628896D01*
G01X582676Y4594860D02*
G01X582676Y4591812D01*
G01X585724Y4585462D01*
G01X588772Y4582414D01*
G01X594868Y4579366D01*
G01X607314Y4579366D01*
G01X613664Y4582414D01*
G01X616712Y4585462D01*
G01X619760Y4591812D01*
G01X619760Y4597908D01*
G01X616712Y4604004D01*
G01X610362Y4613402D01*
G01X579628Y4644390D01*
G01X622808Y4644390D01*
G01X696214Y4579366D02*
G01X665226Y4644390D01*
G01X653034Y4579366D02*
G01X696214Y4579366D01*
G01X1837489Y4759851D02*
G01X1840537Y4766201D01*
G01X1846887Y4772297D01*
G01X1852983Y4775345D01*
G01X1865429Y4775345D01*
G01X1871525Y4772297D01*
G01X1877875Y4766201D01*
G01X1880923Y4759851D01*
G01X1883971Y4750707D01*
G01X1883971Y4735213D01*
G01X1880923Y4725815D01*
G01X1877875Y4719719D01*
G01X1871525Y4713369D01*
G01X1865429Y4710321D01*
G01X1852983Y4710321D01*
G01X1846887Y4713369D01*
G01X1840537Y4719719D01*
G01X1837489Y4725815D01*
G01X1804215Y4759851D02*
G01X1804215Y4762899D01*
G01X1801167Y4769249D01*
G01X1798119Y4772297D01*
G01X1792023Y4775345D01*
G01X1779577Y4775345D01*
G01X1773227Y4772297D01*
G01X1770179Y4769249D01*
G01X1767131Y4762899D01*
G01X1767131Y4756803D01*
G01X1770179Y4750707D01*
G01X1776529Y4741309D01*
G01X1807263Y4710321D01*
G01X1764083Y4710321D01*
G01X1718617Y4775345D02*
G01X1727761Y4772297D01*
G01X1730809Y4766201D01*
G01X1730809Y4759851D01*
G01X1727761Y4753755D01*
G01X1721665Y4750707D01*
G01X1709219Y4747659D01*
G01X1699821Y4744357D01*
G01X1693725Y4738261D01*
G01X1690677Y4732165D01*
G01X1690677Y4722767D01*
G01X1693725Y4716671D01*
G01X1696773Y4713369D01*
G01X1706171Y4710321D01*
G01X1718617Y4710321D01*
G01X1727761Y4713369D01*
G01X1730809Y4716671D01*
G01X1733857Y4722767D01*
G01X1733857Y4732165D01*
G01X1730809Y4738261D01*
G01X1724713Y4744357D01*
G01X1715315Y4747659D01*
G01X1703123Y4750707D01*
G01X1696773Y4753755D01*
G01X1693725Y4759851D01*
G01X1693725Y4766201D01*
G01X1696773Y4772297D01*
G01X1706171Y4775345D01*
G01X1718617Y4775345D01*
G01X132334Y3766820D02*
G01X67310Y3766820D01*
G01X132334Y3766820D02*
G01X132334Y3794760D01*
G01X129286Y3803904D01*
G01X126238Y3806952D01*
G01X119888Y3810254D01*
G01X113792Y3810254D01*
G01X107696Y3806952D01*
G01X104648Y3803904D01*
G01X101346Y3794760D01*
G01X101346Y3766820D01*
G01X101346Y3788410D02*
G01X67310Y3810254D01*
G01X116840Y3843528D02*
G01X119888Y3843528D01*
G01X126238Y3846576D01*
G01X129286Y3849624D01*
G01X132334Y3855720D01*
G01X132334Y3868166D01*
G01X129286Y3874516D01*
G01X126238Y3877564D01*
G01X119888Y3880612D01*
G01X113792Y3880612D01*
G01X107696Y3877564D01*
G01X98298Y3871214D01*
G01X67310Y3840480D01*
G01X67310Y3883660D01*
G01X132334Y3944620D02*
G01X89154Y3913886D01*
G01X89154Y3960114D01*
G01X132334Y3944620D02*
G01X67310Y3944620D01*
G01X994899Y3728122D02*
G01X948417Y3728122D01*
G01X939273Y3731170D01*
G01X932923Y3737520D01*
G01X929875Y3746664D01*
G01X929875Y3753014D01*
G01X932923Y3762158D01*
G01X939273Y3768254D01*
G01X948417Y3771556D01*
G01X994899Y3771556D01*
G01X994899Y3832516D02*
G01X951719Y3801782D01*
G01X951719Y3848010D01*
G01X994899Y3832516D02*
G01X929875Y3832516D01*
G01X1298214Y3607991D02*
G01X1233190Y3607991D01*
G01X1298214Y3607991D02*
G01X1298214Y3635931D01*
G01X1295166Y3645075D01*
G01X1292118Y3648123D01*
G01X1285768Y3651425D01*
G01X1279672Y3651425D01*
G01X1273576Y3648123D01*
G01X1270528Y3645075D01*
G01X1267226Y3635931D01*
G01X1267226Y3607991D01*
G01X1267226Y3629581D02*
G01X1233190Y3651425D01*
G01X1282720Y3684699D02*
G01X1285768Y3684699D01*
G01X1292118Y3687747D01*
G01X1295166Y3690795D01*
G01X1298214Y3696891D01*
G01X1298214Y3709337D01*
G01X1295166Y3715687D01*
G01X1292118Y3718735D01*
G01X1285768Y3721783D01*
G01X1279672Y3721783D01*
G01X1273576Y3718735D01*
G01X1264178Y3712385D01*
G01X1233190Y3681651D01*
G01X1233190Y3724831D01*
G01X1282720Y3758105D02*
G01X1285768Y3758105D01*
G01X1292118Y3761153D01*
G01X1295166Y3764201D01*
G01X1298214Y3770297D01*
G01X1298214Y3782743D01*
G01X1295166Y3789093D01*
G01X1292118Y3792141D01*
G01X1285768Y3795189D01*
G01X1279672Y3795189D01*
G01X1273576Y3792141D01*
G01X1264178Y3785791D01*
G01X1233190Y3755057D01*
G01X1233190Y3798237D01*
G36*
G01X1217430Y38716D02*
G01X1214351Y37561D01*
G01X1210887Y36791D01*
G01X1208578Y36407D01*
G01X1205114Y36022D01*
G01X1198572Y36407D01*
G01X1192414Y37561D01*
G01X1187796Y39101D01*
G01X1183948Y41025D01*
G01X1181254Y42949D01*
G01X1179330Y44489D01*
G01X1173557Y50261D01*
G01X1172017Y52186D01*
G01X1170478Y54879D01*
G01X1168939Y57958D01*
G01X1167784Y61037D01*
G01X1166630Y64501D01*
G01X1165475Y69119D01*
G01X1164706Y73352D01*
G01X1164321Y84897D01*
G01X1164706Y97213D01*
G01X1165475Y101831D01*
G01X1166245Y105679D01*
G01X1167014Y108758D01*
G01X1168169Y112222D01*
G01X1169709Y115686D01*
G01X1171633Y119534D01*
G01X1173557Y122228D01*
G01X1175096Y124152D01*
G01X1178945Y128001D01*
G01X1182793Y131079D01*
G01X1185487Y133004D01*
G01X1188951Y134543D01*
G01X1192414Y135697D01*
G01X1195493Y136467D01*
G01X1201651Y136852D01*
G01X1208578Y136467D01*
G01X1212427Y135697D01*
G01X1216275Y134543D01*
G01X1219739Y133004D01*
G01X1222433Y131464D01*
G01X1224742Y129925D01*
G01X1228590Y126846D01*
G01X1230514Y124922D01*
G01X1232824Y121843D01*
G01X1235133Y118379D01*
G01X1236672Y115301D01*
G01X1238211Y111452D01*
G01X1239366Y107989D01*
G01X1240906Y100291D01*
G01X1241290Y88361D01*
G01X1240906Y74891D01*
G01X1240136Y70273D01*
G01X1239366Y67194D01*
G01X1238596Y63731D01*
G01X1237442Y60267D01*
G01X1236287Y57573D01*
G01X1233978Y52955D01*
G01X1232439Y50646D01*
G01X1230130Y47952D01*
G01X1227821Y45643D01*
G01X1225896Y44104D01*
G01X1223203Y41794D01*
G01X1220124Y39870D01*
G01X1217430Y38716D01*
G37*
G36*
G01X1589193Y114146D02*
G01X1590733Y109143D01*
G01X1591887Y103370D01*
G01X1591887Y99522D01*
G01X1555327Y99137D01*
G01X1519151Y99137D01*
G01X1519151Y101446D01*
G01X1519536Y104910D01*
G01X1520306Y108373D01*
G01X1521460Y112991D01*
G01X1522999Y117225D01*
G01X1524924Y120689D01*
G01X1526463Y123383D01*
G01X1528003Y125307D01*
G01X1531851Y129155D01*
G01X1534930Y131464D01*
G01X1538778Y133773D01*
G01X1543011Y135313D01*
G01X1546475Y136467D01*
G01X1553017Y136852D01*
G01X1561099Y136467D01*
G01X1566103Y135313D01*
G01X1570336Y133773D01*
G01X1575724Y131079D01*
G01X1579572Y128001D01*
G01X1581881Y125691D01*
G01X1584190Y122997D01*
G01X1586114Y120304D01*
G01X1587654Y117610D01*
G01X1589193Y114146D01*
G37*
G36*
G01X1713884Y41794D02*
G01X1710806Y40640D01*
G01X1707342Y39870D01*
G01X1705033Y39486D01*
G01X1701954Y39101D01*
G01X1695796Y39486D01*
G01X1690024Y40640D01*
G01X1685790Y42179D01*
G01X1682711Y43719D01*
G01X1679633Y45643D01*
G01X1676939Y47952D01*
G01X1673090Y51801D01*
G01X1671166Y54494D01*
G01X1669242Y57573D01*
G01X1667703Y61037D01*
G01X1666163Y65655D01*
G01X1665009Y69504D01*
G01X1664239Y74891D01*
G01X1663854Y85283D01*
G01X1664239Y97983D01*
G01X1665009Y102601D01*
G01X1665393Y105294D01*
G01X1666163Y108373D01*
G01X1667317Y111837D01*
G01X1668472Y114916D01*
G01X1670011Y117994D01*
G01X1671551Y120689D01*
G01X1673475Y123383D01*
G01X1675784Y126076D01*
G01X1679633Y129925D01*
G01X1681557Y131464D01*
G01X1684251Y133004D01*
G01X1687330Y134543D01*
G01X1690409Y135697D01*
G01X1693487Y136467D01*
G01X1698875Y136852D01*
G01X1705033Y136467D01*
G01X1708881Y135697D01*
G01X1712730Y134543D01*
G01X1716578Y132619D01*
G01X1721966Y128770D01*
G01X1724660Y126461D01*
G01X1726969Y123383D01*
G01X1729278Y119919D01*
G01X1730817Y117225D01*
G01X1731972Y114531D01*
G01X1733127Y111452D01*
G01X1734281Y107219D01*
G01X1735051Y103370D01*
G01X1735821Y96443D01*
G01X1736206Y89901D01*
G01X1735821Y83358D01*
G01X1735436Y80279D01*
G01X1735051Y75661D01*
G01X1734281Y71043D01*
G01X1733511Y67194D01*
G01X1732357Y62961D01*
G01X1730817Y59497D01*
G01X1729278Y56419D01*
G01X1727739Y53725D01*
G01X1725814Y51031D01*
G01X1722736Y47567D01*
G01X1719657Y45258D01*
G01X1716963Y43334D01*
G01X1713884Y41794D01*
G37*
G36*
G01X1853969Y38716D02*
G01X1850890Y37561D01*
G01X1847811Y36791D01*
G01X1845887Y36407D01*
G01X1842424Y36022D01*
G01X1837421Y36407D01*
G01X1833572Y37176D01*
G01X1830493Y37946D01*
G01X1827414Y39101D01*
G01X1823951Y41025D01*
G01X1821257Y42949D01*
G01X1817409Y46028D01*
G01X1814330Y49876D01*
G01X1812406Y52570D01*
G01X1810866Y55649D01*
G01X1809711Y58343D01*
G01X1808557Y61422D01*
G01X1807403Y65655D01*
G01X1806633Y69504D01*
G01X1805863Y77970D01*
G01X1805478Y83358D01*
G01X1805863Y88746D01*
G01X1806248Y92979D01*
G01X1806633Y97983D01*
G01X1807403Y102601D01*
G01X1808172Y106449D01*
G01X1808942Y109528D01*
G01X1810096Y112991D01*
G01X1811636Y116455D01*
G01X1813560Y120304D01*
G01X1817409Y125691D01*
G01X1819717Y128386D01*
G01X1821642Y129925D01*
G01X1824336Y131849D01*
G01X1827414Y133773D01*
G01X1831263Y135313D01*
G01X1835111Y136467D01*
G01X1840884Y136852D01*
G01X1846657Y136467D01*
G01X1849351Y136083D01*
G01X1852430Y135313D01*
G01X1855893Y133773D01*
G01X1858587Y132234D01*
G01X1860896Y130694D01*
G01X1863206Y128770D01*
G01X1867054Y124922D01*
G01X1868593Y122997D01*
G01X1870133Y120304D01*
G01X1871672Y117225D01*
G01X1872827Y114146D01*
G01X1873981Y110683D01*
G01X1875136Y106064D01*
G01X1875906Y101831D01*
G01X1876675Y91825D01*
G01X1877060Y87591D01*
G01X1876675Y83358D01*
G01X1876290Y79510D01*
G01X1875906Y74122D01*
G01X1875136Y69504D01*
G01X1874366Y66425D01*
G01X1873596Y62961D01*
G01X1872442Y59497D01*
G01X1868209Y51031D01*
G01X1866669Y49107D01*
G01X1860896Y43334D01*
G01X1858587Y41410D01*
G01X1856278Y39870D01*
G01X1853969Y38716D01*
G37*
G36*
G01X2014451Y109528D02*
G01X2015221Y106449D01*
G01X2015606Y102601D01*
G01X2015221Y99522D01*
G01X1979814Y99137D01*
G01X1943639Y99522D01*
G01X1942869Y100099D01*
G01X1942869Y101061D01*
G01X1943639Y106449D01*
G01X1944409Y110297D01*
G01X1945563Y114146D01*
G01X1946717Y116840D01*
G01X1948257Y120304D01*
G01X1950181Y122997D01*
G01X1954799Y128386D01*
G01X1958648Y131464D01*
G01X1961342Y133004D01*
G01X1964421Y134543D01*
G01X1967499Y135697D01*
G01X1970578Y136467D01*
G01X1977121Y136852D01*
G01X1985203Y136467D01*
G01X1990206Y135313D01*
G01X1994439Y133773D01*
G01X1997903Y131849D01*
G01X2000596Y130310D01*
G01X2002521Y128770D01*
G01X2007139Y124152D01*
G01X2010987Y118379D01*
G01X2012142Y116070D01*
G01X2013296Y112991D01*
G01X2014451Y109528D01*
G37*
G36*
G01X139623Y-38100D02*
G01X139623Y85667D01*
G01X153324Y85667D01*
G01X153324Y81049D01*
G01X154093Y71813D01*
G01X154863Y67579D01*
G01X156017Y62961D01*
G01X158327Y56034D01*
G01X159866Y52570D01*
G01X161406Y49491D01*
G01X162945Y46797D01*
G01X164484Y44489D01*
G01X165639Y42564D01*
G01X167178Y40640D01*
G01X171796Y35252D01*
G01X175645Y31404D01*
G01X177569Y29864D01*
G01X182957Y26016D01*
G01X185651Y24476D01*
G01X189114Y22937D01*
G01X195272Y20628D01*
G01X199121Y19473D01*
G01X202584Y18704D01*
G01X202584Y18704D01*
G01X208742Y17934D01*
G01X216054Y17549D01*
G01X222981Y17934D01*
G01X227214Y18704D01*
G01X232987Y19858D01*
G01X236451Y21013D01*
G01X239145Y21783D01*
G01X241839Y22937D01*
G01X250306Y27170D01*
G01X252230Y28710D01*
G01X256848Y32558D01*
G01X260696Y36407D01*
G01X262236Y38331D01*
G01X264160Y41025D01*
G01X264930Y42179D01*
G01X297642Y42179D01*
G01X297642Y20628D01*
G01X417714Y20628D01*
G01X417714Y22937D01*
G01X417330Y26401D01*
G01X416560Y30249D01*
G01X415406Y34483D01*
G01X413866Y38331D01*
G01X412327Y41794D01*
G01X410787Y44873D01*
G01X408863Y48337D01*
G01X406554Y51801D01*
G01X403860Y55649D01*
G01X400781Y59497D01*
G01X398472Y62576D01*
G01X384233Y76816D01*
G01X381154Y79125D01*
G01X379230Y81049D01*
G01X369993Y88746D01*
G01X359217Y97983D01*
G01X354599Y101831D01*
G01X350751Y105679D01*
G01X346133Y109528D01*
G01X344208Y111452D01*
G01X437727Y111452D01*
G01X438111Y97213D01*
G01X438496Y92979D01*
G01X438881Y87207D01*
G01X439651Y81049D01*
G01X440421Y75661D01*
G01X441190Y71813D01*
G01X441960Y68734D01*
G01X442730Y65270D01*
G01X443884Y60652D01*
G01X445424Y56804D01*
G01X446578Y53725D01*
G01X447733Y51031D01*
G01X450811Y44873D01*
G01X452736Y41794D01*
G01X454660Y39101D01*
G01X455814Y37176D01*
G01X457354Y35252D01*
G01X463127Y29479D01*
G01X466975Y26401D01*
G01X469669Y24476D01*
G01X472748Y22937D01*
G01X478136Y20628D01*
G01X481599Y19473D01*
G01X485063Y18704D01*
G01X485063Y18704D01*
G01X490451Y17934D01*
G01X497378Y17549D01*
G01X504690Y17934D01*
G01X507384Y18704D01*
G01X510848Y19473D01*
G01X515466Y20628D01*
G01X519314Y22167D01*
G01X522778Y23707D01*
G01X526627Y26016D01*
G01X530475Y28710D01*
G01X533169Y31019D01*
G01X537017Y34867D01*
G01X538557Y36791D01*
G01X540481Y39486D01*
G01X542277Y42179D01*
G01X580121Y42179D01*
G01X580121Y20628D01*
G01X700193Y20628D01*
G01X700193Y22552D01*
G01X700116Y23322D01*
G01X781011Y23322D01*
G01X781011Y20628D01*
G01X784475Y20243D01*
G01X784475Y20243D01*
G01X789093Y19473D01*
G01X797175Y19089D01*
G01X804872Y19473D01*
G01X807566Y20243D01*
G01X810645Y21013D01*
G01X813724Y22167D01*
G01X816803Y23707D01*
G01X819111Y25246D01*
G01X821036Y26786D01*
G01X823345Y29479D01*
G01X825654Y33328D01*
G01X826809Y36407D01*
G01X827578Y41794D01*
G01X827782Y66810D01*
G01X866448Y66810D01*
G01X866833Y22552D01*
G01X867217Y20628D01*
G01X888769Y20628D01*
G01X888769Y62961D01*
G01X889154Y106449D01*
G01X889539Y109143D01*
G01X889924Y113376D01*
G01X890693Y117225D01*
G01X891463Y120304D01*
G01X892617Y123383D01*
G01X894542Y126461D01*
G01X897621Y129925D01*
G01X901084Y132234D01*
G01X903778Y133773D01*
G01X906857Y134928D01*
G01X909936Y135697D01*
G01X914939Y136083D01*
G01X920711Y135697D01*
G01X925330Y134928D01*
G01X929563Y133773D01*
G01X933027Y132234D01*
G01X936106Y130694D01*
G01X938414Y129155D01*
G01X942263Y126076D01*
G01X944572Y123383D01*
G01X946496Y120304D01*
G01X947651Y117610D01*
G01X948806Y114531D01*
G01X949960Y110297D01*
G01X950730Y106449D01*
G01X951114Y64886D01*
G01X951499Y22552D01*
G01X951884Y20628D01*
G01X973436Y20628D01*
G01X973436Y86437D01*
G01X973436Y86437D01*
G01X973436Y152246D01*
G01X1008842Y152246D01*
G01X1008842Y20628D01*
G01X1028854Y20628D01*
G01X1028854Y38331D01*
G01X1030393Y37561D01*
G01X1032317Y35637D01*
G01X1033857Y33713D01*
G01X1037706Y29864D01*
G01X1041554Y26786D01*
G01X1047711Y22937D01*
G01X1050406Y21783D01*
G01X1053484Y20628D01*
G01X1056948Y19473D01*
G01X1060027Y18704D01*
G01X1060027Y18704D01*
G01X1066954Y17934D01*
G01X1070803Y17549D01*
G01X1075036Y17934D01*
G01X1079269Y18704D01*
G01X1083117Y19473D01*
G01X1086196Y20243D01*
G01X1089660Y21397D01*
G01X1093124Y22937D01*
G01X1096203Y24476D01*
G01X1099281Y26401D01*
G01X1101975Y28325D01*
G01X1103899Y29864D01*
G01X1106593Y32558D01*
G01X1108903Y36022D01*
G01X1110442Y38716D01*
G01X1111596Y41410D01*
G01X1112751Y44489D01*
G01X1113906Y48722D01*
G01X1114675Y52570D01*
G01X1114948Y88361D01*
G01X1141230Y88361D01*
G01X1141614Y78740D01*
G01X1141999Y75661D01*
G01X1142384Y71813D01*
G01X1143154Y67194D01*
G01X1143924Y63346D01*
G01X1144693Y59883D01*
G01X1145848Y56034D01*
G01X1147003Y52955D01*
G01X1148542Y49491D01*
G01X1153160Y41794D01*
G01X1155469Y39101D01*
G01X1157393Y36791D01*
G01X1159317Y34867D01*
G01X1161242Y33328D01*
G01X1163936Y30634D01*
G01X1167784Y27940D01*
G01X1170863Y26016D01*
G01X1177021Y22937D01*
G01X1180099Y21783D01*
G01X1183563Y20628D01*
G01X1187796Y19473D01*
G01X1191645Y18704D01*
G01X1191645Y18704D01*
G01X1199342Y17934D01*
G01X1203575Y17549D01*
G01X1208578Y17934D01*
G01X1213196Y18704D01*
G01X1220893Y20243D01*
G01X1225127Y21397D01*
G01X1228975Y22937D01*
G01X1233209Y24861D01*
G01X1237057Y27170D01*
G01X1242445Y31019D01*
G01X1245139Y33328D01*
G01X1249757Y37946D01*
G01X1252066Y41025D01*
G01X1253606Y42949D01*
G01X1255145Y45643D01*
G01X1257839Y51031D01*
G01X1258993Y53725D01*
G01X1261303Y60652D01*
G01X1262457Y64886D01*
G01X1263227Y68734D01*
G01X1263996Y74891D01*
G01X1264381Y84897D01*
G01X1263996Y94904D01*
G01X1263611Y97597D01*
G01X1263227Y101831D01*
G01X1262457Y105679D01*
G01X1262072Y108373D01*
G01X1261303Y111452D01*
G01X1258993Y118379D01*
G01X1255914Y125307D01*
G01X1253990Y128770D01*
G01X1251296Y132619D01*
G01X1248987Y135697D01*
G01X1243214Y141470D01*
G01X1241290Y143010D01*
G01X1235903Y146858D01*
G01X1233209Y148397D01*
G01X1229745Y149937D01*
G01X1225896Y151476D01*
G01X1220893Y153016D01*
G01X1217045Y154170D01*
G01X1210887Y154940D01*
G01X1203960Y155325D01*
G01X1197033Y154940D01*
G01X1193569Y154555D01*
G01X1188566Y153786D01*
G01X1184717Y152631D01*
G01X1181639Y151861D01*
G01X1178560Y150707D01*
G01X1173172Y148397D01*
G01X1170478Y146858D01*
G01X1167014Y144549D01*
G01X1163166Y141470D01*
G01X1160087Y139161D01*
G01X1158163Y137237D01*
G01X1156624Y135313D01*
G01X1154314Y132619D01*
G01X1151621Y128770D01*
G01X1149696Y125691D01*
G01X1148157Y122613D01*
G01X1146617Y119149D01*
G01X1144309Y112222D01*
G01X1143154Y108373D01*
G01X1142384Y104910D01*
G01X1141614Y97983D01*
G01X1141230Y88361D01*
G01X1114948Y88361D01*
G01X1115060Y102986D01*
G01X1115060Y152246D01*
G01X1093509Y152246D01*
G01X1093509Y113376D01*
G01X1093124Y73352D01*
G01X1092354Y59497D01*
G01X1091969Y56804D01*
G01X1091199Y53725D01*
G01X1089660Y50261D01*
G01X1088121Y47567D01*
G01X1086966Y45643D01*
G01X1085427Y43719D01*
G01X1083503Y42179D01*
G01X1081193Y40640D01*
G01X1078499Y39101D01*
G01X1075036Y37946D01*
G01X1071572Y37176D01*
G01X1066954Y36791D01*
G01X1062336Y37176D01*
G01X1058103Y37946D01*
G01X1053484Y39101D01*
G01X1050021Y40640D01*
G01X1046942Y42179D01*
G01X1044633Y43719D01*
G01X1040784Y46797D01*
G01X1038860Y48722D01*
G01X1037321Y50646D01*
G01X1035781Y53340D01*
G01X1034242Y56419D01*
G01X1033087Y59497D01*
G01X1032317Y62576D01*
G01X1031548Y68734D01*
G01X1031163Y111067D01*
G01X1031163Y152246D01*
G01X1008842Y152246D01*
G01X973436Y152246D01*
G01X973436Y152246D01*
G01X953424Y152246D01*
G01X953424Y143779D01*
G01X953135Y137526D01*
G01X952269Y135697D01*
G01X950345Y137622D01*
G01X948421Y139931D01*
G01X943803Y144549D01*
G01X940724Y146858D01*
G01X937645Y148783D01*
G01X934181Y150707D01*
G01X928024Y153016D01*
G01X923790Y154170D01*
G01X919942Y154940D01*
G01X914169Y155325D01*
G01X906857Y154940D01*
G01X901469Y154170D01*
G01X896081Y153016D01*
G01X891848Y151476D01*
G01X888384Y149937D01*
G01X884536Y148013D01*
G01X881842Y146089D01*
G01X879917Y144934D01*
G01X877224Y142625D01*
G01X874914Y139546D01*
G01X872990Y136852D01*
G01X871066Y133004D01*
G01X869527Y129155D01*
G01X868372Y125307D01*
G01X867603Y121843D01*
G01X866833Y110297D01*
G01X866448Y66810D01*
G01X827782Y66810D01*
G01X827963Y89131D01*
G01X827963Y135313D01*
G01X844896Y135313D01*
G01X844896Y152246D01*
G01X827963Y152246D01*
G01X827963Y168410D01*
G01X827578Y180821D01*
G01X826424Y185728D01*
G01X822960Y188037D01*
G01X816803Y191886D01*
G01X812954Y194194D01*
G01X809875Y196119D01*
G01X807566Y197273D01*
G01X806700Y191886D01*
G01X806411Y174952D01*
G01X806411Y152246D01*
G01X784090Y152246D01*
G01X784090Y135313D01*
G01X806411Y135313D01*
G01X806411Y96058D01*
G01X806027Y53340D01*
G01X805257Y47952D01*
G01X804103Y44489D01*
G01X802178Y42179D01*
G01X799484Y40640D01*
G01X793327Y39870D01*
G01X787554Y40255D01*
G01X784860Y40640D01*
G01X783706Y40255D01*
G01X783321Y39101D01*
G01X782936Y36407D01*
G01X781396Y27170D01*
G01X781011Y23322D01*
G01X700116Y23322D01*
G01X699809Y26401D01*
G01X699039Y30249D01*
G01X697884Y34483D01*
G01X696345Y38716D01*
G01X693266Y44873D01*
G01X691342Y48337D01*
G01X689033Y51801D01*
G01X686339Y55649D01*
G01X684030Y58728D01*
G01X680951Y62576D01*
G01X666711Y76816D01*
G01X663633Y79125D01*
G01X661709Y81049D01*
G01X656321Y85667D01*
G01X647084Y93364D01*
G01X636309Y102601D01*
G01X632460Y106449D01*
G01X627072Y111067D01*
G01X622454Y115686D01*
G01X620145Y118764D01*
G01X616296Y122613D01*
G01X614757Y124537D01*
G01X612833Y127231D01*
G01X610524Y130694D01*
G01X608599Y134158D01*
G01X607060Y137237D01*
G01X605906Y139931D01*
G01X604751Y143010D01*
G01X603981Y146089D01*
G01X603596Y148783D01*
G01X603211Y151861D01*
G01X603596Y154940D01*
G01X604366Y160328D01*
G01X605136Y163407D01*
G01X606290Y166486D01*
G01X607830Y169179D01*
G01X609369Y171489D01*
G01X611678Y174183D01*
G01X615142Y177646D01*
G01X618606Y179955D01*
G01X621299Y181494D01*
G01X625148Y183034D01*
G01X628996Y184189D01*
G01X636693Y184573D01*
G01X645160Y184189D01*
G01X649778Y183034D01*
G01X653627Y181494D01*
G01X656706Y179955D01*
G01X659399Y178416D01*
G01X662093Y176491D01*
G01X664403Y174183D01*
G01X665942Y172258D01*
G01X667866Y169949D01*
G01X669406Y167255D01*
G01X670945Y163407D01*
G01X672099Y159558D01*
G01X672869Y154170D01*
G01X673254Y151091D01*
G01X674024Y148783D01*
G01X675948Y148783D01*
G01X691342Y150322D01*
G01X694036Y150707D01*
G01X695190Y151091D01*
G01X695575Y152246D01*
G01X695190Y155710D01*
G01X694421Y159558D01*
G01X692881Y165716D01*
G01X691727Y169179D01*
G01X690572Y172258D01*
G01X689417Y174567D01*
G01X687878Y177261D01*
G01X685954Y180725D01*
G01X683260Y184189D01*
G01X680951Y187267D01*
G01X679027Y189191D01*
G01X675178Y192270D01*
G01X672484Y194194D01*
G01X669021Y196119D01*
G01X665942Y197658D01*
G01X663248Y198813D01*
G01X660169Y199967D01*
G01X656321Y201122D01*
G01X652857Y201891D01*
G01X650162Y202276D01*
G01X1292090Y202276D01*
G01X1292090Y20628D01*
G01X1315181Y20628D01*
G01X1315181Y94519D01*
G01X1315566Y169564D01*
G01X1315951Y170238D01*
G01X1316336Y169949D01*
G01X1317490Y167640D01*
G01X1319799Y160713D01*
G01X1321339Y156864D01*
G01X1325957Y143010D01*
G01X1327496Y139161D01*
G01X1332114Y125307D01*
G01X1333654Y121458D01*
G01X1338272Y107604D01*
G01X1341351Y99137D01*
G01X1344430Y89901D01*
G01X1347509Y81434D01*
G01X1350587Y72197D01*
G01X1353666Y63731D01*
G01X1358284Y49876D01*
G01X1359824Y46028D01*
G01X1364442Y32173D01*
G01X1366751Y26016D01*
G01X1367906Y22552D01*
G01X1368290Y20628D01*
G01X1379066Y20628D01*
G01X1387244Y20916D01*
G01X1390227Y21783D01*
G01X1391381Y24476D01*
G01X1402927Y59113D01*
G01X1405236Y65270D01*
G01X1415627Y96443D01*
G01X1417936Y102601D01*
G01X1429481Y137237D01*
G01X1431790Y143394D01*
G01X1441027Y171104D01*
G01X1442181Y173413D01*
G01X1442759Y154555D01*
G01X1442951Y97213D01*
G01X1442951Y97213D01*
G01X1442951Y20628D01*
G01X1466042Y20628D01*
G01X1466042Y88746D01*
G01X1495290Y88746D01*
G01X1495290Y80664D01*
G01X1593042Y80664D01*
G01X1593042Y77970D01*
G01X1592657Y74122D01*
G01X1592272Y71428D01*
G01X1591503Y67194D01*
G01X1589963Y62191D01*
G01X1588424Y58728D01*
G01X1586884Y55649D01*
G01X1584960Y52186D01*
G01X1583036Y49491D01*
G01X1577263Y43719D01*
G01X1574569Y41794D01*
G01X1571106Y39870D01*
G01X1567642Y38331D01*
G01X1564178Y37176D01*
G01X1561099Y36407D01*
G01X1556096Y36022D01*
G01X1548784Y36407D01*
G01X1543011Y37561D01*
G01X1538778Y39101D01*
G01X1535699Y40640D01*
G01X1533006Y42179D01*
G01X1530696Y44104D01*
G01X1526848Y47952D01*
G01X1524539Y51031D01*
G01X1522230Y54879D01*
G01X1520690Y57958D01*
G01X1519536Y60652D01*
G01X1518381Y62576D01*
G01X1516457Y62576D01*
G01X1504142Y61037D01*
G01X1499909Y60652D01*
G01X1497599Y60364D01*
G01X1496830Y59497D01*
G01X1497214Y57189D01*
G01X1498369Y53725D01*
G01X1499909Y50261D01*
G01X1503372Y43334D01*
G01X1507221Y37946D01*
G01X1509530Y35252D01*
G01X1514148Y30634D01*
G01X1517227Y28325D01*
G01X1519921Y26401D01*
G01X1523384Y24476D01*
G01X1526463Y22937D01*
G01X1529542Y21783D01*
G01X1533006Y20628D01*
G01X1537239Y19473D01*
G01X1541087Y18704D01*
G01X1541087Y18704D01*
G01X1548014Y17934D01*
G01X1553403Y17549D01*
G01X1558021Y17934D01*
G01X1561099Y18319D01*
G01X1564948Y18704D01*
G01X1572645Y20243D01*
G01X1575724Y21013D01*
G01X1579187Y22167D01*
G01X1582651Y23707D01*
G01X1585730Y25246D01*
G01X1588424Y26786D01*
G01X1593042Y29864D01*
G01X1595351Y31789D01*
G01X1598045Y34483D01*
G01X1600739Y36791D01*
G01X1603048Y39486D01*
G01X1605742Y43334D01*
G01X1607666Y46413D01*
G01X1609206Y49491D01*
G01X1610745Y52955D01*
G01X1612284Y56804D01*
G01X1613439Y60267D01*
G01X1614978Y67194D01*
G01X1615748Y72583D01*
G01X1616133Y84128D01*
G01X1615748Y95673D01*
G01X1615363Y98367D01*
G01X1614978Y101831D01*
G01X1614209Y105679D01*
G01X1612669Y111837D01*
G01X1611514Y115686D01*
G01X1609975Y119919D01*
G01X1608436Y123383D01*
G01X1606896Y126076D01*
G01X1604972Y129155D01*
G01X1603433Y131849D01*
G01X1601893Y133773D01*
G01X1597275Y139161D01*
G01X1595351Y140701D01*
G01X1592657Y143010D01*
G01X1589578Y145319D01*
G01X1587269Y146858D01*
G01X1581881Y149937D01*
G01X1578803Y151091D01*
G01X1575338Y152246D01*
G01X1643072Y152246D01*
G01X1643072Y88361D01*
G01X1643457Y23322D01*
G01X1644227Y15625D01*
G01X1644996Y10237D01*
G01X1645766Y6389D01*
G01X1646921Y1386D01*
G01X1648460Y-2848D01*
G01X1649999Y-5927D01*
G01X1651539Y-8621D01*
G01X1653078Y-10930D01*
G01X1657696Y-16703D01*
G01X1661545Y-19781D01*
G01X1664239Y-22090D01*
G01X1667703Y-24399D01*
G01X1671166Y-26324D01*
G01X1675014Y-27863D01*
G01X1679248Y-29403D01*
G01X1682711Y-30557D01*
G01X1682711Y-30557D01*
G01X1691178Y-32096D01*
G01X1702724Y-32481D01*
G01X1713499Y-32096D01*
G01X1716963Y-31327D01*
G01X1722736Y-30172D01*
G01X1727739Y-28633D01*
G01X1731203Y-27093D01*
G01X1734281Y-25554D01*
G01X1737745Y-23630D01*
G01X1740824Y-21706D01*
G01X1743133Y-19781D01*
G01X1746981Y-15933D01*
G01X1748906Y-13239D01*
G01X1750830Y-9775D01*
G01X1752369Y-5542D01*
G01X1753524Y-2078D01*
G01X1754678Y7158D01*
G01X1754389Y8601D01*
G01X1753524Y9083D01*
G01X1748906Y8697D01*
G01X1744287Y7928D01*
G01X1738899Y7158D01*
G01X1735821Y6773D01*
G01X1733127Y6004D01*
G01X1731972Y3310D01*
G01X1730817Y-539D01*
G01X1729278Y-3617D01*
G01X1727739Y-5927D01*
G01X1725814Y-7851D01*
G01X1722736Y-9775D01*
G01X1719272Y-11699D01*
G01X1715809Y-12854D01*
G01X1712730Y-13624D01*
G01X1703878Y-14009D01*
G01X1694257Y-13624D01*
G01X1690409Y-12854D01*
G01X1687330Y-12084D01*
G01X1684636Y-11314D01*
G01X1681172Y-9775D01*
G01X1678478Y-7851D01*
G01X1676554Y-6311D01*
G01X1674245Y-4387D01*
G01X1671551Y-1309D01*
G01X1669242Y2540D01*
G01X1667703Y6773D01*
G01X1666548Y10237D01*
G01X1665778Y18704D01*
G01X1665695Y20628D01*
G01X1785466Y20628D01*
G01X1806248Y20628D01*
G01X1806248Y27940D01*
G01X1807017Y35637D01*
G01X1808172Y34867D01*
G01X1809711Y32943D01*
G01X1815484Y27170D01*
G01X1817793Y25246D01*
G01X1820872Y23322D01*
G01X1824336Y21397D01*
G01X1828954Y19858D01*
G01X1828954Y19858D01*
G01X1832803Y18704D01*
G01X1843193Y17549D01*
G01X1845887Y17934D01*
G01X1848196Y18319D01*
G01X1851275Y18704D01*
G01X1853969Y19089D01*
G01X1857048Y19858D01*
G01X1860511Y21013D01*
G01X1863590Y22167D01*
G01X1866669Y23707D01*
G01X1869363Y25246D01*
G01X1871672Y26401D01*
G01X1873981Y27940D01*
G01X1879369Y32558D01*
G01X1883987Y37176D01*
G01X1885911Y40255D01*
G01X1887451Y42179D01*
G01X1889375Y44873D01*
G01X1892454Y51031D01*
G01X1893993Y54494D01*
G01X1895533Y58343D01*
G01X1896687Y61807D01*
G01X1898227Y68734D01*
G01X1898996Y74122D01*
G01X1899381Y83743D01*
G01X1899195Y89516D01*
G01X1919009Y89516D01*
G01X1919009Y84128D01*
G01X1919393Y80664D01*
G01X1967884Y80664D01*
G01X2016760Y79894D01*
G01X2016760Y75661D01*
G01X2015990Y71043D01*
G01X2015221Y67194D01*
G01X2014066Y62961D01*
G01X2012911Y59883D01*
G01X2011757Y57189D01*
G01X2010217Y54494D01*
G01X2007139Y49876D01*
G01X2005214Y47567D01*
G01X2003290Y45643D01*
G01X2000596Y43334D01*
G01X1997903Y41410D01*
G01X1995209Y39870D01*
G01X1991745Y38331D01*
G01X1987896Y37176D01*
G01X1984433Y36407D01*
G01X1979045Y36022D01*
G01X1972887Y36407D01*
G01X1969039Y37176D01*
G01X1965960Y37946D01*
G01X1963266Y38716D01*
G01X1958648Y41025D01*
G01X1956339Y42564D01*
G01X1951721Y46413D01*
G01X1949411Y49491D01*
G01X1947103Y52955D01*
G01X1945563Y55649D01*
G01X1944024Y59113D01*
G01X1942484Y62191D01*
G01X1940560Y62576D01*
G01X1928245Y61037D01*
G01X1924011Y60652D01*
G01X1921606Y60364D01*
G01X1920548Y59497D01*
G01X1920933Y56804D01*
G01X1922472Y52955D01*
G01X1924011Y49491D01*
G01X1925551Y46413D01*
G01X1927475Y42949D01*
G01X1929399Y39870D01*
G01X1933248Y35252D01*
G01X1935172Y33328D01*
G01X1937096Y31789D01*
G01X1939790Y29094D01*
G01X1945563Y25246D01*
G01X1947872Y24091D01*
G01X1950566Y22937D01*
G01X1954030Y21397D01*
G01X1957493Y20243D01*
G01X1964421Y18704D01*
G01X1964421Y18704D01*
G01X1972117Y17934D01*
G01X1977506Y17549D01*
G01X1983663Y17934D01*
G01X1992899Y19473D01*
G01X1999057Y21013D01*
G01X2002521Y22167D01*
G01X2005599Y23322D01*
G01X2009063Y24861D01*
G01X2012911Y27170D01*
G01X2016760Y29864D01*
G01X2019839Y32173D01*
G01X2025611Y37946D01*
G01X2027921Y41025D01*
G01X2030230Y44489D01*
G01X2031769Y47183D01*
G01X2033309Y50261D01*
G01X2034848Y53725D01*
G01X2037157Y60652D01*
G01X2038311Y64886D01*
G01X2039081Y68734D01*
G01X2039851Y74891D01*
G01X2040236Y84128D01*
G01X2039851Y93364D01*
G01X2039466Y96058D01*
G01X2039081Y99522D01*
G01X2038311Y104140D01*
G01X2037157Y109528D01*
G01X2036003Y113376D01*
G01X2035233Y116070D01*
G01X2034078Y119149D01*
G01X2032539Y122613D01*
G01X2030999Y125691D01*
G01X2029075Y128770D01*
G01X2026381Y132619D01*
G01X2024072Y135697D01*
G01X2017530Y142240D01*
G01X2014451Y144549D01*
G01X2011757Y146473D01*
G01X2008293Y148397D01*
G01X2005214Y149937D01*
G01X2001751Y151476D01*
G01X1996748Y153016D01*
G01X1992899Y154170D01*
G01X1987511Y154940D01*
G01X1980969Y155325D01*
G01X1972887Y154940D01*
G01X1967499Y154170D01*
G01X1962111Y153016D01*
G01X1957109Y151476D01*
G01X1953645Y149937D01*
G01X1950566Y148397D01*
G01X1947103Y146473D01*
G01X1944409Y144934D01*
G01X1938636Y140316D01*
G01X1936711Y138391D01*
G01X1933633Y134543D01*
G01X1931324Y131849D01*
G01X1929399Y129155D01*
G01X1927860Y126461D01*
G01X1926321Y123383D01*
G01X1924011Y117994D01*
G01X1922857Y114531D01*
G01X1921703Y110683D01*
G01X1920548Y105679D01*
G01X1919778Y101061D01*
G01X1919393Y95673D01*
G01X1919009Y89516D01*
G01X1899195Y89516D01*
G01X1898996Y95673D01*
G01X1898227Y101831D01*
G01X1897457Y105679D01*
G01X1896687Y109143D01*
G01X1895533Y113761D01*
G01X1893993Y118379D01*
G01X1892454Y122613D01*
G01X1889375Y128770D01*
G01X1887066Y132619D01*
G01X1884757Y136083D01*
G01X1882833Y138391D01*
G01X1878214Y143010D01*
G01X1875136Y145319D01*
G01X1873211Y146858D01*
G01X1867824Y149937D01*
G01X1865130Y151091D01*
G01X1858972Y153401D01*
G01X1855893Y154170D01*
G01X1850506Y154940D01*
G01X1845503Y155325D01*
G01X1839730Y154940D01*
G01X1835111Y154170D01*
G01X1830109Y153016D01*
G01X1825875Y151476D01*
G01X1822796Y149937D01*
G01X1820103Y148397D01*
G01X1817793Y146858D01*
G01X1812021Y142240D01*
G01X1810481Y140316D01*
G01X1808942Y138776D01*
G01X1808076Y146473D01*
G01X1807787Y170334D01*
G01X1807787Y202276D01*
G01X2070254Y202276D01*
G01X2070254Y20628D01*
G01X2094114Y20628D01*
G01X2094114Y106834D01*
G01X2188787Y106834D01*
G01X2188787Y20628D01*
G01X2212648Y20628D01*
G01X2212648Y111452D01*
G01X2212648Y111452D01*
G01X2212648Y202276D01*
G01X2188787Y202276D01*
G01X2188787Y127616D01*
G01X2094114Y127616D01*
G01X2094114Y202276D01*
G01X2070254Y202276D01*
G01X1807787Y202276D01*
G01X1807787Y202276D01*
G01X1785466Y202276D01*
G01X1785466Y20628D01*
G01X1665695Y20628D01*
G01X1665393Y27555D01*
G01X1665778Y36407D01*
G01X1666356Y36888D01*
G01X1667317Y36022D01*
G01X1669627Y33713D01*
G01X1675399Y29094D01*
G01X1677709Y27555D01*
G01X1680403Y26016D01*
G01X1683481Y24476D01*
G01X1687714Y22937D01*
G01X1691178Y21783D01*
G01X1696566Y21013D01*
G01X1701569Y20628D01*
G01X1706572Y21013D01*
G01X1711960Y21783D01*
G01X1716193Y22552D01*
G01X1720811Y23707D01*
G01X1723890Y24861D01*
G01X1727354Y26401D01*
G01X1731203Y28710D01*
G01X1735051Y31404D01*
G01X1738130Y33713D01*
G01X1740824Y36407D01*
G01X1743903Y40255D01*
G01X1746596Y44104D01*
G01X1748521Y46797D01*
G01X1750060Y49491D01*
G01X1751599Y52570D01*
G01X1752754Y55264D01*
G01X1753909Y58343D01*
G01X1755448Y62576D01*
G01X1756603Y66425D01*
G01X1758142Y74891D01*
G01X1758527Y85283D01*
G01X1758142Y96443D01*
G01X1757372Y101831D01*
G01X1756217Y107989D01*
G01X1755063Y111837D01*
G01X1754293Y114916D01*
G01X1753139Y118379D01*
G01X1751599Y121843D01*
G01X1748521Y128001D01*
G01X1746596Y131464D01*
G01X1744287Y134928D01*
G01X1741978Y137622D01*
G01X1735821Y143779D01*
G01X1732742Y146089D01*
G01X1726584Y149937D01*
G01X1723890Y151091D01*
G01X1720811Y152246D01*
G01X1717348Y153401D01*
G01X1714269Y154170D01*
G01X1708881Y154940D01*
G01X1703109Y155325D01*
G01X1697336Y154940D01*
G01X1694642Y154555D01*
G01X1690409Y153786D01*
G01X1686560Y152631D01*
G01X1683481Y151476D01*
G01X1680017Y149937D01*
G01X1676554Y148013D01*
G01X1673860Y146089D01*
G01X1671551Y144549D01*
G01X1669242Y142625D01*
G01X1663854Y137237D01*
G01X1663277Y138872D01*
G01X1663084Y144549D01*
G01X1663084Y152246D01*
G01X1643072Y152246D01*
G01X1575338Y152246D01*
G01X1571875Y153401D01*
G01X1568796Y154170D01*
G01X1563409Y154940D01*
G01X1557636Y155325D01*
G01X1549554Y154940D01*
G01X1544166Y154170D01*
G01X1540317Y153401D01*
G01X1537239Y152631D01*
G01X1533775Y151476D01*
G01X1529542Y149937D01*
G01X1525693Y148013D01*
G01X1522230Y145704D01*
G01X1519536Y143779D01*
G01X1515687Y140701D01*
G01X1509914Y134928D01*
G01X1507606Y131849D01*
G01X1505296Y128386D01*
G01X1503757Y125691D01*
G01X1502217Y122613D01*
G01X1500678Y119149D01*
G01X1498369Y112222D01*
G01X1497214Y107989D01*
G01X1496445Y104140D01*
G01X1495675Y97983D01*
G01X1495290Y88746D01*
G01X1466042Y88746D01*
G01X1466042Y109528D01*
G01X1465657Y200352D01*
G01X1465272Y202276D01*
G01X1448339Y202276D01*
G01X1430251Y201891D01*
G01X1428327Y199197D01*
G01X1382145Y60652D01*
G01X1379066Y50646D01*
G01X1378296Y49011D01*
G01X1377527Y48722D01*
G01X1375987Y51416D01*
G01X1366751Y79125D01*
G01X1365211Y82973D01*
G01X1358284Y103755D01*
G01X1356745Y107604D01*
G01X1350587Y126076D01*
G01X1349048Y129925D01*
G01X1342121Y150707D01*
G01X1339811Y156864D01*
G01X1334039Y174183D01*
G01X1331730Y180340D01*
G01X1325957Y197658D01*
G01X1324803Y200737D01*
G01X1320473Y201891D01*
G01X1308254Y202276D01*
G01X1292090Y202276D01*
G01X650162Y202276D01*
G01X647469Y202661D01*
G01X639772Y203046D01*
G01X629766Y202661D01*
G01X624378Y201891D01*
G01X620530Y201122D01*
G01X615911Y199967D01*
G01X611678Y198428D01*
G01X608214Y196889D01*
G01X605136Y195349D01*
G01X602057Y193425D01*
G01X599363Y191501D01*
G01X597439Y189961D01*
G01X591666Y184189D01*
G01X589357Y181110D01*
G01X587048Y177646D01*
G01X585509Y174952D01*
G01X584354Y172258D01*
G01X583199Y169179D01*
G01X582045Y165716D01*
G01X581275Y162637D01*
G01X580890Y155325D01*
G01X581275Y145704D01*
G01X582430Y139546D01*
G01X583969Y134543D01*
G01X585509Y131079D01*
G01X588972Y124152D01*
G01X590896Y121073D01*
G01X592436Y118764D01*
G01X593975Y116840D01*
G01X595514Y114531D01*
G01X601287Y107604D01*
G01X613603Y95289D01*
G01X616681Y92979D01*
G01X621299Y88361D01*
G01X624378Y86052D01*
G01X626303Y84128D01*
G01X631690Y79510D01*
G01X636309Y75661D01*
G01X647084Y66425D01*
G01X649009Y64501D01*
G01X652857Y61422D01*
G01X663248Y51031D01*
G01X665557Y47952D01*
G01X667096Y46028D01*
G01X668251Y43719D01*
G01X668636Y42179D01*
G01X580121Y42179D01*
G01X580121Y42179D01*
G01X542277Y42179D01*
G01X542790Y42949D01*
G01X544714Y46413D01*
G01X546254Y49876D01*
G01X547409Y52955D01*
G01X548563Y55649D01*
G01X549717Y58728D01*
G01X550872Y62961D01*
G01X552027Y66425D01*
G01X553566Y74122D01*
G01X554336Y79510D01*
G01X555106Y85667D01*
G01X555875Y96443D01*
G01X556260Y109143D01*
G01X555875Y121843D01*
G01X555106Y132619D01*
G01X554336Y138776D01*
G01X553566Y144164D01*
G01X552796Y148397D01*
G01X551642Y154170D01*
G01X550103Y159558D01*
G01X548563Y163791D01*
G01X547409Y166870D01*
G01X546254Y169564D01*
G01X543175Y175722D01*
G01X541636Y178416D01*
G01X539327Y181879D01*
G01X537017Y184958D01*
G01X534709Y187652D01*
G01X532014Y189961D01*
G01X528166Y193810D01*
G01X526242Y195349D01*
G01X523548Y196889D01*
G01X520469Y198428D01*
G01X517775Y199583D01*
G01X514696Y200737D01*
G01X510463Y201891D01*
G01X506614Y202661D01*
G01X499303Y203046D01*
G01X490451Y202661D01*
G01X485833Y201891D01*
G01X479675Y200352D01*
G01X476211Y199197D01*
G01X472748Y197658D01*
G01X470054Y196119D01*
G01X467745Y194964D01*
G01X465436Y193425D01*
G01X461587Y190346D01*
G01X457739Y186497D01*
G01X455430Y183419D01*
G01X452736Y179570D01*
G01X450811Y176491D01*
G01X447733Y170334D01*
G01X446578Y167640D01*
G01X445424Y164561D01*
G01X443884Y160328D01*
G01X442345Y154940D01*
G01X441190Y151091D01*
G01X439651Y142625D01*
G01X438881Y136467D01*
G01X438111Y125691D01*
G01X437727Y111452D01*
G01X344208Y111452D01*
G01X340360Y115301D01*
G01X335742Y120689D01*
G01X333817Y122613D01*
G01X332278Y124537D01*
G01X330354Y127231D01*
G01X328045Y130694D01*
G01X326121Y133773D01*
G01X323042Y140701D01*
G01X321887Y144549D01*
G01X321117Y148013D01*
G01X320733Y150707D01*
G01X321117Y155710D01*
G01X321887Y160328D01*
G01X322657Y163407D01*
G01X323811Y166486D01*
G01X325351Y169179D01*
G01X326890Y171489D01*
G01X329199Y174183D01*
G01X332663Y177646D01*
G01X336127Y179955D01*
G01X338821Y181494D01*
G01X342669Y183034D01*
G01X346517Y184189D01*
G01X354599Y184573D01*
G01X362681Y184189D01*
G01X365760Y183419D01*
G01X369609Y182264D01*
G01X372687Y180725D01*
G01X375381Y179570D01*
G01X377690Y178031D01*
G01X379999Y176107D01*
G01X381924Y174183D01*
G01X383463Y172258D01*
G01X385387Y169949D01*
G01X386927Y167255D01*
G01X388466Y163407D01*
G01X389621Y159558D01*
G01X390390Y154170D01*
G01X390775Y151091D01*
G01X391545Y148783D01*
G01X393469Y148783D01*
G01X408863Y150322D01*
G01X411557Y150707D01*
G01X412711Y151284D01*
G01X413096Y153016D01*
G01X412327Y158019D01*
G01X411172Y162637D01*
G01X410017Y166870D01*
G01X408478Y171104D01*
G01X405399Y177261D01*
G01X403475Y180725D01*
G01X400781Y184189D01*
G01X398472Y187267D01*
G01X396548Y189191D01*
G01X392699Y192270D01*
G01X390390Y193810D01*
G01X385003Y196889D01*
G01X381539Y198428D01*
G01X377690Y199967D01*
G01X373842Y201122D01*
G01X370378Y201891D01*
G01X364990Y202661D01*
G01X356139Y203046D01*
G01X347287Y202661D01*
G01X341899Y201891D01*
G01X337666Y201122D01*
G01X333048Y199967D01*
G01X329969Y198813D01*
G01X327275Y197658D01*
G01X324196Y196119D01*
G01X320733Y194194D01*
G01X318039Y192655D01*
G01X316114Y191116D01*
G01X308417Y183419D01*
G01X306493Y180725D01*
G01X304569Y177646D01*
G01X303030Y174952D01*
G01X300721Y169564D01*
G01X299566Y166101D01*
G01X298796Y162637D01*
G01X298027Y154940D01*
G01X298027Y152631D01*
G01X298411Y149552D01*
G01X298796Y144934D01*
G01X299951Y139546D01*
G01X301490Y134543D01*
G01X303030Y131079D01*
G01X306493Y124152D01*
G01X308417Y121073D01*
G01X309957Y118764D01*
G01X311496Y116840D01*
G01X312651Y114916D01*
G01X314190Y112991D01*
G01X316114Y111067D01*
G01X319193Y107219D01*
G01X330739Y95673D01*
G01X334587Y92594D01*
G01X338436Y88746D01*
G01X359987Y70273D01*
G01X364606Y66425D01*
G01X366530Y64501D01*
G01X370378Y61422D01*
G01X380769Y51031D01*
G01X383078Y47952D01*
G01X384617Y46028D01*
G01X385772Y43719D01*
G01X386157Y42179D01*
G01X297642Y42179D01*
G01X297642Y42179D01*
G01X264930Y42179D01*
G01X266469Y44489D01*
G01X268393Y47952D01*
G01X269933Y51801D01*
G01X271472Y56419D01*
G01X272627Y60267D01*
G01X273396Y64886D01*
G01X273300Y67483D01*
G01X272242Y68349D01*
G01X269548Y68734D01*
G01X260311Y69504D01*
G01X254924Y69889D01*
G01X251653Y69600D01*
G01X250306Y68734D01*
G01X247996Y61037D01*
G01X246842Y57573D01*
G01X244917Y53340D01*
G01X242609Y49491D01*
G01X240299Y46797D01*
G01X236451Y42949D01*
G01X234527Y41410D01*
G01X231833Y39870D01*
G01X228754Y38331D01*
G01X225675Y37176D01*
G01X222596Y36407D01*
G01X217593Y36022D01*
G01X210281Y36407D01*
G01X204509Y37561D01*
G01X200275Y39101D01*
G01X194887Y41794D01*
G01X192963Y43334D01*
G01X190269Y45643D01*
G01X187960Y47952D01*
G01X186421Y49876D01*
G01X184111Y52570D01*
G01X182187Y55649D01*
G01X180648Y58728D01*
G01X179109Y62961D01*
G01X177954Y66425D01*
G01X177184Y71813D01*
G01X176799Y77586D01*
G01X177184Y85667D01*
G01X177954Y90286D01*
G01X178339Y92979D01*
G01X179109Y96058D01*
G01X180648Y99907D01*
G01X182572Y103755D01*
G01X184881Y107219D01*
G01X187190Y109913D01*
G01X191039Y113761D01*
G01X193733Y115686D01*
G01X197196Y117610D01*
G01X200660Y119149D01*
G01X204509Y120304D01*
G01X207972Y121073D01*
G01X213745Y121458D01*
G01X221827Y121073D01*
G01X227599Y119919D01*
G01X231833Y118379D01*
G01X235681Y116455D01*
G01X239145Y114146D01*
G01X241839Y112222D01*
G01X245687Y108373D01*
G01X248574Y104910D01*
G01X249921Y104525D01*
G01X254924Y104910D01*
G01X261081Y105679D01*
G01X269163Y106834D01*
G01X268778Y109913D01*
G01X268009Y114146D01*
G01X265699Y125691D01*
G01X264930Y130310D01*
G01X263390Y138007D01*
G01X262621Y142625D01*
G01X261851Y146473D01*
G01X260311Y154940D01*
G01X258003Y166486D01*
G01X257233Y171104D01*
G01X255693Y178801D01*
G01X254924Y183419D01*
G01X254154Y187267D01*
G01X252614Y195734D01*
G01X252230Y198428D01*
G01X240877Y199583D01*
G01X206817Y199967D01*
G01X161406Y199967D01*
G01X161406Y191116D01*
G01X161790Y180340D01*
G01X162175Y178416D01*
G01X197966Y178416D01*
G01X225002Y178031D01*
G01X234527Y176876D01*
G01X235681Y173413D01*
G01X243378Y134928D01*
G01X243378Y131849D01*
G01X242705Y131176D01*
G01X241454Y131464D01*
G01X236066Y134543D01*
G01X232987Y136083D01*
G01X229139Y137622D01*
G01X224136Y139161D01*
G01X220287Y140316D01*
G01X216439Y140701D01*
G01X211821Y141086D01*
G01X208742Y141086D01*
G01X205278Y140701D01*
G01X201045Y140316D01*
G01X197196Y139546D01*
G01X191039Y138007D01*
G01X187960Y136852D01*
G01X181803Y133773D01*
G01X178724Y131849D01*
G01X176030Y129925D01*
G01X170257Y125307D01*
G01X168333Y123383D01*
G01X163714Y117610D01*
G01X160636Y112991D01*
G01X159481Y110683D01*
G01X157172Y105294D01*
G01X156017Y102216D01*
G01X154863Y97983D01*
G01X154093Y94134D01*
G01X153709Y91055D01*
G01X153324Y85667D01*
G01X139623Y85667D01*
G01X139623Y252538D01*
G01X2235200Y252538D01*
G01X2235200Y-38100D01*
G01X139623Y-38100D01*
G37*
G36*
G01X510463Y39101D02*
G01X506999Y37561D01*
G01X503921Y36791D01*
G01X501996Y36407D01*
G01X497378Y36022D01*
G01X490451Y36791D01*
G01X485833Y38331D01*
G01X481984Y40255D01*
G01X479290Y42179D01*
G01X477366Y43719D01*
G01X473517Y47567D01*
G01X471209Y50261D01*
G01X468899Y54110D01*
G01X466975Y57958D01*
G01X465436Y62576D01*
G01X464281Y66425D01*
G01X462742Y74122D01*
G01X461972Y80279D01*
G01X461203Y88746D01*
G01X460817Y109143D01*
G01X461203Y129540D01*
G01X461587Y133004D01*
G01X461972Y138007D01*
G01X462742Y143394D01*
G01X463511Y148013D01*
G01X464281Y151861D01*
G01X465821Y158019D01*
G01X466975Y161483D01*
G01X468514Y164946D01*
G01X470054Y168025D01*
G01X471593Y170719D01*
G01X473517Y173028D01*
G01X478521Y178031D01*
G01X480830Y179955D01*
G01X483524Y181494D01*
G01X486217Y182649D01*
G01X489296Y183804D01*
G01X495454Y184573D01*
G01X502766Y184189D01*
G01X507769Y183034D01*
G01X511233Y181494D01*
G01X514311Y179570D01*
G01X517006Y177261D01*
G01X520854Y173413D01*
G01X522393Y171489D01*
G01X523933Y168794D01*
G01X525472Y165716D01*
G01X526627Y162637D01*
G01X528936Y155710D01*
G01X529706Y152631D01*
G01X531245Y144934D01*
G01X532014Y138776D01*
G01X532784Y129540D01*
G01X533169Y111067D01*
G01X532784Y92594D01*
G01X532399Y88746D01*
G01X532014Y83358D01*
G01X531245Y77201D01*
G01X530475Y72583D01*
G01X529706Y68349D01*
G01X528551Y63731D01*
G01X527396Y60267D01*
G01X526242Y57189D01*
G01X524703Y54110D01*
G01X522778Y50646D01*
G01X520854Y47952D01*
G01X514311Y41410D01*
G01X510463Y39101D01*
G37*
G04 Text End*

G04 PolygonModel Start*
G54D11*
G01X429181Y3715857D02*
G01X349184Y3715857D01*
G01X485226Y3715903D02*
G01X565224Y3715903D01*
G01X429181Y3573889D02*
G01X349184Y3573889D01*
G01X485226Y3573937D02*
G01X565224Y3573937D01*
G01X318209Y3684875D02*
G01X318209Y3604870D01*
G01X596202Y3604923D02*
G01X596202Y3684925D01*
G01X565219Y3573937D02*
G03X596202Y3604923I0J30983D01*
G01X596202Y3684920D02*
G03X565219Y3715903I-30983J0D01*
G01X349189Y3715857D02*
G03X318209Y3684875I3J-30983D01*
G01X318209Y3604877D02*
G03X349189Y3573889I30983J-5D01*
G01X619681Y4528657D02*
G01X539684Y4528657D01*
G01X675726Y4528703D02*
G01X755724Y4528703D01*
G01X619681Y4386689D02*
G01X539684Y4386689D01*
G01X675726Y4386737D02*
G01X755724Y4386737D01*
G01X508709Y4497675D02*
G01X508709Y4417670D01*
G01X786702Y4417723D02*
G01X786702Y4497725D01*
G01X755719Y4386737D02*
G03X786702Y4417723I0J30983D01*
G01X786702Y4497720D02*
G03X755719Y4528703I-30983J0D01*
G01X539689Y4528657D02*
G03X508709Y4497675I3J-30983D01*
G01X508709Y4417677D02*
G03X539689Y4386689I30983J-5D01*
G01X1767919Y4513743D02*
G01X1847916Y4513743D01*
G01X1711874Y4513697D02*
G01X1631876Y4513697D01*
G01X1767919Y4655711D02*
G01X1847916Y4655711D01*
G01X1711874Y4655663D02*
G01X1631876Y4655663D01*
G01X1878891Y4544725D02*
G01X1878891Y4624730D01*
G01X1600899Y4624677D02*
G01X1600899Y4544675D01*
G01X1631881Y4655663D02*
G03X1600899Y4624677I0J-30983D01*
G01X1600899Y4544680D02*
G03X1631881Y4513697I30983J0D01*
G01X1847911Y4513743D02*
G03X1878891Y4544725I-3J30983D01*
G01X1878891Y4624723D02*
G03X1847911Y4655711I-30983J5D01*
G54D10*
G01X1051540Y3789121D02*
G01X1051540Y3885009D01*
G01X1051540Y3885009D02*
G01X1183660Y3885009D01*
G01X1183660Y3885009D02*
G01X1183660Y3789121D01*
G01X1051540Y3703879D02*
G01X1051540Y3607991D01*
G01X1051540Y3607991D02*
G01X1183660Y3607991D01*
G01X1183660Y3607991D02*
G01X1183660Y3703879D01*
G01X175240Y3941521D02*
G01X175240Y4037409D01*
G01X175240Y4037409D02*
G01X307360Y4037409D01*
G01X307360Y4037409D02*
G01X307360Y3941521D01*
G01X175240Y3856279D02*
G01X175240Y3760391D01*
G01X175240Y3760391D02*
G01X307360Y3760391D01*
G01X307360Y3760391D02*
G01X307360Y3856279D01*
G54D12*
G01X856334Y3834328D02*
G01X856334Y3817292D01*
G01X856334Y3817292D02*
G01X820266Y3781369D01*
G01X820266Y3781369D02*
G01X807566Y3781369D01*
G01X427328Y4159956D02*
G01X427328Y4212280D01*
G01X427328Y4212280D02*
G01X479906Y4212280D01*
G01X427328Y3834836D02*
G01X427328Y3782258D01*
G01X427328Y3782258D02*
G01X479906Y3782258D01*
G01X857350Y4159956D02*
G01X857350Y4212280D01*
G01X857350Y4212280D02*
G01X805026Y4212280D01*

G04 Circle Start*
G54D13*
G01X761834Y3733122D02*
G03X777074Y3733122I7620J0D01*
G03X761834Y3733122I-7620J0D01*
G04 Circle End*

M02*

