G04 Layer: TopSilkscreenLayer*
G04 EasyEDA Pro v2.2.40.8, 2025-08-03 21:23:04*
G04 Gerber Generator version 0.3*
G04 Scale: 100 percent, Rotated: No, Reflected: No*
G04 Dimensions in millimeters*
G04 Leading zeros omitted, absolute positions, 4 integers and 5 decimals*
G04 Generated by one-click*
%FSLAX45Y45*%
%MOMM*%
%ADD10C,0.1524*%
%ADD11C,0.1*%
%ADD12C,0.2032*%
%ADD13C,0.254*%
%ADD14C,0.203*%
%ADD15C,0.2*%
%ADD16C,0.1530*%
%ADD17C,0.15001*%
%ADD18C,0.15011*%
G75*


G04 Text Start*
G54D10*
G01X4607451Y1202489D02*
G01X4613801Y1205537D01*
G01X4619897Y1211887D01*
G01X4622945Y1217983D01*
G01X4622945Y1230429D01*
G01X4619897Y1236525D01*
G01X4613801Y1242875D01*
G01X4607451Y1245923D01*
G01X4598307Y1248971D01*
G01X4582813Y1248971D01*
G01X4573415Y1245923D01*
G01X4567319Y1242875D01*
G01X4560969Y1236525D01*
G01X4557921Y1230429D01*
G01X4557921Y1217983D01*
G01X4560969Y1211887D01*
G01X4567319Y1205537D01*
G01X4573415Y1202489D01*
G01X4610499Y1172263D02*
G01X4613801Y1166167D01*
G01X4622945Y1157023D01*
G01X4557921Y1157023D01*
G01X4622945Y1089713D02*
G01X4622945Y1120701D01*
G01X4595259Y1123749D01*
G01X4598307Y1120701D01*
G01X4601355Y1111557D01*
G01X4601355Y1102159D01*
G01X4598307Y1092761D01*
G01X4591957Y1086665D01*
G01X4582813Y1083617D01*
G01X4576463Y1083617D01*
G01X4567319Y1086665D01*
G01X4560969Y1092761D01*
G01X4557921Y1102159D01*
G01X4557921Y1111557D01*
G01X4560969Y1120701D01*
G01X4564271Y1123749D01*
G01X4570367Y1126797D01*
G01X5477002Y1767840D02*
G01X5473954Y1774190D01*
G01X5467604Y1780286D01*
G01X5461508Y1783334D01*
G01X5449062Y1783334D01*
G01X5442966Y1780286D01*
G01X5436616Y1774190D01*
G01X5433568Y1767840D01*
G01X5430520Y1758696D01*
G01X5430520Y1743202D01*
G01X5433568Y1733804D01*
G01X5436616Y1727708D01*
G01X5442966Y1721358D01*
G01X5449062Y1718310D01*
G01X5461508Y1718310D01*
G01X5467604Y1721358D01*
G01X5473954Y1727708D01*
G01X5477002Y1733804D01*
G01X5507228Y1770888D02*
G01X5513324Y1774190D01*
G01X5522468Y1783334D01*
G01X5522468Y1718310D01*
G01X5589778Y1774190D02*
G01X5586730Y1780286D01*
G01X5577332Y1783334D01*
G01X5571236Y1783334D01*
G01X5561838Y1780286D01*
G01X5555742Y1770888D01*
G01X5552694Y1755648D01*
G01X5552694Y1740154D01*
G01X5555742Y1727708D01*
G01X5561838Y1721358D01*
G01X5571236Y1718310D01*
G01X5574284Y1718310D01*
G01X5583428Y1721358D01*
G01X5589778Y1727708D01*
G01X5592826Y1736852D01*
G01X5592826Y1740154D01*
G01X5589778Y1749298D01*
G01X5583428Y1755648D01*
G01X5574284Y1758696D01*
G01X5571236Y1758696D01*
G01X5561838Y1755648D01*
G01X5555742Y1749298D01*
G01X5552694Y1740154D01*
G01X4645551Y1773989D02*
G01X4651901Y1777037D01*
G01X4657997Y1783387D01*
G01X4661045Y1789483D01*
G01X4661045Y1801929D01*
G01X4657997Y1808025D01*
G01X4651901Y1814375D01*
G01X4645551Y1817423D01*
G01X4636407Y1820471D01*
G01X4620913Y1820471D01*
G01X4611515Y1817423D01*
G01X4605419Y1814375D01*
G01X4599069Y1808025D01*
G01X4596021Y1801929D01*
G01X4596021Y1789483D01*
G01X4599069Y1783387D01*
G01X4605419Y1777037D01*
G01X4611515Y1773989D01*
G01X4648599Y1743763D02*
G01X4651901Y1737667D01*
G01X4661045Y1728523D01*
G01X4596021Y1728523D01*
G01X4661045Y1655117D02*
G01X4596021Y1686105D01*
G01X4661045Y1698297D02*
G01X4661045Y1655117D01*
G01X5229860Y1959102D02*
G01X5223510Y1956054D01*
G01X5217414Y1949704D01*
G01X5214366Y1943608D01*
G01X5214366Y1931162D01*
G01X5217414Y1925066D01*
G01X5223510Y1918716D01*
G01X5229860Y1915668D01*
G01X5239004Y1912620D01*
G01X5254498Y1912620D01*
G01X5263896Y1915668D01*
G01X5269992Y1918716D01*
G01X5276342Y1925066D01*
G01X5279390Y1931162D01*
G01X5279390Y1943608D01*
G01X5276342Y1949704D01*
G01X5269992Y1956054D01*
G01X5263896Y1959102D01*
G01X5226812Y1989328D02*
G01X5223510Y1995424D01*
G01X5214366Y2004568D01*
G01X5279390Y2004568D01*
G01X5214366Y2050034D02*
G01X5217414Y2040890D01*
G01X5223510Y2037842D01*
G01X5229860Y2037842D01*
G01X5235956Y2040890D01*
G01X5239004Y2046986D01*
G01X5242052Y2059432D01*
G01X5245354Y2068830D01*
G01X5251450Y2074926D01*
G01X5257546Y2077974D01*
G01X5266944Y2077974D01*
G01X5273040Y2074926D01*
G01X5276342Y2071878D01*
G01X5279390Y2062480D01*
G01X5279390Y2050034D01*
G01X5276342Y2040890D01*
G01X5273040Y2037842D01*
G01X5266944Y2034794D01*
G01X5257546Y2034794D01*
G01X5251450Y2037842D01*
G01X5245354Y2043938D01*
G01X5242052Y2053336D01*
G01X5239004Y2065528D01*
G01X5235956Y2071878D01*
G01X5229860Y2074926D01*
G01X5223510Y2074926D01*
G01X5217414Y2071878D01*
G01X5214366Y2062480D01*
G01X5214366Y2050034D01*
G01X4689602Y1412240D02*
G01X4686554Y1418590D01*
G01X4680204Y1424686D01*
G01X4674108Y1427734D01*
G01X4661662Y1427734D01*
G01X4655566Y1424686D01*
G01X4649216Y1418590D01*
G01X4646168Y1412240D01*
G01X4643120Y1403096D01*
G01X4643120Y1387602D01*
G01X4646168Y1378204D01*
G01X4649216Y1372108D01*
G01X4655566Y1365758D01*
G01X4661662Y1362710D01*
G01X4674108Y1362710D01*
G01X4680204Y1365758D01*
G01X4686554Y1372108D01*
G01X4689602Y1378204D01*
G01X4719828Y1415288D02*
G01X4725924Y1418590D01*
G01X4735068Y1427734D01*
G01X4735068Y1362710D01*
G01X4805426Y1406144D02*
G01X4802378Y1396746D01*
G01X4796028Y1390650D01*
G01X4786884Y1387602D01*
G01X4783836Y1387602D01*
G01X4774438Y1390650D01*
G01X4768342Y1396746D01*
G01X4765294Y1406144D01*
G01X4765294Y1409192D01*
G01X4768342Y1418590D01*
G01X4774438Y1424686D01*
G01X4783836Y1427734D01*
G01X4786884Y1427734D01*
G01X4796028Y1424686D01*
G01X4802378Y1418590D01*
G01X4805426Y1406144D01*
G01X4805426Y1390650D01*
G01X4802378Y1375156D01*
G01X4796028Y1365758D01*
G01X4786884Y1362710D01*
G01X4780534Y1362710D01*
G01X4771390Y1365758D01*
G01X4768342Y1372108D01*
G01X3825240Y834898D02*
G01X3831590Y837946D01*
G01X3837686Y844296D01*
G01X3840734Y850392D01*
G01X3840734Y862838D01*
G01X3837686Y868934D01*
G01X3831590Y875284D01*
G01X3825240Y878332D01*
G01X3816096Y881380D01*
G01X3800602Y881380D01*
G01X3791204Y878332D01*
G01X3785108Y875284D01*
G01X3778758Y868934D01*
G01X3775710Y862838D01*
G01X3775710Y850392D01*
G01X3778758Y844296D01*
G01X3785108Y837946D01*
G01X3791204Y834898D01*
G01X3825240Y801624D02*
G01X3828288Y801624D01*
G01X3834638Y798576D01*
G01X3837686Y795528D01*
G01X3840734Y789432D01*
G01X3840734Y776986D01*
G01X3837686Y770636D01*
G01X3834638Y767588D01*
G01X3828288Y764540D01*
G01X3822192Y764540D01*
G01X3816096Y767588D01*
G01X3806698Y773938D01*
G01X3775710Y804672D01*
G01X3775710Y761492D01*
G01X3840734Y712724D02*
G01X3837686Y722122D01*
G01X3828288Y728218D01*
G01X3813048Y731266D01*
G01X3803650Y731266D01*
G01X3788156Y728218D01*
G01X3778758Y722122D01*
G01X3775710Y712724D01*
G01X3775710Y706628D01*
G01X3778758Y697230D01*
G01X3788156Y691134D01*
G01X3803650Y688086D01*
G01X3813048Y688086D01*
G01X3828288Y691134D01*
G01X3837686Y697230D01*
G01X3840734Y706628D01*
G01X3840734Y712724D01*
G01X5515102Y1653540D02*
G01X5512054Y1659890D01*
G01X5505704Y1665986D01*
G01X5499608Y1669034D01*
G01X5487162Y1669034D01*
G01X5481066Y1665986D01*
G01X5474716Y1659890D01*
G01X5471668Y1653540D01*
G01X5468620Y1644396D01*
G01X5468620Y1628902D01*
G01X5471668Y1619504D01*
G01X5474716Y1613408D01*
G01X5481066Y1607058D01*
G01X5487162Y1604010D01*
G01X5499608Y1604010D01*
G01X5505704Y1607058D01*
G01X5512054Y1613408D01*
G01X5515102Y1619504D01*
G01X5545328Y1669034D02*
G01X5545328Y1604010D01*
G01X5545328Y1669034D02*
G01X5588508Y1604010D01*
G01X5588508Y1669034D02*
G01X5588508Y1604010D01*
G01X5618734Y1656588D02*
G01X5624830Y1659890D01*
G01X5633974Y1669034D01*
G01X5633974Y1604010D01*
G01X6014720Y1249934D02*
G01X6014720Y1184910D01*
G01X6014720Y1249934D02*
G01X6036310Y1249934D01*
G01X6045708Y1246886D01*
G01X6051804Y1240790D01*
G01X6054852Y1234440D01*
G01X6058154Y1225296D01*
G01X6058154Y1209802D01*
G01X6054852Y1200404D01*
G01X6051804Y1194308D01*
G01X6045708Y1187958D01*
G01X6036310Y1184910D01*
G01X6014720Y1184910D01*
G01X6134608Y1234440D02*
G01X6131560Y1240790D01*
G01X6125464Y1246886D01*
G01X6119114Y1249934D01*
G01X6106922Y1249934D01*
G01X6100572Y1246886D01*
G01X6094476Y1240790D01*
G01X6091428Y1234440D01*
G01X6088380Y1225296D01*
G01X6088380Y1209802D01*
G01X6091428Y1200404D01*
G01X6094476Y1194308D01*
G01X6100572Y1187958D01*
G01X6106922Y1184910D01*
G01X6119114Y1184910D01*
G01X6125464Y1187958D01*
G01X6131560Y1194308D01*
G01X6134608Y1200404D01*
G01X6164834Y1237488D02*
G01X6170930Y1240790D01*
G01X6180074Y1249934D01*
G01X6180074Y1184910D01*
G01X5082794Y3583940D02*
G01X5017770Y3583940D01*
G01X5082794Y3540506D02*
G01X5017770Y3540506D01*
G01X5051806Y3583940D02*
G01X5051806Y3540506D01*
G01X5070348Y3510280D02*
G01X5073650Y3504184D01*
G01X5082794Y3495040D01*
G01X5017770Y3495040D01*
G01X3903980Y2244568D02*
G01X3903980Y2309592D01*
G01X3860546Y2244568D02*
G01X3860546Y2309592D01*
G01X3903980Y2275556D02*
G01X3860546Y2275556D01*
G01X3827272Y2260062D02*
G01X3827272Y2257014D01*
G01X3824224Y2250664D01*
G01X3821176Y2247616D01*
G01X3815080Y2244568D01*
G01X3802634Y2244568D01*
G01X3796284Y2247616D01*
G01X3793236Y2250664D01*
G01X3790188Y2257014D01*
G01X3790188Y2263110D01*
G01X3793236Y2269206D01*
G01X3799586Y2278604D01*
G01X3830320Y2309592D01*
G01X3787140Y2309592D01*
G01X5618477Y4058666D02*
G01X5618477Y4123690D01*
G01X5575043Y4058666D02*
G01X5575043Y4123690D01*
G01X5618477Y4089654D02*
G01X5575043Y4089654D01*
G01X5538721Y4058666D02*
G01X5504685Y4058666D01*
G01X5523227Y4083304D01*
G01X5514083Y4083304D01*
G01X5507733Y4086352D01*
G01X5504685Y4089654D01*
G01X5501637Y4098798D01*
G01X5501637Y4105148D01*
G01X5504685Y4114292D01*
G01X5510781Y4120642D01*
G01X5520179Y4123690D01*
G01X5529577Y4123690D01*
G01X5538721Y4120642D01*
G01X5541769Y4117340D01*
G01X5544817Y4111244D01*
G01X4630420Y2342134D02*
G01X4630420Y2277110D01*
G01X4630420Y2277110D02*
G01X4667504Y2277110D01*
G01X4700778Y2326640D02*
G01X4700778Y2329688D01*
G01X4703826Y2336038D01*
G01X4706874Y2339086D01*
G01X4712970Y2342134D01*
G01X4725416Y2342134D01*
G01X4731766Y2339086D01*
G01X4734814Y2336038D01*
G01X4737862Y2329688D01*
G01X4737862Y2323592D01*
G01X4734814Y2317496D01*
G01X4728464Y2308098D01*
G01X4697730Y2277110D01*
G01X4740910Y2277110D01*
G01X3970020Y1783334D02*
G01X3970020Y1718310D01*
G01X3970020Y1718310D02*
G01X4007104Y1718310D01*
G01X4074414Y1783334D02*
G01X4043426Y1783334D01*
G01X4040378Y1755648D01*
G01X4043426Y1758696D01*
G01X4052570Y1761744D01*
G01X4061968Y1761744D01*
G01X4071366Y1758696D01*
G01X4077462Y1752346D01*
G01X4080510Y1743202D01*
G01X4080510Y1736852D01*
G01X4077462Y1727708D01*
G01X4071366Y1721358D01*
G01X4061968Y1718310D01*
G01X4052570Y1718310D01*
G01X4043426Y1721358D01*
G01X4040378Y1724660D01*
G01X4037330Y1730756D01*
G01X3280159Y2006194D02*
G01X3280159Y1941170D01*
G01X3280159Y1941170D02*
G01X3317243Y1941170D01*
G01X3347469Y2006194D02*
G01X3347469Y1941170D01*
G01X3347469Y2006194D02*
G01X3387601Y2006194D01*
G01X3347469Y1975206D02*
G01X3372107Y1975206D01*
G01X3347469Y1941170D02*
G01X3387601Y1941170D01*
G01X3417827Y2006194D02*
G01X3417827Y1941170D01*
G01X3417827Y2006194D02*
G01X3439417Y2006194D01*
G01X3448561Y2003146D01*
G01X3454911Y1997050D01*
G01X3457959Y1990700D01*
G01X3461007Y1981556D01*
G01X3461007Y1966062D01*
G01X3457959Y1956664D01*
G01X3454911Y1950568D01*
G01X3448561Y1944218D01*
G01X3439417Y1941170D01*
G01X3417827Y1941170D01*
G01X3494281Y1990700D02*
G01X3494281Y1993748D01*
G01X3497329Y2000098D01*
G01X3500377Y2003146D01*
G01X3506473Y2006194D01*
G01X3518919Y2006194D01*
G01X3525269Y2003146D01*
G01X3528317Y2000098D01*
G01X3531365Y1993748D01*
G01X3531365Y1987652D01*
G01X3528317Y1981556D01*
G01X3521967Y1972158D01*
G01X3491233Y1941170D01*
G01X3534413Y1941170D01*
G01X2886710Y1463294D02*
G01X2886710Y1398270D01*
G01X2886710Y1398270D02*
G01X2923794Y1398270D01*
G01X2954020Y1463294D02*
G01X2954020Y1398270D01*
G01X2954020Y1463294D02*
G01X2994152Y1463294D01*
G01X2954020Y1432306D02*
G01X2978658Y1432306D01*
G01X2954020Y1398270D02*
G01X2994152Y1398270D01*
G01X3024378Y1463294D02*
G01X3024378Y1398270D01*
G01X3024378Y1463294D02*
G01X3045968Y1463294D01*
G01X3055112Y1460246D01*
G01X3061462Y1454150D01*
G01X3064510Y1447800D01*
G01X3067558Y1438656D01*
G01X3067558Y1423162D01*
G01X3064510Y1413764D01*
G01X3061462Y1407668D01*
G01X3055112Y1401318D01*
G01X3045968Y1398270D01*
G01X3024378Y1398270D01*
G01X3103880Y1463294D02*
G01X3137916Y1463294D01*
G01X3119374Y1438656D01*
G01X3128518Y1438656D01*
G01X3134868Y1435608D01*
G01X3137916Y1432306D01*
G01X3140964Y1423162D01*
G01X3140964Y1416812D01*
G01X3137916Y1407668D01*
G01X3131820Y1401318D01*
G01X3122422Y1398270D01*
G01X3113024Y1398270D01*
G01X3103880Y1401318D01*
G01X3100832Y1404620D01*
G01X3097784Y1410716D01*
G01X4221480Y1886966D02*
G01X4221480Y1951990D01*
G01X4221480Y1886966D02*
G01X4193540Y1886966D01*
G01X4184396Y1890014D01*
G01X4181348Y1893062D01*
G01X4178046Y1899412D01*
G01X4178046Y1905508D01*
G01X4181348Y1911604D01*
G01X4184396Y1914652D01*
G01X4193540Y1917954D01*
G01X4221480Y1917954D01*
G01X4199890Y1917954D02*
G01X4178046Y1951990D01*
G01X4147820Y1899412D02*
G01X4141724Y1896110D01*
G01X4132580Y1886966D01*
G01X4132580Y1951990D01*
G01X4087114Y1886966D02*
G01X4096258Y1890014D01*
G01X4099306Y1896110D01*
G01X4099306Y1902460D01*
G01X4096258Y1908556D01*
G01X4090162Y1911604D01*
G01X4077716Y1914652D01*
G01X4068318Y1917954D01*
G01X4062222Y1924050D01*
G01X4059174Y1930146D01*
G01X4059174Y1939544D01*
G01X4062222Y1945640D01*
G01X4065270Y1948942D01*
G01X4074668Y1951990D01*
G01X4087114Y1951990D01*
G01X4096258Y1948942D01*
G01X4099306Y1945640D01*
G01X4102354Y1939544D01*
G01X4102354Y1930146D01*
G01X4099306Y1924050D01*
G01X4093210Y1917954D01*
G01X4083812Y1914652D01*
G01X4071620Y1911604D01*
G01X4065270Y1908556D01*
G01X4062222Y1902460D01*
G01X4062222Y1896110D01*
G01X4065270Y1890014D01*
G01X4074668Y1886966D01*
G01X4087114Y1886966D01*
G01X4246880Y2064766D02*
G01X4246880Y2129790D01*
G01X4246880Y2064766D02*
G01X4218940Y2064766D01*
G01X4209796Y2067814D01*
G01X4206748Y2070862D01*
G01X4203446Y2077212D01*
G01X4203446Y2083308D01*
G01X4206748Y2089404D01*
G01X4209796Y2092452D01*
G01X4218940Y2095754D01*
G01X4246880Y2095754D01*
G01X4225290Y2095754D02*
G01X4203446Y2129790D01*
G01X4173220Y2077212D02*
G01X4167124Y2073910D01*
G01X4157980Y2064766D01*
G01X4157980Y2129790D01*
G01X4087622Y2086356D02*
G01X4090670Y2095754D01*
G01X4097020Y2101850D01*
G01X4106164Y2104898D01*
G01X4109212Y2104898D01*
G01X4118610Y2101850D01*
G01X4124706Y2095754D01*
G01X4127754Y2086356D01*
G01X4127754Y2083308D01*
G01X4124706Y2073910D01*
G01X4118610Y2067814D01*
G01X4109212Y2064766D01*
G01X4106164Y2064766D01*
G01X4097020Y2067814D01*
G01X4090670Y2073910D01*
G01X4087622Y2086356D01*
G01X4087622Y2101850D01*
G01X4090670Y2117344D01*
G01X4097020Y2126742D01*
G01X4106164Y2129790D01*
G01X4112514Y2129790D01*
G01X4121658Y2126742D01*
G01X4124706Y2120392D01*
G01X3510280Y1302766D02*
G01X3510280Y1367790D01*
G01X3510280Y1302766D02*
G01X3482340Y1302766D01*
G01X3473196Y1305814D01*
G01X3470148Y1308862D01*
G01X3466846Y1315212D01*
G01X3466846Y1321308D01*
G01X3470148Y1327404D01*
G01X3473196Y1330452D01*
G01X3482340Y1333754D01*
G01X3510280Y1333754D01*
G01X3488690Y1333754D02*
G01X3466846Y1367790D01*
G01X3433572Y1318260D02*
G01X3433572Y1315212D01*
G01X3430524Y1308862D01*
G01X3427476Y1305814D01*
G01X3421380Y1302766D01*
G01X3408934Y1302766D01*
G01X3402584Y1305814D01*
G01X3399536Y1308862D01*
G01X3396488Y1315212D01*
G01X3396488Y1321308D01*
G01X3399536Y1327404D01*
G01X3405886Y1336802D01*
G01X3436620Y1367790D01*
G01X3393440Y1367790D01*
G01X3344672Y1302766D02*
G01X3354070Y1305814D01*
G01X3360166Y1315212D01*
G01X3363214Y1330452D01*
G01X3363214Y1339850D01*
G01X3360166Y1355344D01*
G01X3354070Y1364742D01*
G01X3344672Y1367790D01*
G01X3338576Y1367790D01*
G01X3329178Y1364742D01*
G01X3323082Y1355344D01*
G01X3320034Y1339850D01*
G01X3320034Y1330452D01*
G01X3323082Y1315212D01*
G01X3329178Y1305814D01*
G01X3338576Y1302766D01*
G01X3344672Y1302766D01*
G01X3522980Y1455166D02*
G01X3522980Y1520190D01*
G01X3522980Y1455166D02*
G01X3495040Y1455166D01*
G01X3485896Y1458214D01*
G01X3482848Y1461262D01*
G01X3479546Y1467612D01*
G01X3479546Y1473708D01*
G01X3482848Y1479804D01*
G01X3485896Y1482852D01*
G01X3495040Y1486154D01*
G01X3522980Y1486154D01*
G01X3501390Y1486154D02*
G01X3479546Y1520190D01*
G01X3446272Y1470660D02*
G01X3446272Y1467612D01*
G01X3443224Y1461262D01*
G01X3440176Y1458214D01*
G01X3434080Y1455166D01*
G01X3421634Y1455166D01*
G01X3415284Y1458214D01*
G01X3412236Y1461262D01*
G01X3409188Y1467612D01*
G01X3409188Y1473708D01*
G01X3412236Y1479804D01*
G01X3418586Y1489202D01*
G01X3449320Y1520190D01*
G01X3406140Y1520190D01*
G01X3375914Y1467612D02*
G01X3369818Y1464310D01*
G01X3360674Y1455166D01*
G01X3360674Y1520190D01*
G01X2227580Y2318766D02*
G01X2227580Y2383790D01*
G01X2227580Y2318766D02*
G01X2199640Y2318766D01*
G01X2190496Y2321814D01*
G01X2187448Y2324862D01*
G01X2184146Y2331212D01*
G01X2184146Y2337308D01*
G01X2187448Y2343404D01*
G01X2190496Y2346452D01*
G01X2199640Y2349754D01*
G01X2227580Y2349754D01*
G01X2205990Y2349754D02*
G01X2184146Y2383790D01*
G01X2150872Y2334260D02*
G01X2150872Y2331212D01*
G01X2147824Y2324862D01*
G01X2144776Y2321814D01*
G01X2138680Y2318766D01*
G01X2126234Y2318766D01*
G01X2119884Y2321814D01*
G01X2116836Y2324862D01*
G01X2113788Y2331212D01*
G01X2113788Y2337308D01*
G01X2116836Y2343404D01*
G01X2123186Y2352802D01*
G01X2153920Y2383790D01*
G01X2110740Y2383790D01*
G01X2074418Y2318766D02*
G01X2040382Y2318766D01*
G01X2058924Y2343404D01*
G01X2049780Y2343404D01*
G01X2043430Y2346452D01*
G01X2040382Y2349754D01*
G01X2037334Y2358898D01*
G01X2037334Y2365248D01*
G01X2040382Y2374392D01*
G01X2046478Y2380742D01*
G01X2055876Y2383790D01*
G01X2065274Y2383790D01*
G01X2074418Y2380742D01*
G01X2077466Y2377440D01*
G01X2080514Y2371344D01*
G01X3791966Y1760220D02*
G01X3856990Y1760220D01*
G01X3791966Y1760220D02*
G01X3791966Y1788160D01*
G01X3795014Y1797304D01*
G01X3798062Y1800352D01*
G01X3804412Y1803654D01*
G01X3810508Y1803654D01*
G01X3816604Y1800352D01*
G01X3819652Y1797304D01*
G01X3822954Y1788160D01*
G01X3822954Y1760220D01*
G01X3822954Y1781810D02*
G01X3856990Y1803654D01*
G01X3807460Y1836928D02*
G01X3804412Y1836928D01*
G01X3798062Y1839976D01*
G01X3795014Y1843024D01*
G01X3791966Y1849120D01*
G01X3791966Y1861566D01*
G01X3795014Y1867916D01*
G01X3798062Y1870964D01*
G01X3804412Y1874012D01*
G01X3810508Y1874012D01*
G01X3816604Y1870964D01*
G01X3826002Y1864614D01*
G01X3856990Y1833880D01*
G01X3856990Y1877060D01*
G01X3801110Y1944370D02*
G01X3795014Y1941322D01*
G01X3791966Y1931924D01*
G01X3791966Y1925828D01*
G01X3795014Y1916430D01*
G01X3804412Y1910334D01*
G01X3819652Y1907286D01*
G01X3835146Y1907286D01*
G01X3847592Y1910334D01*
G01X3853942Y1916430D01*
G01X3856990Y1925828D01*
G01X3856990Y1928876D01*
G01X3853942Y1938020D01*
G01X3847592Y1944370D01*
G01X3838448Y1947418D01*
G01X3835146Y1947418D01*
G01X3826002Y1944370D01*
G01X3819652Y1938020D01*
G01X3816604Y1928876D01*
G01X3816604Y1925828D01*
G01X3819652Y1916430D01*
G01X3826002Y1910334D01*
G01X3835146Y1907286D01*
G01X3205734Y817880D02*
G01X3140710Y817880D01*
G01X3205734Y817880D02*
G01X3205734Y789940D01*
G01X3202686Y780796D01*
G01X3199638Y777748D01*
G01X3193288Y774446D01*
G01X3187192Y774446D01*
G01X3181096Y777748D01*
G01X3178048Y780796D01*
G01X3174746Y789940D01*
G01X3174746Y817880D01*
G01X3174746Y796290D02*
G01X3140710Y774446D01*
G01X3190240Y741172D02*
G01X3193288Y741172D01*
G01X3199638Y738124D01*
G01X3202686Y735076D01*
G01X3205734Y728980D01*
G01X3205734Y716534D01*
G01X3202686Y710184D01*
G01X3199638Y707136D01*
G01X3193288Y704088D01*
G01X3187192Y704088D01*
G01X3181096Y707136D01*
G01X3171698Y713486D01*
G01X3140710Y744220D01*
G01X3140710Y701040D01*
G01X3205734Y627634D02*
G01X3140710Y658622D01*
G01X3205734Y670814D02*
G01X3205734Y627634D01*
G01X2786380Y2331466D02*
G01X2786380Y2396490D01*
G01X2786380Y2331466D02*
G01X2758440Y2331466D01*
G01X2749296Y2334514D01*
G01X2746248Y2337562D01*
G01X2742946Y2343912D01*
G01X2742946Y2350008D01*
G01X2746248Y2356104D01*
G01X2749296Y2359152D01*
G01X2758440Y2362454D01*
G01X2786380Y2362454D01*
G01X2764790Y2362454D02*
G01X2742946Y2396490D01*
G01X2709672Y2346960D02*
G01X2709672Y2343912D01*
G01X2706624Y2337562D01*
G01X2703576Y2334514D01*
G01X2697480Y2331466D01*
G01X2685034Y2331466D01*
G01X2678684Y2334514D01*
G01X2675636Y2337562D01*
G01X2672588Y2343912D01*
G01X2672588Y2350008D01*
G01X2675636Y2356104D01*
G01X2681986Y2365502D01*
G01X2712720Y2396490D01*
G01X2669540Y2396490D01*
G01X2624074Y2331466D02*
G01X2633218Y2334514D01*
G01X2636266Y2340610D01*
G01X2636266Y2346960D01*
G01X2633218Y2353056D01*
G01X2627122Y2356104D01*
G01X2614676Y2359152D01*
G01X2605278Y2362454D01*
G01X2599182Y2368550D01*
G01X2596134Y2374646D01*
G01X2596134Y2384044D01*
G01X2599182Y2390140D01*
G01X2602230Y2393442D01*
G01X2611628Y2396490D01*
G01X2624074Y2396490D01*
G01X2633218Y2393442D01*
G01X2636266Y2390140D01*
G01X2639314Y2384044D01*
G01X2639314Y2374646D01*
G01X2636266Y2368550D01*
G01X2630170Y2362454D01*
G01X2620772Y2359152D01*
G01X2608580Y2356104D01*
G01X2602230Y2353056D01*
G01X2599182Y2346960D01*
G01X2599182Y2340610D01*
G01X2602230Y2334514D01*
G01X2611628Y2331466D01*
G01X2624074Y2331466D01*
G01X2786380Y2166366D02*
G01X2786380Y2231390D01*
G01X2786380Y2166366D02*
G01X2758440Y2166366D01*
G01X2749296Y2169414D01*
G01X2746248Y2172462D01*
G01X2742946Y2178812D01*
G01X2742946Y2184908D01*
G01X2746248Y2191004D01*
G01X2749296Y2194052D01*
G01X2758440Y2197354D01*
G01X2786380Y2197354D01*
G01X2764790Y2197354D02*
G01X2742946Y2231390D01*
G01X2709672Y2181860D02*
G01X2709672Y2178812D01*
G01X2706624Y2172462D01*
G01X2703576Y2169414D01*
G01X2697480Y2166366D01*
G01X2685034Y2166366D01*
G01X2678684Y2169414D01*
G01X2675636Y2172462D01*
G01X2672588Y2178812D01*
G01X2672588Y2184908D01*
G01X2675636Y2191004D01*
G01X2681986Y2200402D01*
G01X2712720Y2231390D01*
G01X2669540Y2231390D01*
G01X2599182Y2187956D02*
G01X2602230Y2197354D01*
G01X2608580Y2203450D01*
G01X2617724Y2206498D01*
G01X2620772Y2206498D01*
G01X2630170Y2203450D01*
G01X2636266Y2197354D01*
G01X2639314Y2187956D01*
G01X2639314Y2184908D01*
G01X2636266Y2175510D01*
G01X2630170Y2169414D01*
G01X2620772Y2166366D01*
G01X2617724Y2166366D01*
G01X2608580Y2169414D01*
G01X2602230Y2175510D01*
G01X2599182Y2187956D01*
G01X2599182Y2203450D01*
G01X2602230Y2218944D01*
G01X2608580Y2228342D01*
G01X2617724Y2231390D01*
G01X2624074Y2231390D01*
G01X2633218Y2228342D01*
G01X2636266Y2221992D01*
G01X1034034Y3700780D02*
G01X969010Y3700780D01*
G01X1034034Y3700780D02*
G01X1034034Y3672840D01*
G01X1030986Y3663696D01*
G01X1027938Y3660648D01*
G01X1021588Y3657346D01*
G01X1015492Y3657346D01*
G01X1009396Y3660648D01*
G01X1006348Y3663696D01*
G01X1003046Y3672840D01*
G01X1003046Y3700780D01*
G01X1003046Y3679190D02*
G01X969010Y3657346D01*
G01X1034034Y3621024D02*
G01X1034034Y3586988D01*
G01X1009396Y3605530D01*
G01X1009396Y3596386D01*
G01X1006348Y3590036D01*
G01X1003046Y3586988D01*
G01X993902Y3583940D01*
G01X987552Y3583940D01*
G01X978408Y3586988D01*
G01X972058Y3593084D01*
G01X969010Y3602482D01*
G01X969010Y3611880D01*
G01X972058Y3621024D01*
G01X975360Y3624072D01*
G01X981456Y3627120D01*
G01X1034034Y3535172D02*
G01X1030986Y3544570D01*
G01X1021588Y3550666D01*
G01X1006348Y3553714D01*
G01X996950Y3553714D01*
G01X981456Y3550666D01*
G01X972058Y3544570D01*
G01X969010Y3535172D01*
G01X969010Y3529076D01*
G01X972058Y3519678D01*
G01X981456Y3513582D01*
G01X996950Y3510534D01*
G01X1006348Y3510534D01*
G01X1021588Y3513582D01*
G01X1030986Y3519678D01*
G01X1034034Y3529076D01*
G01X1034034Y3535172D01*
G01X729234Y3903980D02*
G01X664210Y3903980D01*
G01X729234Y3903980D02*
G01X729234Y3876040D01*
G01X726186Y3866896D01*
G01X723138Y3863848D01*
G01X716788Y3860546D01*
G01X710692Y3860546D01*
G01X704596Y3863848D01*
G01X701548Y3866896D01*
G01X698246Y3876040D01*
G01X698246Y3903980D01*
G01X698246Y3882390D02*
G01X664210Y3860546D01*
G01X729234Y3824224D02*
G01X729234Y3790188D01*
G01X704596Y3808730D01*
G01X704596Y3799586D01*
G01X701548Y3793236D01*
G01X698246Y3790188D01*
G01X689102Y3787140D01*
G01X682752Y3787140D01*
G01X673608Y3790188D01*
G01X667258Y3796284D01*
G01X664210Y3805682D01*
G01X664210Y3815080D01*
G01X667258Y3824224D01*
G01X670560Y3827272D01*
G01X676656Y3830320D01*
G01X716788Y3756914D02*
G01X720090Y3750818D01*
G01X729234Y3741674D01*
G01X664210Y3741674D01*
G01X576834Y3408680D02*
G01X511810Y3408680D01*
G01X576834Y3408680D02*
G01X576834Y3380740D01*
G01X573786Y3371596D01*
G01X570738Y3368548D01*
G01X564388Y3365246D01*
G01X558292Y3365246D01*
G01X552196Y3368548D01*
G01X549148Y3371596D01*
G01X545846Y3380740D01*
G01X545846Y3408680D01*
G01X545846Y3387090D02*
G01X511810Y3365246D01*
G01X576834Y3328924D02*
G01X576834Y3294888D01*
G01X552196Y3313430D01*
G01X552196Y3304286D01*
G01X549148Y3297936D01*
G01X545846Y3294888D01*
G01X536702Y3291840D01*
G01X530352Y3291840D01*
G01X521208Y3294888D01*
G01X514858Y3300984D01*
G01X511810Y3310382D01*
G01X511810Y3319780D01*
G01X514858Y3328924D01*
G01X518160Y3331972D01*
G01X524256Y3335020D01*
G01X561340Y3258566D02*
G01X564388Y3258566D01*
G01X570738Y3255518D01*
G01X573786Y3252470D01*
G01X576834Y3246374D01*
G01X576834Y3233928D01*
G01X573786Y3227578D01*
G01X570738Y3224530D01*
G01X564388Y3221482D01*
G01X558292Y3221482D01*
G01X552196Y3224530D01*
G01X542798Y3230880D01*
G01X511810Y3261614D01*
G01X511810Y3218434D01*
G01X185166Y3525520D02*
G01X250190Y3525520D01*
G01X185166Y3525520D02*
G01X185166Y3553460D01*
G01X188214Y3562604D01*
G01X191262Y3565652D01*
G01X197612Y3568954D01*
G01X203708Y3568954D01*
G01X209804Y3565652D01*
G01X212852Y3562604D01*
G01X216154Y3553460D01*
G01X216154Y3525520D01*
G01X216154Y3547110D02*
G01X250190Y3568954D01*
G01X185166Y3605276D02*
G01X185166Y3639312D01*
G01X209804Y3620770D01*
G01X209804Y3629914D01*
G01X212852Y3636264D01*
G01X216154Y3639312D01*
G01X225298Y3642360D01*
G01X231648Y3642360D01*
G01X240792Y3639312D01*
G01X247142Y3633216D01*
G01X250190Y3623818D01*
G01X250190Y3614420D01*
G01X247142Y3605276D01*
G01X243840Y3602228D01*
G01X237744Y3599180D01*
G01X185166Y3678682D02*
G01X185166Y3712718D01*
G01X209804Y3694176D01*
G01X209804Y3703320D01*
G01X212852Y3709670D01*
G01X216154Y3712718D01*
G01X225298Y3715766D01*
G01X231648Y3715766D01*
G01X240792Y3712718D01*
G01X247142Y3706622D01*
G01X250190Y3697224D01*
G01X250190Y3687826D01*
G01X247142Y3678682D01*
G01X243840Y3675634D01*
G01X237744Y3672586D01*
G54D11*
G01X4939742Y2787675D02*
G01X4938472Y2787675D01*
G01X4935932Y2788945D01*
G01X4934662Y2789961D01*
G01X4933646Y2792501D01*
G01X4933646Y2797581D01*
G01X4934662Y2800121D01*
G01X4935932Y2801391D01*
G01X4938472Y2802661D01*
G01X4941012Y2802661D01*
G01X4943552Y2801391D01*
G01X4947362Y2798851D01*
G01X4959808Y2786405D01*
G01X4959808Y2803931D01*
G01X4940250Y2532405D02*
G01X4938980Y2534945D01*
G01X4935424Y2538501D01*
G01X4961586Y2538501D01*
G01X4430422Y2486762D02*
G01X4431438Y2484222D01*
G01X4433978Y2481936D01*
G01X4436518Y2480666D01*
G01X4440328Y2479396D01*
G01X4446424Y2479396D01*
G01X4450234Y2480666D01*
G01X4452774Y2481936D01*
G01X4455314Y2484222D01*
G01X4456584Y2486762D01*
G01X4456584Y2491842D01*
G01X4455314Y2494382D01*
G01X4452774Y2496922D01*
G01X4450234Y2498192D01*
G01X4446424Y2499208D01*
G01X4440328Y2499208D01*
G01X4436518Y2498192D01*
G01X4433978Y2496922D01*
G01X4431438Y2494382D01*
G01X4430422Y2491842D01*
G01X4430422Y2486762D01*
G01X4430422Y2515210D02*
G01X4456584Y2515210D01*
G01X4430422Y2515210D02*
G01X4456584Y2532736D01*
G01X4430422Y2532736D02*
G01X4456584Y2532736D01*
G54D10*
G01X4766310Y1288034D02*
G01X4766310Y1223010D01*
G01X4744720Y1288034D02*
G01X4788154Y1288034D01*
G01X4818380Y1288034D02*
G01X4818380Y1223010D01*
G01X4818380Y1288034D02*
G01X4846066Y1288034D01*
G01X4855464Y1284986D01*
G01X4858512Y1281938D01*
G01X4861560Y1275588D01*
G01X4861560Y1266444D01*
G01X4858512Y1260348D01*
G01X4855464Y1257046D01*
G01X4846066Y1253998D01*
G01X4818380Y1253998D01*
G01X4891786Y1275588D02*
G01X4897882Y1278890D01*
G01X4907026Y1288034D01*
G01X4907026Y1223010D01*
G01X3280410Y1669034D02*
G01X3280410Y1604010D01*
G01X3258820Y1669034D02*
G01X3302254Y1669034D01*
G01X3332480Y1669034D02*
G01X3332480Y1604010D01*
G01X3332480Y1669034D02*
G01X3360166Y1669034D01*
G01X3369564Y1665986D01*
G01X3372612Y1662938D01*
G01X3375660Y1656588D01*
G01X3375660Y1647444D01*
G01X3372612Y1641348D01*
G01X3369564Y1638046D01*
G01X3360166Y1634998D01*
G01X3332480Y1634998D01*
G01X3411982Y1669034D02*
G01X3446018Y1669034D01*
G01X3427476Y1644396D01*
G01X3436620Y1644396D01*
G01X3442970Y1641348D01*
G01X3446018Y1638046D01*
G01X3449066Y1628902D01*
G01X3449066Y1622552D01*
G01X3446018Y1613408D01*
G01X3439922Y1607058D01*
G01X3430524Y1604010D01*
G01X3421126Y1604010D01*
G01X3411982Y1607058D01*
G01X3408934Y1610360D01*
G01X3405886Y1616456D01*
G01X4950130Y1591127D02*
G01X4950130Y1637609D01*
G01X4947082Y1646753D01*
G01X4940732Y1653103D01*
G01X4931588Y1656151D01*
G01X4925238Y1656151D01*
G01X4916094Y1653103D01*
G01X4909998Y1646753D01*
G01X4906696Y1637609D01*
G01X4906696Y1591127D01*
G01X4873422Y1606621D02*
G01X4873422Y1603573D01*
G01X4870374Y1597223D01*
G01X4867326Y1594175D01*
G01X4861230Y1591127D01*
G01X4848784Y1591127D01*
G01X4842434Y1594175D01*
G01X4839386Y1597223D01*
G01X4836338Y1603573D01*
G01X4836338Y1609669D01*
G01X4839386Y1615765D01*
G01X4845736Y1625163D01*
G01X4876470Y1656151D01*
G01X4833290Y1656151D01*
G01X969114Y5086025D02*
G01X969114Y5039543D01*
G01X972162Y5030399D01*
G01X978512Y5024049D01*
G01X987656Y5021001D01*
G01X994006Y5021001D01*
G01X1003150Y5024049D01*
G01X1009246Y5030399D01*
G01X1012548Y5039543D01*
G01X1012548Y5086025D01*
G01X1079858Y5086025D02*
G01X1048870Y5086025D01*
G01X1045822Y5058339D01*
G01X1048870Y5061387D01*
G01X1058014Y5064435D01*
G01X1067412Y5064435D01*
G01X1076810Y5061387D01*
G01X1082906Y5055037D01*
G01X1085954Y5045893D01*
G01X1085954Y5039543D01*
G01X1082906Y5030399D01*
G01X1076810Y5024049D01*
G01X1067412Y5021001D01*
G01X1058014Y5021001D01*
G01X1048870Y5024049D01*
G01X1045822Y5027351D01*
G01X1042774Y5033447D01*
G01X4264330Y1021379D02*
G01X4264330Y1067861D01*
G01X4261282Y1077005D01*
G01X4254932Y1083355D01*
G01X4245788Y1086403D01*
G01X4239438Y1086403D01*
G01X4230294Y1083355D01*
G01X4224198Y1077005D01*
G01X4220896Y1067861D01*
G01X4220896Y1021379D01*
G01X4153586Y1030523D02*
G01X4156634Y1024427D01*
G01X4166032Y1021379D01*
G01X4172128Y1021379D01*
G01X4181526Y1024427D01*
G01X4187622Y1033825D01*
G01X4190670Y1049065D01*
G01X4190670Y1064559D01*
G01X4187622Y1077005D01*
G01X4181526Y1083355D01*
G01X4172128Y1086403D01*
G01X4169080Y1086403D01*
G01X4159936Y1083355D01*
G01X4153586Y1077005D01*
G01X4150538Y1067861D01*
G01X4150538Y1064559D01*
G01X4153586Y1055415D01*
G01X4159936Y1049065D01*
G01X4169080Y1046017D01*
G01X4172128Y1046017D01*
G01X4181526Y1049065D01*
G01X4187622Y1055415D01*
G01X4190670Y1064559D01*
G01X2631920Y623734D02*
G01X2631920Y577252D01*
G01X2634968Y568108D01*
G01X2641318Y561758D01*
G01X2650462Y558710D01*
G01X2656812Y558710D01*
G01X2665956Y561758D01*
G01X2672052Y568108D01*
G01X2675354Y577252D01*
G01X2675354Y623734D01*
G01X2720820Y623734D02*
G01X2711676Y620686D01*
G01X2708628Y614590D01*
G01X2708628Y608240D01*
G01X2711676Y602144D01*
G01X2717772Y599096D01*
G01X2730218Y596048D01*
G01X2739616Y592746D01*
G01X2745712Y586650D01*
G01X2748760Y580554D01*
G01X2748760Y571156D01*
G01X2745712Y565060D01*
G01X2742664Y561758D01*
G01X2733266Y558710D01*
G01X2720820Y558710D01*
G01X2711676Y561758D01*
G01X2708628Y565060D01*
G01X2705580Y571156D01*
G01X2705580Y580554D01*
G01X2708628Y586650D01*
G01X2714724Y592746D01*
G01X2724122Y596048D01*
G01X2736314Y599096D01*
G01X2742664Y602144D01*
G01X2745712Y608240D01*
G01X2745712Y614590D01*
G01X2742664Y620686D01*
G01X2733266Y623734D01*
G01X2720820Y623734D01*
G01X4038501Y2427356D02*
G01X4032405Y2421006D01*
G01X4029357Y2411862D01*
G01X4029357Y2399416D01*
G01X4032405Y2390018D01*
G01X4038501Y2383922D01*
G01X4044851Y2383922D01*
G01X4050947Y2386970D01*
G01X4053995Y2390018D01*
G01X4057043Y2396368D01*
G01X4063393Y2414910D01*
G01X4066441Y2421006D01*
G01X4069489Y2424054D01*
G01X4075839Y2427356D01*
G01X4084983Y2427356D01*
G01X4091333Y2421006D01*
G01X4094381Y2411862D01*
G01X4094381Y2399416D01*
G01X4091333Y2390018D01*
G01X4084983Y2383922D01*
G01X4029357Y2457582D02*
G01X4094381Y2472822D01*
G01X4029357Y2488316D02*
G01X4094381Y2472822D01*
G01X4029357Y2488316D02*
G01X4094381Y2503810D01*
G01X4029357Y2519304D02*
G01X4094381Y2503810D01*
G01X4041803Y2549530D02*
G01X4038501Y2555626D01*
G01X4029357Y2564770D01*
G01X4094381Y2564770D01*
G01X2031434Y3375892D02*
G01X1981904Y3375892D01*
G01X1972760Y3378940D01*
G01X1969458Y3381988D01*
G01X1966410Y3388338D01*
G01X1966410Y3394434D01*
G01X1969458Y3400784D01*
G01X1972760Y3403832D01*
G01X1981904Y3406880D01*
G01X1988254Y3406880D01*
G01X2018988Y3345666D02*
G01X2022290Y3339570D01*
G01X2031434Y3330426D01*
G01X1966410Y3330426D01*
G01X6304534Y3885880D02*
G01X6239510Y3885880D01*
G01X6304534Y3842446D02*
G01X6239510Y3842446D01*
G01X6273546Y3885880D02*
G01X6273546Y3842446D01*
G01X6304534Y3781486D02*
G01X6261354Y3812220D01*
G01X6261354Y3765992D01*
G01X6304534Y3781486D02*
G01X6239510Y3781486D01*
G01X3623310Y2151634D02*
G01X3623310Y2086610D01*
G01X3601720Y2151634D02*
G01X3645154Y2151634D01*
G01X3675380Y2151634D02*
G01X3675380Y2086610D01*
G01X3675380Y2151634D02*
G01X3703066Y2151634D01*
G01X3712464Y2148586D01*
G01X3715512Y2145538D01*
G01X3718560Y2139188D01*
G01X3718560Y2130044D01*
G01X3715512Y2123948D01*
G01X3712464Y2120646D01*
G01X3703066Y2117598D01*
G01X3675380Y2117598D01*
G01X3751834Y2136140D02*
G01X3751834Y2139188D01*
G01X3754882Y2145538D01*
G01X3757930Y2148586D01*
G01X3764026Y2151634D01*
G01X3776472Y2151634D01*
G01X3782822Y2148586D01*
G01X3785870Y2145538D01*
G01X3788918Y2139188D01*
G01X3788918Y2133092D01*
G01X3785870Y2126996D01*
G01X3779520Y2117598D01*
G01X3748786Y2086610D01*
G01X3791966Y2086610D01*
G01X4528820Y919734D02*
G01X4528820Y854710D01*
G01X4572254Y919734D02*
G01X4572254Y854710D01*
G01X4528820Y888746D02*
G01X4572254Y888746D01*
G01X4639564Y919734D02*
G01X4608576Y919734D01*
G01X4605528Y892048D01*
G01X4608576Y895096D01*
G01X4617720Y898144D01*
G01X4627118Y898144D01*
G01X4636516Y895096D01*
G01X4642612Y888746D01*
G01X4645660Y879602D01*
G01X4645660Y873252D01*
G01X4642612Y864108D01*
G01X4636516Y857758D01*
G01X4627118Y854710D01*
G01X4617720Y854710D01*
G01X4608576Y857758D01*
G01X4605528Y861060D01*
G01X4602480Y867156D01*
G54D12*
G01X703580Y4644390D02*
G01X721360Y4626610D01*
G01X748030Y4617720D01*
G01X783590Y4617720D01*
G01X810260Y4626610D01*
G01X828040Y4644390D01*
G01X828040Y4662170D01*
G01X819150Y4679950D01*
G01X810260Y4688840D01*
G01X792480Y4697730D01*
G01X739140Y4715510D01*
G01X721360Y4724400D01*
G01X712470Y4733290D01*
G01X703580Y4751070D01*
G01X703580Y4777740D01*
G01X721360Y4795520D01*
G01X748030Y4804410D01*
G01X783590Y4804410D01*
G01X810260Y4795520D01*
G01X828040Y4777740D01*
G01X640588Y4617720D02*
G01X640588Y4804410D01*
G01X640588Y4617720D02*
G01X578358Y4617720D01*
G01X551688Y4626610D01*
G01X533908Y4644390D01*
G01X525018Y4662170D01*
G01X516128Y4688840D01*
G01X516128Y4733290D01*
G01X525018Y4759960D01*
G01X533908Y4777740D01*
G01X551688Y4795520D01*
G01X578358Y4804410D01*
G01X640588Y4804410D01*
G01X3660140Y4351020D02*
G01X3660140Y4493260D01*
G01X3669030Y4519930D01*
G01X3677920Y4528820D01*
G01X3695700Y4537710D01*
G01X3713480Y4537710D01*
G01X3731260Y4528820D01*
G01X3740150Y4519930D01*
G01X3749040Y4493260D01*
G01X3749040Y4475480D01*
G01X3534918Y4351020D02*
G01X3534918Y4537710D01*
G01X3597148Y4351020D02*
G01X3472688Y4351020D01*
G01X3338576Y4351020D02*
G01X3409696Y4537710D01*
G01X3338576Y4351020D02*
G01X3267456Y4537710D01*
G01X3383026Y4475480D02*
G01X3294126Y4475480D01*
G01X3071114Y4395470D02*
G01X3080004Y4377690D01*
G01X3097784Y4359910D01*
G01X3115564Y4351020D01*
G01X3151124Y4351020D01*
G01X3168904Y4359910D01*
G01X3186684Y4377690D01*
G01X3195574Y4395470D01*
G01X3204464Y4422140D01*
G01X3204464Y4466590D01*
G01X3195574Y4493260D01*
G01X3186684Y4511040D01*
G01X3168904Y4528820D01*
G01X3151124Y4537710D01*
G01X3115564Y4537710D01*
G01X3097784Y4528820D01*
G01X3080004Y4511040D01*
G01X3071114Y4493260D01*
G01X3071114Y4466590D01*
G01X3115564Y4466590D02*
G01X3071114Y4466590D01*
G01X5419090Y4814570D02*
G01X5427980Y4796790D01*
G01X5445760Y4779010D01*
G01X5463540Y4770120D01*
G01X5499100Y4770120D01*
G01X5516880Y4779010D01*
G01X5534660Y4796790D01*
G01X5543550Y4814570D01*
G01X5552440Y4841240D01*
G01X5552440Y4885690D01*
G01X5543550Y4912360D01*
G01X5534660Y4930140D01*
G01X5516880Y4947920D01*
G01X5499100Y4956810D01*
G01X5463540Y4956810D01*
G01X5445760Y4947920D01*
G01X5427980Y4930140D01*
G01X5419090Y4912360D01*
G01X5419090Y4885690D01*
G01X5463540Y4885690D02*
G01X5419090Y4885690D01*
G01X4650740Y3258820D02*
G01X4526280Y3445510D01*
G01X4526280Y3258820D02*
G01X4650740Y3445510D01*
G01X4392168Y3258820D02*
G01X4463288Y3445510D01*
G01X4392168Y3258820D02*
G01X4321048Y3445510D01*
G01X4436618Y3383280D02*
G01X4347718Y3383280D01*
G01X4258056Y3258820D02*
G01X4258056Y3445510D01*
G01X4258056Y3258820D02*
G01X4195826Y3258820D01*
G01X4169156Y3267710D01*
G01X4151376Y3285490D01*
G01X4142486Y3303270D01*
G01X4133596Y3329940D01*
G01X4133596Y3374390D01*
G01X4142486Y3401060D01*
G01X4151376Y3418840D01*
G01X4169156Y3436620D01*
G01X4195826Y3445510D01*
G01X4258056Y3445510D01*
G01X3937254Y3303270D02*
G01X3946144Y3285490D01*
G01X3963924Y3267710D01*
G01X3981704Y3258820D01*
G01X4017264Y3258820D01*
G01X4035044Y3267710D01*
G01X4052824Y3285490D01*
G01X4061714Y3303270D01*
G01X4070604Y3329940D01*
G01X4070604Y3374390D01*
G01X4061714Y3401060D01*
G01X4052824Y3418840D01*
G01X4035044Y3436620D01*
G01X4017264Y3445510D01*
G01X3981704Y3445510D01*
G01X3963924Y3436620D01*
G01X3946144Y3418840D01*
G01X3937254Y3401060D01*
G01X3874770Y2772410D02*
G01X3856990Y2763520D01*
G01X3839210Y2745740D01*
G01X3830320Y2727960D01*
G01X3830320Y2692400D01*
G01X3839210Y2674620D01*
G01X3856990Y2656840D01*
G01X3874770Y2647950D01*
G01X3901440Y2639060D01*
G01X3945890Y2639060D01*
G01X3972560Y2647950D01*
G01X3990340Y2656840D01*
G01X4008120Y2674620D01*
G01X4017010Y2692400D01*
G01X4017010Y2727960D01*
G01X4008120Y2745740D01*
G01X3990340Y2763520D01*
G01X3972560Y2772410D01*
G01X3830320Y2835402D02*
G01X4017010Y2835402D01*
G01X3830320Y2835402D02*
G01X3830320Y2950972D01*
G01X3919220Y2835402D02*
G01X3919220Y2906522D01*
G01X3874770Y3147314D02*
G01X3856990Y3138424D01*
G01X3839210Y3120644D01*
G01X3830320Y3102864D01*
G01X3830320Y3067304D01*
G01X3839210Y3049524D01*
G01X3856990Y3031744D01*
G01X3874770Y3022854D01*
G01X3901440Y3013964D01*
G01X3945890Y3013964D01*
G01X3972560Y3022854D01*
G01X3990340Y3031744D01*
G01X4008120Y3049524D01*
G01X4017010Y3067304D01*
G01X4017010Y3102864D01*
G01X4008120Y3120644D01*
G01X3990340Y3138424D01*
G01X3972560Y3147314D01*
G01X3945890Y3147314D01*
G01X3945890Y3102864D02*
G01X3945890Y3147314D01*
G01X5297170Y2334260D02*
G01X5450586Y2334260D01*
G01X5297170Y2334260D02*
G01X5297170Y2385314D01*
G01X5304536Y2407412D01*
G01X5319014Y2421890D01*
G01X5333746Y2429256D01*
G01X5355590Y2436622D01*
G01X5392166Y2436622D01*
G01X5414010Y2429256D01*
G01X5428742Y2421890D01*
G01X5443220Y2407412D01*
G01X5450586Y2385314D01*
G01X5450586Y2334260D01*
G01X5333746Y2499360D02*
G01X5326380Y2499360D01*
G01X5311902Y2506726D01*
G01X5304536Y2513838D01*
G01X5297170Y2528570D01*
G01X5297170Y2557780D01*
G01X5304536Y2572258D01*
G01X5311902Y2579624D01*
G01X5326380Y2586990D01*
G01X5341112Y2586990D01*
G01X5355590Y2579624D01*
G01X5377434Y2565146D01*
G01X5450586Y2491994D01*
G01X5450586Y2594356D01*
G01X5284470Y2715260D02*
G01X5437886Y2715260D01*
G01X5284470Y2715260D02*
G01X5284470Y2766314D01*
G01X5291836Y2788412D01*
G01X5306314Y2802890D01*
G01X5321046Y2810256D01*
G01X5342890Y2817622D01*
G01X5379466Y2817622D01*
G01X5401310Y2810256D01*
G01X5416042Y2802890D01*
G01X5430520Y2788412D01*
G01X5437886Y2766314D01*
G01X5437886Y2715260D01*
G01X5284470Y2887726D02*
G01X5284470Y2967990D01*
G01X5342890Y2924048D01*
G01X5342890Y2946146D01*
G01X5350256Y2960624D01*
G01X5357622Y2967990D01*
G01X5379466Y2975356D01*
G01X5393944Y2975356D01*
G01X5416042Y2967990D01*
G01X5430520Y2953258D01*
G01X5437886Y2931414D01*
G01X5437886Y2909570D01*
G01X5430520Y2887726D01*
G01X5423154Y2880360D01*
G01X5408676Y2872994D01*
G01X3159760Y2335530D02*
G01X3159760Y2226056D01*
G01X3167126Y2203958D01*
G01X3181604Y2189480D01*
G01X3203702Y2182114D01*
G01X3218180Y2182114D01*
G01X3240024Y2189480D01*
G01X3254756Y2203958D01*
G01X3262122Y2226056D01*
G01X3262122Y2335530D01*
G01X3375914Y2335530D02*
G01X3317494Y2182114D01*
G01X3375914Y2335530D02*
G01X3434334Y2182114D01*
G01X3339338Y2233168D02*
G01X3412490Y2233168D01*
G01X3489706Y2335530D02*
G01X3489706Y2182114D01*
G01X3489706Y2335530D02*
G01X3555492Y2335530D01*
G01X3577336Y2328164D01*
G01X3584702Y2320798D01*
G01X3592068Y2306320D01*
G01X3592068Y2291588D01*
G01X3584702Y2277110D01*
G01X3577336Y2269744D01*
G01X3555492Y2262378D01*
G01X3489706Y2262378D01*
G01X3540760Y2262378D02*
G01X3592068Y2182114D01*
G01X3698494Y2335530D02*
G01X3698494Y2182114D01*
G01X3647440Y2335530D02*
G01X3749802Y2335530D01*
G01X3057007Y2818130D02*
G01X3057007Y2664714D01*
G01X3005953Y2818130D02*
G01X3108315Y2818130D01*
G01X3163687Y2818130D02*
G01X3266049Y2664714D01*
G01X3266049Y2818130D02*
G01X3163687Y2664714D01*
G01X3389641Y2828831D02*
G01X3389641Y2675415D01*
G01X3389641Y2828831D02*
G01X3455427Y2828831D01*
G01X3477271Y2821465D01*
G01X3484637Y2814099D01*
G01X3492003Y2799621D01*
G01X3492003Y2784889D01*
G01X3484637Y2770411D01*
G01X3477271Y2763045D01*
G01X3455427Y2755679D01*
G01X3389641Y2755679D01*
G01X3440695Y2755679D02*
G01X3492003Y2675415D01*
G01X3547375Y2828831D02*
G01X3649737Y2675415D01*
G01X3649737Y2828831D02*
G01X3547375Y2675415D01*
G01X3108960Y3004820D02*
G01X3123692Y3012186D01*
G01X3145536Y3034030D01*
G01X3145536Y2880614D01*
G01X3208274Y2917190D02*
G01X3200908Y2909824D01*
G01X3208274Y2902458D01*
G01X3215640Y2909824D01*
G01X3208274Y2917190D01*
G01X3307588Y3034030D02*
G01X3285744Y3026664D01*
G01X3278378Y3012186D01*
G01X3278378Y2997454D01*
G01X3285744Y2982976D01*
G01X3300222Y2975610D01*
G01X3329432Y2968244D01*
G01X3351276Y2960878D01*
G01X3366008Y2946400D01*
G01X3373374Y2931668D01*
G01X3373374Y2909824D01*
G01X3366008Y2895346D01*
G01X3358642Y2887980D01*
G01X3336798Y2880614D01*
G01X3307588Y2880614D01*
G01X3285744Y2887980D01*
G01X3278378Y2895346D01*
G01X3271012Y2909824D01*
G01X3271012Y2931668D01*
G01X3278378Y2946400D01*
G01X3292856Y2960878D01*
G01X3314954Y2968244D01*
G01X3344164Y2975610D01*
G01X3358642Y2982976D01*
G01X3366008Y2997454D01*
G01X3366008Y3012186D01*
G01X3358642Y3026664D01*
G01X3336798Y3034030D01*
G01X3307588Y3034030D01*
G01X3428746Y3034030D02*
G01X3487166Y2880614D01*
G01X3545586Y3034030D02*
G01X3487166Y2880614D01*
G01X4028315Y2331720D02*
G01X4043047Y2339086D01*
G01X4064891Y2360930D01*
G01X4064891Y2207514D01*
G01X4120263Y2360930D02*
G01X4178683Y2207514D01*
G01X4237103Y2360930D02*
G01X4178683Y2207514D01*
G01X4329051Y2360930D02*
G01X4307207Y2353564D01*
G01X4299841Y2339086D01*
G01X4299841Y2324354D01*
G01X4307207Y2309876D01*
G01X4321685Y2302510D01*
G01X4350895Y2295144D01*
G01X4372739Y2287778D01*
G01X4387471Y2273300D01*
G01X4394837Y2258568D01*
G01X4394837Y2236724D01*
G01X4387471Y2222246D01*
G01X4380105Y2214880D01*
G01X4358261Y2207514D01*
G01X4329051Y2207514D01*
G01X4307207Y2214880D01*
G01X4299841Y2222246D01*
G01X4292475Y2236724D01*
G01X4292475Y2258568D01*
G01X4299841Y2273300D01*
G01X4314319Y2287778D01*
G01X4336417Y2295144D01*
G01X4365627Y2302510D01*
G01X4380105Y2309876D01*
G01X4387471Y2324354D01*
G01X4387471Y2339086D01*
G01X4380105Y2353564D01*
G01X4358261Y2360930D01*
G01X4329051Y2360930D01*
G01X2501392Y1713230D02*
G01X2581656Y1713230D01*
G01X2537714Y1654810D01*
G01X2559812Y1654810D01*
G01X2574290Y1647444D01*
G01X2581656Y1640078D01*
G01X2589022Y1618234D01*
G01X2589022Y1603756D01*
G01X2581656Y1581658D01*
G01X2566924Y1567180D01*
G01X2545080Y1559814D01*
G01X2523236Y1559814D01*
G01X2501392Y1567180D01*
G01X2494026Y1574546D01*
G01X2486660Y1589024D01*
G01X2644394Y1713230D02*
G01X2702814Y1559814D01*
G01X2761234Y1713230D02*
G01X2702814Y1559814D01*
G01X2831338Y1713230D02*
G01X2911602Y1713230D01*
G01X2867660Y1654810D01*
G01X2889758Y1654810D01*
G01X2904236Y1647444D01*
G01X2911602Y1640078D01*
G01X2918968Y1618234D01*
G01X2918968Y1603756D01*
G01X2911602Y1581658D01*
G01X2896870Y1567180D01*
G01X2875026Y1559814D01*
G01X2853182Y1559814D01*
G01X2831338Y1567180D01*
G01X2823972Y1574546D01*
G01X2816606Y1589024D01*
G01X2524760Y1922780D02*
G01X2524760Y1802638D01*
G01X2524760Y1922780D02*
G01X2576322Y1922780D01*
G01X2593340Y1916938D01*
G01X2599182Y1911350D01*
G01X2604770Y1899920D01*
G01X2604770Y1882648D01*
G01X2599182Y1871218D01*
G01X2593340Y1865630D01*
G01X2576322Y1859788D01*
G01X2524760Y1859788D01*
G01X2738374Y1894078D02*
G01X2732532Y1905508D01*
G01X2721102Y1916938D01*
G01X2709672Y1922780D01*
G01X2686812Y1922780D01*
G01X2675382Y1916938D01*
G01X2663952Y1905508D01*
G01X2658364Y1894078D01*
G01X2652522Y1877060D01*
G01X2652522Y1848358D01*
G01X2658364Y1831340D01*
G01X2663952Y1819910D01*
G01X2675382Y1808480D01*
G01X2686812Y1802638D01*
G01X2709672Y1802638D01*
G01X2721102Y1808480D01*
G01X2732532Y1819910D01*
G01X2738374Y1831340D01*
G01X2738374Y1848358D01*
G01X2709672Y1848358D02*
G01X2738374Y1848358D01*
G01X2786126Y1899920D02*
G01X2797556Y1905508D01*
G01X2814828Y1922780D01*
G01X2814828Y1802638D01*
G01X2862580Y1922780D02*
G01X2908300Y1802638D01*
G01X2954020Y1922780D02*
G01X2908300Y1802638D01*
G01X3030474Y1922780D02*
G01X3013202Y1916938D01*
G01X3007614Y1905508D01*
G01X3007614Y1894078D01*
G01X3013202Y1882648D01*
G01X3024632Y1877060D01*
G01X3047492Y1871218D01*
G01X3064764Y1865630D01*
G01X3076194Y1854200D01*
G01X3081782Y1842770D01*
G01X3081782Y1825498D01*
G01X3076194Y1814068D01*
G01X3070352Y1808480D01*
G01X3053334Y1802638D01*
G01X3030474Y1802638D01*
G01X3013202Y1808480D01*
G01X3007614Y1814068D01*
G01X3001772Y1825498D01*
G01X3001772Y1842770D01*
G01X3007614Y1854200D01*
G01X3019044Y1865630D01*
G01X3036062Y1871218D01*
G01X3058922Y1877060D01*
G01X3070352Y1882648D01*
G01X3076194Y1894078D01*
G01X3076194Y1905508D01*
G01X3070352Y1916938D01*
G01X3053334Y1922780D01*
G01X3030474Y1922780D01*
G01X3129534Y1905508D02*
G01X3220974Y1854200D01*
G01X3129534Y1802638D01*
G01X2092960Y1325880D02*
G01X2092960Y1205738D01*
G01X2092960Y1325880D02*
G01X2144522Y1325880D01*
G01X2161540Y1320038D01*
G01X2167382Y1314450D01*
G01X2172970Y1303020D01*
G01X2172970Y1285748D01*
G01X2167382Y1274318D01*
G01X2161540Y1268730D01*
G01X2144522Y1262888D01*
G01X2092960Y1262888D01*
G01X2306574Y1297178D02*
G01X2300732Y1308608D01*
G01X2289302Y1320038D01*
G01X2277872Y1325880D01*
G01X2255012Y1325880D01*
G01X2243582Y1320038D01*
G01X2232152Y1308608D01*
G01X2226564Y1297178D01*
G01X2220722Y1280160D01*
G01X2220722Y1251458D01*
G01X2226564Y1234440D01*
G01X2232152Y1223010D01*
G01X2243582Y1211580D01*
G01X2255012Y1205738D01*
G01X2277872Y1205738D01*
G01X2289302Y1211580D01*
G01X2300732Y1223010D01*
G01X2306574Y1234440D01*
G01X2306574Y1251458D01*
G01X2277872Y1251458D02*
G01X2306574Y1251458D01*
G01X2365756Y1325880D02*
G01X2428748Y1325880D01*
G01X2394458Y1280160D01*
G01X2411476Y1280160D01*
G01X2422906Y1274318D01*
G01X2428748Y1268730D01*
G01X2434336Y1251458D01*
G01X2434336Y1240028D01*
G01X2428748Y1223010D01*
G01X2417318Y1211580D01*
G01X2400046Y1205738D01*
G01X2383028Y1205738D01*
G01X2365756Y1211580D01*
G01X2360168Y1217168D01*
G01X2354326Y1228598D01*
G01X2482088Y1325880D02*
G01X2527808Y1205738D01*
G01X2573528Y1325880D02*
G01X2527808Y1205738D01*
G01X2632710Y1325880D02*
G01X2695702Y1325880D01*
G01X2661412Y1280160D01*
G01X2678430Y1280160D01*
G01X2689860Y1274318D01*
G01X2695702Y1268730D01*
G01X2701290Y1251458D01*
G01X2701290Y1240028D01*
G01X2695702Y1223010D01*
G01X2684272Y1211580D01*
G01X2667000Y1205738D01*
G01X2649982Y1205738D01*
G01X2632710Y1211580D01*
G01X2627122Y1217168D01*
G01X2621280Y1228598D01*
G01X2749042Y1308608D02*
G01X2840482Y1257300D01*
G01X2749042Y1205738D01*
G01X4257688Y593344D02*
G01X4331856Y593344D01*
G01X4294772Y556260D02*
G01X4294772Y630682D01*
G01X4245242Y720344D02*
G01X4245242Y679196D01*
G01X4282326Y674878D01*
G01X4278262Y679196D01*
G01X4274198Y691388D01*
G01X4274198Y703834D01*
G01X4278262Y716280D01*
G01X4286644Y724408D01*
G01X4298836Y728726D01*
G01X4307218Y728726D01*
G01X4319664Y724408D01*
G01X4327792Y716280D01*
G01X4331856Y703834D01*
G01X4331856Y691388D01*
G01X4327792Y679196D01*
G01X4323728Y674878D01*
G01X4315346Y670814D01*
G01X4245242Y768858D02*
G01X4331856Y801878D01*
G01X4245242Y834898D02*
G01X4331856Y801878D01*
G01X4276344Y427736D02*
G01X4268216Y423672D01*
G01X4259834Y415290D01*
G01X4255770Y407162D01*
G01X4255770Y390652D01*
G01X4259834Y382270D01*
G01X4268216Y374142D01*
G01X4276344Y369824D01*
G01X4288790Y365760D01*
G01X4309364Y365760D01*
G01X4321810Y369824D01*
G01X4330192Y374142D01*
G01X4338320Y382270D01*
G01X4342384Y390652D01*
G01X4342384Y407162D01*
G01X4338320Y415290D01*
G01X4330192Y423672D01*
G01X4321810Y427736D01*
G01X4309364Y427736D01*
G01X4309364Y407162D02*
G01X4309364Y427736D01*
G01X4747260Y144780D02*
G01X4747260Y24638D01*
G01X4747260Y144780D02*
G01X4798822Y144780D01*
G01X4815840Y138938D01*
G01X4821682Y133350D01*
G01X4827270Y121920D01*
G01X4827270Y104648D01*
G01X4821682Y93218D01*
G01X4815840Y87630D01*
G01X4798822Y81788D01*
G01X4747260Y81788D01*
G01X4875022Y144780D02*
G01X4903724Y24638D01*
G01X4932172Y144780D02*
G01X4903724Y24638D01*
G01X4932172Y144780D02*
G01X4960874Y24638D01*
G01X4989322Y144780D02*
G01X4960874Y24638D01*
G01X5037074Y144780D02*
G01X5037074Y24638D01*
G01X5037074Y144780D02*
G01X5088636Y144780D01*
G01X5105654Y138938D01*
G01X5111496Y133350D01*
G01X5117084Y121920D01*
G01X5117084Y110490D01*
G01X5111496Y99060D01*
G01X5105654Y93218D01*
G01X5088636Y87630D01*
G01X5037074Y87630D01*
G01X5077206Y87630D02*
G01X5117084Y24638D01*
G01X5344414Y127508D02*
G01X5344414Y24638D01*
G01X5292852Y76200D02*
G01X5395722Y76200D01*
G01X5512054Y144780D02*
G01X5454904Y144780D01*
G01X5449316Y93218D01*
G01X5454904Y99060D01*
G01X5472176Y104648D01*
G01X5489194Y104648D01*
G01X5506466Y99060D01*
G01X5517896Y87630D01*
G01X5523484Y70358D01*
G01X5523484Y58928D01*
G01X5517896Y41910D01*
G01X5506466Y30480D01*
G01X5489194Y24638D01*
G01X5472176Y24638D01*
G01X5454904Y30480D01*
G01X5449316Y36068D01*
G01X5443474Y47498D01*
G01X5571236Y144780D02*
G01X5616956Y24638D01*
G01X5662676Y144780D02*
G01X5616956Y24638D01*
G01X5872734Y144780D02*
G01X5861304Y138938D01*
G01X5849874Y127508D01*
G01X5844286Y116078D01*
G01X5838444Y99060D01*
G01X5838444Y70358D01*
G01X5844286Y53340D01*
G01X5849874Y41910D01*
G01X5861304Y30480D01*
G01X5872734Y24638D01*
G01X5895594Y24638D01*
G01X5907024Y30480D01*
G01X5918454Y41910D01*
G01X5924296Y53340D01*
G01X5929884Y70358D01*
G01X5929884Y99060D01*
G01X5924296Y116078D01*
G01X5918454Y127508D01*
G01X5907024Y138938D01*
G01X5895594Y144780D01*
G01X5872734Y144780D01*
G01X5977636Y144780D02*
G01X5977636Y24638D01*
G01X5977636Y144780D02*
G01X6057646Y24638D01*
G01X6057646Y144780D02*
G01X6057646Y24638D01*
G01X6105398Y144780D02*
G01X6105398Y24638D01*
G01X6105398Y24638D02*
G01X6173978Y24638D01*
G01X6221730Y144780D02*
G01X6267450Y87630D01*
G01X6267450Y24638D01*
G01X6313170Y144780D02*
G01X6267450Y87630D01*
G01X2016760Y106680D02*
G01X2016760Y-13462D01*
G01X2016760Y106680D02*
G01X2068322Y106680D01*
G01X2085340Y100838D01*
G01X2091182Y95250D01*
G01X2096770Y83820D01*
G01X2096770Y66548D01*
G01X2091182Y55118D01*
G01X2085340Y49530D01*
G01X2068322Y43688D01*
G01X2016760Y43688D01*
G01X2144522Y106680D02*
G01X2144522Y-13462D01*
G01X2144522Y106680D02*
G01X2190242Y-13462D01*
G01X2235962Y106680D02*
G01X2190242Y-13462D01*
G01X2235962Y106680D02*
G01X2235962Y-13462D01*
G01X2318004Y106680D02*
G01X2306574Y100838D01*
G01X2295144Y89408D01*
G01X2289556Y77978D01*
G01X2283714Y60960D01*
G01X2283714Y32258D01*
G01X2289556Y15240D01*
G01X2295144Y3810D01*
G01X2306574Y-7620D01*
G01X2318004Y-13462D01*
G01X2340864Y-13462D01*
G01X2352294Y-7620D01*
G01X2363724Y3810D01*
G01X2369566Y15240D01*
G01X2375154Y32258D01*
G01X2375154Y60960D01*
G01X2369566Y77978D01*
G01X2363724Y89408D01*
G01X2352294Y100838D01*
G01X2340864Y106680D01*
G01X2318004Y106680D01*
G01X2422906Y106680D02*
G01X2422906Y-13462D01*
G01X2422906Y106680D02*
G01X2463038Y106680D01*
G01X2480056Y100838D01*
G01X2491486Y89408D01*
G01X2497328Y77978D01*
G01X2502916Y60960D01*
G01X2502916Y32258D01*
G01X2497328Y15240D01*
G01X2491486Y3810D01*
G01X2480056Y-7620D01*
G01X2463038Y-13462D01*
G01X2422906Y-13462D01*
G01X5751322Y1366012D02*
G01X5739892Y1360170D01*
G01X5728462Y1348740D01*
G01X5722620Y1337310D01*
G01X5722620Y1314450D01*
G01X5728462Y1303020D01*
G01X5739892Y1291590D01*
G01X5751322Y1286002D01*
G01X5768340Y1280160D01*
G01X5797042Y1280160D01*
G01X5814060Y1286002D01*
G01X5825490Y1291590D01*
G01X5836920Y1303020D01*
G01X5842762Y1314450D01*
G01X5842762Y1337310D01*
G01X5836920Y1348740D01*
G01X5825490Y1360170D01*
G01X5814060Y1366012D01*
G01X5797042Y1366012D01*
G01X5797042Y1337310D02*
G01X5797042Y1366012D01*
G01X5722620Y1413764D02*
G01X5842762Y1413764D01*
G01X5722620Y1413764D02*
G01X5842762Y1493774D01*
G01X5722620Y1493774D02*
G01X5842762Y1493774D01*
G01X5722620Y1541526D02*
G01X5842762Y1541526D01*
G01X5722620Y1541526D02*
G01X5722620Y1581658D01*
G01X5728462Y1598676D01*
G01X5739892Y1610106D01*
G01X5751322Y1615948D01*
G01X5768340Y1621536D01*
G01X5797042Y1621536D01*
G01X5814060Y1615948D01*
G01X5825490Y1610106D01*
G01X5836920Y1598676D01*
G01X5842762Y1581658D01*
G01X5842762Y1541526D01*
G01X5181092Y1306322D02*
G01X5283962Y1306322D01*
G01X5232400Y1254760D02*
G01X5232400Y1357630D01*
G01X5163820Y1473962D02*
G01X5163820Y1416812D01*
G01X5215382Y1411224D01*
G01X5209540Y1416812D01*
G01X5203952Y1434084D01*
G01X5203952Y1451102D01*
G01X5209540Y1468374D01*
G01X5220970Y1479804D01*
G01X5238242Y1485392D01*
G01X5249672Y1485392D01*
G01X5266690Y1479804D01*
G01X5278120Y1468374D01*
G01X5283962Y1451102D01*
G01X5283962Y1434084D01*
G01X5278120Y1416812D01*
G01X5272532Y1411224D01*
G01X5261102Y1405382D01*
G01X5163820Y1533144D02*
G01X5283962Y1578864D01*
G01X5163820Y1624584D02*
G01X5283962Y1578864D01*
G36*
G01X2432627Y3720715D02*
G01X2422621Y3721100D01*
G01X2419157Y3721870D01*
G01X2416464Y3722254D01*
G01X2416464Y3812309D01*
G01X2416849Y3903518D01*
G01X2418388Y3905057D01*
G01X2425315Y3905827D01*
G01X2430318Y3906212D01*
G01X2435321Y3905827D01*
G01X2442249Y3905057D01*
G01X2444943Y3904673D01*
G01X2447636Y3903133D01*
G01X2449561Y3900439D01*
G01X2451485Y3897361D01*
G01X2460721Y3881967D01*
G01X2464570Y3875809D01*
G01X2473806Y3860415D01*
G01X2477654Y3854257D01*
G01X2486891Y3838864D01*
G01X2490739Y3832706D01*
G01X2499976Y3817312D01*
G01X2503824Y3811154D01*
G01X2515370Y3791912D01*
G01X2517294Y3789603D01*
G01X2517871Y3803650D01*
G01X2518064Y3846561D01*
G01X2518833Y3904288D01*
G01X2520757Y3905057D01*
G01X2527685Y3905827D01*
G01X2533457Y3906212D01*
G01X2539230Y3905827D01*
G01X2546157Y3905057D01*
G01X2548851Y3904673D01*
G01X2550006Y3882063D01*
G01X2550391Y3814233D01*
G01X2549621Y3722639D01*
G01X2547312Y3721485D01*
G01X2544618Y3721100D01*
G01X2536536Y3720715D01*
G01X2528454Y3721100D01*
G01X2525376Y3721485D01*
G01X2521527Y3722254D01*
G01X2518449Y3724949D01*
G01X2516139Y3728797D01*
G01X2512291Y3734954D01*
G01X2507673Y3742651D01*
G01X2503824Y3748809D01*
G01X2499206Y3756506D01*
G01X2495357Y3762664D01*
G01X2493049Y3766512D01*
G01X2489200Y3772670D01*
G01X2484582Y3780367D01*
G01X2480733Y3786524D01*
G01X2478424Y3790373D01*
G01X2474576Y3796530D01*
G01X2469957Y3804227D01*
G01X2466109Y3810385D01*
G01X2463800Y3814233D01*
G01X2459951Y3820391D01*
G01X2455333Y3828088D01*
G01X2451485Y3834246D01*
G01X2449561Y3836554D01*
G01X2448983Y3822700D01*
G01X2448791Y3780367D01*
G01X2448021Y3722639D01*
G01X2445712Y3721485D01*
G01X2443018Y3721100D01*
G01X2432627Y3720715D01*
G37*
G36*
G01X2169006Y3722254D02*
G01X2105506Y3723024D01*
G01X2105506Y3725333D01*
G01X2107046Y3728027D01*
G01X2113203Y3740343D01*
G01X2116282Y3745730D01*
G01X2125518Y3764203D01*
G01X2128597Y3769591D01*
G01X2137833Y3788064D01*
G01X2140912Y3793451D01*
G01X2150533Y3812694D01*
G01X2152457Y3815773D01*
G01X2161694Y3834246D01*
G01X2164773Y3839633D01*
G01X2174394Y3858876D01*
G01X2176318Y3861954D01*
G01X2179397Y3868112D01*
G01X2180551Y3871191D01*
G01X2180936Y3873115D01*
G01X2147839Y3873115D01*
G01X2112818Y3873500D01*
G01X2111375Y3874174D01*
G01X2110894Y3875424D01*
G01X2110509Y3878118D01*
G01X2110124Y3886585D01*
G01X2110509Y3896591D01*
G01X2111664Y3904673D01*
G01X2171700Y3904673D01*
G01X2232891Y3904288D01*
G01X2234815Y3903133D01*
G01X2234815Y3900439D01*
G01X2228657Y3888124D01*
G01X2225579Y3882736D01*
G01X2213264Y3858106D01*
G01X2210185Y3852718D01*
G01X2197870Y3828088D01*
G01X2194791Y3822700D01*
G01X2182476Y3798070D01*
G01X2179397Y3792682D01*
G01X2167082Y3768051D01*
G01X2163233Y3761124D01*
G01X2161694Y3758046D01*
G01X2160539Y3755351D01*
G01X2160154Y3753812D01*
G01X2195176Y3753812D01*
G01X2231351Y3753043D01*
G01X2232506Y3750733D01*
G01X2232891Y3748039D01*
G01X2233276Y3739957D01*
G01X2232891Y3729567D01*
G01X2232121Y3724179D01*
G01X2231736Y3722254D01*
G01X2169006Y3722254D01*
G37*
G36*
G01X2320251Y3720715D02*
G01X2308321Y3721100D01*
G01X2304857Y3721485D01*
G01X2301779Y3721485D01*
G01X2301779Y3754197D01*
G01X2301009Y3788833D01*
G01X2296391Y3798070D01*
G01X2293312Y3804997D01*
G01X2284076Y3823470D01*
G01X2280997Y3830397D01*
G01X2271761Y3848870D01*
G01X2268682Y3855797D01*
G01X2259446Y3874270D01*
G01X2256367Y3881197D01*
G01X2247130Y3899670D01*
G01X2246746Y3902749D01*
G01X2248285Y3905057D01*
G01X2257521Y3905827D01*
G01X2264833Y3906212D01*
G01X2272146Y3905827D01*
G01X2274839Y3905443D01*
G01X2279843Y3905057D01*
G01X2284461Y3904288D01*
G01X2286385Y3902749D01*
G01X2288694Y3897361D01*
G01X2291773Y3890433D01*
G01X2296391Y3879657D01*
G01X2299470Y3872730D01*
G01X2301779Y3867343D01*
G01X2304857Y3860415D01*
G01X2311785Y3844251D01*
G01X2313324Y3841173D01*
G01X2314864Y3837324D01*
G01X2317943Y3830397D01*
G01X2319482Y3826549D01*
G01X2321021Y3823470D01*
G01X2321791Y3822893D01*
G01X2322561Y3823470D01*
G01X2324100Y3826549D01*
G01X2327179Y3833476D01*
G01X2328718Y3837324D01*
G01X2331797Y3844251D01*
G01X2333336Y3848100D01*
G01X2336415Y3855027D01*
G01X2337954Y3858876D01*
G01X2341033Y3865803D01*
G01X2342573Y3869651D01*
G01X2345651Y3876579D01*
G01X2347191Y3880427D01*
G01X2350270Y3887354D01*
G01X2351809Y3891203D01*
G01X2354888Y3898130D01*
G01X2356427Y3901979D01*
G01X2357967Y3904288D01*
G01X2359891Y3905057D01*
G01X2368357Y3905827D01*
G01X2375285Y3906212D01*
G01X2382212Y3905827D01*
G01X2390679Y3905057D01*
G01X2393757Y3904673D01*
G01X2395104Y3904480D01*
G01X2395297Y3903903D01*
G01X2394143Y3901209D01*
G01X2386446Y3885815D01*
G01X2383367Y3878888D01*
G01X2374130Y3860415D01*
G01X2371051Y3853488D01*
G01X2361815Y3835015D01*
G01X2358736Y3828088D01*
G01X2349500Y3809615D01*
G01X2346421Y3802688D01*
G01X2340264Y3790373D01*
G01X2339494Y3757276D01*
G01X2339109Y3723409D01*
G01X2338243Y3721966D01*
G01X2336415Y3721485D01*
G01X2332951Y3721100D01*
G01X2320251Y3720715D01*
G37*
G36*
G01X3881582Y3720715D02*
G01X3870036Y3721100D01*
G01X3866573Y3721485D01*
G01X3863494Y3721485D01*
G01X3863494Y3814233D01*
G01X3863782Y3883891D01*
G01X3864649Y3907367D01*
G01X3866957Y3908136D01*
G01X3880043Y3908521D01*
G01X3893127Y3908136D01*
G01X3896976Y3907751D01*
G01X3899670Y3907751D01*
G01X3899670Y3873500D01*
G01X3899958Y3847907D01*
G01X3900824Y3839633D01*
G01X3902749Y3841173D01*
G01X3909291Y3847715D01*
G01X3912754Y3850024D01*
G01X3915449Y3851564D01*
G01X3920836Y3853873D01*
G01X3924300Y3855027D01*
G01X3927764Y3855797D01*
G01X3935076Y3856182D01*
G01X3942388Y3855797D01*
G01X3945082Y3855412D01*
G01X3949315Y3854643D01*
G01X3953164Y3853488D01*
G01X3956627Y3852333D01*
G01X3962015Y3849639D01*
G01X3964324Y3848100D01*
G01X3968173Y3845021D01*
G01X3971251Y3841173D01*
G01X3975100Y3835015D01*
G01X3976254Y3831936D01*
G01X3977409Y3828473D01*
G01X3978564Y3824239D01*
G01X3979333Y3820391D01*
G01X3980103Y3811924D01*
G01X3980488Y3768051D01*
G01X3980103Y3723409D01*
G01X3979333Y3721966D01*
G01X3977794Y3721485D01*
G01X3974715Y3721100D01*
G01X3963170Y3720715D01*
G01X3951624Y3721100D01*
G01X3947391Y3721485D01*
G01X3944312Y3721485D01*
G01X3944312Y3761124D01*
G01X3943927Y3801918D01*
G01X3943157Y3807306D01*
G01X3942388Y3810770D01*
G01X3941233Y3814233D01*
G01X3939694Y3817312D01*
G01X3937000Y3820776D01*
G01X3933921Y3822700D01*
G01X3931227Y3823854D01*
G01X3926994Y3824624D01*
G01X3920836Y3824239D01*
G01X3915449Y3823085D01*
G01X3912370Y3821546D01*
G01X3909291Y3819621D01*
G01X3906597Y3817312D01*
G01X3904673Y3814618D01*
G01X3903133Y3811539D01*
G01X3901979Y3808846D01*
G01X3900824Y3805382D01*
G01X3900054Y3801918D01*
G01X3899670Y3763049D01*
G01X3899285Y3723409D01*
G01X3898515Y3721966D01*
G01X3896976Y3721485D01*
G01X3893897Y3721100D01*
G01X3881582Y3720715D01*
G37*
G36*
G01X2736657Y3678382D02*
G01X2734733Y3678767D01*
G01X2731270Y3679536D01*
G01X2726267Y3680306D01*
G01X2707794Y3683385D01*
G01X2702406Y3684154D01*
G01X2683933Y3687233D01*
G01X2678546Y3688003D01*
G01X2676236Y3689543D01*
G01X2676236Y3691851D01*
G01X2677776Y3701088D01*
G01X2678546Y3704936D01*
G01X2679700Y3709170D01*
G01X2680854Y3712633D01*
G01X2682009Y3715712D01*
G01X2684318Y3716867D01*
G01X2687012Y3716482D01*
G01X2691630Y3715712D01*
G01X2697018Y3714943D01*
G01X2706254Y3713403D01*
G01X2711643Y3712633D01*
G01X2716261Y3711864D01*
G01X2721649Y3711094D01*
G01X2726267Y3710324D01*
G01X2731654Y3709554D01*
G01X2736273Y3708785D01*
G01X2741661Y3708015D01*
G01X2743585Y3707438D01*
G01X2743970Y3706476D01*
G01X2743200Y3699549D01*
G01X2742430Y3694161D01*
G01X2741661Y3690312D01*
G01X2740506Y3685309D01*
G01X2738967Y3680691D01*
G01X2738004Y3678959D01*
G01X2736657Y3678382D01*
G37*
G36*
G01X2660457Y3719176D02*
G01X2648912Y3719561D01*
G01X2646218Y3720330D01*
G01X2643524Y3720715D01*
G01X2639291Y3721485D01*
G01X2633903Y3723024D01*
G01X2629670Y3724564D01*
G01X2626591Y3725718D01*
G01X2623512Y3727257D01*
G01X2620049Y3729182D01*
G01X2616200Y3731491D01*
G01X2612351Y3734185D01*
G01X2606964Y3738803D01*
G01X2604654Y3741112D01*
G01X2603115Y3743036D01*
G01X2601191Y3744961D01*
G01X2599651Y3746885D01*
G01X2597727Y3749579D01*
G01X2595418Y3753427D01*
G01X2593494Y3756506D01*
G01X2591954Y3759585D01*
G01X2590415Y3763049D01*
G01X2588876Y3766897D01*
G01X2587336Y3771515D01*
G01X2585797Y3776518D01*
G01X2584643Y3780367D01*
G01X2583103Y3788833D01*
G01X2582333Y3794221D01*
G01X2581564Y3804227D01*
G01X2581179Y3811924D01*
G01X2581333Y3815003D01*
G01X2621203Y3815003D01*
G01X2621588Y3798070D01*
G01X2622357Y3791912D01*
G01X2623127Y3787294D01*
G01X2623897Y3783830D01*
G01X2625051Y3779212D01*
G01X2626591Y3774594D01*
G01X2628130Y3771130D01*
G01X2629670Y3768051D01*
G01X2631594Y3764588D01*
G01X2633518Y3761894D01*
G01X2637367Y3758046D01*
G01X2640061Y3755736D01*
G01X2643139Y3753812D01*
G01X2645833Y3752657D01*
G01X2648912Y3751503D01*
G01X2652376Y3750733D01*
G01X2652376Y3750733D01*
G01X2654685Y3750349D01*
G01X2659688Y3749964D01*
G01X2666230Y3750349D01*
G01X2670079Y3751118D01*
G01X2674312Y3752273D01*
G01X2678546Y3754197D01*
G01X2681239Y3756121D01*
G01X2685088Y3759200D01*
G01X2686627Y3760739D01*
G01X2689706Y3764588D01*
G01X2691246Y3767282D01*
G01X2692785Y3770361D01*
G01X2694324Y3773824D01*
G01X2697018Y3781906D01*
G01X2698557Y3790373D01*
G01X2699327Y3796530D01*
G01X2699712Y3810770D01*
G01X2699327Y3827318D01*
G01X2698557Y3834246D01*
G01X2697788Y3838864D01*
G01X2697018Y3842327D01*
G01X2695864Y3847330D01*
G01X2694324Y3851949D01*
G01X2692785Y3855797D01*
G01X2690861Y3859646D01*
G01X2688936Y3862339D01*
G01X2687397Y3864649D01*
G01X2684703Y3867727D01*
G01X2681624Y3870036D01*
G01X2678930Y3871961D01*
G01X2675467Y3873500D01*
G01X2672003Y3874654D01*
G01X2668924Y3875424D01*
G01X2666230Y3875809D01*
G01X2661997Y3876194D01*
G01X2657764Y3875809D01*
G01X2654300Y3875424D01*
G01X2650451Y3874654D01*
G01X2646988Y3873500D01*
G01X2643139Y3871961D01*
G01X2639291Y3869651D01*
G01X2636597Y3867343D01*
G01X2634673Y3865418D01*
G01X2631594Y3861570D01*
G01X2629670Y3858876D01*
G01X2628130Y3855797D01*
G01X2626591Y3852333D01*
G01X2623897Y3844251D01*
G01X2622357Y3836554D01*
G01X2621588Y3830397D01*
G01X2621203Y3815003D01*
G01X2581333Y3815003D01*
G01X2581564Y3819621D01*
G01X2582333Y3829627D01*
G01X2583103Y3835015D01*
G01X2583873Y3839633D01*
G01X2585027Y3845791D01*
G01X2586182Y3849639D01*
G01X2586951Y3853103D01*
G01X2588106Y3856951D01*
G01X2589261Y3860030D01*
G01X2591570Y3865418D01*
G01X2592724Y3867727D01*
G01X2594264Y3870421D01*
G01X2595803Y3873500D01*
G01X2597727Y3876579D01*
G01X2599651Y3879273D01*
G01X2604270Y3885046D01*
G01X2610812Y3891588D01*
G01X2614661Y3894282D01*
G01X2617354Y3896206D01*
G01X2622743Y3899285D01*
G01X2625821Y3900824D01*
G01X2629670Y3902364D01*
G01X2632749Y3903518D01*
G01X2636982Y3904673D01*
G01X2640830Y3905827D01*
G01X2646218Y3906597D01*
G01X2653915Y3907367D01*
G01X2659688Y3907751D01*
G01X2665461Y3907367D01*
G01X2673157Y3906597D01*
G01X2678546Y3905827D01*
G01X2682009Y3905057D01*
G01X2686627Y3903903D01*
G01X2690861Y3902364D01*
G01X2694709Y3900824D01*
G01X2700867Y3897746D01*
G01X2704715Y3895436D01*
G01X2708564Y3892743D01*
G01X2713951Y3888124D01*
G01X2716261Y3885815D01*
G01X2717800Y3883891D01*
G01X2719724Y3881967D01*
G01X2721264Y3880043D01*
G01X2723188Y3877349D01*
G01X2725112Y3874270D01*
G01X2728191Y3868882D01*
G01X2729730Y3865803D01*
G01X2731270Y3861954D01*
G01X2732809Y3857721D01*
G01X2735503Y3849639D01*
G01X2737043Y3842712D01*
G01X2738582Y3833476D01*
G01X2739351Y3825009D01*
G01X2739736Y3814618D01*
G01X2739351Y3804227D01*
G01X2738967Y3800379D01*
G01X2738582Y3795761D01*
G01X2737812Y3790373D01*
G01X2737043Y3785754D01*
G01X2736273Y3782291D01*
G01X2735118Y3777288D01*
G01X2733579Y3771900D01*
G01X2732039Y3767282D01*
G01X2730500Y3763433D01*
G01X2725497Y3753427D01*
G01X2720879Y3746500D01*
G01X2713951Y3738418D01*
G01X2712027Y3736879D01*
G01X2709333Y3734570D01*
G01X2706254Y3732261D01*
G01X2704330Y3730721D01*
G01X2701636Y3729182D01*
G01X2698173Y3727257D01*
G01X2695094Y3725718D01*
G01X2692015Y3724564D01*
G01X2688167Y3723024D01*
G01X2684703Y3721870D01*
G01X2677006Y3720330D01*
G01X2671618Y3719561D01*
G01X2660457Y3719176D01*
G37*
G36*
G01X2879436Y3720715D02*
G01X2869430Y3721100D01*
G01X2864812Y3721870D01*
G01X2862118Y3722254D01*
G01X2862118Y3873115D01*
G01X2840182Y3873115D01*
G01X2817091Y3873885D01*
G01X2815936Y3876194D01*
G01X2815551Y3878888D01*
G01X2815167Y3887739D01*
G01X2815551Y3896591D01*
G01X2816321Y3901209D01*
G01X2816706Y3904673D01*
G01X2879821Y3904673D01*
G01X2944091Y3903903D01*
G01X2945246Y3901594D01*
G01X2945630Y3898900D01*
G01X2946015Y3890818D01*
G01X2945630Y3881197D01*
G01X2944476Y3873115D01*
G01X2899064Y3873115D01*
G01X2899064Y3798070D01*
G01X2898775Y3741593D01*
G01X2897909Y3722254D01*
G01X2893291Y3721485D01*
G01X2888673Y3721100D01*
G01X2879436Y3720715D01*
G37*
G36*
G01X3007591Y3719176D02*
G01X2994506Y3719561D01*
G01X2991043Y3720330D01*
G01X2983346Y3721870D01*
G01X2979112Y3723024D01*
G01X2974879Y3724564D01*
G01X2964873Y3729567D01*
G01X2959485Y3733415D01*
G01X2956791Y3735724D01*
G01X2954867Y3737649D01*
G01X2951788Y3741497D01*
G01X2949479Y3744191D01*
G01X2947170Y3747654D01*
G01X2945246Y3751118D01*
G01X2943706Y3754967D01*
G01X2942167Y3759200D01*
G01X2941012Y3762664D01*
G01X2939473Y3769591D01*
G01X2938703Y3775749D01*
G01X2938318Y3784215D01*
G01X2938703Y3794221D01*
G01X2939473Y3800379D01*
G01X2940194Y3804227D01*
G01X2974109Y3804227D01*
G01X2974109Y3801918D01*
G01X2999509Y3801533D01*
G01X3024909Y3802303D01*
G01X3024909Y3804227D01*
G01X3024139Y3808846D01*
G01X3022985Y3813464D01*
G01X3021446Y3816543D01*
G01X3019521Y3820006D01*
G01X3017597Y3822700D01*
G01X3014903Y3825009D01*
G01X3011824Y3826933D01*
G01X3007976Y3828088D01*
G01X3004127Y3828857D01*
G01X2999509Y3828857D01*
G01X2994121Y3828088D01*
G01X2991043Y3827318D01*
G01X2987964Y3826164D01*
G01X2985270Y3824624D01*
G01X2983346Y3823470D01*
G01X2981421Y3821930D01*
G01X2979497Y3819236D01*
G01X2977573Y3815773D01*
G01X2976033Y3812309D01*
G01X2974879Y3808461D01*
G01X2974109Y3804227D01*
G01X2974109Y3804227D01*
G01X2940194Y3804227D01*
G01X2940627Y3806536D01*
G01X2941782Y3810385D01*
G01X2942551Y3813464D01*
G01X2943706Y3816927D01*
G01X2945246Y3820776D01*
G01X2947170Y3825009D01*
G01X2949479Y3828857D01*
G01X2953327Y3834246D01*
G01X2955636Y3836939D01*
G01X2961409Y3842712D01*
G01X2964103Y3845021D01*
G01X2967567Y3847330D01*
G01X2971030Y3849254D01*
G01X2974109Y3850794D01*
G01X2977573Y3852333D01*
G01X2982576Y3853873D01*
G01X2986424Y3855027D01*
G01X2991812Y3855797D01*
G01X2999894Y3856182D01*
G01X3007976Y3855797D01*
G01X3011054Y3855412D01*
G01X3015673Y3854643D01*
G01X3019521Y3853488D01*
G01X3022985Y3852333D01*
G01X3026449Y3850794D01*
G01X3029527Y3849254D01*
G01X3032991Y3847330D01*
G01X3035685Y3845791D01*
G01X3037609Y3844251D01*
G01X3039918Y3842327D01*
G01X3042997Y3839633D01*
G01X3046076Y3835785D01*
G01X3048770Y3831936D01*
G01X3051079Y3828473D01*
G01X3052618Y3825394D01*
G01X3053773Y3822700D01*
G01X3054927Y3819621D01*
G01X3056082Y3816157D01*
G01X3057236Y3812309D01*
G01X3058006Y3808846D01*
G01X3058776Y3802688D01*
G01X3059161Y3793836D01*
G01X3058776Y3784985D01*
G01X3058391Y3780367D01*
G01X3058391Y3776903D01*
G01X3016443Y3776903D01*
G01X2974109Y3776133D01*
G01X2974109Y3774209D01*
G01X2974494Y3771515D01*
G01X2975264Y3767667D01*
G01X2976803Y3763818D01*
G01X2978727Y3760354D01*
G01X2981036Y3757661D01*
G01X2982961Y3755736D01*
G01X2985270Y3753812D01*
G01X2987579Y3752273D01*
G01X2989888Y3751118D01*
G01X2992967Y3749964D01*
G01X2997200Y3748809D01*
G01X3001049Y3748039D01*
G01X3009130Y3747654D01*
G01X3017982Y3748039D01*
G01X3023370Y3748809D01*
G01X3027988Y3749579D01*
G01X3031836Y3750349D01*
G01X3036839Y3751503D01*
G01X3041457Y3753043D01*
G01X3044536Y3753043D01*
G01X3046076Y3750733D01*
G01X3048385Y3744576D01*
G01X3049539Y3741112D01*
G01X3050309Y3738033D01*
G01X3051079Y3733415D01*
G01X3051079Y3728027D01*
G01X3050309Y3726488D01*
G01X3048770Y3725718D01*
G01X3041843Y3723409D01*
G01X3038764Y3722639D01*
G01X3031836Y3721100D01*
G01X3026449Y3720330D01*
G01X3020291Y3719561D01*
G01X3007591Y3719176D01*
G37*
G36*
G01X3119197Y3719176D02*
G01X3107267Y3719561D01*
G01X3103418Y3720330D01*
G01X3098800Y3721100D01*
G01X3095721Y3721870D01*
G01X3092257Y3722639D01*
G01X3087639Y3723794D01*
G01X3083021Y3725333D01*
G01X3081289Y3726392D01*
G01X3080712Y3728027D01*
G01X3081097Y3731876D01*
G01X3081867Y3734954D01*
G01X3082251Y3737649D01*
G01X3083021Y3740727D01*
G01X3085330Y3747654D01*
G01X3086870Y3751118D01*
G01X3087832Y3752465D01*
G01X3089179Y3752657D01*
G01X3097261Y3749964D01*
G01X3101109Y3748809D01*
G01X3109576Y3747270D01*
G01X3115733Y3746885D01*
G01X3124200Y3747270D01*
G01X3128818Y3748039D01*
G01X3131897Y3748809D01*
G01X3134976Y3749964D01*
G01X3138054Y3751888D01*
G01X3141133Y3754967D01*
G01X3142673Y3758046D01*
G01X3143057Y3760739D01*
G01X3142673Y3763433D01*
G01X3141903Y3766512D01*
G01X3140364Y3769206D01*
G01X3137670Y3771130D01*
G01X3134591Y3772670D01*
G01X3131897Y3773824D01*
G01X3128818Y3774979D01*
G01X3124585Y3776133D01*
G01X3121121Y3777288D01*
G01X3117657Y3778057D01*
G01X3113809Y3779212D01*
G01X3110346Y3780367D01*
G01X3107267Y3781521D01*
G01X3104573Y3782676D01*
G01X3101109Y3784215D01*
G01X3098030Y3786139D01*
G01X3095721Y3787294D01*
G01X3093797Y3788833D01*
G01X3089949Y3792682D01*
G01X3088409Y3794606D01*
G01X3086870Y3797300D01*
G01X3085330Y3800379D01*
G01X3084176Y3804227D01*
G01X3083406Y3808076D01*
G01X3083021Y3813849D01*
G01X3083406Y3820391D01*
G01X3084176Y3824239D01*
G01X3084946Y3827318D01*
G01X3086100Y3830782D01*
G01X3088024Y3835015D01*
G01X3091873Y3840403D01*
G01X3094951Y3843867D01*
G01X3098030Y3846176D01*
G01X3100724Y3848100D01*
G01X3104188Y3850024D01*
G01X3107651Y3851564D01*
G01X3111500Y3853103D01*
G01X3115733Y3854257D01*
G01X3118812Y3855027D01*
G01X3124200Y3855797D01*
G01X3133821Y3856182D01*
G01X3143443Y3855797D01*
G01X3149600Y3855027D01*
G01X3152294Y3854643D01*
G01X3156527Y3853873D01*
G01X3165764Y3851564D01*
G01X3170767Y3850024D01*
G01X3173076Y3848870D01*
G01X3172691Y3845021D01*
G01X3171536Y3838864D01*
G01X3170382Y3835015D01*
G01X3169612Y3831936D01*
G01X3168457Y3828857D01*
G01X3166918Y3825779D01*
G01X3165764Y3823854D01*
G01X3163070Y3824624D01*
G01X3154988Y3827318D01*
G01X3148061Y3828857D01*
G01X3139594Y3829243D01*
G01X3130357Y3828857D01*
G01X3127279Y3828088D01*
G01X3124200Y3826933D01*
G01X3120736Y3824239D01*
G01X3119582Y3821930D01*
G01X3119197Y3818851D01*
G01X3119967Y3813464D01*
G01X3121891Y3810770D01*
G01X3124200Y3809230D01*
G01X3127279Y3807691D01*
G01X3131512Y3806151D01*
G01X3141518Y3803073D01*
G01X3144982Y3801918D01*
G01X3148061Y3801149D01*
G01X3151524Y3799994D01*
G01X3155373Y3798454D01*
G01X3158836Y3796915D01*
G01X3161530Y3795376D01*
G01X3163839Y3793836D01*
G01X3166533Y3791912D01*
G01X3169227Y3789603D01*
G01X3171536Y3786524D01*
G01X3173846Y3782676D01*
G01X3175385Y3779597D01*
G01X3176539Y3776133D01*
G01X3177309Y3772670D01*
G01X3177694Y3765743D01*
G01X3177309Y3758815D01*
G01X3176539Y3754967D01*
G01X3175385Y3750349D01*
G01X3173846Y3746500D01*
G01X3171921Y3743036D01*
G01X3170382Y3740343D01*
G01X3168843Y3738418D01*
G01X3163070Y3732646D01*
G01X3160376Y3730336D01*
G01X3156912Y3728027D01*
G01X3153449Y3726103D01*
G01X3149985Y3724564D01*
G01X3143827Y3722254D01*
G01X3139979Y3721100D01*
G01X3136515Y3720330D01*
G01X3131127Y3719561D01*
G01X3119197Y3719176D01*
G37*
G36*
G01X3255818Y3720715D02*
G01X3245427Y3721100D01*
G01X3242733Y3721870D01*
G01X3238885Y3722639D01*
G01X3234651Y3723794D01*
G01X3230418Y3725333D01*
G01X3227339Y3726873D01*
G01X3224261Y3728797D01*
G01X3221567Y3730721D01*
G01X3219643Y3732261D01*
G01X3217718Y3734185D01*
G01X3216179Y3736109D01*
G01X3214639Y3738418D01*
G01X3213100Y3741112D01*
G01X3211561Y3744576D01*
G01X3210406Y3748039D01*
G01X3208867Y3754967D01*
G01X3208482Y3791143D01*
G01X3208482Y3826164D01*
G01X3191549Y3826164D01*
G01X3191164Y3828088D01*
G01X3191549Y3831551D01*
G01X3193857Y3835015D01*
G01X3196936Y3838864D01*
G01X3199246Y3841943D01*
G01X3205403Y3849639D01*
G01X3207712Y3852718D01*
G01X3210791Y3856567D01*
G01X3213100Y3859646D01*
G01X3219257Y3867343D01*
G01X3221567Y3870421D01*
G01X3224646Y3874270D01*
G01X3226954Y3877349D01*
G01X3234651Y3886970D01*
G01X3236576Y3889664D01*
G01X3238211Y3891107D01*
G01X3240809Y3891588D01*
G01X3243888Y3891588D01*
G01X3243888Y3853103D01*
G01X3258897Y3853103D01*
G01X3274291Y3852333D01*
G01X3275061Y3850409D01*
G01X3275446Y3841173D01*
G01X3275061Y3831936D01*
G01X3274676Y3828473D01*
G01X3274676Y3826164D01*
G01X3243888Y3826164D01*
G01X3243888Y3796530D01*
G01X3244273Y3765743D01*
G01X3245043Y3762279D01*
G01X3246197Y3758430D01*
G01X3247736Y3755351D01*
G01X3250430Y3752273D01*
G01X3253894Y3750349D01*
G01X3256588Y3749579D01*
G01X3261976Y3749194D01*
G01X3267364Y3749579D01*
G01X3273521Y3750349D01*
G01X3275830Y3750349D01*
G01X3277754Y3748424D01*
G01X3278909Y3744191D01*
G01X3279679Y3740343D01*
G01X3280064Y3733030D01*
G01X3279679Y3724949D01*
G01X3278621Y3723409D01*
G01X3276215Y3722639D01*
G01X3271982Y3721870D01*
G01X3266594Y3721100D01*
G01X3255818Y3720715D01*
G37*
G36*
G01X3347412Y3719176D02*
G01X3335097Y3719561D01*
G01X3330479Y3720330D01*
G01X3324321Y3721100D01*
G01X3320473Y3721870D01*
G01X3316239Y3722639D01*
G01X3310467Y3723794D01*
G01X3306618Y3724949D01*
G01X3303539Y3725718D01*
G01X3301615Y3726103D01*
G01X3301615Y3776518D01*
G01X3337021Y3776518D01*
G01X3337406Y3756602D01*
G01X3338561Y3749964D01*
G01X3338561Y3749964D01*
G01X3340485Y3749579D01*
G01X3348951Y3749194D01*
G01X3358188Y3749579D01*
G01X3361651Y3750349D01*
G01X3365500Y3751503D01*
G01X3368964Y3753043D01*
G01X3371657Y3754582D01*
G01X3377430Y3759200D01*
G01X3379354Y3761509D01*
G01X3380894Y3763818D01*
G01X3382049Y3766127D01*
G01X3383203Y3768821D01*
G01X3384357Y3772285D01*
G01X3385127Y3775749D01*
G01X3385897Y3783446D01*
G01X3386282Y3786524D01*
G01X3385897Y3789603D01*
G01X3385512Y3794221D01*
G01X3385127Y3799609D01*
G01X3384357Y3804227D01*
G01X3383203Y3809230D01*
G01X3381664Y3813464D01*
G01X3379739Y3816927D01*
G01X3377815Y3819621D01*
G01X3375891Y3821546D01*
G01X3372812Y3823470D01*
G01X3369349Y3825009D01*
G01X3366654Y3825779D01*
G01X3361651Y3826164D01*
G01X3355879Y3825779D01*
G01X3351646Y3824624D01*
G01X3348182Y3823085D01*
G01X3345103Y3820776D01*
G01X3342409Y3818467D01*
G01X3340870Y3816157D01*
G01X3339330Y3812694D01*
G01X3338176Y3809615D01*
G01X3337406Y3804227D01*
G01X3337021Y3776518D01*
G01X3301615Y3776518D01*
G01X3301615Y3816543D01*
G01X3302385Y3907367D01*
G01X3304309Y3908136D01*
G01X3312006Y3908906D01*
G01X3317779Y3909291D01*
G01X3323551Y3908906D01*
G01X3331249Y3908136D01*
G01X3334712Y3907751D01*
G01X3337021Y3907751D01*
G01X3337021Y3875809D01*
G01X3337406Y3842712D01*
G01X3337887Y3842135D01*
G01X3338561Y3842712D01*
G01X3342409Y3846561D01*
G01X3345103Y3848870D01*
G01X3347797Y3850794D01*
G01X3350876Y3852333D01*
G01X3354724Y3853873D01*
G01X3358573Y3855027D01*
G01X3362036Y3855797D01*
G01X3368579Y3856182D01*
G01X3375891Y3855797D01*
G01X3380509Y3855027D01*
G01X3385897Y3853873D01*
G01X3390130Y3852333D01*
G01X3393594Y3850794D01*
G01X3397443Y3848870D01*
G01X3400136Y3846946D01*
G01X3402061Y3845791D01*
G01X3403985Y3844251D01*
G01X3407833Y3840403D01*
G01X3410143Y3837324D01*
G01X3412836Y3833476D01*
G01X3414761Y3830397D01*
G01X3416300Y3827318D01*
G01X3417839Y3823470D01*
G01X3419379Y3819236D01*
G01X3420533Y3815773D01*
G01X3422073Y3808846D01*
G01X3422843Y3802688D01*
G01X3423227Y3791527D01*
G01X3422843Y3780367D01*
G01X3422073Y3774979D01*
G01X3421303Y3771130D01*
G01X3420149Y3766127D01*
G01X3418609Y3761509D01*
G01X3417070Y3758046D01*
G01X3413991Y3751888D01*
G01X3412067Y3748809D01*
G01X3408218Y3743421D01*
G01X3405909Y3740727D01*
G01X3401291Y3736109D01*
G01X3398212Y3733800D01*
G01X3395518Y3731876D01*
G01X3392439Y3729951D01*
G01X3388976Y3728027D01*
G01X3385127Y3726103D01*
G01X3381279Y3724564D01*
G01X3377046Y3723024D01*
G01X3373582Y3721870D01*
G01X3365885Y3720330D01*
G01X3359727Y3719561D01*
G01X3347412Y3719176D01*
G37*
G36*
G01X3514436Y3719176D02*
G01X3502891Y3719561D01*
G01X3500197Y3719946D01*
G01X3495194Y3720715D01*
G01X3490576Y3721870D01*
G01X3486343Y3723024D01*
G01X3481724Y3724564D01*
G01X3478261Y3726103D01*
G01X3475182Y3727643D01*
G01X3471718Y3729567D01*
G01X3468639Y3731491D01*
G01X3466330Y3733415D01*
G01X3460943Y3738033D01*
G01X3457864Y3741882D01*
G01X3455939Y3744576D01*
G01X3454015Y3747654D01*
G01X3452476Y3750349D01*
G01X3450167Y3755736D01*
G01X3449012Y3759200D01*
G01X3447857Y3763049D01*
G01X3446703Y3767282D01*
G01X3445933Y3771130D01*
G01X3445164Y3778827D01*
G01X3444779Y3785370D01*
G01X3445164Y3791912D01*
G01X3445933Y3798839D01*
G01X3447088Y3804612D01*
G01X3480954Y3804612D01*
G01X3481339Y3801918D01*
G01X3506739Y3801533D01*
G01X3531754Y3801533D01*
G01X3531754Y3803843D01*
G01X3530985Y3808846D01*
G01X3529446Y3813849D01*
G01X3527906Y3817312D01*
G01X3526367Y3820006D01*
G01X3524443Y3822315D01*
G01X3522518Y3824239D01*
G01X3519824Y3826164D01*
G01X3516361Y3827703D01*
G01X3513282Y3828473D01*
G01X3510588Y3828857D01*
G01X3506739Y3828857D01*
G01X3500582Y3828088D01*
G01X3495964Y3826933D01*
G01X3493270Y3825779D01*
G01X3490961Y3824239D01*
G01X3487112Y3820391D01*
G01X3485573Y3818467D01*
G01X3484033Y3815773D01*
G01X3482494Y3811539D01*
G01X3481339Y3808076D01*
G01X3480954Y3804612D01*
G01X3480954Y3804612D01*
G01X3447088Y3804612D01*
G01X3447473Y3806536D01*
G01X3448243Y3810000D01*
G01X3449397Y3813849D01*
G01X3450551Y3817312D01*
G01X3451706Y3820391D01*
G01X3454785Y3826549D01*
G01X3456709Y3829627D01*
G01X3459403Y3833476D01*
G01X3461712Y3836554D01*
G01X3467485Y3842327D01*
G01X3470564Y3844636D01*
G01X3474412Y3847330D01*
G01X3477491Y3849254D01*
G01X3480570Y3850794D01*
G01X3484418Y3852333D01*
G01X3489036Y3853873D01*
G01X3492885Y3855027D01*
G01X3498273Y3855797D01*
G01X3505585Y3856182D01*
G01X3515206Y3855797D01*
G01X3519824Y3855027D01*
G01X3523288Y3854257D01*
G01X3527906Y3853103D01*
G01X3531754Y3851564D01*
G01X3535218Y3850024D01*
G01X3538682Y3848100D01*
G01X3541376Y3846561D01*
G01X3547149Y3841943D01*
G01X3550997Y3838094D01*
G01X3554076Y3834246D01*
G01X3555615Y3831936D01*
G01X3558694Y3826549D01*
G01X3560233Y3823470D01*
G01X3561773Y3819236D01*
G01X3563312Y3814233D01*
G01X3564467Y3810385D01*
G01X3565236Y3804997D01*
G01X3565621Y3793451D01*
G01X3565236Y3781906D01*
G01X3564851Y3778827D01*
G01X3564851Y3776903D01*
G01X3480185Y3776903D01*
G01X3481339Y3771130D01*
G01X3482109Y3768051D01*
G01X3482879Y3765357D01*
G01X3484033Y3762664D01*
G01X3485188Y3760354D01*
G01X3486727Y3758430D01*
G01X3490576Y3754582D01*
G01X3492885Y3753043D01*
G01X3495964Y3751503D01*
G01X3499427Y3749964D01*
G01X3503661Y3748809D01*
G01X3507509Y3748039D01*
G01X3515591Y3747654D01*
G01X3524443Y3748039D01*
G01X3529830Y3748809D01*
G01X3534449Y3749579D01*
G01X3538297Y3750349D01*
G01X3543300Y3751503D01*
G01X3548303Y3753043D01*
G01X3550516Y3753235D01*
G01X3551767Y3752273D01*
G01X3553306Y3749579D01*
G01X3554461Y3746500D01*
G01X3555615Y3743036D01*
G01X3556770Y3739188D01*
G01X3557539Y3735724D01*
G01X3557924Y3730721D01*
G01X3557154Y3726488D01*
G01X3554076Y3725333D01*
G01X3545994Y3722639D01*
G01X3538297Y3721100D01*
G01X3532909Y3720330D01*
G01X3526751Y3719561D01*
G01X3514436Y3719176D01*
G37*
G36*
G01X3611803Y3720715D02*
G01X3601027Y3721100D01*
G01X3597564Y3721870D01*
G01X3594870Y3722254D01*
G01X3594870Y3786139D01*
G01X3595254Y3851949D01*
G01X3595928Y3853392D01*
G01X3597179Y3853873D01*
G01X3599873Y3854257D01*
G01X3607954Y3854643D01*
G01X3616036Y3854257D01*
G01X3619115Y3853873D01*
G01X3622579Y3853103D01*
G01X3624888Y3850794D01*
G01X3626043Y3846561D01*
G01X3626812Y3842712D01*
G01X3627197Y3839249D01*
G01X3627486Y3837421D01*
G01X3628351Y3836554D01*
G01X3629410Y3836651D01*
G01X3632200Y3840018D01*
G01X3633739Y3841943D01*
G01X3635279Y3843482D01*
G01X3637203Y3845021D01*
G01X3639127Y3846946D01*
G01X3642206Y3849254D01*
G01X3646054Y3851564D01*
G01X3649518Y3853103D01*
G01X3653751Y3854643D01*
G01X3657600Y3855797D01*
G01X3664527Y3856182D01*
G01X3672994Y3855797D01*
G01X3677612Y3855027D01*
G01X3683770Y3853488D01*
G01X3686849Y3852333D01*
G01X3689927Y3850794D01*
G01X3693391Y3848870D01*
G01X3696085Y3846946D01*
G01X3701857Y3841173D01*
G01X3703397Y3838864D01*
G01X3705706Y3834246D01*
G01X3707246Y3830782D01*
G01X3708400Y3827318D01*
G01X3709939Y3819621D01*
G01X3710709Y3808076D01*
G01X3711094Y3764973D01*
G01X3710805Y3733319D01*
G01X3709939Y3722254D01*
G01X3706861Y3721485D01*
G01X3703782Y3721100D01*
G01X3694930Y3720715D01*
G01X3683770Y3721100D01*
G01X3677612Y3721870D01*
G01X3674918Y3722254D01*
G01X3674918Y3761124D01*
G01X3674533Y3801149D01*
G01X3673764Y3807306D01*
G01X3672994Y3810770D01*
G01X3671839Y3814233D01*
G01X3670685Y3816927D01*
G01X3669146Y3819236D01*
G01X3667221Y3821161D01*
G01X3664527Y3823085D01*
G01X3661449Y3824239D01*
G01X3657600Y3824624D01*
G01X3651443Y3824239D01*
G01X3646054Y3823085D01*
G01X3642976Y3821546D01*
G01X3640667Y3820006D01*
G01X3637973Y3817697D01*
G01X3635664Y3814618D01*
G01X3634124Y3811924D01*
G01X3632585Y3808076D01*
G01X3631430Y3804227D01*
G01X3630661Y3797300D01*
G01X3630276Y3759585D01*
G01X3629987Y3731972D01*
G01X3629121Y3722254D01*
G01X3626043Y3721485D01*
G01X3622964Y3721100D01*
G01X3611803Y3720715D01*
G37*
G36*
G01X3802303Y3719176D02*
G01X3789988Y3719561D01*
G01X3786909Y3720330D01*
G01X3783061Y3721100D01*
G01X3778827Y3722254D01*
G01X3775364Y3723409D01*
G01X3772285Y3724564D01*
G01X3765357Y3728027D01*
G01X3761894Y3730336D01*
G01X3758430Y3733030D01*
G01X3755351Y3735339D01*
G01X3752657Y3738033D01*
G01X3749579Y3741882D01*
G01X3747270Y3745346D01*
G01X3745346Y3748424D01*
G01X3743421Y3751888D01*
G01X3741882Y3755736D01*
G01X3740343Y3759970D01*
G01X3739188Y3763433D01*
G01X3737649Y3770361D01*
G01X3736879Y3775749D01*
G01X3736494Y3786139D01*
G01X3736879Y3796530D01*
G01X3737649Y3801918D01*
G01X3738418Y3805767D01*
G01X3739573Y3811154D01*
G01X3741112Y3816157D01*
G01X3742651Y3820006D01*
G01X3744191Y3823470D01*
G01X3746115Y3827318D01*
G01X3748424Y3830782D01*
G01X3750349Y3833476D01*
G01X3753427Y3837324D01*
G01X3759200Y3843097D01*
G01X3761894Y3845021D01*
G01X3765357Y3847330D01*
G01X3768436Y3849254D01*
G01X3771515Y3850794D01*
G01X3775364Y3852333D01*
G01X3779982Y3853873D01*
G01X3783830Y3855027D01*
G01X3789988Y3855797D01*
G01X3800379Y3856182D01*
G01X3810770Y3855797D01*
G01X3813849Y3855412D01*
G01X3817697Y3855027D01*
G01X3820776Y3854257D01*
G01X3824624Y3853488D01*
G01X3828857Y3852333D01*
G01X3835785Y3850024D01*
G01X3836843Y3848581D01*
G01X3836939Y3845791D01*
G01X3836170Y3841173D01*
G01X3835400Y3837324D01*
G01X3834246Y3831936D01*
G01X3832706Y3827703D01*
G01X3831551Y3824624D01*
G01X3830782Y3823566D01*
G01X3829243Y3823470D01*
G01X3825779Y3824624D01*
G01X3821161Y3825779D01*
G01X3816927Y3826549D01*
G01X3808461Y3826933D01*
G01X3797685Y3826549D01*
G01X3792682Y3825394D01*
G01X3789218Y3823854D01*
G01X3786524Y3822315D01*
G01X3783830Y3820391D01*
G01X3780751Y3817312D01*
G01X3778443Y3813849D01*
G01X3776903Y3810770D01*
G01X3775749Y3807691D01*
G01X3774594Y3804227D01*
G01X3773824Y3801149D01*
G01X3773054Y3794991D01*
G01X3772670Y3788064D01*
G01X3773054Y3781136D01*
G01X3773439Y3777673D01*
G01X3774209Y3772670D01*
G01X3775364Y3768821D01*
G01X3776518Y3765357D01*
G01X3778443Y3761509D01*
G01X3780367Y3758815D01*
G01X3784215Y3754967D01*
G01X3786524Y3753043D01*
G01X3789218Y3751503D01*
G01X3792682Y3749964D01*
G01X3796146Y3748809D01*
G01X3805767Y3748424D01*
G01X3816157Y3748809D01*
G01X3820006Y3749579D01*
G01X3826164Y3751118D01*
G01X3829627Y3752273D01*
G01X3830974Y3752561D01*
G01X3831936Y3751888D01*
G01X3833476Y3749579D01*
G01X3835015Y3746115D01*
G01X3837709Y3738033D01*
G01X3838479Y3732646D01*
G01X3838864Y3728412D01*
G01X3838864Y3725333D01*
G01X3828473Y3721870D01*
G01X3821546Y3720330D01*
G01X3813849Y3719561D01*
G01X3802303Y3719176D01*
G37*
G04 Text End*

G04 PolygonModel Start*
G54D13*
G01X4361343Y1132919D02*
G01X4361343Y1212916D01*
G01X4361297Y1076874D02*
G01X4361297Y996876D01*
G01X4503311Y1132919D02*
G01X4503311Y1212916D01*
G01X4503263Y1076874D02*
G01X4503263Y996876D01*
G01X4392325Y1243891D02*
G01X4472330Y1243891D01*
G01X4472277Y965899D02*
G01X4392275Y965899D01*
G01X4503263Y996881D02*
G02X4472277Y965899I-30983J0D01*
G01X4392280Y965899D02*
G02X4361297Y996881I0J30983D01*
G01X4361343Y1212911D02*
G02X4392325Y1243891I30983J-3D01*
G01X4472323Y1243891D02*
G02X4503311Y1212911I5J-30983D01*
G01X5217081Y1681643D02*
G01X5137084Y1681643D01*
G01X5273126Y1681597D02*
G01X5353124Y1681597D01*
G01X5217081Y1823611D02*
G01X5137084Y1823611D01*
G01X5273126Y1823563D02*
G01X5353124Y1823563D01*
G01X5106109Y1712625D02*
G01X5106109Y1792630D01*
G01X5384102Y1792577D02*
G01X5384102Y1712575D01*
G01X5353119Y1823563D02*
G02X5384102Y1792577I0J-30983D01*
G01X5384102Y1712580D02*
G02X5353119Y1681597I-30983J0D01*
G01X5137089Y1681643D02*
G02X5106109Y1712625I3J30983D01*
G01X5106109Y1792623D02*
G02X5137089Y1823611I30983J5D01*
G01X4399443Y1704419D02*
G01X4399443Y1784416D01*
G01X4399397Y1648374D02*
G01X4399397Y1568376D01*
G01X4541411Y1704419D02*
G01X4541411Y1784416D01*
G01X4541363Y1648374D02*
G01X4541363Y1568376D01*
G01X4430425Y1815391D02*
G01X4510430Y1815391D01*
G01X4510377Y1537399D02*
G01X4430375Y1537399D01*
G01X4541363Y1568381D02*
G02X4510377Y1537399I-30983J0D01*
G01X4430380Y1537399D02*
G02X4399397Y1568381I0J30983D01*
G01X4399443Y1784411D02*
G02X4430425Y1815391I30983J-3D01*
G01X4510423Y1815391D02*
G02X4541411Y1784411I5J-30983D01*
G01X5163657Y2003981D02*
G01X5163657Y1923984D01*
G01X5163703Y2060026D02*
G01X5163703Y2140024D01*
G01X5021689Y2003981D02*
G01X5021689Y1923984D01*
G01X5021737Y2060026D02*
G01X5021737Y2140024D01*
G01X5132675Y1893009D02*
G01X5052670Y1893009D01*
G01X5052723Y2171002D02*
G01X5132725Y2171002D01*
G01X5021737Y2140019D02*
G02X5052723Y2171002I30983J0D01*
G01X5132720Y2171002D02*
G02X5163703Y2140019I0J-30983D01*
G01X5163657Y1923989D02*
G02X5132675Y1893009I-30983J3D01*
G01X5052677Y1893009D02*
G02X5021689Y1923989I-5J30983D01*
G01X4416981Y1313343D02*
G01X4336984Y1313343D01*
G01X4473026Y1313297D02*
G01X4553024Y1313297D01*
G01X4416981Y1455311D02*
G01X4336984Y1455311D01*
G01X4473026Y1455263D02*
G01X4553024Y1455263D01*
G01X4306009Y1344325D02*
G01X4306009Y1424330D01*
G01X4584002Y1424277D02*
G01X4584002Y1344275D01*
G01X4553019Y1455263D02*
G02X4584002Y1424277I0J-30983D01*
G01X4584002Y1344280D02*
G02X4553019Y1313297I-30983J0D01*
G01X4336989Y1313343D02*
G02X4306009Y1344325I3J30983D01*
G01X4306009Y1424323D02*
G02X4336989Y1455311I30983J5D01*
G01X3726343Y1094819D02*
G01X3726343Y1174816D01*
G01X3726297Y1038774D02*
G01X3726297Y958776D01*
G01X3868311Y1094819D02*
G01X3868311Y1174816D01*
G01X3868263Y1038774D02*
G01X3868263Y958776D01*
G01X3757325Y1205791D02*
G01X3837330Y1205791D01*
G01X3837277Y927799D02*
G01X3757275Y927799D01*
G01X3868263Y958781D02*
G02X3837277Y927799I-30983J0D01*
G01X3757280Y927799D02*
G02X3726297Y958781I0J30983D01*
G01X3726343Y1174811D02*
G02X3757325Y1205791I30983J-3D01*
G01X3837323Y1205791D02*
G02X3868311Y1174811I5J-30983D01*
G01X6219998Y224404D02*
G01X4798240Y224470D01*
G01X6219899Y1124801D02*
G01X5316700Y1126101D01*
G01X4922799Y1124102D02*
G01X4798875Y1124107D01*
G01X6220097Y1125002D02*
G01X6220097Y225001D01*
G01X5900880Y354132D02*
G01X4798604Y354312D01*
G01X5900880Y994105D02*
G01X4799371Y994105D01*
G01X4798875Y873455D02*
G01X4798875Y1124107D01*
G01X4798875Y224107D02*
G01X4798875Y474779D01*
G01X5908878Y1124107D02*
G01X5908878Y224107D01*
G54D12*
G01X4965700Y3073400D02*
G01X4711700Y3073400D01*
G01X4711700Y3073400D02*
G01X4711700Y3581400D01*
G01X4711700Y3581400D02*
G01X4965700Y3581400D01*
G01X4965700Y3581400D02*
G01X4965700Y3390900D01*
G54D14*
G01X4965700Y3073400D02*
G01X4965700Y3390900D01*
G54D13*
G01X3644900Y2364202D02*
G01X3644900Y2614201D01*
G01X3137002Y2364202D02*
G01X3137002Y2614201D01*
G01X3898900Y2364202D02*
G01X3137002Y2364202D01*
G01X3898900Y2614201D02*
G01X3898900Y2364202D01*
G01X3136900Y2614201D02*
G01X3898900Y2614201D01*
G01X5354427Y4432303D02*
G01X5613397Y4432303D01*
G01X5354427Y4686300D02*
G01X5354427Y4432303D01*
G01X5613397Y4686300D02*
G01X3835403Y4686300D01*
G01X5613397Y4178300D02*
G01X5613397Y4686300D01*
G01X3835403Y4178300D02*
G01X5613397Y4178300D01*
G01X3835403Y4686300D02*
G01X3835403Y4178300D01*
G01X6184900Y3607694D02*
G01X5930900Y3607694D01*
G01X5930900Y3880800D02*
G01X5930900Y1295400D01*
G01X6184900Y3880800D02*
G01X5930900Y3880800D01*
G01X6184900Y1300800D02*
G01X6184900Y3880800D01*
G01X6184900Y1300800D02*
G01X5930900Y1300800D01*
G54D12*
G01X4660900Y292100D02*
G01X4406900Y292100D01*
G01X4406900Y292100D02*
G01X4406900Y800100D01*
G01X4406900Y800100D02*
G01X4660900Y800100D01*
G01X4660900Y800100D02*
G01X4660900Y609600D01*
G54D14*
G01X4660900Y292100D02*
G01X4660900Y609600D01*
G54D11*
G01X32500Y508000D02*
G03X42500Y508000I5000J0D01*
G01X42500Y508000D02*
G03X32500Y508000I-5000J0D01*
G54D15*
G01X1819500Y1714500D02*
G01X1819500Y234500D01*
G01X1327500Y234500D02*
G01X1819500Y234500D01*
G01X1327500Y234500D02*
G01X1327500Y119500D01*
G01X577500Y119500D02*
G01X1327500Y119500D01*
G01X577500Y234500D02*
G01X577500Y119500D01*
G01X85500Y234500D02*
G01X577500Y234500D01*
G01X85500Y3194500D02*
G01X85500Y234500D01*
G01X85500Y3194500D02*
G01X677500Y3194500D01*
G01X677500Y3309500D02*
G01X677500Y3194500D01*
G01X677500Y3309500D02*
G01X1227500Y3309500D01*
G01X1227500Y3309500D02*
G01X1227500Y3194500D01*
G01X1227500Y3194500D02*
G01X1819500Y3194500D01*
G01X1819500Y3194500D02*
G01X1819500Y1714500D01*
G54D13*
G01X4635500Y2222500D02*
G01X4635500Y2213613D01*
G01X4635500Y2078987D02*
G01X4635500Y2070100D01*
G01X4635500Y2070100D02*
G01X4639343Y2070100D01*
G01X4936457Y2070100D02*
G01X4940300Y2070100D01*
G01X4940300Y2070100D02*
G01X4940300Y2078987D01*
G01X4940300Y2213613D02*
G01X4940300Y2222500D01*
G01X4940300Y2222500D02*
G01X4936457Y2222500D01*
G01X4639343Y2222500D02*
G01X4635500Y2222500D01*
G01X3949700Y1663700D02*
G01X3949700Y1654813D01*
G01X3949700Y1520187D02*
G01X3949700Y1511300D01*
G01X3949700Y1511300D02*
G01X3953543Y1511300D01*
G01X4250657Y1511300D02*
G01X4254500Y1511300D01*
G01X4254500Y1511300D02*
G01X4254500Y1520187D01*
G01X4254500Y1654813D02*
G01X4254500Y1663700D01*
G01X4254500Y1663700D02*
G01X4250657Y1663700D01*
G01X3953543Y1663700D02*
G01X3949700Y1663700D01*
G54D17*
G01X3451042Y1783748D02*
G01X3450046Y1783748D01*
G01X3450046Y1783748D02*
G01X3417042Y1816753D01*
G01X3451042Y1851751D02*
G01X3451042Y1850753D01*
G01X3451042Y1850753D02*
G01X3417042Y1816753D01*
G01X3451042Y1851751D02*
G01X3451042Y1783748D01*
G01X3453046Y1891759D02*
G01X3568047Y1891759D01*
G01X3453046Y1741747D02*
G01X3568047Y1741747D01*
G01X3568047Y1891749D02*
G01X3568047Y1743756D01*
G01X3415045Y1741515D02*
G01X3310034Y1741515D01*
G01X3280039Y1781523D02*
G01X3280039Y1771520D01*
G01X3280039Y1771520D02*
G01X3310034Y1741515D01*
G01X3280039Y1851518D02*
G01X3280039Y1781523D01*
G01X3280039Y1851518D02*
G01X3280039Y1861533D01*
G01X3280039Y1861533D02*
G01X3310034Y1891528D01*
G01X3415045Y1891528D02*
G01X3310034Y1891528D01*
G01X3451042Y1816753D02*
G01X3417042Y1816753D01*
G54D13*
G01X3249930Y1170940D02*
G01X3249930Y1343660D01*
G01X3249930Y1343660D02*
G01X3102610Y1343660D01*
G01X3249930Y1170940D02*
G01X3102610Y1170940D01*
G01X3044190Y1343660D02*
G01X2927350Y1343660D01*
G01X3041650Y1170940D02*
G01X2927350Y1170940D01*
G01X2927350Y1170940D02*
G01X2891790Y1206500D01*
G01X2891790Y1206500D02*
G01X2891790Y1308100D01*
G01X2891790Y1308100D02*
G01X2927350Y1343660D01*
G54D14*
G01X3081020Y1216660D02*
G01X3081020Y1295400D01*
G01X3081020Y1256505D02*
G01X3063484Y1256505D01*
G54D10*
G01X4351579Y1996460D02*
G01X4255691Y1996460D01*
G01X4255691Y1996460D02*
G01X4255691Y1864340D01*
G01X4255691Y1864340D02*
G01X4351579Y1864340D01*
G01X4436821Y1996460D02*
G01X4532709Y1996460D01*
G01X4532709Y1996460D02*
G01X4532709Y1864340D01*
G01X4532709Y1864340D02*
G01X4436821Y1864340D01*
G01X4389679Y2161560D02*
G01X4293791Y2161560D01*
G01X4293791Y2161560D02*
G01X4293791Y2029440D01*
G01X4293791Y2029440D02*
G01X4389679Y2029440D01*
G01X4474921Y2161560D02*
G01X4570809Y2161560D01*
G01X4570809Y2161560D02*
G01X4570809Y2029440D01*
G01X4570809Y2029440D02*
G01X4474921Y2029440D01*
G01X3653079Y1399560D02*
G01X3557191Y1399560D01*
G01X3557191Y1399560D02*
G01X3557191Y1267440D01*
G01X3557191Y1267440D02*
G01X3653079Y1267440D01*
G01X3738321Y1399560D02*
G01X3834209Y1399560D01*
G01X3834209Y1399560D02*
G01X3834209Y1267440D01*
G01X3834209Y1267440D02*
G01X3738321Y1267440D01*
G01X3653079Y1551960D02*
G01X3557191Y1551960D01*
G01X3557191Y1551960D02*
G01X3557191Y1419840D01*
G01X3557191Y1419840D02*
G01X3653079Y1419840D01*
G01X3738321Y1551960D02*
G01X3834209Y1551960D01*
G01X3834209Y1551960D02*
G01X3834209Y1419840D01*
G01X3834209Y1419840D02*
G01X3738321Y1419840D01*
G01X2357679Y2428260D02*
G01X2261791Y2428260D01*
G01X2261791Y2428260D02*
G01X2261791Y2296140D01*
G01X2261791Y2296140D02*
G01X2357679Y2296140D01*
G01X2442921Y2428260D02*
G01X2538809Y2428260D01*
G01X2538809Y2428260D02*
G01X2538809Y2296140D01*
G01X2538809Y2296140D02*
G01X2442921Y2296140D01*
G01X3749060Y1934921D02*
G01X3749060Y2030809D01*
G01X3749060Y2030809D02*
G01X3616940Y2030809D01*
G01X3616940Y2030809D02*
G01X3616940Y1934921D01*
G01X3749060Y1849679D02*
G01X3749060Y1753791D01*
G01X3749060Y1753791D02*
G01X3616940Y1753791D01*
G01X3616940Y1753791D02*
G01X3616940Y1849679D01*
G01X3096240Y960679D02*
G01X3096240Y864791D01*
G01X3096240Y864791D02*
G01X3228360Y864791D01*
G01X3228360Y864791D02*
G01X3228360Y960679D01*
G01X3096240Y1045921D02*
G01X3096240Y1141809D01*
G01X3096240Y1141809D02*
G01X3228360Y1141809D01*
G01X3228360Y1141809D02*
G01X3228360Y1045921D01*
G01X2916479Y2440960D02*
G01X2820591Y2440960D01*
G01X2820591Y2440960D02*
G01X2820591Y2308840D01*
G01X2820591Y2308840D02*
G01X2916479Y2308840D01*
G01X3001721Y2440960D02*
G01X3097609Y2440960D01*
G01X3097609Y2440960D02*
G01X3097609Y2308840D01*
G01X3097609Y2308840D02*
G01X3001721Y2308840D01*
G01X2916479Y2275860D02*
G01X2820591Y2275860D01*
G01X2820591Y2275860D02*
G01X2820591Y2143740D01*
G01X2820591Y2143740D02*
G01X2916479Y2143740D01*
G01X3001721Y2275860D02*
G01X3097609Y2275860D01*
G01X3097609Y2275860D02*
G01X3097609Y2143740D01*
G01X3097609Y2143740D02*
G01X3001721Y2143740D01*
G01X772140Y3526079D02*
G01X772140Y3430191D01*
G01X772140Y3430191D02*
G01X904260Y3430191D01*
G01X904260Y3430191D02*
G01X904260Y3526079D01*
G01X772140Y3611321D02*
G01X772140Y3707209D01*
G01X772140Y3707209D02*
G01X904260Y3707209D01*
G01X904260Y3707209D02*
G01X904260Y3611321D01*
G01X619740Y3526079D02*
G01X619740Y3430191D01*
G01X619740Y3430191D02*
G01X751860Y3430191D01*
G01X751860Y3430191D02*
G01X751860Y3526079D01*
G01X619740Y3611321D02*
G01X619740Y3707209D01*
G01X619740Y3707209D02*
G01X751860Y3707209D01*
G01X751860Y3707209D02*
G01X751860Y3611321D01*
G01X467340Y3526079D02*
G01X467340Y3430191D01*
G01X467340Y3430191D02*
G01X599460Y3430191D01*
G01X599460Y3430191D02*
G01X599460Y3526079D01*
G01X467340Y3611321D02*
G01X467340Y3707209D01*
G01X467340Y3707209D02*
G01X599460Y3707209D01*
G01X599460Y3707209D02*
G01X599460Y3611321D01*
G01X314940Y3526079D02*
G01X314940Y3430191D01*
G01X314940Y3430191D02*
G01X447060Y3430191D01*
G01X447060Y3430191D02*
G01X447060Y3526079D01*
G01X314940Y3611321D02*
G01X314940Y3707209D01*
G01X314940Y3707209D02*
G01X447060Y3707209D01*
G01X447060Y3707209D02*
G01X447060Y3611321D01*
G54D13*
G01X4491307Y2730492D02*
G01X4491307Y2857492D01*
G01X4491307Y2857492D02*
G01X4897707Y2857492D01*
G01X4897707Y2857492D02*
G01X4897707Y2730492D01*
G01X4897707Y2730492D02*
G01X4491307Y2730492D01*
G01X4491307Y2476492D02*
G01X4491307Y2603492D01*
G01X4491307Y2603492D02*
G01X4897707Y2603492D01*
G01X4897707Y2603492D02*
G01X4897707Y2476492D01*
G01X4897707Y2476492D02*
G01X4491307Y2476492D01*
G01X4529407Y2476492D02*
G01X4529407Y2603492D01*
G01X4567507Y2476492D02*
G01X4567507Y2603492D01*
G01X4815157Y2476492D02*
G01X4815157Y2603492D01*
G01X4853257Y2476492D02*
G01X4853257Y2603492D01*
G01X4529407Y2730492D02*
G01X4529407Y2857492D01*
G01X4567507Y2730492D02*
G01X4567507Y2857492D01*
G01X4815157Y2730492D02*
G01X4815157Y2857492D01*
G01X4853257Y2730492D02*
G01X4853257Y2857492D01*
G01X4386303Y2389002D02*
G01X4986302Y2389002D01*
G01X4986302Y2389002D02*
G01X4986302Y2944000D01*
G01X4986302Y2944000D02*
G01X4386303Y2944000D01*
G01X4386303Y2944000D02*
G01X4386303Y2389002D01*
G54D18*
G01X4917181Y1990263D02*
G01X4917181Y2005566D01*
G01X4917181Y1705567D02*
G01X4917181Y1720870D01*
G01X4637182Y1990265D02*
G01X4637182Y2005566D01*
G01X4637182Y1705567D02*
G01X4637182Y1720868D01*
G01X4917181Y1705567D02*
G01X4637182Y1705567D01*
G01X4917181Y2005566D02*
G01X4637182Y2005566D01*
G54D13*
G01X1114814Y4966391D02*
G01X1958571Y4966391D01*
G01X974194Y4554769D02*
G01X974194Y4813524D01*
G01X2099191Y4368541D02*
G01X2099191Y4366892D01*
G01X2099191Y4366892D02*
G01X974194Y4366892D01*
G01X974194Y4366892D02*
G01X974194Y4368541D01*
G01X2099191Y4813524D02*
G01X2099191Y4554769D01*
G54D18*
G01X4231381Y1420515D02*
G01X4231381Y1435819D01*
G01X4231381Y1135819D02*
G01X4231381Y1151123D01*
G01X3951382Y1420518D02*
G01X3951382Y1435819D01*
G01X3951382Y1135819D02*
G01X3951382Y1151120D01*
G01X4231381Y1135819D02*
G01X3951382Y1135819D01*
G01X4231381Y1435819D02*
G01X3951382Y1435819D01*
G54D13*
G01X2753192Y-838200D02*
G01X2753192Y-635201D01*
G01X2753192Y-635201D02*
G01X4099001Y-635201D01*
G01X4099001Y-635201D02*
G01X4099001Y-838200D01*
G01X4229100Y12700D02*
G01X4229100Y-837301D01*
G01X2637000Y-838200D02*
G01X4221000Y-838200D01*
G01X2637000Y11801D02*
G01X4221000Y11801D01*
G01X4064000Y69685D02*
G01X4064000Y11801D01*
G01X3810000Y69685D02*
G01X3810000Y11801D01*
G01X3556000Y69685D02*
G01X3556000Y11801D01*
G01X3302000Y69685D02*
G01X3302000Y11801D01*
G01X3048000Y69685D02*
G01X3048000Y11801D01*
G01X2794000Y165100D02*
G01X2794000Y11801D01*
G01X2637000Y-838200D02*
G01X2637000Y11801D01*
G54D12*
G01X2565400Y0D02*
G01X2565400Y736600D01*

G04 Rect Start*
G54D13*
G01X4745299Y2755900D02*
G01X4618299Y2755900D01*
G01X4618299Y2832100D01*
G01X4745299Y2832100D01*
G01X4745299Y2755900D01*
G01X4745299Y2501900D02*
G01X4618299Y2501900D01*
G01X4618299Y2578100D01*
G01X4745299Y2578100D01*
G01X4745299Y2501900D01*
G04 Rect End*

G04 Circle Start*
G01X5436964Y1429875D02*
G03X5690964Y1429875I127000J0D01*
G03X5436964Y1429875I-127000J0D01*
G01X4854771Y1432687D02*
G03X5104758Y1432687I124993J0D01*
G03X4854771Y1432687I-124993J0D01*
G01X3813371Y2097900D02*
G03X4063358Y2097900I124993J0D01*
G03X3813371Y2097900I-124993J0D01*
G01X2975171Y1632813D02*
G03X3225158Y1632813I124993J0D01*
G03X2975171Y1632813I-124993J0D01*
G54D18*
G01X4934090Y1746557D02*
G03X4950244Y1746557I8077J0D01*
G03X4934090Y1746557I-8077J0D01*
G54D13*
G01X1980679Y4293895D02*
G03X2031683Y4293895I25502J0D01*
G03X1980679Y4293895I-25502J0D01*
G54D18*
G01X4248290Y1176810D02*
G03X4264444Y1176810I8077J0D01*
G03X4248290Y1176810I-8077J0D01*
G04 Circle End*

M02*

