G04 Layer: TopSolderMaskLayer*
G04 EasyEDA Pro v2.2.40.8, 2025-08-03 21:23:04*
G04 Gerber Generator version 0.3*
G04 Scale: 100 percent, Rotated: No, Reflected: No*
G04 Dimensions in millimeters*
G04 Leading zeros omitted, absolute positions, 4 integers and 5 decimals*
G04 Generated by one-click*
%FSLAX45Y45*%
%MOMM*%
%AMRoundRect*1,1,$1,$2,$3*1,1,$1,$4,$5*1,1,$1,0-$2,0-$3*1,1,$1,0-$4,0-$5*20,1,$1,$2,$3,$4,$5,0*20,1,$1,$4,$5,0-$2,0-$3,0*20,1,$1,0-$2,0-$3,0-$4,0-$5,0*20,1,$1,0-$4,0-$5,$2,$3,0*4,1,4,$2,$3,$4,$5,0-$2,0-$3,0-$4,0-$5,$2,$3,0*%
%ADD10RoundRect,0.09131X-0.45514X-0.40514X-0.45514X0.40514*%
%ADD11RoundRect,0.09131X-0.40514X0.45514X0.40514X0.45514*%
%ADD12C,2.0016*%
%ADD13O,1.6016X3.90159*%
%ADD14O,3.50159X1.6016*%
%ADD15RoundRect,0.1002X-1.00234X-1.00234X-1.00234X1.00234*%
%ADD16RoundRect,0.09691X-1.00234X-1.00234X-1.00234X1.00234*%
%ADD17C,2.1016*%
%ADD18RoundRect,0.09618X-0.85271X0.85271X0.85271X0.85271*%
%ADD19C,1.8016*%
%ADD20RoundRect,0.09579X-0.8529X-0.7903X-0.8529X0.7903*%
%ADD21C,0.7416*%
%ADD22RoundRect,0.08875X-0.30643X0.63143X0.30643X0.63143*%
%ADD23RoundRect,0.08449X-0.30853X0.20856X0.30853X0.20856*%
%ADD24RoundRect,0.08449X-0.30856X0.20856X0.30856X0.20856*%
%ADD25RoundRect,0.09131X-0.40514X-0.40514X-0.40514X0.40514*%
%ADD26RoundRect,0.09138X-0.40835X0.43711X0.40835X0.43711*%
%ADD27RoundRect,0.09138X-0.43711X-0.40835X-0.43711X0.40835*%
%ADD28RoundRect,0.09231X-1.10384X-0.55384X-1.10384X0.55384*%
%ADD29C,1.9016*%
%ADD30RoundRect,0.0858X-0.33291X0.23291X0.33291X0.23291*%
%ADD31RoundRect,0.09368X-0.55396X-0.95396X-0.55396X0.95396*%
%ADD32RoundRect,0.08692X-0.25734X0.50734X0.25734X0.50734*%
%ADD33RoundRect,0.09473X-0.65343X0.70343X0.65343X0.70343*%
%ADD34C,1.80002*%
%ADD35RoundRect,0.09476X-0.85263X0.85263X0.85263X0.85263*%
G75*


G04 Pad Start*
G54D10*
G01X4432300Y1034898D03*
G01X4432300Y1174902D03*
G54D11*
G01X5315102Y1752600D03*
G01X5175098Y1752600D03*
G54D10*
G01X4470400Y1606398D03*
G01X4470400Y1746402D03*
G01X5092700Y2102002D03*
G01X5092700Y1961998D03*
G54D11*
G01X4515002Y1384300D03*
G01X4374998Y1384300D03*
G54D10*
G01X3797300Y996798D03*
G01X3797300Y1136802D03*
G54D12*
G01X5563964Y1429875D03*
G54D13*
G01X4868888Y669201D03*
G01X5468912Y669201D03*
G54D14*
G01X5118900Y1134199D03*
G54D16*
G01X4838700Y3454400D03*
G54D17*
G01X4838700Y3200400D03*
G54D18*
G01X3771900Y2489200D03*
G54D19*
G01X3517900Y2489200D03*
G01X3263900Y2489200D03*
G54D18*
G01X5486400Y4559300D03*
G54D19*
G01X5486400Y4305300D03*
G01X5232400Y4559300D03*
G01X5232400Y4305300D03*
G01X4978400Y4559300D03*
G01X4978400Y4305300D03*
G01X4724400Y4559300D03*
G01X4724400Y4305300D03*
G01X4470400Y4559300D03*
G01X4470400Y4305300D03*
G01X4216400Y4559300D03*
G01X4216400Y4305300D03*
G01X3962400Y4559300D03*
G01X3962400Y4305300D03*
G01X6057900Y1447800D03*
G01X6057900Y1701800D03*
G01X6057900Y1955800D03*
G01X6057900Y2209800D03*
G01X6057900Y2463800D03*
G01X6057900Y2717800D03*
G01X6057900Y2971800D03*
G01X6057900Y3225800D03*
G01X6057900Y3479800D03*
G54D20*
G01X6057900Y3733800D03*
G54D16*
G01X4533900Y673100D03*
G54D17*
G01X4533900Y419100D03*
G54D21*
G01X381000Y508000D03*
G01X381000Y635000D03*
G01X381000Y762000D03*
G01X381000Y889000D03*
G01X381000Y1016000D03*
G01X381000Y1143000D03*
G01X381000Y1270000D03*
G01X381000Y1397000D03*
G01X381000Y1524000D03*
G01X381000Y1651000D03*
G01X381000Y1778000D03*
G01X381000Y1905000D03*
G01X381000Y2032000D03*
G01X381000Y2159000D03*
G01X381000Y2286000D03*
G01X381000Y2413000D03*
G01X381000Y2540000D03*
G01X381000Y2667000D03*
G01X381000Y2794000D03*
G01X381000Y2921000D03*
G01X508000Y508000D03*
G01X508000Y635000D03*
G01X508000Y762000D03*
G01X508000Y889000D03*
G01X508000Y1016000D03*
G01X508000Y1143000D03*
G01X508000Y1270000D03*
G01X508000Y1397000D03*
G01X508000Y1524000D03*
G01X508000Y1651000D03*
G01X508000Y1778000D03*
G01X508000Y1905000D03*
G01X508000Y2032000D03*
G01X508000Y2159000D03*
G01X508000Y2286000D03*
G01X508000Y2413000D03*
G01X508000Y2540000D03*
G01X508000Y2667000D03*
G01X508000Y2794000D03*
G01X508000Y2921000D03*
G01X635000Y508000D03*
G01X635000Y635000D03*
G01X635000Y762000D03*
G01X635000Y889000D03*
G01X635000Y1016000D03*
G01X635000Y1143000D03*
G01X635000Y1270000D03*
G01X635000Y1397000D03*
G01X635000Y1524000D03*
G01X635000Y1651000D03*
G01X635000Y1778000D03*
G01X635000Y1905000D03*
G01X635000Y2032000D03*
G01X635000Y2159000D03*
G01X635000Y2286000D03*
G01X635000Y2413000D03*
G01X635000Y2540000D03*
G01X635000Y2667000D03*
G01X635000Y2794000D03*
G01X635000Y2921000D03*
G01X762000Y508000D03*
G01X762000Y635000D03*
G01X762000Y762000D03*
G01X762000Y889000D03*
G01X762000Y1016000D03*
G01X762000Y1143000D03*
G01X762000Y1270000D03*
G01X762000Y1397000D03*
G01X762000Y1524000D03*
G01X762000Y1651000D03*
G01X762000Y1778000D03*
G01X762000Y1905000D03*
G01X762000Y2032000D03*
G01X762000Y2159000D03*
G01X762000Y2286000D03*
G01X762000Y2413000D03*
G01X762000Y2540000D03*
G01X762000Y2667000D03*
G01X762000Y2794000D03*
G01X762000Y2921000D03*
G01X889000Y508000D03*
G01X889000Y635000D03*
G01X889000Y762000D03*
G01X889000Y889000D03*
G01X889000Y1016000D03*
G01X889000Y1143000D03*
G01X889000Y1270000D03*
G01X889000Y1397000D03*
G01X889000Y1524000D03*
G01X889000Y1651000D03*
G01X889000Y1778000D03*
G01X889000Y1905000D03*
G01X889000Y2032000D03*
G01X889000Y2159000D03*
G01X889000Y2286000D03*
G01X889000Y2413000D03*
G01X889000Y2540000D03*
G01X889000Y2667000D03*
G01X889000Y2794000D03*
G01X889000Y2921000D03*
G01X1016000Y508000D03*
G01X1016000Y635000D03*
G01X1016000Y762000D03*
G01X1016000Y889000D03*
G01X1016000Y1016000D03*
G01X1016000Y1143000D03*
G01X1016000Y1270000D03*
G01X1016000Y1397000D03*
G01X1016000Y1524000D03*
G01X1016000Y1651000D03*
G01X1016000Y1778000D03*
G01X1016000Y1905000D03*
G01X1016000Y2032000D03*
G01X1016000Y2159000D03*
G01X1016000Y2286000D03*
G01X1016000Y2413000D03*
G01X1016000Y2540000D03*
G01X1016000Y2667000D03*
G01X1016000Y2794000D03*
G01X1016000Y2921000D03*
G01X1143000Y508000D03*
G01X1143000Y635000D03*
G01X1143000Y762000D03*
G01X1143000Y889000D03*
G01X1143000Y1016000D03*
G01X1143000Y1143000D03*
G01X1143000Y1270000D03*
G01X1143000Y1397000D03*
G01X1143000Y1524000D03*
G01X1143000Y1651000D03*
G01X1143000Y1778000D03*
G01X1143000Y1905000D03*
G01X1143000Y2032000D03*
G01X1143000Y2159000D03*
G01X1143000Y2286000D03*
G01X1143000Y2413000D03*
G01X1143000Y2540000D03*
G01X1143000Y2667000D03*
G01X1143000Y2794000D03*
G01X1143000Y2921000D03*
G01X1270000Y508000D03*
G01X1270000Y635000D03*
G01X1270000Y762000D03*
G01X1270000Y889000D03*
G01X1270000Y1016000D03*
G01X1270000Y1143000D03*
G01X1270000Y1270000D03*
G01X1270000Y1397000D03*
G01X1270000Y1524000D03*
G01X1270000Y1651000D03*
G01X1270000Y1778000D03*
G01X1270000Y1905000D03*
G01X1270000Y2032000D03*
G01X1270000Y2159000D03*
G01X1270000Y2286000D03*
G01X1270000Y2413000D03*
G01X1270000Y2540000D03*
G01X1270000Y2667000D03*
G01X1270000Y2794000D03*
G01X1270000Y2921000D03*
G01X1397000Y508000D03*
G01X1397000Y635000D03*
G01X1397000Y762000D03*
G01X1397000Y889000D03*
G01X1397000Y1016000D03*
G01X1397000Y1143000D03*
G01X1397000Y1270000D03*
G01X1397000Y1397000D03*
G01X1397000Y1524000D03*
G01X1397000Y1651000D03*
G01X1397000Y1778000D03*
G01X1397000Y1905000D03*
G01X1397000Y2032000D03*
G01X1397000Y2159000D03*
G01X1397000Y2286000D03*
G01X1397000Y2413000D03*
G01X1397000Y2540000D03*
G01X1397000Y2667000D03*
G01X1397000Y2794000D03*
G01X1397000Y2921000D03*
G01X1524000Y508000D03*
G01X1524000Y635000D03*
G01X1524000Y762000D03*
G01X1524000Y889000D03*
G01X1524000Y1016000D03*
G01X1524000Y1143000D03*
G01X1524000Y1270000D03*
G01X1524000Y1397000D03*
G01X1524000Y1524000D03*
G01X1524000Y1651000D03*
G01X1524000Y1778000D03*
G01X1524000Y1905000D03*
G01X1524000Y2032000D03*
G01X1524000Y2159000D03*
G01X1524000Y2286000D03*
G01X1524000Y2413000D03*
G01X1524000Y2540000D03*
G01X1524000Y2667000D03*
G01X1524000Y2794000D03*
G01X1524000Y2921000D03*
G54D22*
G01X4687900Y2146300D03*
G54D23*
G01X4787900Y2095500D03*
G54D22*
G01X4887900Y2146300D03*
G54D24*
G01X4787900Y2197100D03*
G54D22*
G01X4002100Y1587500D03*
G54D23*
G01X4102100Y1536700D03*
G54D22*
G01X4202100Y1587500D03*
G54D24*
G01X4102100Y1638300D03*
G54D25*
G01X3508947Y1816113D03*
G01X3349054Y1816087D03*
G01X3158490Y1257300D03*
G01X2988310Y1257300D03*
G54D26*
G01X4318864Y1930400D03*
G01X4469536Y1930400D03*
G01X4356964Y2095500D03*
G01X4507636Y2095500D03*
G01X3620364Y1333500D03*
G01X3771036Y1333500D03*
G01X3620364Y1485900D03*
G01X3771036Y1485900D03*
G01X2324964Y2362200D03*
G01X2475636Y2362200D03*
G54D27*
G01X3683000Y1967636D03*
G01X3683000Y1816964D03*
G01X3162300Y927964D03*
G01X3162300Y1078636D03*
G54D26*
G01X2883764Y2374900D03*
G01X3034436Y2374900D03*
G01X2883764Y2209800D03*
G01X3034436Y2209800D03*
G54D27*
G01X838200Y3493364D03*
G01X838200Y3644036D03*
G01X685800Y3493364D03*
G01X685800Y3644036D03*
G01X533400Y3493364D03*
G01X533400Y3644036D03*
G01X381000Y3493364D03*
G01X381000Y3644036D03*
G54D28*
G01X5126299Y2540000D03*
G01X4246291Y2540000D03*
G01X5126299Y2794000D03*
G01X4246291Y2794000D03*
G54D29*
G01X4979764Y1432687D03*
G01X3938364Y2097900D03*
G01X3100164Y1632813D03*
G54D30*
G01X4889691Y1758064D03*
G01X4889691Y1823062D03*
G01X4889691Y1888061D03*
G01X4889691Y1953059D03*
G01X4664672Y1823062D03*
G01X4664672Y1758064D03*
G54D31*
G01X4777169Y1855574D03*
G54D30*
G01X4664672Y1953059D03*
G01X4664672Y1888061D03*
G54D32*
G01X1921701Y4288155D03*
G01X1811693Y4288155D03*
G01X1701711Y4288155D03*
G01X1626705Y4288155D03*
G01X1481696Y4288155D03*
G01X1371714Y4288155D03*
G01X1261707Y4288155D03*
G01X1151700Y4288155D03*
G01X1556703Y4288155D03*
G54D33*
G01X1026706Y4461662D03*
G01X1026706Y4906645D03*
G01X2046694Y4906645D03*
G01X2046694Y4461662D03*
G54D30*
G01X4203891Y1188316D03*
G01X4203891Y1253314D03*
G01X4203891Y1318313D03*
G01X4203891Y1383312D03*
G01X3978872Y1253314D03*
G01X3978872Y1188316D03*
G54D31*
G01X4091369Y1285826D03*
G54D30*
G01X3978872Y1383312D03*
G01X3978872Y1318313D03*
G54D34*
G01X4064000Y431800D03*
G01X4064000Y177800D03*
G01X3810000Y431800D03*
G01X3810000Y177800D03*
G01X3556000Y431800D03*
G01X3556000Y177800D03*
G01X3302000Y431800D03*
G01X3302000Y177800D03*
G01X3048000Y431800D03*
G01X3048000Y177800D03*
G01X2794000Y431800D03*
G54D35*
G01X2794000Y177800D03*
G04 Pad End*

M02*

