G04 Layer: BottomLayer*
G04 EasyEDA Pro v2.2.40.8, 2025-08-03 21:23:04*
G04 Gerber Generator version 0.3*
G04 Scale: 100 percent, Rotated: No, Reflected: No*
G04 Dimensions in millimeters*
G04 Leading zeros omitted, absolute positions, 4 integers and 5 decimals*
G04 Generated by one-click*
%FSLAX45Y45*%
%MOMM*%
%ADD10C,0.2032*%
%ADD11R,0.8X0.9*%
%ADD12C,1.9*%
%ADD13O,1.5X3.79999*%
%ADD14O,3.39999X1.5*%
%ADD15R,2.0X2.0*%
%ADD16C,2.0*%
%ADD17R,1.7X1.7*%
%ADD18C,1.7061*%
%ADD19C,1.7*%
%ADD20R,1.7X1.5748*%
%ADD21R,0.86401X0.80648*%
%ADD22C,1.8*%
%ADD23R,0.25001X0.84999*%
%ADD24R,0.84999X0.25001*%
%ADD25R,2.49999X2.49999*%
%ADD26C,0.61*%
%ADD27C,0.6096*%
%ADD28C,0.254*%
%ADD29C,0.508*%
G75*


G04 Copper Start*
G36*
G01X327660Y327660D02*
G01X327660Y561340D01*
G01X1691640Y561340D01*
G01X1691640Y327660D01*
G01X327660Y327660D01*
G37*
G36*
G01X6464300Y5164186D02*
G01X6464300Y-98186D01*
G01X35814Y-98186D01*
G01X35814Y1721392D01*
G01X237813Y1721392D01*
G01X238015Y1705896D01*
G01X241808Y1690869D01*
G01X248985Y1677133D01*
G01X259154Y1665438D01*
G01X271760Y1656423D01*
G01X286114Y1650579D01*
G01X301432Y1648227D01*
G01X1323564Y626095D01*
G01X1333611Y618386D01*
G01X1345312Y613539D01*
G01X1357868Y611886D01*
G01X3053305Y611886D01*
G01X3053305Y611886D01*
G01X3189457Y475733D01*
G01X3183412Y454885D01*
G01X3181195Y433292D01*
G01X3182878Y411651D01*
G01X3188407Y390660D01*
G01X3197602Y370997D01*
G01X3210168Y353297D01*
G01X3225698Y338131D01*
G01X3243691Y325989D01*
G01X3263566Y317263D01*
G01X3284683Y312234D01*
G01X3306358Y311065D01*
G01X3327893Y313793D01*
G01X3348591Y320331D01*
G01X3367786Y330468D01*
G01X3367786Y312195D01*
G01X3345933Y290343D01*
G01X3326777Y296046D01*
G01X3306942Y298513D01*
G01X3286972Y297676D01*
G01X3267413Y293557D01*
G01X3248801Y286271D01*
G01X3231645Y276015D01*
G01X3216415Y263071D01*
G01X3203527Y247793D01*
G01X3193335Y230600D01*
G01X3186116Y211961D01*
G01X3182070Y192387D01*
G01X3181306Y172414D01*
G01X3183846Y152589D01*
G01X3189620Y133453D01*
G01X3198469Y115531D01*
G01X3210153Y99314D01*
G01X2914814Y99314D01*
G01X2914814Y262800D01*
G01X2913061Y273867D01*
G01X2907974Y283851D01*
G01X2900051Y291774D01*
G01X2890067Y296861D01*
G01X2879000Y298614D01*
G01X2855214Y298614D01*
G01X2855214Y327642D01*
G01X2872323Y339814D01*
G01X2887067Y354764D01*
G01X2898999Y372041D01*
G01X2907760Y391124D01*
G01X2913085Y411434D01*
G01X2914813Y432360D01*
G01X2912891Y453270D01*
G01X2907378Y473530D01*
G01X2898441Y492530D01*
G01X2886348Y509696D01*
G01X2871467Y524509D01*
G01X2854245Y536521D01*
G01X2835204Y545370D01*
G01X2814918Y550789D01*
G01X2794000Y552614D01*
G01X2773082Y550789D01*
G01X2752796Y545370D01*
G01X2733755Y536521D01*
G01X2716533Y524509D01*
G01X2701652Y509696D01*
G01X2689559Y492530D01*
G01X2680622Y473530D01*
G01X2675109Y453270D01*
G01X2673187Y432360D01*
G01X2674915Y411434D01*
G01X2680240Y391124D01*
G01X2689001Y372041D01*
G01X2700933Y354764D01*
G01X2715677Y339814D01*
G01X2732786Y327642D01*
G01X2732786Y298614D01*
G01X2709000Y298614D01*
G01X2697933Y296861D01*
G01X2687949Y291774D01*
G01X2680026Y283851D01*
G01X2674939Y273867D01*
G01X2673186Y262800D01*
G01X2673186Y99314D01*
G01X1856613Y99314D01*
G01X1674241Y281686D01*
G01X1701800Y281686D01*
G01X1712867Y283439D01*
G01X1722851Y288526D01*
G01X1730774Y296449D01*
G01X1735861Y306433D01*
G01X1737614Y317500D01*
G01X1737614Y571500D01*
G01X1735861Y582567D01*
G01X1730774Y592551D01*
G01X1722851Y600474D01*
G01X1712867Y605561D01*
G01X1701800Y607314D01*
G01X317500Y607314D01*
G01X306433Y605561D01*
G01X296449Y600474D01*
G01X288526Y592551D01*
G01X283439Y582567D01*
G01X281686Y571500D01*
G01X281686Y317500D01*
G01X283439Y306433D01*
G01X288526Y296449D01*
G01X296449Y288526D01*
G01X306433Y283439D01*
G01X317500Y281686D01*
G01X1501102Y281686D01*
G01X1787972Y-5185D01*
G01X1797249Y-12798D01*
G01X1807832Y-18454D01*
G01X1819315Y-21938D01*
G01X1831257Y-23114D01*
G01X4673600Y-23114D01*
G01X4685542Y-21938D01*
G01X4697026Y-18454D01*
G01X4707609Y-12798D01*
G01X4716885Y-5185D01*
G01X4907385Y185315D01*
G01X4914998Y194591D01*
G01X4920654Y205174D01*
G01X4924138Y216658D01*
G01X4925314Y228600D01*
G01X4925314Y458829D01*
G01X4940868Y469949D01*
G01X4954280Y483576D01*
G01X4965149Y499306D01*
G01X4973153Y516671D01*
G01X4978052Y535152D01*
G01X4979702Y554201D01*
G01X4979702Y784201D01*
G01X4977815Y804563D01*
G01X4972219Y824231D01*
G01X4963104Y842537D01*
G01X4950780Y858856D01*
G01X4935668Y872632D01*
G01X4918282Y883397D01*
G01X4899214Y890784D01*
G01X4879113Y894542D01*
G01X4858663Y894542D01*
G01X4838562Y890784D01*
G01X4819494Y883397D01*
G01X4802108Y872632D01*
G01X4786995Y858856D01*
G01X4774672Y842537D01*
G01X4765557Y824231D01*
G01X4759961Y804563D01*
G01X4758074Y784201D01*
G01X4758074Y554201D01*
G01X4759997Y533648D01*
G01X4765698Y513808D01*
G01X4774980Y495370D01*
G01X4787521Y478974D01*
G01X4802886Y465188D01*
G01X4802886Y253956D01*
G01X4648244Y99314D01*
G01X4155847Y99314D01*
G01X4167917Y116179D01*
G01X4176925Y134859D01*
G01X4182605Y154805D01*
G01X4184791Y175428D01*
G01X4183417Y196122D01*
G01X4178524Y216275D01*
G01X4232744Y270495D01*
G01X4240454Y280543D01*
G01X4245300Y292244D01*
G01X4246953Y304800D01*
G01X4246953Y500561D01*
G01X4245300Y513117D01*
G01X4240454Y524818D01*
G01X4232744Y534865D01*
G01X4194509Y573100D01*
G01X4398086Y573100D01*
G01X4399839Y562033D01*
G01X4404926Y552049D01*
G01X4412849Y544126D01*
G01X4422833Y539039D01*
G01X4433900Y537286D01*
G01X4633900Y537286D01*
G01X4644967Y539039D01*
G01X4654951Y544126D01*
G01X4662874Y552049D01*
G01X4667961Y562033D01*
G01X4669714Y573100D01*
G01X4669714Y773100D01*
G01X4667961Y784167D01*
G01X4662874Y794151D01*
G01X4654951Y802074D01*
G01X4644967Y807161D01*
G01X4633900Y808914D01*
G01X4433900Y808914D01*
G01X4422833Y807161D01*
G01X4412849Y802074D01*
G01X4404926Y794151D01*
G01X4399839Y784167D01*
G01X4398086Y773100D01*
G01X4398086Y573100D01*
G01X4398086Y573100D01*
G01X4194509Y573100D01*
G01X3520723Y1246886D01*
G01X4855178Y1246886D01*
G01X4867120Y1248062D01*
G01X4878603Y1251546D01*
G01X4889186Y1257202D01*
G01X4898462Y1264815D01*
G01X4945325Y1311678D01*
G01X4966991Y1307523D01*
G01X4989048Y1307216D01*
G01X5010821Y1310766D01*
G01X5031639Y1318065D01*
G01X5050861Y1328887D01*
G01X5067899Y1342901D01*
G01X5082226Y1359675D01*
G01X5093403Y1378694D01*
G01X5101087Y1399372D01*
G01X5105041Y1421075D01*
G01X5105143Y1443135D01*
G01X5101391Y1464874D01*
G01X5093900Y1485623D01*
G01X5082899Y1504744D01*
G01X5068728Y1521651D01*
G01X5051822Y1535822D01*
G01X5032700Y1546822D01*
G01X5011951Y1554314D01*
G01X4990213Y1558066D01*
G01X4968153Y1557964D01*
G01X4946450Y1554010D01*
G01X4925771Y1546326D01*
G01X4906753Y1535148D01*
G01X4889979Y1520821D01*
G01X4875965Y1503784D01*
G01X4865142Y1484561D01*
G01X4857844Y1463743D01*
G01X4854293Y1441971D01*
G01X4854601Y1419913D01*
G01X4858756Y1398248D01*
G01X4829822Y1369314D01*
G01X3009856Y1369314D01*
G01X2817114Y1562056D01*
G01X2817114Y1841544D01*
G01X2881992Y1906422D01*
G01X3530549Y1906422D01*
G01X3546197Y1902071D01*
G01X3562432Y1901655D01*
G01X3578282Y1905199D01*
G01X3592794Y1912491D01*
G01X3605098Y1923092D01*
G01X3614456Y1936366D01*
G01X3620305Y1951518D01*
G01X3622294Y1967636D01*
G01X3620305Y1983755D01*
G01X3614456Y1998907D01*
G01X3605098Y2012181D01*
G01X3592794Y2022782D01*
G01X3578282Y2030074D01*
G01X3562432Y2033618D01*
G01X3546197Y2033202D01*
G01X3530549Y2028850D01*
G01X2856636Y2028850D01*
G01X2844694Y2027674D01*
G01X2833211Y2024191D01*
G01X2822628Y2018534D01*
G01X2813352Y2010921D01*
G01X2712615Y1910185D01*
G01X2705002Y1900909D01*
G01X2699346Y1890326D01*
G01X2695862Y1878842D01*
G01X2694686Y1866900D01*
G01X2694686Y1536700D01*
G01X2695862Y1524758D01*
G01X2699346Y1513274D01*
G01X2705002Y1502691D01*
G01X2712615Y1493415D01*
G01X2925616Y1280414D01*
G01X1569495Y1280414D01*
G01X752009Y2097900D01*
G01X3812550Y2097900D01*
G01X3814462Y2076053D01*
G01X3820138Y2054869D01*
G01X3829406Y2034993D01*
G01X3841985Y2017028D01*
G01X3857493Y2001521D01*
G01X3875457Y1988942D01*
G01X3895333Y1979674D01*
G01X3916517Y1973998D01*
G01X3938364Y1972086D01*
G01X3960212Y1973998D01*
G01X3981395Y1979674D01*
G01X4001271Y1988942D01*
G01X4019236Y2001521D01*
G01X4034743Y2017028D01*
G01X4047322Y2034993D01*
G01X4056591Y2054869D01*
G01X4062267Y2076053D01*
G01X4064178Y2097900D01*
G01X4062267Y2119747D01*
G01X4056591Y2140931D01*
G01X4047322Y2160807D01*
G01X4034743Y2178772D01*
G01X4019236Y2194279D01*
G01X4001271Y2206858D01*
G01X3994962Y2209800D01*
G01X5937086Y2209800D01*
G01X5938922Y2188821D01*
G01X5944372Y2168479D01*
G01X5953272Y2149393D01*
G01X5965351Y2132142D01*
G01X5980242Y2117251D01*
G01X5997493Y2105172D01*
G01X6016579Y2096272D01*
G01X6036921Y2090822D01*
G01X6057900Y2088986D01*
G01X6078879Y2090822D01*
G01X6099221Y2096272D01*
G01X6118307Y2105172D01*
G01X6135558Y2117251D01*
G01X6150449Y2132142D01*
G01X6162528Y2149393D01*
G01X6171428Y2168479D01*
G01X6176878Y2188821D01*
G01X6178714Y2209800D01*
G01X6176878Y2230779D01*
G01X6171428Y2251121D01*
G01X6162528Y2270207D01*
G01X6150449Y2287458D01*
G01X6135558Y2302349D01*
G01X6118307Y2314428D01*
G01X6099221Y2323328D01*
G01X6078879Y2328778D01*
G01X6057900Y2330614D01*
G01X6057900Y2330614D01*
G01X6036921Y2328778D01*
G01X6016579Y2323328D01*
G01X5997493Y2314428D01*
G01X5980242Y2302349D01*
G01X5965351Y2287458D01*
G01X5953272Y2270207D01*
G01X5944372Y2251121D01*
G01X5938922Y2230779D01*
G01X5937086Y2209800D01*
G01X3994962Y2209800D01*
G01X3981395Y2216126D01*
G01X3960212Y2221802D01*
G01X3938364Y2223714D01*
G01X3916517Y2221802D01*
G01X3895333Y2216126D01*
G01X3875457Y2206858D01*
G01X3857493Y2194279D01*
G01X3841985Y2178772D01*
G01X3829406Y2160807D01*
G01X3820138Y2140931D01*
G01X3814462Y2119747D01*
G01X3812550Y2097900D01*
G01X3812550Y2097900D01*
G01X752009Y2097900D01*
G01X720105Y2129805D01*
G01X710057Y2137514D01*
G01X698356Y2142361D01*
G01X685800Y2144014D01*
G01X490116Y2144014D01*
G01X477274Y2153378D01*
G01X462572Y2159418D01*
G01X446856Y2161785D01*
G01X431027Y2160345D01*
G01X415996Y2155180D01*
G01X402626Y2146587D01*
G01X391684Y2135059D01*
G01X383799Y2121259D01*
G01X379425Y2105978D01*
G01X378813Y2090096D01*
G01X371073Y2097836D01*
G01X368553Y2113752D01*
G01X362268Y2128590D01*
G01X352590Y2141474D01*
G01X340090Y2151644D01*
G01X325507Y2158498D01*
G01X309700Y2161633D01*
G01X293605Y2160862D01*
G01X278170Y2156232D01*
G01X264308Y2148016D01*
G01X252837Y2136699D01*
G01X244434Y2122949D01*
G01X239595Y2107579D01*
G01X238607Y2091495D01*
G01X241527Y2075647D01*
G01X248184Y2060972D01*
G01X258183Y2048336D01*
G01X270935Y2038485D01*
G01X285687Y2032000D01*
G01X272634Y2026491D01*
G01X261050Y2018334D01*
G01X251462Y2007903D01*
G01X244309Y1995674D01*
G01X239917Y1982204D01*
G01X238487Y1968108D01*
G01X240084Y1954031D01*
G01X244634Y1940613D01*
G01X251931Y1928469D01*
G01X261642Y1918152D01*
G01X273322Y1910133D01*
G01X286439Y1904779D01*
G01X273416Y1899475D01*
G01X261805Y1891544D01*
G01X252126Y1881344D01*
G01X244816Y1869333D01*
G01X240203Y1856050D01*
G01X238494Y1842093D01*
G01X239766Y1828089D01*
G01X243962Y1814669D01*
G01X250894Y1802435D01*
G01X260249Y1791937D01*
G01X271607Y1783648D01*
G01X284458Y1777940D01*
G01X270261Y1771726D01*
G01X257893Y1762386D01*
G01X248032Y1750430D01*
G01X241214Y1736512D01*
G01X237813Y1721392D01*
G01X35814Y1721392D01*
G01X35814Y2912392D01*
G01X83486Y2912392D01*
G01X83486Y2650208D01*
G01X85139Y2637652D01*
G01X89986Y2625951D01*
G01X97696Y2615904D01*
G01X238501Y2475098D01*
G01X240494Y2460304D01*
G01X245747Y2446330D01*
G01X253992Y2433885D01*
G01X264811Y2423599D01*
G01X277658Y2415995D01*
G01X291880Y2411457D01*
G01X306756Y2410215D01*
G01X321534Y2412332D01*
G01X335463Y2417701D01*
G01X347839Y2426050D01*
G01X358033Y2436956D01*
G01X365530Y2449865D01*
G01X369949Y2464125D01*
G01X371067Y2479011D01*
G01X375914Y2474164D01*
G01X378228Y2458982D01*
G01X383973Y2444741D01*
G01X392839Y2432202D01*
G01X404351Y2422039D01*
G01X417893Y2414796D01*
G01X432737Y2410863D01*
G01X448088Y2410449D01*
G01X463123Y2413578D01*
G01X477035Y2420080D01*
G01X489078Y2429609D01*
G01X498606Y2441652D01*
G01X505109Y2455564D01*
G01X508238Y2470599D01*
G01X507824Y2485950D01*
G01X503891Y2500794D01*
G01X496648Y2514336D01*
G01X486485Y2525848D01*
G01X473946Y2534714D01*
G01X459704Y2540459D01*
G01X444523Y2542773D01*
G01X368807Y2618489D01*
G01X381183Y2620228D01*
G01X392703Y2625070D01*
G01X402605Y2632695D01*
G01X434807Y2664898D01*
G01X448068Y2664282D01*
G01X461186Y2666320D01*
G01X473635Y2670929D01*
G01X484917Y2677926D01*
G01X494579Y2687030D01*
G01X502234Y2697875D01*
G01X507575Y2710028D01*
G01X510389Y2723002D01*
G01X626095Y2607295D01*
G01X636143Y2599586D01*
G01X647844Y2594739D01*
G01X660400Y2593086D01*
G01X3202226Y2593086D01*
G01X3185198Y2580862D01*
G01X3170538Y2565879D01*
G01X3158690Y2548587D01*
G01X3150008Y2529507D01*
G01X3144756Y2509214D01*
G01X3143089Y2488319D01*
G01X3145060Y2467450D01*
G01X3150608Y2447236D01*
G01X3159567Y2428285D01*
G01X3171667Y2411168D01*
G01X3186543Y2396400D01*
G01X3203748Y2384426D01*
G01X3222763Y2375605D01*
G01X3243017Y2370205D01*
G01X3263900Y2368386D01*
G01X3284783Y2370205D01*
G01X3305037Y2375605D01*
G01X3324052Y2384426D01*
G01X3341257Y2396400D01*
G01X3356133Y2411168D01*
G01X3368233Y2428285D01*
G01X3377192Y2447236D01*
G01X3382740Y2467450D01*
G01X3384711Y2488319D01*
G01X3383044Y2509214D01*
G01X3377792Y2529507D01*
G01X3369110Y2548587D01*
G01X3357262Y2565879D01*
G01X3342602Y2580862D01*
G01X3325574Y2593086D01*
G01X3456226Y2593086D01*
G01X3439198Y2580862D01*
G01X3424538Y2565879D01*
G01X3412690Y2548587D01*
G01X3404008Y2529507D01*
G01X3398756Y2509214D01*
G01X3397089Y2488319D01*
G01X3399060Y2467450D01*
G01X3404608Y2447236D01*
G01X3413567Y2428285D01*
G01X3425667Y2411168D01*
G01X3440543Y2396400D01*
G01X3457748Y2384426D01*
G01X3476763Y2375605D01*
G01X3497017Y2370205D01*
G01X3517900Y2368386D01*
G01X3538783Y2370205D01*
G01X3559037Y2375605D01*
G01X3578052Y2384426D01*
G01X3595257Y2396400D01*
G01X3610133Y2411168D01*
G01X3622233Y2428285D01*
G01X3631192Y2447236D01*
G01X3635738Y2463800D01*
G01X5937086Y2463800D01*
G01X5938922Y2442821D01*
G01X5944372Y2422479D01*
G01X5953272Y2403393D01*
G01X5965351Y2386142D01*
G01X5980242Y2371251D01*
G01X5997493Y2359172D01*
G01X6016579Y2350272D01*
G01X6036921Y2344822D01*
G01X6057900Y2342986D01*
G01X6078879Y2344822D01*
G01X6099221Y2350272D01*
G01X6118307Y2359172D01*
G01X6135558Y2371251D01*
G01X6150449Y2386142D01*
G01X6162528Y2403393D01*
G01X6171428Y2422479D01*
G01X6176878Y2442821D01*
G01X6178714Y2463800D01*
G01X6176878Y2484779D01*
G01X6171428Y2505121D01*
G01X6162528Y2524207D01*
G01X6150449Y2541458D01*
G01X6135558Y2556349D01*
G01X6118307Y2568428D01*
G01X6099221Y2577328D01*
G01X6078879Y2582778D01*
G01X6057900Y2584614D01*
G01X6057900Y2584614D01*
G01X6036921Y2582778D01*
G01X6016579Y2577328D01*
G01X5997493Y2568428D01*
G01X5980242Y2556349D01*
G01X5965351Y2541458D01*
G01X5953272Y2524207D01*
G01X5944372Y2505121D01*
G01X5938922Y2484779D01*
G01X5937086Y2463800D01*
G01X3635738Y2463800D01*
G01X3636740Y2467450D01*
G01X3638711Y2488319D01*
G01X3637044Y2509214D01*
G01X3631792Y2529507D01*
G01X3623110Y2548587D01*
G01X3611262Y2565879D01*
G01X3596602Y2580862D01*
G01X3579574Y2593086D01*
G01X5994400Y2593086D01*
G01X6004412Y2594130D01*
G01X6013994Y2597219D01*
G01X6022732Y2602218D01*
G01X6042526Y2597968D01*
G01X6062751Y2597084D01*
G01X6082841Y2599589D01*
G01X6102230Y2605413D01*
G01X6120374Y2614393D01*
G01X6136764Y2626277D01*
G01X6150940Y2640731D01*
G01X6162502Y2657349D01*
G01X6171128Y2675665D01*
G01X6176574Y2695163D01*
G01X6178688Y2715298D01*
G01X6177410Y2735503D01*
G01X6172776Y2755210D01*
G01X6164916Y2773867D01*
G01X6154051Y2790950D01*
G01X6140487Y2805978D01*
G01X6124603Y2818531D01*
G01X6106846Y2828255D01*
G01X6087715Y2834877D01*
G01X6067746Y2838212D01*
G01X6047501Y2838165D01*
G01X6027548Y2834739D01*
G01X6044537Y2851728D01*
G01X6064711Y2851178D01*
G01X6084694Y2853995D01*
G01X6103930Y2860099D01*
G01X6121882Y2869319D01*
G01X6138049Y2881400D01*
G01X6151978Y2896003D01*
G01X6163283Y2912721D01*
G01X6171647Y2931087D01*
G01X6176837Y2950590D01*
G01X6178709Y2970684D01*
G01X6177209Y2990810D01*
G01X6172380Y3010405D01*
G01X6164357Y3028922D01*
G01X6153363Y3045846D01*
G01X6139705Y3060704D01*
G01X6123764Y3073081D01*
G01X6105986Y3082632D01*
G01X6086866Y3089090D01*
G01X6066938Y3092275D01*
G01X6046757Y3092099D01*
G01X6026888Y3088566D01*
G01X6007883Y3081774D01*
G01X6033570Y3107461D01*
G01X6055330Y3105014D01*
G01X6077175Y3106534D01*
G01X6098386Y3111972D01*
G01X6118267Y3121149D01*
G01X6136165Y3133764D01*
G01X6151492Y3149403D01*
G01X6163745Y3167551D01*
G01X6172520Y3187613D01*
G01X6177530Y3208929D01*
G01X6178610Y3230800D01*
G01X6175725Y3252506D01*
G01X6168969Y3273335D01*
G01X6158565Y3292602D01*
G01X6144854Y3309675D01*
G01X6128286Y3323993D01*
G01X6109406Y3335085D01*
G01X6088834Y3342587D01*
G01X6067245Y3346252D01*
G01X6045350Y3345960D01*
G01X6023867Y3341721D01*
G01X6003502Y3333674D01*
G01X5984924Y3322084D01*
G01X5968744Y3307330D01*
G01X5955492Y3289898D01*
G01X5945604Y3270360D01*
G01X5939405Y3249359D01*
G01X5937099Y3227584D01*
G01X5938762Y3205750D01*
G01X5944338Y3184574D01*
G01X5953644Y3164753D01*
G01X5580605Y2791714D01*
G01X5438423Y2791714D01*
G01X6013967Y3367257D01*
G01X6035049Y3361167D01*
G01X6056886Y3358990D01*
G01X6078756Y3360800D01*
G01X6099938Y3366536D01*
G01X6119733Y3376008D01*
G01X6137487Y3388905D01*
G01X6152616Y3404801D01*
G01X6164620Y3423172D01*
G01X6173103Y3443411D01*
G01X6177785Y3464850D01*
G01X6178512Y3486783D01*
G01X6175259Y3508485D01*
G01X6168134Y3529241D01*
G01X6157372Y3548366D01*
G01X6143328Y3565228D01*
G01X6126466Y3579272D01*
G01X6107341Y3590034D01*
G01X6086585Y3597159D01*
G01X6064883Y3600412D01*
G01X6042950Y3599685D01*
G01X6021511Y3595003D01*
G01X6001272Y3586520D01*
G01X5982901Y3574516D01*
G01X5967005Y3559387D01*
G01X5954108Y3541633D01*
G01X5944636Y3521838D01*
G01X5938900Y3500656D01*
G01X5937090Y3478786D01*
G01X5939267Y3456949D01*
G01X5945357Y3435867D01*
G01X5339305Y2829814D01*
G01X5222523Y2829814D01*
G01X6011955Y3619246D01*
G01X6142900Y3619246D01*
G01X6153967Y3620999D01*
G01X6163951Y3626086D01*
G01X6171874Y3634009D01*
G01X6176961Y3643993D01*
G01X6178714Y3655060D01*
G01X6178714Y3812540D01*
G01X6176961Y3823607D01*
G01X6171874Y3833591D01*
G01X6163951Y3841514D01*
G01X6153967Y3846601D01*
G01X6142900Y3848354D01*
G01X5972900Y3848354D01*
G01X5961833Y3846601D01*
G01X5951849Y3841514D01*
G01X5943926Y3833591D01*
G01X5938839Y3823607D01*
G01X5937086Y3812540D01*
G01X5937086Y3681595D01*
G01X5161505Y2906014D01*
G01X997710Y2906014D01*
G01X986720Y2914303D01*
G01X974255Y2920144D01*
G01X960852Y2923286D01*
G01X1236452Y2923286D01*
G01X1250726Y2917631D01*
G01X1265958Y2915706D01*
G01X1324842Y2915706D01*
G01X1340074Y2917631D01*
G01X1354348Y2923286D01*
G01X4076649Y2923286D01*
G01X4092297Y2918935D01*
G01X4108532Y2918519D01*
G01X4124382Y2922063D01*
G01X4138894Y2929354D01*
G01X4151198Y2939955D01*
G01X4160556Y2953230D01*
G01X4166405Y2968381D01*
G01X4168394Y2984500D01*
G01X4166405Y3000619D01*
G01X4160556Y3015770D01*
G01X4151198Y3029045D01*
G01X4138894Y3039646D01*
G01X4124382Y3046937D01*
G01X4108532Y3050481D01*
G01X4092297Y3050065D01*
G01X4076649Y3045714D01*
G01X1361655Y3045714D01*
G01X1360830Y3058666D01*
G01X1357499Y3071209D01*
G01X1351787Y3082863D01*
G01X1343914Y3093181D01*
G01X1343914Y3554400D01*
G01X4702886Y3554400D01*
G01X4702886Y3354400D01*
G01X4704639Y3343333D01*
G01X4709726Y3333349D01*
G01X4717649Y3325426D01*
G01X4727633Y3320339D01*
G01X4738700Y3318586D01*
G01X4771787Y3318586D01*
G01X4753373Y3306063D01*
G01X4737253Y3290699D01*
G01X4723860Y3272907D01*
G01X4713555Y3253166D01*
G01X4706615Y3232006D01*
G01X4703226Y3209996D01*
G01X4703479Y3187729D01*
G01X4707367Y3165802D01*
G01X4714786Y3144805D01*
G01X4725537Y3125303D01*
G01X4739330Y3107820D01*
G01X4755795Y3092826D01*
G01X4774489Y3080724D01*
G01X4794909Y3071840D01*
G01X4816506Y3066412D01*
G01X4838700Y3064586D01*
G01X4860894Y3066412D01*
G01X4882491Y3071840D01*
G01X4902911Y3080724D01*
G01X4921605Y3092826D01*
G01X4938070Y3107820D01*
G01X4951863Y3125303D01*
G01X4962614Y3144805D01*
G01X4970033Y3165802D01*
G01X4973921Y3187729D01*
G01X4974174Y3209996D01*
G01X4970785Y3232006D01*
G01X4963845Y3253166D01*
G01X4953540Y3272907D01*
G01X4940147Y3290699D01*
G01X4924027Y3306063D01*
G01X4905613Y3318586D01*
G01X4938700Y3318586D01*
G01X4938700Y3318586D01*
G01X4949767Y3320339D01*
G01X4959751Y3325426D01*
G01X4967674Y3333349D01*
G01X4972761Y3343333D01*
G01X4974514Y3354400D01*
G01X4974514Y3554400D01*
G01X4972761Y3565467D01*
G01X4967674Y3575451D01*
G01X4959751Y3583374D01*
G01X4949767Y3588461D01*
G01X4938700Y3590214D01*
G01X4738700Y3590214D01*
G01X4727633Y3588461D01*
G01X4717649Y3583374D01*
G01X4709726Y3575451D01*
G01X4704639Y3565467D01*
G01X4702886Y3554400D01*
G01X1343914Y3554400D01*
G01X1343914Y4170905D01*
G01X1564436Y4391427D01*
G01X1578164Y4393361D01*
G01X1591190Y4398107D01*
G01X1602944Y4405457D01*
G01X1612913Y4415090D01*
G01X1624533Y4404213D01*
G01X1638412Y4396419D01*
G01X2090315Y3944515D01*
G01X2099591Y3936902D01*
G01X2110174Y3931246D01*
G01X2121658Y3927762D01*
G01X2133600Y3926586D01*
G01X5168900Y3926586D01*
G01X5180842Y3927762D01*
G01X5192326Y3931246D01*
G01X5202909Y3936902D01*
G01X5212185Y3944515D01*
G01X5456034Y4188365D01*
G01X5475256Y4185001D01*
G01X5494768Y4184776D01*
G01X5514061Y4187695D01*
G01X5532633Y4193683D01*
G01X5549999Y4202582D01*
G01X5565706Y4214160D01*
G01X5579344Y4228116D01*
G01X5590558Y4244086D01*
G01X5867444Y4244086D01*
G01X6250686Y3860844D01*
G01X6250686Y1981156D01*
G01X6158638Y1889107D01*
G01X6168614Y1907443D01*
G01X6175286Y1927223D01*
G01X6178452Y1947856D01*
G01X6178020Y1968727D01*
G01X6174002Y1989211D01*
G01X6166518Y2008698D01*
G01X6155791Y2026605D01*
G01X6142141Y2042399D01*
G01X6125977Y2055608D01*
G01X6107780Y2065836D01*
G01X6088094Y2072780D01*
G01X6067507Y2076231D01*
G01X6046632Y2076087D01*
G01X6026095Y2072352D01*
G01X6006506Y2065137D01*
G01X5988452Y2054659D01*
G01X5972472Y2041228D01*
G01X5959041Y2025248D01*
G01X5948563Y2007194D01*
G01X5941348Y1987605D01*
G01X5937613Y1967068D01*
G01X5937469Y1946193D01*
G01X5940920Y1925606D01*
G01X5947864Y1905920D01*
G01X5958092Y1887723D01*
G01X5971301Y1871559D01*
G01X5987095Y1857909D01*
G01X6005002Y1847182D01*
G01X6024489Y1839698D01*
G01X6044973Y1835680D01*
G01X6065844Y1835248D01*
G01X6086477Y1838414D01*
G01X6106257Y1845086D01*
G01X6124593Y1855062D01*
G01X6088266Y1818735D01*
G01X6073206Y1821640D01*
G01X6057900Y1822614D01*
G01X6042594Y1821640D01*
G01X6027534Y1818735D01*
G01X5999585Y1846685D01*
G01X5990309Y1854298D01*
G01X5979726Y1859954D01*
G01X5968242Y1863438D01*
G01X5956300Y1864614D01*
G01X3810000Y1864614D01*
G01X3798058Y1863438D01*
G01X3786574Y1859954D01*
G01X3775991Y1854298D01*
G01X3766715Y1846685D01*
G01X3614058Y1694027D01*
G01X3210082Y1694027D01*
G01X3197701Y1712285D01*
G01X3182321Y1728099D01*
G01X3164415Y1740984D01*
G01X3144533Y1750544D01*
G01X3123288Y1756484D01*
G01X3101332Y1758622D01*
G01X3079340Y1756892D01*
G01X3057988Y1751347D01*
G01X3037933Y1742158D01*
G01X3019791Y1729608D01*
G01X3004120Y1714082D01*
G01X2991401Y1696057D01*
G01X2982027Y1676088D01*
G01X2976284Y1654788D01*
G01X2974350Y1632813D01*
G01X2976284Y1610838D01*
G01X2982027Y1589539D01*
G01X2991401Y1569570D01*
G01X3004120Y1551545D01*
G01X3019791Y1536019D01*
G01X3037933Y1523468D01*
G01X3057988Y1514279D01*
G01X3079340Y1508735D01*
G01X3101332Y1507005D01*
G01X3123288Y1509143D01*
G01X3144533Y1515083D01*
G01X3164415Y1524642D01*
G01X3182321Y1537527D01*
G01X3197701Y1553342D01*
G01X3210082Y1571599D01*
G01X3639413Y1571599D01*
G01X3651356Y1572776D01*
G01X3662839Y1576259D01*
G01X3673422Y1581916D01*
G01X3682698Y1589528D01*
G01X3835356Y1742186D01*
G01X5930944Y1742186D01*
G01X5940965Y1732166D01*
G01X5937396Y1710441D01*
G01X5937828Y1688429D01*
G01X5942249Y1666861D01*
G01X5950510Y1646453D01*
G01X5962337Y1627883D01*
G01X5977338Y1611768D01*
G01X5995014Y1598643D01*
G01X6014779Y1588944D01*
G01X6035975Y1582992D01*
G01X6057900Y1580986D01*
G01X6079825Y1582992D01*
G01X6101021Y1588944D01*
G01X6120786Y1598643D01*
G01X6138462Y1611768D01*
G01X6153463Y1627883D01*
G01X6165290Y1646453D01*
G01X6173551Y1666861D01*
G01X6177972Y1688429D01*
G01X6178404Y1710441D01*
G01X6174835Y1732166D01*
G01X6355185Y1912515D01*
G01X6362798Y1921791D01*
G01X6368454Y1932374D01*
G01X6371938Y1943858D01*
G01X6373114Y1955800D01*
G01X6373114Y3886200D01*
G01X6373114Y3886200D01*
G01X6371938Y3898142D01*
G01X6368454Y3909626D01*
G01X6362798Y3920209D01*
G01X6355185Y3929485D01*
G01X5936085Y4348585D01*
G01X5926809Y4356198D01*
G01X5916226Y4361854D01*
G01X5904742Y4365338D01*
G01X5892800Y4366514D01*
G01X5590558Y4366514D01*
G01X5577993Y4384083D01*
G01X5562501Y4399133D01*
G01X5544576Y4411185D01*
G01X5524792Y4419852D01*
G01X5503781Y4424857D01*
G01X5482214Y4426041D01*
G01X5460781Y4423366D01*
G01X5440167Y4416917D01*
G01X5421030Y4406901D01*
G01X5403983Y4393637D01*
G01X5389570Y4377550D01*
G01X5378253Y4359153D01*
G01X5370392Y4339035D01*
G01X5366239Y4317839D01*
G01X5365926Y4296242D01*
G01X5369465Y4274934D01*
G01X5333138Y4238607D01*
G01X5343114Y4256943D01*
G01X5349786Y4276723D01*
G01X5352952Y4297356D01*
G01X5352520Y4318227D01*
G01X5348502Y4338711D01*
G01X5341018Y4358198D01*
G01X5330291Y4376105D01*
G01X5316641Y4391899D01*
G01X5300477Y4405108D01*
G01X5282280Y4415336D01*
G01X5262594Y4422280D01*
G01X5242007Y4425731D01*
G01X5221132Y4425587D01*
G01X5200595Y4421852D01*
G01X5181006Y4414637D01*
G01X5162952Y4404159D01*
G01X5146972Y4390728D01*
G01X5133541Y4374748D01*
G01X5123063Y4356694D01*
G01X5115848Y4337105D01*
G01X5112113Y4316568D01*
G01X5111969Y4295693D01*
G01X5115420Y4275106D01*
G01X5122364Y4255420D01*
G01X5132592Y4237223D01*
G01X5145801Y4221059D01*
G01X5161595Y4207409D01*
G01X5179502Y4196682D01*
G01X5198989Y4189198D01*
G01X5219473Y4185180D01*
G01X5240344Y4184748D01*
G01X5260977Y4187914D01*
G01X5280757Y4194586D01*
G01X5299093Y4204562D01*
G01X5143544Y4049014D01*
G01X2158956Y4049014D01*
G01X1902670Y4305300D01*
G01X3841586Y4305300D01*
G01X3843422Y4284321D01*
G01X3848872Y4263979D01*
G01X3857772Y4244893D01*
G01X3869851Y4227642D01*
G01X3884742Y4212751D01*
G01X3901993Y4200672D01*
G01X3921079Y4191772D01*
G01X3941421Y4186322D01*
G01X3962400Y4184486D01*
G01X3983379Y4186322D01*
G01X4003721Y4191772D01*
G01X4022807Y4200672D01*
G01X4040058Y4212751D01*
G01X4054949Y4227642D01*
G01X4067028Y4244893D01*
G01X4075928Y4263979D01*
G01X4081378Y4284321D01*
G01X4083214Y4305300D01*
G01X4083214Y4305300D01*
G01X4095586Y4305300D01*
G01X4097422Y4284321D01*
G01X4102872Y4263979D01*
G01X4111772Y4244893D01*
G01X4123851Y4227642D01*
G01X4138742Y4212751D01*
G01X4155993Y4200672D01*
G01X4175079Y4191772D01*
G01X4195421Y4186322D01*
G01X4216400Y4184486D01*
G01X4237379Y4186322D01*
G01X4257721Y4191772D01*
G01X4276807Y4200672D01*
G01X4294058Y4212751D01*
G01X4308949Y4227642D01*
G01X4321028Y4244893D01*
G01X4329928Y4263979D01*
G01X4335378Y4284321D01*
G01X4337214Y4305300D01*
G01X4337214Y4305300D01*
G01X4349586Y4305300D01*
G01X4351422Y4284321D01*
G01X4356872Y4263979D01*
G01X4365772Y4244893D01*
G01X4377851Y4227642D01*
G01X4392742Y4212751D01*
G01X4409993Y4200672D01*
G01X4429079Y4191772D01*
G01X4449421Y4186322D01*
G01X4470400Y4184486D01*
G01X4491379Y4186322D01*
G01X4511721Y4191772D01*
G01X4530807Y4200672D01*
G01X4548058Y4212751D01*
G01X4562949Y4227642D01*
G01X4575028Y4244893D01*
G01X4583928Y4263979D01*
G01X4589378Y4284321D01*
G01X4591214Y4305300D01*
G01X4591214Y4305300D01*
G01X4603586Y4305300D01*
G01X4605422Y4284321D01*
G01X4610872Y4263979D01*
G01X4619772Y4244893D01*
G01X4631851Y4227642D01*
G01X4646742Y4212751D01*
G01X4663993Y4200672D01*
G01X4683079Y4191772D01*
G01X4703421Y4186322D01*
G01X4724400Y4184486D01*
G01X4745379Y4186322D01*
G01X4765721Y4191772D01*
G01X4784807Y4200672D01*
G01X4802058Y4212751D01*
G01X4816949Y4227642D01*
G01X4829028Y4244893D01*
G01X4837928Y4263979D01*
G01X4843378Y4284321D01*
G01X4845214Y4305300D01*
G01X4845214Y4305300D01*
G01X4857586Y4305300D01*
G01X4859422Y4284321D01*
G01X4864872Y4263979D01*
G01X4873772Y4244893D01*
G01X4885851Y4227642D01*
G01X4900742Y4212751D01*
G01X4917993Y4200672D01*
G01X4937079Y4191772D01*
G01X4957421Y4186322D01*
G01X4978400Y4184486D01*
G01X4999379Y4186322D01*
G01X5019721Y4191772D01*
G01X5038807Y4200672D01*
G01X5056058Y4212751D01*
G01X5070949Y4227642D01*
G01X5083028Y4244893D01*
G01X5091928Y4263979D01*
G01X5097378Y4284321D01*
G01X5099214Y4305300D01*
G01X5099214Y4305300D01*
G01X5097378Y4326279D01*
G01X5091928Y4346621D01*
G01X5083028Y4365707D01*
G01X5070949Y4382958D01*
G01X5056058Y4397849D01*
G01X5038807Y4409928D01*
G01X5019721Y4418828D01*
G01X4999379Y4424278D01*
G01X4978400Y4426114D01*
G01X4957421Y4424278D01*
G01X4937079Y4418828D01*
G01X4917993Y4409928D01*
G01X4900742Y4397849D01*
G01X4885851Y4382958D01*
G01X4873772Y4365707D01*
G01X4864872Y4346621D01*
G01X4859422Y4326279D01*
G01X4857586Y4305300D01*
G01X4845214Y4305300D01*
G01X4843378Y4326279D01*
G01X4837928Y4346621D01*
G01X4829028Y4365707D01*
G01X4816949Y4382958D01*
G01X4802058Y4397849D01*
G01X4784807Y4409928D01*
G01X4765721Y4418828D01*
G01X4745379Y4424278D01*
G01X4724400Y4426114D01*
G01X4703421Y4424278D01*
G01X4683079Y4418828D01*
G01X4663993Y4409928D01*
G01X4646742Y4397849D01*
G01X4631851Y4382958D01*
G01X4619772Y4365707D01*
G01X4610872Y4346621D01*
G01X4605422Y4326279D01*
G01X4603586Y4305300D01*
G01X4591214Y4305300D01*
G01X4589378Y4326279D01*
G01X4583928Y4346621D01*
G01X4575028Y4365707D01*
G01X4562949Y4382958D01*
G01X4548058Y4397849D01*
G01X4530807Y4409928D01*
G01X4511721Y4418828D01*
G01X4491379Y4424278D01*
G01X4470400Y4426114D01*
G01X4449421Y4424278D01*
G01X4429079Y4418828D01*
G01X4409993Y4409928D01*
G01X4392742Y4397849D01*
G01X4377851Y4382958D01*
G01X4365772Y4365707D01*
G01X4356872Y4346621D01*
G01X4351422Y4326279D01*
G01X4349586Y4305300D01*
G01X4337214Y4305300D01*
G01X4335378Y4326279D01*
G01X4329928Y4346621D01*
G01X4321028Y4365707D01*
G01X4308949Y4382958D01*
G01X4294058Y4397849D01*
G01X4276807Y4409928D01*
G01X4257721Y4418828D01*
G01X4237379Y4424278D01*
G01X4216400Y4426114D01*
G01X4195421Y4424278D01*
G01X4175079Y4418828D01*
G01X4155993Y4409928D01*
G01X4138742Y4397849D01*
G01X4123851Y4382958D01*
G01X4111772Y4365707D01*
G01X4102872Y4346621D01*
G01X4097422Y4326279D01*
G01X4095586Y4305300D01*
G01X4083214Y4305300D01*
G01X4081378Y4326279D01*
G01X4075928Y4346621D01*
G01X4067028Y4365707D01*
G01X4054949Y4382958D01*
G01X4040058Y4397849D01*
G01X4022807Y4409928D01*
G01X4003721Y4418828D01*
G01X3983379Y4424278D01*
G01X3962400Y4426114D01*
G01X3941421Y4424278D01*
G01X3921079Y4418828D01*
G01X3901993Y4409928D01*
G01X3884742Y4397849D01*
G01X3869851Y4382958D01*
G01X3857772Y4365707D01*
G01X3848872Y4346621D01*
G01X3843422Y4326279D01*
G01X3841586Y4305300D01*
G01X1902670Y4305300D01*
G01X1724981Y4482988D01*
G01X1719491Y4493508D01*
G01X1712214Y4502881D01*
G01X1712214Y4503961D01*
G01X1722713Y4506257D01*
G01X1732058Y4511565D01*
G01X1739407Y4519406D01*
G01X1744099Y4529075D01*
G01X1745712Y4539700D01*
G01X1745712Y4629700D01*
G01X1743959Y4640767D01*
G01X1738872Y4650751D01*
G01X1730948Y4658674D01*
G01X1720965Y4663761D01*
G01X1709898Y4665514D01*
G01X1629898Y4665514D01*
G01X1620164Y4664166D01*
G01X1611163Y4660223D01*
G01X1603573Y4653983D01*
G01X1597964Y4645914D01*
G01X844702Y4645914D01*
G01X832760Y4644738D01*
G01X821277Y4641254D01*
G01X810694Y4635598D01*
G01X801418Y4627985D01*
G01X711947Y4538514D01*
G01X677702Y4538514D01*
G01X666635Y4536761D01*
G01X656652Y4531674D01*
G01X648728Y4523751D01*
G01X643641Y4513767D01*
G01X641888Y4502700D01*
G01X641888Y4412700D01*
G01X643536Y4401963D01*
G01X648327Y4392213D01*
G01X634793Y4384831D01*
G01X623330Y4374523D01*
G01X614556Y4361847D01*
G01X608946Y4347488D01*
G01X606803Y4332222D01*
G01X608244Y4316873D01*
G01X613189Y4302271D01*
G01X621372Y4289206D01*
G01X621372Y4278681D01*
G01X604807Y4278681D01*
G01X598513Y4278123D01*
G01X592416Y4276469D01*
G01X586318Y4278123D01*
G01X580024Y4278681D01*
G01X555023Y4278681D01*
G01X548655Y4278110D01*
G01X542489Y4276416D01*
G01X536324Y4278110D01*
G01X529956Y4278681D01*
G01X504955Y4278681D01*
G01X493887Y4276928D01*
G01X483904Y4271841D01*
G01X475980Y4263918D01*
G01X470893Y4253934D01*
G01X469141Y4242867D01*
G01X469141Y4170691D01*
G01X397968Y4170691D01*
G01X386901Y4168939D01*
G01X376918Y4163852D01*
G01X368994Y4155928D01*
G01X363907Y4145945D01*
G01X362154Y4134877D01*
G01X362154Y4109876D01*
G01X363907Y4098809D01*
G01X368994Y4088825D01*
G01X376918Y4080902D01*
G01X386901Y4075815D01*
G01X397968Y4074062D01*
G01X482967Y4074062D01*
G01X494034Y4075815D01*
G01X504018Y4080902D01*
G01X511941Y4088825D01*
G01X517028Y4098809D01*
G01X518781Y4109876D01*
G01X518781Y4122054D01*
G01X529956Y4122054D01*
G01X536324Y4122625D01*
G01X542489Y4124319D01*
G01X548655Y4122625D01*
G01X555023Y4122054D01*
G01X580024Y4122054D01*
G01X586318Y4122612D01*
G01X592416Y4124266D01*
G01X598513Y4122612D01*
G01X604807Y4122054D01*
G01X629808Y4122054D01*
G01X636169Y4122624D01*
G01X642327Y4124313D01*
G01X648485Y4122624D01*
G01X654845Y4122054D01*
G01X679846Y4122054D01*
G01X686207Y4122624D01*
G01X692365Y4124313D01*
G01X698523Y4122624D01*
G01X704883Y4122054D01*
G01X729884Y4122054D01*
G01X736245Y4122624D01*
G01X742403Y4124313D01*
G01X748561Y4122624D01*
G01X754921Y4122054D01*
G01X767152Y4122054D01*
G01X767152Y4109876D01*
G01X767722Y4103516D01*
G01X769411Y4097358D01*
G01X767722Y4091200D01*
G01X767152Y4084839D01*
G01X767152Y4059838D01*
G01X767722Y4053478D01*
G01X769411Y4047320D01*
G01X767722Y4041162D01*
G01X767152Y4034801D01*
G01X767152Y4009800D01*
G01X767722Y4003440D01*
G01X769411Y3997282D01*
G01X767722Y3991124D01*
G01X767152Y3984763D01*
G01X767152Y3959762D01*
G01X767722Y3953402D01*
G01X769411Y3947244D01*
G01X767722Y3941086D01*
G01X767152Y3934725D01*
G01X767152Y3909724D01*
G01X767708Y3903441D01*
G01X769357Y3897353D01*
G01X767708Y3891265D01*
G01X767152Y3884982D01*
G01X767152Y3873683D01*
G01X754952Y3873683D01*
G01X743884Y3871930D01*
G01X733901Y3866843D01*
G01X725977Y3858920D01*
G01X720890Y3848936D01*
G01X719138Y3837869D01*
G01X719138Y3799764D01*
G01X718938Y3795370D01*
G01X718938Y3403747D01*
G01X715861Y3400670D01*
G01X715860Y3795370D01*
G01X715660Y3799764D01*
G01X715660Y3837869D01*
G01X713907Y3848936D01*
G01X708820Y3858920D01*
G01X700897Y3866843D01*
G01X690913Y3871930D01*
G01X679846Y3873683D01*
G01X654845Y3873683D01*
G01X648485Y3873114D01*
G01X642327Y3871424D01*
G01X636169Y3873114D01*
G01X629808Y3873683D01*
G01X604807Y3873683D01*
G01X598513Y3873126D01*
G01X592416Y3871471D01*
G01X586318Y3873126D01*
G01X580024Y3873683D01*
G01X555023Y3873683D01*
G01X548663Y3873114D01*
G01X542505Y3871424D01*
G01X536347Y3873114D01*
G01X529986Y3873683D01*
G01X518781Y3873683D01*
G01X518781Y3884982D01*
G01X518226Y3891265D01*
G01X516577Y3897353D01*
G01X518226Y3903441D01*
G01X518781Y3909724D01*
G01X518781Y3934725D01*
G01X518212Y3941086D01*
G01X516522Y3947244D01*
G01X518212Y3953402D01*
G01X518781Y3959762D01*
G01X518781Y3984763D01*
G01X518212Y3991124D01*
G01X516522Y3997282D01*
G01X518212Y4003440D01*
G01X518781Y4009800D01*
G01X518781Y4034801D01*
G01X517028Y4045869D01*
G01X511941Y4055852D01*
G01X504018Y4063776D01*
G01X494034Y4068863D01*
G01X482967Y4070615D01*
G01X397968Y4070615D01*
G01X386901Y4068863D01*
G01X376918Y4063776D01*
G01X368994Y4055852D01*
G01X363907Y4045869D01*
G01X362154Y4034801D01*
G01X362154Y4022750D01*
G01X319365Y4022750D01*
G01X314734Y4033758D01*
G01X306741Y4042631D01*
G01X296275Y4048383D01*
G01X284500Y4050374D01*
G01X198100Y4050374D01*
G01X187033Y4048621D01*
G01X177049Y4043534D01*
G01X169126Y4035611D01*
G01X164039Y4025627D01*
G01X162286Y4014560D01*
G01X162286Y3933913D01*
G01X163600Y3924299D01*
G01X167447Y3915391D01*
G01X173544Y3907842D01*
G01X181444Y3902207D01*
G01X190566Y3898900D01*
G01X181444Y3895593D01*
G01X173544Y3889958D01*
G01X167447Y3882409D01*
G01X163600Y3873501D01*
G01X162286Y3863887D01*
G01X162286Y3783240D01*
G01X163724Y3773192D01*
G01X167924Y3763951D01*
G01X174547Y3756260D01*
G01X183063Y3750735D01*
G01X192786Y3747822D01*
G01X192786Y3041787D01*
G01X97696Y2946696D01*
G01X89986Y2936649D01*
G01X85139Y2924948D01*
G01X83486Y2912392D01*
G01X35814Y2912392D01*
G01X35814Y5164186D01*
G01X6464300Y5164186D01*
G37*
G36*
G01X305242Y3754043D02*
G01X316628Y3745915D01*
G01X329465Y3740356D01*
G01X343184Y3737614D01*
G01X357172Y3737811D01*
G01X370808Y3740938D01*
G01X383484Y3746856D01*
G01X469680Y3746856D01*
G01X472064Y3738769D01*
G01X476273Y3731464D01*
G01X482073Y3725345D01*
G01X472301Y3722466D01*
G01X463734Y3716953D01*
G01X457067Y3709251D01*
G01X452837Y3699983D01*
G01X451388Y3689900D01*
G01X451388Y3599900D01*
G01X453121Y3588897D01*
G01X458149Y3578958D01*
G01X465988Y3571045D01*
G01X465988Y3486258D01*
G01X431912Y3452181D01*
G01X417770Y3444194D01*
G01X405996Y3433007D01*
G01X397294Y3419294D01*
G01X392188Y3403876D01*
G01X390984Y3387680D01*
G01X393754Y3371677D01*
G01X400332Y3356827D01*
G01X410323Y3344023D01*
G01X423127Y3334032D01*
G01X437977Y3327454D01*
G01X453980Y3324684D01*
G01X470176Y3325888D01*
G01X485594Y3330994D01*
G01X499307Y3339696D01*
G01X510494Y3351470D01*
G01X518481Y3365612D01*
G01X568794Y3415924D01*
G01X568794Y3367903D01*
G01X407882Y3206991D01*
G01X404169Y3202824D01*
G01X289814Y3088469D01*
G01X289814Y3747822D01*
G01X297894Y3750025D01*
G01X305242Y3754043D01*
G37*
G36*
G01X815966Y3795370D02*
G01X815767Y3799764D01*
G01X815767Y3824167D01*
G01X841072Y3824167D01*
G01X849860Y3824167D01*
G01X887965Y3824167D01*
G01X895581Y3824986D01*
G01X907005Y3824986D01*
G01X944459Y3787532D01*
G01X954507Y3779822D01*
G01X966207Y3774975D01*
G01X978764Y3773322D01*
G01X1039535Y3773322D01*
G01X1044166Y3762315D01*
G01X1052159Y3753442D01*
G01X1062625Y3747690D01*
G01X1074400Y3745699D01*
G01X1160800Y3745699D01*
G01X1171867Y3747451D01*
G01X1181851Y3752538D01*
G01X1189774Y3760462D01*
G01X1194861Y3770445D01*
G01X1196614Y3781513D01*
G01X1196614Y3862160D01*
G01X1194861Y3873227D01*
G01X1189774Y3883211D01*
G01X1181851Y3891134D01*
G01X1171867Y3896221D01*
G01X1160800Y3897974D01*
G01X1074400Y3897974D01*
G01X1062625Y3895983D01*
G01X1052159Y3890231D01*
G01X1044166Y3881358D01*
G01X1039535Y3870350D01*
G01X1016462Y3870350D01*
G01X1027984Y3880836D01*
G01X1036743Y3893721D01*
G01X1042253Y3908293D01*
G01X1044212Y3923749D01*
G01X1155403Y3923749D01*
G01X1167959Y3925402D01*
G01X1179660Y3930248D01*
G01X1189707Y3937958D01*
G01X1193596Y3941847D01*
G01X1209281Y3944302D01*
G01X1223932Y3950413D01*
G01X1236712Y3959832D01*
G01X1246886Y3972019D01*
G01X1246886Y3093181D01*
G01X1239013Y3082863D01*
G01X1233301Y3071209D01*
G01X1229970Y3058666D01*
G01X1229145Y3045714D01*
G01X498123Y3045714D01*
G01X801757Y3349348D01*
G01X809466Y3359395D01*
G01X814313Y3371096D01*
G01X815966Y3383652D01*
G01X815966Y3795370D01*
G37*
G54D10*
G01X327660Y327660D02*
G01X327660Y561340D01*
G01X1691640Y561340D01*
G01X1691640Y327660D01*
G01X327660Y327660D01*
G01X6464300Y5164186D02*
G01X6464300Y-98186D01*
G01X35814Y-98186D01*
G01X35814Y5164186D01*
G01X6464300Y5164186D01*
G01X6373114Y3886200D02*
G03X6355185Y3929485I-61214J0D01*
G01X5936085Y4348585D01*
G03X5892800Y4366514I-43285J-43285D01*
G01X5590558Y4366514D01*
G03X5440167Y4416917I-104158J-61214D01*
G03X5369465Y4274934I46233J-111617D01*
G01X5333138Y4238607D01*
G03X5146972Y4390728I-100738J66693D01*
G03X5299093Y4204562I85428J-85428D01*
G01X5143544Y4049014D01*
G01X2158956Y4049014D01*
G01X1724981Y4482988D01*
G03X1712214Y4502881I-61281J-25288D01*
G01X1712214Y4503961D01*
G03X1745712Y4539700I-2316J35739D01*
G01X1745712Y4629700D01*
G03X1709898Y4665514I-35814J0D01*
G01X1629898Y4665514D01*
G03X1597964Y4645914I0J-35814D01*
G01X844702Y4645914D01*
G03X801418Y4627985I0J-61214D01*
G01X711947Y4538514D01*
G01X677702Y4538514D01*
G03X641888Y4502700I0J-35814D01*
G01X641888Y4412700D01*
G03X648327Y4392213I35814J0D01*
G03X608946Y4347488I24773J-61513D01*
G03X621372Y4289206I64154J-16788D01*
G01X621372Y4278681D01*
G01X604807Y4278681D01*
G03X592416Y4276469I0J-35814D01*
G03X580024Y4278681I-12391J-33602D01*
G01X555023Y4278681D01*
G03X542489Y4276416I0J-35814D01*
G03X529956Y4278681I-12534J-33549D01*
G01X504955Y4278681D01*
G03X469141Y4242867I0J-35814D01*
G01X469141Y4170691D01*
G01X397968Y4170691D01*
G03X362154Y4134877I0J-35814D01*
G01X362154Y4109876D01*
G03X397968Y4074062I35814J0D01*
G01X482967Y4074062D01*
G03X518781Y4109876I0J35814D01*
G01X518781Y4122054D01*
G01X529956Y4122054D01*
G03X542489Y4124319I0J35814D01*
G03X555023Y4122054I12534J33549D01*
G01X580024Y4122054D01*
G03X592416Y4124266I0J35814D01*
G03X604807Y4122054I12391J33602D01*
G01X629808Y4122054D01*
G03X642327Y4124313I0J35814D01*
G03X654845Y4122054I12518J33555D01*
G01X679846Y4122054D01*
G03X692365Y4124313I0J35814D01*
G03X704883Y4122054I12518J33555D01*
G01X729884Y4122054D01*
G03X742403Y4124313I0J35814D01*
G03X754921Y4122054I12518J33555D01*
G01X767152Y4122054D01*
G01X767152Y4109876D01*
G03X769411Y4097358I35814J0D01*
G03X767152Y4084839I33555J-12518D01*
G01X767152Y4059838D01*
G03X769411Y4047320I35814J0D01*
G03X767152Y4034801I33555J-12518D01*
G01X767152Y4009800D01*
G03X769411Y3997282I35814J0D01*
G03X767152Y3984763I33555J-12518D01*
G01X767152Y3959762D01*
G03X769411Y3947244I35814J0D01*
G03X767152Y3934725I33555J-12518D01*
G01X767152Y3909724D01*
G03X769357Y3897353I35814J0D01*
G03X767152Y3884982I33610J-12371D01*
G01X767152Y3873683D01*
G01X754952Y3873683D01*
G03X719138Y3837869I0J-35814D01*
G01X719138Y3799764D01*
G03X718938Y3795370I48315J-4394D01*
G01X718938Y3403747D01*
G01X715861Y3400670D01*
G01X715860Y3795370D01*
G03X715660Y3799764I-48514J-0D01*
G01X715660Y3837869D01*
G03X679846Y3873683I-35814J0D01*
G01X654845Y3873683D01*
G03X642327Y3871424I0J-35814D01*
G03X629808Y3873683I-12518J-33555D01*
G01X604807Y3873683D01*
G03X592416Y3871471I0J-35814D01*
G03X580024Y3873683I-12391J-33602D01*
G01X555023Y3873683D01*
G03X542505Y3871424I0J-35814D01*
G03X529986Y3873683I-12518J-33555D01*
G01X518781Y3873683D01*
G01X518781Y3884982D01*
G03X516577Y3897353I-35814J0D01*
G03X518781Y3909724I-33610J12371D01*
G01X518781Y3934725D01*
G03X516522Y3947244I-35814J0D01*
G03X518781Y3959762I-33555J12518D01*
G01X518781Y3984763D01*
G03X516522Y3997282I-35814J0D01*
G03X518781Y4009800I-33555J12518D01*
G01X518781Y4034801D01*
G03X482967Y4070615I-35814J0D01*
G01X397968Y4070615D01*
G03X362154Y4034801I0J-35814D01*
G01X362154Y4022750D01*
G01X319365Y4022750D01*
G03X284500Y4050374I-34865J-8190D01*
G01X198100Y4050374D01*
G03X162286Y4014560I0J-35814D01*
G01X162286Y3933913D01*
G03X190566Y3898900I35814J0D01*
G03X162286Y3863887I7534J-35013D01*
G01X162286Y3783240D01*
G03X192786Y3747822I35814J0D01*
G01X192786Y3041787D01*
G01X97696Y2946696D01*
G03X83486Y2912392I34305J-34305D01*
G01X83486Y2650208D01*
G03X97696Y2615904I48514J0D01*
G01X238501Y2475098D01*
G03X306756Y2410215I66299J1402D01*
G03X371067Y2479011I-1956J66285D01*
G01X375914Y2474164D01*
G03X489078Y2429609I66273J2336D01*
G03X444523Y2542773I-46891J46891D01*
G01X368807Y2618489D01*
G03X402605Y2632695I-507J48511D01*
G01X434807Y2664898D01*
G03X484917Y2677926I9693J65602D01*
G03X510389Y2723002I-40417J52574D01*
G01X626095Y2607295D01*
G03X660400Y2593086I34305J34305D01*
G01X3202226Y2593086D01*
G03X3263900Y2368386I61674J-103886D01*
G03X3325574Y2593086I0J120814D01*
G01X3456226Y2593086D01*
G03X3517900Y2368386I61674J-103886D01*
G03X3579574Y2593086I0J120814D01*
G01X5994400Y2593086D01*
G03X6022732Y2602218I0J48514D01*
G03X6178688Y2715298I35168J115582D01*
G03X6027548Y2834739I-120788J2502D01*
G01X6044537Y2851728D01*
G03X6177209Y2990810I13363J120072D01*
G03X6007883Y3081774I-119309J-19010D01*
G01X6033570Y3107461D01*
G03X6128286Y3323993I24330J118339D01*
G03X5953644Y3164753I-70386J-98193D01*
G01X5580605Y2791714D01*
G01X5438423Y2791714D01*
G01X6013967Y3367257D01*
G03X6143328Y3565228I43933J112543D01*
G03X5945357Y3435867I-85428J-85428D01*
G01X5339305Y2829814D01*
G01X5222523Y2829814D01*
G01X6011955Y3619246D01*
G01X6142900Y3619246D01*
G03X6178714Y3655060I0J35814D01*
G01X6178714Y3812540D01*
G03X6142900Y3848354I-35814J0D01*
G01X5972900Y3848354D01*
G03X5937086Y3812540I0J-35814D01*
G01X5937086Y3681595D01*
G01X5161505Y2906014D01*
G01X997710Y2906014D01*
G03X960852Y2923286I-45210J-48514D01*
G01X1236452Y2923286D01*
G03X1265958Y2915706I29505J53634D01*
G01X1324842Y2915706D01*
G03X1354348Y2923286I0J61214D01*
G01X4076649Y2923286D01*
G03X4168394Y2984500I25451J61214D01*
G03X4076649Y3045714I-66294J0D01*
G01X1361655Y3045714D01*
G03X1343914Y3093181I-66255J2286D01*
G01X1343914Y4170905D01*
G01X1564436Y4391427D01*
G03X1612913Y4415090I-2336J66273D01*
G03X1638412Y4396419I50787J42610D01*
G01X2090315Y3944515D01*
G03X2133600Y3926586I43285J43285D01*
G01X5168900Y3926586D01*
G03X5212185Y3944515I0J61214D01*
G01X5456034Y4188365D01*
G03X5590558Y4244086I30366J116935D01*
G01X5867444Y4244086D01*
G01X6250686Y3860844D01*
G01X6250686Y1981156D01*
G01X6158638Y1889107D01*
G03X5972472Y2041228I-100738J66693D01*
G03X6124593Y1855062I85428J-85428D01*
G01X6088266Y1818735D01*
G03X6057900Y1822614I-30366J-116935D01*
G03X6027534Y1818735I0J-120814D01*
G01X5999585Y1846685D01*
G03X5956300Y1864614I-43285J-43285D01*
G01X3810000Y1864614D01*
G03X3766715Y1846685I0J-61214D01*
G01X3614058Y1694027D01*
G01X3210082Y1694027D01*
G03X2974350Y1632813I-109918J-61214D01*
G03X3210082Y1571599I125814J0D01*
G01X3639413Y1571599D01*
G03X3682698Y1589528I0J61214D01*
G01X3835356Y1742186D01*
G01X5930944Y1742186D01*
G01X5940965Y1732166D01*
G03X6057900Y1580986I116935J-30366D01*
G03X6174835Y1732166I0J120814D01*
G01X6355185Y1912515D01*
G03X6373114Y1955800I-43285J43285D01*
G01X6373114Y3886200D01*
G01X3053305Y611886D02*
G01X3189457Y475733D01*
G03X3225698Y338131I112543J-43933D01*
G03X3367786Y330468I76302J93669D01*
G01X3367786Y312195D01*
G01X3345933Y290343D01*
G03X3203527Y247793I-43933J-112543D01*
G03X3210153Y99314I98473J-69993D01*
G01X2914814Y99314D01*
G01X2914814Y262800D01*
G03X2879000Y298614I-35814J0D01*
G01X2855214Y298614D01*
G01X2855214Y327642D01*
G03X2794000Y552614I-61214J104158D01*
G03X2732786Y327642I0J-120814D01*
G01X2732786Y298614D01*
G01X2709000Y298614D01*
G03X2673186Y262800I0J-35814D01*
G01X2673186Y99314D01*
G01X1856613Y99314D01*
G01X1674241Y281686D01*
G01X1701800Y281686D01*
G03X1737614Y317500I0J35814D01*
G01X1737614Y571500D01*
G03X1701800Y607314I-35814J0D01*
G01X317500Y607314D01*
G03X281686Y571500I0J-35814D01*
G01X281686Y317500D01*
G03X317500Y281686I35814J0D01*
G01X1501102Y281686D01*
G01X1787972Y-5185D01*
G03X1831257Y-23114I43285J43285D01*
G01X4673600Y-23114D01*
G03X4716885Y-5185I0J61214D01*
G01X4907385Y185315D01*
G03X4925314Y228600I-43285J43285D01*
G01X4925314Y458829D01*
G03X4979702Y554201I-56426J95372D01*
G01X4979702Y784201D01*
G03X4758074Y784201I-110814J0D01*
G01X4758074Y554201D01*
G03X4802886Y465188I110814J0D01*
G01X4802886Y253956D01*
G01X4648244Y99314D01*
G01X4155847Y99314D01*
G03X4178524Y216275I-91847J78486D01*
G01X4232744Y270495D01*
G03X4246953Y304800I-34305J34305D01*
G01X4246953Y500561D01*
G03X4232744Y534865I-48514J0D01*
G01X3520723Y1246886D01*
G01X4855178Y1246886D01*
G03X4898462Y1264815I0J61214D01*
G01X4945325Y1311678D01*
G03X5068728Y1521651I34439J121009D01*
G03X4858756Y1398248I-88964J-88964D01*
G01X4829822Y1369314D01*
G01X3009856Y1369314D01*
G01X2817114Y1562056D01*
G01X2817114Y1841544D01*
G01X2881992Y1906422D01*
G01X3530549Y1906422D01*
G03X3622294Y1967636I25451J61214D01*
G03X3530549Y2028850I-66294J0D01*
G01X2856636Y2028850D01*
G03X2813352Y2010921I0J-61214D01*
G01X2712615Y1910185D01*
G03X2694686Y1866900I43285J-43285D01*
G01X2694686Y1536700D01*
G03X2712615Y1493415I61214J0D01*
G01X2925616Y1280414D01*
G01X1569495Y1280414D01*
G01X720105Y2129805D01*
G03X685800Y2144014I-34305J-34305D01*
G01X490116Y2144014D01*
G03X378813Y2090096I-45210J-48514D01*
G01X371073Y2097836D01*
G03X264308Y2148016I-66273J-2336D01*
G03X285687Y2032000I40492J-52516D01*
G03X238487Y1968108I19113J-63500D01*
G03X286439Y1904779I66313J392D01*
G03X238494Y1842093I18361J-63721D01*
G03X284458Y1777940I66306J-1035D01*
G03X238015Y1705896I19310J-63440D01*
G03X301432Y1648227I65753J8604D01*
G01X1323564Y626095D01*
G03X1357868Y611886I34305J34305D01*
G01X3053305Y611886D01*
G01X3812550Y2097900D02*
G03X4064178Y2097900I125814J0D01*
G03X3812550Y2097900I-125814J0D01*
G01X4083214Y4305300D02*
G03X3841586Y4305300I-120814J0D01*
G03X4083214Y4305300I120814J0D01*
G01X4337214Y4305300D02*
G03X4095586Y4305300I-120814J0D01*
G03X4337214Y4305300I120814J0D01*
G01X4591214Y4305300D02*
G03X4349586Y4305300I-120814J0D01*
G03X4591214Y4305300I120814J0D01*
G01X4398086Y573100D02*
G03X4433900Y537286I35814J0D01*
G01X4633900Y537286D01*
G03X4669714Y573100I0J35814D01*
G01X4669714Y773100D01*
G03X4633900Y808914I-35814J0D01*
G01X4433900Y808914D01*
G03X4398086Y773100I0J-35814D01*
G01X4398086Y573100D01*
G01X4845214Y4305300D02*
G03X4603586Y4305300I-120814J0D01*
G03X4845214Y4305300I120814J0D01*
G01X4938700Y3318586D02*
G03X4974514Y3354400I0J35814D01*
G01X4974514Y3554400D01*
G03X4938700Y3590214I-35814J0D01*
G01X4738700Y3590214D01*
G03X4702886Y3554400I0J-35814D01*
G01X4702886Y3354400D01*
G03X4738700Y3318586I35814J0D01*
G01X4771787Y3318586D01*
G03X4838700Y3064586I66913J-118186D01*
G03X4905613Y3318586I0J135814D01*
G01X4938700Y3318586D01*
G01X5099214Y4305300D02*
G03X4857586Y4305300I-120814J0D01*
G03X5099214Y4305300I120814J0D01*
G01X6057900Y2584614D02*
G03X6057900Y2342986I0J-120814D01*
G03X6057900Y2584614I0J120814D01*
G01X6057900Y2330614D02*
G03X6057900Y2088986I0J-120814D01*
G03X6057900Y2330614I0J120814D01*
G01X305242Y3754043D02*
G03X383484Y3746856I44008J49607D01*
G01X469680Y3746856D01*
G03X482073Y3725345I35305J6015D01*
G03X451388Y3689900I5130J-35445D01*
G01X451388Y3599900D01*
G03X465988Y3571045I35814J0D01*
G01X465988Y3486258D01*
G01X431912Y3452181D01*
G03X410323Y3344023I25288J-61281D01*
G03X518481Y3365612I46877J46877D01*
G01X568794Y3415924D01*
G01X568794Y3367903D01*
G01X407882Y3206991D01*
G03X404169Y3202824I34305J-34305D01*
G01X289814Y3088469D01*
G01X289814Y3747822D01*
G03X305242Y3754043I-5314J35418D01*
G01X815966Y3795370D02*
G03X815767Y3799764I-48514J0D01*
G01X815767Y3824167D01*
G01X841072Y3824167D01*
G03X849860Y3824167I4394J48315D01*
G01X887965Y3824167D01*
G03X895581Y3824986I0J35814D01*
G01X907005Y3824986D01*
G01X944459Y3787532D01*
G03X978764Y3773322I34305J34305D01*
G01X1039535Y3773322D01*
G03X1074400Y3745699I34865J8190D01*
G01X1160800Y3745699D01*
G03X1196614Y3781513I0J35814D01*
G01X1196614Y3862160D01*
G03X1160800Y3897974I-35814J0D01*
G01X1074400Y3897974D01*
G03X1039535Y3870350I0J-35814D01*
G01X1016462Y3870350D01*
G03X1044212Y3923749I-38562J53950D01*
G01X1155403Y3923749D01*
G03X1189707Y3937958I0J48514D01*
G01X1193596Y3941847D01*
G03X1246886Y3972019I-2336J66273D01*
G01X1246886Y3093181D01*
G03X1229145Y3045714I48514J-45181D01*
G01X498123Y3045714D01*
G01X801757Y3349348D01*
G03X815966Y3383652I-34305J34305D01*
G01X815966Y3795370D01*
G04 Copper End*

G04 Pad Start*
G54D11*
G01X527202Y3644900D03*
G01X387198Y3644900D03*
G01X717702Y4457700D03*
G01X577698Y4457700D03*
G01X1669898Y4584700D03*
G01X1809902Y4584700D03*
G54D12*
G01X5563964Y1429875D03*
G54D13*
G01X4868888Y669201D03*
G01X5468912Y669201D03*
G54D14*
G01X5118900Y1134199D03*
G54D15*
G01X4838700Y3454400D03*
G54D16*
G01X4838700Y3200400D03*
G54D17*
G01X3771900Y2489200D03*
G54D19*
G01X3517900Y2489200D03*
G01X3263900Y2489200D03*
G54D17*
G01X5486400Y4559300D03*
G54D19*
G01X5486400Y4305300D03*
G01X5232400Y4559300D03*
G01X5232400Y4305300D03*
G01X4978400Y4559300D03*
G01X4978400Y4305300D03*
G01X4724400Y4559300D03*
G01X4724400Y4305300D03*
G01X4470400Y4559300D03*
G01X4470400Y4305300D03*
G01X4216400Y4559300D03*
G01X4216400Y4305300D03*
G01X3962400Y4559300D03*
G01X3962400Y4305300D03*
G01X6057900Y1447800D03*
G01X6057900Y1701800D03*
G01X6057900Y1955800D03*
G01X6057900Y2209800D03*
G01X6057900Y2463800D03*
G01X6057900Y2717800D03*
G01X6057900Y2971800D03*
G01X6057900Y3225800D03*
G01X6057900Y3479800D03*
G54D20*
G01X6057900Y3733800D03*
G54D15*
G01X4533900Y673100D03*
G54D16*
G01X4533900Y419100D03*
G54D21*
G01X1117600Y3821836D03*
G01X1117600Y3671164D03*
G01X241300Y3974236D03*
G01X241300Y3823564D03*
G54D22*
G01X4979764Y1432687D03*
G01X3938364Y2097900D03*
G01X3100164Y1632813D03*
G54D23*
G01X767452Y3795370D03*
G01X717384Y3795370D03*
G01X667346Y3795370D03*
G01X617308Y3795370D03*
G01X567524Y3795370D03*
G01X517486Y3795370D03*
G54D24*
G01X440468Y3872481D03*
G01X440468Y3922225D03*
G01X440468Y3972263D03*
G01X440468Y4022301D03*
G01X440468Y4072339D03*
G01X440468Y4122377D03*
G54D23*
G01X517455Y4200368D03*
G01X567524Y4200368D03*
G01X617308Y4200368D03*
G01X667346Y4200368D03*
G01X717384Y4200368D03*
G01X767422Y4200368D03*
G54D24*
G01X845466Y4122377D03*
G01X845466Y4072339D03*
G01X845466Y4022301D03*
G01X845466Y3972263D03*
G01X845466Y3922225D03*
G01X845466Y3872481D03*
G54D25*
G01X642962Y3997917D03*
G54D19*
G01X4064000Y431800D03*
G01X4064000Y177800D03*
G01X3810000Y431800D03*
G01X3810000Y177800D03*
G01X3556000Y431800D03*
G01X3556000Y177800D03*
G01X3302000Y431800D03*
G01X3302000Y177800D03*
G01X3048000Y431800D03*
G01X3048000Y177800D03*
G01X2794000Y431800D03*
G54D17*
G01X2794000Y177800D03*
G04 Pad End*

G04 Via Start*
G54D26*
G01X444500Y2857500D03*
G01X571500Y2857500D03*
G01X698500Y2857500D03*
G01X825500Y2857500D03*
G01X952500Y2857500D03*
G01X977900Y3924300D03*
G01X1191260Y4008120D03*
G01X978180Y4084268D03*
G01X977869Y4160468D03*
G01X673100Y4330700D03*
G01X807456Y4292600D03*
G01X1562100Y4457700D03*
G01X304800Y2095500D03*
G01X444906Y2095500D03*
G01X444500Y1968500D03*
G01X444500Y1841500D03*
G01X444333Y1714500D03*
G01X304800Y1968500D03*
G01X304800Y1841057D03*
G01X303768Y1714500D03*
G01X304800Y2476500D03*
G01X442187Y2476500D03*
G01X304800Y2730500D03*
G01X444500Y2730500D03*
G01X330200Y3898900D03*
G01X349250Y3803650D03*
G54D27*
G01X1295400Y3048000D03*
G01X1663700Y4457700D03*
G54D26*
G01X317500Y3302000D03*
G01X4432300Y927100D03*
G01X4318000Y1727200D03*
G01X4330700Y1587500D03*
G01X3898900Y1714500D03*
G01X3124200Y1866900D03*
G01X2857500Y1574800D03*
G01X3276600Y1460500D03*
G01X431800Y406400D03*
G01X571500Y406400D03*
G01X700127Y406400D03*
G01X825500Y406400D03*
G01X952500Y406400D03*
G01X1080123Y406400D03*
G01X1206500Y406400D03*
G01X1334508Y406400D03*
G01X1462957Y406400D03*
G54D27*
G01X3556000Y1967636D03*
G01X457200Y3390900D03*
G01X457200Y2984500D03*
G01X4102100Y2984500D03*
G54D26*
G01X3975100Y1054100D03*
G01X3975100Y894811D03*
G01X4178300Y2006600D03*
G01X4000500Y1930400D03*
G01X762000Y3187700D03*
G01X596900Y3086100D03*
G01X1092200Y3441700D03*
G01X990600Y3225800D03*
G01X2616200Y3543300D03*
G01X4114800Y3543300D03*
G01X2197100Y3327400D03*
G01X2722087Y3327400D03*
G01X3733800Y3327400D03*
G01X4254500Y3327400D03*
G04 Via End*

G04 Track Start*
G54D10*
G01X845466Y3922225D02*
G01X975825Y3922225D01*
G01X977900Y3924300D01*
G01X845466Y4072339D02*
G01X966251Y4072339D01*
G01X978180Y4084268D01*
G01X845466Y4122377D02*
G01X937291Y4122377D01*
G01X955042Y4140128D01*
G01X957530Y4140128D01*
G01X977869Y4160468D01*
G01X667346Y4324946D02*
G01X673100Y4330700D01*
G01X667346Y4200368D02*
G01X667346Y4324946D01*
G54D28*
G01X901700Y2781300D02*
G01X825500Y2857500D01*
G01X6057900Y3479800D02*
G01X5359400Y2781300D01*
G01X901700Y2781300D01*
G01X6057900Y3733800D02*
G01X5181600Y2857500D01*
G01X952500Y2857500D01*
G01X5600700Y2743200D02*
G01X800100Y2743200D01*
G01X6057900Y3200400D02*
G01X5600700Y2743200D01*
G01X6057900Y3225800D02*
G01X6057900Y3200400D01*
G01X800100Y2743200D02*
G01X698500Y2844800D01*
G01X698500Y2857500D01*
G01X6057900Y2933700D02*
G01X5829300Y2705100D01*
G01X723900Y2705100D01*
G01X571500Y2857500D01*
G01X6057900Y2971800D02*
G01X6057900Y2933700D01*
G01X444500Y2857500D02*
G01X660400Y2641600D01*
G01X5994400Y2641600D01*
G01X6057900Y2705100D01*
G01X6057900Y2717800D01*
G01X226554Y2631400D02*
G01X180300Y2677654D01*
G01X180300Y2910346D01*
G01X442187Y3172233D01*
G01X442187Y3172687D01*
G01X442187Y2476500D02*
G01X287287Y2631400D01*
G01X226554Y2631400D01*
G01X132000Y2912392D02*
G01X132000Y2650208D01*
G01X304800Y2477408D02*
G01X304800Y2476500D01*
G01X132000Y2650208D02*
G01X304800Y2477408D01*
G01X241300Y3798164D02*
G01X241300Y3021692D01*
G01X132000Y2912392D01*
G01X440468Y3972263D02*
G01X438494Y3974236D01*
G01X241300Y3974236D01*
G01X356619Y3872481D02*
G01X330200Y3898900D01*
G01X440468Y3872481D02*
G01X356619Y3872481D01*
G01X349250Y3803650D02*
G01X357530Y3795370D01*
G01X517486Y3795370D01*
G01X1295400Y3048000D02*
G01X1295400Y4191000D01*
G01X1562100Y4457700D01*
G01X1663700Y4457700D02*
G01X1663700Y4578502D01*
G01X1669898Y4584700D01*
G54D10*
G01X767422Y4200368D02*
G01X767422Y4252566D01*
G01X807456Y4292600D01*
G54D28*
G01X717384Y4200368D02*
G01X717702Y4200686D01*
G01X717702Y4292712D01*
G01X731500Y4306510D01*
G01X731500Y4354890D01*
G01X717702Y4368688D01*
G01X717702Y4457700D01*
G01X567524Y3795370D02*
G01X567524Y3685221D01*
G01X527202Y3644900D01*
G01X1117600Y3821836D02*
G01X978764Y3821836D01*
G01X927100Y3873500D01*
G01X846484Y3873500D01*
G01X845466Y3872481D01*
G01X303768Y1714500D02*
G01X1357868Y660400D01*
G01X3073400Y660400D02*
G01X3302000Y431800D01*
G01X1357868Y660400D02*
G01X3073400Y660400D01*
G01X444333Y1714500D02*
G01X1422233Y736600D01*
G01X3225800Y736600D02*
G01X3416300Y546100D01*
G01X3416300Y292100D01*
G01X3302000Y177800D01*
G01X1422233Y736600D02*
G01X3225800Y736600D01*
G01X304800Y1841057D02*
G01X367857Y1778000D01*
G01X495300Y1778000D01*
G01X1460500Y812800D01*
G01X3289300Y812800D01*
G01X3556000Y546100D01*
G01X3556000Y431800D01*
G01X444500Y1841500D02*
G01X533400Y1841500D01*
G01X1473200Y901700D02*
G01X3289300Y901700D01*
G01X3683000Y508000D01*
G01X3683000Y304800D02*
G01X3556000Y177800D01*
G01X533400Y1841500D02*
G01X1473200Y901700D01*
G01X3683000Y508000D02*
G01X3683000Y304800D01*
G01X304800Y1968500D02*
G01X368300Y1905000D01*
G01X1485900Y990600D02*
G01X3302000Y990600D01*
G01X3810000Y482600D01*
G01X3810000Y431800D01*
G01X368300Y1905000D02*
G01X571500Y1905000D01*
G01X1485900Y990600D01*
G01X444500Y1968500D02*
G01X609600Y1968500D01*
G01X3378200Y1066800D02*
G01X3937000Y508000D01*
G01X3937000Y304800D01*
G01X3810000Y177800D01*
G01X609600Y1968500D02*
G01X1511300Y1066800D01*
G01X3378200Y1066800D01*
G01X304800Y2095500D02*
G01X368300Y2032000D01*
G01X4064000Y508000D02*
G01X4064000Y431800D01*
G01X368300Y2032000D02*
G01X647700Y2032000D01*
G01X1536700Y1143000D01*
G01X3429000Y1143000D01*
G01X4064000Y508000D01*
G01X444906Y2095500D02*
G01X685800Y2095500D01*
G01X1549400Y1231900D01*
G01X3467100Y1231900D01*
G01X4198439Y500561D01*
G01X4198439Y304800D01*
G01X4071439Y177800D02*
G01X4064000Y177800D01*
G01X4198439Y304800D02*
G01X4071439Y177800D01*
G54D29*
G01X4864100Y664413D02*
G01X4868888Y669201D01*
G01X4864100Y228600D02*
G01X4864100Y664413D01*
G01X4673600Y38100D02*
G01X4864100Y228600D01*
G01X1831257Y38100D02*
G01X4673600Y38100D01*
G01X1462957Y406400D02*
G01X1831257Y38100D01*
G01X2794000Y177800D02*
G01X2794000Y431800D01*
G01X3100164Y1632813D02*
G01X3639413Y1632813D01*
G01X3810000Y1803400D01*
G01X5956300Y1803400D01*
G01X6057900Y1701800D01*
G01X6311900Y1955800D01*
G01X6311900Y3886200D01*
G01X5892800Y4305300D01*
G01X5486400Y4305300D01*
G01X5168900Y3987800D01*
G01X2133600Y3987800D02*
G01X1663700Y4457700D01*
G01X5168900Y3987800D02*
G01X2133600Y3987800D01*
G01X1669898Y4584700D02*
G01X844702Y4584700D01*
G01X717702Y4457700D01*
G54D28*
G01X845466Y3972263D02*
G01X943272Y3972263D01*
G01X953710Y3982700D01*
G01X1002090Y3982700D01*
G01X1012528Y3972263D01*
G01X1155403Y3972263D01*
G01X1191260Y4008120D01*
G01X838200Y4457700D02*
G01X1092200Y4203700D01*
G01X717702Y4457700D02*
G01X838200Y4457700D01*
G01X1092200Y4203700D02*
G01X1092200Y4076700D01*
G01X1037801Y4022301D01*
G01X845466Y4022301D01*
G54D29*
G01X4855178Y1308100D02*
G01X4979764Y1432687D01*
G01X2984500Y1308100D02*
G01X4855178Y1308100D01*
G01X2755900Y1536700D02*
G01X2984500Y1308100D01*
G01X2755900Y1866900D02*
G01X2755900Y1536700D01*
G01X2856636Y1967636D02*
G01X2755900Y1866900D01*
G01X3556000Y1967636D02*
G01X2856636Y1967636D01*
G54D28*
G01X215900Y2692400D02*
G01X215900Y2895600D01*
G01X241300Y2667000D02*
G01X215900Y2692400D01*
G01X368300Y2667000D02*
G01X241300Y2667000D01*
G01X431800Y2730500D02*
G01X368300Y2667000D01*
G01X444500Y2730500D02*
G01X431800Y2730500D01*
G01X215900Y2895600D02*
G01X667347Y3347047D01*
G01X667346Y3795370D01*
G01X442187Y3172687D02*
G01X617308Y3347808D01*
G01X617308Y3795370D01*
G54D29*
G01X527202Y3644900D02*
G01X527202Y3460902D01*
G01X457200Y3390900D01*
G54D28*
G01X767452Y3795370D02*
G01X767452Y3383652D01*
G01X304800Y2921000D01*
G01X304800Y2730500D01*
G54D29*
G01X457200Y2984500D02*
G01X1258378Y2984500D01*
G01X1265958Y2976920D01*
G01X1324842Y2976920D01*
G01X1332422Y2984500D01*
G01X4102100Y2984500D01*
G04 Track End*

M02*

