G04*
G04 #@! TF.GenerationSoftware,Altium Limited,Altium Designer,25.6.2 (33)*
G04*
G04 Layer_Physical_Order=4*
G04 Layer_Color=16737945*
%FSLAX25Y25*%
%MOIN*%
G70*
G04*
G04 #@! TF.SameCoordinates,D3077B53-F130-49B9-AE0B-FC42BD5CCE1B*
G04*
G04*
G04 #@! TF.FilePolarity,Positive*
G04*
G01*
G75*
%ADD12C,0.00500*%
%ADD13C,0.01000*%
%ADD59C,0.02362*%
%ADD62C,0.00394*%
%ADD64C,0.02000*%
%ADD65C,0.00800*%
%ADD67C,0.03937*%
%ADD68C,0.01378*%
G36*
X329000Y260000D02*
Y110000D01*
X319000Y100000D01*
X120000D01*
X110000Y110000D01*
Y260000D01*
X120000Y270000D01*
X319000D01*
X329000Y260000D01*
D02*
G37*
%LPC*%
G36*
X172280Y257883D02*
X171849D01*
X171451Y257718D01*
X171146Y257413D01*
X170982Y257015D01*
Y256585D01*
X171146Y256187D01*
X171451Y255882D01*
X171849Y255717D01*
X172280D01*
X172678Y255882D01*
X172982Y256187D01*
X173147Y256585D01*
Y257015D01*
X172982Y257413D01*
X172678Y257718D01*
X172280Y257883D01*
D02*
G37*
G36*
X216234Y263727D02*
X174377D01*
X174029Y263658D01*
X173733Y263461D01*
X154730Y244458D01*
X154720D01*
X154323Y244293D01*
X154018Y243988D01*
X153853Y243590D01*
Y243159D01*
X154018Y242761D01*
X154323Y242457D01*
X154720Y242292D01*
X155151D01*
X155549Y242457D01*
X155854Y242761D01*
X156018Y243159D01*
Y243169D01*
X174755Y261905D01*
X191964D01*
X192127Y261511D01*
X192029Y261413D01*
X191864Y261015D01*
Y260585D01*
X192029Y260187D01*
X192310Y259905D01*
X192301Y259793D01*
X192200Y259511D01*
X182320D01*
X182313Y259518D01*
X181915Y259683D01*
X181485D01*
X181087Y259518D01*
X180782Y259213D01*
X180617Y258815D01*
Y258385D01*
X180782Y257987D01*
X180789Y257980D01*
Y253564D01*
X171785Y244560D01*
X171587Y244264D01*
X171518Y243915D01*
Y237344D01*
X171511Y237338D01*
X171346Y236940D01*
Y236509D01*
X171511Y236111D01*
X171816Y235807D01*
X172214Y235642D01*
X172644D01*
X173042Y235807D01*
X173347Y236111D01*
X173512Y236509D01*
Y236940D01*
X173347Y237338D01*
X173340Y237344D01*
Y243538D01*
X177127Y247325D01*
X177461Y247102D01*
X177394Y246940D01*
Y246509D01*
X177559Y246111D01*
X177863Y245807D01*
X178261Y245642D01*
X178692D01*
X179090Y245807D01*
X179394Y246111D01*
X179559Y246509D01*
Y246940D01*
X179394Y247338D01*
X179090Y247642D01*
X178692Y247807D01*
X178261D01*
X178099Y247740D01*
X177876Y248074D01*
X181068Y251266D01*
X181533Y251173D01*
X181559Y251111D01*
X181863Y250807D01*
X182261Y250642D01*
X182692D01*
X183090Y250807D01*
X183394Y251111D01*
X183559Y251509D01*
Y251940D01*
X183394Y252338D01*
X183090Y252642D01*
X182692Y252807D01*
X182611Y253186D01*
Y257689D01*
X207341D01*
X207690Y257758D01*
X207985Y257956D01*
X209747Y259717D01*
X209756D01*
X210154Y259882D01*
X210459Y260187D01*
X210624Y260585D01*
Y261015D01*
X210459Y261413D01*
X210361Y261511D01*
X210524Y261905D01*
X215856D01*
X222153Y255609D01*
Y254520D01*
X222146Y254513D01*
X221982Y254115D01*
Y253685D01*
X222146Y253287D01*
X222451Y252982D01*
X222849Y252817D01*
X223280D01*
X223677Y252982D01*
X223982Y253287D01*
X224147Y253685D01*
Y254115D01*
X223982Y254513D01*
X223975Y254520D01*
Y255986D01*
X223906Y256335D01*
X223709Y256630D01*
X216878Y263461D01*
X216583Y263658D01*
X216234Y263727D01*
D02*
G37*
G36*
X172280Y251183D02*
X171849D01*
X171451Y251018D01*
X171146Y250713D01*
X170982Y250315D01*
Y249885D01*
X171146Y249487D01*
X171451Y249182D01*
X171849Y249017D01*
X172280D01*
X172678Y249182D01*
X172982Y249487D01*
X173147Y249885D01*
Y250315D01*
X172982Y250713D01*
X172678Y251018D01*
X172280Y251183D01*
D02*
G37*
G36*
X239313Y250875D02*
X238687D01*
X238108Y250635D01*
X237665Y250192D01*
X237425Y249613D01*
Y248987D01*
X237665Y248408D01*
X238108Y247965D01*
X238687Y247725D01*
X239313D01*
X239892Y247965D01*
X240335Y248408D01*
X240575Y248987D01*
Y249613D01*
X240335Y250192D01*
X239892Y250635D01*
X239313Y250875D01*
D02*
G37*
G36*
X240915Y246483D02*
X240485D01*
X240087Y246318D01*
X239978Y246209D01*
X211700D01*
X211700Y246209D01*
X211390Y246148D01*
X211128Y245972D01*
X211128Y245972D01*
X206953Y241797D01*
X206559Y241940D01*
X206394Y242338D01*
X206090Y242642D01*
X205692Y242807D01*
X205261D01*
X204863Y242642D01*
X204558Y242338D01*
X204394Y241940D01*
Y241509D01*
X204558Y241111D01*
X204863Y240807D01*
X205261Y240642D01*
X205404Y240248D01*
X200138Y234983D01*
X199985D01*
X199587Y234818D01*
X199282Y234513D01*
X199117Y234115D01*
Y233685D01*
X199282Y233287D01*
X199587Y232982D01*
X199985Y232817D01*
X200415D01*
X200813Y232982D01*
X201118Y233287D01*
X201283Y233685D01*
Y233838D01*
X212035Y244591D01*
X239978D01*
X240087Y244482D01*
X240485Y244317D01*
X240915D01*
X241313Y244482D01*
X241618Y244787D01*
X241783Y245185D01*
Y245615D01*
X241618Y246013D01*
X241313Y246318D01*
X240915Y246483D01*
D02*
G37*
G36*
X205692Y247807D02*
X205261D01*
X204863Y247642D01*
X204558Y247338D01*
X204394Y246940D01*
Y246509D01*
X204558Y246111D01*
X204863Y245807D01*
X205261Y245642D01*
X205692D01*
X206090Y245807D01*
X206394Y246111D01*
X206559Y246509D01*
Y246940D01*
X206394Y247338D01*
X206090Y247642D01*
X205692Y247807D01*
D02*
G37*
G36*
X163715Y244357D02*
X163285D01*
X162887Y244193D01*
X162582Y243888D01*
X162417Y243490D01*
Y243059D01*
X162582Y242661D01*
X162887Y242357D01*
X163285Y242192D01*
X163715D01*
X164113Y242357D01*
X164418Y242661D01*
X164583Y243059D01*
Y243490D01*
X164418Y243888D01*
X164113Y244193D01*
X163715Y244357D01*
D02*
G37*
G36*
X182692Y242807D02*
X182261D01*
X181863Y242642D01*
X181559Y242338D01*
X181394Y241940D01*
Y241509D01*
X181559Y241111D01*
X181863Y240807D01*
X182261Y240642D01*
X182692D01*
X183090Y240807D01*
X183394Y241111D01*
X183559Y241509D01*
Y241940D01*
X183394Y242338D01*
X183090Y242642D01*
X182692Y242807D01*
D02*
G37*
G36*
X298215Y240083D02*
X297785D01*
X297387Y239918D01*
X297082Y239613D01*
X296917Y239215D01*
Y238785D01*
X297082Y238387D01*
X297387Y238082D01*
X297785Y237917D01*
X298215D01*
X298613Y238082D01*
X298918Y238387D01*
X299083Y238785D01*
Y239215D01*
X298918Y239613D01*
X298613Y239918D01*
X298215Y240083D01*
D02*
G37*
G36*
X293215D02*
X292785D01*
X292387Y239918D01*
X292082Y239613D01*
X291917Y239215D01*
Y238785D01*
X292082Y238387D01*
X292387Y238082D01*
X292785Y237917D01*
X293215D01*
X293613Y238082D01*
X293918Y238387D01*
X294083Y238785D01*
Y239215D01*
X293918Y239613D01*
X293613Y239918D01*
X293215Y240083D01*
D02*
G37*
G36*
X288215D02*
X287785D01*
X287387Y239918D01*
X287082Y239613D01*
X286917Y239215D01*
Y238785D01*
X287082Y238387D01*
X287387Y238082D01*
X287785Y237917D01*
X288215D01*
X288613Y238082D01*
X288918Y238387D01*
X289083Y238785D01*
Y239215D01*
X288918Y239613D01*
X288613Y239918D01*
X288215Y240083D01*
D02*
G37*
G36*
X283215D02*
X282785D01*
X282387Y239918D01*
X282082Y239613D01*
X281917Y239215D01*
Y238785D01*
X282082Y238387D01*
X282387Y238082D01*
X282785Y237917D01*
X283215D01*
X283613Y238082D01*
X283918Y238387D01*
X284083Y238785D01*
Y239215D01*
X283918Y239613D01*
X283613Y239918D01*
X283215Y240083D01*
D02*
G37*
G36*
X278215D02*
X277785D01*
X277387Y239918D01*
X277082Y239613D01*
X276917Y239215D01*
Y238785D01*
X277082Y238387D01*
X277387Y238082D01*
X277785Y237917D01*
X278215D01*
X278613Y238082D01*
X278918Y238387D01*
X279083Y238785D01*
Y239215D01*
X278918Y239613D01*
X278613Y239918D01*
X278215Y240083D01*
D02*
G37*
G36*
X273215D02*
X272785D01*
X272387Y239918D01*
X272082Y239613D01*
X271917Y239215D01*
Y238785D01*
X272082Y238387D01*
X272387Y238082D01*
X272785Y237917D01*
X273215D01*
X273613Y238082D01*
X273918Y238387D01*
X274083Y238785D01*
Y239215D01*
X273918Y239613D01*
X273613Y239918D01*
X273215Y240083D01*
D02*
G37*
G36*
X268215D02*
X267785D01*
X267387Y239918D01*
X267082Y239613D01*
X266917Y239215D01*
Y238785D01*
X267082Y238387D01*
X267387Y238082D01*
X267785Y237917D01*
X268215D01*
X268613Y238082D01*
X268918Y238387D01*
X269083Y238785D01*
Y239215D01*
X268918Y239613D01*
X268613Y239918D01*
X268215Y240083D01*
D02*
G37*
G36*
X263215D02*
X262785D01*
X262387Y239918D01*
X262082Y239613D01*
X261917Y239215D01*
Y238785D01*
X262082Y238387D01*
X262387Y238082D01*
X262785Y237917D01*
X263215D01*
X263613Y238082D01*
X263918Y238387D01*
X264083Y238785D01*
Y239215D01*
X263918Y239613D01*
X263613Y239918D01*
X263215Y240083D01*
D02*
G37*
G36*
X258215D02*
X257785D01*
X257387Y239918D01*
X257082Y239613D01*
X256917Y239215D01*
Y238785D01*
X257082Y238387D01*
X257387Y238082D01*
X257785Y237917D01*
X258215D01*
X258613Y238082D01*
X258918Y238387D01*
X259083Y238785D01*
Y239215D01*
X258918Y239613D01*
X258613Y239918D01*
X258215Y240083D01*
D02*
G37*
G36*
X253215D02*
X252785D01*
X252387Y239918D01*
X252082Y239613D01*
X251917Y239215D01*
Y238785D01*
X252082Y238387D01*
X252387Y238082D01*
X252785Y237917D01*
X253215D01*
X253613Y238082D01*
X253918Y238387D01*
X254083Y238785D01*
Y239215D01*
X253918Y239613D01*
X253613Y239918D01*
X253215Y240083D01*
D02*
G37*
G36*
X141013Y236375D02*
X140387D01*
X139808Y236135D01*
X139365Y235692D01*
X139125Y235113D01*
Y234487D01*
X139365Y233908D01*
X139808Y233465D01*
X140387Y233225D01*
X141013D01*
X141592Y233465D01*
X142035Y233908D01*
X142275Y234487D01*
Y235113D01*
X142035Y235692D01*
X141592Y236135D01*
X141013Y236375D01*
D02*
G37*
G36*
X293215Y235083D02*
X292785D01*
X292387Y234918D01*
X292082Y234613D01*
X291917Y234215D01*
Y233785D01*
X292082Y233387D01*
X292387Y233082D01*
X292785Y232917D01*
X293215D01*
X293613Y233082D01*
X293918Y233387D01*
X294083Y233785D01*
Y234215D01*
X293918Y234613D01*
X293613Y234918D01*
X293215Y235083D01*
D02*
G37*
G36*
X288215D02*
X287785D01*
X287387Y234918D01*
X287082Y234613D01*
X286917Y234215D01*
Y233785D01*
X287082Y233387D01*
X287387Y233082D01*
X287785Y232917D01*
X288215D01*
X288613Y233082D01*
X288918Y233387D01*
X289083Y233785D01*
Y234215D01*
X288918Y234613D01*
X288613Y234918D01*
X288215Y235083D01*
D02*
G37*
G36*
X283215D02*
X282785D01*
X282387Y234918D01*
X282082Y234613D01*
X281917Y234215D01*
Y233785D01*
X282082Y233387D01*
X282387Y233082D01*
X282785Y232917D01*
X283215D01*
X283613Y233082D01*
X283918Y233387D01*
X284083Y233785D01*
Y234215D01*
X283918Y234613D01*
X283613Y234918D01*
X283215Y235083D01*
D02*
G37*
G36*
X278215D02*
X277785D01*
X277387Y234918D01*
X277082Y234613D01*
X276917Y234215D01*
Y233785D01*
X277082Y233387D01*
X277387Y233082D01*
X277785Y232917D01*
X278215D01*
X278613Y233082D01*
X278918Y233387D01*
X279083Y233785D01*
Y234215D01*
X278918Y234613D01*
X278613Y234918D01*
X278215Y235083D01*
D02*
G37*
G36*
X268215D02*
X267785D01*
X267387Y234918D01*
X267082Y234613D01*
X266917Y234215D01*
Y233785D01*
X267082Y233387D01*
X267387Y233082D01*
X267785Y232917D01*
X268215D01*
X268613Y233082D01*
X268918Y233387D01*
X269083Y233785D01*
Y234215D01*
X268918Y234613D01*
X268613Y234918D01*
X268215Y235083D01*
D02*
G37*
G36*
X263215D02*
X262785D01*
X262387Y234918D01*
X262082Y234613D01*
X261917Y234215D01*
Y233785D01*
X262082Y233387D01*
X262387Y233082D01*
X262785Y232917D01*
X263215D01*
X263613Y233082D01*
X263918Y233387D01*
X264083Y233785D01*
Y234215D01*
X263918Y234613D01*
X263613Y234918D01*
X263215Y235083D01*
D02*
G37*
G36*
X258215D02*
X257785D01*
X257387Y234918D01*
X257082Y234613D01*
X256917Y234215D01*
Y233785D01*
X257082Y233387D01*
X257387Y233082D01*
X257785Y232917D01*
X258215D01*
X258613Y233082D01*
X258918Y233387D01*
X259083Y233785D01*
Y234215D01*
X258918Y234613D01*
X258613Y234918D01*
X258215Y235083D01*
D02*
G37*
G36*
X273215D02*
X272785D01*
X272387Y234918D01*
X272082Y234613D01*
X271917Y234215D01*
Y233821D01*
X266456Y228360D01*
X264333D01*
X264070Y228753D01*
X264083Y228785D01*
Y229215D01*
X263918Y229613D01*
X263613Y229918D01*
X263215Y230083D01*
X262785D01*
X262387Y229918D01*
X262082Y229613D01*
X261917Y229215D01*
Y228785D01*
X261930Y228753D01*
X261667Y228360D01*
X259333D01*
X259070Y228753D01*
X259083Y228785D01*
Y229215D01*
X258918Y229613D01*
X258613Y229918D01*
X258215Y230083D01*
X257785D01*
X257387Y229918D01*
X257082Y229613D01*
X256917Y229215D01*
Y228785D01*
X256930Y228753D01*
X256667Y228360D01*
X254333D01*
X254070Y228753D01*
X254083Y228785D01*
Y229215D01*
X253918Y229613D01*
X253613Y229918D01*
X253215Y230083D01*
X252785D01*
X252387Y229918D01*
X252082Y229613D01*
X251917Y229215D01*
Y228785D01*
X251930Y228753D01*
X251667Y228360D01*
X240159D01*
X240026Y228415D01*
X198021D01*
X197569Y228228D01*
X196642Y227301D01*
X196469Y227198D01*
X196142Y227287D01*
X196015Y227414D01*
X195984Y227427D01*
X195891Y227891D01*
X197476Y229476D01*
X210125D01*
X210577Y229664D01*
X214274Y233361D01*
X240282D01*
X240360Y232967D01*
X240261Y232926D01*
X239957Y232621D01*
X239792Y232224D01*
Y231793D01*
X239957Y231395D01*
X240261Y231090D01*
X240659Y230925D01*
X241090D01*
X241488Y231090D01*
X241792Y231395D01*
X241957Y231793D01*
Y232224D01*
X241792Y232621D01*
X241488Y232926D01*
X241389Y232967D01*
X241467Y233361D01*
X252108D01*
X252387Y233082D01*
X252785Y232917D01*
X253215D01*
X253613Y233082D01*
X253918Y233387D01*
X254083Y233785D01*
Y234215D01*
X253918Y234613D01*
X253613Y234918D01*
X253215Y235083D01*
X252785D01*
X252387Y234918D01*
X252108Y234639D01*
X214009D01*
X213558Y234452D01*
X212395Y233290D01*
X211931Y233382D01*
X211918Y233413D01*
X211613Y233718D01*
X211215Y233883D01*
X210785D01*
X210387Y233718D01*
X210082Y233413D01*
X209917Y233015D01*
Y232585D01*
X210082Y232187D01*
X210387Y231882D01*
X210418Y231869D01*
X210510Y231405D01*
X209860Y230755D01*
X197212D01*
X196760Y230568D01*
X193670Y227478D01*
X193549Y227185D01*
X193341Y227145D01*
X193119Y227144D01*
X192850Y227414D01*
X192452Y227579D01*
X192021D01*
X191623Y227414D01*
X191318Y227109D01*
X191154Y226711D01*
Y226281D01*
X191318Y225883D01*
X191623Y225578D01*
X191647Y225455D01*
X190343Y224151D01*
X190170Y224048D01*
X189842Y224138D01*
X189716Y224264D01*
X189318Y224429D01*
X188887D01*
X188489Y224264D01*
X188184Y223960D01*
X188020Y223562D01*
Y223131D01*
X188184Y222733D01*
X188489Y222429D01*
X188887Y222264D01*
X189318D01*
X189644Y222399D01*
X189903Y222292D01*
X190038Y222194D01*
Y221349D01*
X189903Y221251D01*
X189644Y221144D01*
X189318Y221280D01*
X188887D01*
X188489Y221115D01*
X188184Y220810D01*
X188020Y220412D01*
Y219982D01*
X188184Y219584D01*
X188489Y219279D01*
X188887Y219114D01*
X189318D01*
X189716Y219279D01*
X189842Y219406D01*
X190170Y219495D01*
X190343Y219392D01*
X191270Y218465D01*
X191544Y218352D01*
X191585Y218185D01*
X191588Y217914D01*
X191334Y217660D01*
X191169Y217263D01*
Y216832D01*
X191334Y216434D01*
X191639Y216129D01*
X192037Y215965D01*
X192467D01*
X192865Y216129D01*
X192874Y216138D01*
X193180Y215887D01*
X193171Y215874D01*
X193110Y215565D01*
X193110Y215564D01*
Y215089D01*
X192716Y214879D01*
X192471Y214980D01*
X192041D01*
X191643Y214815D01*
X191338Y214511D01*
X191173Y214113D01*
Y213682D01*
X191238Y213526D01*
X190976Y213132D01*
X190382D01*
X190120Y213526D01*
X190185Y213682D01*
Y214113D01*
X190020Y214511D01*
X189716Y214815D01*
X189318Y214980D01*
X188887D01*
X188489Y214815D01*
X188184Y214511D01*
X188020Y214113D01*
Y213682D01*
X188084Y213526D01*
X187822Y213132D01*
X187233D01*
X186971Y213526D01*
X187035Y213682D01*
Y214113D01*
X186871Y214511D01*
X186566Y214815D01*
X186168Y214980D01*
X185737D01*
X185339Y214815D01*
X185035Y214511D01*
X184870Y214113D01*
Y213682D01*
X184935Y213526D01*
X184673Y213132D01*
X184083D01*
X183821Y213526D01*
X183886Y213682D01*
Y214113D01*
X183721Y214511D01*
X183416Y214815D01*
X183395Y214925D01*
X184877Y216408D01*
X185061D01*
X185339Y216129D01*
X185737Y215965D01*
X186168D01*
X186566Y216129D01*
X186871Y216434D01*
X187035Y216832D01*
Y217263D01*
X186871Y217660D01*
X186566Y217965D01*
X186168Y218130D01*
X185737D01*
X185339Y217965D01*
X185061Y217687D01*
X184613D01*
X184178Y217507D01*
X184161Y217499D01*
X183734Y217629D01*
X183721Y217660D01*
X183594Y217787D01*
X183505Y218114D01*
X183608Y218288D01*
X184853Y219533D01*
X185040Y219985D01*
Y221530D01*
X185774Y222264D01*
X186168D01*
X186566Y222429D01*
X186871Y222733D01*
X187035Y223131D01*
Y223562D01*
X186871Y223960D01*
X186566Y224264D01*
X186168Y224429D01*
X185737D01*
X185339Y224264D01*
X185035Y223960D01*
X184870Y223562D01*
Y223168D01*
X183949Y222247D01*
X183762Y221795D01*
Y221326D01*
X183580Y221215D01*
X183368Y221135D01*
X183019Y221280D01*
X182588D01*
X182190Y221115D01*
X181885Y220810D01*
X181720Y220412D01*
Y219982D01*
X181856Y219655D01*
X181749Y219396D01*
X181651Y219261D01*
X180806D01*
X180708Y219396D01*
X180601Y219655D01*
X180736Y219982D01*
Y220412D01*
X180571Y220810D01*
X180267Y221115D01*
X179869Y221280D01*
X179438D01*
X179040Y221115D01*
X178736Y220810D01*
X178571Y220412D01*
Y219982D01*
X178706Y219655D01*
X178599Y219396D01*
X178501Y219261D01*
X174083D01*
X173820Y219655D01*
X173847Y219721D01*
Y220151D01*
X173682Y220549D01*
X173378Y220854D01*
X172980Y221019D01*
X172549D01*
X172151Y220854D01*
X171847Y220549D01*
X171682Y220151D01*
Y219721D01*
X171709Y219655D01*
X171446Y219261D01*
X165348D01*
X164896Y219074D01*
X161953Y216131D01*
X153833D01*
X153570Y216525D01*
X153583Y216556D01*
Y216987D01*
X153418Y217385D01*
X153113Y217689D01*
X152715Y217854D01*
X152285D01*
X151887Y217689D01*
X151582Y217385D01*
X151417Y216987D01*
Y216556D01*
X151430Y216525D01*
X151167Y216131D01*
X149411D01*
X148959Y215944D01*
X139056Y206041D01*
X138869Y205589D01*
Y175698D01*
X133781Y170610D01*
X133387D01*
X132989Y170445D01*
X132685Y170141D01*
X132520Y169743D01*
Y169312D01*
X132548Y169245D01*
X132284Y168851D01*
X128686D01*
X126065Y171472D01*
Y181319D01*
X126114Y181349D01*
X126459Y181439D01*
X126690Y181208D01*
X127088Y181043D01*
X127518D01*
X127916Y181208D01*
X128221Y181513D01*
X128386Y181911D01*
Y181920D01*
X129041Y182575D01*
X129375Y182352D01*
X129370Y182341D01*
Y181911D01*
X129535Y181513D01*
X129840Y181208D01*
X130237Y181043D01*
X130668D01*
X131066Y181208D01*
X131371Y181513D01*
X131535Y181911D01*
Y182341D01*
X131371Y182739D01*
X131066Y183044D01*
X130668Y183209D01*
X130237D01*
X130227Y183204D01*
X130004Y183538D01*
X132190Y185724D01*
X132524Y185501D01*
X132520Y185491D01*
Y185060D01*
X132685Y184662D01*
X132989Y184358D01*
X133387Y184193D01*
X133818D01*
X134216Y184358D01*
X134520Y184662D01*
X134685Y185060D01*
Y185491D01*
X134520Y185889D01*
X134216Y186193D01*
X133818Y186358D01*
X133387D01*
X133377Y186354D01*
X133153Y186688D01*
X133808Y187343D01*
X133818D01*
X134216Y187507D01*
X134520Y187812D01*
X134685Y188210D01*
Y188641D01*
X134520Y189039D01*
X134514Y189045D01*
Y194724D01*
X134444Y195073D01*
X134247Y195369D01*
X133153Y196462D01*
X133377Y196796D01*
X133387Y196791D01*
X133818D01*
X134216Y196956D01*
X134520Y197261D01*
X134685Y197659D01*
Y198089D01*
X134520Y198487D01*
X134216Y198792D01*
X133818Y198957D01*
X133387D01*
X132989Y198792D01*
X132685Y198487D01*
X132520Y198089D01*
Y197659D01*
X132524Y197648D01*
X132190Y197425D01*
X131535Y198080D01*
Y198089D01*
X131371Y198487D01*
X131066Y198792D01*
X130668Y198957D01*
X130659D01*
X129993Y199623D01*
X130216Y199956D01*
X130253Y199941D01*
X130684D01*
X131082Y200106D01*
X131386Y200410D01*
X131551Y200808D01*
Y201239D01*
X131386Y201637D01*
X131082Y201941D01*
X130684Y202106D01*
X130253D01*
X130191Y202080D01*
X129797Y202344D01*
Y202591D01*
X129728Y202939D01*
X129530Y203235D01*
X128386Y204379D01*
Y204381D01*
X128221Y204779D01*
X128214Y204785D01*
Y214817D01*
X128145Y215166D01*
X127947Y215461D01*
X125159Y218250D01*
X125181Y218360D01*
X125073Y218904D01*
X124765Y219365D01*
X124304Y219673D01*
X123760Y219781D01*
X123216Y219673D01*
X122755Y219365D01*
X114746Y211356D01*
X114438Y210895D01*
X114329Y210351D01*
Y141250D01*
X114438Y140706D01*
X114746Y140245D01*
X122095Y132895D01*
X122556Y132587D01*
X123100Y132479D01*
X123644Y132587D01*
X124105Y132895D01*
X124413Y133356D01*
X124521Y133900D01*
X124413Y134444D01*
X124105Y134905D01*
X117171Y141838D01*
Y163136D01*
X117565Y163334D01*
X118012Y163149D01*
X118638D01*
X119217Y163389D01*
X119660Y163832D01*
X119900Y164410D01*
Y165037D01*
X119660Y165616D01*
X119217Y166059D01*
X118638Y166298D01*
X118012D01*
X117565Y166113D01*
X117171Y166311D01*
Y209762D01*
X124120Y216711D01*
X126392Y214440D01*
Y204785D01*
X126385Y204779D01*
X126221Y204381D01*
Y203950D01*
X126385Y203552D01*
X126690Y203247D01*
X127088Y203083D01*
X127105D01*
X127975Y202213D01*
Y199441D01*
X128028Y199172D01*
X127863Y198972D01*
X127716Y198875D01*
X127518Y198957D01*
X127088D01*
X126690Y198792D01*
X126385Y198487D01*
X126221Y198089D01*
Y197720D01*
X124945Y196444D01*
X124802Y196231D01*
X124752Y195979D01*
Y171200D01*
X124802Y170949D01*
X124945Y170736D01*
X127950Y167731D01*
X128163Y167588D01*
X128414Y167539D01*
X138569D01*
X138820Y167588D01*
X139033Y167731D01*
X152346Y181043D01*
X152715D01*
X153113Y181208D01*
X153418Y181513D01*
X153583Y181911D01*
Y182341D01*
X153418Y182739D01*
X153113Y183044D01*
X152715Y183209D01*
X152285D01*
X151887Y183044D01*
X151582Y182739D01*
X151417Y182341D01*
Y181972D01*
X138417Y168971D01*
X138073Y168997D01*
X137835Y169312D01*
Y169706D01*
X143208Y175080D01*
X143395Y175531D01*
Y206360D01*
X144776Y207740D01*
X145083Y207559D01*
X145118Y207526D01*
Y207107D01*
X145283Y206710D01*
X145588Y206405D01*
X145985Y206240D01*
X146416D01*
X146814Y206405D01*
X147119Y206710D01*
X147283Y207107D01*
Y207538D01*
X147119Y207936D01*
X146814Y208241D01*
X146416Y208405D01*
X145998D01*
X145965Y208441D01*
X145783Y208748D01*
X147925Y210890D01*
X148232Y210709D01*
X148268Y210676D01*
Y210257D01*
X148433Y209859D01*
X148737Y209555D01*
X149135Y209390D01*
X149566D01*
X149964Y209555D01*
X150268Y209859D01*
X150433Y210257D01*
Y210688D01*
X150420Y210719D01*
X150683Y211113D01*
X154317D01*
X154580Y210719D01*
X154567Y210688D01*
Y210257D01*
X154732Y209859D01*
X154840Y209751D01*
Y208045D01*
X154732Y207936D01*
X154567Y207538D01*
Y207107D01*
X154732Y206710D01*
X155036Y206405D01*
X155434Y206240D01*
X155588D01*
X156323Y205505D01*
Y199692D01*
X155650Y199019D01*
X154647Y200021D01*
X154385Y200197D01*
X154075Y200258D01*
X154075Y200258D01*
X151260D01*
X150433Y201085D01*
Y201239D01*
X150268Y201637D01*
X149964Y201941D01*
X149566Y202106D01*
X149135D01*
X148737Y201941D01*
X148433Y201637D01*
X148268Y201239D01*
Y200808D01*
X148433Y200410D01*
X148737Y200106D01*
X149135Y199941D01*
X149289D01*
X150045Y199184D01*
X149822Y198850D01*
X149566Y198957D01*
X149135D01*
X148737Y198792D01*
X148433Y198487D01*
X148268Y198089D01*
Y197659D01*
X148433Y197261D01*
X148737Y196956D01*
X149135Y196791D01*
X149566D01*
X149964Y196956D01*
X150268Y197261D01*
X150433Y197659D01*
Y198089D01*
X150284Y198449D01*
X150298Y198474D01*
X150616Y198701D01*
X150925Y198640D01*
X151220D01*
X151482Y198246D01*
X151417Y198089D01*
Y197659D01*
X151582Y197261D01*
X151887Y196956D01*
X152285Y196791D01*
X152715D01*
X153113Y196956D01*
X153418Y197261D01*
X153583Y197659D01*
Y198089D01*
X153895Y198365D01*
X153992Y198387D01*
X154567Y197812D01*
Y197659D01*
X154732Y197261D01*
X154738Y197254D01*
Y191952D01*
X152294Y189508D01*
X152285D01*
X151887Y189343D01*
X151582Y189039D01*
X151417Y188641D01*
Y188210D01*
X151582Y187812D01*
X151887Y187507D01*
X152285Y187343D01*
X152294D01*
X152949Y186688D01*
X152726Y186354D01*
X152715Y186358D01*
X152285D01*
X151887Y186193D01*
X151582Y185889D01*
X151417Y185491D01*
Y185060D01*
X151582Y184662D01*
X151887Y184358D01*
X152285Y184193D01*
X152715D01*
X153113Y184358D01*
X153418Y184662D01*
X153583Y185060D01*
Y185491D01*
X153578Y185502D01*
X153912Y185724D01*
X154409Y185227D01*
X154705Y185030D01*
X155053Y184960D01*
X155834D01*
X157781Y183013D01*
Y182397D01*
X155444Y180059D01*
X155434D01*
X155036Y179894D01*
X154732Y179590D01*
X154567Y179192D01*
Y178761D01*
X154732Y178363D01*
X154738Y178357D01*
Y173297D01*
X154732Y173291D01*
X154567Y172892D01*
Y172462D01*
X154732Y172064D01*
X155036Y171759D01*
X155434Y171595D01*
X155865D01*
X156263Y171759D01*
X156567Y172064D01*
X156732Y172462D01*
Y172892D01*
X156567Y173291D01*
X156561Y173297D01*
Y178357D01*
X156567Y178363D01*
X156732Y178761D01*
Y178770D01*
X157661Y179699D01*
X158025Y179548D01*
Y159580D01*
X157942Y159545D01*
X157499Y159102D01*
X157259Y158523D01*
Y157897D01*
X157449Y157438D01*
X157258Y157045D01*
X152876D01*
X152107Y157814D01*
X152141Y157897D01*
Y158523D01*
X151901Y159102D01*
X151458Y159545D01*
X150879Y159785D01*
X150253D01*
X149674Y159545D01*
X149231Y159102D01*
X148991Y158523D01*
Y157897D01*
X149231Y157318D01*
X149674Y156875D01*
X150253Y156635D01*
X150879D01*
X150962Y156670D01*
X151969Y155663D01*
X152231Y155488D01*
X152541Y155426D01*
X152541Y155426D01*
X159652D01*
X159652Y155426D01*
X159961Y155488D01*
X160224Y155663D01*
X173531Y168970D01*
X173707Y169233D01*
X173768Y169543D01*
Y182007D01*
X178414Y186653D01*
X178414Y186653D01*
X178590Y186916D01*
X178651Y187225D01*
X178651Y187225D01*
Y187607D01*
X178655Y187611D01*
X179040Y187783D01*
X179438Y187618D01*
X179869D01*
X180144Y187306D01*
X180167Y187209D01*
X179081Y186123D01*
X178906Y185861D01*
X178844Y185551D01*
X178844Y185551D01*
Y183124D01*
X178736Y183015D01*
X178571Y182617D01*
Y182186D01*
X178736Y181788D01*
X178844Y181680D01*
Y176438D01*
X176442Y174035D01*
X176289D01*
X175891Y173871D01*
X175586Y173566D01*
X175421Y173168D01*
Y172737D01*
X175586Y172339D01*
X175891Y172035D01*
X176289Y171870D01*
X176719D01*
X177117Y172035D01*
X177422Y172339D01*
X177587Y172737D01*
Y172891D01*
X180226Y175530D01*
X180401Y175793D01*
X180463Y176102D01*
Y179910D01*
X180857Y180121D01*
X180919Y180079D01*
X181228Y180017D01*
X181228Y180017D01*
X184378D01*
X184378Y180017D01*
X184378Y180017D01*
X184673D01*
X184935Y179624D01*
X184870Y179467D01*
Y179037D01*
X185035Y178639D01*
X185339Y178334D01*
X185737Y178169D01*
X186168D01*
X186566Y178334D01*
X186871Y178639D01*
X187035Y179037D01*
Y179467D01*
X187347Y179743D01*
X187445Y179765D01*
X188020Y179190D01*
Y179037D01*
X188184Y178639D01*
X188489Y178334D01*
X188887Y178169D01*
X189318D01*
X189716Y178334D01*
X190020Y178639D01*
X190185Y179037D01*
Y179467D01*
X190020Y179865D01*
X189716Y180170D01*
X189318Y180335D01*
X189164D01*
X188407Y181091D01*
X188630Y181425D01*
X188887Y181319D01*
X189318D01*
X189716Y181484D01*
X190020Y181788D01*
X190185Y182186D01*
Y182617D01*
X190020Y183015D01*
X189716Y183319D01*
X189318Y183484D01*
X188887D01*
X188489Y183319D01*
X188184Y183015D01*
X188020Y182617D01*
Y182186D01*
X188169Y181826D01*
X188155Y181802D01*
X187837Y181574D01*
X187528Y181636D01*
X187528Y181636D01*
X187233D01*
X186971Y182030D01*
X187035Y182186D01*
Y182617D01*
X186871Y183015D01*
X186566Y183319D01*
X186168Y183484D01*
X185737D01*
X185339Y183319D01*
X185035Y183015D01*
X184870Y182617D01*
Y182186D01*
X184935Y182030D01*
X184673Y181636D01*
X184378D01*
X184378Y181636D01*
X181564D01*
X180736Y182463D01*
Y182617D01*
X180571Y183015D01*
X180463Y183124D01*
Y185216D01*
X181493Y186246D01*
X181827Y186023D01*
X181720Y185766D01*
Y185336D01*
X181885Y184938D01*
X182190Y184633D01*
X182588Y184468D01*
X183019D01*
X183416Y184633D01*
X183721Y184938D01*
X183886Y185336D01*
Y185766D01*
X183721Y186164D01*
X183416Y186469D01*
X183019Y186634D01*
X182588D01*
X182228Y186485D01*
X182203Y186498D01*
X181976Y186816D01*
X182038Y187126D01*
Y187421D01*
X182431Y187683D01*
X182588Y187618D01*
X183019D01*
X183416Y187783D01*
X183721Y188087D01*
X183886Y188485D01*
Y188916D01*
X183721Y189314D01*
X183416Y189619D01*
X183019Y189784D01*
X182588D01*
X182312Y190095D01*
X182290Y190193D01*
X182865Y190768D01*
X183019D01*
X183416Y190933D01*
X183721Y191237D01*
X183886Y191635D01*
Y192066D01*
X183721Y192464D01*
X183416Y192768D01*
X183019Y192933D01*
X182588D01*
X182331Y192827D01*
X182108Y193160D01*
X184621Y195673D01*
X187783D01*
X188046Y195280D01*
X188020Y195215D01*
Y194785D01*
X188184Y194387D01*
X188489Y194082D01*
X188887Y193917D01*
X189318D01*
X189716Y194082D01*
X190020Y194387D01*
X190185Y194785D01*
Y195215D01*
X190158Y195280D01*
X190421Y195673D01*
X190593D01*
X190593Y195673D01*
X190903Y195735D01*
X191165Y195910D01*
X192314Y197059D01*
X192467D01*
X192731Y197169D01*
X193125Y196969D01*
Y193023D01*
X192731Y192824D01*
X192467Y192933D01*
X192037D01*
X191639Y192768D01*
X191334Y192464D01*
X191169Y192066D01*
Y191635D01*
X191334Y191237D01*
X191639Y190933D01*
X192037Y190768D01*
X192467D01*
X192731Y190877D01*
X193125Y190678D01*
Y190019D01*
X192731Y189756D01*
X192664Y189784D01*
X192234D01*
X191835Y189619D01*
X191531Y189314D01*
X191366Y188916D01*
Y188485D01*
X191531Y188087D01*
X191835Y187783D01*
X192234Y187618D01*
X192664D01*
X192731Y187646D01*
X193125Y187383D01*
Y186712D01*
X192731Y186516D01*
X192461Y186628D01*
X192031D01*
X191633Y186463D01*
X191328Y186159D01*
X191163Y185761D01*
Y185330D01*
X191328Y184932D01*
X191633Y184627D01*
X192031Y184463D01*
X192461D01*
X192731Y184574D01*
X193125Y184379D01*
Y184006D01*
X192603Y183484D01*
X192234D01*
X191835Y183319D01*
X191531Y183015D01*
X191366Y182617D01*
Y182186D01*
X191531Y181788D01*
X191835Y181484D01*
X192234Y181319D01*
X192664D01*
X193062Y181484D01*
X193367Y181788D01*
X193532Y182186D01*
Y182556D01*
X194031Y183056D01*
X194379Y182947D01*
X194434Y182910D01*
D01*
X194439Y182907D01*
X194319Y182617D01*
Y182186D01*
X194484Y181788D01*
X194788Y181484D01*
X195186Y181319D01*
X195617D01*
X195627Y181323D01*
X195851Y180990D01*
X190515Y175654D01*
X190181Y175876D01*
X190185Y175887D01*
Y176318D01*
X190020Y176716D01*
X189716Y177020D01*
X189318Y177185D01*
X188887D01*
X188489Y177020D01*
X188184Y176716D01*
X188020Y176318D01*
Y175887D01*
X188042Y175832D01*
X187779Y175439D01*
X187528D01*
X187179Y175369D01*
X186883Y175172D01*
X159180Y147469D01*
X151458D01*
X151109Y147399D01*
X150813Y147202D01*
X138256Y134644D01*
X138058Y134349D01*
X137989Y134000D01*
Y119166D01*
X138058Y118817D01*
X138256Y118521D01*
X146071Y110706D01*
X146367Y110509D01*
X146715Y110439D01*
X165019D01*
X170172Y105286D01*
Y104687D01*
X170412Y104108D01*
X170855Y103665D01*
X171434Y103425D01*
X172061D01*
X172639Y103665D01*
X173082Y104108D01*
X173322Y104687D01*
Y105313D01*
X173082Y105892D01*
X172639Y106335D01*
X172061Y106575D01*
X171461D01*
X166041Y111995D01*
X165745Y112192D01*
X165397Y112262D01*
X147093D01*
X142993Y116361D01*
X143135Y116776D01*
X143592Y116965D01*
X144035Y117408D01*
X144275Y117987D01*
Y118613D01*
X144035Y119192D01*
X143592Y119635D01*
X143013Y119875D01*
X142387D01*
X141808Y119635D01*
X141365Y119192D01*
X141176Y118735D01*
X140761Y118593D01*
X139811Y119543D01*
Y133623D01*
X151835Y145646D01*
X159557D01*
X159906Y145716D01*
X160202Y145913D01*
X184541Y170252D01*
X184874Y170029D01*
X184870Y170018D01*
Y169588D01*
X185035Y169190D01*
X185339Y168885D01*
X185737Y168720D01*
X186168D01*
X186566Y168885D01*
X186871Y169190D01*
X187035Y169588D01*
Y170018D01*
X186871Y170416D01*
X186566Y170721D01*
X186168Y170886D01*
X185737D01*
X185727Y170881D01*
X185504Y171215D01*
X187701Y173413D01*
X188035Y173190D01*
X188020Y173152D01*
Y172722D01*
X188184Y172324D01*
X188489Y172019D01*
X188887Y171854D01*
X189318D01*
X189663Y171997D01*
X189686Y171982D01*
X189929Y171688D01*
X189868Y171378D01*
X189868Y171378D01*
Y171083D01*
X189474Y170821D01*
X189318Y170886D01*
X188887D01*
X188489Y170721D01*
X188184Y170416D01*
X188020Y170018D01*
Y169588D01*
X188184Y169190D01*
X188489Y168885D01*
X188887Y168720D01*
X189318D01*
X189474Y168785D01*
X189868Y168523D01*
Y156056D01*
X177838Y144026D01*
X177685D01*
X177287Y143861D01*
X176982Y143557D01*
X176817Y143159D01*
Y142728D01*
X176982Y142330D01*
X177287Y142025D01*
X177685Y141861D01*
X178115D01*
X178513Y142025D01*
X178818Y142330D01*
X178983Y142728D01*
Y142882D01*
X191249Y155148D01*
X191249Y155148D01*
X191425Y155411D01*
X191486Y155720D01*
X191486Y155720D01*
Y165374D01*
X191880Y165636D01*
X192037Y165571D01*
X192467D01*
X192865Y165736D01*
X193170Y166040D01*
X193335Y166438D01*
Y166869D01*
X193170Y167267D01*
X192865Y167571D01*
X192467Y167736D01*
X192037D01*
X191880Y167671D01*
X191486Y167933D01*
Y168539D01*
X191880Y168801D01*
X192037Y168736D01*
X192467D01*
X192865Y168901D01*
X193170Y169206D01*
X193335Y169604D01*
Y170034D01*
X193170Y170432D01*
X192865Y170737D01*
X192467Y170902D01*
X192037D01*
X191743Y171206D01*
X191722Y171278D01*
X194091Y173648D01*
X194425Y173425D01*
X194319Y173168D01*
Y172737D01*
X194484Y172339D01*
X194788Y172035D01*
X195186Y171870D01*
X195617D01*
X195773Y171935D01*
X196167Y171673D01*
Y171083D01*
X195773Y170821D01*
X195617Y170886D01*
X195186D01*
X194788Y170721D01*
X194484Y170416D01*
X194319Y170018D01*
Y169588D01*
X194484Y169190D01*
X194788Y168885D01*
X195186Y168720D01*
X195617D01*
X195892Y168408D01*
X195915Y168311D01*
X195340Y167736D01*
X195186D01*
X194788Y167571D01*
X194484Y167267D01*
X194319Y166869D01*
Y166438D01*
X194484Y166040D01*
X194490Y166034D01*
Y164415D01*
X194560Y164067D01*
X194757Y163771D01*
X197251Y161277D01*
X197547Y161079D01*
X197896Y161010D01*
X203268D01*
X203616Y161079D01*
X203912Y161277D01*
X205056Y162421D01*
X205066D01*
X205128Y162447D01*
X205522Y162184D01*
Y159368D01*
X205094Y158940D01*
X204896Y158644D01*
X204827Y158295D01*
Y156205D01*
X197599Y148977D01*
X192984D01*
X192599Y149362D01*
X192559Y149389D01*
X192360Y149871D01*
X191917Y150314D01*
X191338Y150554D01*
X190711D01*
X190132Y150314D01*
X189690Y149871D01*
X189450Y149292D01*
Y148665D01*
X189690Y148087D01*
X190132Y147644D01*
X190711Y147404D01*
X191338D01*
X191792Y147592D01*
X191962Y147422D01*
X192258Y147224D01*
X192606Y147155D01*
X197976D01*
X198325Y147224D01*
X198620Y147422D01*
X198650Y147452D01*
X199014Y147301D01*
Y141583D01*
X198590Y141159D01*
X198350Y140580D01*
Y139954D01*
X198590Y139375D01*
X199033Y138932D01*
X199612Y138692D01*
X200238D01*
X200817Y138932D01*
X201260Y139375D01*
X201500Y139954D01*
Y140580D01*
X201260Y141159D01*
X200836Y141583D01*
Y147667D01*
X207542Y154373D01*
X207816Y154576D01*
X208082Y154374D01*
X219417Y143038D01*
Y142885D01*
X219582Y142487D01*
X219887Y142182D01*
X220285Y142017D01*
X220715D01*
X221113Y142182D01*
X221418Y142487D01*
X221583Y142885D01*
Y143315D01*
X221418Y143713D01*
X221113Y144018D01*
X220715Y144183D01*
X220562D01*
X210349Y154396D01*
X210512Y154789D01*
X210713D01*
X211292Y155029D01*
X211735Y155472D01*
X211975Y156051D01*
Y156677D01*
X211941Y156760D01*
X213205Y158024D01*
X213380Y158287D01*
X213441Y158597D01*
Y162300D01*
X213835Y162518D01*
X214068Y162421D01*
X214499D01*
X214897Y162586D01*
X215201Y162891D01*
X215366Y163289D01*
Y163719D01*
X215201Y164117D01*
X214897Y164422D01*
X214499Y164587D01*
X214068D01*
X213835Y164490D01*
X213441Y164708D01*
Y166748D01*
X214189Y167496D01*
X216261D01*
X216478Y167102D01*
X216382Y166869D01*
Y166438D01*
X216547Y166040D01*
X216851Y165736D01*
X217249Y165571D01*
X217680D01*
X218078Y165736D01*
X218382Y166040D01*
X218547Y166438D01*
Y166869D01*
X218451Y167102D01*
X218668Y167496D01*
X219100D01*
X219100Y167496D01*
X219410Y167557D01*
X219423Y167566D01*
X219681Y167267D01*
X219516Y166869D01*
Y166438D01*
X219681Y166040D01*
X219985Y165736D01*
X220383Y165571D01*
X220814D01*
X221212Y165736D01*
X221516Y166040D01*
X221681Y166438D01*
Y166869D01*
X221516Y167267D01*
X221212Y167571D01*
X220814Y167736D01*
X220383D01*
X220126Y167630D01*
X219903Y167964D01*
X220660Y168720D01*
X220814D01*
X221212Y168885D01*
X221516Y169190D01*
X221681Y169588D01*
Y169741D01*
X222438Y170498D01*
X222772Y170275D01*
X222665Y170018D01*
Y169588D01*
X222830Y169190D01*
X223135Y168885D01*
X223533Y168720D01*
X223963D01*
X224361Y168885D01*
X224666Y169190D01*
X224831Y169588D01*
Y170018D01*
X224666Y170416D01*
X224361Y170721D01*
X223963Y170886D01*
X223533D01*
X223173Y170737D01*
X223148Y170750D01*
X222921Y171068D01*
X222983Y171378D01*
Y171673D01*
X223376Y171935D01*
X223533Y171870D01*
X223963D01*
X224361Y172035D01*
X224666Y172339D01*
X224831Y172737D01*
Y173168D01*
X224666Y173566D01*
X224361Y173871D01*
X223963Y174035D01*
X223533D01*
X223376Y173971D01*
X222983Y174233D01*
Y174822D01*
X223376Y175084D01*
X223533Y175020D01*
X223963D01*
X224361Y175185D01*
X224666Y175489D01*
X224831Y175887D01*
Y176318D01*
X224666Y176716D01*
X224361Y177020D01*
X223963Y177185D01*
X223533D01*
X223257Y177497D01*
X223235Y177594D01*
X223810Y178169D01*
X223963D01*
X224361Y178334D01*
X224666Y178639D01*
X224831Y179037D01*
Y179467D01*
X224666Y179865D01*
X224361Y180170D01*
X223963Y180335D01*
X223533D01*
X223135Y180170D01*
X222830Y179865D01*
X222665Y179467D01*
Y179314D01*
X221908Y178557D01*
X221575Y178780D01*
X221681Y179037D01*
Y179467D01*
X221516Y179865D01*
X221212Y180170D01*
X220814Y180335D01*
X220383D01*
X219985Y180170D01*
X219681Y179865D01*
X219516Y179467D01*
Y179037D01*
X219681Y178639D01*
X219985Y178334D01*
X220383Y178169D01*
X220814D01*
X221174Y178318D01*
X221198Y178305D01*
X221426Y177987D01*
X221364Y177677D01*
X221364Y177677D01*
Y177382D01*
X220970Y177120D01*
X220814Y177185D01*
X220383D01*
X219985Y177020D01*
X219681Y176716D01*
X219516Y176318D01*
Y175887D01*
X219681Y175489D01*
X219985Y175185D01*
X220383Y175020D01*
X220814D01*
X220970Y175084D01*
X221364Y174822D01*
Y174233D01*
X220970Y173971D01*
X220814Y174035D01*
X220383D01*
X219985Y173871D01*
X219681Y173566D01*
X219516Y173168D01*
Y172737D01*
X219681Y172339D01*
X219985Y172035D01*
X220383Y171870D01*
X220814D01*
X221089Y171558D01*
X221111Y171461D01*
X220537Y170886D01*
X220383D01*
X219985Y170721D01*
X219681Y170416D01*
X219516Y170018D01*
Y169865D01*
X219047Y169396D01*
X218885Y169412D01*
X218531Y169588D01*
Y170018D01*
X218367Y170416D01*
X218062Y170721D01*
X217664Y170886D01*
X217233D01*
X216835Y170721D01*
X216531Y170416D01*
X216366Y170018D01*
Y169588D01*
X216399Y169508D01*
X216136Y169114D01*
X215602D01*
X215339Y169508D01*
X215366Y169572D01*
Y170003D01*
X215201Y170401D01*
X214897Y170705D01*
X214499Y170870D01*
X214068D01*
X213670Y170705D01*
X213366Y170401D01*
X213201Y170003D01*
Y169572D01*
X213366Y169174D01*
X213281Y168877D01*
X212060Y167656D01*
X212021Y167597D01*
X211763Y167571D01*
X211365Y167736D01*
X210934D01*
X210854Y167703D01*
X210460Y167966D01*
Y168491D01*
X210854Y168754D01*
X210934Y168720D01*
X211365D01*
X211763Y168885D01*
X212067Y169190D01*
X212232Y169588D01*
Y170018D01*
X212067Y170416D01*
X211763Y170721D01*
X211365Y170886D01*
X210934D01*
X210854Y170853D01*
X210460Y171116D01*
Y171640D01*
X210854Y171903D01*
X210934Y171870D01*
X211365D01*
X211763Y172035D01*
X212067Y172339D01*
X212232Y172737D01*
Y173168D01*
X212067Y173566D01*
X211763Y173871D01*
X211365Y174035D01*
X210934D01*
X210854Y174002D01*
X210460Y174265D01*
Y174783D01*
X210854Y175046D01*
X210918Y175020D01*
X211349D01*
X211747Y175185D01*
X212052Y175489D01*
X212216Y175887D01*
Y176318D01*
X212052Y176716D01*
X211747Y177020D01*
X211349Y177185D01*
X210918D01*
X210697Y177516D01*
X210684Y177627D01*
X211211Y178154D01*
X211365D01*
X211763Y178318D01*
X212067Y178623D01*
X212232Y179021D01*
Y179452D01*
X212206Y179514D01*
X212470Y179908D01*
X212717D01*
X213065Y179977D01*
X213361Y180175D01*
X214505Y181319D01*
X214515D01*
X214913Y181484D01*
X215217Y181788D01*
X215382Y182186D01*
Y182617D01*
X215217Y183015D01*
X214913Y183319D01*
X214515Y183484D01*
X214505D01*
X213628Y184362D01*
Y186741D01*
X214505Y187618D01*
X214515D01*
X214913Y187783D01*
X215217Y188087D01*
X215382Y188485D01*
Y188916D01*
X215217Y189314D01*
X214913Y189619D01*
X214515Y189784D01*
X214084D01*
X213686Y189619D01*
X213381Y189314D01*
X213216Y188916D01*
Y188907D01*
X212072Y187762D01*
X211875Y187467D01*
X211805Y187118D01*
Y186871D01*
X211412Y186608D01*
X211349Y186634D01*
X210918D01*
X210521Y186469D01*
X210216Y186164D01*
X210051Y185766D01*
Y185336D01*
X210216Y184938D01*
X210521Y184633D01*
X210918Y184468D01*
X211349D01*
X211412Y184494D01*
X211805Y184231D01*
Y183984D01*
X211875Y183635D01*
X212072Y183340D01*
X213011Y182402D01*
X212339Y181730D01*
X210494D01*
X210145Y181661D01*
X209850Y181463D01*
X207708Y179322D01*
X207344Y179472D01*
Y198805D01*
X207329Y198884D01*
Y199979D01*
X207722Y200242D01*
X207785Y200217D01*
X208215D01*
X208613Y200381D01*
X208918Y200686D01*
X209083Y201084D01*
Y201515D01*
X208918Y201912D01*
X208613Y202217D01*
X208215Y202382D01*
X207785D01*
X207761Y202372D01*
X207538Y202706D01*
X211348Y206516D01*
X211357D01*
X211755Y206681D01*
X211987Y206912D01*
X212329Y206823D01*
X212381Y206792D01*
Y197620D01*
X212568Y197168D01*
X216122Y193613D01*
X216574Y193426D01*
X222941D01*
X223184Y193145D01*
X223135Y192768D01*
X222830Y192464D01*
X222665Y192066D01*
Y191635D01*
X222830Y191237D01*
X223135Y190933D01*
X223533Y190768D01*
X223963D01*
X224361Y190933D01*
X224549Y191120D01*
X224959Y191080D01*
X225001Y191058D01*
X225019Y191016D01*
X226093Y189942D01*
X226196Y189768D01*
X226107Y189441D01*
X225980Y189314D01*
X225815Y188916D01*
Y188485D01*
X225980Y188087D01*
X226284Y187783D01*
X226682Y187618D01*
X227113D01*
X227511Y187783D01*
X227816Y188087D01*
X227925Y188109D01*
X229065Y186969D01*
X229339Y186856D01*
X229380Y186689D01*
X229383Y186418D01*
X229129Y186164D01*
X228965Y185766D01*
Y185336D01*
X229129Y184938D01*
X229434Y184633D01*
X229832Y184468D01*
X230263D01*
X230661Y184633D01*
X230965Y184938D01*
X231130Y185336D01*
Y185766D01*
X230965Y186164D01*
X230741Y186388D01*
X230850Y186763D01*
X230862Y186782D01*
X232382D01*
X232394Y186763D01*
X232503Y186388D01*
X232279Y186164D01*
X232114Y185766D01*
Y185336D01*
X232279Y184938D01*
X232584Y184633D01*
X232981Y184468D01*
X233412D01*
X233772Y184617D01*
X233797Y184604D01*
X234024Y184286D01*
X233962Y183976D01*
X233962Y183976D01*
Y183681D01*
X233569Y183419D01*
X233412Y183484D01*
X232981D01*
X232584Y183319D01*
X232279Y183015D01*
X232114Y182617D01*
Y182186D01*
X232279Y181788D01*
X232584Y181484D01*
X232981Y181319D01*
X233412D01*
X233569Y181384D01*
X233962Y181122D01*
Y180532D01*
X233569Y180270D01*
X233412Y180335D01*
X232981D01*
X232584Y180170D01*
X232279Y179865D01*
X232114Y179467D01*
Y179037D01*
X232279Y178639D01*
X232584Y178334D01*
X232981Y178169D01*
X233412D01*
X233688Y177857D01*
X233710Y177760D01*
X233135Y177185D01*
X232981D01*
X232584Y177020D01*
X232279Y176716D01*
X232114Y176318D01*
Y176164D01*
X231357Y175407D01*
X231024Y175630D01*
X231130Y175887D01*
Y176318D01*
X230965Y176716D01*
X230661Y177020D01*
X230263Y177185D01*
X229832D01*
X229434Y177020D01*
X229129Y176716D01*
X228965Y176318D01*
Y175887D01*
X229129Y175489D01*
X229434Y175185D01*
X229832Y175020D01*
X230263D01*
X230622Y175169D01*
X230647Y175155D01*
X230874Y174837D01*
X230813Y174528D01*
X230813Y174528D01*
Y174233D01*
X230419Y173971D01*
X230263Y174035D01*
X229832D01*
X229434Y173871D01*
X229129Y173566D01*
X228965Y173168D01*
Y172737D01*
X229129Y172339D01*
X229434Y172035D01*
X229832Y171870D01*
X230263D01*
X230419Y171935D01*
X230813Y171673D01*
Y171083D01*
X230419Y170821D01*
X230263Y170886D01*
X229832D01*
X229434Y170721D01*
X229129Y170416D01*
X228965Y170018D01*
Y169588D01*
X229129Y169190D01*
X229434Y168885D01*
X229832Y168720D01*
X230263D01*
X230538Y168408D01*
X230560Y168311D01*
X229985Y167736D01*
X229832D01*
X229434Y167571D01*
X229129Y167267D01*
X228965Y166869D01*
Y166438D01*
X229129Y166040D01*
X229434Y165736D01*
X229832Y165571D01*
X229841D01*
X230480Y164932D01*
X230257Y164598D01*
X230247Y164602D01*
X229816D01*
X229418Y164437D01*
X229114Y164133D01*
X228949Y163735D01*
Y163304D01*
X229114Y162906D01*
X229418Y162602D01*
X229481Y162576D01*
X229573Y162112D01*
X228261Y160800D01*
X220336D01*
X219987Y160731D01*
X219692Y160533D01*
X217386Y158228D01*
X216787D01*
X216208Y157988D01*
X215765Y157545D01*
X215525Y156966D01*
Y156340D01*
X215765Y155761D01*
X216208Y155318D01*
X216787Y155078D01*
X217413D01*
X217992Y155318D01*
X218435Y155761D01*
X218675Y156340D01*
Y156939D01*
X220713Y158978D01*
X228261D01*
X233025Y154214D01*
X233321Y154016D01*
X233669Y153947D01*
X236673D01*
X237022Y154016D01*
X237318Y154214D01*
X238654Y155550D01*
X238851Y155846D01*
X238921Y156194D01*
Y161538D01*
X239870Y162487D01*
X240109Y162586D01*
X240414Y162891D01*
X240579Y163289D01*
Y163719D01*
X240414Y164117D01*
X240109Y164422D01*
X239711Y164587D01*
X239281D01*
X238883Y164422D01*
X238578Y164117D01*
X238413Y163719D01*
Y163608D01*
X237686Y162880D01*
X237352Y163103D01*
X237429Y163289D01*
Y163719D01*
X237264Y164117D01*
X236960Y164422D01*
X236562Y164587D01*
X236131D01*
X235733Y164422D01*
X235640Y164329D01*
X235246Y164492D01*
Y165666D01*
X235640Y165829D01*
X235733Y165736D01*
X236131Y165571D01*
X236562D01*
X236960Y165736D01*
X237264Y166040D01*
X237429Y166438D01*
Y166869D01*
X237264Y167267D01*
X236960Y167571D01*
X236562Y167736D01*
X236131D01*
X235733Y167571D01*
X235640Y167478D01*
X235246Y167641D01*
Y171542D01*
X235059Y171994D01*
X234279Y172774D01*
Y173168D01*
X234115Y173566D01*
X233810Y173871D01*
X233412Y174035D01*
X232981D01*
X232706Y174347D01*
X232684Y174445D01*
X233259Y175020D01*
X233412D01*
X233810Y175185D01*
X234115Y175489D01*
X234279Y175887D01*
Y176041D01*
X235036Y176797D01*
X235370Y176574D01*
X235264Y176318D01*
Y175887D01*
X235429Y175489D01*
X235733Y175185D01*
X236131Y175020D01*
X236562D01*
X236960Y175185D01*
X237264Y175489D01*
X237429Y175887D01*
Y176318D01*
X237264Y176716D01*
X236960Y177020D01*
X236562Y177185D01*
X236131D01*
X235771Y177036D01*
X235747Y177050D01*
X235519Y177367D01*
X235581Y177677D01*
Y177972D01*
X235975Y178234D01*
X236131Y178169D01*
X236562D01*
X236960Y178334D01*
X237264Y178639D01*
X237429Y179037D01*
Y179467D01*
X237264Y179865D01*
X236960Y180170D01*
X236562Y180335D01*
X236131D01*
X235975Y180270D01*
X235581Y180532D01*
Y181122D01*
X235975Y181384D01*
X236131Y181319D01*
X236562D01*
X236960Y181484D01*
X237264Y181788D01*
X237429Y182186D01*
Y182617D01*
X237264Y183015D01*
X236960Y183319D01*
X236562Y183484D01*
X236131D01*
X235856Y183796D01*
X235833Y183894D01*
X236408Y184468D01*
X236562D01*
X236960Y184633D01*
X237264Y184938D01*
X237429Y185336D01*
Y185766D01*
X237264Y186164D01*
X237040Y186388D01*
X237149Y186763D01*
X237161Y186782D01*
X244832D01*
X244911Y186388D01*
X244887Y186379D01*
X244582Y186074D01*
X244417Y185676D01*
Y185245D01*
X244582Y184847D01*
X244887Y184543D01*
X245285Y184378D01*
X245715D01*
X246113Y184543D01*
X246418Y184847D01*
X246583Y185245D01*
Y185676D01*
X246418Y186074D01*
X246113Y186379D01*
X246089Y186388D01*
X246168Y186782D01*
X247535D01*
X247987Y186969D01*
X250658Y189640D01*
X251667D01*
X251930Y189247D01*
X251917Y189215D01*
Y188785D01*
X252082Y188387D01*
X252387Y188082D01*
X252785Y187917D01*
X253215D01*
X253613Y188082D01*
X253918Y188387D01*
X254083Y188785D01*
Y189215D01*
X254070Y189247D01*
X254262Y189608D01*
X254325Y189659D01*
X254731Y189828D01*
X257821Y192917D01*
X258215D01*
X258613Y193082D01*
X258918Y193387D01*
X258931Y193418D01*
X259358Y193548D01*
X259375Y193541D01*
X259809Y193361D01*
X262108D01*
X262387Y193082D01*
X262785Y192917D01*
X263215D01*
X263613Y193082D01*
X263918Y193387D01*
X264083Y193785D01*
Y194215D01*
X263918Y194613D01*
X263613Y194918D01*
X263215Y195083D01*
X262785D01*
X262387Y194918D01*
X262108Y194639D01*
X260074D01*
X259319Y195394D01*
X259482Y195788D01*
X265308D01*
X266917Y194179D01*
Y193785D01*
X267082Y193387D01*
X267387Y193082D01*
X267785Y192917D01*
X268215D01*
X268613Y193082D01*
X268918Y193387D01*
X269083Y193785D01*
Y194215D01*
X268918Y194613D01*
X268613Y194918D01*
X268215Y195083D01*
X267821D01*
X266025Y196879D01*
X265573Y197066D01*
X237351D01*
X237188Y197460D01*
X237264Y197536D01*
X237429Y197934D01*
Y198365D01*
X237264Y198763D01*
X237040Y198987D01*
X237149Y199362D01*
X237161Y199381D01*
X239914D01*
X240366Y199568D01*
X246843Y206045D01*
X247030Y206497D01*
Y207126D01*
X252821Y212917D01*
X253215D01*
X253613Y213082D01*
X253918Y213387D01*
X254083Y213785D01*
Y214215D01*
X254070Y214247D01*
X254333Y214640D01*
X256456D01*
X256917Y214179D01*
Y213785D01*
X257082Y213387D01*
X257387Y213082D01*
X257785Y212917D01*
X258215D01*
X258613Y213082D01*
X258918Y213387D01*
X259083Y213785D01*
Y214215D01*
X258918Y214613D01*
X258613Y214918D01*
X258333Y215034D01*
X258411Y215428D01*
X260668D01*
X261917Y214179D01*
Y213785D01*
X262082Y213387D01*
X262387Y213082D01*
X262785Y212917D01*
X263215D01*
X263613Y213082D01*
X263918Y213387D01*
X264083Y213785D01*
Y214215D01*
X263918Y214613D01*
X263613Y214918D01*
X263215Y215083D01*
X262821D01*
X262053Y215851D01*
X262203Y216215D01*
X271690D01*
X272510Y215395D01*
X272418Y214931D01*
X272387Y214918D01*
X272082Y214613D01*
X271917Y214215D01*
Y213785D01*
X272082Y213387D01*
X272387Y213082D01*
X272785Y212917D01*
X273215D01*
X273613Y213082D01*
X273918Y213387D01*
X273931Y213418D01*
X274358Y213548D01*
X274375Y213541D01*
X274810Y213361D01*
X277108D01*
X277387Y213082D01*
X277785Y212917D01*
X278215D01*
X278613Y213082D01*
X278918Y213387D01*
X279083Y213785D01*
Y214215D01*
X278918Y214613D01*
X278613Y214918D01*
X278215Y215083D01*
X277785D01*
X277387Y214918D01*
X277108Y214639D01*
X275074D01*
X272407Y217306D01*
X271955Y217494D01*
X250090D01*
X249638Y217306D01*
X248738Y216407D01*
X240829D01*
X240566Y216801D01*
X240579Y216832D01*
Y217263D01*
X240414Y217660D01*
X240109Y217965D01*
X239711Y218130D01*
X239317D01*
X238397Y219051D01*
X237945Y219238D01*
X237476D01*
X237364Y219420D01*
X237284Y219632D01*
X237429Y219982D01*
Y220412D01*
X237264Y220810D01*
X236960Y221115D01*
X236562Y221280D01*
X236131D01*
X235733Y221115D01*
X235607Y220988D01*
X235279Y220899D01*
X235106Y221002D01*
X234179Y221928D01*
X233905Y222042D01*
X233864Y222209D01*
X233861Y222479D01*
X234115Y222733D01*
X234279Y223131D01*
Y223562D01*
X234267Y223593D01*
X234530Y223987D01*
X235014D01*
X235277Y223593D01*
X235264Y223562D01*
Y223131D01*
X235429Y222733D01*
X235733Y222429D01*
X236131Y222264D01*
X236562D01*
X236960Y222429D01*
X237264Y222733D01*
X237429Y223131D01*
Y223562D01*
X237416Y223593D01*
X237679Y223987D01*
X238163D01*
X238426Y223593D01*
X238413Y223562D01*
Y223131D01*
X238578Y222733D01*
X238883Y222429D01*
X239281Y222264D01*
X239711D01*
X240109Y222429D01*
X240414Y222733D01*
X240579Y223131D01*
Y223562D01*
X240414Y223960D01*
X240109Y224264D01*
X240088Y224374D01*
X240354Y224640D01*
X251667D01*
X251930Y224247D01*
X251917Y224215D01*
Y223785D01*
X252082Y223387D01*
X252387Y223082D01*
X252785Y222917D01*
X253215D01*
X253613Y223082D01*
X253918Y223387D01*
X254083Y223785D01*
Y224215D01*
X254070Y224247D01*
X254283Y224566D01*
X254694Y224592D01*
X257018Y222269D01*
X257470Y222081D01*
X270824D01*
X272510Y220395D01*
X272418Y219931D01*
X272387Y219918D01*
X272082Y219613D01*
X271917Y219215D01*
Y218785D01*
X272082Y218387D01*
X272387Y218082D01*
X272785Y217917D01*
X273215D01*
X273613Y218082D01*
X273918Y218387D01*
X273931Y218418D01*
X274395Y218510D01*
X275637Y217268D01*
X276089Y217081D01*
X279015D01*
X281917Y214179D01*
Y213785D01*
X282082Y213387D01*
X282387Y213082D01*
X282785Y212917D01*
X283215D01*
X283613Y213082D01*
X283918Y213387D01*
X284083Y213785D01*
Y214215D01*
X283918Y214613D01*
X283613Y214918D01*
X283215Y215083D01*
X282821D01*
X279731Y218173D01*
X279325Y218341D01*
X279262Y218392D01*
X279070Y218753D01*
X279083Y218785D01*
Y219215D01*
X278918Y219613D01*
X278613Y219918D01*
X278215Y220083D01*
X277785D01*
X277387Y219918D01*
X277082Y219613D01*
X276917Y219215D01*
Y218785D01*
X276930Y218753D01*
X276717Y218434D01*
X276306Y218408D01*
X271541Y223172D01*
X271089Y223360D01*
X269333D01*
X269070Y223753D01*
X269083Y223785D01*
Y224215D01*
X268918Y224613D01*
X268613Y224918D01*
X268215Y225083D01*
X267785D01*
X267387Y224918D01*
X267082Y224613D01*
X266917Y224215D01*
Y223785D01*
X266930Y223753D01*
X266667Y223360D01*
X264333D01*
X264070Y223753D01*
X264083Y223785D01*
Y224215D01*
X263918Y224613D01*
X263613Y224918D01*
X263215Y225083D01*
X262785D01*
X262387Y224918D01*
X262082Y224613D01*
X261917Y224215D01*
Y223785D01*
X261930Y223753D01*
X261667Y223360D01*
X259333D01*
X259070Y223753D01*
X259083Y223785D01*
Y224215D01*
X258918Y224613D01*
X258613Y224918D01*
X258215Y225083D01*
X257785D01*
X257387Y224918D01*
X257082Y224613D01*
X257069Y224582D01*
X256605Y224490D01*
X255363Y225731D01*
X254911Y225919D01*
X240783D01*
X240564Y226246D01*
X240579Y226281D01*
Y226711D01*
X240561Y226754D01*
X240780Y227081D01*
X266721D01*
X267173Y227269D01*
X272821Y232917D01*
X273215D01*
X273613Y233082D01*
X273918Y233387D01*
X274083Y233785D01*
Y234215D01*
X273918Y234613D01*
X273613Y234918D01*
X273215Y235083D01*
D02*
G37*
G36*
X178376Y235081D02*
X177750D01*
X177171Y234841D01*
X176728Y234398D01*
X176488Y233819D01*
Y233193D01*
X176728Y232614D01*
X177171Y232171D01*
X177750Y231931D01*
X178376D01*
X178955Y232171D01*
X179398Y232614D01*
X179638Y233193D01*
Y233819D01*
X179398Y234398D01*
X178955Y234841D01*
X178376Y235081D01*
D02*
G37*
G36*
X298215Y230083D02*
X297785D01*
X297387Y229918D01*
X297082Y229613D01*
X296917Y229215D01*
Y228785D01*
X297082Y228387D01*
X297387Y228082D01*
X297785Y227917D01*
X298215D01*
X298613Y228082D01*
X298918Y228387D01*
X299083Y228785D01*
Y229215D01*
X298918Y229613D01*
X298613Y229918D01*
X298215Y230083D01*
D02*
G37*
G36*
X293215D02*
X292785D01*
X292387Y229918D01*
X292082Y229613D01*
X291917Y229215D01*
Y228785D01*
X292082Y228387D01*
X292387Y228082D01*
X292785Y227917D01*
X293215D01*
X293613Y228082D01*
X293918Y228387D01*
X294083Y228785D01*
Y229215D01*
X293918Y229613D01*
X293613Y229918D01*
X293215Y230083D01*
D02*
G37*
G36*
X288215D02*
X287785D01*
X287387Y229918D01*
X287082Y229613D01*
X286917Y229215D01*
Y228785D01*
X287082Y228387D01*
X287387Y228082D01*
X287785Y227917D01*
X288215D01*
X288613Y228082D01*
X288918Y228387D01*
X289083Y228785D01*
Y229215D01*
X288918Y229613D01*
X288613Y229918D01*
X288215Y230083D01*
D02*
G37*
G36*
X283215D02*
X282785D01*
X282387Y229918D01*
X282082Y229613D01*
X281917Y229215D01*
Y228785D01*
X282082Y228387D01*
X282387Y228082D01*
X282785Y227917D01*
X283215D01*
X283613Y228082D01*
X283918Y228387D01*
X284083Y228785D01*
Y229215D01*
X283918Y229613D01*
X283613Y229918D01*
X283215Y230083D01*
D02*
G37*
G36*
X151292Y228807D02*
X150861D01*
X150463Y228642D01*
X150159Y228338D01*
X149994Y227940D01*
Y227509D01*
X150159Y227111D01*
X150463Y226807D01*
X150861Y226642D01*
X151292D01*
X151690Y226807D01*
X151994Y227111D01*
X152159Y227509D01*
Y227940D01*
X151994Y228338D01*
X151690Y228642D01*
X151292Y228807D01*
D02*
G37*
G36*
X189318Y227579D02*
X188887D01*
X188489Y227414D01*
X188184Y227109D01*
X188020Y226711D01*
Y226281D01*
X188184Y225883D01*
X188489Y225578D01*
X188887Y225413D01*
X189318D01*
X189716Y225578D01*
X190020Y225883D01*
X190185Y226281D01*
Y226711D01*
X190020Y227109D01*
X189716Y227414D01*
X189318Y227579D01*
D02*
G37*
G36*
X186168D02*
X185737D01*
X185339Y227414D01*
X185035Y227109D01*
X184870Y226711D01*
Y226281D01*
X185035Y225883D01*
X185339Y225578D01*
X185737Y225413D01*
X186168D01*
X186566Y225578D01*
X186871Y225883D01*
X187035Y226281D01*
Y226711D01*
X186871Y227109D01*
X186566Y227414D01*
X186168Y227579D01*
D02*
G37*
G36*
X183019D02*
X182588D01*
X182190Y227414D01*
X181885Y227109D01*
X181720Y226711D01*
Y226281D01*
X181885Y225883D01*
X182190Y225578D01*
X182588Y225413D01*
X183019D01*
X183416Y225578D01*
X183721Y225883D01*
X183886Y226281D01*
Y226711D01*
X183721Y227109D01*
X183416Y227414D01*
X183019Y227579D01*
D02*
G37*
G36*
X179869D02*
X179438D01*
X179040Y227414D01*
X178736Y227109D01*
X178571Y226711D01*
Y226281D01*
X178736Y225883D01*
X179040Y225578D01*
X179438Y225413D01*
X179869D01*
X180267Y225578D01*
X180571Y225883D01*
X180736Y226281D01*
Y226711D01*
X180571Y227109D01*
X180267Y227414D01*
X179869Y227579D01*
D02*
G37*
G36*
X122515Y226268D02*
X122085D01*
X121687Y226103D01*
X121382Y225798D01*
X121217Y225400D01*
Y224970D01*
X121382Y224572D01*
X121687Y224267D01*
X122085Y224102D01*
X122515D01*
X122913Y224267D01*
X123218Y224572D01*
X123383Y224970D01*
Y225400D01*
X123218Y225798D01*
X122913Y226103D01*
X122515Y226268D01*
D02*
G37*
G36*
X298215Y225083D02*
X297785D01*
X297387Y224918D01*
X297082Y224613D01*
X296917Y224215D01*
Y223785D01*
X297082Y223387D01*
X297387Y223082D01*
X297785Y222917D01*
X298215D01*
X298613Y223082D01*
X298918Y223387D01*
X299083Y223785D01*
Y224215D01*
X298918Y224613D01*
X298613Y224918D01*
X298215Y225083D01*
D02*
G37*
G36*
X293215D02*
X292785D01*
X292387Y224918D01*
X292082Y224613D01*
X291917Y224215D01*
Y223785D01*
X292082Y223387D01*
X292387Y223082D01*
X292785Y222917D01*
X293215D01*
X293613Y223082D01*
X293918Y223387D01*
X294083Y223785D01*
Y224215D01*
X293918Y224613D01*
X293613Y224918D01*
X293215Y225083D01*
D02*
G37*
G36*
X288215D02*
X287785D01*
X287387Y224918D01*
X287082Y224613D01*
X286917Y224215D01*
Y223785D01*
X287082Y223387D01*
X287387Y223082D01*
X287785Y222917D01*
X288215D01*
X288613Y223082D01*
X288918Y223387D01*
X289083Y223785D01*
Y224215D01*
X288918Y224613D01*
X288613Y224918D01*
X288215Y225083D01*
D02*
G37*
G36*
X278215D02*
X277785D01*
X277387Y224918D01*
X277082Y224613D01*
X276917Y224215D01*
Y223785D01*
X277082Y223387D01*
X277387Y223082D01*
X277785Y222917D01*
X278215D01*
X278613Y223082D01*
X278918Y223387D01*
X279083Y223785D01*
Y224215D01*
X278918Y224613D01*
X278613Y224918D01*
X278215Y225083D01*
D02*
G37*
G36*
X273215D02*
X272785D01*
X272387Y224918D01*
X272082Y224613D01*
X271917Y224215D01*
Y223785D01*
X272082Y223387D01*
X272387Y223082D01*
X272785Y222917D01*
X273215D01*
X273613Y223082D01*
X273918Y223387D01*
X274083Y223785D01*
Y224215D01*
X273918Y224613D01*
X273613Y224918D01*
X273215Y225083D01*
D02*
G37*
G36*
X183019Y224429D02*
X182588D01*
X182190Y224264D01*
X181885Y223960D01*
X181720Y223562D01*
Y223131D01*
X181885Y222733D01*
X182190Y222429D01*
X182588Y222264D01*
X183019D01*
X183416Y222429D01*
X183721Y222733D01*
X183886Y223131D01*
Y223562D01*
X183721Y223960D01*
X183416Y224264D01*
X183019Y224429D01*
D02*
G37*
G36*
X179869D02*
X179438D01*
X179040Y224264D01*
X178736Y223960D01*
X178571Y223562D01*
Y223131D01*
X178736Y222733D01*
X179040Y222429D01*
X179438Y222264D01*
X179869D01*
X180267Y222429D01*
X180571Y222733D01*
X180736Y223131D01*
Y223562D01*
X180571Y223960D01*
X180267Y224264D01*
X179869Y224429D01*
D02*
G37*
G36*
X245215Y223543D02*
X244785D01*
X244387Y223378D01*
X244082Y223074D01*
X243917Y222676D01*
Y222245D01*
X244082Y221847D01*
X244387Y221543D01*
X244785Y221378D01*
X245215D01*
X245613Y221543D01*
X245918Y221847D01*
X246083Y222245D01*
Y222676D01*
X245918Y223074D01*
X245613Y223378D01*
X245215Y223543D01*
D02*
G37*
G36*
X239711Y221280D02*
X239281D01*
X238883Y221115D01*
X238578Y220810D01*
X238413Y220412D01*
Y219982D01*
X238578Y219584D01*
X238883Y219279D01*
X239281Y219114D01*
X239711D01*
X240109Y219279D01*
X240414Y219584D01*
X240579Y219982D01*
Y220412D01*
X240414Y220810D01*
X240109Y221115D01*
X239711Y221280D01*
D02*
G37*
G36*
X152715Y221004D02*
X152285D01*
X151887Y220839D01*
X151582Y220534D01*
X151417Y220137D01*
Y219706D01*
X151582Y219308D01*
X151887Y219003D01*
X152285Y218839D01*
X152715D01*
X153113Y219003D01*
X153418Y219308D01*
X153583Y219706D01*
Y220137D01*
X153418Y220534D01*
X153113Y220839D01*
X152715Y221004D01*
D02*
G37*
G36*
X149566D02*
X149135D01*
X148737Y220839D01*
X148433Y220534D01*
X148268Y220137D01*
Y219706D01*
X148433Y219308D01*
X148737Y219003D01*
X149135Y218839D01*
X149566D01*
X149964Y219003D01*
X150268Y219308D01*
X150433Y219706D01*
Y220137D01*
X150268Y220534D01*
X149964Y220839D01*
X149566Y221004D01*
D02*
G37*
G36*
X298215Y220083D02*
X297785D01*
X297387Y219918D01*
X297082Y219613D01*
X296917Y219215D01*
Y218785D01*
X297082Y218387D01*
X297387Y218082D01*
X297785Y217917D01*
X298215D01*
X298613Y218082D01*
X298918Y218387D01*
X299083Y218785D01*
Y219215D01*
X298918Y219613D01*
X298613Y219918D01*
X298215Y220083D01*
D02*
G37*
G36*
X293215D02*
X292785D01*
X292387Y219918D01*
X292082Y219613D01*
X291917Y219215D01*
Y218785D01*
X292082Y218387D01*
X292387Y218082D01*
X292785Y217917D01*
X293215D01*
X293613Y218082D01*
X293918Y218387D01*
X294083Y218785D01*
Y219215D01*
X293918Y219613D01*
X293613Y219918D01*
X293215Y220083D01*
D02*
G37*
G36*
X288215D02*
X287785D01*
X287387Y219918D01*
X287082Y219613D01*
X286917Y219215D01*
Y218785D01*
X287082Y218387D01*
X287387Y218082D01*
X287785Y217917D01*
X288215D01*
X288613Y218082D01*
X288918Y218387D01*
X289083Y218785D01*
Y219215D01*
X288918Y219613D01*
X288613Y219918D01*
X288215Y220083D01*
D02*
G37*
G36*
X268215D02*
X267785D01*
X267387Y219918D01*
X267082Y219613D01*
X266917Y219215D01*
Y218785D01*
X267082Y218387D01*
X267387Y218082D01*
X267785Y217917D01*
X268215D01*
X268613Y218082D01*
X268918Y218387D01*
X269083Y218785D01*
Y219215D01*
X268918Y219613D01*
X268613Y219918D01*
X268215Y220083D01*
D02*
G37*
G36*
X263215D02*
X262785D01*
X262387Y219918D01*
X262082Y219613D01*
X261917Y219215D01*
Y218785D01*
X262082Y218387D01*
X262387Y218082D01*
X262785Y217917D01*
X263215D01*
X263613Y218082D01*
X263918Y218387D01*
X264083Y218785D01*
Y219215D01*
X263918Y219613D01*
X263613Y219918D01*
X263215Y220083D01*
D02*
G37*
G36*
X258215D02*
X257785D01*
X257387Y219918D01*
X257082Y219613D01*
X256917Y219215D01*
Y218785D01*
X257082Y218387D01*
X257387Y218082D01*
X257785Y217917D01*
X258215D01*
X258613Y218082D01*
X258918Y218387D01*
X259083Y218785D01*
Y219215D01*
X258918Y219613D01*
X258613Y219918D01*
X258215Y220083D01*
D02*
G37*
G36*
X253215D02*
X252785D01*
X252387Y219918D01*
X252082Y219613D01*
X251917Y219215D01*
Y218785D01*
X252082Y218387D01*
X252387Y218082D01*
X252785Y217917D01*
X253215D01*
X253613Y218082D01*
X253918Y218387D01*
X254083Y218785D01*
Y219215D01*
X253918Y219613D01*
X253613Y219918D01*
X253215Y220083D01*
D02*
G37*
G36*
X189318Y218130D02*
X188887D01*
X188489Y217965D01*
X188184Y217660D01*
X188020Y217263D01*
Y216832D01*
X188184Y216434D01*
X188489Y216129D01*
X188887Y215965D01*
X189318D01*
X189716Y216129D01*
X190020Y216434D01*
X190185Y216832D01*
Y217263D01*
X190020Y217660D01*
X189716Y217965D01*
X189318Y218130D01*
D02*
G37*
G36*
X146192Y217907D02*
X145761D01*
X145363Y217742D01*
X145059Y217438D01*
X144894Y217040D01*
Y216609D01*
X145059Y216211D01*
X145363Y215907D01*
X145761Y215742D01*
X146192D01*
X146590Y215907D01*
X146894Y216211D01*
X147059Y216609D01*
Y217040D01*
X146894Y217438D01*
X146590Y217742D01*
X146192Y217907D01*
D02*
G37*
G36*
X133818Y217854D02*
X133387D01*
X132989Y217689D01*
X132685Y217385D01*
X132520Y216987D01*
Y216556D01*
X132685Y216158D01*
X132989Y215854D01*
X133387Y215689D01*
X133818D01*
X134216Y215854D01*
X134520Y216158D01*
X134685Y216556D01*
Y216987D01*
X134520Y217385D01*
X134216Y217689D01*
X133818Y217854D01*
D02*
G37*
G36*
X130668D02*
X130237D01*
X129840Y217689D01*
X129535Y217385D01*
X129370Y216987D01*
Y216556D01*
X129535Y216158D01*
X129840Y215854D01*
X130237Y215689D01*
X130668D01*
X131066Y215854D01*
X131371Y216158D01*
X131535Y216556D01*
Y216987D01*
X131371Y217385D01*
X131066Y217689D01*
X130668Y217854D01*
D02*
G37*
G36*
X298215Y215083D02*
X297785D01*
X297387Y214918D01*
X297082Y214613D01*
X296917Y214215D01*
Y213785D01*
X297082Y213387D01*
X297387Y213082D01*
X297785Y212917D01*
X298215D01*
X298613Y213082D01*
X298918Y213387D01*
X299083Y213785D01*
Y214215D01*
X298918Y214613D01*
X298613Y214918D01*
X298215Y215083D01*
D02*
G37*
G36*
X293215D02*
X292785D01*
X292387Y214918D01*
X292082Y214613D01*
X291917Y214215D01*
Y213785D01*
X292082Y213387D01*
X292387Y213082D01*
X292785Y212917D01*
X293215D01*
X293613Y213082D01*
X293918Y213387D01*
X294083Y213785D01*
Y214215D01*
X293918Y214613D01*
X293613Y214918D01*
X293215Y215083D01*
D02*
G37*
G36*
X288215D02*
X287785D01*
X287387Y214918D01*
X287082Y214613D01*
X286917Y214215D01*
Y213785D01*
X287082Y213387D01*
X287387Y213082D01*
X287785Y212917D01*
X288215D01*
X288613Y213082D01*
X288918Y213387D01*
X289083Y213785D01*
Y214215D01*
X288918Y214613D01*
X288613Y214918D01*
X288215Y215083D01*
D02*
G37*
G36*
X268215D02*
X267785D01*
X267387Y214918D01*
X267082Y214613D01*
X266917Y214215D01*
Y213785D01*
X267082Y213387D01*
X267387Y213082D01*
X267785Y212917D01*
X268215D01*
X268613Y213082D01*
X268918Y213387D01*
X269083Y213785D01*
Y214215D01*
X268918Y214613D01*
X268613Y214918D01*
X268215Y215083D01*
D02*
G37*
G36*
X136967Y214705D02*
X136537D01*
X136139Y214540D01*
X135834Y214235D01*
X135669Y213837D01*
Y213407D01*
X135834Y213009D01*
X136139Y212704D01*
X136537Y212539D01*
X136967D01*
X137365Y212704D01*
X137670Y213009D01*
X137835Y213407D01*
Y213837D01*
X137670Y214235D01*
X137365Y214540D01*
X136967Y214705D01*
D02*
G37*
G36*
X141792Y214307D02*
X141361D01*
X140963Y214142D01*
X140658Y213838D01*
X140494Y213440D01*
Y213009D01*
X140658Y212611D01*
X140963Y212307D01*
X141361Y212142D01*
X141792D01*
X142190Y212307D01*
X142494Y212611D01*
X142659Y213009D01*
Y213440D01*
X142494Y213838D01*
X142190Y214142D01*
X141792Y214307D01*
D02*
G37*
G36*
X133818Y211555D02*
X133387D01*
X132989Y211390D01*
X132685Y211086D01*
X132520Y210688D01*
Y210257D01*
X132685Y209859D01*
X132989Y209555D01*
X133387Y209390D01*
X133818D01*
X134216Y209555D01*
X134520Y209859D01*
X134685Y210257D01*
Y210688D01*
X134520Y211086D01*
X134216Y211390D01*
X133818Y211555D01*
D02*
G37*
G36*
X136967Y211555D02*
X136537D01*
X136139Y211390D01*
X135834Y211086D01*
X135669Y210688D01*
Y210257D01*
X135834Y209859D01*
X136139Y209555D01*
X136537Y209390D01*
X136967D01*
X137365Y209555D01*
X137670Y209859D01*
X137835Y210257D01*
Y210688D01*
X137670Y211086D01*
X137365Y211390D01*
X136967Y211555D01*
D02*
G37*
G36*
X288215Y210083D02*
X287785D01*
X287387Y209918D01*
X287082Y209613D01*
X286917Y209215D01*
Y208785D01*
X287082Y208387D01*
X287387Y208082D01*
X287785Y207917D01*
X288215D01*
X288613Y208082D01*
X288918Y208387D01*
X289083Y208785D01*
Y209215D01*
X288918Y209613D01*
X288613Y209918D01*
X288215Y210083D01*
D02*
G37*
G36*
X283215D02*
X282785D01*
X282387Y209918D01*
X282082Y209613D01*
X281917Y209215D01*
Y208785D01*
X282082Y208387D01*
X282387Y208082D01*
X282785Y207917D01*
X283215D01*
X283613Y208082D01*
X283918Y208387D01*
X284083Y208785D01*
Y209215D01*
X283918Y209613D01*
X283613Y209918D01*
X283215Y210083D01*
D02*
G37*
G36*
X278215D02*
X277785D01*
X277387Y209918D01*
X277082Y209613D01*
X276917Y209215D01*
Y208785D01*
X277082Y208387D01*
X277387Y208082D01*
X277785Y207917D01*
X278215D01*
X278613Y208082D01*
X278918Y208387D01*
X279083Y208785D01*
Y209215D01*
X278918Y209613D01*
X278613Y209918D01*
X278215Y210083D01*
D02*
G37*
G36*
X273215D02*
X272785D01*
X272387Y209918D01*
X272082Y209613D01*
X271917Y209215D01*
Y208785D01*
X272082Y208387D01*
X272387Y208082D01*
X272785Y207917D01*
X273215D01*
X273613Y208082D01*
X273918Y208387D01*
X274083Y208785D01*
Y209215D01*
X273918Y209613D01*
X273613Y209918D01*
X273215Y210083D01*
D02*
G37*
G36*
X268215D02*
X267785D01*
X267387Y209918D01*
X267082Y209613D01*
X266917Y209215D01*
Y208785D01*
X267082Y208387D01*
X267387Y208082D01*
X267785Y207917D01*
X268215D01*
X268613Y208082D01*
X268918Y208387D01*
X269083Y208785D01*
Y209215D01*
X268918Y209613D01*
X268613Y209918D01*
X268215Y210083D01*
D02*
G37*
G36*
X263215D02*
X262785D01*
X262387Y209918D01*
X262082Y209613D01*
X261917Y209215D01*
Y208785D01*
X262082Y208387D01*
X262387Y208082D01*
X262785Y207917D01*
X263215D01*
X263613Y208082D01*
X263918Y208387D01*
X264083Y208785D01*
Y209215D01*
X263918Y209613D01*
X263613Y209918D01*
X263215Y210083D01*
D02*
G37*
G36*
X258215D02*
X257785D01*
X257387Y209918D01*
X257082Y209613D01*
X256917Y209215D01*
Y208785D01*
X257082Y208387D01*
X257387Y208082D01*
X257785Y207917D01*
X258215D01*
X258613Y208082D01*
X258918Y208387D01*
X259083Y208785D01*
Y209215D01*
X258918Y209613D01*
X258613Y209918D01*
X258215Y210083D01*
D02*
G37*
G36*
X253215D02*
X252785D01*
X252387Y209918D01*
X252082Y209613D01*
X251917Y209215D01*
Y208785D01*
X252082Y208387D01*
X252387Y208082D01*
X252785Y207917D01*
X253215D01*
X253613Y208082D01*
X253918Y208387D01*
X254083Y208785D01*
Y209215D01*
X253918Y209613D01*
X253613Y209918D01*
X253215Y210083D01*
D02*
G37*
G36*
X136967Y208405D02*
X136537D01*
X136139Y208241D01*
X135834Y207936D01*
X135669Y207538D01*
Y207107D01*
X135834Y206710D01*
X136139Y206405D01*
X136537Y206240D01*
X136967D01*
X137365Y206405D01*
X137670Y206710D01*
X137835Y207107D01*
Y207538D01*
X137670Y207936D01*
X137365Y208241D01*
X136967Y208405D01*
D02*
G37*
G36*
X152715Y205256D02*
X152285D01*
X151887Y205091D01*
X151582Y204786D01*
X151417Y204389D01*
Y203958D01*
X151582Y203560D01*
X151887Y203255D01*
X152285Y203091D01*
X152715D01*
X153113Y203255D01*
X153418Y203560D01*
X153583Y203958D01*
Y204389D01*
X153418Y204786D01*
X153113Y205091D01*
X152715Y205256D01*
D02*
G37*
G36*
X149566D02*
X149135D01*
X148737Y205091D01*
X148433Y204786D01*
X148268Y204389D01*
Y203958D01*
X148433Y203560D01*
X148737Y203255D01*
X149135Y203091D01*
X149566D01*
X149964Y203255D01*
X150268Y203560D01*
X150433Y203958D01*
Y204389D01*
X150268Y204786D01*
X149964Y205091D01*
X149566Y205256D01*
D02*
G37*
G36*
X133818D02*
X133387D01*
X132989Y205091D01*
X132685Y204786D01*
X132520Y204389D01*
Y203958D01*
X132685Y203560D01*
X132989Y203255D01*
X133387Y203091D01*
X133818D01*
X134216Y203255D01*
X134520Y203560D01*
X134685Y203958D01*
Y204389D01*
X134520Y204786D01*
X134216Y205091D01*
X133818Y205256D01*
D02*
G37*
G36*
X278215Y205083D02*
X277785D01*
X277387Y204918D01*
X277082Y204613D01*
X276917Y204215D01*
Y203785D01*
X277082Y203387D01*
X277387Y203082D01*
X277785Y202917D01*
X278215D01*
X278613Y203082D01*
X278918Y203387D01*
X279083Y203785D01*
Y204215D01*
X278918Y204613D01*
X278613Y204918D01*
X278215Y205083D01*
D02*
G37*
G36*
X273215D02*
X272785D01*
X272387Y204918D01*
X272082Y204613D01*
X271917Y204215D01*
Y203785D01*
X272082Y203387D01*
X272387Y203082D01*
X272785Y202917D01*
X273215D01*
X273613Y203082D01*
X273918Y203387D01*
X274083Y203785D01*
Y204215D01*
X273918Y204613D01*
X273613Y204918D01*
X273215Y205083D01*
D02*
G37*
G36*
X268215D02*
X267785D01*
X267387Y204918D01*
X267082Y204613D01*
X266917Y204215D01*
Y203785D01*
X267082Y203387D01*
X267387Y203082D01*
X267785Y202917D01*
X268215D01*
X268613Y203082D01*
X268918Y203387D01*
X269083Y203785D01*
Y204215D01*
X268918Y204613D01*
X268613Y204918D01*
X268215Y205083D01*
D02*
G37*
G36*
X263215D02*
X262785D01*
X262387Y204918D01*
X262082Y204613D01*
X261917Y204215D01*
Y203785D01*
X262082Y203387D01*
X262387Y203082D01*
X262785Y202917D01*
X263215D01*
X263613Y203082D01*
X263918Y203387D01*
X264083Y203785D01*
Y204215D01*
X263918Y204613D01*
X263613Y204918D01*
X263215Y205083D01*
D02*
G37*
G36*
X258215D02*
X257785D01*
X257387Y204918D01*
X257082Y204613D01*
X256917Y204215D01*
Y203785D01*
X257082Y203387D01*
X257387Y203082D01*
X257785Y202917D01*
X258215D01*
X258613Y203082D01*
X258918Y203387D01*
X259083Y203785D01*
Y204215D01*
X258918Y204613D01*
X258613Y204918D01*
X258215Y205083D01*
D02*
G37*
G36*
X253215D02*
X252785D01*
X252387Y204918D01*
X252082Y204613D01*
X251917Y204215D01*
Y203785D01*
X252082Y203387D01*
X252387Y203082D01*
X252785Y202917D01*
X253215D01*
X253613Y203082D01*
X253918Y203387D01*
X254083Y203785D01*
Y204215D01*
X253918Y204613D01*
X253613Y204918D01*
X253215Y205083D01*
D02*
G37*
G36*
X133818Y202106D02*
X133387D01*
X132989Y201941D01*
X132685Y201637D01*
X132520Y201239D01*
Y200808D01*
X132685Y200410D01*
X132989Y200106D01*
X133387Y199941D01*
X133818D01*
X134216Y200106D01*
X134520Y200410D01*
X134685Y200808D01*
Y201239D01*
X134520Y201637D01*
X134216Y201941D01*
X133818Y202106D01*
D02*
G37*
G36*
X298215Y200083D02*
X297785D01*
X297387Y199918D01*
X297082Y199613D01*
X296917Y199215D01*
Y198785D01*
X297082Y198387D01*
X297387Y198082D01*
X297785Y197917D01*
X298215D01*
X298613Y198082D01*
X298918Y198387D01*
X299083Y198785D01*
Y199215D01*
X298918Y199613D01*
X298613Y199918D01*
X298215Y200083D01*
D02*
G37*
G36*
X293215D02*
X292785D01*
X292387Y199918D01*
X292082Y199613D01*
X291917Y199215D01*
Y198785D01*
X292082Y198387D01*
X292387Y198082D01*
X292785Y197917D01*
X293215D01*
X293613Y198082D01*
X293918Y198387D01*
X294083Y198785D01*
Y199215D01*
X293918Y199613D01*
X293613Y199918D01*
X293215Y200083D01*
D02*
G37*
G36*
X288215D02*
X287785D01*
X287387Y199918D01*
X287082Y199613D01*
X286917Y199215D01*
Y198785D01*
X287082Y198387D01*
X287387Y198082D01*
X287785Y197917D01*
X288215D01*
X288613Y198082D01*
X288918Y198387D01*
X289083Y198785D01*
Y199215D01*
X288918Y199613D01*
X288613Y199918D01*
X288215Y200083D01*
D02*
G37*
G36*
X283215D02*
X282785D01*
X282387Y199918D01*
X282082Y199613D01*
X281917Y199215D01*
Y198785D01*
X282082Y198387D01*
X282387Y198082D01*
X282785Y197917D01*
X283215D01*
X283613Y198082D01*
X283918Y198387D01*
X284083Y198785D01*
Y199215D01*
X283918Y199613D01*
X283613Y199918D01*
X283215Y200083D01*
D02*
G37*
G36*
X258215D02*
X257785D01*
X257387Y199918D01*
X257082Y199613D01*
X256917Y199215D01*
Y198785D01*
X257082Y198387D01*
X257387Y198082D01*
X257785Y197917D01*
X258215D01*
X258613Y198082D01*
X258918Y198387D01*
X259083Y198785D01*
Y199215D01*
X258918Y199613D01*
X258613Y199918D01*
X258215Y200083D01*
D02*
G37*
G36*
X253215D02*
X252785D01*
X252387Y199918D01*
X252082Y199613D01*
X251917Y199215D01*
Y198785D01*
X252082Y198387D01*
X252387Y198082D01*
X252785Y197917D01*
X253215D01*
X253613Y198082D01*
X253918Y198387D01*
X254083Y198785D01*
Y199215D01*
X253918Y199613D01*
X253613Y199918D01*
X253215Y200083D01*
D02*
G37*
G36*
X136967Y198957D02*
X136537D01*
X136139Y198792D01*
X135834Y198487D01*
X135669Y198089D01*
Y197659D01*
X135834Y197261D01*
X136139Y196956D01*
X136537Y196791D01*
X136967D01*
X137365Y196956D01*
X137670Y197261D01*
X137835Y197659D01*
Y198089D01*
X137670Y198487D01*
X137365Y198792D01*
X136967Y198957D01*
D02*
G37*
G36*
Y195807D02*
X136537D01*
X136139Y195642D01*
X135834Y195338D01*
X135669Y194940D01*
Y194509D01*
X135834Y194111D01*
X136139Y193807D01*
X136537Y193642D01*
X136967D01*
X137365Y193807D01*
X137670Y194111D01*
X137835Y194509D01*
Y194940D01*
X137670Y195338D01*
X137365Y195642D01*
X136967Y195807D01*
D02*
G37*
G36*
X149606Y195667D02*
X149175D01*
X148777Y195502D01*
X148473Y195197D01*
X148308Y194800D01*
Y194369D01*
X148473Y193971D01*
X148777Y193666D01*
X149175Y193502D01*
X149606D01*
X150004Y193666D01*
X150309Y193971D01*
X150473Y194369D01*
Y194800D01*
X150309Y195197D01*
X150004Y195502D01*
X149606Y195667D01*
D02*
G37*
G36*
X298215Y195083D02*
X297785D01*
X297387Y194918D01*
X297082Y194613D01*
X296917Y194215D01*
Y193785D01*
X297082Y193387D01*
X297387Y193082D01*
X297785Y192917D01*
X298215D01*
X298613Y193082D01*
X298918Y193387D01*
X299083Y193785D01*
Y194215D01*
X298918Y194613D01*
X298613Y194918D01*
X298215Y195083D01*
D02*
G37*
G36*
X293215D02*
X292785D01*
X292387Y194918D01*
X292082Y194613D01*
X291917Y194215D01*
Y193785D01*
X292082Y193387D01*
X292387Y193082D01*
X292785Y192917D01*
X293215D01*
X293613Y193082D01*
X293918Y193387D01*
X294083Y193785D01*
Y194215D01*
X293918Y194613D01*
X293613Y194918D01*
X293215Y195083D01*
D02*
G37*
G36*
X288215D02*
X287785D01*
X287387Y194918D01*
X287082Y194613D01*
X286917Y194215D01*
Y193785D01*
X287082Y193387D01*
X287387Y193082D01*
X287785Y192917D01*
X288215D01*
X288613Y193082D01*
X288918Y193387D01*
X289083Y193785D01*
Y194215D01*
X288918Y194613D01*
X288613Y194918D01*
X288215Y195083D01*
D02*
G37*
G36*
X283215D02*
X282785D01*
X282387Y194918D01*
X282082Y194613D01*
X281917Y194215D01*
Y193785D01*
X282082Y193387D01*
X282387Y193082D01*
X282785Y192917D01*
X283215D01*
X283613Y193082D01*
X283918Y193387D01*
X284083Y193785D01*
Y194215D01*
X283918Y194613D01*
X283613Y194918D01*
X283215Y195083D01*
D02*
G37*
G36*
X278215D02*
X277785D01*
X277387Y194918D01*
X277082Y194613D01*
X276917Y194215D01*
Y193785D01*
X277082Y193387D01*
X277387Y193082D01*
X277785Y192917D01*
X278215D01*
X278613Y193082D01*
X278918Y193387D01*
X279083Y193785D01*
Y194215D01*
X278918Y194613D01*
X278613Y194918D01*
X278215Y195083D01*
D02*
G37*
G36*
X273215D02*
X272785D01*
X272387Y194918D01*
X272082Y194613D01*
X271917Y194215D01*
Y193785D01*
X272082Y193387D01*
X272387Y193082D01*
X272785Y192917D01*
X273215D01*
X273613Y193082D01*
X273918Y193387D01*
X274083Y193785D01*
Y194215D01*
X273918Y194613D01*
X273613Y194918D01*
X273215Y195083D01*
D02*
G37*
G36*
X220814Y192933D02*
X220383D01*
X219985Y192768D01*
X219681Y192464D01*
X219516Y192066D01*
Y191635D01*
X219681Y191237D01*
X219985Y190933D01*
X220383Y190768D01*
X220814D01*
X221212Y190933D01*
X221516Y191237D01*
X221681Y191635D01*
Y192066D01*
X221516Y192464D01*
X221212Y192768D01*
X220814Y192933D01*
D02*
G37*
G36*
X211365D02*
X210934D01*
X210536Y192768D01*
X210232Y192464D01*
X210067Y192066D01*
Y191635D01*
X210232Y191237D01*
X210536Y190933D01*
X210934Y190768D01*
X211365D01*
X211763Y190933D01*
X212067Y191237D01*
X212232Y191635D01*
Y192066D01*
X212067Y192464D01*
X211763Y192768D01*
X211365Y192933D01*
D02*
G37*
G36*
X189318D02*
X188887D01*
X188489Y192768D01*
X188184Y192464D01*
X188020Y192066D01*
Y191635D01*
X188184Y191237D01*
X188489Y190933D01*
X188887Y190768D01*
X189318D01*
X189716Y190933D01*
X190020Y191237D01*
X190185Y191635D01*
Y192066D01*
X190020Y192464D01*
X189716Y192768D01*
X189318Y192933D01*
D02*
G37*
G36*
X186168D02*
X185737D01*
X185339Y192768D01*
X185035Y192464D01*
X184870Y192066D01*
Y191635D01*
X185035Y191237D01*
X185339Y190933D01*
X185737Y190768D01*
X186168D01*
X186566Y190933D01*
X186871Y191237D01*
X187035Y191635D01*
Y192066D01*
X186871Y192464D01*
X186566Y192768D01*
X186168Y192933D01*
D02*
G37*
G36*
X136967Y192657D02*
X136537D01*
X136139Y192493D01*
X135834Y192188D01*
X135669Y191790D01*
Y191359D01*
X135834Y190962D01*
X136139Y190657D01*
X136537Y190492D01*
X136967D01*
X137365Y190657D01*
X137670Y190962D01*
X137835Y191359D01*
Y191790D01*
X137670Y192188D01*
X137365Y192493D01*
X136967Y192657D01*
D02*
G37*
G36*
X149604Y192520D02*
X149173D01*
X148775Y192355D01*
X148471Y192050D01*
X148306Y191652D01*
Y191222D01*
X148471Y190824D01*
X148775Y190519D01*
X149173Y190354D01*
X149604D01*
X150002Y190519D01*
X150306Y190824D01*
X150471Y191222D01*
Y191652D01*
X150306Y192050D01*
X150002Y192355D01*
X149604Y192520D01*
D02*
G37*
G36*
X298215Y190083D02*
X297785D01*
X297387Y189918D01*
X297082Y189613D01*
X296917Y189215D01*
Y188785D01*
X297082Y188387D01*
X297387Y188082D01*
X297785Y187917D01*
X298215D01*
X298613Y188082D01*
X298918Y188387D01*
X299083Y188785D01*
Y189215D01*
X298918Y189613D01*
X298613Y189918D01*
X298215Y190083D01*
D02*
G37*
G36*
X293215D02*
X292785D01*
X292387Y189918D01*
X292082Y189613D01*
X291917Y189215D01*
Y188785D01*
X292082Y188387D01*
X292387Y188082D01*
X292785Y187917D01*
X293215D01*
X293613Y188082D01*
X293918Y188387D01*
X294083Y188785D01*
Y189215D01*
X293918Y189613D01*
X293613Y189918D01*
X293215Y190083D01*
D02*
G37*
G36*
X288215D02*
X287785D01*
X287387Y189918D01*
X287082Y189613D01*
X286917Y189215D01*
Y188785D01*
X287082Y188387D01*
X287387Y188082D01*
X287785Y187917D01*
X288215D01*
X288613Y188082D01*
X288918Y188387D01*
X289083Y188785D01*
Y189215D01*
X288918Y189613D01*
X288613Y189918D01*
X288215Y190083D01*
D02*
G37*
G36*
X283215D02*
X282785D01*
X282387Y189918D01*
X282082Y189613D01*
X281917Y189215D01*
Y188785D01*
X282082Y188387D01*
X282387Y188082D01*
X282785Y187917D01*
X283215D01*
X283613Y188082D01*
X283918Y188387D01*
X284083Y188785D01*
Y189215D01*
X283918Y189613D01*
X283613Y189918D01*
X283215Y190083D01*
D02*
G37*
G36*
X278215D02*
X277785D01*
X277387Y189918D01*
X277082Y189613D01*
X276917Y189215D01*
Y188785D01*
X277082Y188387D01*
X277387Y188082D01*
X277785Y187917D01*
X278215D01*
X278613Y188082D01*
X278918Y188387D01*
X279083Y188785D01*
Y189215D01*
X278918Y189613D01*
X278613Y189918D01*
X278215Y190083D01*
D02*
G37*
G36*
X273215D02*
X272785D01*
X272387Y189918D01*
X272082Y189613D01*
X271917Y189215D01*
Y188785D01*
X272082Y188387D01*
X272387Y188082D01*
X272785Y187917D01*
X273215D01*
X273613Y188082D01*
X273918Y188387D01*
X274083Y188785D01*
Y189215D01*
X273918Y189613D01*
X273613Y189918D01*
X273215Y190083D01*
D02*
G37*
G36*
X268215D02*
X267785D01*
X267387Y189918D01*
X267082Y189613D01*
X266917Y189215D01*
Y188785D01*
X267082Y188387D01*
X267387Y188082D01*
X267785Y187917D01*
X268215D01*
X268613Y188082D01*
X268918Y188387D01*
X269083Y188785D01*
Y189215D01*
X268918Y189613D01*
X268613Y189918D01*
X268215Y190083D01*
D02*
G37*
G36*
X263215D02*
X262785D01*
X262387Y189918D01*
X262082Y189613D01*
X261917Y189215D01*
Y188785D01*
X262082Y188387D01*
X262387Y188082D01*
X262785Y187917D01*
X263215D01*
X263613Y188082D01*
X263918Y188387D01*
X264083Y188785D01*
Y189215D01*
X263918Y189613D01*
X263613Y189918D01*
X263215Y190083D01*
D02*
G37*
G36*
X258215D02*
X257785D01*
X257387Y189918D01*
X257082Y189613D01*
X256917Y189215D01*
Y188785D01*
X257082Y188387D01*
X257387Y188082D01*
X257785Y187917D01*
X258215D01*
X258613Y188082D01*
X258918Y188387D01*
X259083Y188785D01*
Y189215D01*
X258918Y189613D01*
X258613Y189918D01*
X258215Y190083D01*
D02*
G37*
G36*
X223963Y189784D02*
X223533D01*
X223135Y189619D01*
X222830Y189314D01*
X222665Y188916D01*
Y188485D01*
X222830Y188087D01*
X223135Y187783D01*
X223533Y187618D01*
X223963D01*
X224361Y187783D01*
X224666Y188087D01*
X224831Y188485D01*
Y188916D01*
X224666Y189314D01*
X224361Y189619D01*
X223963Y189784D01*
D02*
G37*
G36*
X220814D02*
X220383D01*
X219985Y189619D01*
X219681Y189314D01*
X219516Y188916D01*
Y188485D01*
X219681Y188087D01*
X219985Y187783D01*
X220383Y187618D01*
X220814D01*
X221212Y187783D01*
X221516Y188087D01*
X221681Y188485D01*
Y188916D01*
X221516Y189314D01*
X221212Y189619D01*
X220814Y189784D01*
D02*
G37*
G36*
X189318D02*
X188887D01*
X188489Y189619D01*
X188184Y189314D01*
X188020Y188916D01*
Y188485D01*
X188184Y188087D01*
X188489Y187783D01*
X188887Y187618D01*
X189318D01*
X189716Y187783D01*
X190020Y188087D01*
X190185Y188485D01*
Y188916D01*
X190020Y189314D01*
X189716Y189619D01*
X189318Y189784D01*
D02*
G37*
G36*
X186168D02*
X185737D01*
X185339Y189619D01*
X185035Y189314D01*
X184870Y188916D01*
Y188485D01*
X185035Y188087D01*
X185339Y187783D01*
X185737Y187618D01*
X186168D01*
X186566Y187783D01*
X186871Y188087D01*
X187035Y188485D01*
Y188916D01*
X186871Y189314D01*
X186566Y189619D01*
X186168Y189784D01*
D02*
G37*
G36*
X146416Y189508D02*
X145985D01*
X145588Y189343D01*
X145283Y189039D01*
X145118Y188641D01*
Y188210D01*
X145283Y187812D01*
X145588Y187507D01*
X145985Y187343D01*
X146416D01*
X146814Y187507D01*
X147119Y187812D01*
X147283Y188210D01*
Y188641D01*
X147119Y189039D01*
X146814Y189343D01*
X146416Y189508D01*
D02*
G37*
G36*
X136967D02*
X136537D01*
X136139Y189343D01*
X135834Y189039D01*
X135669Y188641D01*
Y188210D01*
X135834Y187812D01*
X136139Y187507D01*
X136537Y187343D01*
X136967D01*
X137365Y187507D01*
X137670Y187812D01*
X137835Y188210D01*
Y188641D01*
X137670Y189039D01*
X137365Y189343D01*
X136967Y189508D01*
D02*
G37*
G36*
X227113Y186634D02*
X226682D01*
X226284Y186469D01*
X225980Y186164D01*
X225815Y185766D01*
Y185336D01*
X225980Y184938D01*
X226284Y184633D01*
X226682Y184468D01*
X227113D01*
X227511Y184633D01*
X227816Y184938D01*
X227980Y185336D01*
Y185766D01*
X227816Y186164D01*
X227511Y186469D01*
X227113Y186634D01*
D02*
G37*
G36*
X223963D02*
X223533D01*
X223135Y186469D01*
X222830Y186164D01*
X222665Y185766D01*
Y185336D01*
X222830Y184938D01*
X223135Y184633D01*
X223533Y184468D01*
X223963D01*
X224361Y184633D01*
X224666Y184938D01*
X224831Y185336D01*
Y185766D01*
X224666Y186164D01*
X224361Y186469D01*
X223963Y186634D01*
D02*
G37*
G36*
X189115D02*
X188684D01*
X188286Y186469D01*
X187982Y186164D01*
X187817Y185766D01*
Y185336D01*
X187982Y184938D01*
X188286Y184633D01*
X188684Y184468D01*
X189115D01*
X189513Y184633D01*
X189817Y184938D01*
X189982Y185336D01*
Y185766D01*
X189817Y186164D01*
X189513Y186469D01*
X189115Y186634D01*
D02*
G37*
G36*
X298215Y185083D02*
X297785D01*
X297387Y184918D01*
X297082Y184613D01*
X296917Y184215D01*
Y183785D01*
X297082Y183387D01*
X297387Y183082D01*
X297785Y182917D01*
X298215D01*
X298613Y183082D01*
X298918Y183387D01*
X299083Y183785D01*
Y184215D01*
X298918Y184613D01*
X298613Y184918D01*
X298215Y185083D01*
D02*
G37*
G36*
X293215D02*
X292785D01*
X292387Y184918D01*
X292082Y184613D01*
X291917Y184215D01*
Y183785D01*
X292082Y183387D01*
X292387Y183082D01*
X292785Y182917D01*
X293215D01*
X293613Y183082D01*
X293918Y183387D01*
X294083Y183785D01*
Y184215D01*
X293918Y184613D01*
X293613Y184918D01*
X293215Y185083D01*
D02*
G37*
G36*
X288215D02*
X287785D01*
X287387Y184918D01*
X287082Y184613D01*
X286917Y184215D01*
Y183785D01*
X287082Y183387D01*
X287387Y183082D01*
X287785Y182917D01*
X288215D01*
X288613Y183082D01*
X288918Y183387D01*
X289083Y183785D01*
Y184215D01*
X288918Y184613D01*
X288613Y184918D01*
X288215Y185083D01*
D02*
G37*
G36*
X283215D02*
X282785D01*
X282387Y184918D01*
X282082Y184613D01*
X281917Y184215D01*
Y183785D01*
X282082Y183387D01*
X282387Y183082D01*
X282785Y182917D01*
X283215D01*
X283613Y183082D01*
X283918Y183387D01*
X284083Y183785D01*
Y184215D01*
X283918Y184613D01*
X283613Y184918D01*
X283215Y185083D01*
D02*
G37*
G36*
X278215D02*
X277785D01*
X277387Y184918D01*
X277082Y184613D01*
X276917Y184215D01*
Y183785D01*
X277082Y183387D01*
X277387Y183082D01*
X277785Y182917D01*
X278215D01*
X278613Y183082D01*
X278918Y183387D01*
X279083Y183785D01*
Y184215D01*
X278918Y184613D01*
X278613Y184918D01*
X278215Y185083D01*
D02*
G37*
G36*
X273215D02*
X272785D01*
X272387Y184918D01*
X272082Y184613D01*
X271917Y184215D01*
Y183785D01*
X272082Y183387D01*
X272387Y183082D01*
X272785Y182917D01*
X273215D01*
X273613Y183082D01*
X273918Y183387D01*
X274083Y183785D01*
Y184215D01*
X273918Y184613D01*
X273613Y184918D01*
X273215Y185083D01*
D02*
G37*
G36*
X268215D02*
X267785D01*
X267387Y184918D01*
X267082Y184613D01*
X266917Y184215D01*
Y183785D01*
X267082Y183387D01*
X267387Y183082D01*
X267785Y182917D01*
X268215D01*
X268613Y183082D01*
X268918Y183387D01*
X269083Y183785D01*
Y184215D01*
X268918Y184613D01*
X268613Y184918D01*
X268215Y185083D01*
D02*
G37*
G36*
X263215D02*
X262785D01*
X262387Y184918D01*
X262082Y184613D01*
X261917Y184215D01*
Y183785D01*
X262082Y183387D01*
X262387Y183082D01*
X262785Y182917D01*
X263215D01*
X263613Y183082D01*
X263918Y183387D01*
X264083Y183785D01*
Y184215D01*
X263918Y184613D01*
X263613Y184918D01*
X263215Y185083D01*
D02*
G37*
G36*
X258215D02*
X257785D01*
X257387Y184918D01*
X257082Y184613D01*
X256917Y184215D01*
Y183785D01*
X257082Y183387D01*
X257387Y183082D01*
X257785Y182917D01*
X258215D01*
X258613Y183082D01*
X258918Y183387D01*
X259083Y183785D01*
Y184215D01*
X258918Y184613D01*
X258613Y184918D01*
X258215Y185083D01*
D02*
G37*
G36*
X253215D02*
X252785D01*
X252387Y184918D01*
X252082Y184613D01*
X251917Y184215D01*
Y183785D01*
X252082Y183387D01*
X252387Y183082D01*
X252785Y182917D01*
X253215D01*
X253613Y183082D01*
X253918Y183387D01*
X254083Y183785D01*
Y184215D01*
X253918Y184613D01*
X253613Y184918D01*
X253215Y185083D01*
D02*
G37*
G36*
X227113Y183484D02*
X226682D01*
X226284Y183319D01*
X225980Y183015D01*
X225815Y182617D01*
Y182186D01*
X225980Y181788D01*
X226284Y181484D01*
X226682Y181319D01*
X227113D01*
X227511Y181484D01*
X227816Y181788D01*
X227980Y182186D01*
Y182617D01*
X227816Y183015D01*
X227511Y183319D01*
X227113Y183484D01*
D02*
G37*
G36*
X223963D02*
X223533D01*
X223135Y183319D01*
X222830Y183015D01*
X222665Y182617D01*
Y182186D01*
X222830Y181788D01*
X223135Y181484D01*
X223533Y181319D01*
X223963D01*
X224361Y181484D01*
X224666Y181788D01*
X224831Y182186D01*
Y182617D01*
X224666Y183015D01*
X224361Y183319D01*
X223963Y183484D01*
D02*
G37*
G36*
X220814D02*
X220383D01*
X219985Y183319D01*
X219681Y183015D01*
X219516Y182617D01*
Y182186D01*
X219681Y181788D01*
X219985Y181484D01*
X220383Y181319D01*
X220814D01*
X221212Y181484D01*
X221516Y181788D01*
X221681Y182186D01*
Y182617D01*
X221516Y183015D01*
X221212Y183319D01*
X220814Y183484D01*
D02*
G37*
G36*
X133818Y183209D02*
X133387D01*
X132989Y183044D01*
X132685Y182739D01*
X132520Y182341D01*
Y181911D01*
X132685Y181513D01*
X132989Y181208D01*
X133387Y181043D01*
X133818D01*
X134216Y181208D01*
X134520Y181513D01*
X134685Y181911D01*
Y182341D01*
X134520Y182739D01*
X134216Y183044D01*
X133818Y183209D01*
D02*
G37*
G36*
X230263Y180335D02*
X229832D01*
X229434Y180170D01*
X229129Y179865D01*
X228965Y179467D01*
Y179037D01*
X229129Y178639D01*
X229434Y178334D01*
X229832Y178169D01*
X230263D01*
X230661Y178334D01*
X230965Y178639D01*
X231130Y179037D01*
Y179467D01*
X230965Y179865D01*
X230661Y180170D01*
X230263Y180335D01*
D02*
G37*
G36*
X227113D02*
X226682D01*
X226284Y180170D01*
X225980Y179865D01*
X225815Y179467D01*
Y179037D01*
X225980Y178639D01*
X226284Y178334D01*
X226682Y178169D01*
X227113D01*
X227511Y178334D01*
X227816Y178639D01*
X227980Y179037D01*
Y179467D01*
X227816Y179865D01*
X227511Y180170D01*
X227113Y180335D01*
D02*
G37*
G36*
X298215Y180083D02*
X297785D01*
X297387Y179918D01*
X297082Y179613D01*
X296917Y179215D01*
Y178785D01*
X297082Y178387D01*
X297387Y178082D01*
X297785Y177917D01*
X298215D01*
X298613Y178082D01*
X298918Y178387D01*
X299083Y178785D01*
Y179215D01*
X298918Y179613D01*
X298613Y179918D01*
X298215Y180083D01*
D02*
G37*
G36*
X293215D02*
X292785D01*
X292387Y179918D01*
X292082Y179613D01*
X291917Y179215D01*
Y178785D01*
X292082Y178387D01*
X292387Y178082D01*
X292785Y177917D01*
X293215D01*
X293613Y178082D01*
X293918Y178387D01*
X294083Y178785D01*
Y179215D01*
X293918Y179613D01*
X293613Y179918D01*
X293215Y180083D01*
D02*
G37*
G36*
X288215D02*
X287785D01*
X287387Y179918D01*
X287082Y179613D01*
X286917Y179215D01*
Y178785D01*
X287082Y178387D01*
X287387Y178082D01*
X287785Y177917D01*
X288215D01*
X288613Y178082D01*
X288918Y178387D01*
X289083Y178785D01*
Y179215D01*
X288918Y179613D01*
X288613Y179918D01*
X288215Y180083D01*
D02*
G37*
G36*
X283215D02*
X282785D01*
X282387Y179918D01*
X282082Y179613D01*
X281917Y179215D01*
Y178785D01*
X282082Y178387D01*
X282387Y178082D01*
X282785Y177917D01*
X283215D01*
X283613Y178082D01*
X283918Y178387D01*
X284083Y178785D01*
Y179215D01*
X283918Y179613D01*
X283613Y179918D01*
X283215Y180083D01*
D02*
G37*
G36*
X278215D02*
X277785D01*
X277387Y179918D01*
X277082Y179613D01*
X276917Y179215D01*
Y178785D01*
X277082Y178387D01*
X277387Y178082D01*
X277785Y177917D01*
X278215D01*
X278613Y178082D01*
X278918Y178387D01*
X279083Y178785D01*
Y179215D01*
X278918Y179613D01*
X278613Y179918D01*
X278215Y180083D01*
D02*
G37*
G36*
X273215D02*
X272785D01*
X272387Y179918D01*
X272082Y179613D01*
X271917Y179215D01*
Y178785D01*
X272082Y178387D01*
X272387Y178082D01*
X272785Y177917D01*
X273215D01*
X273613Y178082D01*
X273918Y178387D01*
X274083Y178785D01*
Y179215D01*
X273918Y179613D01*
X273613Y179918D01*
X273215Y180083D01*
D02*
G37*
G36*
X268215D02*
X267785D01*
X267387Y179918D01*
X267082Y179613D01*
X266917Y179215D01*
Y178785D01*
X267082Y178387D01*
X267387Y178082D01*
X267785Y177917D01*
X268215D01*
X268613Y178082D01*
X268918Y178387D01*
X269083Y178785D01*
Y179215D01*
X268918Y179613D01*
X268613Y179918D01*
X268215Y180083D01*
D02*
G37*
G36*
X263215D02*
X262785D01*
X262387Y179918D01*
X262082Y179613D01*
X261917Y179215D01*
Y178785D01*
X262082Y178387D01*
X262387Y178082D01*
X262785Y177917D01*
X263215D01*
X263613Y178082D01*
X263918Y178387D01*
X264083Y178785D01*
Y179215D01*
X263918Y179613D01*
X263613Y179918D01*
X263215Y180083D01*
D02*
G37*
G36*
X258215D02*
X257785D01*
X257387Y179918D01*
X257082Y179613D01*
X256917Y179215D01*
Y178785D01*
X257082Y178387D01*
X257387Y178082D01*
X257785Y177917D01*
X258215D01*
X258613Y178082D01*
X258918Y178387D01*
X259083Y178785D01*
Y179215D01*
X258918Y179613D01*
X258613Y179918D01*
X258215Y180083D01*
D02*
G37*
G36*
X253215D02*
X252785D01*
X252387Y179918D01*
X252082Y179613D01*
X251917Y179215D01*
Y178785D01*
X252082Y178387D01*
X252387Y178082D01*
X252785Y177917D01*
X253215D01*
X253613Y178082D01*
X253918Y178387D01*
X254083Y178785D01*
Y179215D01*
X253918Y179613D01*
X253613Y179918D01*
X253215Y180083D01*
D02*
G37*
G36*
X152715Y180059D02*
X152285D01*
X151887Y179894D01*
X151582Y179590D01*
X151417Y179192D01*
Y178761D01*
X151582Y178363D01*
X151887Y178059D01*
X152285Y177894D01*
X152715D01*
X153113Y178059D01*
X153418Y178363D01*
X153583Y178761D01*
Y179192D01*
X153418Y179590D01*
X153113Y179894D01*
X152715Y180059D01*
D02*
G37*
G36*
X136967D02*
X136537D01*
X136139Y179894D01*
X135834Y179590D01*
X135669Y179192D01*
Y178761D01*
X135834Y178363D01*
X136139Y178059D01*
X136537Y177894D01*
X136967D01*
X137365Y178059D01*
X137670Y178363D01*
X137835Y178761D01*
Y179192D01*
X137670Y179590D01*
X137365Y179894D01*
X136967Y180059D01*
D02*
G37*
G36*
X130668D02*
X130237D01*
X129840Y179894D01*
X129535Y179590D01*
X129370Y179192D01*
Y178761D01*
X129535Y178363D01*
X129840Y178059D01*
X130237Y177894D01*
X130668D01*
X131066Y178059D01*
X131371Y178363D01*
X131535Y178761D01*
Y179192D01*
X131371Y179590D01*
X131066Y179894D01*
X130668Y180059D01*
D02*
G37*
G36*
X239711Y177185D02*
X239281D01*
X238883Y177020D01*
X238578Y176716D01*
X238413Y176318D01*
Y175887D01*
X238578Y175489D01*
X238883Y175185D01*
X239281Y175020D01*
X239711D01*
X240109Y175185D01*
X240414Y175489D01*
X240579Y175887D01*
Y176318D01*
X240414Y176716D01*
X240109Y177020D01*
X239711Y177185D01*
D02*
G37*
G36*
X227113D02*
X226682D01*
X226284Y177020D01*
X225980Y176716D01*
X225815Y176318D01*
Y175887D01*
X225980Y175489D01*
X226284Y175185D01*
X226682Y175020D01*
X227113D01*
X227511Y175185D01*
X227816Y175489D01*
X227980Y175887D01*
Y176318D01*
X227816Y176716D01*
X227511Y177020D01*
X227113Y177185D01*
D02*
G37*
G36*
X214515D02*
X214084D01*
X213686Y177020D01*
X213381Y176716D01*
X213216Y176318D01*
Y175887D01*
X213381Y175489D01*
X213686Y175185D01*
X214084Y175020D01*
X214515D01*
X214913Y175185D01*
X215217Y175489D01*
X215382Y175887D01*
Y176318D01*
X215217Y176716D01*
X214913Y177020D01*
X214515Y177185D01*
D02*
G37*
G36*
X152715Y176909D02*
X152285D01*
X151887Y176745D01*
X151582Y176440D01*
X151417Y176042D01*
Y175611D01*
X151582Y175214D01*
X151887Y174909D01*
X152285Y174744D01*
X152715D01*
X153113Y174909D01*
X153418Y175214D01*
X153583Y175611D01*
Y176042D01*
X153418Y176440D01*
X153113Y176745D01*
X152715Y176909D01*
D02*
G37*
G36*
X149566D02*
X149135D01*
X148737Y176745D01*
X148433Y176440D01*
X148268Y176042D01*
Y175611D01*
X148433Y175214D01*
X148737Y174909D01*
X149135Y174744D01*
X149566D01*
X149964Y174909D01*
X150268Y175214D01*
X150433Y175611D01*
Y176042D01*
X150268Y176440D01*
X149964Y176745D01*
X149566Y176909D01*
D02*
G37*
G36*
X136967Y176909D02*
X136537D01*
X136139Y176745D01*
X135834Y176440D01*
X135669Y176042D01*
Y175611D01*
X135834Y175214D01*
X136139Y174909D01*
X136537Y174744D01*
X136967D01*
X137365Y174909D01*
X137670Y175214D01*
X137835Y175611D01*
Y176042D01*
X137670Y176440D01*
X137365Y176745D01*
X136967Y176909D01*
D02*
G37*
G36*
X133818D02*
X133387D01*
X132989Y176745D01*
X132685Y176440D01*
X132520Y176042D01*
Y175611D01*
X132685Y175214D01*
X132989Y174909D01*
X133387Y174744D01*
X133818D01*
X134216Y174909D01*
X134520Y175214D01*
X134685Y175611D01*
Y176042D01*
X134520Y176440D01*
X134216Y176745D01*
X133818Y176909D01*
D02*
G37*
G36*
X298215Y175083D02*
X297785D01*
X297387Y174918D01*
X297082Y174613D01*
X296917Y174215D01*
Y173785D01*
X297082Y173387D01*
X297387Y173082D01*
X297785Y172917D01*
X298215D01*
X298613Y173082D01*
X298918Y173387D01*
X299083Y173785D01*
Y174215D01*
X298918Y174613D01*
X298613Y174918D01*
X298215Y175083D01*
D02*
G37*
G36*
X293215D02*
X292785D01*
X292387Y174918D01*
X292082Y174613D01*
X291917Y174215D01*
Y173785D01*
X292082Y173387D01*
X292387Y173082D01*
X292785Y172917D01*
X293215D01*
X293613Y173082D01*
X293918Y173387D01*
X294083Y173785D01*
Y174215D01*
X293918Y174613D01*
X293613Y174918D01*
X293215Y175083D01*
D02*
G37*
G36*
X288215D02*
X287785D01*
X287387Y174918D01*
X287082Y174613D01*
X286917Y174215D01*
Y173785D01*
X287082Y173387D01*
X287387Y173082D01*
X287785Y172917D01*
X288215D01*
X288613Y173082D01*
X288918Y173387D01*
X289083Y173785D01*
Y174215D01*
X288918Y174613D01*
X288613Y174918D01*
X288215Y175083D01*
D02*
G37*
G36*
X268215D02*
X267785D01*
X267387Y174918D01*
X267082Y174613D01*
X266917Y174215D01*
Y173785D01*
X267082Y173387D01*
X267387Y173082D01*
X267785Y172917D01*
X268215D01*
X268613Y173082D01*
X268918Y173387D01*
X269083Y173785D01*
Y174215D01*
X268918Y174613D01*
X268613Y174918D01*
X268215Y175083D01*
D02*
G37*
G36*
X263215D02*
X262785D01*
X262387Y174918D01*
X262082Y174613D01*
X261917Y174215D01*
Y173785D01*
X262082Y173387D01*
X262387Y173082D01*
X262785Y172917D01*
X263215D01*
X263613Y173082D01*
X263918Y173387D01*
X264083Y173785D01*
Y174215D01*
X263918Y174613D01*
X263613Y174918D01*
X263215Y175083D01*
D02*
G37*
G36*
X258215D02*
X257785D01*
X257387Y174918D01*
X257082Y174613D01*
X256917Y174215D01*
Y173785D01*
X257082Y173387D01*
X257387Y173082D01*
X257785Y172917D01*
X258215D01*
X258613Y173082D01*
X258918Y173387D01*
X259083Y173785D01*
Y174215D01*
X258918Y174613D01*
X258613Y174918D01*
X258215Y175083D01*
D02*
G37*
G36*
X253215D02*
X252785D01*
X252387Y174918D01*
X252082Y174613D01*
X251917Y174215D01*
Y173785D01*
X252082Y173387D01*
X252387Y173082D01*
X252785Y172917D01*
X253215D01*
X253613Y173082D01*
X253918Y173387D01*
X254083Y173785D01*
Y174215D01*
X253918Y174613D01*
X253613Y174918D01*
X253215Y175083D01*
D02*
G37*
G36*
X239711Y174035D02*
X239281D01*
X238883Y173871D01*
X238578Y173566D01*
X238413Y173168D01*
Y172737D01*
X238516Y172489D01*
X238510Y172474D01*
X238186Y172258D01*
X237429Y173015D01*
Y173168D01*
X237264Y173566D01*
X236960Y173871D01*
X236562Y174035D01*
X236131D01*
X235733Y173871D01*
X235429Y173566D01*
X235264Y173168D01*
Y172737D01*
X235429Y172339D01*
X235733Y172035D01*
X236131Y171870D01*
X236285D01*
X237441Y170714D01*
X237441Y170714D01*
X237704Y170538D01*
X238013Y170477D01*
X238013Y170477D01*
X238177D01*
X238440Y170083D01*
X238413Y170018D01*
Y169588D01*
X238578Y169190D01*
X238883Y168885D01*
X239281Y168720D01*
X239711D01*
X240109Y168885D01*
X240414Y169190D01*
X240441Y169254D01*
X240905Y169347D01*
X241191Y169061D01*
Y150222D01*
X241082Y150113D01*
X240917Y149715D01*
Y149285D01*
X241082Y148887D01*
X241387Y148582D01*
X241785Y148417D01*
X242215D01*
X242613Y148582D01*
X242918Y148887D01*
X243083Y149285D01*
Y149715D01*
X242918Y150113D01*
X242809Y150222D01*
Y169396D01*
X242748Y169706D01*
X242572Y169968D01*
X240682Y171858D01*
X240567Y171935D01*
X240439Y172274D01*
X240451Y172429D01*
X240579Y172737D01*
Y173168D01*
X240414Y173566D01*
X240109Y173871D01*
X239711Y174035D01*
D02*
G37*
G36*
X217664D02*
X217233D01*
X216835Y173871D01*
X216531Y173566D01*
X216366Y173168D01*
Y172737D01*
X216531Y172339D01*
X216835Y172035D01*
X217233Y171870D01*
X217664D01*
X218062Y172035D01*
X218367Y172339D01*
X218531Y172737D01*
Y173168D01*
X218367Y173566D01*
X218062Y173871D01*
X217664Y174035D01*
D02*
G37*
G36*
X214530D02*
X214100D01*
X213702Y173871D01*
X213397Y173566D01*
X213232Y173168D01*
Y172737D01*
X213397Y172339D01*
X213702Y172035D01*
X214100Y171870D01*
X214530D01*
X214928Y172035D01*
X215233Y172339D01*
X215398Y172737D01*
Y173168D01*
X215233Y173566D01*
X214928Y173871D01*
X214530Y174035D01*
D02*
G37*
G36*
X152715Y173760D02*
X152285D01*
X151887Y173595D01*
X151582Y173291D01*
X151417Y172892D01*
Y172462D01*
X151582Y172064D01*
X151887Y171759D01*
X152285Y171595D01*
X152715D01*
X153113Y171759D01*
X153418Y172064D01*
X153583Y172462D01*
Y172892D01*
X153418Y173291D01*
X153113Y173595D01*
X152715Y173760D01*
D02*
G37*
G36*
X146416D02*
X145985D01*
X145588Y173595D01*
X145283Y173291D01*
X145118Y172892D01*
Y172462D01*
X145283Y172064D01*
X145588Y171759D01*
X145985Y171595D01*
X146416D01*
X146814Y171759D01*
X147119Y172064D01*
X147283Y172462D01*
Y172892D01*
X147119Y173291D01*
X146814Y173595D01*
X146416Y173760D01*
D02*
G37*
G36*
X133818D02*
X133387D01*
X132989Y173595D01*
X132685Y173291D01*
X132520Y172892D01*
Y172462D01*
X132685Y172064D01*
X132989Y171759D01*
X133387Y171595D01*
X133818D01*
X134216Y171759D01*
X134520Y172064D01*
X134685Y172462D01*
Y172892D01*
X134520Y173291D01*
X134216Y173595D01*
X133818Y173760D01*
D02*
G37*
G36*
X227113Y170886D02*
X226682D01*
X226284Y170721D01*
X225980Y170416D01*
X225815Y170018D01*
Y169588D01*
X225980Y169190D01*
X226284Y168885D01*
X226682Y168720D01*
X227113D01*
X227511Y168885D01*
X227816Y169190D01*
X227980Y169588D01*
Y170018D01*
X227816Y170416D01*
X227511Y170721D01*
X227113Y170886D01*
D02*
G37*
G36*
X152715Y170610D02*
X152285D01*
X151887Y170445D01*
X151582Y170141D01*
X151417Y169743D01*
Y169312D01*
X151582Y168914D01*
X151887Y168610D01*
X152285Y168445D01*
X152715D01*
X153113Y168610D01*
X153418Y168914D01*
X153583Y169312D01*
Y169743D01*
X153418Y170141D01*
X153113Y170445D01*
X152715Y170610D01*
D02*
G37*
G36*
X298215Y170083D02*
X297785D01*
X297387Y169918D01*
X297082Y169613D01*
X296917Y169215D01*
Y168785D01*
X297082Y168387D01*
X297387Y168082D01*
X297785Y167917D01*
X298215D01*
X298613Y168082D01*
X298918Y168387D01*
X299083Y168785D01*
Y169215D01*
X298918Y169613D01*
X298613Y169918D01*
X298215Y170083D01*
D02*
G37*
G36*
X293215D02*
X292785D01*
X292387Y169918D01*
X292082Y169613D01*
X291917Y169215D01*
Y168785D01*
X292082Y168387D01*
X292387Y168082D01*
X292785Y167917D01*
X293215D01*
X293613Y168082D01*
X293918Y168387D01*
X294083Y168785D01*
Y169215D01*
X293918Y169613D01*
X293613Y169918D01*
X293215Y170083D01*
D02*
G37*
G36*
X288215D02*
X287785D01*
X287387Y169918D01*
X287082Y169613D01*
X286917Y169215D01*
Y168785D01*
X287082Y168387D01*
X287387Y168082D01*
X287785Y167917D01*
X288215D01*
X288613Y168082D01*
X288918Y168387D01*
X289083Y168785D01*
Y169215D01*
X288918Y169613D01*
X288613Y169918D01*
X288215Y170083D01*
D02*
G37*
G36*
X283215D02*
X282785D01*
X282387Y169918D01*
X282082Y169613D01*
X281917Y169215D01*
Y168785D01*
X282082Y168387D01*
X282387Y168082D01*
X282785Y167917D01*
X283215D01*
X283613Y168082D01*
X283918Y168387D01*
X284083Y168785D01*
Y169215D01*
X283918Y169613D01*
X283613Y169918D01*
X283215Y170083D01*
D02*
G37*
G36*
X278215D02*
X277785D01*
X277387Y169918D01*
X277082Y169613D01*
X276917Y169215D01*
Y168785D01*
X277082Y168387D01*
X277387Y168082D01*
X277785Y167917D01*
X278215D01*
X278613Y168082D01*
X278918Y168387D01*
X279083Y168785D01*
Y169215D01*
X278918Y169613D01*
X278613Y169918D01*
X278215Y170083D01*
D02*
G37*
G36*
X273215D02*
X272785D01*
X272387Y169918D01*
X272082Y169613D01*
X271917Y169215D01*
Y168785D01*
X272082Y168387D01*
X272387Y168082D01*
X272785Y167917D01*
X273215D01*
X273613Y168082D01*
X273918Y168387D01*
X274083Y168785D01*
Y169215D01*
X273918Y169613D01*
X273613Y169918D01*
X273215Y170083D01*
D02*
G37*
G36*
X268215D02*
X267785D01*
X267387Y169918D01*
X267082Y169613D01*
X266917Y169215D01*
Y168785D01*
X267082Y168387D01*
X267387Y168082D01*
X267785Y167917D01*
X268215D01*
X268613Y168082D01*
X268918Y168387D01*
X269083Y168785D01*
Y169215D01*
X268918Y169613D01*
X268613Y169918D01*
X268215Y170083D01*
D02*
G37*
G36*
X263215D02*
X262785D01*
X262387Y169918D01*
X262082Y169613D01*
X261917Y169215D01*
Y168785D01*
X262082Y168387D01*
X262387Y168082D01*
X262785Y167917D01*
X263215D01*
X263613Y168082D01*
X263918Y168387D01*
X264083Y168785D01*
Y169215D01*
X263918Y169613D01*
X263613Y169918D01*
X263215Y170083D01*
D02*
G37*
G36*
X258215D02*
X257785D01*
X257387Y169918D01*
X257082Y169613D01*
X256917Y169215D01*
Y168785D01*
X257082Y168387D01*
X257387Y168082D01*
X257785Y167917D01*
X258215D01*
X258613Y168082D01*
X258918Y168387D01*
X259083Y168785D01*
Y169215D01*
X258918Y169613D01*
X258613Y169918D01*
X258215Y170083D01*
D02*
G37*
G36*
X253215D02*
X252785D01*
X252387Y169918D01*
X252082Y169613D01*
X251917Y169215D01*
Y168785D01*
X252082Y168387D01*
X252387Y168082D01*
X252785Y167917D01*
X253215D01*
X253613Y168082D01*
X253918Y168387D01*
X254083Y168785D01*
Y169215D01*
X253918Y169613D01*
X253613Y169918D01*
X253215Y170083D01*
D02*
G37*
G36*
X239711Y167736D02*
X239281D01*
X238883Y167571D01*
X238578Y167267D01*
X238413Y166869D01*
Y166438D01*
X238578Y166040D01*
X238883Y165736D01*
X239281Y165571D01*
X239711D01*
X240109Y165736D01*
X240414Y166040D01*
X240579Y166438D01*
Y166869D01*
X240414Y167267D01*
X240109Y167571D01*
X239711Y167736D01*
D02*
G37*
G36*
X227113D02*
X226682D01*
X226284Y167571D01*
X225980Y167267D01*
X225815Y166869D01*
Y166438D01*
X225980Y166040D01*
X226284Y165736D01*
X226682Y165571D01*
X227113D01*
X227511Y165736D01*
X227816Y166040D01*
X227980Y166438D01*
Y166869D01*
X227816Y167267D01*
X227511Y167571D01*
X227113Y167736D01*
D02*
G37*
G36*
X223963D02*
X223533D01*
X223135Y167571D01*
X222830Y167267D01*
X222665Y166869D01*
Y166438D01*
X222830Y166040D01*
X223135Y165736D01*
X223533Y165571D01*
X223963D01*
X224361Y165736D01*
X224666Y166040D01*
X224831Y166438D01*
Y166869D01*
X224666Y167267D01*
X224361Y167571D01*
X223963Y167736D01*
D02*
G37*
G36*
X298215Y165083D02*
X297785D01*
X297387Y164918D01*
X297082Y164613D01*
X296917Y164215D01*
Y163785D01*
X297082Y163387D01*
X297387Y163082D01*
X297785Y162917D01*
X298215D01*
X298613Y163082D01*
X298918Y163387D01*
X299083Y163785D01*
Y164215D01*
X298918Y164613D01*
X298613Y164918D01*
X298215Y165083D01*
D02*
G37*
G36*
X293215D02*
X292785D01*
X292387Y164918D01*
X292082Y164613D01*
X291917Y164215D01*
Y163785D01*
X292082Y163387D01*
X292387Y163082D01*
X292785Y162917D01*
X293215D01*
X293613Y163082D01*
X293918Y163387D01*
X294083Y163785D01*
Y164215D01*
X293918Y164613D01*
X293613Y164918D01*
X293215Y165083D01*
D02*
G37*
G36*
X288215D02*
X287785D01*
X287387Y164918D01*
X287082Y164613D01*
X286917Y164215D01*
Y163785D01*
X287082Y163387D01*
X287387Y163082D01*
X287785Y162917D01*
X288215D01*
X288613Y163082D01*
X288918Y163387D01*
X289083Y163785D01*
Y164215D01*
X288918Y164613D01*
X288613Y164918D01*
X288215Y165083D01*
D02*
G37*
G36*
X283215D02*
X282785D01*
X282387Y164918D01*
X282082Y164613D01*
X281917Y164215D01*
Y163785D01*
X282082Y163387D01*
X282387Y163082D01*
X282785Y162917D01*
X283215D01*
X283613Y163082D01*
X283918Y163387D01*
X284083Y163785D01*
Y164215D01*
X283918Y164613D01*
X283613Y164918D01*
X283215Y165083D01*
D02*
G37*
G36*
X273215D02*
X272785D01*
X272387Y164918D01*
X272082Y164613D01*
X271917Y164215D01*
Y163785D01*
X272082Y163387D01*
X272387Y163082D01*
X272785Y162917D01*
X273215D01*
X273613Y163082D01*
X273918Y163387D01*
X274083Y163785D01*
Y164215D01*
X273918Y164613D01*
X273613Y164918D01*
X273215Y165083D01*
D02*
G37*
G36*
X268215D02*
X267785D01*
X267387Y164918D01*
X267082Y164613D01*
X266917Y164215D01*
Y163785D01*
X267082Y163387D01*
X267387Y163082D01*
X267785Y162917D01*
X268215D01*
X268613Y163082D01*
X268918Y163387D01*
X269083Y163785D01*
Y164215D01*
X268918Y164613D01*
X268613Y164918D01*
X268215Y165083D01*
D02*
G37*
G36*
X263215D02*
X262785D01*
X262387Y164918D01*
X262082Y164613D01*
X261917Y164215D01*
Y163785D01*
X262082Y163387D01*
X262387Y163082D01*
X262785Y162917D01*
X263215D01*
X263613Y163082D01*
X263918Y163387D01*
X264083Y163785D01*
Y164215D01*
X263918Y164613D01*
X263613Y164918D01*
X263215Y165083D01*
D02*
G37*
G36*
X258215D02*
X257785D01*
X257387Y164918D01*
X257082Y164613D01*
X256917Y164215D01*
Y163785D01*
X257082Y163387D01*
X257387Y163082D01*
X257785Y162917D01*
X258215D01*
X258613Y163082D01*
X258918Y163387D01*
X259083Y163785D01*
Y164215D01*
X258918Y164613D01*
X258613Y164918D01*
X258215Y165083D01*
D02*
G37*
G36*
X253215D02*
X252785D01*
X252387Y164918D01*
X252082Y164613D01*
X251917Y164215D01*
Y163785D01*
X252082Y163387D01*
X252387Y163082D01*
X252785Y162917D01*
X253215D01*
X253613Y163082D01*
X253918Y163387D01*
X254083Y163785D01*
Y164215D01*
X253918Y164613D01*
X253613Y164918D01*
X253215Y165083D01*
D02*
G37*
G36*
X227113Y164587D02*
X226682D01*
X226284Y164422D01*
X225980Y164117D01*
X225815Y163719D01*
Y163289D01*
X225980Y162891D01*
X226284Y162586D01*
X226682Y162421D01*
X227113D01*
X227511Y162586D01*
X227816Y162891D01*
X227980Y163289D01*
Y163719D01*
X227816Y164117D01*
X227511Y164422D01*
X227113Y164587D01*
D02*
G37*
G36*
X220814D02*
X220383D01*
X219985Y164422D01*
X219681Y164117D01*
X219516Y163719D01*
Y163289D01*
X219681Y162891D01*
X219985Y162586D01*
X220383Y162421D01*
X220814D01*
X221212Y162586D01*
X221516Y162891D01*
X221681Y163289D01*
Y163719D01*
X221516Y164117D01*
X221212Y164422D01*
X220814Y164587D01*
D02*
G37*
G36*
X217664D02*
X217233D01*
X216835Y164422D01*
X216531Y164117D01*
X216366Y163719D01*
Y163289D01*
X216531Y162891D01*
X216835Y162586D01*
X217233Y162421D01*
X217664D01*
X218062Y162586D01*
X218367Y162891D01*
X218531Y163289D01*
Y163719D01*
X218367Y164117D01*
X218062Y164422D01*
X217664Y164587D01*
D02*
G37*
G36*
X183815Y162083D02*
X183385D01*
X182987Y161918D01*
X182682Y161613D01*
X182517Y161215D01*
Y160785D01*
X182682Y160387D01*
X182987Y160082D01*
X183385Y159917D01*
X183815D01*
X184213Y160082D01*
X184518Y160387D01*
X184683Y160785D01*
Y161215D01*
X184518Y161613D01*
X184213Y161918D01*
X183815Y162083D01*
D02*
G37*
G36*
X194956Y161083D02*
X194526D01*
X194128Y160918D01*
X193823Y160613D01*
X193658Y160215D01*
Y159785D01*
X193823Y159387D01*
X194128Y159082D01*
X194526Y158917D01*
X194956D01*
X195354Y159082D01*
X195659Y159387D01*
X195824Y159785D01*
Y160215D01*
X195659Y160613D01*
X195354Y160918D01*
X194956Y161083D01*
D02*
G37*
G36*
X119685Y161802D02*
X119059D01*
X118480Y161563D01*
X118037Y161120D01*
X117798Y160541D01*
Y159915D01*
X118037Y159336D01*
X118480Y158893D01*
X119059Y158653D01*
X119685D01*
X120264Y158893D01*
X120707Y159336D01*
X120947Y159915D01*
Y160541D01*
X120707Y161120D01*
X120264Y161563D01*
X119685Y161802D01*
D02*
G37*
G36*
X298215Y160083D02*
X297785D01*
X297387Y159918D01*
X297082Y159613D01*
X296917Y159215D01*
Y158785D01*
X297082Y158387D01*
X297387Y158082D01*
X297785Y157917D01*
X298215D01*
X298613Y158082D01*
X298918Y158387D01*
X299083Y158785D01*
Y159215D01*
X298918Y159613D01*
X298613Y159918D01*
X298215Y160083D01*
D02*
G37*
G36*
X293215D02*
X292785D01*
X292387Y159918D01*
X292082Y159613D01*
X291917Y159215D01*
Y158785D01*
X292082Y158387D01*
X292387Y158082D01*
X292785Y157917D01*
X293215D01*
X293613Y158082D01*
X293918Y158387D01*
X294083Y158785D01*
Y159215D01*
X293918Y159613D01*
X293613Y159918D01*
X293215Y160083D01*
D02*
G37*
G36*
X288215D02*
X287785D01*
X287387Y159918D01*
X287082Y159613D01*
X286917Y159215D01*
Y158785D01*
X287082Y158387D01*
X287387Y158082D01*
X287785Y157917D01*
X288215D01*
X288613Y158082D01*
X288918Y158387D01*
X289083Y158785D01*
Y159215D01*
X288918Y159613D01*
X288613Y159918D01*
X288215Y160083D01*
D02*
G37*
G36*
X283215D02*
X282785D01*
X282387Y159918D01*
X282082Y159613D01*
X281917Y159215D01*
Y158785D01*
X282082Y158387D01*
X282387Y158082D01*
X282785Y157917D01*
X283215D01*
X283613Y158082D01*
X283918Y158387D01*
X284083Y158785D01*
Y159215D01*
X283918Y159613D01*
X283613Y159918D01*
X283215Y160083D01*
D02*
G37*
G36*
X278215D02*
X277785D01*
X277387Y159918D01*
X277082Y159613D01*
X276917Y159215D01*
Y158785D01*
X277082Y158387D01*
X277387Y158082D01*
X277785Y157917D01*
X278215D01*
X278613Y158082D01*
X278918Y158387D01*
X279083Y158785D01*
Y159215D01*
X278918Y159613D01*
X278613Y159918D01*
X278215Y160083D01*
D02*
G37*
G36*
X273215D02*
X272785D01*
X272387Y159918D01*
X272082Y159613D01*
X271917Y159215D01*
Y158785D01*
X272082Y158387D01*
X272387Y158082D01*
X272785Y157917D01*
X273215D01*
X273613Y158082D01*
X273918Y158387D01*
X274083Y158785D01*
Y159215D01*
X273918Y159613D01*
X273613Y159918D01*
X273215Y160083D01*
D02*
G37*
G36*
X268215D02*
X267785D01*
X267387Y159918D01*
X267082Y159613D01*
X266917Y159215D01*
Y158785D01*
X267082Y158387D01*
X267387Y158082D01*
X267785Y157917D01*
X268215D01*
X268613Y158082D01*
X268918Y158387D01*
X269083Y158785D01*
Y159215D01*
X268918Y159613D01*
X268613Y159918D01*
X268215Y160083D01*
D02*
G37*
G36*
X263215D02*
X262785D01*
X262387Y159918D01*
X262082Y159613D01*
X261917Y159215D01*
Y158785D01*
X262082Y158387D01*
X262387Y158082D01*
X262785Y157917D01*
X263215D01*
X263613Y158082D01*
X263918Y158387D01*
X264083Y158785D01*
Y159215D01*
X263918Y159613D01*
X263613Y159918D01*
X263215Y160083D01*
D02*
G37*
G36*
X258215D02*
X257785D01*
X257387Y159918D01*
X257082Y159613D01*
X256917Y159215D01*
Y158785D01*
X257082Y158387D01*
X257387Y158082D01*
X257785Y157917D01*
X258215D01*
X258613Y158082D01*
X258918Y158387D01*
X259083Y158785D01*
Y159215D01*
X258918Y159613D01*
X258613Y159918D01*
X258215Y160083D01*
D02*
G37*
G36*
X253215D02*
X252785D01*
X252387Y159918D01*
X252082Y159613D01*
X251917Y159215D01*
Y158785D01*
X252082Y158387D01*
X252387Y158082D01*
X252785Y157917D01*
X253215D01*
X253613Y158082D01*
X253918Y158387D01*
X254083Y158785D01*
Y159215D01*
X253918Y159613D01*
X253613Y159918D01*
X253215Y160083D01*
D02*
G37*
G36*
X298215Y155083D02*
X297785D01*
X297387Y154918D01*
X297082Y154613D01*
X296917Y154215D01*
Y153785D01*
X297082Y153387D01*
X297387Y153082D01*
X297785Y152917D01*
X298215D01*
X298613Y153082D01*
X298918Y153387D01*
X299083Y153785D01*
Y154215D01*
X298918Y154613D01*
X298613Y154918D01*
X298215Y155083D01*
D02*
G37*
G36*
X293215D02*
X292785D01*
X292387Y154918D01*
X292082Y154613D01*
X291917Y154215D01*
Y153785D01*
X292082Y153387D01*
X292387Y153082D01*
X292785Y152917D01*
X293215D01*
X293613Y153082D01*
X293918Y153387D01*
X294083Y153785D01*
Y154215D01*
X293918Y154613D01*
X293613Y154918D01*
X293215Y155083D01*
D02*
G37*
G36*
X288215D02*
X287785D01*
X287387Y154918D01*
X287082Y154613D01*
X286917Y154215D01*
Y153785D01*
X287082Y153387D01*
X287387Y153082D01*
X287785Y152917D01*
X288215D01*
X288613Y153082D01*
X288918Y153387D01*
X289083Y153785D01*
Y154215D01*
X288918Y154613D01*
X288613Y154918D01*
X288215Y155083D01*
D02*
G37*
G36*
X283215D02*
X282785D01*
X282387Y154918D01*
X282082Y154613D01*
X281917Y154215D01*
Y153785D01*
X282082Y153387D01*
X282387Y153082D01*
X282785Y152917D01*
X283215D01*
X283613Y153082D01*
X283918Y153387D01*
X284083Y153785D01*
Y154215D01*
X283918Y154613D01*
X283613Y154918D01*
X283215Y155083D01*
D02*
G37*
G36*
X278215D02*
X277785D01*
X277387Y154918D01*
X277082Y154613D01*
X276917Y154215D01*
Y153785D01*
X277082Y153387D01*
X277387Y153082D01*
X277785Y152917D01*
X278215D01*
X278613Y153082D01*
X278918Y153387D01*
X279083Y153785D01*
Y154215D01*
X278918Y154613D01*
X278613Y154918D01*
X278215Y155083D01*
D02*
G37*
G36*
X273215D02*
X272785D01*
X272387Y154918D01*
X272082Y154613D01*
X271917Y154215D01*
Y153785D01*
X272082Y153387D01*
X272387Y153082D01*
X272785Y152917D01*
X273215D01*
X273613Y153082D01*
X273918Y153387D01*
X274083Y153785D01*
Y154215D01*
X273918Y154613D01*
X273613Y154918D01*
X273215Y155083D01*
D02*
G37*
G36*
X268215D02*
X267785D01*
X267387Y154918D01*
X267082Y154613D01*
X266917Y154215D01*
Y153785D01*
X267082Y153387D01*
X267387Y153082D01*
X267785Y152917D01*
X268215D01*
X268613Y153082D01*
X268918Y153387D01*
X269083Y153785D01*
Y154215D01*
X268918Y154613D01*
X268613Y154918D01*
X268215Y155083D01*
D02*
G37*
G36*
X263215D02*
X262785D01*
X262387Y154918D01*
X262082Y154613D01*
X261917Y154215D01*
Y153785D01*
X262082Y153387D01*
X262387Y153082D01*
X262785Y152917D01*
X263215D01*
X263613Y153082D01*
X263918Y153387D01*
X264083Y153785D01*
Y154215D01*
X263918Y154613D01*
X263613Y154918D01*
X263215Y155083D01*
D02*
G37*
G36*
X258215D02*
X257785D01*
X257387Y154918D01*
X257082Y154613D01*
X256917Y154215D01*
Y153785D01*
X257082Y153387D01*
X257387Y153082D01*
X257785Y152917D01*
X258215D01*
X258613Y153082D01*
X258918Y153387D01*
X259083Y153785D01*
Y154215D01*
X258918Y154613D01*
X258613Y154918D01*
X258215Y155083D01*
D02*
G37*
G36*
X253215D02*
X252785D01*
X252387Y154918D01*
X252082Y154613D01*
X251917Y154215D01*
Y153785D01*
X252082Y153387D01*
X252387Y153082D01*
X252785Y152917D01*
X253215D01*
X253613Y153082D01*
X253918Y153387D01*
X254083Y153785D01*
Y154215D01*
X253918Y154613D01*
X253613Y154918D01*
X253215Y155083D01*
D02*
G37*
G36*
X178309Y155575D02*
X177683D01*
X177104Y155335D01*
X176661Y154892D01*
X176421Y154313D01*
Y153687D01*
X176661Y153108D01*
X177104Y152665D01*
X177683Y152425D01*
X178309D01*
X178888Y152665D01*
X179331Y153108D01*
X179571Y153687D01*
Y154313D01*
X179331Y154892D01*
X178888Y155335D01*
X178309Y155575D01*
D02*
G37*
G36*
X144463Y154275D02*
X143836D01*
X143258Y154035D01*
X142815Y153592D01*
X142575Y153013D01*
Y152387D01*
X142815Y151808D01*
X143258Y151365D01*
X143836Y151125D01*
X144463D01*
X145042Y151365D01*
X145485Y151808D01*
X145724Y152387D01*
Y153013D01*
X145485Y153592D01*
X145042Y154035D01*
X144463Y154275D01*
D02*
G37*
G36*
X133846Y153859D02*
X133220D01*
X132641Y153619D01*
X132198Y153176D01*
X131958Y152597D01*
Y151971D01*
X132198Y151392D01*
X132641Y150949D01*
X133220Y150709D01*
X133846D01*
X134425Y150949D01*
X134868Y151392D01*
X135108Y151971D01*
Y152597D01*
X134868Y153176D01*
X134425Y153619D01*
X133846Y153859D01*
D02*
G37*
G36*
X298313Y145575D02*
X297687D01*
X297108Y145335D01*
X296665Y144892D01*
X296425Y144313D01*
Y143687D01*
X296665Y143108D01*
X297108Y142665D01*
X297687Y142425D01*
X298313D01*
X298892Y142665D01*
X299335Y143108D01*
X299575Y143687D01*
Y144313D01*
X299335Y144892D01*
X298892Y145335D01*
X298313Y145575D01*
D02*
G37*
G36*
X293313D02*
X292687D01*
X292108Y145335D01*
X291665Y144892D01*
X291425Y144313D01*
Y143687D01*
X291665Y143108D01*
X292108Y142665D01*
X292687Y142425D01*
X293313D01*
X293892Y142665D01*
X294335Y143108D01*
X294575Y143687D01*
Y144313D01*
X294335Y144892D01*
X293892Y145335D01*
X293313Y145575D01*
D02*
G37*
G36*
X288313D02*
X287687D01*
X287108Y145335D01*
X286665Y144892D01*
X286425Y144313D01*
Y143687D01*
X286665Y143108D01*
X287108Y142665D01*
X287687Y142425D01*
X288313D01*
X288892Y142665D01*
X289335Y143108D01*
X289575Y143687D01*
Y144313D01*
X289335Y144892D01*
X288892Y145335D01*
X288313Y145575D01*
D02*
G37*
G36*
X283313D02*
X282687D01*
X282108Y145335D01*
X281665Y144892D01*
X281425Y144313D01*
Y143687D01*
X281665Y143108D01*
X282108Y142665D01*
X282687Y142425D01*
X283313D01*
X283892Y142665D01*
X284335Y143108D01*
X284575Y143687D01*
Y144313D01*
X284335Y144892D01*
X283892Y145335D01*
X283313Y145575D01*
D02*
G37*
G36*
X278313D02*
X277687D01*
X277108Y145335D01*
X276665Y144892D01*
X276425Y144313D01*
Y143687D01*
X276665Y143108D01*
X277108Y142665D01*
X277687Y142425D01*
X278313D01*
X278892Y142665D01*
X279335Y143108D01*
X279575Y143687D01*
Y144313D01*
X279335Y144892D01*
X278892Y145335D01*
X278313Y145575D01*
D02*
G37*
G36*
X273313D02*
X272687D01*
X272108Y145335D01*
X271665Y144892D01*
X271425Y144313D01*
Y143687D01*
X271665Y143108D01*
X272108Y142665D01*
X272687Y142425D01*
X273313D01*
X273892Y142665D01*
X274335Y143108D01*
X274575Y143687D01*
Y144313D01*
X274335Y144892D01*
X273892Y145335D01*
X273313Y145575D01*
D02*
G37*
G36*
X268313D02*
X267687D01*
X267108Y145335D01*
X266665Y144892D01*
X266425Y144313D01*
Y143687D01*
X266665Y143108D01*
X267108Y142665D01*
X267687Y142425D01*
X268313D01*
X268892Y142665D01*
X269335Y143108D01*
X269575Y143687D01*
Y144313D01*
X269335Y144892D01*
X268892Y145335D01*
X268313Y145575D01*
D02*
G37*
G36*
X263313D02*
X262687D01*
X262108Y145335D01*
X261665Y144892D01*
X261425Y144313D01*
Y143687D01*
X261665Y143108D01*
X262108Y142665D01*
X262687Y142425D01*
X263313D01*
X263892Y142665D01*
X264335Y143108D01*
X264575Y143687D01*
Y144313D01*
X264335Y144892D01*
X263892Y145335D01*
X263313Y145575D01*
D02*
G37*
G36*
X258313D02*
X257687D01*
X257108Y145335D01*
X256665Y144892D01*
X256425Y144313D01*
Y143687D01*
X256665Y143108D01*
X257108Y142665D01*
X257687Y142425D01*
X258313D01*
X258892Y142665D01*
X259335Y143108D01*
X259575Y143687D01*
Y144313D01*
X259335Y144892D01*
X258892Y145335D01*
X258313Y145575D01*
D02*
G37*
G36*
X253313D02*
X252687D01*
X252108Y145335D01*
X251665Y144892D01*
X251425Y144313D01*
Y143687D01*
X251665Y143108D01*
X252108Y142665D01*
X252687Y142425D01*
X253313D01*
X253892Y142665D01*
X254335Y143108D01*
X254575Y143687D01*
Y144313D01*
X254335Y144892D01*
X253892Y145335D01*
X253313Y145575D01*
D02*
G37*
G36*
X133813Y147875D02*
X133187D01*
X132608Y147635D01*
X132165Y147192D01*
X131925Y146613D01*
Y145987D01*
X132165Y145408D01*
X132589Y144984D01*
Y141916D01*
X132165Y141492D01*
X131925Y140913D01*
Y140287D01*
X132165Y139708D01*
X132608Y139265D01*
X133187Y139025D01*
X133813D01*
X134392Y139265D01*
X134835Y139708D01*
X135075Y140287D01*
Y140913D01*
X134835Y141492D01*
X134411Y141916D01*
Y144984D01*
X134835Y145408D01*
X135075Y145987D01*
Y146613D01*
X134835Y147192D01*
X134392Y147635D01*
X133813Y147875D01*
D02*
G37*
G36*
X178213Y139949D02*
X177587D01*
X177008Y139709D01*
X176565Y139267D01*
X176325Y138688D01*
Y138061D01*
X176565Y137482D01*
X177008Y137039D01*
X177587Y136800D01*
X178213D01*
X178792Y137039D01*
X179235Y137482D01*
X179475Y138061D01*
Y138688D01*
X179235Y139267D01*
X178792Y139709D01*
X178213Y139949D01*
D02*
G37*
G36*
X188513Y142875D02*
X187887D01*
X187308Y142635D01*
X186865Y142192D01*
X186625Y141613D01*
Y140987D01*
X186829Y140495D01*
Y137964D01*
X186725Y137713D01*
Y137087D01*
X186965Y136508D01*
X187408Y136065D01*
X187987Y135825D01*
X188613D01*
X189192Y136065D01*
X189635Y136508D01*
X189875Y137087D01*
Y137713D01*
X189671Y138205D01*
Y140736D01*
X189775Y140987D01*
Y141613D01*
X189535Y142192D01*
X189092Y142635D01*
X188513Y142875D01*
D02*
G37*
G36*
X271715Y137083D02*
X271285D01*
X270887Y136918D01*
X270582Y136613D01*
X270417Y136215D01*
Y135785D01*
X270582Y135387D01*
X270887Y135082D01*
X271285Y134917D01*
X271715D01*
X272113Y135082D01*
X272418Y135387D01*
X272583Y135785D01*
Y136215D01*
X272418Y136613D01*
X272113Y136918D01*
X271715Y137083D01*
D02*
G37*
G36*
X202313Y134875D02*
X201687D01*
X201108Y134635D01*
X200665Y134192D01*
X200425Y133613D01*
Y132987D01*
X200665Y132408D01*
X201108Y131965D01*
X201687Y131725D01*
X202313D01*
X202892Y131965D01*
X203335Y132408D01*
X203575Y132987D01*
Y133613D01*
X203335Y134192D01*
X202892Y134635D01*
X202313Y134875D01*
D02*
G37*
G36*
X147813D02*
X147187D01*
X146608Y134635D01*
X146165Y134192D01*
X145925Y133613D01*
Y132987D01*
X146165Y132408D01*
X146608Y131965D01*
X147187Y131725D01*
X147813D01*
X148392Y131965D01*
X148835Y132408D01*
X149075Y132987D01*
Y133613D01*
X148835Y134192D01*
X148392Y134635D01*
X147813Y134875D01*
D02*
G37*
G36*
X207313Y134675D02*
X206687D01*
X206108Y134435D01*
X205665Y133992D01*
X205425Y133413D01*
Y132787D01*
X205665Y132208D01*
X206108Y131765D01*
X206687Y131525D01*
X207313D01*
X207892Y131765D01*
X208335Y132208D01*
X208575Y132787D01*
Y133413D01*
X208335Y133992D01*
X207892Y134435D01*
X207313Y134675D01*
D02*
G37*
G36*
X152813D02*
X152187D01*
X151608Y134435D01*
X151165Y133992D01*
X150925Y133413D01*
Y132787D01*
X151165Y132208D01*
X151608Y131765D01*
X152187Y131525D01*
X152813D01*
X153392Y131765D01*
X153835Y132208D01*
X154075Y132787D01*
Y133413D01*
X153835Y133992D01*
X153392Y134435D01*
X152813Y134675D01*
D02*
G37*
G36*
X268113Y132575D02*
X267487D01*
X266908Y132335D01*
X266465Y131892D01*
X266225Y131313D01*
Y130687D01*
X266465Y130108D01*
X266908Y129665D01*
X267487Y129425D01*
X268113D01*
X268692Y129665D01*
X269135Y130108D01*
X269375Y130687D01*
Y131313D01*
X269135Y131892D01*
X268692Y132335D01*
X268113Y132575D01*
D02*
G37*
G36*
X156369Y129923D02*
X155742D01*
X155163Y129683D01*
X154720Y129240D01*
X154540Y128803D01*
X154117Y128794D01*
X154035Y128992D01*
X153592Y129435D01*
X153013Y129675D01*
X152387D01*
X151808Y129435D01*
X151365Y128992D01*
X151125Y128413D01*
Y127787D01*
X151365Y127208D01*
X151808Y126765D01*
X152387Y126525D01*
X153013D01*
X153592Y126765D01*
X154035Y127208D01*
X154216Y127645D01*
X154639Y127654D01*
X154720Y127456D01*
X155163Y127013D01*
X155742Y126773D01*
X156369D01*
X156948Y127013D01*
X157391Y127456D01*
X157630Y128035D01*
Y128661D01*
X157391Y129240D01*
X156948Y129683D01*
X156369Y129923D01*
D02*
G37*
G36*
X178115Y130283D02*
X177685D01*
X177287Y130118D01*
X176982Y129813D01*
X176817Y129415D01*
Y128985D01*
X176982Y128587D01*
X177287Y128282D01*
X177685Y128117D01*
X178115D01*
X178513Y128282D01*
X178818Y128587D01*
X178983Y128985D01*
Y129415D01*
X178818Y129813D01*
X178513Y130118D01*
X178115Y130283D01*
D02*
G37*
G36*
X188613Y135075D02*
X187987D01*
X187408Y134835D01*
X186965Y134392D01*
X186725Y133813D01*
Y133187D01*
X186965Y132608D01*
X187408Y132165D01*
X187507Y132124D01*
Y130878D01*
X187441Y130851D01*
X186998Y130408D01*
X186758Y129829D01*
Y129202D01*
X186998Y128624D01*
X187441Y128181D01*
X188020Y127941D01*
X188646D01*
X189225Y128181D01*
X189668Y128624D01*
X189908Y129202D01*
Y129829D01*
X189668Y130408D01*
X189225Y130851D01*
X189126Y130892D01*
Y132138D01*
X189192Y132165D01*
X189635Y132608D01*
X189875Y133187D01*
Y133813D01*
X189635Y134392D01*
X189192Y134835D01*
X188613Y135075D01*
D02*
G37*
G36*
X212313Y129875D02*
X211687D01*
X211108Y129635D01*
X210665Y129192D01*
X210425Y128613D01*
Y127987D01*
X210665Y127408D01*
X211108Y126965D01*
X211687Y126725D01*
X212313D01*
X212892Y126965D01*
X213335Y127408D01*
X213575Y127987D01*
Y128613D01*
X213335Y129192D01*
X212892Y129635D01*
X212313Y129875D01*
D02*
G37*
G36*
X202313D02*
X201687D01*
X201108Y129635D01*
X200665Y129192D01*
X200425Y128613D01*
Y127987D01*
X200665Y127408D01*
X201108Y126965D01*
X201687Y126725D01*
X202313D01*
X202892Y126965D01*
X203335Y127408D01*
X203575Y127987D01*
Y128613D01*
X203335Y129192D01*
X202892Y129635D01*
X202313Y129875D01*
D02*
G37*
G36*
X143013D02*
X142387D01*
X141808Y129635D01*
X141365Y129192D01*
X141125Y128613D01*
Y127987D01*
X141365Y127408D01*
X141808Y126965D01*
X142387Y126725D01*
X143013D01*
X143592Y126965D01*
X144035Y127408D01*
X144275Y127987D01*
Y128613D01*
X144035Y129192D01*
X143592Y129635D01*
X143013Y129875D01*
D02*
G37*
G36*
X212313Y124675D02*
X211687D01*
X211108Y124435D01*
X210665Y123992D01*
X210425Y123413D01*
Y122787D01*
X210665Y122208D01*
X211108Y121765D01*
X211687Y121525D01*
X212313D01*
X212892Y121765D01*
X213335Y122208D01*
X213575Y122787D01*
Y123413D01*
X213335Y123992D01*
X212892Y124435D01*
X212313Y124675D01*
D02*
G37*
G36*
X202313D02*
X201687D01*
X201108Y124435D01*
X200665Y123992D01*
X200425Y123413D01*
Y122787D01*
X200665Y122208D01*
X201108Y121765D01*
X201687Y121525D01*
X202313D01*
X202892Y121765D01*
X203335Y122208D01*
X203575Y122787D01*
Y123413D01*
X203335Y123992D01*
X202892Y124435D01*
X202313Y124675D01*
D02*
G37*
G36*
X157813D02*
X157187D01*
X156608Y124435D01*
X156165Y123992D01*
X155925Y123413D01*
Y122787D01*
X156165Y122208D01*
X156608Y121765D01*
X157187Y121525D01*
X157813D01*
X158392Y121765D01*
X158835Y122208D01*
X159075Y122787D01*
Y123413D01*
X158835Y123992D01*
X158392Y124435D01*
X157813Y124675D01*
D02*
G37*
G36*
X242598Y124208D02*
X241971D01*
X241392Y123968D01*
X240949Y123525D01*
X240709Y122946D01*
Y122320D01*
X240949Y121741D01*
X241392Y121298D01*
X241971Y121058D01*
X242598D01*
X243176Y121298D01*
X243619Y121741D01*
X243772Y122110D01*
X244198D01*
X244365Y121708D01*
X244808Y121265D01*
X245387Y121025D01*
X246013D01*
X246592Y121265D01*
X247035Y121708D01*
X247275Y122287D01*
Y122913D01*
X247035Y123492D01*
X246592Y123935D01*
X246013Y124175D01*
X245387D01*
X244808Y123935D01*
X244365Y123492D01*
X244212Y123123D01*
X243786D01*
X243619Y123525D01*
X243176Y123968D01*
X242598Y124208D01*
D02*
G37*
G36*
X238813Y124175D02*
X238187D01*
X237608Y123935D01*
X237165Y123492D01*
X236925Y122913D01*
Y122287D01*
X237165Y121708D01*
X237608Y121265D01*
X238187Y121025D01*
X238813D01*
X239392Y121265D01*
X239835Y121708D01*
X240075Y122287D01*
Y122913D01*
X239835Y123492D01*
X239392Y123935D01*
X238813Y124175D01*
D02*
G37*
G36*
X235013D02*
X234387D01*
X233808Y123935D01*
X233365Y123492D01*
X233125Y122913D01*
Y122287D01*
X233365Y121708D01*
X233808Y121265D01*
X234387Y121025D01*
X235013D01*
X235592Y121265D01*
X236035Y121708D01*
X236275Y122287D01*
Y122913D01*
X236035Y123492D01*
X235592Y123935D01*
X235013Y124175D01*
D02*
G37*
G36*
X231413D02*
X230787D01*
X230208Y123935D01*
X229765Y123492D01*
X229525Y122913D01*
Y122287D01*
X229765Y121708D01*
X230208Y121265D01*
X230787Y121025D01*
X231413D01*
X231992Y121265D01*
X232435Y121708D01*
X232675Y122287D01*
Y122913D01*
X232435Y123492D01*
X231992Y123935D01*
X231413Y124175D01*
D02*
G37*
G36*
X226597Y124142D02*
X225971D01*
X225392Y123902D01*
X224949Y123459D01*
X224710Y122880D01*
Y122254D01*
X224949Y121675D01*
X225392Y121232D01*
X225971Y120992D01*
X226597D01*
X227176Y121232D01*
X227619Y121675D01*
X227859Y122254D01*
Y122880D01*
X227619Y123459D01*
X227176Y123902D01*
X226597Y124142D01*
D02*
G37*
G36*
X188713Y125075D02*
X188087D01*
X187508Y124835D01*
X187065Y124392D01*
X186825Y123813D01*
Y123187D01*
X186929Y122936D01*
Y120105D01*
X186725Y119613D01*
Y118987D01*
X186965Y118408D01*
X187408Y117965D01*
X187987Y117725D01*
X188613D01*
X189192Y117965D01*
X189635Y118408D01*
X189875Y118987D01*
Y119613D01*
X189771Y119864D01*
Y122695D01*
X189975Y123187D01*
Y123813D01*
X189735Y124392D01*
X189292Y124835D01*
X188713Y125075D01*
D02*
G37*
G36*
X133846Y134491D02*
X133220D01*
X132641Y134251D01*
X132198Y133808D01*
X131958Y133229D01*
Y132603D01*
X132198Y132024D01*
X132605Y131616D01*
Y130032D01*
X132165Y129592D01*
X131925Y129013D01*
Y128387D01*
X132165Y127808D01*
X132389Y127584D01*
Y119810D01*
X132208Y119735D01*
X131765Y119292D01*
X131525Y118713D01*
Y118087D01*
X131765Y117508D01*
X132208Y117065D01*
X132787Y116825D01*
X133413D01*
X133992Y117065D01*
X134435Y117508D01*
X134675Y118087D01*
Y118713D01*
X134435Y119292D01*
X134211Y119516D01*
Y127290D01*
X134392Y127365D01*
X134835Y127808D01*
X135075Y128387D01*
Y129013D01*
X134835Y129592D01*
X134428Y129999D01*
Y131583D01*
X134868Y132024D01*
X135108Y132603D01*
Y133229D01*
X134868Y133808D01*
X134425Y134251D01*
X133846Y134491D01*
D02*
G37*
G36*
X207313Y119875D02*
X206687D01*
X206108Y119635D01*
X205665Y119192D01*
X205425Y118613D01*
Y117987D01*
X205665Y117408D01*
X206108Y116965D01*
X206687Y116725D01*
X207313D01*
X207892Y116965D01*
X208335Y117408D01*
X208575Y117987D01*
Y118613D01*
X208335Y119192D01*
X207892Y119635D01*
X207313Y119875D01*
D02*
G37*
G36*
X152813D02*
X152187D01*
X151608Y119635D01*
X151165Y119192D01*
X150925Y118613D01*
Y117987D01*
X151165Y117408D01*
X151608Y116965D01*
X152187Y116725D01*
X152813D01*
X153392Y116965D01*
X153835Y117408D01*
X154075Y117987D01*
Y118613D01*
X153835Y119192D01*
X153392Y119635D01*
X152813Y119875D01*
D02*
G37*
G36*
X202313Y119675D02*
X201687D01*
X201108Y119435D01*
X200665Y118992D01*
X200425Y118413D01*
Y117787D01*
X200665Y117208D01*
X201108Y116765D01*
X201687Y116525D01*
X202313D01*
X202892Y116765D01*
X203335Y117208D01*
X203575Y117787D01*
Y118413D01*
X203335Y118992D01*
X202892Y119435D01*
X202313Y119675D01*
D02*
G37*
G36*
X147813D02*
X147187D01*
X146608Y119435D01*
X146165Y118992D01*
X145925Y118413D01*
Y117787D01*
X146165Y117208D01*
X146608Y116765D01*
X147187Y116525D01*
X147813D01*
X148392Y116765D01*
X148835Y117208D01*
X149075Y117787D01*
Y118413D01*
X148835Y118992D01*
X148392Y119435D01*
X147813Y119675D01*
D02*
G37*
G36*
X188713Y116375D02*
X188087D01*
X187508Y116135D01*
X187065Y115692D01*
X186825Y115113D01*
Y114487D01*
X186929Y114236D01*
Y111105D01*
X186725Y110613D01*
Y109987D01*
X186965Y109408D01*
X187408Y108965D01*
X187987Y108725D01*
X188613D01*
X189192Y108965D01*
X189635Y109408D01*
X189875Y109987D01*
Y110613D01*
X189771Y110864D01*
Y113995D01*
X189975Y114487D01*
Y115113D01*
X189735Y115692D01*
X189292Y116135D01*
X188713Y116375D01*
D02*
G37*
G36*
X273719Y110675D02*
X273092D01*
X272514Y110435D01*
X272071Y109992D01*
X271831Y109413D01*
Y108787D01*
X272071Y108208D01*
X272514Y107765D01*
X273092Y107525D01*
X273719D01*
X274298Y107765D01*
X274741Y108208D01*
X274980Y108787D01*
Y109413D01*
X274741Y109992D01*
X274298Y110435D01*
X273719Y110675D01*
D02*
G37*
G36*
X268712Y110475D02*
X268086D01*
X267507Y110235D01*
X267064Y109792D01*
X266824Y109213D01*
Y108587D01*
X267064Y108008D01*
X267507Y107565D01*
X268086Y107325D01*
X268712D01*
X269291Y107565D01*
X269734Y108008D01*
X269974Y108587D01*
Y109213D01*
X269734Y109792D01*
X269291Y110235D01*
X268712Y110475D01*
D02*
G37*
G36*
X189366Y106575D02*
X188740D01*
X188161Y106335D01*
X187718Y105892D01*
X187478Y105313D01*
Y104687D01*
X187718Y104108D01*
X188161Y103665D01*
X188740Y103425D01*
X189366D01*
X189945Y103665D01*
X190388Y104108D01*
X190628Y104687D01*
Y105313D01*
X190388Y105892D01*
X189945Y106335D01*
X189366Y106575D01*
D02*
G37*
%LPD*%
G36*
X222694Y226743D02*
X222681Y226711D01*
Y226281D01*
X222846Y225883D01*
X223070Y225659D01*
X222961Y225284D01*
X222949Y225265D01*
X221878D01*
X221426Y225078D01*
X220777Y224429D01*
X220383D01*
X219985Y224264D01*
X219681Y223960D01*
X219516Y223562D01*
Y223131D01*
X219681Y222733D01*
X219985Y222429D01*
X220383Y222264D01*
X220814D01*
X221212Y222429D01*
X221516Y222733D01*
X221681Y223131D01*
Y223525D01*
X222074Y223918D01*
X222477Y223891D01*
X222684Y223569D01*
X222681Y223562D01*
Y223131D01*
X222846Y222733D01*
X223150Y222429D01*
X223548Y222264D01*
X223979D01*
X224377Y222429D01*
X224682Y222733D01*
X224847Y223131D01*
Y223562D01*
X224833Y223593D01*
X225097Y223987D01*
X225565D01*
X225828Y223593D01*
X225815Y223562D01*
Y223131D01*
X225980Y222733D01*
X226234Y222479D01*
X226230Y222209D01*
X226189Y222042D01*
X225916Y221928D01*
X224776Y220788D01*
X224666Y220810D01*
X224361Y221115D01*
X223963Y221280D01*
X223533D01*
X223135Y221115D01*
X222830Y220810D01*
X222665Y220412D01*
Y219982D01*
X222830Y219584D01*
X223054Y219360D01*
X222945Y218985D01*
X222933Y218966D01*
X221068D01*
X221058Y218991D01*
X220947Y219355D01*
X221243Y219552D01*
X221440Y219848D01*
X221510Y220197D01*
X221440Y220546D01*
X221243Y220841D01*
X220947Y221039D01*
X220598Y221108D01*
X220496D01*
X220147Y221039D01*
X219852Y220841D01*
X219339Y220328D01*
X218892D01*
X218531Y220428D01*
X218455Y220613D01*
X218367Y220826D01*
X218062Y221130D01*
X217664Y221295D01*
X217233D01*
X216835Y221130D01*
X216531Y220826D01*
X216366Y220428D01*
Y219997D01*
X216392Y219935D01*
X216129Y219541D01*
X215619D01*
X215356Y219935D01*
X215382Y219997D01*
Y220428D01*
X215217Y220826D01*
X214913Y221130D01*
X214515Y221295D01*
X214084D01*
X213686Y221130D01*
X213381Y220826D01*
X213216Y220428D01*
Y219997D01*
X213242Y219935D01*
X212979Y219541D01*
X212476D01*
X212219Y219876D01*
X212209Y219926D01*
X212232Y219982D01*
Y220412D01*
X212067Y220810D01*
X211763Y221115D01*
X211365Y221280D01*
X210934D01*
X210536Y221115D01*
X210232Y220810D01*
X210067Y220412D01*
Y219982D01*
X210120Y219852D01*
X210142Y219502D01*
X209946Y219323D01*
X209850Y219258D01*
X207064Y216473D01*
X206867Y216177D01*
X206797Y215828D01*
Y213983D01*
X204206Y211392D01*
X204009Y211097D01*
X203939Y210748D01*
X204009Y210399D01*
X204206Y210104D01*
X204502Y209906D01*
X204850Y209837D01*
X205199Y209906D01*
X205495Y210104D01*
X208353Y212962D01*
X208550Y213257D01*
X208620Y213606D01*
Y215451D01*
X209741Y216573D01*
X210206Y216481D01*
X210232Y216418D01*
X210536Y216114D01*
X210934Y215949D01*
X211365D01*
X211763Y216114D01*
X212067Y216418D01*
X212232Y216816D01*
Y217247D01*
X212206Y217309D01*
X212224Y217427D01*
X212246Y217480D01*
X212463Y217719D01*
X212979D01*
X213242Y217325D01*
X213216Y217263D01*
Y216832D01*
X213381Y216434D01*
X213686Y216129D01*
X213708Y216020D01*
X212568Y214880D01*
X212452Y214600D01*
X212264Y214561D01*
X212017Y214562D01*
X211755Y214823D01*
X211357Y214988D01*
X210926D01*
X210528Y214823D01*
X210224Y214519D01*
X210059Y214121D01*
Y213690D01*
X210224Y213292D01*
X210528Y212988D01*
X210926Y212823D01*
X211357D01*
X211755Y212988D01*
X211987Y213219D01*
X212329Y213130D01*
X212381Y213099D01*
Y211547D01*
X212329Y211516D01*
X211987Y211426D01*
X211755Y211658D01*
X211357Y211823D01*
X210926D01*
X210528Y211658D01*
X210224Y211353D01*
X210059Y210956D01*
Y210525D01*
X210224Y210127D01*
X210528Y209822D01*
X210926Y209658D01*
X211357D01*
X211755Y209822D01*
X211987Y210054D01*
X212329Y209965D01*
X212381Y209933D01*
Y208405D01*
X212329Y208374D01*
X211987Y208284D01*
X211755Y208516D01*
X211357Y208681D01*
X210926D01*
X210528Y208516D01*
X210224Y208212D01*
X210059Y207814D01*
Y207804D01*
X205773Y203518D01*
X205575Y203223D01*
X205506Y202874D01*
Y202619D01*
X205112Y202356D01*
X205050Y202382D01*
X204619D01*
X204221Y202217D01*
X203917Y201912D01*
X203752Y201515D01*
Y201084D01*
X203917Y200686D01*
X204221Y200381D01*
X204619Y200217D01*
X205050D01*
X205112Y200242D01*
X205506Y199979D01*
Y198821D01*
X205522Y198742D01*
Y193178D01*
X205128Y192915D01*
X205066Y192941D01*
X204635D01*
X204237Y192776D01*
X203933Y192472D01*
X203768Y192074D01*
Y191643D01*
X203933Y191245D01*
X204237Y190940D01*
X204635Y190776D01*
X205066D01*
X205128Y190801D01*
X205522Y190538D01*
Y180572D01*
X205128Y180309D01*
X205066Y180335D01*
X204635D01*
X204237Y180170D01*
X203933Y179865D01*
X203768Y179467D01*
Y179037D01*
X203933Y178639D01*
X204237Y178334D01*
X204635Y178169D01*
X205066D01*
X205128Y178195D01*
X205522Y177932D01*
Y177422D01*
X205128Y177159D01*
X205066Y177185D01*
X204635D01*
X204237Y177020D01*
X203933Y176716D01*
X203768Y176318D01*
Y175887D01*
X203933Y175489D01*
X204237Y175185D01*
X204635Y175020D01*
X205066D01*
X205128Y175046D01*
X205522Y174783D01*
Y174273D01*
X205128Y174010D01*
X205066Y174035D01*
X204635D01*
X204237Y173871D01*
X203933Y173566D01*
X203768Y173168D01*
Y172737D01*
X203933Y172339D01*
X204237Y172035D01*
X204635Y171870D01*
X205066D01*
X205128Y171896D01*
X205522Y171633D01*
Y171123D01*
X205128Y170860D01*
X205066Y170886D01*
X204635D01*
X204237Y170721D01*
X203933Y170416D01*
X203768Y170018D01*
Y169588D01*
X203933Y169190D01*
X204237Y168885D01*
X204635Y168720D01*
X205066D01*
X205128Y168746D01*
X205522Y168483D01*
Y167973D01*
X205128Y167710D01*
X205066Y167736D01*
X204635D01*
X204237Y167571D01*
X203933Y167267D01*
X203768Y166869D01*
Y166438D01*
X203933Y166040D01*
X204237Y165736D01*
X204635Y165571D01*
X205066D01*
X205128Y165597D01*
X205522Y165334D01*
Y164824D01*
X205128Y164561D01*
X205066Y164587D01*
X204635D01*
X204237Y164422D01*
X203933Y164117D01*
X203768Y163719D01*
Y163710D01*
X203113Y163055D01*
X202779Y163278D01*
X202783Y163289D01*
Y163719D01*
X202619Y164117D01*
X202314Y164422D01*
X201916Y164587D01*
X201485D01*
X201087Y164422D01*
X200783Y164117D01*
X200618Y163719D01*
Y163289D01*
X200644Y163226D01*
X200381Y162832D01*
X199871D01*
X199608Y163226D01*
X199634Y163289D01*
Y163719D01*
X199469Y164117D01*
X199164Y164422D01*
X198767Y164587D01*
X198336D01*
X197938Y164422D01*
X197633Y164117D01*
X197608Y164055D01*
X197143Y163962D01*
X196313Y164793D01*
Y166034D01*
X196319Y166040D01*
X196484Y166438D01*
Y166592D01*
X197241Y167349D01*
X197575Y167126D01*
X197468Y166869D01*
Y166438D01*
X197633Y166040D01*
X197938Y165736D01*
X198336Y165571D01*
X198767D01*
X199164Y165736D01*
X199469Y166040D01*
X199634Y166438D01*
Y166869D01*
X199469Y167267D01*
X199164Y167571D01*
X198767Y167736D01*
X198336D01*
X197976Y167587D01*
X197951Y167601D01*
X197724Y167919D01*
X197786Y168228D01*
X197786Y168228D01*
Y168523D01*
X198179Y168785D01*
X198336Y168720D01*
X198767D01*
X199164Y168885D01*
X199469Y169190D01*
X199634Y169588D01*
Y170018D01*
X199469Y170416D01*
X199164Y170721D01*
X198767Y170886D01*
X198336D01*
X198179Y170821D01*
X197786Y171083D01*
Y171673D01*
X198179Y171935D01*
X198336Y171870D01*
X198767D01*
X199164Y172035D01*
X199469Y172339D01*
X199634Y172737D01*
Y173168D01*
X199469Y173566D01*
X199164Y173871D01*
X198767Y174035D01*
X198336D01*
X198060Y174347D01*
X198038Y174445D01*
X198613Y175020D01*
X198767D01*
X199164Y175185D01*
X199469Y175489D01*
X199634Y175887D01*
Y176318D01*
X199469Y176716D01*
X199164Y177020D01*
X198767Y177185D01*
X198336D01*
X198079Y177079D01*
X197856Y177412D01*
X198886Y178443D01*
X200979D01*
X201087Y178334D01*
X201485Y178169D01*
X201916D01*
X202314Y178334D01*
X202619Y178639D01*
X202783Y179037D01*
Y179467D01*
X202619Y179865D01*
X202314Y180170D01*
X201916Y180335D01*
X201485D01*
X201087Y180170D01*
X200979Y180061D01*
X198551D01*
X198241Y180000D01*
X197979Y179824D01*
X197979Y179824D01*
X190424Y172269D01*
X190090Y172492D01*
X190185Y172722D01*
Y173152D01*
X190159Y173215D01*
X190422Y173609D01*
X190669D01*
X191018Y173678D01*
X191314Y173875D01*
X198757Y181319D01*
X198767D01*
X199164Y181484D01*
X199469Y181788D01*
X199634Y182186D01*
Y182617D01*
X199469Y183015D01*
X199164Y183319D01*
X198767Y183484D01*
X198336D01*
X197938Y183319D01*
X197633Y183015D01*
X197468Y182617D01*
Y182607D01*
X196814Y181953D01*
X196480Y182176D01*
X196484Y182186D01*
Y182617D01*
X196319Y183015D01*
X196015Y183319D01*
X195617Y183484D01*
X195186D01*
X194788Y183319D01*
X194668Y183219D01*
X194614Y183264D01*
X194404Y183562D01*
X194438Y183734D01*
Y187577D01*
X194632Y187691D01*
X194832Y187765D01*
X195186Y187618D01*
X195617D01*
X196015Y187783D01*
X196319Y188087D01*
X196484Y188485D01*
Y188916D01*
X196319Y189314D01*
X196015Y189619D01*
X195617Y189783D01*
X195186D01*
X194832Y189637D01*
X194632Y189710D01*
X194438Y189825D01*
Y190726D01*
X194632Y190841D01*
X194832Y190915D01*
X195186Y190768D01*
X195617D01*
X196015Y190933D01*
X196319Y191237D01*
X196484Y191635D01*
Y192066D01*
X196319Y192464D01*
X196015Y192768D01*
X195617Y192933D01*
X195186D01*
X194832Y192786D01*
X194632Y192860D01*
X194438Y192974D01*
Y200175D01*
X194632Y200290D01*
X194832Y200363D01*
X195186Y200217D01*
X195617D01*
X196015Y200381D01*
X196319Y200686D01*
X196484Y201084D01*
Y201515D01*
X196319Y201912D01*
X196015Y202217D01*
X195617Y202382D01*
X195186D01*
X194832Y202235D01*
X194632Y202309D01*
X194438Y202423D01*
Y202919D01*
X194388Y203170D01*
X194246Y203383D01*
X193335Y204294D01*
Y204664D01*
X193170Y205062D01*
X192865Y205367D01*
X192467Y205532D01*
X192037D01*
X191639Y205367D01*
X191334Y205062D01*
X191169Y204664D01*
Y204234D01*
X191334Y203836D01*
X191639Y203531D01*
X192037Y203366D01*
X192406D01*
X192944Y202829D01*
X192914Y202612D01*
X192498Y202377D01*
X192467Y202390D01*
X192037D01*
X191639Y202225D01*
X191334Y201920D01*
X191169Y201522D01*
Y201092D01*
X191334Y200694D01*
X191639Y200389D01*
X192037Y200224D01*
X192467D01*
X192731Y200334D01*
X193125Y200135D01*
Y199314D01*
X192731Y199115D01*
X192467Y199224D01*
X192037D01*
X191639Y199060D01*
X191334Y198755D01*
X191169Y198357D01*
Y198204D01*
X190412Y197447D01*
X190098Y197657D01*
X190085Y197686D01*
X190185Y197926D01*
Y198357D01*
X190020Y198755D01*
X189716Y199060D01*
X189318Y199224D01*
X188887D01*
X188489Y199060D01*
X188184Y198755D01*
X188020Y198357D01*
Y197926D01*
X188119Y197686D01*
X187907Y197292D01*
X184286D01*
X184286Y197292D01*
X183976Y197230D01*
X183721Y197529D01*
X183886Y197926D01*
Y198357D01*
X183721Y198755D01*
X183416Y199060D01*
X183019Y199224D01*
X182588D01*
X182190Y199060D01*
X181885Y198755D01*
X181720Y198357D01*
Y197926D01*
X181885Y197528D01*
X182190Y197224D01*
X182588Y197059D01*
X183019D01*
X183262Y197160D01*
X183485Y196826D01*
X180964Y194305D01*
X180639Y194522D01*
X180633Y194536D01*
X180736Y194785D01*
Y195215D01*
X180571Y195613D01*
X180267Y195918D01*
X179869Y196083D01*
X179438D01*
X179040Y195918D01*
X178736Y195613D01*
X178571Y195215D01*
Y194785D01*
X178699Y194476D01*
X178711Y194321D01*
X178583Y193983D01*
X178467Y193905D01*
X177599Y193037D01*
X177423Y192774D01*
X177362Y192464D01*
X177362Y192464D01*
Y188606D01*
X177270Y188514D01*
X177094Y188252D01*
X177033Y187942D01*
X177033Y187942D01*
Y187560D01*
X172387Y182914D01*
X172211Y182652D01*
X172150Y182342D01*
X172150Y182342D01*
Y178444D01*
X171756Y178180D01*
X171692Y178207D01*
X171261D01*
X170863Y178042D01*
X170559Y177738D01*
X170394Y177340D01*
Y176909D01*
X170559Y176511D01*
X170863Y176207D01*
X171261Y176042D01*
X171692D01*
X171756Y176068D01*
X172150Y175805D01*
Y169878D01*
X160772Y158501D01*
X160359Y158644D01*
X160169Y159102D01*
X159726Y159545D01*
X159643Y159580D01*
Y179996D01*
X168084Y188436D01*
X168259Y188699D01*
X168321Y189008D01*
X168321Y189009D01*
Y203517D01*
X172330Y207526D01*
X172745Y207385D01*
X172859Y207111D01*
X173163Y206807D01*
X173561Y206642D01*
X173992D01*
X174390Y206807D01*
X174694Y207111D01*
X174859Y207509D01*
Y207940D01*
X174694Y208338D01*
X174390Y208642D01*
X174116Y208756D01*
X173974Y209171D01*
X175095Y210292D01*
X175559Y210199D01*
X175586Y210135D01*
X175891Y209830D01*
X176289Y209665D01*
X176719D01*
X177117Y209830D01*
X177422Y210135D01*
X177587Y210533D01*
Y210963D01*
X177522Y211120D01*
X177784Y211514D01*
X178374D01*
X178636Y211120D01*
X178571Y210963D01*
Y210533D01*
X178736Y210135D01*
X179040Y209830D01*
X179438Y209665D01*
X179869D01*
X180267Y209830D01*
X180571Y210135D01*
X180736Y210533D01*
Y210963D01*
X180671Y211120D01*
X180933Y211514D01*
X184673D01*
X184935Y211120D01*
X184870Y210963D01*
Y210533D01*
X185035Y210135D01*
X185339Y209830D01*
X185737Y209665D01*
X186168D01*
X186566Y209830D01*
X186871Y210135D01*
X187035Y210533D01*
Y210963D01*
X186971Y211120D01*
X187233Y211514D01*
X187822D01*
X188084Y211120D01*
X188020Y210963D01*
Y210533D01*
X188184Y210135D01*
X188489Y209830D01*
X188887Y209665D01*
X189318D01*
X189716Y209830D01*
X190020Y210135D01*
X190185Y210533D01*
Y210963D01*
X190120Y211120D01*
X190382Y211514D01*
X190976D01*
X191238Y211120D01*
X191173Y210963D01*
Y210533D01*
X191338Y210135D01*
X191643Y209830D01*
X192041Y209665D01*
X192471D01*
X192869Y209830D01*
X193174Y210135D01*
X193339Y210533D01*
Y210963D01*
X193228Y211231D01*
X193174Y211362D01*
X193345Y211747D01*
X193350Y211751D01*
X194491Y212892D01*
X194533Y212955D01*
X194788Y212980D01*
X195186Y212815D01*
X195617D01*
X196015Y212980D01*
X196319Y213284D01*
X196484Y213682D01*
Y214113D01*
X196319Y214511D01*
X196015Y214815D01*
X195617Y214980D01*
X195186D01*
X195021Y215338D01*
X195004Y215506D01*
X195463Y215965D01*
X195617D01*
X196015Y216129D01*
X196319Y216434D01*
X196484Y216832D01*
Y217263D01*
X196319Y217660D01*
X196096Y217884D01*
X196204Y218259D01*
X196216Y218278D01*
X197272D01*
X197724Y218465D01*
X198372Y219114D01*
X198767D01*
X199164Y219279D01*
X199469Y219584D01*
X199634Y219982D01*
Y220412D01*
X199469Y220810D01*
X199164Y221115D01*
X198767Y221280D01*
X198336D01*
X197938Y221115D01*
X197633Y220810D01*
X197468Y220412D01*
Y220018D01*
X197089Y219639D01*
X196701Y219666D01*
X196484Y219982D01*
Y220412D01*
X196319Y220810D01*
X196015Y221115D01*
X195617Y221280D01*
X195186D01*
X194788Y221115D01*
X194484Y220810D01*
X194319Y220412D01*
Y219982D01*
X194332Y219950D01*
X194069Y219556D01*
X193585D01*
X193322Y219950D01*
X193335Y219982D01*
Y220375D01*
X194329Y221370D01*
X194517Y221822D01*
Y222186D01*
X194910Y222378D01*
X195186Y222264D01*
X195617D01*
X196015Y222429D01*
X196319Y222733D01*
X196484Y223131D01*
Y223562D01*
X196319Y223960D01*
X196132Y224148D01*
X196172Y224558D01*
X196194Y224600D01*
X196236Y224617D01*
X197428Y225809D01*
X197616Y226261D01*
Y226466D01*
X198286Y227136D01*
X200368D01*
X200631Y226743D01*
X200618Y226711D01*
Y226281D01*
X200783Y225883D01*
X201087Y225578D01*
X201485Y225413D01*
X201916D01*
X202314Y225578D01*
X202619Y225883D01*
X202783Y226281D01*
Y226711D01*
X202770Y226743D01*
X203034Y227136D01*
X203518D01*
X203781Y226743D01*
X203768Y226711D01*
Y226281D01*
X203933Y225883D01*
X204237Y225578D01*
X204635Y225413D01*
X205066D01*
X205464Y225578D01*
X205768Y225883D01*
X205933Y226281D01*
Y226711D01*
X205920Y226743D01*
X206183Y227136D01*
X209817D01*
X210080Y226743D01*
X210067Y226711D01*
Y226281D01*
X210232Y225883D01*
X210536Y225578D01*
X210934Y225413D01*
X211365D01*
X211763Y225578D01*
X212067Y225883D01*
X212232Y226281D01*
Y226711D01*
X212219Y226743D01*
X212482Y227136D01*
X212966D01*
X213229Y226743D01*
X213216Y226711D01*
Y226281D01*
X213381Y225883D01*
X213686Y225578D01*
X214084Y225413D01*
X214515D01*
X214913Y225578D01*
X215217Y225883D01*
X215382Y226281D01*
Y226711D01*
X215369Y226743D01*
X215632Y227136D01*
X216116D01*
X216379Y226743D01*
X216366Y226711D01*
Y226281D01*
X216531Y225883D01*
X216835Y225578D01*
X217233Y225413D01*
X217664D01*
X218062Y225578D01*
X218367Y225883D01*
X218531Y226281D01*
Y226711D01*
X218518Y226743D01*
X218782Y227136D01*
X219266D01*
X219529Y226743D01*
X219516Y226711D01*
Y226281D01*
X219681Y225883D01*
X219985Y225578D01*
X220383Y225413D01*
X220814D01*
X221212Y225578D01*
X221516Y225883D01*
X221681Y226281D01*
Y226711D01*
X221668Y226743D01*
X221931Y227136D01*
X222431D01*
X222694Y226743D01*
D02*
G37*
G36*
X248210Y214765D02*
X246395Y212950D01*
X245931Y213043D01*
X245918Y213074D01*
X245613Y213379D01*
X245215Y213543D01*
X244785D01*
X244387Y213379D01*
X244082Y213074D01*
X243917Y212676D01*
Y212245D01*
X244082Y211847D01*
X244387Y211543D01*
X244418Y211530D01*
X244510Y211065D01*
X240972Y207527D01*
X240579Y207691D01*
Y207814D01*
X240414Y208212D01*
X240109Y208516D01*
X239711Y208681D01*
X239281D01*
X238883Y208516D01*
X238578Y208212D01*
X238413Y207814D01*
Y207383D01*
X238426Y207352D01*
X238163Y206958D01*
X237679D01*
X237416Y207352D01*
X237429Y207383D01*
Y207814D01*
X237264Y208212D01*
X236960Y208516D01*
X236562Y208681D01*
X236131D01*
X235733Y208516D01*
X235429Y208212D01*
X235264Y207814D01*
Y207383D01*
X235277Y207352D01*
X235014Y206958D01*
X234530D01*
X234267Y207352D01*
X234279Y207383D01*
Y207814D01*
X234115Y208212D01*
X233810Y208516D01*
X233412Y208681D01*
X232981D01*
X232584Y208516D01*
X232279Y208212D01*
X232114Y207814D01*
Y207383D01*
X232127Y207352D01*
X231864Y206958D01*
X231380D01*
X231117Y207352D01*
X231130Y207383D01*
Y207814D01*
X230965Y208212D01*
X230790Y208387D01*
X230841Y208822D01*
X230851Y208838D01*
X231956Y209943D01*
X232048Y209998D01*
X232431Y209983D01*
X232584Y209830D01*
X232981Y209665D01*
X233412D01*
X233810Y209830D01*
X234115Y210135D01*
X234279Y210533D01*
Y210963D01*
X234115Y211361D01*
X234015Y211461D01*
X234178Y211854D01*
X234943D01*
X235395Y212042D01*
X236168Y212815D01*
X236562D01*
X236960Y212980D01*
X237264Y213284D01*
X237429Y213682D01*
Y214113D01*
X237264Y214511D01*
X237040Y214735D01*
X237149Y215110D01*
X237161Y215128D01*
X248059D01*
X248210Y214765D01*
D02*
G37*
G36*
X218661Y209945D02*
X218680Y209933D01*
Y197620D01*
X218867Y197168D01*
X220179Y195855D01*
X220028Y195492D01*
X219201D01*
X216809Y197884D01*
Y209415D01*
X217202Y209678D01*
X217233Y209665D01*
X217664D01*
X218062Y209830D01*
X218286Y210054D01*
X218661Y209945D01*
D02*
G37*
G36*
X251930Y194247D02*
X251917Y194215D01*
Y193821D01*
X249306Y191210D01*
X231380D01*
X231117Y191604D01*
X231130Y191635D01*
Y192066D01*
X230995Y192392D01*
X231102Y192651D01*
X231200Y192786D01*
X231622D01*
X232074Y192973D01*
X233569Y194468D01*
X233697Y194439D01*
X233842Y194068D01*
X233839Y194003D01*
X233689Y193641D01*
Y193210D01*
X233854Y192812D01*
X234158Y192507D01*
X234556Y192342D01*
X234987D01*
X235385Y192507D01*
X235689Y192812D01*
X235854Y193210D01*
Y193641D01*
X235689Y194038D01*
X235481Y194247D01*
X235618Y194640D01*
X237075D01*
X237212Y194247D01*
X237003Y194038D01*
X236839Y193641D01*
Y193210D01*
X237003Y192812D01*
X237308Y192507D01*
X237706Y192342D01*
X238137D01*
X238534Y192507D01*
X238839Y192812D01*
X239004Y193210D01*
Y193641D01*
X238839Y194038D01*
X238631Y194247D01*
X238767Y194640D01*
X251667D01*
X251930Y194247D01*
D02*
G37*
%LPC*%
G36*
X217664Y224429D02*
X217233D01*
X216835Y224264D01*
X216531Y223960D01*
X216366Y223562D01*
Y223131D01*
X216531Y222733D01*
X216835Y222429D01*
X217233Y222264D01*
X217664D01*
X218062Y222429D01*
X218367Y222733D01*
X218531Y223131D01*
Y223562D01*
X218367Y223960D01*
X218062Y224264D01*
X217664Y224429D01*
D02*
G37*
G36*
X201916D02*
X201485D01*
X201087Y224264D01*
X200783Y223960D01*
X200618Y223562D01*
Y223131D01*
X200783Y222733D01*
X201087Y222429D01*
X201485Y222264D01*
X201916D01*
X202314Y222429D01*
X202619Y222733D01*
X202783Y223131D01*
Y223562D01*
X202619Y223960D01*
X202314Y224264D01*
X201916Y224429D01*
D02*
G37*
G36*
X198767D02*
X198336D01*
X197938Y224264D01*
X197633Y223960D01*
X197468Y223562D01*
Y223131D01*
X197633Y222733D01*
X197938Y222429D01*
X198336Y222264D01*
X198767D01*
X199164Y222429D01*
X199469Y222733D01*
X199634Y223131D01*
Y223562D01*
X199469Y223960D01*
X199164Y224264D01*
X198767Y224429D01*
D02*
G37*
G36*
X214540Y224404D02*
X214109D01*
X213712Y224239D01*
X213407Y223934D01*
X213242Y223536D01*
Y223106D01*
X213407Y222708D01*
X213712Y222403D01*
X214109Y222238D01*
X214540D01*
X214938Y222403D01*
X215243Y222708D01*
X215407Y223106D01*
Y223536D01*
X215243Y223934D01*
X214938Y224239D01*
X214540Y224404D01*
D02*
G37*
G36*
X205066Y221280D02*
X204635D01*
X204237Y221115D01*
X203933Y220810D01*
X203768Y220412D01*
Y219982D01*
X203933Y219584D01*
X204237Y219279D01*
X204635Y219114D01*
X205066D01*
X205464Y219279D01*
X205768Y219584D01*
X205933Y219982D01*
Y220412D01*
X205768Y220810D01*
X205464Y221115D01*
X205066Y221280D01*
D02*
G37*
G36*
Y218130D02*
X204635D01*
X204237Y217965D01*
X203933Y217660D01*
X203768Y217263D01*
Y216832D01*
X203933Y216434D01*
X204237Y216129D01*
X204635Y215965D01*
X205066D01*
X205464Y216129D01*
X205768Y216434D01*
X205933Y216832D01*
Y217263D01*
X205768Y217660D01*
X205464Y217965D01*
X205066Y218130D01*
D02*
G37*
G36*
X201916D02*
X201485D01*
X201087Y217965D01*
X200783Y217660D01*
X200618Y217263D01*
Y216832D01*
X200783Y216434D01*
X201087Y216129D01*
X201485Y215965D01*
X201916D01*
X202314Y216129D01*
X202619Y216434D01*
X202783Y216832D01*
Y217263D01*
X202619Y217660D01*
X202314Y217965D01*
X201916Y218130D01*
D02*
G37*
G36*
X198767D02*
X198336D01*
X197938Y217965D01*
X197633Y217660D01*
X197468Y217263D01*
Y216832D01*
X197633Y216434D01*
X197938Y216129D01*
X198336Y215965D01*
X198767D01*
X199164Y216129D01*
X199469Y216434D01*
X199634Y216832D01*
Y217263D01*
X199469Y217660D01*
X199164Y217965D01*
X198767Y218130D01*
D02*
G37*
G36*
X201916Y214980D02*
X201485D01*
X201087Y214815D01*
X200783Y214511D01*
X200618Y214113D01*
Y213682D01*
X200783Y213284D01*
X201087Y212980D01*
X201485Y212815D01*
X201916D01*
X202314Y212980D01*
X202619Y213284D01*
X202783Y213682D01*
Y214113D01*
X202619Y214511D01*
X202314Y214815D01*
X201916Y214980D01*
D02*
G37*
G36*
X198767D02*
X198336D01*
X197938Y214815D01*
X197633Y214511D01*
X197468Y214113D01*
Y213682D01*
X197633Y213284D01*
X197938Y212980D01*
X198336Y212815D01*
X198767D01*
X199164Y212980D01*
X199469Y213284D01*
X199634Y213682D01*
Y214113D01*
X199469Y214511D01*
X199164Y214815D01*
X198767Y214980D01*
D02*
G37*
G36*
X201916Y211831D02*
X201485D01*
X201087Y211666D01*
X200783Y211361D01*
X200618Y210963D01*
Y210533D01*
X200783Y210135D01*
X201087Y209830D01*
X201485Y209665D01*
X201916D01*
X202314Y209830D01*
X202619Y210135D01*
X202783Y210533D01*
Y210963D01*
X202619Y211361D01*
X202314Y211666D01*
X201916Y211831D01*
D02*
G37*
G36*
X198767D02*
X198336D01*
X197938Y211666D01*
X197633Y211361D01*
X197468Y210963D01*
Y210533D01*
X197633Y210135D01*
X197938Y209830D01*
X198336Y209665D01*
X198767D01*
X199164Y209830D01*
X199469Y210135D01*
X199634Y210533D01*
Y210963D01*
X199469Y211361D01*
X199164Y211666D01*
X198767Y211831D01*
D02*
G37*
G36*
X198759Y208681D02*
X198328D01*
X197930Y208516D01*
X197626Y208212D01*
X197461Y207814D01*
Y207383D01*
X197626Y206985D01*
X197930Y206681D01*
X198328Y206516D01*
X198759D01*
X199157Y206681D01*
X199461Y206985D01*
X199626Y207383D01*
Y207814D01*
X199461Y208212D01*
X199157Y208516D01*
X198759Y208681D01*
D02*
G37*
G36*
X195617D02*
X195186D01*
X194788Y208516D01*
X194484Y208212D01*
X194319Y207814D01*
Y207383D01*
X194484Y206985D01*
X194788Y206681D01*
X195186Y206516D01*
X195617D01*
X196015Y206681D01*
X196319Y206985D01*
X196484Y207383D01*
Y207814D01*
X196319Y208212D01*
X196015Y208516D01*
X195617Y208681D01*
D02*
G37*
G36*
X192467D02*
X192037D01*
X191639Y208516D01*
X191334Y208212D01*
X191169Y207814D01*
Y207383D01*
X191334Y206985D01*
X191639Y206681D01*
X192037Y206516D01*
X192467D01*
X192865Y206681D01*
X193170Y206985D01*
X193335Y207383D01*
Y207814D01*
X193170Y208212D01*
X192865Y208516D01*
X192467Y208681D01*
D02*
G37*
G36*
X189318D02*
X188887D01*
X188489Y208516D01*
X188184Y208212D01*
X188020Y207814D01*
Y207383D01*
X188184Y206985D01*
X188489Y206681D01*
X188887Y206516D01*
X189318D01*
X189716Y206681D01*
X190020Y206985D01*
X190185Y207383D01*
Y207814D01*
X190020Y208212D01*
X189716Y208516D01*
X189318Y208681D01*
D02*
G37*
G36*
X186168D02*
X185737D01*
X185339Y208516D01*
X185035Y208212D01*
X184870Y207814D01*
Y207383D01*
X185035Y206985D01*
X185339Y206681D01*
X185737Y206516D01*
X186168D01*
X186566Y206681D01*
X186871Y206985D01*
X187035Y207383D01*
Y207814D01*
X186871Y208212D01*
X186566Y208516D01*
X186168Y208681D01*
D02*
G37*
G36*
X179869D02*
X179438D01*
X179040Y208516D01*
X178736Y208212D01*
X178571Y207814D01*
Y207383D01*
X178736Y206985D01*
X179040Y206681D01*
X179438Y206516D01*
X179869D01*
X180267Y206681D01*
X180571Y206985D01*
X180736Y207383D01*
Y207814D01*
X180571Y208212D01*
X180267Y208516D01*
X179869Y208681D01*
D02*
G37*
G36*
X176719Y208484D02*
X176289D01*
X175891Y208319D01*
X175586Y208015D01*
X175421Y207617D01*
Y207186D01*
X175586Y206788D01*
X175891Y206484D01*
X176289Y206319D01*
X176719D01*
X177117Y206484D01*
X177422Y206788D01*
X177587Y207186D01*
Y207617D01*
X177422Y208015D01*
X177117Y208319D01*
X176719Y208484D01*
D02*
G37*
G36*
X189318Y205532D02*
X188887D01*
X188489Y205367D01*
X188184Y205062D01*
X188020Y204664D01*
Y204234D01*
X188184Y203836D01*
X188489Y203531D01*
X188887Y203366D01*
X189318D01*
X189716Y203531D01*
X190020Y203836D01*
X190185Y204234D01*
Y204664D01*
X190020Y205062D01*
X189716Y205367D01*
X189318Y205532D01*
D02*
G37*
G36*
X186168D02*
X185737D01*
X185339Y205367D01*
X185035Y205062D01*
X184870Y204664D01*
Y204234D01*
X185035Y203836D01*
X185339Y203531D01*
X185737Y203366D01*
X186168D01*
X186566Y203531D01*
X186871Y203836D01*
X187035Y204234D01*
Y204664D01*
X186871Y205062D01*
X186566Y205367D01*
X186168Y205532D01*
D02*
G37*
G36*
X183019D02*
X182588D01*
X182190Y205367D01*
X181885Y205062D01*
X181720Y204664D01*
Y204234D01*
X181885Y203836D01*
X182190Y203531D01*
X182588Y203366D01*
X183019D01*
X183416Y203531D01*
X183721Y203836D01*
X183886Y204234D01*
Y204664D01*
X183721Y205062D01*
X183416Y205367D01*
X183019Y205532D01*
D02*
G37*
G36*
X179869D02*
X179438D01*
X179040Y205367D01*
X178736Y205062D01*
X178571Y204664D01*
Y204234D01*
X178736Y203836D01*
X179040Y203531D01*
X179438Y203366D01*
X179869D01*
X180267Y203531D01*
X180571Y203836D01*
X180736Y204234D01*
Y204664D01*
X180571Y205062D01*
X180267Y205367D01*
X179869Y205532D01*
D02*
G37*
G36*
X176719D02*
X176289D01*
X175891Y205367D01*
X175586Y205062D01*
X175421Y204664D01*
Y204234D01*
X175586Y203836D01*
X175891Y203531D01*
X176289Y203366D01*
X176719D01*
X177117Y203531D01*
X177422Y203836D01*
X177587Y204234D01*
Y204664D01*
X177422Y205062D01*
X177117Y205367D01*
X176719Y205532D01*
D02*
G37*
G36*
X171292Y203907D02*
X170861D01*
X170463Y203742D01*
X170159Y203438D01*
X169994Y203040D01*
Y202609D01*
X170159Y202211D01*
X170463Y201907D01*
X170861Y201742D01*
X171292D01*
X171690Y201907D01*
X171994Y202211D01*
X172159Y202609D01*
Y203040D01*
X171994Y203438D01*
X171690Y203742D01*
X171292Y203907D01*
D02*
G37*
G36*
X201830Y202468D02*
X201399D01*
X201002Y202303D01*
X200697Y201998D01*
X200532Y201601D01*
Y201170D01*
X200697Y200772D01*
X201002Y200467D01*
X201399Y200303D01*
X201830D01*
X202228Y200467D01*
X202533Y200772D01*
X202697Y201170D01*
Y201601D01*
X202533Y201998D01*
X202228Y202303D01*
X201830Y202468D01*
D02*
G37*
G36*
X189318Y202390D02*
X188887D01*
X188489Y202225D01*
X188184Y201920D01*
X188020Y201522D01*
Y201092D01*
X188184Y200694D01*
X188489Y200389D01*
X188887Y200224D01*
X189318D01*
X189716Y200389D01*
X190020Y200694D01*
X190185Y201092D01*
Y201522D01*
X190020Y201920D01*
X189716Y202225D01*
X189318Y202390D01*
D02*
G37*
G36*
X186168D02*
X185737D01*
X185339Y202225D01*
X185035Y201920D01*
X184870Y201522D01*
Y201092D01*
X185035Y200694D01*
X185339Y200389D01*
X185737Y200224D01*
X186168D01*
X186566Y200389D01*
X186871Y200694D01*
X187035Y201092D01*
Y201522D01*
X186871Y201920D01*
X186566Y202225D01*
X186168Y202390D01*
D02*
G37*
G36*
X183019D02*
X182588D01*
X182190Y202225D01*
X181885Y201920D01*
X181720Y201522D01*
Y201092D01*
X181885Y200694D01*
X182190Y200389D01*
X182588Y200224D01*
X183019D01*
X183416Y200389D01*
X183721Y200694D01*
X183886Y201092D01*
Y201522D01*
X183721Y201920D01*
X183416Y202225D01*
X183019Y202390D01*
D02*
G37*
G36*
X176719Y202382D02*
X176289D01*
X175891Y202217D01*
X175586Y201912D01*
X175421Y201515D01*
Y201084D01*
X175586Y200686D01*
X175891Y200381D01*
X176289Y200217D01*
X176719D01*
X177117Y200381D01*
X177422Y200686D01*
X177587Y201084D01*
Y201515D01*
X177422Y201912D01*
X177117Y202217D01*
X176719Y202382D01*
D02*
G37*
G36*
X201916Y199232D02*
X201485D01*
X201087Y199067D01*
X200783Y198763D01*
X200618Y198365D01*
Y197934D01*
X200783Y197536D01*
X201087Y197232D01*
X201485Y197067D01*
X201916D01*
X202314Y197232D01*
X202619Y197536D01*
X202783Y197934D01*
Y198365D01*
X202619Y198763D01*
X202314Y199067D01*
X201916Y199232D01*
D02*
G37*
G36*
X198767D02*
X198336D01*
X197938Y199067D01*
X197633Y198763D01*
X197468Y198365D01*
Y197934D01*
X197633Y197536D01*
X197938Y197232D01*
X198336Y197067D01*
X198767D01*
X199164Y197232D01*
X199469Y197536D01*
X199634Y197934D01*
Y198365D01*
X199469Y198763D01*
X199164Y199067D01*
X198767Y199232D01*
D02*
G37*
G36*
X170192Y190207D02*
X169761D01*
X169363Y190042D01*
X169059Y189738D01*
X168894Y189340D01*
Y188909D01*
X169059Y188511D01*
X169363Y188207D01*
X169761Y188042D01*
X170192D01*
X170590Y188207D01*
X170894Y188511D01*
X171059Y188909D01*
Y189340D01*
X170894Y189738D01*
X170590Y190042D01*
X170192Y190207D01*
D02*
G37*
G36*
X198767Y189784D02*
X198336D01*
X197938Y189619D01*
X197633Y189314D01*
X197468Y188916D01*
Y188485D01*
X197633Y188087D01*
X197938Y187783D01*
X198336Y187618D01*
X198767D01*
X199164Y187783D01*
X199469Y188087D01*
X199634Y188485D01*
Y188916D01*
X199469Y189314D01*
X199164Y189619D01*
X198767Y189784D01*
D02*
G37*
G36*
X172792Y188407D02*
X172361D01*
X171963Y188242D01*
X171659Y187938D01*
X171494Y187540D01*
Y187109D01*
X171659Y186711D01*
X171963Y186407D01*
X172361Y186242D01*
X172792D01*
X173190Y186407D01*
X173494Y186711D01*
X173659Y187109D01*
Y187540D01*
X173494Y187938D01*
X173190Y188242D01*
X172792Y188407D01*
D02*
G37*
G36*
X201916Y186634D02*
X201485D01*
X201087Y186469D01*
X200783Y186164D01*
X200618Y185766D01*
Y185336D01*
X200783Y184938D01*
X201087Y184633D01*
X201485Y184468D01*
X201916D01*
X202314Y184633D01*
X202619Y184938D01*
X202783Y185336D01*
Y185766D01*
X202619Y186164D01*
X202314Y186469D01*
X201916Y186634D01*
D02*
G37*
G36*
X167092Y179907D02*
X166661D01*
X166263Y179742D01*
X165958Y179438D01*
X165794Y179040D01*
Y178609D01*
X165958Y178211D01*
X166263Y177907D01*
X166661Y177742D01*
X167092D01*
X167490Y177907D01*
X167794Y178211D01*
X167959Y178609D01*
Y179040D01*
X167794Y179438D01*
X167490Y179742D01*
X167092Y179907D01*
D02*
G37*
G36*
X201916Y177185D02*
X201485D01*
X201087Y177020D01*
X200783Y176716D01*
X200618Y176318D01*
Y175887D01*
X200783Y175489D01*
X201087Y175185D01*
X201485Y175020D01*
X201916D01*
X202314Y175185D01*
X202619Y175489D01*
X202783Y175887D01*
Y176318D01*
X202619Y176716D01*
X202314Y177020D01*
X201916Y177185D01*
D02*
G37*
G36*
Y174035D02*
X201485D01*
X201087Y173871D01*
X200783Y173566D01*
X200618Y173168D01*
Y172737D01*
X200783Y172339D01*
X201087Y172035D01*
X201485Y171870D01*
X201916D01*
X202314Y172035D01*
X202619Y172339D01*
X202783Y172737D01*
Y173168D01*
X202619Y173566D01*
X202314Y173871D01*
X201916Y174035D01*
D02*
G37*
G36*
Y167736D02*
X201485D01*
X201087Y167571D01*
X200783Y167267D01*
X200618Y166869D01*
Y166438D01*
X200783Y166040D01*
X201087Y165736D01*
X201485Y165571D01*
X201916D01*
X202314Y165736D01*
X202619Y166040D01*
X202783Y166438D01*
Y166869D01*
X202619Y167267D01*
X202314Y167571D01*
X201916Y167736D01*
D02*
G37*
G36*
X239711Y211831D02*
X239281D01*
X238883Y211666D01*
X238578Y211361D01*
X238413Y210963D01*
Y210533D01*
X238578Y210135D01*
X238883Y209830D01*
X239281Y209665D01*
X239711D01*
X240109Y209830D01*
X240414Y210135D01*
X240579Y210533D01*
Y210963D01*
X240414Y211361D01*
X240109Y211666D01*
X239711Y211831D01*
D02*
G37*
G36*
X236562D02*
X236131D01*
X235733Y211666D01*
X235429Y211361D01*
X235264Y210963D01*
Y210533D01*
X235429Y210135D01*
X235733Y209830D01*
X236131Y209665D01*
X236562D01*
X236960Y209830D01*
X237264Y210135D01*
X237429Y210533D01*
Y210963D01*
X237264Y211361D01*
X236960Y211666D01*
X236562Y211831D01*
D02*
G37*
%LPD*%
D12*
X125409Y171200D02*
X128414Y168195D01*
X125409Y195979D02*
X127303Y197874D01*
X125409Y171200D02*
Y195979D01*
X193781Y183734D02*
Y202919D01*
X192449Y182402D02*
X193781Y183734D01*
X128414Y168195D02*
X138569D01*
X152500Y182126D01*
X192252Y204449D02*
X193781Y202919D01*
D13*
X204850Y210748D02*
X207708Y213606D01*
Y215828D01*
X210494Y218614D01*
X212265D01*
X212280Y218630D01*
X218104D01*
X218892Y219417D01*
X219717D01*
X220496Y220197D01*
X220598D01*
X133100Y118400D02*
X133300Y118600D01*
Y128500D01*
X133500Y128700D01*
Y140600D02*
Y146300D01*
Y128700D02*
X133517Y128717D01*
Y132899D01*
X133533Y132916D01*
X127303Y204173D02*
X127307Y204169D01*
X127303Y204165D02*
X127307Y204169D01*
X128886Y202591D01*
X155650Y178976D02*
X158693Y182019D01*
X155650Y172677D02*
Y178976D01*
X191954Y148718D02*
X192606Y148066D01*
X197976D01*
X191285Y148718D02*
X191954D01*
X191025Y148979D02*
X191285Y148718D01*
X197976Y148066D02*
X205738Y155828D01*
X239496Y163402D02*
Y163504D01*
X238010Y161915D02*
X239496Y163402D01*
X238010Y156194D02*
Y161915D01*
X236673Y154858D02*
X238010Y156194D01*
X233669Y154858D02*
X236673D01*
X228639Y159889D02*
X233669Y154858D01*
X156211Y185872D02*
X158693Y183391D01*
Y182019D02*
Y183391D01*
X199925Y140267D02*
Y148044D01*
X165397Y111351D02*
X171747Y105000D01*
X146715Y111351D02*
X165397D01*
X138900Y119166D02*
X146715Y111351D01*
X138900Y119166D02*
Y134000D01*
X151458Y146557D01*
X159557D01*
X187528Y174528D01*
X205738Y155828D02*
Y158295D01*
X207827Y158413D02*
Y178152D01*
X207132Y155251D02*
Y157718D01*
X205738Y158295D02*
X206433Y158991D01*
X207132Y157718D02*
X207827Y158413D01*
X206433Y158991D02*
Y198805D01*
X199925Y148044D02*
X207132Y155251D01*
X197896Y161921D02*
X203268D01*
X204850Y163504D01*
X188447Y174520D02*
X190669D01*
X188439Y174528D02*
X188447Y174520D01*
X187528Y174528D02*
X188439D01*
X223064Y253900D02*
Y255986D01*
X216234Y262816D02*
X223064Y255986D01*
X174377Y262816D02*
X216234D01*
X154936Y243375D02*
X174377Y262816D01*
X195402Y164415D02*
Y166654D01*
Y164415D02*
X197896Y161921D01*
X155650Y191575D02*
Y197874D01*
X152500Y188425D02*
X155650Y191575D01*
X152500Y188425D02*
X152500D01*
X152500D02*
X155053Y185872D01*
X156211D01*
X198551Y182402D02*
Y182402D01*
X190669Y174520D02*
X198551Y182402D01*
X212717Y180819D02*
X214299Y182402D01*
X210494Y180819D02*
X212717D01*
X207827Y178152D02*
X210494Y180819D01*
X214299Y198150D02*
Y204449D01*
X212717Y187118D02*
X214299Y188701D01*
X212717Y183984D02*
Y187118D01*
Y183984D02*
X214299Y182402D01*
X206417Y202874D02*
X211142Y207598D01*
X206417Y198821D02*
Y202874D01*
Y198821D02*
X206433Y198805D01*
X230047Y166654D02*
X231614Y165087D01*
Y162864D02*
Y165087D01*
X228639Y159889D02*
X231614Y162864D01*
X220336Y159889D02*
X228639D01*
X217100Y156653D02*
X220336Y159889D01*
X127303Y182126D02*
Y182126D01*
X133602Y188425D01*
Y194724D01*
X130453Y197874D02*
X133602Y194724D01*
X128886Y199441D02*
Y202591D01*
Y199441D02*
X130453Y197874D01*
X123760Y218360D02*
X127303Y214817D01*
Y204173D02*
Y214817D01*
X181700Y258600D02*
X207341D01*
X209541Y260800D01*
X181700Y253186D02*
Y258600D01*
X172429Y243915D02*
X181700Y253186D01*
X172429Y236724D02*
Y243915D01*
D59*
X198991Y152016D02*
D03*
Y155953D02*
D03*
X142700Y123300D02*
D03*
X298000Y149000D02*
D03*
X293000D02*
D03*
X288000D02*
D03*
X283000D02*
D03*
X278000D02*
D03*
X273000D02*
D03*
X268000D02*
D03*
X263000D02*
D03*
X258000D02*
D03*
X253000D02*
D03*
X238500Y122600D02*
D03*
X234700D02*
D03*
X231100D02*
D03*
X298000Y144000D02*
D03*
X293000D02*
D03*
X288000D02*
D03*
X283000D02*
D03*
X278000D02*
D03*
X273000D02*
D03*
X268000D02*
D03*
X263000D02*
D03*
X258000D02*
D03*
X253000D02*
D03*
X152500Y118300D02*
D03*
Y133100D02*
D03*
X207000D02*
D03*
Y118300D02*
D03*
X147500Y118100D02*
D03*
Y133300D02*
D03*
X242284Y122633D02*
D03*
X245700Y122600D02*
D03*
X226284Y122567D02*
D03*
X202000Y133300D02*
D03*
Y118100D02*
D03*
X118325Y164724D02*
D03*
X191025Y148979D02*
D03*
X188200Y141300D02*
D03*
X156055Y128348D02*
D03*
X157500Y123100D02*
D03*
X239000Y249300D02*
D03*
X140700Y234800D02*
D03*
X202000Y128300D02*
D03*
Y123100D02*
D03*
X188300Y137400D02*
D03*
Y133500D02*
D03*
X177900Y138374D02*
D03*
X267800Y131000D02*
D03*
X268399Y108900D02*
D03*
X199925Y140267D02*
D03*
X171747Y105000D02*
D03*
X158834Y158210D02*
D03*
X119372Y160228D02*
D03*
X177996Y154000D02*
D03*
X217100Y156653D02*
D03*
X210400Y156364D02*
D03*
X144150Y152700D02*
D03*
X150566Y158210D02*
D03*
X189053Y105000D02*
D03*
X212000Y128300D02*
D03*
X142700Y118300D02*
D03*
Y128300D02*
D03*
X212000Y123100D02*
D03*
X152700Y128100D02*
D03*
X273406Y109100D02*
D03*
X178063Y233506D02*
D03*
X133533Y152284D02*
D03*
X133500Y146300D02*
D03*
Y140600D02*
D03*
X188300Y110300D02*
D03*
Y119300D02*
D03*
X188400Y123500D02*
D03*
Y114800D02*
D03*
X188333Y129516D02*
D03*
X133100Y118400D02*
D03*
X133500Y128700D02*
D03*
X133533Y132916D02*
D03*
D62*
X191722Y218917D02*
X197272D01*
X194122Y226572D02*
Y227026D01*
X214009Y234000D02*
X253000D01*
X190677Y219962D02*
X191722Y218917D01*
X192313Y225217D02*
X192766D01*
X194122Y226572D01*
X190677Y219962D02*
Y223581D01*
X192313Y225217D01*
X210125Y230116D02*
X214009Y234000D01*
X197212Y230116D02*
X210125D01*
X194122Y227026D02*
X197212Y230116D01*
X197272Y218917D02*
X198551Y220197D01*
X225028Y220136D02*
X226368Y221476D01*
X225028Y219667D02*
Y220136D01*
X223688Y218327D02*
X225028Y219667D01*
X220068Y218327D02*
X223688D01*
X226368Y221476D02*
X233727D01*
X225993Y218327D02*
X235067D01*
X225129Y217463D02*
X225993Y218327D01*
X225129Y216619D02*
Y217463D01*
X219319Y217577D02*
X220068Y218327D01*
X219319Y217108D02*
Y217577D01*
X217979Y215768D02*
X219319Y217108D01*
X214360Y215768D02*
X217979D01*
X213020Y214428D02*
X214360Y215768D01*
X213020Y197620D02*
Y214428D01*
X224266Y215756D02*
X225129Y216619D01*
X220647Y215756D02*
X224266D01*
X219295Y214403D02*
X220647Y215756D01*
X219295Y213934D02*
Y214403D01*
X217930Y212570D02*
X219295Y213934D01*
X216169Y212570D02*
X217930D01*
X220598Y223346D02*
X221878Y224626D01*
X234943Y212494D02*
X236347Y213898D01*
X235067Y218327D02*
X236347Y217047D01*
X233727Y221476D02*
X234772Y220432D01*
X216169Y197620D02*
Y212570D01*
X233197Y172953D02*
X234607Y171542D01*
Y163434D02*
Y171542D01*
Y163434D02*
X236018Y162023D01*
Y156441D02*
Y162023D01*
X226898Y198150D02*
X228768Y200020D01*
X226031Y195640D02*
X228246Y193425D01*
X228177Y191911D02*
X229517Y190571D01*
X225705Y194852D02*
X228177Y192380D01*
X228246Y193425D02*
X231622D01*
X228177Y191911D02*
Y192380D01*
X226898Y201299D02*
X228768Y203169D01*
X231622Y193425D02*
X233476Y195280D01*
X225470Y191468D02*
X226663Y190276D01*
X223343Y194065D02*
X225470Y191937D01*
Y191468D02*
Y191937D01*
X229517Y187421D02*
X247535D01*
X228177Y188761D02*
Y189231D01*
X227132Y190276D02*
X228177Y189231D01*
X226663Y190276D02*
X227132D01*
X222468Y197620D02*
X223661Y196427D01*
X222468Y197620D02*
Y208128D01*
X223748Y201299D02*
X225447Y202998D01*
X147883Y211752D02*
X164913D01*
X168339Y215177D01*
X182743D01*
X184613Y217047D01*
X165348Y218622D02*
X183038D01*
X184401Y219985D02*
Y221795D01*
X183038Y218622D02*
X184401Y219985D01*
X162218Y215492D02*
X165348Y218622D01*
X184401Y221795D02*
X185953Y223346D01*
X192252Y220197D02*
X193877Y221822D01*
X198021Y227776D02*
X240026D01*
X195784Y225069D02*
X196976Y226261D01*
X136752Y169528D02*
X142756Y175531D01*
X133602Y169528D02*
X139508Y175433D01*
Y205589D01*
X149411Y215492D01*
X142756Y175531D02*
Y206624D01*
X147883Y211752D01*
X149411Y215492D02*
X162218D01*
X213020Y197620D02*
X216574Y194065D01*
X223343D01*
X219319Y197620D02*
X221299Y195640D01*
X219319Y197620D02*
Y211278D01*
X221878Y224626D02*
X239436D01*
X265573Y196427D02*
X268000Y194000D01*
X223661Y196427D02*
X265573D01*
X222468Y208128D02*
X223630Y209290D01*
X230399D01*
X231560Y210451D01*
Y210921D01*
X233133Y212494D01*
X234943D01*
X218936Y194852D02*
X225705D01*
X221299Y195640D02*
X226031D01*
X230453Y212494D02*
X231857Y213898D01*
X220534Y212494D02*
X230453D01*
X231857Y213898D02*
X233197D01*
X219319Y211278D02*
X220534Y212494D01*
X233476Y195280D02*
X258530D01*
X259809Y194000D01*
X263000D01*
X229517Y190571D02*
X249571D01*
X228177Y215768D02*
X249003D01*
X237945Y218599D02*
X239496Y217047D01*
X236135Y218599D02*
X237945D01*
X234772Y219962D02*
X236135Y218599D01*
X234772Y219962D02*
Y220432D01*
X228177Y188761D02*
X229517Y187421D01*
X247535D02*
X250393Y190279D01*
X254279D01*
X258000Y194000D01*
X216169Y197620D02*
X218936Y194852D01*
X249571Y190571D02*
X253000Y194000D01*
X239436Y224626D02*
X240089Y225279D01*
X254911D01*
X257470Y222721D01*
X271089D01*
X276089Y217721D01*
X279279D01*
X283000Y214000D01*
X193877Y221822D02*
Y223632D01*
X195315Y225069D01*
X195784D01*
X196976Y226261D02*
Y226731D01*
X198021Y227776D01*
X240026D02*
X240081Y227720D01*
X266721D01*
X273000Y234000D01*
X250090Y216854D02*
X271955D01*
X260933Y216067D02*
X263000Y214000D01*
X271955Y216854D02*
X274810Y214000D01*
X250416Y216067D02*
X260933D01*
X249003Y215768D02*
X250090Y216854D01*
X226898Y217047D02*
X228177Y215768D01*
X274810Y214000D02*
X278000D01*
X240668Y206319D02*
X250416Y216067D01*
X225447Y202998D02*
X227257D01*
X228768Y204509D01*
Y204979D01*
X230108Y206319D01*
X240668D01*
X228768Y203169D02*
X240026D01*
X252136Y215280D01*
X256720D01*
X258000Y214000D01*
X228768Y200020D02*
X239914D01*
X246391Y206497D01*
Y207391D01*
X253000Y214000D01*
X184613Y217047D02*
X185953D01*
D64*
X188250Y137450D02*
X188300Y137400D01*
X188250Y137450D02*
Y141250D01*
X188200Y141300D02*
X188250Y141250D01*
X188300Y110300D02*
X188350Y110350D01*
Y114750D01*
X188400Y114800D01*
X188300Y119300D02*
X188350Y119350D01*
Y123450D01*
X188400Y123500D01*
X115750Y210351D02*
X123760Y218360D01*
X115750Y141250D02*
Y210351D01*
Y141250D02*
X123100Y133900D01*
D65*
X188317Y129532D02*
X188333Y129516D01*
X188317Y129532D02*
Y133484D01*
X188300Y133500D02*
X188317Y133484D01*
X211700Y245400D02*
X240700D01*
X200200Y233900D02*
X211700Y245400D01*
X236347Y172953D02*
X238013Y171286D01*
X240110D01*
X242000Y169396D01*
Y149500D02*
Y169396D01*
X190593Y196483D02*
X192252Y198142D01*
X184286Y196483D02*
X190593D01*
X181136Y193333D02*
X184286Y196483D01*
X179039Y193333D02*
X181136D01*
X178171Y192464D02*
X179039Y193333D01*
X178171Y188271D02*
Y192464D01*
X177842Y187942D02*
X178171Y188271D01*
X177842Y187225D02*
Y187942D01*
X172959Y182342D02*
X177842Y187225D01*
X172959Y169543D02*
Y182342D01*
X159652Y156235D02*
X172959Y169543D01*
X152541Y156235D02*
X159652D01*
X150566Y158210D02*
X152541Y156235D01*
X179654Y182402D02*
Y185551D01*
X181228Y187126D01*
Y190276D01*
X193919Y215565D02*
X195402Y217047D01*
X193919Y213464D02*
Y215565D01*
X192778Y212323D02*
X193919Y213464D01*
X175982Y212323D02*
X192778D01*
X167511Y203852D02*
X175982Y212323D01*
X167511Y189008D02*
Y203852D01*
X158834Y180331D02*
X167511Y189008D01*
X158834Y158210D02*
Y180331D01*
X209651Y177738D02*
X211150Y179236D01*
X209651Y158408D02*
Y177738D01*
X208425Y157182D02*
X209651Y158408D01*
X208425Y155175D02*
Y157182D01*
Y155175D02*
X220500Y143100D01*
X187528Y180827D02*
X189102Y179252D01*
X198551Y179252D02*
X201701D01*
X190677Y171378D02*
X198551Y179252D01*
X190677Y155720D02*
Y171378D01*
X177900Y142943D02*
X190677Y155720D01*
X155650Y207323D02*
Y210472D01*
Y207323D02*
X157132Y205840D01*
Y199357D02*
Y205840D01*
X155650Y197874D02*
X157132Y199357D01*
X149350Y201024D02*
X150925Y199449D01*
X154075D01*
X155650Y197874D01*
X182803Y191850D02*
Y191850D01*
X181228Y190276D02*
X182803Y191850D01*
X179654Y182402D02*
X181228Y180827D01*
X184378D01*
X184378Y180827D01*
X187528D01*
X179654Y176102D02*
Y182402D01*
X176504Y172953D02*
X179654Y176102D01*
X196976Y174528D02*
X198551Y176102D01*
X196976Y168228D02*
Y174528D01*
X195402Y166654D02*
X196976Y168228D01*
X210400Y156364D02*
X212632Y158597D01*
Y167083D01*
X213854Y168305D01*
X219100D01*
X220598Y169803D01*
X234772Y183976D02*
X236347Y185551D01*
X234772Y177677D02*
Y183976D01*
X233197Y176102D02*
X234772Y177677D01*
X231622Y174528D02*
X233197Y176102D01*
X231622Y168228D02*
Y174528D01*
X230047Y166654D02*
X231622Y168228D01*
X220598Y169803D02*
X222173Y171378D01*
Y177677D01*
X223748Y179252D01*
D67*
X122000Y112000D02*
D03*
Y258000D02*
D03*
X317000Y112000D02*
D03*
Y258000D02*
D03*
D68*
X222717Y232618D02*
D03*
X211150Y217032D02*
D03*
X217449Y220213D02*
D03*
X214299D02*
D03*
X268000Y239000D02*
D03*
X192252Y201307D02*
D03*
X288000Y159000D02*
D03*
X189102Y172937D02*
D03*
X268000Y159000D02*
D03*
X201701Y172953D02*
D03*
X268000Y154000D02*
D03*
X201701Y176102D02*
D03*
X182803D02*
D03*
X155650Y182126D02*
D03*
X176504Y188701D02*
D03*
X185953Y185551D02*
D03*
X201701Y169803D02*
D03*
Y188701D02*
D03*
X198551Y191850D02*
D03*
X149350Y207323D02*
D03*
X152500Y207323D02*
D03*
X155650Y201024D02*
D03*
X133602Y213622D02*
D03*
X182803Y210748D02*
D03*
X155650Y219921D02*
D03*
X195402Y210748D02*
D03*
X201701Y220197D02*
D03*
X198551Y226496D02*
D03*
X204850Y210748D02*
D03*
X230047Y182402D02*
D03*
X217449Y204449D02*
D03*
X220598Y185551D02*
D03*
X226898Y207598D02*
D03*
X236347Y204449D02*
D03*
X123760Y215211D02*
D03*
X214307Y207598D02*
D03*
X223748Y163504D02*
D03*
X214299Y166654D02*
D03*
X185953Y220197D02*
D03*
X298000Y234000D02*
D03*
X127303Y201024D02*
D03*
X236347Y169803D02*
D03*
X226898Y172953D02*
D03*
X239496Y179252D02*
D03*
X233197Y226496D02*
D03*
X211150Y223346D02*
D03*
X239496Y213898D02*
D03*
X217449Y198150D02*
D03*
X233197Y191850D02*
D03*
X204850Y198150D02*
D03*
X214299Y185551D02*
D03*
X211150Y182402D02*
D03*
X201701D02*
D03*
X152500Y191575D02*
D03*
Y201024D02*
D03*
X201701Y191850D02*
D03*
X220598Y220197D02*
D03*
X195402Y204449D02*
D03*
X179654Y201307D02*
D03*
X189102Y163504D02*
D03*
X179654Y169803D02*
D03*
X223748Y198150D02*
D03*
X209146Y251724D02*
D03*
X220500Y247500D02*
D03*
X128874Y177402D02*
D03*
X128878Y171102D02*
D03*
X230047Y217047D02*
D03*
X173500Y226500D02*
D03*
X288000Y239000D02*
D03*
X293000Y159000D02*
D03*
X189102Y176102D02*
D03*
X253000Y234000D02*
D03*
X198551Y220197D02*
D03*
X268000Y234000D02*
D03*
X201701Y217047D02*
D03*
X293000Y239000D02*
D03*
X198354Y260800D02*
D03*
X283000Y239000D02*
D03*
X240874Y232008D02*
D03*
X195402Y220197D02*
D03*
X298000Y239000D02*
D03*
X192947Y260800D02*
D03*
X172765Y219936D02*
D03*
X152500Y197874D02*
D03*
X127303Y204165D02*
D03*
X223764Y226496D02*
D03*
Y223346D02*
D03*
X220598Y217047D02*
D03*
Y223346D02*
D03*
X236347Y217047D02*
D03*
Y213898D02*
D03*
X233197Y220197D02*
D03*
X236347D02*
D03*
X217449Y217047D02*
D03*
X230047Y220197D02*
D03*
X223748Y191850D02*
D03*
X220598D02*
D03*
X155650Y178976D02*
D03*
Y172677D02*
D03*
X283000Y234000D02*
D03*
X239496Y169803D02*
D03*
X242000Y149500D02*
D03*
X226898Y198150D02*
D03*
Y191850D02*
D03*
X230047D02*
D03*
Y198150D02*
D03*
X226898Y201299D02*
D03*
X230047D02*
D03*
X233197Y198150D02*
D03*
X223748Y188701D02*
D03*
Y185551D02*
D03*
X220598Y188701D02*
D03*
X226898Y185551D02*
D03*
X122300Y225185D02*
D03*
X200200Y233900D02*
D03*
X205476Y241724D02*
D03*
X240700Y245400D02*
D03*
X182476Y251724D02*
D03*
Y241724D02*
D03*
X201701Y163504D02*
D03*
Y198150D02*
D03*
X183600Y161000D02*
D03*
X195402Y172953D02*
D03*
X223748Y201299D02*
D03*
X201615Y201385D02*
D03*
X195402Y201299D02*
D03*
X166476Y215124D02*
D03*
X192449Y188701D02*
D03*
X189102D02*
D03*
X192252Y169819D02*
D03*
Y166654D02*
D03*
X195402Y182402D02*
D03*
X195402Y188701D02*
D03*
X185953Y169803D02*
D03*
X226898Y220197D02*
D03*
X223748D02*
D03*
X220598Y207598D02*
D03*
X223748Y210748D02*
D03*
X217449Y223346D02*
D03*
X133602Y216772D02*
D03*
X204850Y163504D02*
D03*
X220500Y143100D02*
D03*
X189102Y179252D02*
D03*
X185953D02*
D03*
X189102Y182402D02*
D03*
X192449D02*
D03*
X198543Y207598D02*
D03*
X179654D02*
D03*
X185953Y213898D02*
D03*
X201701D02*
D03*
X198551D02*
D03*
X195402D02*
D03*
X176504Y217047D02*
D03*
X189102Y213898D02*
D03*
X192256D02*
D03*
X182803D02*
D03*
X204850Y217047D02*
D03*
X192252Y220197D02*
D03*
Y223346D02*
D03*
X136752Y169528D02*
D03*
X133602D02*
D03*
X189102Y169803D02*
D03*
X198551Y163504D02*
D03*
X152500Y216772D02*
D03*
X182803Y188701D02*
D03*
X179654D02*
D03*
X195402Y169803D02*
D03*
X204850Y179252D02*
D03*
Y176102D02*
D03*
X198551Y169803D02*
D03*
Y172953D02*
D03*
X211150Y179236D02*
D03*
X214299Y198150D02*
D03*
X217449Y213898D02*
D03*
X220598Y198150D02*
D03*
X211134Y185551D02*
D03*
X204835Y201299D02*
D03*
X208000D02*
D03*
X204850Y191858D02*
D03*
X230031Y163520D02*
D03*
X220598Y163504D02*
D03*
X223748Y166654D02*
D03*
X226898D02*
D03*
X130453Y178976D02*
D03*
X130468Y201024D02*
D03*
X230047Y213898D02*
D03*
X233197Y188701D02*
D03*
Y217047D02*
D03*
X239496Y210748D02*
D03*
X226898Y213898D02*
D03*
X230047Y210748D02*
D03*
X233197D02*
D03*
X236347D02*
D03*
X233197Y213898D02*
D03*
X185953Y207598D02*
D03*
X239440Y201355D02*
D03*
X236347Y198150D02*
D03*
X211142Y213906D02*
D03*
X214299Y188701D02*
D03*
X217449Y169803D02*
D03*
X226898Y163504D02*
D03*
X211000Y232800D02*
D03*
X198551Y210748D02*
D03*
X236018Y156441D02*
D03*
X204850Y226496D02*
D03*
X233197Y201299D02*
D03*
X239496Y166654D02*
D03*
Y172953D02*
D03*
X220598Y169803D02*
D03*
Y226496D02*
D03*
X217449D02*
D03*
X273000Y239000D02*
D03*
X278000D02*
D03*
X195402Y191850D02*
D03*
X198551Y182402D02*
D03*
X195402Y207598D02*
D03*
X198551Y198150D02*
D03*
Y188701D02*
D03*
X177900Y129200D02*
D03*
X226898Y223346D02*
D03*
X223748Y213898D02*
D03*
X214299Y217047D02*
D03*
X223064Y253900D02*
D03*
X154936Y243375D02*
D03*
X195402Y217047D02*
D03*
X127303Y182126D02*
D03*
X133602Y188425D02*
D03*
X130453Y197874D02*
D03*
X152500Y188425D02*
D03*
X149350Y201024D02*
D03*
X155650Y197874D02*
D03*
X123760Y218360D02*
D03*
X155650Y207323D02*
D03*
Y210472D02*
D03*
X152500Y219921D02*
D03*
X176504Y172953D02*
D03*
X179654Y182402D02*
D03*
X182803Y191850D02*
D03*
X176504Y207402D02*
D03*
X182803Y226496D02*
D03*
X185953Y204449D02*
D03*
X179654Y217047D02*
D03*
X123100Y133900D02*
D03*
X220598Y204449D02*
D03*
X226898Y188701D02*
D03*
X245000Y222461D02*
D03*
Y212461D02*
D03*
X230047Y166654D02*
D03*
X223748Y179252D02*
D03*
X245500Y185461D02*
D03*
X233197Y176102D02*
D03*
X236347Y185551D02*
D03*
X239496Y163504D02*
D03*
X198551Y176102D02*
D03*
X211150Y172953D02*
D03*
X195402Y166654D02*
D03*
X192252Y198142D02*
D03*
X214299Y182402D02*
D03*
Y204449D02*
D03*
X211142Y207598D02*
D03*
X211150Y191850D02*
D03*
X201701Y185551D02*
D03*
X201701Y179252D02*
D03*
X177900Y142943D02*
D03*
X258000Y229000D02*
D03*
X217449Y210748D02*
D03*
X253000Y229000D02*
D03*
X201701Y226496D02*
D03*
X258000Y224000D02*
D03*
X214299Y213898D02*
D03*
X253000Y224000D02*
D03*
X258000Y219000D02*
D03*
X253000D02*
D03*
X189102Y226496D02*
D03*
X172064Y250100D02*
D03*
X178476Y246724D02*
D03*
X192236Y226496D02*
D03*
X205476Y246724D02*
D03*
X195402Y223346D02*
D03*
X192252Y217047D02*
D03*
X198551Y223346D02*
D03*
X172064Y256800D02*
D03*
X195402Y226496D02*
D03*
X211150Y220197D02*
D03*
X263000Y229000D02*
D03*
X204850Y220197D02*
D03*
X201701Y223346D02*
D03*
X283000Y229000D02*
D03*
X214325Y223321D02*
D03*
X283000Y214000D02*
D03*
X226898Y217047D02*
D03*
X278000Y214000D02*
D03*
X298000Y229000D02*
D03*
Y224000D02*
D03*
Y219000D02*
D03*
X288000D02*
D03*
X211150Y226496D02*
D03*
X214307Y210748D02*
D03*
X293000Y229000D02*
D03*
X214299Y226496D02*
D03*
X293000Y224000D02*
D03*
X223748Y217047D02*
D03*
X293000Y219000D02*
D03*
Y214000D02*
D03*
X288000Y229000D02*
D03*
Y214000D02*
D03*
Y224000D02*
D03*
X298000Y214000D02*
D03*
X263000Y224000D02*
D03*
X268000D02*
D03*
Y219000D02*
D03*
X226898Y226496D02*
D03*
X268000Y214000D02*
D03*
X263000Y219000D02*
D03*
X230047Y223346D02*
D03*
X278000Y224000D02*
D03*
X220598Y210748D02*
D03*
X230047Y226496D02*
D03*
X273000Y224000D02*
D03*
Y219000D02*
D03*
X233197Y223346D02*
D03*
X273000Y214000D02*
D03*
X220598Y213898D02*
D03*
X278000Y219000D02*
D03*
X189102Y220197D02*
D03*
X258000Y234000D02*
D03*
X263000D02*
D03*
X273000D02*
D03*
X278000D02*
D03*
X189102Y223346D02*
D03*
X288000Y234000D02*
D03*
X189102Y217047D02*
D03*
X198551D02*
D03*
X293000Y234000D02*
D03*
X136752Y188425D02*
D03*
X152500Y182126D02*
D03*
X127303Y197874D02*
D03*
X192252Y204449D02*
D03*
X185953Y223346D02*
D03*
Y182402D02*
D03*
X136752Y194724D02*
D03*
X130453Y188425D02*
D03*
X188900Y185551D02*
D03*
X149350Y210472D02*
D03*
X179654Y210748D02*
D03*
X149350Y213622D02*
D03*
X133602Y204173D02*
D03*
X179654Y220197D02*
D03*
X133602Y201024D02*
D03*
X179654Y223346D02*
D03*
X136752Y210472D02*
D03*
X173776Y207724D02*
D03*
X146201Y207323D02*
D03*
X141576Y213224D02*
D03*
X176504Y201299D02*
D03*
Y204449D02*
D03*
X130453Y216772D02*
D03*
X179654Y204449D02*
D03*
X149350Y219921D02*
D03*
X185953Y201307D02*
D03*
X133602Y210472D02*
D03*
X182803Y201307D02*
D03*
Y204449D02*
D03*
X152500Y213622D02*
D03*
X136752D02*
D03*
X151076Y227724D02*
D03*
X145976Y216824D02*
D03*
X149350Y197874D02*
D03*
X176504Y210748D02*
D03*
X133602Y197874D02*
D03*
X136752D02*
D03*
X182803Y217047D02*
D03*
X185953Y226496D02*
D03*
X152500Y204173D02*
D03*
X179654Y226496D02*
D03*
X182803Y223346D02*
D03*
X149350Y204173D02*
D03*
X136752Y207323D02*
D03*
X182803Y220197D02*
D03*
X133602Y185276D02*
D03*
X172576Y187324D02*
D03*
X155650Y188425D02*
D03*
X182803Y185551D02*
D03*
X149391Y194584D02*
D03*
X179654Y191850D02*
D03*
X149388Y191437D02*
D03*
X136752Y191575D02*
D03*
X133602Y182126D02*
D03*
X189102Y198142D02*
D03*
X152500Y178976D02*
D03*
X189102Y191850D02*
D03*
X130453Y182126D02*
D03*
X185953Y210748D02*
D03*
X146201Y172677D02*
D03*
X141476Y192756D02*
D03*
X185953Y217047D02*
D03*
X171076Y202824D02*
D03*
X189102Y210748D02*
D03*
X146201Y188425D02*
D03*
X133602Y175827D02*
D03*
X189102Y201307D02*
D03*
X152500Y169528D02*
D03*
X179654Y195000D02*
D03*
X189102D02*
D03*
X133602Y172677D02*
D03*
X185953Y191850D02*
D03*
X152500Y172677D02*
D03*
X185953Y188701D02*
D03*
X152500Y175827D02*
D03*
X182803Y198142D02*
D03*
X136752Y175827D02*
D03*
X169976Y189124D02*
D03*
X149350Y175827D02*
D03*
X166876Y178824D02*
D03*
X136752Y178976D02*
D03*
X171476Y177124D02*
D03*
X233197Y172953D02*
D03*
X163500Y243275D02*
D03*
X192252Y191850D02*
D03*
X152500Y185276D02*
D03*
X189102Y207598D02*
D03*
Y204449D02*
D03*
X192256Y210748D02*
D03*
X258000Y239000D02*
D03*
X192252Y207598D02*
D03*
X253000Y239000D02*
D03*
X201701Y210748D02*
D03*
X263000Y239000D02*
D03*
X271500Y136000D02*
D03*
X236347Y172953D02*
D03*
X253000Y214000D02*
D03*
X258000D02*
D03*
X283000Y209000D02*
D03*
X288000D02*
D03*
X273000D02*
D03*
X278000D02*
D03*
X263000D02*
D03*
X220598Y201299D02*
D03*
X268000Y209000D02*
D03*
X223748Y204449D02*
D03*
X253000Y209000D02*
D03*
X223748Y207598D02*
D03*
X258000Y209000D02*
D03*
X236347Y207598D02*
D03*
X239496D02*
D03*
Y204449D02*
D03*
X230047Y207598D02*
D03*
X273000Y204000D02*
D03*
X233197Y207598D02*
D03*
X278000Y204000D02*
D03*
X263000D02*
D03*
X268000D02*
D03*
X253000D02*
D03*
X233197Y204449D02*
D03*
X258000Y204000D02*
D03*
X226898Y204449D02*
D03*
X293000Y199000D02*
D03*
X230047Y204449D02*
D03*
X298000Y199000D02*
D03*
X283000D02*
D03*
X288000D02*
D03*
X236347Y201299D02*
D03*
X234772Y193425D02*
D03*
X253000Y199000D02*
D03*
X237921Y193425D02*
D03*
X258000Y199000D02*
D03*
X293000Y194000D02*
D03*
X230047Y188701D02*
D03*
X298000Y194000D02*
D03*
X283000D02*
D03*
X288000D02*
D03*
X226898Y210748D02*
D03*
X273000Y194000D02*
D03*
X278000D02*
D03*
X263000D02*
D03*
X268000D02*
D03*
X253000D02*
D03*
X258000D02*
D03*
X239496Y217047D02*
D03*
X293000Y189000D02*
D03*
X298000D02*
D03*
X236347Y223346D02*
D03*
X283000Y189000D02*
D03*
X239496Y226496D02*
D03*
X288000Y189000D02*
D03*
X239496Y220197D02*
D03*
X273000Y189000D02*
D03*
X239496Y223346D02*
D03*
X278000Y189000D02*
D03*
X268000D02*
D03*
X263000Y214000D02*
D03*
Y189000D02*
D03*
X236347Y176102D02*
D03*
X223748Y182402D02*
D03*
X253000Y189000D02*
D03*
X226898Y182402D02*
D03*
X258000Y189000D02*
D03*
X230047Y185551D02*
D03*
X293000Y184000D02*
D03*
X233197Y182402D02*
D03*
X298000Y184000D02*
D03*
X233197Y166654D02*
D03*
X283000Y184000D02*
D03*
X236347Y166654D02*
D03*
X288000Y184000D02*
D03*
X273000D02*
D03*
X230047Y169803D02*
D03*
X278000Y184000D02*
D03*
X233197Y169803D02*
D03*
X230047Y176102D02*
D03*
X263000Y184000D02*
D03*
X233197Y179252D02*
D03*
X268000Y184000D02*
D03*
X226898Y179252D02*
D03*
X253000Y184000D02*
D03*
X230047Y179252D02*
D03*
X258000Y184000D02*
D03*
X293000Y179000D02*
D03*
X226898Y169803D02*
D03*
X298000Y179000D02*
D03*
X283000D02*
D03*
X233197Y163504D02*
D03*
X288000Y179000D02*
D03*
X236347Y163504D02*
D03*
X273000Y179000D02*
D03*
X278000D02*
D03*
X263000D02*
D03*
X239496Y176102D02*
D03*
X268000Y179000D02*
D03*
X253000D02*
D03*
X258000D02*
D03*
X298000Y174000D02*
D03*
X233197Y185551D02*
D03*
X293000Y174000D02*
D03*
X236347Y182402D02*
D03*
X220598Y172953D02*
D03*
X288000Y174000D02*
D03*
X223748Y172953D02*
D03*
Y169803D02*
D03*
X263000Y174000D02*
D03*
X226898Y176102D02*
D03*
X230047Y172953D02*
D03*
X268000Y174000D02*
D03*
X220598Y166654D02*
D03*
X253000Y174000D02*
D03*
X258000D02*
D03*
X298000Y169000D02*
D03*
X293000D02*
D03*
X220598Y182402D02*
D03*
X283000Y169000D02*
D03*
X220598Y179252D02*
D03*
X288000Y169000D02*
D03*
X220598Y176102D02*
D03*
X273000Y169000D02*
D03*
X278000D02*
D03*
X223748Y176102D02*
D03*
X214283Y169787D02*
D03*
X263000Y169000D02*
D03*
X217465Y166654D02*
D03*
X268000Y169000D02*
D03*
X217449Y172953D02*
D03*
X253000Y169000D02*
D03*
X258000D02*
D03*
X214299Y176102D02*
D03*
X293000Y164000D02*
D03*
X214315Y172953D02*
D03*
X298000Y164000D02*
D03*
X211134Y176102D02*
D03*
X283000Y164000D02*
D03*
X288000D02*
D03*
X236347Y179252D02*
D03*
X268000Y164000D02*
D03*
X273000D02*
D03*
X211150Y169803D02*
D03*
X258000Y164000D02*
D03*
X204850Y169803D02*
D03*
X263000Y164000D02*
D03*
X214283Y163504D02*
D03*
X298000Y159000D02*
D03*
X217449Y163504D02*
D03*
X253000Y164000D02*
D03*
X211150Y166654D02*
D03*
X278000Y159000D02*
D03*
X211150Y163504D02*
D03*
X283000Y159000D02*
D03*
X273000D02*
D03*
X204850Y166654D02*
D03*
X258000Y159000D02*
D03*
X201701Y166654D02*
D03*
X263000Y159000D02*
D03*
X298000Y154000D02*
D03*
X198551Y166654D02*
D03*
X253000Y159000D02*
D03*
X288000Y154000D02*
D03*
X293000D02*
D03*
X278000D02*
D03*
X283000D02*
D03*
X204850Y172953D02*
D03*
X273000Y154000D02*
D03*
X258000D02*
D03*
X263000D02*
D03*
X253000D02*
D03*
X192246Y185545D02*
D03*
X181700Y258600D02*
D03*
X209541Y260800D02*
D03*
X172429Y236724D02*
D03*
X194741Y160000D02*
D03*
X211142Y210740D02*
D03*
M02*
