G04*
G04 #@! TF.GenerationSoftware,Altium Limited,Altium Designer,25.6.2 (33)*
G04*
G04 Layer_Color=16711935*
%FSLAX25Y25*%
%MOIN*%
G70*
G04*
G04 #@! TF.SameCoordinates,D3077B53-F130-49B9-AE0B-FC42BD5CCE1B*
G04*
G04*
G04 #@! TF.FilePolarity,Positive*
G04*
G01*
G75*
%ADD11C,0.00787*%
%ADD12C,0.00500*%
%ADD62C,0.00394*%
D11*
X215327Y236724D02*
G03*
X215327Y236724I-394J0D01*
G01*
X192002Y113102D02*
Y138298D01*
Y113102D02*
X217198D01*
Y138298D01*
X192002D02*
X217198D01*
X134125Y227050D02*
Y233350D01*
X137275D01*
Y227050D02*
Y233350D01*
X134125Y227050D02*
X137275D01*
X127228Y227153D02*
Y233846D01*
X130772D01*
Y227153D02*
Y233846D01*
X127228Y227153D02*
X130772D01*
X120528D02*
Y233846D01*
X124072D01*
Y227153D02*
Y233846D01*
X120528Y227153D02*
X124072D01*
X127228Y237353D02*
Y244046D01*
X130772D01*
Y237353D02*
Y244046D01*
X127228Y237353D02*
X130772D01*
X120528D02*
Y244046D01*
X124072D01*
Y237353D02*
Y244046D01*
X120528Y237353D02*
X124072D01*
X134125Y236550D02*
Y242850D01*
X137275D01*
Y236550D02*
Y242850D01*
X134125Y236550D02*
X137275D01*
X166250Y241800D02*
X172550D01*
X166250D02*
Y244950D01*
X172550D01*
Y241800D02*
Y244950D01*
X154450Y241800D02*
X160750D01*
X154450D02*
Y244950D01*
X160750D01*
Y241800D02*
Y244950D01*
X166130Y234953D02*
X172823D01*
X166130D02*
Y238496D01*
X172823D01*
Y234953D02*
Y238496D01*
X217807Y238185D02*
X231193D01*
X217807D02*
Y248815D01*
X231193D01*
Y238185D02*
Y248815D01*
X116407Y146143D02*
X129793D01*
Y139057D02*
Y146143D01*
X116407Y139057D02*
X129793D01*
X116407D02*
Y146143D01*
Y137443D02*
X129793D01*
Y130357D02*
Y137443D01*
X116407Y130357D02*
X129793D01*
X116407D02*
Y137443D01*
Y128743D02*
X129793D01*
Y121657D02*
Y128743D01*
X116407Y121657D02*
X129793D01*
X116407D02*
Y128743D01*
X155454Y105328D02*
X162146D01*
X155454D02*
Y108872D01*
X162146D01*
Y105328D02*
Y108872D01*
X155254Y142528D02*
X161946D01*
X155254D02*
Y146072D01*
X161946D01*
Y142528D02*
Y146072D01*
X116407Y154843D02*
X129793D01*
Y147757D02*
Y154843D01*
X116407Y147757D02*
X129793D01*
X116407D02*
Y154843D01*
X143654Y142728D02*
X150347D01*
X143654D02*
Y146272D01*
X150347D01*
Y142728D02*
Y146272D01*
X143853Y105128D02*
X150547D01*
X143853D02*
Y108672D01*
X150547D01*
Y105128D02*
Y108672D01*
X137502Y138298D02*
X162698D01*
Y113102D02*
Y138298D01*
X137502Y113102D02*
X162698D01*
X137502D02*
Y138298D01*
X288554Y110872D02*
X295247D01*
Y107328D02*
Y110872D01*
X288554Y107328D02*
X295247D01*
X288554D02*
Y110872D01*
X276654D02*
X283347D01*
Y107328D02*
Y110872D01*
X276654Y107328D02*
X283347D01*
X276654D02*
Y110872D01*
X209653Y105328D02*
X216347D01*
X209653D02*
Y108872D01*
X216347D01*
Y105328D02*
Y108872D01*
X171207Y116243D02*
X184593D01*
Y109157D02*
Y116243D01*
X171207Y109157D02*
X184593D01*
X171207D02*
Y116243D01*
X197653Y142628D02*
X204346D01*
X197653D02*
Y146172D01*
X204346D01*
Y142628D02*
Y146172D01*
X197953Y105128D02*
X204646D01*
X197953D02*
Y108672D01*
X204646D01*
Y105128D02*
Y108672D01*
X171207Y142943D02*
X184593D01*
Y135857D02*
Y142943D01*
X171207Y135857D02*
X184593D01*
X171207D02*
Y142943D01*
Y125143D02*
X184593D01*
Y118057D02*
Y125143D01*
X171207Y118057D02*
X184593D01*
X171207D02*
Y125143D01*
Y134043D02*
X184593D01*
Y126957D02*
Y134043D01*
X171207Y126957D02*
X184593D01*
X171207D02*
Y134043D01*
X221363Y140284D02*
X233174D01*
X221363Y125716D02*
Y140284D01*
Y125716D02*
X233174D01*
Y140284D01*
X221363Y104917D02*
X233174D01*
Y119483D01*
X221363D02*
X233174D01*
X221363Y104917D02*
Y119483D01*
X235363Y140284D02*
X247174D01*
X235363Y125716D02*
Y140284D01*
Y125716D02*
X247174D01*
Y140284D01*
X235395Y104917D02*
X247205D01*
Y119483D01*
X235395D02*
X247205D01*
X235395Y104917D02*
Y119483D01*
X137850Y151125D02*
Y154275D01*
Y151125D02*
X144150D01*
Y154275D01*
X137850D02*
X144150D01*
X125550Y158625D02*
Y161775D01*
X119250D02*
X125550D01*
X119250Y158625D02*
Y161775D01*
Y158625D02*
X125550D01*
X113685Y221890D02*
X124315D01*
X113685Y208110D02*
Y221890D01*
Y208110D02*
X124315D01*
Y221890D01*
X178390Y148685D02*
Y159315D01*
X164610D02*
X178390D01*
X164610Y148685D02*
Y159315D01*
Y148685D02*
X178390D01*
X239825Y235050D02*
X242975D01*
Y241350D01*
X239825D02*
X242975D01*
X239825Y235050D02*
Y241350D01*
X217250Y252325D02*
Y255475D01*
Y252325D02*
X223550D01*
Y255475D01*
X217250D02*
X223550D01*
X228153Y232128D02*
Y235672D01*
Y232128D02*
X234846D01*
Y235672D01*
X228153D02*
X234846D01*
X208825Y156850D02*
X211975D01*
X208825Y150550D02*
Y156850D01*
Y150550D02*
X211975D01*
Y156850D01*
X192889Y149850D02*
Y158118D01*
Y149850D02*
X205094D01*
Y158118D01*
X192889D02*
X205094D01*
X183228Y157046D02*
X186772D01*
X183228Y150354D02*
Y157046D01*
Y150354D02*
X186772D01*
Y157046D01*
X215328D02*
X218872D01*
X215328Y150354D02*
Y157046D01*
Y150354D02*
X218872D01*
Y157046D01*
X172550Y248525D02*
Y251675D01*
X166250D02*
X172550D01*
X166250Y248525D02*
Y251675D01*
Y248525D02*
X172550D01*
Y255225D02*
Y258375D01*
X166250D02*
X172550D01*
X166250Y255225D02*
Y258375D01*
Y255225D02*
X172550D01*
X218550Y259025D02*
Y262175D01*
Y259025D02*
X224850D01*
Y262175D01*
X218550D02*
X224850D01*
X268650Y134425D02*
Y137575D01*
X262350D02*
X268650D01*
X262350Y134425D02*
Y137575D01*
Y134425D02*
X268650D01*
X198354Y259028D02*
Y262572D01*
Y259028D02*
X205047D01*
Y262572D01*
X198354D02*
X205047D01*
X284134Y133343D02*
Y138657D01*
X275866D02*
X284134D01*
X275866Y133343D02*
Y138657D01*
Y133343D02*
X284134D01*
X192947Y259028D02*
Y262572D01*
X186253D02*
X192947D01*
X186253Y259028D02*
Y262572D01*
Y259028D02*
X192947D01*
X300847Y134228D02*
Y137772D01*
X294153D02*
X300847D01*
X294153Y134228D02*
Y137772D01*
Y134228D02*
X300847D01*
D12*
X178063Y232413D02*
X209559D01*
X178063D02*
Y256035D01*
X209559D01*
Y232413D02*
Y256035D01*
D62*
X243728Y179654D02*
X247272D01*
X243728Y186346D02*
X247272D01*
X243728Y179654D02*
Y186346D01*
X247272Y179654D02*
Y186346D01*
X125728Y167165D02*
X157224D01*
X125728Y222284D02*
X157224D01*
Y167165D02*
Y222284D01*
X125728Y167165D02*
Y222284D01*
X174535Y161535D02*
X241465D01*
X174535Y228465D02*
X241465D01*
Y161535D02*
Y228465D01*
X174535Y161535D02*
Y228465D01*
X255801Y112247D02*
X268399D01*
X255801Y105553D02*
X268399D01*
X255801D02*
Y112247D01*
X268399Y105553D02*
Y112247D01*
X216146Y142030D02*
Y145770D01*
X209454Y142030D02*
Y145770D01*
Y142030D02*
X216146D01*
X209454Y145770D02*
X216146D01*
X189446Y103228D02*
Y106772D01*
X182754Y103228D02*
Y106772D01*
Y103228D02*
X189446D01*
X182754Y106772D02*
X189446D01*
X171353Y103228D02*
Y106772D01*
X178047Y103228D02*
Y106772D01*
X171353D02*
X178047D01*
X171353Y103228D02*
X178047D01*
X243228Y197153D02*
Y203847D01*
X246772Y197153D02*
Y203847D01*
X243228Y197153D02*
X246772D01*
X243228Y203847D02*
X246772D01*
X246772Y216653D02*
Y223346D01*
X243228Y216653D02*
Y223346D01*
X246772D01*
X243228Y216653D02*
X246772D01*
Y206653D02*
Y213347D01*
X243228Y206653D02*
Y213347D01*
X246772D01*
X243228Y206653D02*
X246772D01*
X116743Y168066D02*
Y176334D01*
X122057Y168066D02*
Y176334D01*
X116743Y168066D02*
X122057D01*
X116743Y176334D02*
X122057D01*
X150566Y155257D02*
X158834D01*
X150566Y149943D02*
X158834D01*
X150566D02*
Y155257D01*
X158834Y149943D02*
Y155257D01*
X116154Y201228D02*
X122846D01*
X116154Y204772D02*
X122846D01*
Y201228D02*
Y204772D01*
X116154Y201228D02*
Y204772D01*
X117743Y181066D02*
Y189334D01*
X123057Y181066D02*
Y189334D01*
X117743Y181066D02*
X123057D01*
X117743Y189334D02*
X123057D01*
X248158Y155366D02*
Y163634D01*
X242843Y155366D02*
Y163634D01*
X248158D01*
X242843Y155366D02*
X248158D01*
X242843Y166866D02*
Y175134D01*
X248158Y166866D02*
Y175134D01*
X242843Y166866D02*
X248158D01*
X242843Y175134D02*
X248158D01*
X220847Y231928D02*
Y235472D01*
X214154Y231928D02*
Y235472D01*
Y231928D02*
X220847D01*
X214154Y235472D02*
X220847D01*
X233728Y238953D02*
X237272D01*
X233728Y245647D02*
X237272D01*
X233728Y238953D02*
Y245647D01*
X237272Y238953D02*
Y245647D01*
X208753Y262572D02*
X215446D01*
X208753Y259028D02*
X215446D01*
X208753D02*
Y262572D01*
X215446Y259028D02*
Y262572D01*
M02*
