G04*
G04 #@! TF.GenerationSoftware,Altium Limited,Altium Designer,25.6.2 (33)*
G04*
G04 Layer_Physical_Order=1*
G04 Layer_Color=255*
%FSLAX25Y25*%
%MOIN*%
G70*
G04*
G04 #@! TF.SameCoordinates,D3077B53-F130-49B9-AE0B-FC42BD5CCE1B*
G04*
G04*
G04 #@! TF.FilePolarity,Positive*
G04*
G01*
G75*
%ADD12C,0.00500*%
%ADD13C,0.01000*%
%ADD14C,0.01772*%
%ADD15R,0.05512X0.07087*%
%ADD16R,0.03150X0.03543*%
%ADD17C,0.02480*%
%ADD18R,0.03543X0.03150*%
%ADD19R,0.03543X0.03150*%
%ADD20C,0.01850*%
%ADD21R,0.03347X0.01181*%
%ADD22R,0.05512X0.06299*%
%ADD23R,0.03197X0.02593*%
%ADD24R,0.02593X0.03197*%
G04:AMPARAMS|DCode=25|XSize=37.01mil|YSize=17.32mil|CornerRadius=6.06mil|HoleSize=0mil|Usage=FLASHONLY|Rotation=180.000|XOffset=0mil|YOffset=0mil|HoleType=Round|Shape=RoundedRectangle|*
%AMROUNDEDRECTD25*
21,1,0.03701,0.00520,0,0,180.0*
21,1,0.02488,0.01732,0,0,180.0*
1,1,0.01213,-0.01244,0.00260*
1,1,0.01213,0.01244,0.00260*
1,1,0.01213,0.01244,-0.00260*
1,1,0.01213,-0.01244,-0.00260*
%
%ADD25ROUNDEDRECTD25*%
%ADD26R,0.03543X0.03937*%
%ADD27R,0.11024X0.05512*%
%ADD28R,0.05118X0.04331*%
%ADD29R,0.03504X0.05079*%
%ADD30R,0.05118X0.03937*%
%ADD31R,0.04331X0.08071*%
%ADD32R,0.08071X0.04331*%
%ADD33R,0.02953X0.03347*%
%ADD34R,0.03937X0.05118*%
%ADD35R,0.03347X0.02953*%
%ADD36R,0.03150X0.03937*%
%ADD37R,0.03150X0.02362*%
%ADD38R,0.05142X0.04166*%
%ADD39R,0.02362X0.03150*%
%ADD40R,0.02756X0.03543*%
%ADD41R,0.04724X0.04724*%
%ADD42R,0.03150X0.03150*%
%ADD43R,0.03366X0.03568*%
%ADD59C,0.02362*%
%ADD62C,0.00394*%
%ADD63R,0.13386X0.16929*%
%ADD64C,0.02000*%
%ADD65C,0.00800*%
%ADD66C,0.01500*%
%ADD67C,0.03937*%
%ADD68C,0.01378*%
G36*
X329000Y260000D02*
Y110000D01*
X319000Y100000D01*
X120000D01*
X110000Y110000D01*
Y260000D01*
X120000Y270000D01*
X319000D01*
X329000Y260000D01*
D02*
G37*
%LPC*%
G36*
X181915Y259683D02*
X181485D01*
X181087Y259518D01*
X180782Y259213D01*
X180617Y258815D01*
Y258385D01*
X180782Y257987D01*
X181087Y257682D01*
X181485Y257517D01*
X181915D01*
X182313Y257682D01*
X182618Y257987D01*
X182783Y258385D01*
Y258815D01*
X182618Y259213D01*
X182313Y259518D01*
X181915Y259683D01*
D02*
G37*
G36*
X173755Y258792D02*
X170374D01*
Y254808D01*
X173755D01*
Y258792D01*
D02*
G37*
G36*
Y252092D02*
X170374D01*
Y248108D01*
X173755D01*
Y252092D01*
D02*
G37*
G36*
X168426Y245367D02*
X165045D01*
Y244186D01*
X164120D01*
X164113Y244193D01*
X163715Y244357D01*
X163285D01*
X162887Y244193D01*
X162880Y244186D01*
X161955D01*
Y245367D01*
X158574D01*
Y241382D01*
X161955D01*
Y242364D01*
X162880D01*
X162887Y242357D01*
X163285Y242192D01*
X163715D01*
X164113Y242357D01*
X164120Y242364D01*
X165045D01*
Y241382D01*
X168426D01*
Y245367D01*
D02*
G37*
G36*
X231587Y249307D02*
X225681D01*
Y244189D01*
X231587D01*
Y245837D01*
X232840D01*
X233531Y245145D01*
Y243284D01*
X237469D01*
Y246434D01*
X234820D01*
X233862Y247392D01*
X233566Y247590D01*
X233217Y247659D01*
X231587D01*
Y249307D01*
D02*
G37*
G36*
X240915Y246483D02*
X240485D01*
X240087Y246318D01*
X239782Y246013D01*
X239617Y245615D01*
Y245185D01*
X239782Y244787D01*
X240087Y244482D01*
X240485Y244317D01*
X240591D01*
Y242555D01*
X239408D01*
Y241673D01*
X237017D01*
X237017Y241673D01*
X236707Y241612D01*
X236445Y241436D01*
X236324Y241316D01*
X233531D01*
Y240652D01*
X231587D01*
Y242811D01*
X225681D01*
Y237693D01*
X227723D01*
Y236065D01*
X226579D01*
Y231735D01*
X230516D01*
Y236065D01*
X229545D01*
Y237693D01*
X231587D01*
Y238830D01*
X233531D01*
Y238166D01*
X237469D01*
Y240055D01*
X239408D01*
Y239174D01*
X243392D01*
Y242555D01*
X242209D01*
Y244700D01*
X242209Y244700D01*
X242148Y245010D01*
X241972Y245272D01*
X241783Y245462D01*
Y245615D01*
X241618Y246013D01*
X241313Y246318D01*
X240915Y246483D01*
D02*
G37*
G36*
X156626Y245367D02*
X153245D01*
Y241382D01*
X156626D01*
Y245367D01*
D02*
G37*
G36*
X270800Y267111D02*
X198543D01*
X198195Y267042D01*
X197899Y266844D01*
X193823Y262769D01*
X190781D01*
Y258832D01*
X195112D01*
Y261480D01*
X195825Y262193D01*
X196188Y262042D01*
Y258832D01*
X200519D01*
Y261480D01*
X202184Y263145D01*
X202839D01*
X202881Y262769D01*
X202881D01*
Y258832D01*
X204407D01*
Y247421D01*
X204500Y247197D01*
X204394Y246940D01*
Y246509D01*
X204558Y246111D01*
X204863Y245807D01*
X205261Y245642D01*
X205692D01*
X206090Y245807D01*
X206368Y246085D01*
X206958D01*
X206960Y246074D01*
X207181Y245744D01*
X207511Y245523D01*
X207902Y245445D01*
X210390D01*
X210780Y245523D01*
X210783Y245524D01*
X211176Y245314D01*
Y243675D01*
X210486Y242985D01*
X210390Y243004D01*
X207902D01*
X207511Y242926D01*
X207181Y242705D01*
X206960Y242374D01*
X206958Y242364D01*
X206368D01*
X206090Y242642D01*
X205692Y242807D01*
X205261D01*
X204863Y242642D01*
X204558Y242338D01*
X204394Y241940D01*
Y241509D01*
X204558Y241111D01*
X204863Y240807D01*
X205261Y240642D01*
X205692D01*
X206090Y240807D01*
X206368Y241085D01*
X206958D01*
X206960Y241074D01*
X207181Y240744D01*
X207511Y240523D01*
X207902Y240445D01*
X210390D01*
X210780Y240523D01*
X211111Y240744D01*
X211332Y241074D01*
X211409Y241465D01*
Y241966D01*
X211504Y242061D01*
X211570Y242116D01*
X211964Y241930D01*
Y239462D01*
X210486Y237985D01*
X210390Y238004D01*
X207902D01*
X207511Y237926D01*
X207181Y237705D01*
X206960Y237374D01*
X206958Y237364D01*
X205630D01*
X205178Y237176D01*
X202046Y234045D01*
X201354Y234044D01*
X201283Y234115D01*
X201118Y234513D01*
X200813Y234818D01*
X200415Y234983D01*
X199985D01*
X199587Y234818D01*
X199282Y234513D01*
X199117Y234115D01*
Y234042D01*
X185394Y234032D01*
X185116Y234310D01*
Y234567D01*
X185064Y234690D01*
X185002Y235007D01*
X184829Y235265D01*
X184979Y235631D01*
X185003Y235658D01*
X185378D01*
X185501Y235709D01*
X185818Y235772D01*
X186191Y236022D01*
X186440Y236395D01*
X186503Y236711D01*
X186554Y236835D01*
Y236954D01*
X186503Y237077D01*
X186440Y237394D01*
X186191Y237767D01*
X186065Y237851D01*
Y238325D01*
X186191Y238409D01*
X186440Y238782D01*
X186503Y239099D01*
X186554Y239222D01*
Y239341D01*
X186503Y239465D01*
X186440Y239781D01*
X186191Y240155D01*
X185818Y240404D01*
X185501Y240467D01*
X185378Y240518D01*
X185116D01*
Y243724D01*
X184928Y244176D01*
X181928Y247176D01*
X181476Y247364D01*
X180665D01*
X180662Y247374D01*
X180441Y247705D01*
X180111Y247926D01*
X179720Y248004D01*
X177232D01*
X176842Y247926D01*
X176511Y247705D01*
X176433Y247588D01*
X176039Y247707D01*
Y250742D01*
X176433Y250861D01*
X176511Y250744D01*
X176842Y250523D01*
X177232Y250445D01*
X179720D01*
X180111Y250523D01*
X180441Y250744D01*
X180662Y251074D01*
X180665Y251085D01*
X181585D01*
X181863Y250807D01*
X182261Y250642D01*
X182692D01*
X183090Y250807D01*
X183394Y251111D01*
X183559Y251509D01*
Y251940D01*
X183394Y252338D01*
X183090Y252642D01*
X182692Y252807D01*
X182261D01*
X181863Y252642D01*
X181585Y252364D01*
X180665D01*
X180662Y252374D01*
X180441Y252705D01*
X180111Y252926D01*
X179720Y253004D01*
X177232D01*
X176842Y252926D01*
X176511Y252705D01*
X176433Y252588D01*
X176039Y252707D01*
Y255135D01*
X181065Y260161D01*
X184088D01*
Y258832D01*
X188419D01*
Y262769D01*
X184088D01*
Y261439D01*
X180800D01*
X180348Y261252D01*
X174948Y255852D01*
X174761Y255400D01*
Y242700D01*
X174948Y242248D01*
X175583Y241613D01*
X176035Y241425D01*
X176221D01*
X176290Y241074D01*
X176511Y240744D01*
X176842Y240523D01*
X177232Y240445D01*
X179720D01*
X180111Y240523D01*
X180441Y240744D01*
X180662Y241074D01*
X180665Y241085D01*
X181585D01*
X181863Y240807D01*
X182261Y240642D01*
X182692D01*
X183090Y240807D01*
X183394Y241111D01*
X183443Y241230D01*
X183837Y241152D01*
Y240416D01*
X183888Y240292D01*
X183951Y239976D01*
X184124Y239718D01*
X183974Y239352D01*
X183949Y239324D01*
X182214D01*
X182091Y239273D01*
X181774Y239210D01*
X181401Y238961D01*
X181152Y238588D01*
X181089Y238271D01*
X181038Y238148D01*
Y238028D01*
X181089Y237905D01*
X181152Y237588D01*
X181401Y237215D01*
X181628Y237064D01*
X181665Y236639D01*
X181655Y236608D01*
X181603Y236573D01*
X181354Y236200D01*
X181291Y235884D01*
X181239Y235760D01*
Y235641D01*
X181291Y235518D01*
X181354Y235201D01*
X181603Y234828D01*
X181976Y234579D01*
X182292Y234516D01*
X182416Y234465D01*
X183837D01*
Y234030D01*
X179552Y234027D01*
X179398Y234398D01*
X178955Y234841D01*
X178376Y235081D01*
X178447Y235445D01*
X179720D01*
X180111Y235523D01*
X180441Y235744D01*
X180662Y236074D01*
X180740Y236465D01*
Y236984D01*
X180662Y237374D01*
X180441Y237705D01*
X180111Y237926D01*
X179720Y238004D01*
X177232D01*
X176842Y237926D01*
X176511Y237705D01*
X176465Y237636D01*
X174398D01*
Y238890D01*
X170461D01*
Y234559D01*
X174398D01*
Y235813D01*
X176465D01*
X176511Y235744D01*
X176842Y235523D01*
X177232Y235445D01*
X177679D01*
X177750Y235081D01*
X177171Y234841D01*
X176728Y234398D01*
X176573Y234025D01*
X145500Y234000D01*
X139047Y227547D01*
Y224765D01*
X134781Y220500D01*
X128466D01*
X127245Y219280D01*
X126920Y219313D01*
X126777Y219674D01*
X130301Y223199D01*
X132090Y224987D01*
X137676D01*
X137978Y225112D01*
X138102Y225413D01*
Y228824D01*
X138102Y228824D01*
X137978Y229125D01*
X137801Y229301D01*
X137500Y229426D01*
X131165D01*
Y229516D01*
X126835D01*
Y229426D01*
X124465D01*
Y229516D01*
X120135D01*
Y229237D01*
X114952Y224055D01*
X114571D01*
Y218937D01*
X121420D01*
X122234Y218123D01*
X121533Y217422D01*
X121335Y217126D01*
X121266Y216778D01*
Y214555D01*
X121335Y214206D01*
X121533Y213911D01*
X124041Y211403D01*
X124336Y211205D01*
X124685Y211136D01*
X125728D01*
Y207750D01*
X121043D01*
X119644Y209148D01*
X119349Y209346D01*
X119000Y209415D01*
X118651Y209346D01*
X118356Y209148D01*
X118158Y208853D01*
X118089Y208504D01*
X118158Y208155D01*
X118356Y207860D01*
X120021Y206194D01*
X120317Y205997D01*
X120665Y205927D01*
X125728D01*
Y203981D01*
X125658Y203911D01*
X123831D01*
Y205067D01*
X120091D01*
Y200933D01*
X123831D01*
Y202089D01*
X125728D01*
Y200593D01*
X125248Y200113D01*
X125073Y199851D01*
X125011Y199541D01*
X125011Y199541D01*
Y186758D01*
X125011Y186758D01*
X125073Y186449D01*
X125248Y186186D01*
X125728Y185706D01*
Y183037D01*
X123353D01*
Y184609D01*
X117447D01*
Y179885D01*
X123353D01*
Y181215D01*
X125728D01*
Y168303D01*
X135681Y158350D01*
X148991D01*
Y157897D01*
X149231Y157318D01*
X149674Y156875D01*
X150253Y156635D01*
X150879D01*
X151458Y156875D01*
X151901Y157318D01*
X152141Y157897D01*
Y158350D01*
X157259D01*
Y157897D01*
X157499Y157318D01*
X157942Y156875D01*
X158521Y156635D01*
X159147D01*
X159726Y156875D01*
X160169Y157318D01*
X160409Y157897D01*
Y158350D01*
X175437D01*
Y149571D01*
X180555D01*
Y153089D01*
X182150D01*
X182499Y153158D01*
X182795Y153356D01*
X184123Y154684D01*
X187165D01*
Y158350D01*
X204642D01*
X206081Y159789D01*
X236577D01*
X236599Y159756D01*
X236389Y159362D01*
X233854D01*
Y153496D01*
X238146D01*
Y158043D01*
X238509Y158193D01*
X239088Y157614D01*
Y155601D01*
X239138Y155350D01*
X239281Y155137D01*
X243108Y151310D01*
X243321Y151167D01*
X243572Y151117D01*
X280774D01*
X281025Y151167D01*
X281238Y151310D01*
X282845Y152917D01*
X283215D01*
X283613Y153082D01*
X283918Y153387D01*
X284083Y153785D01*
Y154215D01*
X283918Y154613D01*
X283613Y154918D01*
X283215Y155083D01*
X282785D01*
X282387Y154918D01*
X282082Y154613D01*
X281917Y154215D01*
Y153846D01*
X280502Y152430D01*
X278240D01*
X278033Y152824D01*
X278097Y152917D01*
X278215D01*
X278613Y153082D01*
X278918Y153387D01*
X279083Y153785D01*
Y154215D01*
X278918Y154613D01*
X278613Y154918D01*
X278215Y155083D01*
X277785D01*
X277387Y154918D01*
X277082Y154613D01*
X276917Y154215D01*
Y153846D01*
X276396Y153324D01*
X274318D01*
X274055Y153717D01*
X274083Y153785D01*
Y154215D01*
X273918Y154613D01*
X273613Y154918D01*
X273215Y155083D01*
X272785D01*
X272387Y154918D01*
X272082Y154613D01*
X271917Y154215D01*
Y153785D01*
X271945Y153717D01*
X271682Y153324D01*
X269318D01*
X269055Y153717D01*
X269083Y153785D01*
Y154215D01*
X268918Y154613D01*
X268613Y154918D01*
X268215Y155083D01*
X267785D01*
X267387Y154918D01*
X267082Y154613D01*
X266917Y154215D01*
Y153785D01*
X266945Y153717D01*
X266682Y153324D01*
X264318D01*
X264055Y153717D01*
X264083Y153785D01*
Y154215D01*
X263918Y154613D01*
X263613Y154918D01*
X263215Y155083D01*
X262785D01*
X262387Y154918D01*
X262082Y154613D01*
X261917Y154215D01*
Y153785D01*
X261945Y153717D01*
X261682Y153324D01*
X259318D01*
X259055Y153717D01*
X259083Y153785D01*
Y154215D01*
X258918Y154613D01*
X258613Y154918D01*
X258215Y155083D01*
X257785D01*
X257387Y154918D01*
X257082Y154613D01*
X256917Y154215D01*
Y153785D01*
X256945Y153717D01*
X256682Y153324D01*
X254318D01*
X254055Y153717D01*
X254083Y153785D01*
Y154215D01*
X253918Y154613D01*
X253613Y154918D01*
X253215Y155083D01*
X252785D01*
X252387Y154918D01*
X252082Y154613D01*
X251917Y154215D01*
Y153785D01*
X251945Y153717D01*
X251682Y153324D01*
X244214D01*
X241295Y156243D01*
Y158256D01*
X241245Y158507D01*
X241103Y158720D01*
X238019Y161803D01*
X237807Y161946D01*
X237555Y161996D01*
X208045D01*
Y164399D01*
X208439Y164477D01*
X208490Y164354D01*
X208850Y163994D01*
X209320Y163799D01*
X209829D01*
X210067Y163472D01*
Y163289D01*
X210232Y162891D01*
X210536Y162586D01*
X210934Y162421D01*
X211365D01*
X211763Y162586D01*
X212067Y162891D01*
X212232Y163289D01*
Y163471D01*
X212446Y163766D01*
X212596Y163799D01*
X212979D01*
X213201Y163465D01*
Y163289D01*
X213366Y162891D01*
X213670Y162586D01*
X214068Y162421D01*
X214499D01*
X214897Y162586D01*
X215201Y162891D01*
X215366Y163289D01*
Y163478D01*
X215596Y163770D01*
X215730Y163799D01*
X216128D01*
X216366Y163472D01*
Y163289D01*
X216531Y162891D01*
X216835Y162586D01*
X217233Y162421D01*
X217664D01*
X218062Y162586D01*
X218367Y162891D01*
X218531Y163289D01*
Y163471D01*
X218745Y163766D01*
X218895Y163799D01*
X219278D01*
X219516Y163472D01*
Y163289D01*
X219681Y162891D01*
X219985Y162586D01*
X220383Y162421D01*
X220814D01*
X221212Y162586D01*
X221516Y162891D01*
X221681Y163289D01*
Y163719D01*
X221677Y163730D01*
X222010Y163953D01*
X223104Y162860D01*
X223399Y162662D01*
X223748Y162593D01*
X224097Y162662D01*
X224392Y162860D01*
X224590Y163155D01*
X224659Y163504D01*
X224651Y163546D01*
X224996Y163829D01*
X225068Y163799D01*
X225577D01*
X225815Y163472D01*
Y163289D01*
X225980Y162891D01*
X226284Y162586D01*
X226682Y162421D01*
X227113D01*
X227511Y162586D01*
X227816Y162891D01*
X227980Y163289D01*
Y163471D01*
X228194Y163766D01*
X228344Y163799D01*
X228727D01*
X228949Y163465D01*
Y163304D01*
X229114Y162906D01*
X229418Y162602D01*
X229816Y162437D01*
X230247D01*
X230645Y162602D01*
X230949Y162906D01*
X231114Y163304D01*
Y163478D01*
X231350Y163777D01*
X231478Y163799D01*
X231876D01*
X232114Y163472D01*
Y163289D01*
X232279Y162891D01*
X232584Y162586D01*
X232981Y162421D01*
X233412D01*
X233810Y162586D01*
X234115Y162891D01*
X234279Y163289D01*
Y163471D01*
X234493Y163766D01*
X234643Y163799D01*
X235026D01*
X235264Y163472D01*
Y163289D01*
X235429Y162891D01*
X235733Y162586D01*
X236131Y162421D01*
X236562D01*
X236960Y162586D01*
X237264Y162891D01*
X237429Y163289D01*
Y163471D01*
X237572Y163669D01*
X238003Y163708D01*
X238413Y163298D01*
Y163289D01*
X238578Y162891D01*
X238883Y162586D01*
X239281Y162421D01*
X239711D01*
X240109Y162586D01*
X240116Y162593D01*
X242547D01*
Y160091D01*
X248453D01*
Y164815D01*
X246411D01*
Y165685D01*
X248453D01*
Y170409D01*
X242547D01*
Y165685D01*
X244589D01*
Y164815D01*
X242547D01*
Y164415D01*
X240116D01*
X240109Y164422D01*
X239711Y164587D01*
X239702D01*
X239292Y164997D01*
X239331Y165428D01*
X239528Y165571D01*
X239711D01*
X240109Y165736D01*
X240414Y166040D01*
X240579Y166438D01*
Y166869D01*
X240414Y167267D01*
X240109Y167571D01*
X239711Y167736D01*
X239528D01*
X239201Y167974D01*
Y168357D01*
X239234Y168507D01*
X239528Y168720D01*
X239711D01*
X240109Y168885D01*
X240414Y169190D01*
X240579Y169588D01*
Y170018D01*
X240414Y170416D01*
X240109Y170721D01*
X239711Y170886D01*
X239528D01*
X239201Y171124D01*
Y171506D01*
X239234Y171656D01*
X239528Y171870D01*
X239711D01*
X240109Y172035D01*
X240414Y172339D01*
X240579Y172737D01*
Y173168D01*
X240414Y173566D01*
X240109Y173871D01*
X239711Y174035D01*
X239528D01*
X239201Y174273D01*
Y174656D01*
X239234Y174806D01*
X239528Y175020D01*
X239711D01*
X240109Y175185D01*
X240414Y175489D01*
X240579Y175887D01*
Y176318D01*
X240414Y176716D01*
X240109Y177020D01*
X239711Y177185D01*
X239528D01*
X239201Y177423D01*
Y177932D01*
X239171Y178004D01*
X239454Y178349D01*
X239496Y178341D01*
X239845Y178410D01*
X240140Y178608D01*
X240338Y178903D01*
X240378Y179103D01*
X240769Y179258D01*
X240779Y179258D01*
X242804Y177233D01*
X243256Y177046D01*
X256685D01*
X257137Y177233D01*
X257821Y177917D01*
X258215D01*
X258613Y178082D01*
X258918Y178387D01*
X259083Y178785D01*
Y179215D01*
X258918Y179613D01*
X258613Y179918D01*
X258215Y180083D01*
X257785D01*
X257387Y179918D01*
X257082Y179613D01*
X256917Y179215D01*
Y178821D01*
X256420Y178324D01*
X254318D01*
X254055Y178718D01*
X254083Y178785D01*
Y179215D01*
X253918Y179613D01*
X253613Y179918D01*
X253215Y180083D01*
X252785D01*
X252387Y179918D01*
X252082Y179613D01*
X251917Y179215D01*
Y179112D01*
X243847D01*
X242147Y180812D01*
Y183539D01*
X241960Y183991D01*
X239165Y186786D01*
X239201Y186872D01*
Y187381D01*
X239041Y187766D01*
X239211Y188160D01*
X245990D01*
X246442Y188347D01*
X251605Y193510D01*
X252069Y193418D01*
X252082Y193387D01*
X252387Y193082D01*
X252785Y192917D01*
X253215D01*
X253613Y193082D01*
X253918Y193387D01*
X254083Y193785D01*
Y194215D01*
X254070Y194247D01*
X254333Y194640D01*
X256667D01*
X256930Y194247D01*
X256917Y194215D01*
Y193785D01*
X257082Y193387D01*
X257387Y193082D01*
X257785Y192917D01*
X258215D01*
X258613Y193082D01*
X258918Y193387D01*
X259083Y193785D01*
Y194215D01*
X259070Y194247D01*
X259333Y194640D01*
X261667D01*
X261930Y194247D01*
X261917Y194215D01*
Y193785D01*
X262082Y193387D01*
X262387Y193082D01*
X262785Y192917D01*
X263215D01*
X263613Y193082D01*
X263918Y193387D01*
X264083Y193785D01*
Y194215D01*
X264070Y194247D01*
X264333Y194640D01*
X266667D01*
X266930Y194247D01*
X266917Y194215D01*
Y193785D01*
X267082Y193387D01*
X267387Y193082D01*
X267785Y192917D01*
X268215D01*
X268613Y193082D01*
X268918Y193387D01*
X269083Y193785D01*
Y194215D01*
X269070Y194247D01*
X269333Y194640D01*
X271667D01*
X271930Y194247D01*
X271917Y194215D01*
Y193785D01*
X272082Y193387D01*
X272387Y193082D01*
X272785Y192917D01*
X273215D01*
X273613Y193082D01*
X273918Y193387D01*
X274083Y193785D01*
Y194215D01*
X274070Y194247D01*
X274333Y194640D01*
X276667D01*
X276930Y194247D01*
X276917Y194215D01*
Y193785D01*
X277082Y193387D01*
X277387Y193082D01*
X277785Y192917D01*
X278215D01*
X278613Y193082D01*
X278918Y193387D01*
X279083Y193785D01*
Y194215D01*
X279070Y194247D01*
X279333Y194640D01*
X281456D01*
X281917Y194179D01*
Y193785D01*
X282082Y193387D01*
X282387Y193082D01*
X282785Y192917D01*
X283215D01*
X283613Y193082D01*
X283918Y193387D01*
X284083Y193785D01*
Y194215D01*
X283918Y194613D01*
X283613Y194918D01*
X283333Y195034D01*
X283411Y195428D01*
X285668D01*
X286917Y194179D01*
Y193785D01*
X287082Y193387D01*
X287387Y193082D01*
X287785Y192917D01*
X288215D01*
X288613Y193082D01*
X288918Y193387D01*
X289083Y193785D01*
Y194215D01*
X288918Y194613D01*
X288613Y194918D01*
X288215Y195083D01*
X287821D01*
X286385Y196519D01*
X285933Y196706D01*
X252144D01*
X251692Y196519D01*
X246088Y190915D01*
X239041D01*
X239006Y191000D01*
X238646Y191360D01*
X238176Y191555D01*
X237667D01*
X237196Y191360D01*
X236837Y191000D01*
X236642Y190530D01*
Y190021D01*
X236350Y189697D01*
X236276Y189675D01*
X236016Y189936D01*
X236051Y190021D01*
Y190530D01*
X235856Y191000D01*
X235496Y191360D01*
X235026Y191555D01*
X234517D01*
X234390Y191845D01*
X234736Y192146D01*
X235026D01*
X235496Y192341D01*
X235856Y192700D01*
X236051Y193171D01*
Y193680D01*
X235856Y194150D01*
X235496Y194510D01*
X235026Y194705D01*
X234517D01*
X234047Y194510D01*
X233687Y194150D01*
X233492Y193680D01*
Y193401D01*
X233098Y193237D01*
X232266Y194070D01*
X231971Y194267D01*
X231622Y194336D01*
X231273Y194267D01*
X230978Y194070D01*
X230780Y193774D01*
X230711Y193425D01*
X230765Y193151D01*
X230608Y192958D01*
X230456Y192853D01*
X230263Y192933D01*
X230079D01*
X229752Y193171D01*
Y193680D01*
X229557Y194150D01*
X229197Y194510D01*
X228727Y194705D01*
X228218D01*
X227748Y194510D01*
X227388Y194150D01*
X227193Y193680D01*
Y193297D01*
X227172Y193203D01*
X226965Y193096D01*
X226602Y193323D01*
Y193680D01*
X226408Y194150D01*
X226048Y194510D01*
X225577Y194705D01*
X225068D01*
X224598Y194510D01*
X224238Y194150D01*
X224043Y193680D01*
Y193297D01*
X224023Y193203D01*
X223815Y193096D01*
X223453Y193323D01*
Y193680D01*
X223258Y194150D01*
X222898Y194510D01*
X222428Y194705D01*
X221919D01*
X221448Y194510D01*
X221089Y194150D01*
X220894Y193680D01*
Y193297D01*
X220873Y193203D01*
X220666Y193096D01*
X220303Y193323D01*
Y193680D01*
X220108Y194150D01*
X219748Y194510D01*
X219278Y194705D01*
X218769D01*
X218299Y194510D01*
X217939Y194150D01*
X217744Y193680D01*
Y193171D01*
X217939Y192700D01*
X218299Y192341D01*
X218769Y192146D01*
X219126D01*
X219353Y191783D01*
X219245Y191576D01*
X219152Y191555D01*
X218769D01*
X218299Y191360D01*
X217939Y191000D01*
X217744Y190530D01*
Y190251D01*
X217350Y190088D01*
X215686Y191752D01*
X215849Y192146D01*
X216128D01*
X216599Y192341D01*
X216959Y192700D01*
X217154Y193171D01*
Y193680D01*
X216959Y194150D01*
X216599Y194510D01*
X216128Y194705D01*
X215883D01*
X214013Y196575D01*
X214480Y197042D01*
X214700Y197029D01*
X214982Y196669D01*
X214963Y196575D01*
X215032Y196226D01*
X215230Y195931D01*
X215525Y195733D01*
X215874Y195664D01*
X216223Y195733D01*
X216518Y195931D01*
X217350Y196763D01*
X217744Y196599D01*
Y196320D01*
X217939Y195850D01*
X218299Y195490D01*
X218769Y195295D01*
X219278D01*
X219748Y195490D01*
X220108Y195850D01*
X220303Y196320D01*
Y196829D01*
X220630Y197067D01*
X220814D01*
X221007Y197147D01*
X221159Y197042D01*
X221317Y196849D01*
X221262Y196575D01*
X221331Y196226D01*
X221529Y195931D01*
X221825Y195733D01*
X222173Y195664D01*
X222522Y195733D01*
X222817Y195931D01*
X223650Y196763D01*
X224043Y196599D01*
Y196320D01*
X224238Y195850D01*
X224598Y195490D01*
X225068Y195295D01*
X225577D01*
X226048Y195490D01*
X226408Y195850D01*
X226602Y196320D01*
Y196677D01*
X226965Y196904D01*
X227172Y196797D01*
X227193Y196703D01*
Y196320D01*
X227388Y195850D01*
X227748Y195490D01*
X228218Y195295D01*
X228727D01*
X229197Y195490D01*
X229557Y195850D01*
X229752Y196320D01*
Y196677D01*
X230114Y196904D01*
X230322Y196797D01*
X230343Y196703D01*
Y196320D01*
X230537Y195850D01*
X230897Y195490D01*
X231367Y195295D01*
X231877D01*
X232347Y195490D01*
X232707Y195850D01*
X232902Y196320D01*
Y196677D01*
X233264Y196904D01*
X233472Y196797D01*
X233492Y196703D01*
Y196320D01*
X233687Y195850D01*
X234047Y195490D01*
X234517Y195295D01*
X235026D01*
X235496Y195490D01*
X235856Y195850D01*
X236051Y196320D01*
Y196677D01*
X236414Y196904D01*
X236621Y196797D01*
X236642Y196703D01*
Y196320D01*
X236837Y195850D01*
X237196Y195490D01*
X237667Y195295D01*
X238176D01*
X238646Y195490D01*
X239006Y195850D01*
X239067Y195998D01*
X239942Y196873D01*
X242933D01*
Y196169D01*
X247067D01*
Y198260D01*
X248641Y199835D01*
X248894Y200213D01*
X248983Y200659D01*
Y209840D01*
X248894Y210287D01*
X248654Y210646D01*
X248690Y210820D01*
X248781Y211040D01*
X251005D01*
X251132Y210912D01*
X251593Y210605D01*
X252137Y210496D01*
X278863D01*
X279406Y210605D01*
X279868Y210912D01*
X281087Y212133D01*
X281396Y212594D01*
X281504Y213137D01*
Y234863D01*
X281396Y235406D01*
X281087Y235868D01*
X279450Y237505D01*
X278989Y237813D01*
X278915Y237827D01*
X278786Y238255D01*
X278918Y238387D01*
X279083Y238785D01*
Y239215D01*
X278918Y239613D01*
X278613Y239918D01*
X278215Y240083D01*
X277785D01*
X277387Y239918D01*
X277375Y239906D01*
X277361Y239901D01*
X276890Y239978D01*
X276713Y240242D01*
X266650Y250305D01*
X266189Y250613D01*
X265645Y250721D01*
X239685D01*
X239313Y250875D01*
X238687D01*
X238108Y250635D01*
X237665Y250192D01*
X237425Y249613D01*
Y248987D01*
X237665Y248408D01*
X238108Y247965D01*
X238687Y247725D01*
X239313D01*
X239685Y247879D01*
X265057D01*
X272532Y240404D01*
X272439Y239940D01*
X272387Y239918D01*
X272082Y239613D01*
X271917Y239215D01*
Y238785D01*
X272082Y238387D01*
X272387Y238082D01*
X272785Y237917D01*
X273215D01*
X273613Y238082D01*
X273894Y238363D01*
X274108Y238354D01*
X274301Y238282D01*
X274396Y237802D01*
X274704Y237341D01*
X276550Y235495D01*
X277011Y235187D01*
X277085Y235173D01*
X277214Y234745D01*
X277082Y234613D01*
X276917Y234215D01*
Y233785D01*
X277082Y233387D01*
X277387Y233082D01*
X277785Y232917D01*
X278215D01*
X278268Y232939D01*
X278662Y232676D01*
Y225324D01*
X278268Y225061D01*
X278215Y225083D01*
X277785D01*
X277387Y224918D01*
X277082Y224613D01*
X276917Y224215D01*
Y223785D01*
X277082Y223387D01*
X277387Y223082D01*
X277785Y222917D01*
X278215D01*
X278268Y222939D01*
X278662Y222676D01*
Y220324D01*
X278268Y220061D01*
X278215Y220083D01*
X277821D01*
X276310Y221594D01*
Y223139D01*
X276123Y223591D01*
X271541Y228172D01*
X271089Y228360D01*
X264333D01*
X264070Y228753D01*
X264083Y228785D01*
Y229215D01*
X263918Y229613D01*
X263613Y229918D01*
X263215Y230083D01*
X262785D01*
X262387Y229918D01*
X262082Y229613D01*
X261917Y229215D01*
Y228785D01*
X261930Y228753D01*
X261667Y228360D01*
X259333D01*
X259070Y228753D01*
X259083Y228785D01*
Y229215D01*
X258918Y229613D01*
X258613Y229918D01*
X258215Y230083D01*
X257785D01*
X257387Y229918D01*
X257082Y229613D01*
X256917Y229215D01*
Y228785D01*
X256930Y228753D01*
X256667Y228360D01*
X254333D01*
X254070Y228753D01*
X254083Y228785D01*
Y229215D01*
X253918Y229613D01*
X253613Y229918D01*
X253215Y230083D01*
X252785D01*
X252387Y229918D01*
X252082Y229613D01*
X251917Y229215D01*
Y228785D01*
X251935Y228742D01*
X251716Y228415D01*
X247844D01*
X247835Y228436D01*
X247772Y228753D01*
X247522Y229126D01*
X247149Y229375D01*
X246833Y229438D01*
X246709Y229489D01*
X246590D01*
X246467Y229438D01*
X246150Y229375D01*
X245892Y229203D01*
X245526Y229352D01*
X245498Y229377D01*
Y230346D01*
X245447Y230469D01*
X245384Y230786D01*
X245135Y231159D01*
X244762Y231408D01*
X244445Y231471D01*
X244322Y231522D01*
X244203D01*
X244079Y231471D01*
X243763Y231408D01*
X243390Y231159D01*
X243305Y231033D01*
X242832D01*
X242748Y231159D01*
X242375Y231408D01*
X242235Y231436D01*
X241957Y231793D01*
Y231882D01*
X241959Y231906D01*
X242044Y231992D01*
X242242Y232287D01*
X242311Y232636D01*
Y233845D01*
X243392D01*
Y237226D01*
X239408D01*
Y233845D01*
X240489D01*
Y233020D01*
X240261Y232926D01*
X239957Y232621D01*
X239792Y232224D01*
Y231793D01*
X239957Y231395D01*
X240261Y231090D01*
X240435Y231018D01*
X240668Y230848D01*
X240703Y230532D01*
X240690Y230469D01*
X240639Y230346D01*
Y228415D01*
X237626D01*
X237174Y228228D01*
X235112Y226165D01*
X235026Y226201D01*
X234645D01*
X234456Y226569D01*
X235097Y227210D01*
X235295Y227505D01*
X235364Y227854D01*
Y233900D01*
X235295Y234249D01*
X235097Y234544D01*
X234802Y234742D01*
X234453Y234811D01*
X234104Y234742D01*
X233808Y234544D01*
X233611Y234249D01*
X233542Y233900D01*
Y228232D01*
X232553Y227243D01*
X232355Y226947D01*
X232354Y226942D01*
X231459Y226047D01*
X231126Y226270D01*
X231130Y226281D01*
Y226711D01*
X230965Y227109D01*
X230661Y227414D01*
X230263Y227579D01*
X229832D01*
X229434Y227414D01*
X229129Y227109D01*
X228965Y226711D01*
Y226528D01*
X228727Y226201D01*
X228344D01*
X228194Y226234D01*
X227980Y226529D01*
Y226711D01*
X227816Y227109D01*
X227511Y227414D01*
X227113Y227579D01*
X226682D01*
X226284Y227414D01*
X225980Y227109D01*
X225815Y226711D01*
Y226528D01*
X225577Y226201D01*
X225210D01*
X225044Y226237D01*
X224847Y226535D01*
Y226711D01*
X224682Y227109D01*
X224377Y227414D01*
X223979Y227579D01*
X223548D01*
X223150Y227414D01*
X222846Y227109D01*
X222681Y226711D01*
Y226515D01*
X222428Y226201D01*
X222045D01*
X221895Y226234D01*
X221681Y226529D01*
Y226711D01*
X221516Y227109D01*
X221212Y227414D01*
X220814Y227579D01*
X220383D01*
X219985Y227414D01*
X219681Y227109D01*
X219516Y226711D01*
Y226528D01*
X219278Y226201D01*
X218895D01*
X218745Y226234D01*
X218531Y226529D01*
Y226711D01*
X218367Y227109D01*
X218360Y227116D01*
Y231192D01*
X218484Y231535D01*
X222028D01*
Y235865D01*
X221167D01*
Y237693D01*
X223319D01*
Y242811D01*
X217825D01*
Y248906D01*
X219050Y250131D01*
X220509D01*
X220857Y250201D01*
X221153Y250398D01*
X222662Y251908D01*
X224755D01*
Y255892D01*
X221374D01*
Y253196D01*
X220131Y251954D01*
X219426D01*
Y255892D01*
X216045D01*
Y252836D01*
X215662Y252452D01*
X215298Y252603D01*
Y258832D01*
X216234D01*
Y261398D01*
X216628Y261537D01*
X217048Y261363D01*
X217345D01*
Y258608D01*
X220726D01*
Y262592D01*
X218054D01*
X217936Y262641D01*
X217541D01*
X217462Y262751D01*
X217664Y263145D01*
X267567D01*
X291917Y238794D01*
Y238785D01*
X292082Y238387D01*
X292387Y238082D01*
X292785Y237917D01*
X293215D01*
X293613Y238082D01*
X293918Y238387D01*
X294083Y238785D01*
Y239215D01*
X293918Y239613D01*
X293613Y239918D01*
X293215Y240083D01*
X293206D01*
X268588Y264700D01*
X268293Y264898D01*
X268345Y265289D01*
X270423D01*
X296917Y238794D01*
Y238785D01*
X297082Y238387D01*
X297387Y238082D01*
X297785Y237917D01*
X298215D01*
X298613Y238082D01*
X298918Y238387D01*
X299083Y238785D01*
Y239215D01*
X298918Y239613D01*
X298613Y239918D01*
X298215Y240083D01*
X298206D01*
X271444Y266844D01*
X271149Y267042D01*
X270800Y267111D01*
D02*
G37*
G36*
X288215Y240083D02*
X287785D01*
X287387Y239918D01*
X287082Y239613D01*
X286917Y239215D01*
Y238785D01*
X287082Y238387D01*
X287387Y238082D01*
X287785Y237917D01*
X288215D01*
X288613Y238082D01*
X288918Y238387D01*
X289083Y238785D01*
Y239215D01*
X288918Y239613D01*
X288613Y239918D01*
X288215Y240083D01*
D02*
G37*
G36*
X283215D02*
X282785D01*
X282387Y239918D01*
X282082Y239613D01*
X281917Y239215D01*
Y238785D01*
X282082Y238387D01*
X282387Y238082D01*
X282785Y237917D01*
X283215D01*
X283613Y238082D01*
X283918Y238387D01*
X284083Y238785D01*
Y239215D01*
X283918Y239613D01*
X283613Y239918D01*
X283215Y240083D01*
D02*
G37*
G36*
X268215D02*
X267785D01*
X267387Y239918D01*
X267082Y239613D01*
X266917Y239215D01*
Y238785D01*
X267082Y238387D01*
X267387Y238082D01*
X267785Y237917D01*
X268215D01*
X268613Y238082D01*
X268918Y238387D01*
X269083Y238785D01*
Y239215D01*
X268918Y239613D01*
X268613Y239918D01*
X268215Y240083D01*
D02*
G37*
G36*
X263215D02*
X262785D01*
X262387Y239918D01*
X262082Y239613D01*
X261917Y239215D01*
Y238785D01*
X262082Y238387D01*
X262387Y238082D01*
X262785Y237917D01*
X263215D01*
X263613Y238082D01*
X263918Y238387D01*
X264083Y238785D01*
Y239215D01*
X263918Y239613D01*
X263613Y239918D01*
X263215Y240083D01*
D02*
G37*
G36*
X258215D02*
X257785D01*
X257387Y239918D01*
X257082Y239613D01*
X256917Y239215D01*
Y238785D01*
X257082Y238387D01*
X257387Y238082D01*
X257785Y237917D01*
X258215D01*
X258613Y238082D01*
X258918Y238387D01*
X259083Y238785D01*
Y239215D01*
X258918Y239613D01*
X258613Y239918D01*
X258215Y240083D01*
D02*
G37*
G36*
X253215D02*
X252785D01*
X252387Y239918D01*
X252082Y239613D01*
X251917Y239215D01*
Y238785D01*
X252082Y238387D01*
X252387Y238082D01*
X252785Y237917D01*
X253215D01*
X253613Y238082D01*
X253918Y238387D01*
X254083Y238785D01*
Y239215D01*
X253918Y239613D01*
X253613Y239918D01*
X253215Y240083D01*
D02*
G37*
G36*
X293215Y235083D02*
X292785D01*
X292387Y234918D01*
X292082Y234613D01*
X291917Y234215D01*
Y233785D01*
X292082Y233387D01*
X292387Y233082D01*
X292785Y232917D01*
X293215D01*
X293613Y233082D01*
X293918Y233387D01*
X294083Y233785D01*
Y234215D01*
X293918Y234613D01*
X293613Y234918D01*
X293215Y235083D01*
D02*
G37*
G36*
X288215D02*
X287785D01*
X287387Y234918D01*
X287082Y234613D01*
X286917Y234215D01*
Y233785D01*
X287082Y233387D01*
X287387Y233082D01*
X287785Y232917D01*
X288215D01*
X288613Y233082D01*
X288918Y233387D01*
X289083Y233785D01*
Y234215D01*
X288918Y234613D01*
X288613Y234918D01*
X288215Y235083D01*
D02*
G37*
G36*
X283215D02*
X282785D01*
X282387Y234918D01*
X282082Y234613D01*
X281917Y234215D01*
Y233785D01*
X282082Y233387D01*
X282387Y233082D01*
X282785Y232917D01*
X283215D01*
X283613Y233082D01*
X283918Y233387D01*
X284083Y233785D01*
Y234215D01*
X283918Y234613D01*
X283613Y234918D01*
X283215Y235083D01*
D02*
G37*
G36*
X273215D02*
X272785D01*
X272387Y234918D01*
X272082Y234613D01*
X271917Y234215D01*
Y233785D01*
X272082Y233387D01*
X272387Y233082D01*
X272785Y232917D01*
X273215D01*
X273613Y233082D01*
X273918Y233387D01*
X274083Y233785D01*
Y234215D01*
X273918Y234613D01*
X273613Y234918D01*
X273215Y235083D01*
D02*
G37*
G36*
X268215D02*
X267785D01*
X267387Y234918D01*
X267082Y234613D01*
X266917Y234215D01*
Y233785D01*
X267082Y233387D01*
X267387Y233082D01*
X267785Y232917D01*
X268215D01*
X268613Y233082D01*
X268918Y233387D01*
X269083Y233785D01*
Y234215D01*
X268918Y234613D01*
X268613Y234918D01*
X268215Y235083D01*
D02*
G37*
G36*
X263215D02*
X262785D01*
X262387Y234918D01*
X262082Y234613D01*
X261917Y234215D01*
Y233785D01*
X262082Y233387D01*
X262387Y233082D01*
X262785Y232917D01*
X263215D01*
X263613Y233082D01*
X263918Y233387D01*
X264083Y233785D01*
Y234215D01*
X263918Y234613D01*
X263613Y234918D01*
X263215Y235083D01*
D02*
G37*
G36*
X258215D02*
X257785D01*
X257387Y234918D01*
X257082Y234613D01*
X256917Y234215D01*
Y233785D01*
X257082Y233387D01*
X257387Y233082D01*
X257785Y232917D01*
X258215D01*
X258613Y233082D01*
X258918Y233387D01*
X259083Y233785D01*
Y234215D01*
X258918Y234613D01*
X258613Y234918D01*
X258215Y235083D01*
D02*
G37*
G36*
X253215D02*
X252785D01*
X252387Y234918D01*
X252082Y234613D01*
X251917Y234215D01*
Y233785D01*
X252082Y233387D01*
X252387Y233082D01*
X252785Y232917D01*
X253215D01*
X253613Y233082D01*
X253918Y233387D01*
X254083Y233785D01*
Y234215D01*
X253918Y234613D01*
X253613Y234918D01*
X253215Y235083D01*
D02*
G37*
G36*
X142000Y239926D02*
X120500D01*
X120199Y239801D01*
X120163Y239716D01*
X120135D01*
Y239647D01*
X120074Y239500D01*
Y232000D01*
X120135Y231853D01*
Y231484D01*
X124465D01*
Y231574D01*
X126835D01*
Y231484D01*
X131165D01*
Y231574D01*
X133708D01*
Y231174D01*
X137692D01*
Y231574D01*
X142000D01*
X142000Y231574D01*
X142301Y231699D01*
X142301Y231699D01*
X142801Y232199D01*
X142926Y232500D01*
Y239000D01*
X142926Y239000D01*
X142801Y239301D01*
X142801Y239301D01*
X142301Y239801D01*
X142000Y239926D01*
D02*
G37*
G36*
X298215Y230083D02*
X297785D01*
X297387Y229918D01*
X297082Y229613D01*
X296917Y229215D01*
Y228785D01*
X297082Y228387D01*
X297387Y228082D01*
X297785Y227917D01*
X298215D01*
X298613Y228082D01*
X298918Y228387D01*
X299083Y228785D01*
Y229215D01*
X298918Y229613D01*
X298613Y229918D01*
X298215Y230083D01*
D02*
G37*
G36*
X293215D02*
X292785D01*
X292387Y229918D01*
X292082Y229613D01*
X291917Y229215D01*
Y228785D01*
X292082Y228387D01*
X292387Y228082D01*
X292785Y227917D01*
X293215D01*
X293613Y228082D01*
X293918Y228387D01*
X294083Y228785D01*
Y229215D01*
X293918Y229613D01*
X293613Y229918D01*
X293215Y230083D01*
D02*
G37*
G36*
X288215D02*
X287785D01*
X287387Y229918D01*
X287082Y229613D01*
X286917Y229215D01*
Y228785D01*
X287082Y228387D01*
X287387Y228082D01*
X287785Y227917D01*
X288215D01*
X288613Y228082D01*
X288918Y228387D01*
X289083Y228785D01*
Y229215D01*
X288918Y229613D01*
X288613Y229918D01*
X288215Y230083D01*
D02*
G37*
G36*
X283215D02*
X282785D01*
X282387Y229918D01*
X282082Y229613D01*
X281917Y229215D01*
Y228785D01*
X282082Y228387D01*
X282387Y228082D01*
X282785Y227917D01*
X283215D01*
X283613Y228082D01*
X283918Y228387D01*
X284083Y228785D01*
Y229215D01*
X283918Y229613D01*
X283613Y229918D01*
X283215Y230083D01*
D02*
G37*
G36*
X298215Y225083D02*
X297785D01*
X297387Y224918D01*
X297082Y224613D01*
X296917Y224215D01*
Y223785D01*
X297082Y223387D01*
X297387Y223082D01*
X297785Y222917D01*
X298215D01*
X298613Y223082D01*
X298918Y223387D01*
X299083Y223785D01*
Y224215D01*
X298918Y224613D01*
X298613Y224918D01*
X298215Y225083D01*
D02*
G37*
G36*
X293215D02*
X292785D01*
X292387Y224918D01*
X292082Y224613D01*
X291917Y224215D01*
Y223785D01*
X292082Y223387D01*
X292387Y223082D01*
X292785Y222917D01*
X293215D01*
X293613Y223082D01*
X293918Y223387D01*
X294083Y223785D01*
Y224215D01*
X293918Y224613D01*
X293613Y224918D01*
X293215Y225083D01*
D02*
G37*
G36*
X288215D02*
X287785D01*
X287387Y224918D01*
X287082Y224613D01*
X286917Y224215D01*
Y223785D01*
X287082Y223387D01*
X287387Y223082D01*
X287785Y222917D01*
X288215D01*
X288613Y223082D01*
X288918Y223387D01*
X289083Y223785D01*
Y224215D01*
X288918Y224613D01*
X288613Y224918D01*
X288215Y225083D01*
D02*
G37*
G36*
X298215Y220083D02*
X297785D01*
X297387Y219918D01*
X297082Y219613D01*
X296917Y219215D01*
Y218785D01*
X297082Y218387D01*
X297387Y218082D01*
X297785Y217917D01*
X298215D01*
X298613Y218082D01*
X298918Y218387D01*
X299083Y218785D01*
Y219215D01*
X298918Y219613D01*
X298613Y219918D01*
X298215Y220083D01*
D02*
G37*
G36*
X293215D02*
X292785D01*
X292387Y219918D01*
X292082Y219613D01*
X291917Y219215D01*
Y218785D01*
X292082Y218387D01*
X292387Y218082D01*
X292785Y217917D01*
X293215D01*
X293613Y218082D01*
X293918Y218387D01*
X294083Y218785D01*
Y219215D01*
X293918Y219613D01*
X293613Y219918D01*
X293215Y220083D01*
D02*
G37*
G36*
X288215D02*
X287785D01*
X287387Y219918D01*
X287082Y219613D01*
X286917Y219215D01*
Y218785D01*
X287082Y218387D01*
X287387Y218082D01*
X287785Y217917D01*
X288215D01*
X288613Y218082D01*
X288918Y218387D01*
X289083Y218785D01*
Y219215D01*
X288918Y219613D01*
X288613Y219918D01*
X288215Y220083D01*
D02*
G37*
G36*
X298215Y215083D02*
X297785D01*
X297387Y214918D01*
X297082Y214613D01*
X296917Y214215D01*
Y213785D01*
X297082Y213387D01*
X297387Y213082D01*
X297785Y212917D01*
X298215D01*
X298613Y213082D01*
X298918Y213387D01*
X299083Y213785D01*
Y214215D01*
X298918Y214613D01*
X298613Y214918D01*
X298215Y215083D01*
D02*
G37*
G36*
X293215D02*
X292785D01*
X292387Y214918D01*
X292082Y214613D01*
X291917Y214215D01*
Y213785D01*
X292082Y213387D01*
X292387Y213082D01*
X292785Y212917D01*
X293215D01*
X293613Y213082D01*
X293918Y213387D01*
X294083Y213785D01*
Y214215D01*
X293918Y214613D01*
X293613Y214918D01*
X293215Y215083D01*
D02*
G37*
G36*
X288215D02*
X287785D01*
X287387Y214918D01*
X287082Y214613D01*
X286917Y214215D01*
Y213785D01*
X287082Y213387D01*
X287387Y213082D01*
X287785Y212917D01*
X288215D01*
X288613Y213082D01*
X288918Y213387D01*
X289083Y213785D01*
Y214215D01*
X288918Y214613D01*
X288613Y214918D01*
X288215Y215083D01*
D02*
G37*
G36*
X283215D02*
X282785D01*
X282387Y214918D01*
X282082Y214613D01*
X281917Y214215D01*
Y213785D01*
X282082Y213387D01*
X282387Y213082D01*
X282785Y212917D01*
X283215D01*
X283613Y213082D01*
X283918Y213387D01*
X284083Y213785D01*
Y214215D01*
X283918Y214613D01*
X283613Y214918D01*
X283215Y215083D01*
D02*
G37*
G36*
X288215Y210083D02*
X287785D01*
X287387Y209918D01*
X287082Y209613D01*
X286917Y209215D01*
Y208785D01*
X287082Y208387D01*
X287387Y208082D01*
X287785Y207917D01*
X288215D01*
X288613Y208082D01*
X288918Y208387D01*
X289083Y208785D01*
Y209215D01*
X288918Y209613D01*
X288613Y209918D01*
X288215Y210083D01*
D02*
G37*
G36*
X283215D02*
X282785D01*
X282387Y209918D01*
X282082Y209613D01*
X281917Y209215D01*
Y208785D01*
X282082Y208387D01*
X282387Y208082D01*
X282785Y207917D01*
X283215D01*
X283613Y208082D01*
X283918Y208387D01*
X284083Y208785D01*
Y209215D01*
X283918Y209613D01*
X283613Y209918D01*
X283215Y210083D01*
D02*
G37*
G36*
X278215D02*
X277785D01*
X277387Y209918D01*
X277082Y209613D01*
X276917Y209215D01*
Y208785D01*
X277082Y208387D01*
X277387Y208082D01*
X277785Y207917D01*
X278215D01*
X278613Y208082D01*
X278918Y208387D01*
X279083Y208785D01*
Y209215D01*
X278918Y209613D01*
X278613Y209918D01*
X278215Y210083D01*
D02*
G37*
G36*
X273215D02*
X272785D01*
X272387Y209918D01*
X272082Y209613D01*
X271917Y209215D01*
Y208785D01*
X272082Y208387D01*
X272387Y208082D01*
X272785Y207917D01*
X273215D01*
X273613Y208082D01*
X273918Y208387D01*
X274083Y208785D01*
Y209215D01*
X273918Y209613D01*
X273613Y209918D01*
X273215Y210083D01*
D02*
G37*
G36*
X268215D02*
X267785D01*
X267387Y209918D01*
X267082Y209613D01*
X266917Y209215D01*
Y208785D01*
X267082Y208387D01*
X267387Y208082D01*
X267785Y207917D01*
X268215D01*
X268613Y208082D01*
X268918Y208387D01*
X269083Y208785D01*
Y209215D01*
X268918Y209613D01*
X268613Y209918D01*
X268215Y210083D01*
D02*
G37*
G36*
X263215D02*
X262785D01*
X262387Y209918D01*
X262082Y209613D01*
X261917Y209215D01*
Y208785D01*
X262082Y208387D01*
X262387Y208082D01*
X262785Y207917D01*
X263215D01*
X263613Y208082D01*
X263918Y208387D01*
X264083Y208785D01*
Y209215D01*
X263918Y209613D01*
X263613Y209918D01*
X263215Y210083D01*
D02*
G37*
G36*
X258215D02*
X257785D01*
X257387Y209918D01*
X257082Y209613D01*
X256917Y209215D01*
Y208785D01*
X257082Y208387D01*
X257387Y208082D01*
X257785Y207917D01*
X258215D01*
X258613Y208082D01*
X258918Y208387D01*
X259083Y208785D01*
Y209215D01*
X258918Y209613D01*
X258613Y209918D01*
X258215Y210083D01*
D02*
G37*
G36*
X253215D02*
X252785D01*
X252387Y209918D01*
X252082Y209613D01*
X251917Y209215D01*
Y208785D01*
X252082Y208387D01*
X252387Y208082D01*
X252785Y207917D01*
X253215D01*
X253613Y208082D01*
X253918Y208387D01*
X254083Y208785D01*
Y209215D01*
X253918Y209613D01*
X253613Y209918D01*
X253215Y210083D01*
D02*
G37*
G36*
X278215Y205083D02*
X277785D01*
X277387Y204918D01*
X277082Y204613D01*
X276917Y204215D01*
Y203785D01*
X277082Y203387D01*
X277387Y203082D01*
X277785Y202917D01*
X278215D01*
X278613Y203082D01*
X278918Y203387D01*
X279083Y203785D01*
Y204215D01*
X278918Y204613D01*
X278613Y204918D01*
X278215Y205083D01*
D02*
G37*
G36*
X273215D02*
X272785D01*
X272387Y204918D01*
X272082Y204613D01*
X271917Y204215D01*
Y203785D01*
X272082Y203387D01*
X272387Y203082D01*
X272785Y202917D01*
X273215D01*
X273613Y203082D01*
X273918Y203387D01*
X274083Y203785D01*
Y204215D01*
X273918Y204613D01*
X273613Y204918D01*
X273215Y205083D01*
D02*
G37*
G36*
X268215D02*
X267785D01*
X267387Y204918D01*
X267082Y204613D01*
X266917Y204215D01*
Y203785D01*
X267082Y203387D01*
X267387Y203082D01*
X267785Y202917D01*
X268215D01*
X268613Y203082D01*
X268918Y203387D01*
X269083Y203785D01*
Y204215D01*
X268918Y204613D01*
X268613Y204918D01*
X268215Y205083D01*
D02*
G37*
G36*
X263215D02*
X262785D01*
X262387Y204918D01*
X262082Y204613D01*
X261917Y204215D01*
Y203785D01*
X262082Y203387D01*
X262387Y203082D01*
X262785Y202917D01*
X263215D01*
X263613Y203082D01*
X263918Y203387D01*
X264083Y203785D01*
Y204215D01*
X263918Y204613D01*
X263613Y204918D01*
X263215Y205083D01*
D02*
G37*
G36*
X258215D02*
X257785D01*
X257387Y204918D01*
X257082Y204613D01*
X256917Y204215D01*
Y203785D01*
X257082Y203387D01*
X257387Y203082D01*
X257785Y202917D01*
X258215D01*
X258613Y203082D01*
X258918Y203387D01*
X259083Y203785D01*
Y204215D01*
X258918Y204613D01*
X258613Y204918D01*
X258215Y205083D01*
D02*
G37*
G36*
X253215D02*
X252785D01*
X252387Y204918D01*
X252082Y204613D01*
X251917Y204215D01*
Y203785D01*
X252082Y203387D01*
X252387Y203082D01*
X252785Y202917D01*
X253215D01*
X253613Y203082D01*
X253918Y203387D01*
X254083Y203785D01*
Y204215D01*
X253918Y204613D01*
X253613Y204918D01*
X253215Y205083D01*
D02*
G37*
G36*
X298215Y200083D02*
X297785D01*
X297387Y199918D01*
X297082Y199613D01*
X296917Y199215D01*
Y198785D01*
X297082Y198387D01*
X297387Y198082D01*
X297785Y197917D01*
X298215D01*
X298613Y198082D01*
X298918Y198387D01*
X299083Y198785D01*
Y199215D01*
X298918Y199613D01*
X298613Y199918D01*
X298215Y200083D01*
D02*
G37*
G36*
X293215D02*
X292785D01*
X292387Y199918D01*
X292082Y199613D01*
X291917Y199215D01*
Y198785D01*
X292082Y198387D01*
X292387Y198082D01*
X292785Y197917D01*
X293215D01*
X293613Y198082D01*
X293918Y198387D01*
X294083Y198785D01*
Y199215D01*
X293918Y199613D01*
X293613Y199918D01*
X293215Y200083D01*
D02*
G37*
G36*
X288215D02*
X287785D01*
X287387Y199918D01*
X287082Y199613D01*
X286917Y199215D01*
Y198785D01*
X287082Y198387D01*
X287387Y198082D01*
X287785Y197917D01*
X288215D01*
X288613Y198082D01*
X288918Y198387D01*
X289083Y198785D01*
Y199215D01*
X288918Y199613D01*
X288613Y199918D01*
X288215Y200083D01*
D02*
G37*
G36*
X283215D02*
X282785D01*
X282387Y199918D01*
X282082Y199613D01*
X281917Y199215D01*
Y198785D01*
X282082Y198387D01*
X282387Y198082D01*
X282785Y197917D01*
X283215D01*
X283613Y198082D01*
X283918Y198387D01*
X284083Y198785D01*
Y199215D01*
X283918Y199613D01*
X283613Y199918D01*
X283215Y200083D01*
D02*
G37*
G36*
X258215D02*
X257785D01*
X257387Y199918D01*
X257082Y199613D01*
X256917Y199215D01*
Y198785D01*
X257082Y198387D01*
X257387Y198082D01*
X257785Y197917D01*
X258215D01*
X258613Y198082D01*
X258918Y198387D01*
X259083Y198785D01*
Y199215D01*
X258918Y199613D01*
X258613Y199918D01*
X258215Y200083D01*
D02*
G37*
G36*
X253215D02*
X252785D01*
X252387Y199918D01*
X252082Y199613D01*
X251917Y199215D01*
Y198785D01*
X252082Y198387D01*
X252387Y198082D01*
X252785Y197917D01*
X253215D01*
X253613Y198082D01*
X253918Y198387D01*
X254083Y198785D01*
Y199215D01*
X253918Y199613D01*
X253613Y199918D01*
X253215Y200083D01*
D02*
G37*
G36*
X298215Y195083D02*
X297785D01*
X297387Y194918D01*
X297082Y194613D01*
X296917Y194215D01*
Y193785D01*
X297082Y193387D01*
X297387Y193082D01*
X297785Y192917D01*
X298215D01*
X298613Y193082D01*
X298918Y193387D01*
X299083Y193785D01*
Y194215D01*
X298918Y194613D01*
X298613Y194918D01*
X298215Y195083D01*
D02*
G37*
G36*
X293215D02*
X292785D01*
X292387Y194918D01*
X292082Y194613D01*
X291917Y194215D01*
Y193785D01*
X292082Y193387D01*
X292387Y193082D01*
X292785Y192917D01*
X293215D01*
X293613Y193082D01*
X293918Y193387D01*
X294083Y193785D01*
Y194215D01*
X293918Y194613D01*
X293613Y194918D01*
X293215Y195083D01*
D02*
G37*
G36*
X238176Y194705D02*
X237667D01*
X237196Y194510D01*
X236837Y194150D01*
X236642Y193680D01*
Y193171D01*
X236837Y192700D01*
X237196Y192341D01*
X237667Y192146D01*
X238176D01*
X238646Y192341D01*
X239006Y192700D01*
X239201Y193171D01*
Y193680D01*
X239006Y194150D01*
X238646Y194510D01*
X238176Y194705D01*
D02*
G37*
G36*
X298215Y190083D02*
X297785D01*
X297387Y189918D01*
X297082Y189613D01*
X296917Y189215D01*
Y188785D01*
X297082Y188387D01*
X297387Y188082D01*
X297785Y187917D01*
X298215D01*
X298613Y188082D01*
X298918Y188387D01*
X299083Y188785D01*
Y189215D01*
X298918Y189613D01*
X298613Y189918D01*
X298215Y190083D01*
D02*
G37*
G36*
X293215D02*
X292785D01*
X292387Y189918D01*
X292082Y189613D01*
X291917Y189215D01*
Y188785D01*
X292082Y188387D01*
X292387Y188082D01*
X292785Y187917D01*
X293215D01*
X293613Y188082D01*
X293918Y188387D01*
X294083Y188785D01*
Y189215D01*
X293918Y189613D01*
X293613Y189918D01*
X293215Y190083D01*
D02*
G37*
G36*
X288215D02*
X287785D01*
X287387Y189918D01*
X287082Y189613D01*
X286917Y189215D01*
Y188785D01*
X287082Y188387D01*
X287387Y188082D01*
X287785Y187917D01*
X288215D01*
X288613Y188082D01*
X288918Y188387D01*
X289083Y188785D01*
Y189215D01*
X288918Y189613D01*
X288613Y189918D01*
X288215Y190083D01*
D02*
G37*
G36*
X283215D02*
X282785D01*
X282387Y189918D01*
X282082Y189613D01*
X281917Y189215D01*
Y188785D01*
X282082Y188387D01*
X282387Y188082D01*
X282785Y187917D01*
X283215D01*
X283613Y188082D01*
X283918Y188387D01*
X284083Y188785D01*
Y189215D01*
X283918Y189613D01*
X283613Y189918D01*
X283215Y190083D01*
D02*
G37*
G36*
X278215D02*
X277785D01*
X277387Y189918D01*
X277082Y189613D01*
X276917Y189215D01*
Y188785D01*
X277082Y188387D01*
X277387Y188082D01*
X277785Y187917D01*
X278215D01*
X278613Y188082D01*
X278918Y188387D01*
X279083Y188785D01*
Y189215D01*
X278918Y189613D01*
X278613Y189918D01*
X278215Y190083D01*
D02*
G37*
G36*
X273215D02*
X272785D01*
X272387Y189918D01*
X272082Y189613D01*
X271917Y189215D01*
Y188785D01*
X272082Y188387D01*
X272387Y188082D01*
X272785Y187917D01*
X273215D01*
X273613Y188082D01*
X273918Y188387D01*
X274083Y188785D01*
Y189215D01*
X273918Y189613D01*
X273613Y189918D01*
X273215Y190083D01*
D02*
G37*
G36*
X268215D02*
X267785D01*
X267387Y189918D01*
X267082Y189613D01*
X266917Y189215D01*
Y188785D01*
X267082Y188387D01*
X267387Y188082D01*
X267785Y187917D01*
X268215D01*
X268613Y188082D01*
X268918Y188387D01*
X269083Y188785D01*
Y189215D01*
X268918Y189613D01*
X268613Y189918D01*
X268215Y190083D01*
D02*
G37*
G36*
X263215D02*
X262785D01*
X262387Y189918D01*
X262082Y189613D01*
X261917Y189215D01*
Y188785D01*
X262082Y188387D01*
X262387Y188082D01*
X262785Y187917D01*
X263215D01*
X263613Y188082D01*
X263918Y188387D01*
X264083Y188785D01*
Y189215D01*
X263918Y189613D01*
X263613Y189918D01*
X263215Y190083D01*
D02*
G37*
G36*
X258215D02*
X257785D01*
X257387Y189918D01*
X257082Y189613D01*
X256917Y189215D01*
Y188785D01*
X257082Y188387D01*
X257387Y188082D01*
X257785Y187917D01*
X258215D01*
X258613Y188082D01*
X258918Y188387D01*
X259083Y188785D01*
Y189215D01*
X258918Y189613D01*
X258613Y189918D01*
X258215Y190083D01*
D02*
G37*
G36*
X253215D02*
X252785D01*
X252387Y189918D01*
X252082Y189613D01*
X251917Y189215D01*
Y188785D01*
X252082Y188387D01*
X252387Y188082D01*
X252785Y187917D01*
X253215D01*
X253613Y188082D01*
X253918Y188387D01*
X254083Y188785D01*
Y189215D01*
X253918Y189613D01*
X253613Y189918D01*
X253215Y190083D01*
D02*
G37*
G36*
X247567Y187331D02*
X243433D01*
Y183591D01*
X247567D01*
Y187331D01*
D02*
G37*
G36*
X298215Y185083D02*
X297785D01*
X297387Y184918D01*
X297082Y184613D01*
X296917Y184215D01*
Y183785D01*
X297082Y183387D01*
X297387Y183082D01*
X297785Y182917D01*
X298215D01*
X298613Y183082D01*
X298918Y183387D01*
X299083Y183785D01*
Y184215D01*
X298918Y184613D01*
X298613Y184918D01*
X298215Y185083D01*
D02*
G37*
G36*
X293215D02*
X292785D01*
X292387Y184918D01*
X292082Y184613D01*
X291917Y184215D01*
Y183785D01*
X292082Y183387D01*
X292387Y183082D01*
X292785Y182917D01*
X293215D01*
X293613Y183082D01*
X293918Y183387D01*
X294083Y183785D01*
Y184215D01*
X293918Y184613D01*
X293613Y184918D01*
X293215Y185083D01*
D02*
G37*
G36*
X288215D02*
X287785D01*
X287387Y184918D01*
X287082Y184613D01*
X286917Y184215D01*
Y183785D01*
X287082Y183387D01*
X287387Y183082D01*
X287785Y182917D01*
X288215D01*
X288613Y183082D01*
X288918Y183387D01*
X289083Y183785D01*
Y184215D01*
X288918Y184613D01*
X288613Y184918D01*
X288215Y185083D01*
D02*
G37*
G36*
X283215D02*
X282785D01*
X282387Y184918D01*
X282082Y184613D01*
X281917Y184215D01*
Y183785D01*
X282082Y183387D01*
X282387Y183082D01*
X282785Y182917D01*
X283215D01*
X283613Y183082D01*
X283918Y183387D01*
X284083Y183785D01*
Y184215D01*
X283918Y184613D01*
X283613Y184918D01*
X283215Y185083D01*
D02*
G37*
G36*
X278215D02*
X277785D01*
X277387Y184918D01*
X277082Y184613D01*
X276917Y184215D01*
Y183785D01*
X277082Y183387D01*
X277387Y183082D01*
X277785Y182917D01*
X278215D01*
X278613Y183082D01*
X278918Y183387D01*
X279083Y183785D01*
Y184215D01*
X278918Y184613D01*
X278613Y184918D01*
X278215Y185083D01*
D02*
G37*
G36*
X273215D02*
X272785D01*
X272387Y184918D01*
X272082Y184613D01*
X271917Y184215D01*
Y183785D01*
X272082Y183387D01*
X272387Y183082D01*
X272785Y182917D01*
X273215D01*
X273613Y183082D01*
X273918Y183387D01*
X274083Y183785D01*
Y184215D01*
X273918Y184613D01*
X273613Y184918D01*
X273215Y185083D01*
D02*
G37*
G36*
X268215D02*
X267785D01*
X267387Y184918D01*
X267082Y184613D01*
X266917Y184215D01*
Y183785D01*
X267082Y183387D01*
X267387Y183082D01*
X267785Y182917D01*
X268215D01*
X268613Y183082D01*
X268918Y183387D01*
X269083Y183785D01*
Y184215D01*
X268918Y184613D01*
X268613Y184918D01*
X268215Y185083D01*
D02*
G37*
G36*
X263215D02*
X262785D01*
X262387Y184918D01*
X262082Y184613D01*
X261917Y184215D01*
Y183785D01*
X262082Y183387D01*
X262387Y183082D01*
X262785Y182917D01*
X263215D01*
X263613Y183082D01*
X263918Y183387D01*
X264083Y183785D01*
Y184215D01*
X263918Y184613D01*
X263613Y184918D01*
X263215Y185083D01*
D02*
G37*
G36*
X258215D02*
X257785D01*
X257387Y184918D01*
X257082Y184613D01*
X256917Y184215D01*
Y183785D01*
X257082Y183387D01*
X257387Y183082D01*
X257785Y182917D01*
X258215D01*
X258613Y183082D01*
X258918Y183387D01*
X259083Y183785D01*
Y184215D01*
X258918Y184613D01*
X258613Y184918D01*
X258215Y185083D01*
D02*
G37*
G36*
X253215D02*
X252785D01*
X252387Y184918D01*
X252082Y184613D01*
X251917Y184215D01*
Y183785D01*
X252082Y183387D01*
X252387Y183082D01*
X252785Y182917D01*
X253215D01*
X253613Y183082D01*
X253918Y183387D01*
X254083Y183785D01*
Y184215D01*
X253918Y184613D01*
X253613Y184918D01*
X253215Y185083D01*
D02*
G37*
G36*
X298215Y180083D02*
X297785D01*
X297387Y179918D01*
X297082Y179613D01*
X296917Y179215D01*
Y178785D01*
X297082Y178387D01*
X297387Y178082D01*
X297785Y177917D01*
X298215D01*
X298613Y178082D01*
X298918Y178387D01*
X299083Y178785D01*
Y179215D01*
X298918Y179613D01*
X298613Y179918D01*
X298215Y180083D01*
D02*
G37*
G36*
X293215D02*
X292785D01*
X292387Y179918D01*
X292082Y179613D01*
X291917Y179215D01*
Y178785D01*
X292082Y178387D01*
X292387Y178082D01*
X292785Y177917D01*
X293215D01*
X293613Y178082D01*
X293918Y178387D01*
X294083Y178785D01*
Y179215D01*
X293918Y179613D01*
X293613Y179918D01*
X293215Y180083D01*
D02*
G37*
G36*
X288215D02*
X287785D01*
X287387Y179918D01*
X287082Y179613D01*
X286917Y179215D01*
Y178785D01*
X287082Y178387D01*
X287387Y178082D01*
X287785Y177917D01*
X288215D01*
X288613Y178082D01*
X288918Y178387D01*
X289083Y178785D01*
Y179215D01*
X288918Y179613D01*
X288613Y179918D01*
X288215Y180083D01*
D02*
G37*
G36*
X283215D02*
X282785D01*
X282387Y179918D01*
X282082Y179613D01*
X281917Y179215D01*
Y178785D01*
X282082Y178387D01*
X282387Y178082D01*
X282785Y177917D01*
X283215D01*
X283613Y178082D01*
X283918Y178387D01*
X284083Y178785D01*
Y179215D01*
X283918Y179613D01*
X283613Y179918D01*
X283215Y180083D01*
D02*
G37*
G36*
X278215D02*
X277785D01*
X277387Y179918D01*
X277082Y179613D01*
X276917Y179215D01*
Y178785D01*
X277082Y178387D01*
X277387Y178082D01*
X277785Y177917D01*
X278215D01*
X278613Y178082D01*
X278918Y178387D01*
X279083Y178785D01*
Y179215D01*
X278918Y179613D01*
X278613Y179918D01*
X278215Y180083D01*
D02*
G37*
G36*
X273215D02*
X272785D01*
X272387Y179918D01*
X272082Y179613D01*
X271917Y179215D01*
Y178785D01*
X272082Y178387D01*
X272387Y178082D01*
X272785Y177917D01*
X273215D01*
X273613Y178082D01*
X273918Y178387D01*
X274083Y178785D01*
Y179215D01*
X273918Y179613D01*
X273613Y179918D01*
X273215Y180083D01*
D02*
G37*
G36*
X268215D02*
X267785D01*
X267387Y179918D01*
X267082Y179613D01*
X266917Y179215D01*
Y178785D01*
X267082Y178387D01*
X267387Y178082D01*
X267785Y177917D01*
X268215D01*
X268613Y178082D01*
X268918Y178387D01*
X269083Y178785D01*
Y179215D01*
X268918Y179613D01*
X268613Y179918D01*
X268215Y180083D01*
D02*
G37*
G36*
X263215D02*
X262785D01*
X262387Y179918D01*
X262082Y179613D01*
X261917Y179215D01*
Y178785D01*
X262082Y178387D01*
X262387Y178082D01*
X262785Y177917D01*
X263215D01*
X263613Y178082D01*
X263918Y178387D01*
X264083Y178785D01*
Y179215D01*
X263918Y179613D01*
X263613Y179918D01*
X263215Y180083D01*
D02*
G37*
G36*
X298215Y175083D02*
X297785D01*
X297387Y174918D01*
X297082Y174613D01*
X296917Y174215D01*
Y173785D01*
X297082Y173387D01*
X297387Y173082D01*
X297785Y172917D01*
X298215D01*
X298613Y173082D01*
X298918Y173387D01*
X299083Y173785D01*
Y174215D01*
X298918Y174613D01*
X298613Y174918D01*
X298215Y175083D01*
D02*
G37*
G36*
X293215D02*
X292785D01*
X292387Y174918D01*
X292082Y174613D01*
X291917Y174215D01*
Y173785D01*
X292082Y173387D01*
X292387Y173082D01*
X292785Y172917D01*
X293215D01*
X293613Y173082D01*
X293918Y173387D01*
X294083Y173785D01*
Y174215D01*
X293918Y174613D01*
X293613Y174918D01*
X293215Y175083D01*
D02*
G37*
G36*
X288215D02*
X287785D01*
X287387Y174918D01*
X287082Y174613D01*
X286917Y174215D01*
Y173785D01*
X287082Y173387D01*
X287387Y173082D01*
X287785Y172917D01*
X288215D01*
X288613Y173082D01*
X288918Y173387D01*
X289083Y173785D01*
Y174215D01*
X288918Y174613D01*
X288613Y174918D01*
X288215Y175083D01*
D02*
G37*
G36*
X268215D02*
X267785D01*
X267387Y174918D01*
X267082Y174613D01*
X266917Y174215D01*
Y173785D01*
X267082Y173387D01*
X267387Y173082D01*
X267785Y172917D01*
X268215D01*
X268613Y173082D01*
X268918Y173387D01*
X269083Y173785D01*
Y174215D01*
X268918Y174613D01*
X268613Y174918D01*
X268215Y175083D01*
D02*
G37*
G36*
X263215D02*
X262785D01*
X262387Y174918D01*
X262082Y174613D01*
X261917Y174215D01*
Y173785D01*
X262082Y173387D01*
X262387Y173082D01*
X262785Y172917D01*
X263215D01*
X263613Y173082D01*
X263918Y173387D01*
X264083Y173785D01*
Y174215D01*
X263918Y174613D01*
X263613Y174918D01*
X263215Y175083D01*
D02*
G37*
G36*
X258215D02*
X257785D01*
X257387Y174918D01*
X257082Y174613D01*
X256917Y174215D01*
Y173785D01*
X257082Y173387D01*
X257387Y173082D01*
X257785Y172917D01*
X258215D01*
X258613Y173082D01*
X258918Y173387D01*
X259083Y173785D01*
Y174215D01*
X258918Y174613D01*
X258613Y174918D01*
X258215Y175083D01*
D02*
G37*
G36*
X253215D02*
X252785D01*
X252387Y174918D01*
X252082Y174613D01*
X251917Y174215D01*
Y173785D01*
X252082Y173387D01*
X252387Y173082D01*
X252785Y172917D01*
X253215D01*
X253613Y173082D01*
X253918Y173387D01*
X254083Y173785D01*
Y174215D01*
X253918Y174613D01*
X253613Y174918D01*
X253215Y175083D01*
D02*
G37*
G36*
X298215Y170083D02*
X297785D01*
X297387Y169918D01*
X297082Y169613D01*
X296917Y169215D01*
Y168785D01*
X297082Y168387D01*
X297387Y168082D01*
X297785Y167917D01*
X298215D01*
X298613Y168082D01*
X298918Y168387D01*
X299083Y168785D01*
Y169215D01*
X298918Y169613D01*
X298613Y169918D01*
X298215Y170083D01*
D02*
G37*
G36*
X293215D02*
X292785D01*
X292387Y169918D01*
X292082Y169613D01*
X291917Y169215D01*
Y168785D01*
X292082Y168387D01*
X292387Y168082D01*
X292785Y167917D01*
X293215D01*
X293613Y168082D01*
X293918Y168387D01*
X294083Y168785D01*
Y169215D01*
X293918Y169613D01*
X293613Y169918D01*
X293215Y170083D01*
D02*
G37*
G36*
X288215D02*
X287785D01*
X287387Y169918D01*
X287082Y169613D01*
X286917Y169215D01*
Y168785D01*
X287082Y168387D01*
X287387Y168082D01*
X287785Y167917D01*
X288215D01*
X288613Y168082D01*
X288918Y168387D01*
X289083Y168785D01*
Y169215D01*
X288918Y169613D01*
X288613Y169918D01*
X288215Y170083D01*
D02*
G37*
G36*
X283215D02*
X282785D01*
X282387Y169918D01*
X282082Y169613D01*
X281917Y169215D01*
Y168785D01*
X282082Y168387D01*
X282387Y168082D01*
X282785Y167917D01*
X283215D01*
X283613Y168082D01*
X283918Y168387D01*
X284083Y168785D01*
Y169215D01*
X283918Y169613D01*
X283613Y169918D01*
X283215Y170083D01*
D02*
G37*
G36*
X278215D02*
X277785D01*
X277387Y169918D01*
X277082Y169613D01*
X276917Y169215D01*
Y168785D01*
X277082Y168387D01*
X277387Y168082D01*
X277785Y167917D01*
X278215D01*
X278613Y168082D01*
X278918Y168387D01*
X279083Y168785D01*
Y169215D01*
X278918Y169613D01*
X278613Y169918D01*
X278215Y170083D01*
D02*
G37*
G36*
X273215D02*
X272785D01*
X272387Y169918D01*
X272082Y169613D01*
X271917Y169215D01*
Y168785D01*
X272082Y168387D01*
X272387Y168082D01*
X272785Y167917D01*
X273215D01*
X273613Y168082D01*
X273918Y168387D01*
X274083Y168785D01*
Y169215D01*
X273918Y169613D01*
X273613Y169918D01*
X273215Y170083D01*
D02*
G37*
G36*
X268215D02*
X267785D01*
X267387Y169918D01*
X267082Y169613D01*
X266917Y169215D01*
Y168785D01*
X267082Y168387D01*
X267387Y168082D01*
X267785Y167917D01*
X268215D01*
X268613Y168082D01*
X268918Y168387D01*
X269083Y168785D01*
Y169215D01*
X268918Y169613D01*
X268613Y169918D01*
X268215Y170083D01*
D02*
G37*
G36*
X263215D02*
X262785D01*
X262387Y169918D01*
X262082Y169613D01*
X261917Y169215D01*
Y168785D01*
X262082Y168387D01*
X262387Y168082D01*
X262785Y167917D01*
X263215D01*
X263613Y168082D01*
X263918Y168387D01*
X264083Y168785D01*
Y169215D01*
X263918Y169613D01*
X263613Y169918D01*
X263215Y170083D01*
D02*
G37*
G36*
X258215D02*
X257785D01*
X257387Y169918D01*
X257082Y169613D01*
X256917Y169215D01*
Y168785D01*
X257082Y168387D01*
X257387Y168082D01*
X257785Y167917D01*
X258215D01*
X258613Y168082D01*
X258918Y168387D01*
X259083Y168785D01*
Y169215D01*
X258918Y169613D01*
X258613Y169918D01*
X258215Y170083D01*
D02*
G37*
G36*
X253215D02*
X252785D01*
X252387Y169918D01*
X252082Y169613D01*
X251917Y169215D01*
Y168785D01*
X252082Y168387D01*
X252387Y168082D01*
X252785Y167917D01*
X253215D01*
X253613Y168082D01*
X253918Y168387D01*
X254083Y168785D01*
Y169215D01*
X253918Y169613D01*
X253613Y169918D01*
X253215Y170083D01*
D02*
G37*
G36*
X298215Y165083D02*
X297785D01*
X297387Y164918D01*
X297082Y164613D01*
X296917Y164215D01*
Y163785D01*
X297082Y163387D01*
X297387Y163082D01*
X297785Y162917D01*
X298215D01*
X298613Y163082D01*
X298918Y163387D01*
X299083Y163785D01*
Y164215D01*
X298918Y164613D01*
X298613Y164918D01*
X298215Y165083D01*
D02*
G37*
G36*
X293215D02*
X292785D01*
X292387Y164918D01*
X292082Y164613D01*
X291917Y164215D01*
Y163785D01*
X292082Y163387D01*
X292387Y163082D01*
X292785Y162917D01*
X293215D01*
X293613Y163082D01*
X293918Y163387D01*
X294083Y163785D01*
Y164215D01*
X293918Y164613D01*
X293613Y164918D01*
X293215Y165083D01*
D02*
G37*
G36*
X288215D02*
X287785D01*
X287387Y164918D01*
X287082Y164613D01*
X286917Y164215D01*
Y163785D01*
X287082Y163387D01*
X287387Y163082D01*
X287785Y162917D01*
X288215D01*
X288613Y163082D01*
X288918Y163387D01*
X289083Y163785D01*
Y164215D01*
X288918Y164613D01*
X288613Y164918D01*
X288215Y165083D01*
D02*
G37*
G36*
X283215D02*
X282785D01*
X282387Y164918D01*
X282082Y164613D01*
X281917Y164215D01*
Y163785D01*
X282082Y163387D01*
X282387Y163082D01*
X282785Y162917D01*
X283215D01*
X283613Y163082D01*
X283918Y163387D01*
X284083Y163785D01*
Y164215D01*
X283918Y164613D01*
X283613Y164918D01*
X283215Y165083D01*
D02*
G37*
G36*
X273215D02*
X272785D01*
X272387Y164918D01*
X272082Y164613D01*
X271917Y164215D01*
Y163785D01*
X272082Y163387D01*
X272387Y163082D01*
X272785Y162917D01*
X273215D01*
X273613Y163082D01*
X273918Y163387D01*
X274083Y163785D01*
Y164215D01*
X273918Y164613D01*
X273613Y164918D01*
X273215Y165083D01*
D02*
G37*
G36*
X268215D02*
X267785D01*
X267387Y164918D01*
X267082Y164613D01*
X266917Y164215D01*
Y163785D01*
X267082Y163387D01*
X267387Y163082D01*
X267785Y162917D01*
X268215D01*
X268613Y163082D01*
X268918Y163387D01*
X269083Y163785D01*
Y164215D01*
X268918Y164613D01*
X268613Y164918D01*
X268215Y165083D01*
D02*
G37*
G36*
X263215D02*
X262785D01*
X262387Y164918D01*
X262082Y164613D01*
X261917Y164215D01*
Y163785D01*
X262082Y163387D01*
X262387Y163082D01*
X262785Y162917D01*
X263215D01*
X263613Y163082D01*
X263918Y163387D01*
X264083Y163785D01*
Y164215D01*
X263918Y164613D01*
X263613Y164918D01*
X263215Y165083D01*
D02*
G37*
G36*
X258215D02*
X257785D01*
X257387Y164918D01*
X257082Y164613D01*
X256917Y164215D01*
Y163785D01*
X257082Y163387D01*
X257387Y163082D01*
X257785Y162917D01*
X258215D01*
X258613Y163082D01*
X258918Y163387D01*
X259083Y163785D01*
Y164215D01*
X258918Y164613D01*
X258613Y164918D01*
X258215Y165083D01*
D02*
G37*
G36*
X253215D02*
X252785D01*
X252387Y164918D01*
X252082Y164613D01*
X251917Y164215D01*
Y163785D01*
X252082Y163387D01*
X252387Y163082D01*
X252785Y162917D01*
X253215D01*
X253613Y163082D01*
X253918Y163387D01*
X254083Y163785D01*
Y164215D01*
X253918Y164613D01*
X253613Y164918D01*
X253215Y165083D01*
D02*
G37*
G36*
X298215Y160083D02*
X297785D01*
X297387Y159918D01*
X297082Y159613D01*
X296917Y159215D01*
Y158785D01*
X297082Y158387D01*
X297387Y158082D01*
X297785Y157917D01*
X298215D01*
X298613Y158082D01*
X298918Y158387D01*
X299083Y158785D01*
Y159215D01*
X298918Y159613D01*
X298613Y159918D01*
X298215Y160083D01*
D02*
G37*
G36*
X293215D02*
X292785D01*
X292387Y159918D01*
X292082Y159613D01*
X291917Y159215D01*
Y158785D01*
X292082Y158387D01*
X292387Y158082D01*
X292785Y157917D01*
X293215D01*
X293613Y158082D01*
X293918Y158387D01*
X294083Y158785D01*
Y159215D01*
X293918Y159613D01*
X293613Y159918D01*
X293215Y160083D01*
D02*
G37*
G36*
X288215D02*
X287785D01*
X287387Y159918D01*
X287082Y159613D01*
X286917Y159215D01*
Y158785D01*
X287082Y158387D01*
X287387Y158082D01*
X287785Y157917D01*
X288215D01*
X288613Y158082D01*
X288918Y158387D01*
X289083Y158785D01*
Y159215D01*
X288918Y159613D01*
X288613Y159918D01*
X288215Y160083D01*
D02*
G37*
G36*
X283215D02*
X282785D01*
X282387Y159918D01*
X282082Y159613D01*
X281917Y159215D01*
Y158785D01*
X282082Y158387D01*
X282387Y158082D01*
X282785Y157917D01*
X283215D01*
X283613Y158082D01*
X283918Y158387D01*
X284083Y158785D01*
Y159215D01*
X283918Y159613D01*
X283613Y159918D01*
X283215Y160083D01*
D02*
G37*
G36*
X278215D02*
X277785D01*
X277387Y159918D01*
X277082Y159613D01*
X276917Y159215D01*
Y158785D01*
X277082Y158387D01*
X277387Y158082D01*
X277785Y157917D01*
X278215D01*
X278613Y158082D01*
X278918Y158387D01*
X279083Y158785D01*
Y159215D01*
X278918Y159613D01*
X278613Y159918D01*
X278215Y160083D01*
D02*
G37*
G36*
X273215D02*
X272785D01*
X272387Y159918D01*
X272082Y159613D01*
X271917Y159215D01*
Y158785D01*
X272082Y158387D01*
X272387Y158082D01*
X272785Y157917D01*
X273215D01*
X273613Y158082D01*
X273918Y158387D01*
X274083Y158785D01*
Y159215D01*
X273918Y159613D01*
X273613Y159918D01*
X273215Y160083D01*
D02*
G37*
G36*
X268215D02*
X267785D01*
X267387Y159918D01*
X267082Y159613D01*
X266917Y159215D01*
Y158785D01*
X267082Y158387D01*
X267387Y158082D01*
X267785Y157917D01*
X268215D01*
X268613Y158082D01*
X268918Y158387D01*
X269083Y158785D01*
Y159215D01*
X268918Y159613D01*
X268613Y159918D01*
X268215Y160083D01*
D02*
G37*
G36*
X263215D02*
X262785D01*
X262387Y159918D01*
X262082Y159613D01*
X261917Y159215D01*
Y158785D01*
X262082Y158387D01*
X262387Y158082D01*
X262785Y157917D01*
X263215D01*
X263613Y158082D01*
X263918Y158387D01*
X264083Y158785D01*
Y159215D01*
X263918Y159613D01*
X263613Y159918D01*
X263215Y160083D01*
D02*
G37*
G36*
X258215D02*
X257785D01*
X257387Y159918D01*
X257082Y159613D01*
X256917Y159215D01*
Y158785D01*
X257082Y158387D01*
X257387Y158082D01*
X257785Y157917D01*
X258215D01*
X258613Y158082D01*
X258918Y158387D01*
X259083Y158785D01*
Y159215D01*
X258918Y159613D01*
X258613Y159918D01*
X258215Y160083D01*
D02*
G37*
G36*
X253215D02*
X252785D01*
X252387Y159918D01*
X252082Y159613D01*
X251917Y159215D01*
Y158785D01*
X252082Y158387D01*
X252387Y158082D01*
X252785Y157917D01*
X253215D01*
X253613Y158082D01*
X253918Y158387D01*
X254083Y158785D01*
Y159215D01*
X253918Y159613D01*
X253613Y159918D01*
X253215Y160083D01*
D02*
G37*
G36*
X228146Y159362D02*
X223854D01*
Y157564D01*
X219265D01*
Y158621D01*
X214935D01*
Y157275D01*
X212392D01*
Y158055D01*
X208408D01*
Y157758D01*
X206767D01*
Y157921D01*
X202633D01*
Y156346D01*
X202633Y155953D01*
X202633D01*
Y155953D01*
X202633D01*
Y153984D01*
X206767D01*
Y155935D01*
X208408D01*
Y154674D01*
X212392D01*
Y155453D01*
X214935D01*
Y154684D01*
X219265D01*
Y155742D01*
X223854D01*
Y153496D01*
X228146D01*
Y159362D01*
D02*
G37*
G36*
X233146D02*
X228854D01*
Y153496D01*
X233146D01*
Y159362D01*
D02*
G37*
G36*
X298215Y155083D02*
X297785D01*
X297387Y154918D01*
X297082Y154613D01*
X296917Y154215D01*
Y153785D01*
X297082Y153387D01*
X297387Y153082D01*
X297785Y152917D01*
X298215D01*
X298613Y153082D01*
X298918Y153387D01*
X299083Y153785D01*
Y154215D01*
X298918Y154613D01*
X298613Y154918D01*
X298215Y155083D01*
D02*
G37*
G36*
X293215D02*
X292785D01*
X292387Y154918D01*
X292082Y154613D01*
X291917Y154215D01*
Y153785D01*
X292082Y153387D01*
X292387Y153082D01*
X292785Y152917D01*
X293215D01*
X293613Y153082D01*
X293918Y153387D01*
X294083Y153785D01*
Y154215D01*
X293918Y154613D01*
X293613Y154918D01*
X293215Y155083D01*
D02*
G37*
G36*
X288215D02*
X287785D01*
X287387Y154918D01*
X287082Y154613D01*
X286917Y154215D01*
Y153785D01*
X287082Y153387D01*
X287387Y153082D01*
X287785Y152917D01*
X288215D01*
X288613Y153082D01*
X288918Y153387D01*
X289083Y153785D01*
Y154215D01*
X288918Y154613D01*
X288613Y154918D01*
X288215Y155083D01*
D02*
G37*
G36*
X195350Y157921D02*
X191216D01*
X191216Y155953D01*
X191216Y155559D01*
Y152016D01*
X195350D01*
Y153984D01*
X195350Y155953D01*
X195350Y156346D01*
Y157921D01*
D02*
G37*
G36*
X212392Y152726D02*
X208408D01*
Y151843D01*
X206767D01*
Y152016D01*
X202633D01*
Y150047D01*
X206767D01*
Y150224D01*
X208408D01*
Y149345D01*
X211248D01*
X213166Y147428D01*
X213428Y147252D01*
X213738Y147191D01*
X213738Y147191D01*
X219680D01*
X223943Y142928D01*
X224206Y142752D01*
X224516Y142691D01*
X240500D01*
X240500Y142691D01*
X240810Y142752D01*
X241072Y142928D01*
X242572Y144428D01*
X242748Y144690D01*
X242809Y145000D01*
X242809Y145000D01*
Y148778D01*
X242918Y148887D01*
X243083Y149285D01*
Y149715D01*
X242918Y150113D01*
X242613Y150418D01*
X242215Y150583D01*
X241785D01*
X241387Y150418D01*
X241082Y150113D01*
X240917Y149715D01*
Y149285D01*
X241082Y148887D01*
X241191Y148778D01*
Y145335D01*
X240165Y144309D01*
X233303D01*
X233146Y144638D01*
X233146Y144703D01*
Y150504D01*
X228854D01*
Y144703D01*
X228854Y144638D01*
X228697Y144309D01*
X228303D01*
X228146Y144638D01*
Y150504D01*
X223854D01*
Y145820D01*
X223491Y145669D01*
X220588Y148572D01*
X220325Y148748D01*
X220016Y148809D01*
X220016Y148809D01*
X214073D01*
X212392Y150490D01*
Y152726D01*
D02*
G37*
G36*
X122353Y171609D02*
X116447D01*
Y166885D01*
X117951D01*
Y166273D01*
X117433Y166059D01*
X116990Y165616D01*
X116750Y165037D01*
Y164410D01*
X116990Y163832D01*
X117433Y163389D01*
X117939Y163179D01*
Y162677D01*
X116380D01*
Y157723D01*
X122097D01*
X122309Y157723D01*
X122703Y157723D01*
X126410D01*
X128344Y155790D01*
X128193Y155426D01*
X125500D01*
X125199Y155301D01*
X125172Y155237D01*
X125068D01*
Y147363D01*
X125074D01*
Y146537D01*
X125068D01*
Y138663D01*
X125285D01*
X125500Y138574D01*
X132824D01*
X133107Y138290D01*
X133073Y138172D01*
X132914Y137926D01*
X125500D01*
X125285Y137837D01*
X125068D01*
Y129963D01*
X125074D01*
Y129137D01*
X125068D01*
Y121263D01*
X125172D01*
X125199Y121199D01*
X125500Y121074D01*
X126823D01*
X134321Y113577D01*
X134622Y113452D01*
X140140D01*
X140442Y113577D01*
X141801Y114936D01*
X141926Y115238D01*
Y116500D01*
X141926Y116500D01*
X142233Y116789D01*
X142387Y116725D01*
X143013D01*
X143435Y116900D01*
X143621Y116717D01*
X143697Y116582D01*
X143466Y116025D01*
Y115375D01*
X143715Y114775D01*
X144175Y114315D01*
X144775Y114066D01*
X145425D01*
X146026Y114315D01*
X146485Y114775D01*
X146698Y115288D01*
X148021Y116611D01*
X148337Y116742D01*
X148508Y116639D01*
X148655Y116480D01*
X148466Y116025D01*
Y115375D01*
X148715Y114775D01*
X149174Y114315D01*
X149189Y114309D01*
Y109065D01*
X148184D01*
Y104735D01*
X152121D01*
Y109065D01*
X151011D01*
Y114309D01*
X151025Y114315D01*
X151485Y114775D01*
X151734Y115375D01*
Y116025D01*
X151503Y116582D01*
X151579Y116717D01*
X151765Y116900D01*
X152187Y116725D01*
X152813D01*
X153392Y116965D01*
X153835Y117408D01*
X154075Y117987D01*
Y118613D01*
X153900Y119035D01*
X154083Y119221D01*
X154218Y119297D01*
X154775Y119066D01*
X155425D01*
X156026Y119315D01*
X156485Y119774D01*
X156734Y120375D01*
Y121025D01*
X156728Y121039D01*
X157214Y121525D01*
X157813D01*
X158392Y121765D01*
X158835Y122208D01*
X159075Y122787D01*
Y123413D01*
X158835Y123992D01*
X158392Y124435D01*
X157813Y124675D01*
X157187D01*
X156765Y124500D01*
X156579Y124683D01*
X156503Y124818D01*
X156734Y125375D01*
Y126025D01*
X156555Y126456D01*
X156485Y126626D01*
X156740Y126927D01*
X156948Y127013D01*
X157391Y127456D01*
X157630Y128035D01*
Y128661D01*
X157391Y129240D01*
X156948Y129683D01*
X156520Y129860D01*
X156734Y130375D01*
Y131025D01*
X156485Y131625D01*
X156026Y132085D01*
X155425Y132334D01*
X154775D01*
X154218Y132103D01*
X154083Y132179D01*
X153900Y132365D01*
X154075Y132787D01*
Y133413D01*
X153835Y133992D01*
X153392Y134435D01*
X152813Y134675D01*
X152187D01*
X151765Y134500D01*
X151579Y134683D01*
X151503Y134818D01*
X151734Y135375D01*
Y136025D01*
X151485Y136626D01*
X151025Y137085D01*
X151011Y137091D01*
Y142335D01*
X151921D01*
Y146665D01*
X147984D01*
Y142335D01*
X149189D01*
Y137091D01*
X149174Y137085D01*
X148715Y136626D01*
X148466Y136025D01*
Y135375D01*
X148655Y134920D01*
X148508Y134761D01*
X148337Y134658D01*
X148021Y134789D01*
X146698Y136112D01*
X146485Y136626D01*
X146026Y137085D01*
X145425Y137334D01*
X144775D01*
X144175Y137085D01*
X143715Y136626D01*
X143466Y136025D01*
Y135375D01*
X143715Y134774D01*
X144175Y134315D01*
X144688Y134102D01*
X146011Y132779D01*
X146142Y132463D01*
X146039Y132292D01*
X145880Y132145D01*
X145425Y132334D01*
X144775D01*
X144175Y132085D01*
X143715Y131625D01*
X143466Y131025D01*
Y130375D01*
X143472Y130361D01*
X143169Y130058D01*
X142835Y130281D01*
X142926Y130500D01*
Y138500D01*
X142926Y138500D01*
X142801Y138801D01*
X142801Y138801D01*
X137926Y143676D01*
Y150223D01*
X140697D01*
X140909Y150223D01*
X141303Y150223D01*
X147020D01*
Y151279D01*
X149385D01*
Y149647D01*
X154109D01*
Y155553D01*
X149385D01*
Y154121D01*
X147020D01*
Y155177D01*
X141303D01*
X141091Y155177D01*
X140697Y155177D01*
X135926D01*
X135801Y155301D01*
X135500Y155426D01*
X133667D01*
X133589Y155394D01*
X133504D01*
X133444Y155334D01*
X133366Y155301D01*
X133132Y155231D01*
X132912Y155241D01*
X128420Y159733D01*
Y162677D01*
X122703D01*
X122491Y162677D01*
X122097Y162677D01*
X120781D01*
Y164658D01*
X120793Y164721D01*
Y166885D01*
X122353D01*
Y171609D01*
D02*
G37*
G36*
X191338Y150554D02*
X190711D01*
X190132Y150314D01*
X189690Y149871D01*
X189450Y149292D01*
Y148665D01*
X189690Y148087D01*
X190132Y147644D01*
X190711Y147404D01*
X191338D01*
X191917Y147644D01*
X192360Y148087D01*
X192599Y148665D01*
Y149292D01*
X192360Y149871D01*
X191917Y150314D01*
X191338Y150554D01*
D02*
G37*
G36*
X220715Y144183D02*
X220285D01*
X219887Y144018D01*
X219582Y143713D01*
X219417Y143315D01*
Y142885D01*
X219582Y142487D01*
X219887Y142182D01*
X220285Y142017D01*
X220715D01*
X221113Y142182D01*
X221418Y142487D01*
X221583Y142885D01*
Y143315D01*
X221418Y143713D01*
X221113Y144018D01*
X220715Y144183D01*
D02*
G37*
G36*
X178115Y144026D02*
X177685D01*
X177287Y143861D01*
X176982Y143557D01*
X176817Y143159D01*
Y142728D01*
X176982Y142330D01*
X177287Y142025D01*
X177685Y141861D01*
X178115D01*
X178513Y142025D01*
X178818Y142330D01*
X178983Y142728D01*
Y143159D01*
X178818Y143557D01*
X178513Y143861D01*
X178115Y144026D01*
D02*
G37*
G36*
X191000Y143426D02*
X180000D01*
X179699Y143301D01*
X179574Y143000D01*
Y139442D01*
X179440Y139373D01*
X179180Y139321D01*
X178792Y139709D01*
X178213Y139949D01*
X177587D01*
X177008Y139709D01*
X176565Y139267D01*
X176325Y138688D01*
Y138061D01*
X176565Y137482D01*
X177008Y137039D01*
X177587Y136800D01*
X178213D01*
X178792Y137039D01*
X179180Y137427D01*
X179440Y137376D01*
X179574Y137307D01*
Y126628D01*
X179699Y126327D01*
X179762Y126264D01*
X179764Y125846D01*
X179762Y125832D01*
X179750Y125804D01*
X179639Y125537D01*
Y109065D01*
X179672Y108987D01*
Y108902D01*
X179699Y108837D01*
X179759Y108777D01*
X179791Y108699D01*
X179869Y108666D01*
X179929Y108606D01*
X180014D01*
X180092Y108574D01*
X181726D01*
Y107362D01*
X181179D01*
Y106421D01*
X179621D01*
Y107362D01*
X175684D01*
Y102638D01*
X179621D01*
Y103579D01*
X181179D01*
Y102638D01*
X185116D01*
Y107362D01*
X184568D01*
Y108574D01*
X191000D01*
X191301Y108699D01*
X191301Y108699D01*
X196801Y114199D01*
X196926Y114500D01*
Y122000D01*
X196801Y122301D01*
X196801Y122301D01*
X195801Y123301D01*
X195500Y123426D01*
X192176D01*
X189922Y125680D01*
X190086Y126074D01*
X190500D01*
X190801Y126199D01*
X192176Y127574D01*
X195500D01*
X195801Y127699D01*
X195801Y127699D01*
X196801Y128699D01*
X196926Y129000D01*
Y137500D01*
X196801Y137801D01*
X196801Y137801D01*
X191301Y143301D01*
X191000Y143426D01*
D02*
G37*
G36*
X200238Y141842D02*
X199612D01*
X199033Y141602D01*
X198590Y141159D01*
X198350Y140580D01*
Y139954D01*
X198590Y139375D01*
X199033Y138932D01*
X199612Y138692D01*
X200238D01*
X200817Y138932D01*
X201260Y139375D01*
X201500Y139954D01*
Y140580D01*
X201260Y141159D01*
X200817Y141602D01*
X200238Y141842D01*
D02*
G37*
G36*
X300000Y146926D02*
X251500D01*
X251199Y146801D01*
X249699Y145301D01*
X249574Y145000D01*
Y134177D01*
X246429Y131032D01*
X235363D01*
Y130926D01*
X233174D01*
Y131032D01*
X221363D01*
Y124732D01*
X221574D01*
Y120468D01*
X221363D01*
Y114169D01*
X221772D01*
X222000Y114074D01*
X247500D01*
X247801Y114199D01*
X247801Y114199D01*
X259801Y126199D01*
X259926Y126500D01*
Y138823D01*
X260677Y139574D01*
X295197D01*
X295275Y139606D01*
X295360D01*
X295420Y139666D01*
X295498Y139699D01*
X295544Y139712D01*
X295908Y139490D01*
Y137969D01*
X291988D01*
Y136911D01*
X286890D01*
Y138756D01*
X281378D01*
Y133244D01*
X286890D01*
Y135089D01*
X291988D01*
Y134031D01*
X295908D01*
Y125224D01*
X294602Y123918D01*
X294405Y123622D01*
X294335Y123274D01*
Y111068D01*
X293081D01*
Y107132D01*
X297412D01*
Y111068D01*
X296158D01*
Y122896D01*
X297463Y124202D01*
X297661Y124497D01*
X297730Y124846D01*
Y139574D01*
X299000D01*
X299301Y139699D01*
X299301Y139699D01*
X301077Y141474D01*
X301202Y141776D01*
Y145724D01*
X301202Y145724D01*
X301077Y146026D01*
X300301Y146801D01*
X300000Y146926D01*
D02*
G37*
G36*
X278622Y138756D02*
X273110D01*
Y136911D01*
X272120D01*
X272113Y136918D01*
X271715Y137083D01*
X271285D01*
X270887Y136918D01*
X270880Y136911D01*
X270040D01*
Y138178D01*
X265887D01*
Y133822D01*
X270040D01*
Y135089D01*
X270880D01*
X270887Y135082D01*
X271285Y134917D01*
X271715D01*
X272113Y135082D01*
X272120Y135089D01*
X273110D01*
Y133244D01*
X278622D01*
Y138756D01*
D02*
G37*
G36*
X205921Y146565D02*
X201984D01*
Y142235D01*
X203689D01*
Y137091D01*
X203675Y137085D01*
X203215Y136626D01*
X202966Y136025D01*
Y135375D01*
X203155Y134920D01*
X203008Y134761D01*
X202837Y134658D01*
X202521Y134789D01*
X201198Y136112D01*
X200985Y136626D01*
X200525Y137085D01*
X199925Y137334D01*
X199275D01*
X198674Y137085D01*
X198215Y136626D01*
X197966Y136025D01*
Y135375D01*
X198215Y134774D01*
X198674Y134315D01*
X199188Y134102D01*
X200511Y132779D01*
X200642Y132463D01*
X200539Y132292D01*
X200380Y132145D01*
X199925Y132334D01*
X199275D01*
X198674Y132085D01*
X198215Y131625D01*
X197966Y131025D01*
Y130375D01*
X198215Y129774D01*
X198674Y129315D01*
X199275Y129066D01*
X199925D01*
X199939Y129072D01*
X200425Y128586D01*
Y127987D01*
X200665Y127408D01*
X201108Y126965D01*
X201687Y126725D01*
X202313D01*
X202892Y126965D01*
X203110Y127183D01*
X203195Y127162D01*
X203317Y126728D01*
X203215Y126626D01*
X202966Y126025D01*
Y125375D01*
X203215Y124775D01*
X203675Y124315D01*
X204275Y124066D01*
X204925D01*
X205525Y124315D01*
X205868Y124657D01*
X206281Y124667D01*
X206353Y124641D01*
X208538Y122456D01*
X208539Y122455D01*
X208568Y122377D01*
X208558Y121969D01*
X208215Y121625D01*
X207966Y121025D01*
Y120375D01*
X208155Y119920D01*
X208008Y119761D01*
X207837Y119658D01*
X207521Y119789D01*
X206198Y121112D01*
X205985Y121625D01*
X205525Y122085D01*
X204925Y122334D01*
X204275D01*
X203718Y122103D01*
X203583Y122179D01*
X203400Y122365D01*
X203575Y122787D01*
Y123413D01*
X203335Y123992D01*
X202892Y124435D01*
X202313Y124675D01*
X201687D01*
X201108Y124435D01*
X200665Y123992D01*
X200425Y123413D01*
Y122814D01*
X199939Y122328D01*
X199925Y122334D01*
X199275D01*
X198674Y122085D01*
X198215Y121625D01*
X197966Y121025D01*
Y120375D01*
X198215Y119774D01*
X198674Y119315D01*
X199275Y119066D01*
X199925D01*
X200380Y119255D01*
X200539Y119108D01*
X200642Y118937D01*
X200511Y118621D01*
X199188Y117298D01*
X198674Y117085D01*
X198215Y116625D01*
X197966Y116025D01*
Y115375D01*
X198215Y114775D01*
X198674Y114315D01*
X199275Y114066D01*
X199925D01*
X200525Y114315D01*
X200985Y114775D01*
X201198Y115288D01*
X202521Y116611D01*
X202837Y116742D01*
X203008Y116639D01*
X203155Y116480D01*
X202966Y116025D01*
Y115375D01*
X203215Y114775D01*
X203675Y114315D01*
X203689Y114309D01*
Y109065D01*
X202284D01*
Y104735D01*
X206221D01*
Y109065D01*
X205511D01*
Y114309D01*
X205525Y114315D01*
X205985Y114775D01*
X206234Y115375D01*
Y116025D01*
X206003Y116582D01*
X206079Y116717D01*
X206265Y116900D01*
X206687Y116725D01*
X207313D01*
X207892Y116965D01*
X208335Y117408D01*
X208575Y117987D01*
Y118613D01*
X208400Y119035D01*
X208583Y119221D01*
X208718Y119297D01*
X209275Y119066D01*
X209925D01*
X210525Y119315D01*
X210985Y119774D01*
X211234Y120375D01*
Y121025D01*
X211228Y121039D01*
X211714Y121525D01*
X212313D01*
X212892Y121765D01*
X213335Y122208D01*
X213575Y122787D01*
Y123413D01*
X213335Y123992D01*
X212892Y124435D01*
X212313Y124675D01*
X211687D01*
X211265Y124500D01*
X211079Y124683D01*
X211003Y124818D01*
X211234Y125375D01*
Y126025D01*
X211003Y126582D01*
X211079Y126717D01*
X211265Y126900D01*
X211687Y126725D01*
X212313D01*
X212892Y126965D01*
X213335Y127408D01*
X213575Y127987D01*
Y128613D01*
X213335Y129192D01*
X212892Y129635D01*
X212313Y129875D01*
X211714D01*
X211228Y130361D01*
X211234Y130375D01*
Y131025D01*
X210985Y131625D01*
X210525Y132085D01*
X209925Y132334D01*
X209275D01*
X208718Y132103D01*
X208583Y132179D01*
X208400Y132365D01*
X208575Y132787D01*
Y133413D01*
X208335Y133992D01*
X207892Y134435D01*
X207313Y134675D01*
X206687D01*
X206265Y134500D01*
X206079Y134683D01*
X206003Y134818D01*
X206234Y135375D01*
Y136025D01*
X205985Y136626D01*
X205525Y137085D01*
X205511Y137091D01*
Y142235D01*
X205921D01*
Y146565D01*
D02*
G37*
G36*
X214925Y137334D02*
X214275D01*
X213674Y137085D01*
X213215Y136626D01*
X212966Y136025D01*
Y135375D01*
X213215Y134774D01*
X213674Y134315D01*
X214275Y134066D01*
X214925D01*
X215526Y134315D01*
X215985Y134774D01*
X216234Y135375D01*
Y136025D01*
X215985Y136626D01*
X215526Y137085D01*
X214925Y137334D01*
D02*
G37*
G36*
X211816Y146262D02*
X207485D01*
Y141538D01*
X208689D01*
Y137091D01*
X208675Y137085D01*
X208215Y136626D01*
X207966Y136025D01*
Y135375D01*
X208215Y134774D01*
X208675Y134315D01*
X209275Y134066D01*
X209925D01*
X210525Y134315D01*
X210985Y134774D01*
X211234Y135375D01*
Y136025D01*
X210985Y136626D01*
X210525Y137085D01*
X210511Y137091D01*
Y141538D01*
X211816D01*
Y146262D01*
D02*
G37*
G36*
X160425Y137334D02*
X159775D01*
X159175Y137085D01*
X158715Y136626D01*
X158466Y136025D01*
Y135375D01*
X158715Y134774D01*
X159175Y134315D01*
X159775Y134066D01*
X160425D01*
X161026Y134315D01*
X161485Y134774D01*
X161734Y135375D01*
Y136025D01*
X161485Y136626D01*
X161026Y137085D01*
X160425Y137334D01*
D02*
G37*
G36*
X157419Y146268D02*
X153088D01*
Y142332D01*
X154189D01*
Y137091D01*
X154174Y137085D01*
X153715Y136626D01*
X153466Y136025D01*
Y135375D01*
X153715Y134774D01*
X154174Y134315D01*
X154775Y134066D01*
X155425D01*
X156026Y134315D01*
X156485Y134774D01*
X156734Y135375D01*
Y136025D01*
X156485Y136626D01*
X156026Y137085D01*
X156011Y137091D01*
Y142332D01*
X157419D01*
Y146268D01*
D02*
G37*
G36*
X123315Y134983D02*
X122885D01*
X122487Y134818D01*
X122182Y134513D01*
X122017Y134115D01*
Y133685D01*
X122182Y133287D01*
X122487Y132982D01*
X122885Y132817D01*
X123315D01*
X123713Y132982D01*
X124018Y133287D01*
X124183Y133685D01*
Y134115D01*
X124018Y134513D01*
X123713Y134818D01*
X123315Y134983D01*
D02*
G37*
G36*
X265113Y138178D02*
X260960D01*
Y133822D01*
X263309D01*
Y132380D01*
X263378Y132032D01*
X263575Y131736D01*
X264956Y130356D01*
X265251Y130158D01*
X265600Y130089D01*
X266484D01*
X266908Y129665D01*
X267487Y129425D01*
X268113D01*
X268692Y129665D01*
X269135Y130108D01*
X269375Y130687D01*
Y131313D01*
X269135Y131892D01*
X268692Y132335D01*
X268113Y132575D01*
X267487D01*
X266908Y132335D01*
X266484Y131911D01*
X265977D01*
X265131Y132758D01*
Y134817D01*
X265113Y134905D01*
Y138178D01*
D02*
G37*
G36*
X178115Y130283D02*
X177685D01*
X177287Y130118D01*
X176982Y129813D01*
X176817Y129415D01*
Y128985D01*
X176982Y128587D01*
X177287Y128282D01*
X177685Y128117D01*
X178115D01*
X178513Y128282D01*
X178818Y128587D01*
X178983Y128985D01*
Y129415D01*
X178818Y129813D01*
X178513Y130118D01*
X178115Y130283D01*
D02*
G37*
G36*
X214925Y117334D02*
X214275D01*
X213674Y117085D01*
X213215Y116625D01*
X212966Y116025D01*
Y115375D01*
X213215Y114775D01*
X213674Y114315D01*
X214275Y114066D01*
X214925D01*
X215526Y114315D01*
X215985Y114775D01*
X216234Y115375D01*
Y116025D01*
X215985Y116625D01*
X215526Y117085D01*
X214925Y117334D01*
D02*
G37*
G36*
X160425D02*
X159775D01*
X159175Y117085D01*
X158715Y116625D01*
X158466Y116025D01*
Y115375D01*
X158715Y114775D01*
X159175Y114315D01*
X159775Y114066D01*
X160425D01*
X161026Y114315D01*
X161485Y114775D01*
X161734Y115375D01*
Y116025D01*
X161485Y116625D01*
X161026Y117085D01*
X160425Y117334D01*
D02*
G37*
G36*
X279016Y111068D02*
X275079D01*
Y110099D01*
X274685Y110048D01*
X274298Y110435D01*
X273719Y110675D01*
X273092D01*
X272514Y110435D01*
X272071Y109992D01*
X271831Y109413D01*
Y108787D01*
X272071Y108208D01*
X272514Y107765D01*
X273092Y107525D01*
X273719D01*
X274298Y107765D01*
X274685Y108152D01*
X275079Y108101D01*
Y107132D01*
X279016D01*
Y111068D01*
D02*
G37*
G36*
X290719D02*
X286388D01*
Y110011D01*
X284921D01*
Y111068D01*
X280984D01*
Y107132D01*
X284921D01*
Y108189D01*
X286388D01*
Y107132D01*
X290719D01*
Y111068D01*
D02*
G37*
G36*
X268712Y110475D02*
X268086D01*
X267507Y110235D01*
X267064Y109792D01*
X266824Y109213D01*
Y108587D01*
X267064Y108008D01*
X267507Y107565D01*
X268086Y107325D01*
X268712D01*
X269291Y107565D01*
X269734Y108008D01*
X269974Y108587D01*
Y109213D01*
X269734Y109792D01*
X269291Y110235D01*
X268712Y110475D01*
D02*
G37*
G36*
X209925Y117334D02*
X209275D01*
X208675Y117085D01*
X208215Y116625D01*
X207966Y116025D01*
Y115375D01*
X208215Y114775D01*
X208675Y114315D01*
X208689Y114309D01*
Y109069D01*
X207488D01*
Y105131D01*
X211819D01*
Y109069D01*
X210511D01*
Y114309D01*
X210525Y114315D01*
X210985Y114775D01*
X211234Y115375D01*
Y116025D01*
X210985Y116625D01*
X210525Y117085D01*
X209925Y117334D01*
D02*
G37*
G36*
X155425D02*
X154775D01*
X154174Y117085D01*
X153715Y116625D01*
X153466Y116025D01*
Y115375D01*
X153715Y114775D01*
X154174Y114315D01*
X154189Y114309D01*
Y109069D01*
X153288D01*
Y105131D01*
X157619D01*
Y109069D01*
X156011D01*
Y114309D01*
X156026Y114315D01*
X156485Y114775D01*
X156734Y115375D01*
Y116025D01*
X156485Y116625D01*
X156026Y117085D01*
X155425Y117334D01*
D02*
G37*
G36*
X191021Y107362D02*
X187084D01*
Y102638D01*
X191021D01*
Y107362D01*
D02*
G37*
G36*
X173716D02*
X169779D01*
Y102638D01*
X173716D01*
Y107362D01*
D02*
G37*
%LPD*%
G36*
X207966Y262769D02*
X207966Y262751D01*
Y258832D01*
X211116Y258832D01*
X211176Y258463D01*
Y248135D01*
X210783Y247925D01*
X210780Y247926D01*
X210390Y248004D01*
X207902D01*
X207511Y247926D01*
X207181Y247705D01*
X206960Y247374D01*
X206958Y247364D01*
X206368D01*
X206090Y247642D01*
X205692Y247807D01*
X205686D01*
Y258832D01*
X207212D01*
Y262769D01*
X207212D01*
X207254Y263145D01*
X207924D01*
X207966Y262769D01*
D02*
G37*
G36*
X137676Y228824D02*
Y225413D01*
X131913D01*
X130000Y223500D01*
X126000Y219500D01*
X124815D01*
X124692Y219683D01*
X121875Y222501D01*
X121414Y222809D01*
X120870Y222917D01*
X120326Y222809D01*
X119865Y222501D01*
X119803Y222407D01*
X119000D01*
X118651Y222338D01*
X118356Y222140D01*
X118158Y221845D01*
X118089Y221496D01*
X118158Y221147D01*
X118356Y220852D01*
X118651Y220654D01*
X119000Y220585D01*
X119803D01*
X119865Y220491D01*
X120493Y219864D01*
X120342Y219500D01*
X115000Y219500D01*
Y223500D01*
X120500Y229000D01*
X137500D01*
X137676Y228824D01*
D02*
G37*
G36*
X241805Y227273D02*
X241833Y227248D01*
Y225065D01*
X241884Y224941D01*
X241947Y224625D01*
X242196Y224252D01*
X242569Y224002D01*
X242886Y223939D01*
X242933Y223920D01*
Y220590D01*
X245922D01*
X246658Y219855D01*
Y215066D01*
X245922Y214331D01*
X242933D01*
Y210591D01*
X245418D01*
X246651Y209358D01*
Y201143D01*
X245418Y199909D01*
X242933D01*
Y199206D01*
X239517D01*
X239366Y199332D01*
X239201Y199556D01*
Y199979D01*
X239495Y200273D01*
X239655D01*
X240053Y200437D01*
X240358Y200742D01*
X240523Y201140D01*
Y201571D01*
X240358Y201969D01*
X240053Y202273D01*
X239655Y202438D01*
X239552D01*
X239213Y202613D01*
X239201Y202802D01*
Y203129D01*
X239528Y203366D01*
X239711D01*
X240109Y203531D01*
X240414Y203836D01*
X240579Y204234D01*
Y204664D01*
X240414Y205062D01*
X240109Y205367D01*
X239711Y205532D01*
X239528D01*
X239234Y205745D01*
X239201Y205895D01*
Y206278D01*
X239528Y206516D01*
X239711D01*
X240109Y206681D01*
X240414Y206985D01*
X240579Y207383D01*
Y207814D01*
X240414Y208212D01*
X240109Y208516D01*
X239711Y208681D01*
X239528D01*
X239234Y208895D01*
X239201Y209045D01*
Y209428D01*
X239528Y209665D01*
X239711D01*
X240109Y209830D01*
X240414Y210135D01*
X240579Y210533D01*
Y210963D01*
X240414Y211361D01*
X240109Y211666D01*
X239711Y211831D01*
X239281D01*
X239270Y211826D01*
X239047Y212160D01*
X240140Y213253D01*
X240140Y213253D01*
X241744Y214857D01*
X243032D01*
X243380Y214926D01*
X243676Y215123D01*
X245225Y216673D01*
X245349Y216698D01*
X245644Y216895D01*
X245842Y217191D01*
X245911Y217539D01*
X245842Y217888D01*
X245644Y218184D01*
X245349Y218381D01*
X245000Y218451D01*
X244803D01*
X244454Y218381D01*
X244159Y218184D01*
X242654Y216679D01*
X241366D01*
X241017Y216610D01*
X240873Y216513D01*
X240555Y216774D01*
X240579Y216832D01*
Y217263D01*
X240414Y217660D01*
X240109Y217965D01*
X239711Y218130D01*
X239528D01*
X239234Y218344D01*
X239201Y218494D01*
Y218877D01*
X239528Y219114D01*
X239711D01*
X240109Y219279D01*
X240414Y219584D01*
X240579Y219982D01*
Y220412D01*
X240414Y220810D01*
X240109Y221115D01*
X239711Y221280D01*
X239528D01*
X239234Y221493D01*
X239201Y221643D01*
Y222026D01*
X239528Y222264D01*
X239711D01*
X240109Y222429D01*
X240414Y222733D01*
X240579Y223131D01*
Y223562D01*
X240414Y223960D01*
X240109Y224264D01*
X239711Y224429D01*
X239528D01*
X239234Y224643D01*
X239201Y224793D01*
Y225176D01*
X239528Y225413D01*
X239711D01*
X240109Y225578D01*
X240414Y225883D01*
X240579Y226281D01*
Y226711D01*
X240566Y226743D01*
X240691Y227024D01*
X240816Y227168D01*
X240864Y227187D01*
X241181Y227251D01*
X241439Y227423D01*
X241805Y227273D01*
D02*
G37*
G36*
X142500Y239000D02*
Y232500D01*
X142000Y232000D01*
X120500D01*
Y239500D01*
X142000D01*
X142500Y239000D01*
D02*
G37*
G36*
X137500Y153000D02*
Y143500D01*
X142500Y138500D01*
Y130500D01*
X141500Y129500D01*
X138500D01*
X137500Y130500D01*
Y134500D01*
X133000Y139000D01*
X125500D01*
Y155000D01*
X129134D01*
X132108Y152026D01*
X132151Y151810D01*
X132459Y151349D01*
X132528Y151279D01*
X132989Y150971D01*
X133533Y150863D01*
X134077Y150971D01*
X134538Y151279D01*
X134846Y151741D01*
X134954Y152284D01*
X134885Y152633D01*
Y152680D01*
X134777Y153223D01*
X134469Y153684D01*
X133517Y154636D01*
X133667Y155000D01*
X135500D01*
X137500Y153000D01*
D02*
G37*
G36*
X136000Y134500D02*
Y124500D01*
X137500Y123000D01*
X140000D01*
X141500Y121500D01*
Y120000D01*
X141000Y119500D01*
Y117000D01*
X141500Y116500D01*
Y115238D01*
X140140Y113878D01*
X134622D01*
X127000Y121500D01*
X125500D01*
Y137500D01*
X133000D01*
X136000Y134500D01*
D02*
G37*
G36*
X196500Y137500D02*
Y129000D01*
X195500Y128000D01*
X192000D01*
X190500Y126500D01*
X180128D01*
X180000Y126628D01*
Y143000D01*
X191000D01*
X196500Y137500D01*
D02*
G37*
G36*
X192000Y123000D02*
X195500D01*
X196500Y122000D01*
Y114500D01*
X191000Y109000D01*
X184568D01*
Y112571D01*
X184460Y113115D01*
X184152Y113576D01*
X184023Y113705D01*
X183562Y114013D01*
X183018Y114121D01*
X182474Y114013D01*
X182013Y113705D01*
X181705Y113244D01*
X181597Y112700D01*
X181705Y112156D01*
X181726Y112125D01*
Y109000D01*
X180092D01*
X180065Y109065D01*
Y125537D01*
X189463D01*
X192000Y123000D01*
D02*
G37*
G36*
X300776Y145724D02*
Y141776D01*
X299000Y140000D01*
X297730D01*
Y140181D01*
X297661Y140530D01*
X297463Y140825D01*
X293644Y144644D01*
X293349Y144842D01*
X293000Y144911D01*
X292651Y144842D01*
X292356Y144644D01*
X292158Y144349D01*
X292089Y144000D01*
X292158Y143651D01*
X292356Y143356D01*
X295348Y140364D01*
X295197Y140000D01*
X260500D01*
X259500Y139000D01*
Y126500D01*
X247500Y114500D01*
X222000D01*
Y130468D01*
X222031Y130500D01*
X246500D01*
X250000Y134000D01*
Y145000D01*
X251500Y146500D01*
X300000D01*
X300776Y145724D01*
D02*
G37*
D12*
X190677Y196575D02*
X192207Y195045D01*
X195447D01*
X196976Y196575D01*
X130447Y194730D02*
X132028Y193150D01*
X128228Y194730D02*
X130447D01*
X125970Y196988D02*
X128228Y194730D01*
X125970Y196988D02*
Y199691D01*
X127303Y201024D01*
X217736Y253598D02*
Y253900D01*
X206425Y221772D02*
X208045Y223392D01*
Y232045D01*
X213600Y237600D02*
Y249462D01*
X217736Y253598D01*
X208045Y232045D02*
X213600Y237600D01*
X196976Y163194D02*
Y165079D01*
Y163194D02*
X198831Y161339D01*
X237555D01*
X240638Y158256D01*
Y155971D02*
Y158256D01*
Y155971D02*
X243942Y152667D01*
X276667D01*
X278000Y154000D01*
X193827Y165079D02*
X198460Y160446D01*
X237185D01*
X239745Y157886D01*
Y155601D02*
Y157886D01*
Y155601D02*
X243572Y151774D01*
X280774D01*
X283000Y154000D01*
D13*
X128874Y177402D02*
X128878D01*
X182803Y176102D02*
X184378Y177677D01*
X154075Y183701D02*
X155650Y182126D01*
X176504Y188701D02*
X178079Y190276D01*
X185953Y185551D02*
X187528Y187126D01*
X193827Y174528D02*
X196976Y177677D01*
X200126Y180827D01*
X201701Y169803D02*
X203276Y171378D01*
X196976Y183976D02*
X200126Y187126D01*
X201701Y188701D01*
X196976Y190276D02*
X198551Y191850D01*
Y191850D01*
X200126Y193425D01*
X203276Y183976D02*
X203276D01*
X206425Y187126D01*
X203276Y190276D02*
X206425D01*
Y187126D02*
Y190276D01*
X201701Y188701D02*
X203276Y190276D01*
X209575D02*
X212724Y187126D01*
X149350Y207323D02*
X150925Y208898D01*
Y205748D02*
X152500Y207323D01*
X154075Y202598D02*
X155650Y201024D01*
X133602Y213622D02*
X135177Y215197D01*
X128871Y215204D02*
X128878Y215197D01*
X182803Y210748D02*
X184378Y209173D01*
X154075Y218347D02*
X155650Y219921D01*
X200126Y193425D02*
X203276D01*
X196976Y196575D02*
X200126Y193425D01*
X196976Y202874D02*
Y202874D01*
Y202874D02*
X200126Y199724D01*
X203276Y193425D02*
X206425Y196575D01*
X209575D02*
X212724Y199724D01*
X203276Y202874D02*
X203276D01*
X209575D02*
X209575D01*
X195402Y210748D02*
X196976Y209173D01*
X201701Y220197D02*
X203276Y218622D01*
X198551Y226496D02*
X200126Y224921D01*
X206425Y206024D02*
Y209173D01*
X204850Y210748D02*
X206425Y209173D01*
Y212323D01*
X203276Y202874D02*
X206425Y206024D01*
X209575Y202874D02*
X212724Y206024D01*
X228472Y183976D02*
X230047Y182402D01*
X212724Y193425D02*
X215874Y190276D01*
X219024Y187126D01*
X212724Y199724D02*
X215874Y202874D01*
X217449Y204449D01*
X219024Y187126D02*
X220598Y185551D01*
X219024Y187126D02*
Y187126D01*
X225323Y206024D02*
X226898Y207598D01*
X234772Y202874D02*
X236347Y204449D01*
X123760Y215211D02*
X123767Y215204D01*
X128871D01*
X212724Y206024D02*
X212728D01*
X214303Y207598D01*
X214307D01*
X222173Y165079D02*
X223748Y163504D01*
X212724Y168228D02*
X214299Y166654D01*
X185953Y220197D02*
X187528Y218622D01*
X234772Y171378D02*
X236347Y169803D01*
X225323Y174528D02*
X226898Y172953D01*
X237921Y180827D02*
X239496Y179252D01*
X231622Y224921D02*
X233197Y226496D01*
X209575Y221772D02*
X211150Y223346D01*
X237921Y212323D02*
X239496Y213898D01*
X215874Y196575D02*
X217449Y198150D01*
X231622Y193425D02*
X233197Y191850D01*
X206425Y196575D02*
X209575D01*
X212724Y187126D02*
X214299Y185551D01*
X214299D02*
X215874Y183976D01*
X214299Y185551D02*
X214299D01*
X211150Y182402D02*
X211150D01*
X209575Y183976D02*
X211150Y182402D01*
X211150D02*
X215874Y177677D01*
X200126Y180827D02*
X201701Y182402D01*
X203276Y183976D01*
X150925Y193150D02*
X152500Y191575D01*
X150925Y199449D02*
X152500Y201024D01*
X206425Y196575D02*
X206425D01*
X201701Y191850D02*
X203276Y193425D01*
X204850Y198150D02*
X206425Y196575D01*
X219024Y218622D02*
X220598Y220197D01*
X195402Y204449D02*
X196976Y202874D01*
X179654Y201303D02*
Y201307D01*
Y201303D02*
X181228Y199728D01*
Y199724D02*
Y199728D01*
X189102Y163504D02*
X190677Y165079D01*
X179654Y169803D02*
X181228Y168228D01*
X222173Y196575D02*
X223748Y198150D01*
X154075Y171102D02*
X154083Y171095D01*
X156305D01*
X157232Y172022D01*
Y174244D01*
X154075Y177402D02*
X157232Y174244D01*
X154075Y177402D02*
X154083Y177394D01*
X156305D01*
X157232Y178321D01*
Y180543D01*
X155650Y182126D02*
X157232Y180543D01*
X239496Y213898D02*
X241366Y215768D01*
X228472Y215472D02*
X230047Y217047D01*
X119000Y208504D02*
X120665Y206839D01*
X127557D01*
X128648Y205748D01*
X128878D01*
X127303Y201024D02*
X128878Y199449D01*
X152500Y201024D02*
X155650D01*
X155650Y201024D01*
X154075Y215197D02*
X154083Y215205D01*
Y218339D01*
X154075Y218347D02*
X154083Y218339D01*
X173500Y226350D02*
Y226500D01*
Y226350D02*
X178079Y221772D01*
X233197Y226496D02*
Y226598D01*
X234453Y227854D01*
Y233900D01*
X241366Y215768D02*
X243032D01*
X244803Y217539D01*
X245000D01*
X154075Y199449D02*
X154075D01*
X152500Y201024D02*
X154075Y199449D01*
X293000Y144000D02*
X296819Y140181D01*
Y124846D02*
Y140181D01*
X295247Y123274D02*
X296819Y124846D01*
X295247Y109100D02*
Y123274D01*
X198354Y260800D02*
X198550D01*
X201806Y264056D01*
X267944D01*
X293000Y239000D01*
X241400Y232636D02*
Y235536D01*
X240874Y232110D02*
X241400Y232636D01*
X240874Y232008D02*
Y232110D01*
X198543Y266200D02*
X270800D01*
X193143Y260800D02*
X198543Y266200D01*
X270800D02*
X298000Y239000D01*
X192947Y260800D02*
X193143D01*
X126035Y203000D02*
X127201Y204165D01*
X127303D01*
X121961Y203000D02*
X126035D01*
X127307Y204169D02*
X128878Y202598D01*
X234772Y218622D02*
X236347Y220197D01*
X154075Y180551D02*
X155650Y178976D01*
X154075Y174252D02*
X155650Y172677D01*
X156055Y128348D02*
Y128716D01*
X155383Y129389D02*
Y130417D01*
Y129389D02*
X156055Y128716D01*
X155100Y130700D02*
X155383Y130417D01*
X155100Y120700D02*
X157500Y123100D01*
X149682D02*
X157500D01*
X147497Y125285D02*
X149682Y123100D01*
X228472Y199724D02*
X230047Y201299D01*
X154075Y208898D02*
Y212047D01*
X217449Y226496D02*
Y237181D01*
X216913Y237716D02*
X217449Y237181D01*
X216913Y237716D02*
Y249284D01*
X218672Y251042D01*
X220509D01*
X223064Y253598D01*
Y253900D01*
X199600Y120700D02*
X202000Y123100D01*
Y128300D02*
X205018D01*
X201615Y201385D02*
X203276Y199724D01*
X195402Y201299D02*
X196976Y199724D01*
X193827Y180827D02*
X195402Y182402D01*
X195402Y188701D02*
X196976Y187126D01*
X185953Y169803D02*
X187528Y171378D01*
X265600Y131000D02*
X267800D01*
X264220Y132380D02*
X265600Y131000D01*
X264220Y132380D02*
Y134817D01*
X263037Y136000D02*
X264220Y134817D01*
X204850Y163504D02*
X206425Y165079D01*
X127303Y182024D02*
Y182126D01*
X127059Y181780D02*
X127303Y182024D01*
X127059Y176071D02*
Y181780D01*
Y176071D02*
X128878Y174252D01*
X189102Y179252D02*
X190677Y180827D01*
X198543Y207598D02*
X198547D01*
X200122Y206024D02*
X200126D01*
X198547Y207598D02*
X200122Y206024D01*
X189102Y213898D02*
X190677Y212323D01*
X192252Y223346D02*
X193827Y221772D01*
X212724Y196575D02*
X214299Y198150D01*
X215874Y199724D01*
X209575Y187118D02*
Y187126D01*
X211134Y185551D02*
Y185559D01*
X209575Y187118D02*
X211134Y185559D01*
X206417Y199724D02*
X206425D01*
X204842Y201299D02*
X206417Y199724D01*
X204835Y201299D02*
X204842D01*
X208000D02*
X209575Y199724D01*
X231622Y209173D02*
X233197Y210748D01*
X212724Y190276D02*
X214299Y188701D01*
X211000Y232800D02*
X211900Y233700D01*
X203276Y206024D02*
X203276D01*
X198551Y210748D02*
X200126Y209173D01*
X203276Y206024D01*
X219024Y171378D02*
X220598Y169803D01*
X215874Y224921D02*
X217449Y226496D01*
X195402Y191850D02*
X196976Y193425D01*
X198551Y182402D02*
X200126Y183976D01*
X195402Y207598D02*
X196976Y206024D01*
Y180827D02*
X198551Y182402D01*
Y182402D01*
Y198150D02*
X200126Y196575D01*
X198551Y188701D02*
X200126Y190276D01*
Y202874D02*
X203276Y206024D01*
X225323Y221772D02*
X226898Y223346D01*
X222173Y212323D02*
X223748Y213898D01*
X212724Y215472D02*
X214299Y217047D01*
X195402D02*
X196976Y215472D01*
X228634Y233987D02*
Y240252D01*
X228547Y233900D02*
X228634Y233987D01*
Y240252D02*
X229145Y239741D01*
X235500D01*
X127303Y182126D02*
X128878Y180551D01*
X130453Y197874D02*
X132028Y196299D01*
Y190000D02*
X133602Y188425D01*
X147776Y199449D02*
X149350Y201024D01*
X150925Y190000D02*
X152500Y188425D01*
X154075Y196299D02*
X155650Y197874D01*
X124685Y212047D02*
X128878D01*
X128878D01*
X122177Y214555D02*
Y216778D01*
X123760Y218360D01*
X122177Y214555D02*
X124685Y212047D01*
X123760Y218360D02*
X123767Y218353D01*
X128871D02*
X128878Y218347D01*
X123767Y218353D02*
X128871D01*
X128878Y212047D02*
X132028Y208898D01*
X154075Y205748D02*
X155650Y207323D01*
X154075Y208898D02*
X155650Y210472D01*
X128878Y212047D02*
X132028Y215197D01*
X150925Y218347D02*
X152500Y219921D01*
X176504Y172953D02*
X178079Y174528D01*
X179654Y182402D02*
X181228Y183976D01*
X182803Y191850D02*
X184378Y193425D01*
X185953Y204449D02*
X187528Y202874D01*
X176602Y207402D02*
X177980Y206024D01*
X176504Y207402D02*
X176602D01*
X177980Y206024D02*
X178079D01*
X182803Y226496D02*
X184378Y224921D01*
X123688Y218432D02*
X123760Y218360D01*
X123688Y218432D02*
Y218679D01*
X119000Y221496D02*
X120870D01*
X120400Y182247D02*
X120521Y182126D01*
X127303D01*
X179654Y217047D02*
X181228Y215472D01*
X219024Y202874D02*
X220598Y204449D01*
X225323Y190276D02*
X226898Y188701D01*
X204700Y156937D02*
X204791Y156846D01*
X209918D02*
X210400Y156364D01*
X204791Y156846D02*
X209918D01*
X217100Y156653D02*
X225776D01*
X226000Y156429D01*
X228472Y168228D02*
X230047Y166654D01*
X222173Y180827D02*
X223748Y179252D01*
X244449Y163504D02*
X245106Y162847D01*
X245500Y163240D01*
Y168047D01*
X210400Y156364D02*
X216811D01*
X217100Y156653D01*
X177996Y154000D02*
X182150D01*
X184803Y156653D01*
X185000D01*
X239496Y163504D02*
X244449D01*
X231622Y177677D02*
X233197Y176102D01*
X234772Y187126D02*
X236347Y185551D01*
X237921Y165079D02*
X239496Y163504D01*
X198551Y176102D02*
X200126Y177677D01*
X209575Y174528D02*
X211150Y172953D01*
X151647Y152700D02*
X151747Y152600D01*
X195402Y166654D02*
X196976Y168228D01*
X192252Y198142D02*
X192256D01*
X193823Y196575D01*
X193827D01*
X212724Y183976D02*
X214299Y182402D01*
X215874Y180827D01*
X212724Y196575D02*
X215874Y193425D01*
X214299Y188701D02*
X215874Y187126D01*
X212724Y196575D02*
X212724D01*
X212724Y202874D02*
X214299Y204449D01*
X214299D01*
X215874Y206024D01*
X206425Y202874D02*
X209575Y206024D01*
Y206028D01*
X211142Y207594D02*
Y207598D01*
X209575Y206028D02*
X211142Y207594D01*
X209575Y193425D02*
X211150Y191850D01*
X201701Y185551D02*
X203276Y187126D01*
Y180827D02*
X206425Y183976D01*
X201701Y179252D02*
X203276Y180827D01*
X211900Y233700D02*
X214744D01*
X209600Y130700D02*
X212000Y128300D01*
X142700Y118300D02*
X145100Y120700D01*
X142700Y128300D02*
X145100Y130700D01*
X142700Y128300D02*
X145518D01*
X147497Y126321D01*
Y125285D02*
Y126321D01*
X209600Y120700D02*
X212000Y123100D01*
X199600Y130700D02*
X202000Y128300D01*
X205018D02*
X206997Y126321D01*
Y125285D02*
Y126321D01*
Y125285D02*
X209182Y123100D01*
X212000D01*
X228634Y246748D02*
X233217D01*
X235106Y244859D01*
X235500D01*
X220256Y233700D02*
Y240142D01*
X220366Y240252D01*
X160264Y243375D02*
X160364Y243275D01*
X163500D01*
X166636D01*
X166736Y243375D01*
X155100Y144147D02*
X155254Y144300D01*
X155100Y135700D02*
Y144147D01*
Y107454D02*
X155454Y107100D01*
X155100Y107454D02*
Y115700D01*
X152700Y128100D02*
X155100Y125700D01*
X209600Y143850D02*
X209650Y143900D01*
X209600Y135700D02*
Y143850D01*
Y107153D02*
Y115700D01*
Y107153D02*
X209653Y107100D01*
X284134Y136000D02*
X294153D01*
X282953Y109100D02*
X288554D01*
X273406D02*
X277047D01*
X150100Y135700D02*
Y144353D01*
X149953Y144500D02*
X150100Y144353D01*
Y106953D02*
X150153Y106900D01*
X150100Y106953D02*
Y115700D01*
X204600Y135700D02*
Y143753D01*
X203953Y144400D02*
X204600Y143753D01*
X204253Y106900D02*
X204600Y107247D01*
Y115700D01*
X267963Y136000D02*
X271500D01*
X275866D01*
X172429Y236724D02*
X178476D01*
X192246Y185545D02*
X193827Y187126D01*
X193819Y177685D02*
X193827Y177677D01*
X193819Y180819D02*
X193827Y180827D01*
X193819Y177685D02*
Y180819D01*
X211142Y210740D02*
Y210740D01*
X209575Y209173D02*
X209575D01*
X211142Y210740D01*
D14*
X193827Y199724D02*
D03*
X190677Y174528D02*
D03*
X203276D02*
D03*
Y177677D02*
D03*
X181228Y168228D02*
D03*
X184378Y177677D02*
D03*
X178079Y190276D02*
D03*
X187528Y187126D02*
D03*
X190677Y165079D02*
D03*
X193827Y174528D02*
D03*
X196976Y177677D02*
D03*
X212724Y168228D02*
D03*
X203276Y171378D02*
D03*
X200126Y180827D02*
D03*
X212724D02*
D03*
X196976Y183976D02*
D03*
X200126Y187126D02*
D03*
X196976Y190276D02*
D03*
X203276Y183976D02*
D03*
X209575D02*
D03*
X206425Y190276D02*
D03*
X203276D02*
D03*
X206425Y187126D02*
D03*
X212724D02*
D03*
X209575Y190276D02*
D03*
X181228Y199724D02*
D03*
X184378Y209173D02*
D03*
X178079Y221772D02*
D03*
X190677Y196575D02*
D03*
X200126Y193425D02*
D03*
X196976Y196575D02*
D03*
Y202874D02*
D03*
X200126Y199724D02*
D03*
X203276Y202874D02*
D03*
Y193425D02*
D03*
X206425Y196575D02*
D03*
X212724Y193425D02*
D03*
X209575Y196575D02*
D03*
X212724Y199724D02*
D03*
X209575Y202874D02*
D03*
X187528Y218622D02*
D03*
X196976Y209173D02*
D03*
X203276Y218622D02*
D03*
X200126Y224921D02*
D03*
X206425Y209173D02*
D03*
X212724Y206024D02*
D03*
X206425D02*
D03*
Y212323D02*
D03*
X209575Y221772D02*
D03*
X215874Y177677D02*
D03*
Y183976D02*
D03*
X222173Y165079D02*
D03*
X225323Y174528D02*
D03*
X228472Y183976D02*
D03*
X215874Y196575D02*
D03*
X219024Y187126D02*
D03*
X215874Y190276D02*
D03*
Y202874D02*
D03*
X222173Y196575D02*
D03*
X225323Y206024D02*
D03*
X219024Y218622D02*
D03*
X228472Y215472D02*
D03*
X234772Y171378D02*
D03*
X231622Y193425D02*
D03*
X234772Y202874D02*
D03*
X231622Y224921D02*
D03*
X237921Y212323D02*
D03*
Y180827D02*
D03*
X190677Y177677D02*
D03*
X200126Y218622D02*
D03*
X203276Y215472D02*
D03*
X196976Y218622D02*
D03*
X203276Y196575D02*
D03*
X206425Y193425D02*
D03*
X200126Y206024D02*
D03*
X196976Y180827D02*
D03*
X200126Y183976D02*
D03*
X196976Y187126D02*
D03*
Y193425D02*
D03*
Y199724D02*
D03*
Y206024D02*
D03*
X200126Y190276D02*
D03*
Y196575D02*
D03*
Y202874D02*
D03*
X203276Y206024D02*
D03*
X200126Y209173D02*
D03*
X215874Y224921D02*
D03*
X225323Y221772D02*
D03*
X212724Y215472D02*
D03*
X222173Y212323D02*
D03*
X196976Y215472D02*
D03*
X193827Y221772D02*
D03*
X178079Y174528D02*
D03*
X181228Y183976D02*
D03*
X187528Y171378D02*
D03*
X190677Y180827D02*
D03*
X184378Y193425D02*
D03*
X187528Y202874D02*
D03*
X178079Y206024D02*
D03*
X181228Y215472D02*
D03*
X184378Y224921D02*
D03*
X190677Y212323D02*
D03*
X225323Y190276D02*
D03*
X237921Y196575D02*
D03*
X228472Y199724D02*
D03*
X219024Y202874D02*
D03*
X231622Y209173D02*
D03*
X234772Y218622D02*
D03*
X219024Y171378D02*
D03*
X222173Y180827D02*
D03*
X228472Y168228D02*
D03*
X231622Y177677D02*
D03*
X234772Y187126D02*
D03*
X237921Y165079D02*
D03*
X206425D02*
D03*
X196976Y168228D02*
D03*
X209575Y174528D02*
D03*
X200126Y177677D02*
D03*
X193827Y196575D02*
D03*
X212724Y183976D02*
D03*
Y190276D02*
D03*
X215874Y180827D02*
D03*
Y187126D02*
D03*
Y193425D02*
D03*
X212724Y196575D02*
D03*
Y202874D02*
D03*
X215874Y206024D02*
D03*
Y199724D02*
D03*
X206425Y202874D02*
D03*
X209575Y206024D02*
D03*
X203276Y180827D02*
D03*
X206425Y183976D02*
D03*
X209575Y187126D02*
D03*
X203276D02*
D03*
X209575Y193425D02*
D03*
Y199724D02*
D03*
X206425Y221772D02*
D03*
X222173D02*
D03*
X215874Y209173D02*
D03*
X203276Y224921D02*
D03*
X212724Y212323D02*
D03*
X228472Y218622D02*
D03*
X219024Y215472D02*
D03*
X190677Y224921D02*
D03*
X193827D02*
D03*
X196976Y221772D02*
D03*
X193827Y215472D02*
D03*
X200126Y221772D02*
D03*
X196976Y224921D02*
D03*
X209575Y218622D02*
D03*
X206425D02*
D03*
X203276Y221772D02*
D03*
X215874D02*
D03*
X212724Y218622D02*
D03*
Y221772D02*
D03*
X219024D02*
D03*
X225323Y215472D02*
D03*
X231622Y218622D02*
D03*
X215874Y212323D02*
D03*
X206425Y224921D02*
D03*
X209575D02*
D03*
X212724Y209173D02*
D03*
Y224921D02*
D03*
X222173Y215472D02*
D03*
X219024Y224921D02*
D03*
X225323Y212323D02*
D03*
X222173Y218622D02*
D03*
X215874D02*
D03*
X225323D02*
D03*
X215874Y215472D02*
D03*
X222173Y224921D02*
D03*
Y209173D02*
D03*
X225323Y224921D02*
D03*
X209575Y215472D02*
D03*
X228472Y221772D02*
D03*
X219024Y209173D02*
D03*
X228472Y224921D02*
D03*
X206425Y215472D02*
D03*
X231622Y221772D02*
D03*
X219024Y212323D02*
D03*
X234772Y224921D02*
D03*
X190677Y218622D02*
D03*
X200126Y212323D02*
D03*
X193827Y218622D02*
D03*
X203276Y212323D02*
D03*
X190677Y221772D02*
D03*
Y215472D02*
D03*
X200126D02*
D03*
X193827Y212323D02*
D03*
X190677Y190276D02*
D03*
X193827Y202874D02*
D03*
Y183976D02*
D03*
X187528Y221772D02*
D03*
Y183976D02*
D03*
X190677Y187126D02*
D03*
X181228Y206024D02*
D03*
Y209173D02*
D03*
Y218622D02*
D03*
Y221772D02*
D03*
X178079Y209173D02*
D03*
Y224921D02*
D03*
Y199724D02*
D03*
Y202874D02*
D03*
X181228D02*
D03*
X184378Y199724D02*
D03*
Y202874D02*
D03*
Y206024D02*
D03*
Y212323D02*
D03*
X181228D02*
D03*
X178079D02*
D03*
Y218622D02*
D03*
Y215472D02*
D03*
X184378D02*
D03*
X187528Y224921D02*
D03*
X181228D02*
D03*
X184378Y221772D02*
D03*
Y218622D02*
D03*
X178079Y187126D02*
D03*
X184378D02*
D03*
X181228Y193425D02*
D03*
Y190276D02*
D03*
X190677Y183976D02*
D03*
Y199724D02*
D03*
X187528Y180827D02*
D03*
X190677Y193425D02*
D03*
X187528Y209173D02*
D03*
Y215472D02*
D03*
Y212323D02*
D03*
Y206024D02*
D03*
X190677Y209173D02*
D03*
X187528Y199724D02*
D03*
X178079Y196575D02*
D03*
X187528D02*
D03*
Y193425D02*
D03*
X178079D02*
D03*
X187528Y190276D02*
D03*
X184378Y196575D02*
D03*
Y190276D02*
D03*
X181228Y196575D02*
D03*
Y187126D02*
D03*
X196976Y212323D02*
D03*
X231622Y174528D02*
D03*
X209575Y212323D02*
D03*
X193827Y190276D02*
D03*
Y193425D02*
D03*
X206425Y180827D02*
D03*
X190677Y206024D02*
D03*
Y202874D02*
D03*
X193827Y209173D02*
D03*
Y206024D02*
D03*
X203276Y209173D02*
D03*
X209575Y180827D02*
D03*
X234772Y174528D02*
D03*
X225323Y196575D02*
D03*
Y199724D02*
D03*
X219024Y190276D02*
D03*
X222173D02*
D03*
X219024Y193425D02*
D03*
X222173D02*
D03*
Y187126D02*
D03*
X225323D02*
D03*
X219024Y196575D02*
D03*
Y199724D02*
D03*
X222173Y202874D02*
D03*
Y206024D02*
D03*
X234772D02*
D03*
X237921D02*
D03*
Y199724D02*
D03*
Y202874D02*
D03*
X228472Y206024D02*
D03*
X231622D02*
D03*
X234772Y209173D02*
D03*
X237921D02*
D03*
X231622Y199724D02*
D03*
Y202874D02*
D03*
X225323D02*
D03*
X228472D02*
D03*
Y196575D02*
D03*
X231622D02*
D03*
X225323Y193425D02*
D03*
X228472D02*
D03*
X234772Y196575D02*
D03*
Y199724D02*
D03*
Y193425D02*
D03*
X237921D02*
D03*
X228472Y190276D02*
D03*
X231622D02*
D03*
X234772D02*
D03*
X237921D02*
D03*
X225323Y209173D02*
D03*
X228472D02*
D03*
X231622Y212323D02*
D03*
X234772D02*
D03*
Y215472D02*
D03*
X237921D02*
D03*
X228472Y212323D02*
D03*
X231622Y215472D02*
D03*
X234772Y221772D02*
D03*
X237921Y224921D02*
D03*
Y218622D02*
D03*
Y221772D02*
D03*
X219024Y206024D02*
D03*
X222173Y199724D02*
D03*
X234772Y177677D02*
D03*
X222173Y183976D02*
D03*
X225323D02*
D03*
X228472Y187126D02*
D03*
X231622Y183976D02*
D03*
Y168228D02*
D03*
X234772D02*
D03*
X228472Y171378D02*
D03*
X231622D02*
D03*
X228472Y177677D02*
D03*
X231622Y180827D02*
D03*
X225323D02*
D03*
X228472D02*
D03*
X225323Y171378D02*
D03*
Y168228D02*
D03*
X231622Y165079D02*
D03*
X234772D02*
D03*
X237921Y171378D02*
D03*
Y168228D02*
D03*
Y177677D02*
D03*
Y174528D02*
D03*
Y187126D02*
D03*
Y183976D02*
D03*
X231622Y187126D02*
D03*
X234772Y183976D02*
D03*
X219024Y174528D02*
D03*
X222173D02*
D03*
Y171378D02*
D03*
Y168228D02*
D03*
X225323Y177677D02*
D03*
X228472Y174528D02*
D03*
X219024Y168228D02*
D03*
Y165079D02*
D03*
X225323D02*
D03*
X228472D02*
D03*
X219024Y183976D02*
D03*
Y180827D02*
D03*
Y177677D02*
D03*
X222173D02*
D03*
X212724Y171378D02*
D03*
X215874Y168228D02*
D03*
Y174528D02*
D03*
Y171378D02*
D03*
X212724Y177677D02*
D03*
Y174528D02*
D03*
X209575Y177677D02*
D03*
X206425D02*
D03*
X234772Y180827D02*
D03*
X193827Y171378D02*
D03*
Y168228D02*
D03*
X209575Y171378D02*
D03*
X206425D02*
D03*
X212724Y165079D02*
D03*
X215874D02*
D03*
X209575Y168228D02*
D03*
Y165079D02*
D03*
X200126Y174528D02*
D03*
X206425Y168228D02*
D03*
X203276D02*
D03*
X200126Y171378D02*
D03*
Y168228D02*
D03*
X203276Y165079D02*
D03*
X200126D02*
D03*
X196976D02*
D03*
X193827D02*
D03*
X206425Y174528D02*
D03*
X196976D02*
D03*
Y171378D02*
D03*
X190677D02*
D03*
X206425Y199724D02*
D03*
X193827Y187126D02*
D03*
Y180827D02*
D03*
Y177677D02*
D03*
X203276Y199724D02*
D03*
X209575Y209173D02*
D03*
X187528Y165079D02*
D03*
X184378D02*
D03*
X181228D02*
D03*
X178079D02*
D03*
X190677Y168228D02*
D03*
X187528D02*
D03*
X184378D02*
D03*
X178079D02*
D03*
X184378Y171378D02*
D03*
X181228D02*
D03*
X178079D02*
D03*
X187528Y174528D02*
D03*
X184378D02*
D03*
X181228D02*
D03*
X187528Y177677D02*
D03*
X181228D02*
D03*
X178079D02*
D03*
X184378Y180827D02*
D03*
X181228D02*
D03*
X178079D02*
D03*
X184378Y183976D02*
D03*
X178079D02*
D03*
D15*
X117982Y125200D02*
D03*
Y142600D02*
D03*
Y133900D02*
D03*
Y151300D02*
D03*
X172782Y130500D02*
D03*
Y121600D02*
D03*
Y112700D02*
D03*
Y139400D02*
D03*
X128218Y142600D02*
D03*
Y151300D02*
D03*
X183018Y121600D02*
D03*
Y112700D02*
D03*
Y139400D02*
D03*
Y130500D02*
D03*
X128218Y125200D02*
D03*
Y133900D02*
D03*
D16*
X144247Y106900D02*
D03*
X144047Y144500D02*
D03*
X198347Y106900D02*
D03*
X198047Y144400D02*
D03*
X166524Y236724D02*
D03*
X234453Y233900D02*
D03*
X228547D02*
D03*
X149953Y144500D02*
D03*
X150153Y106900D02*
D03*
X203953Y144400D02*
D03*
X204253Y106900D02*
D03*
X172429Y236724D02*
D03*
D17*
X145100Y125700D02*
D03*
X160100Y120700D02*
D03*
Y125700D02*
D03*
X140100D02*
D03*
X160100Y130700D02*
D03*
X214600D02*
D03*
Y120700D02*
D03*
Y125700D02*
D03*
X199600D02*
D03*
X194600D02*
D03*
X199600Y135700D02*
D03*
X204600Y130700D02*
D03*
Y120700D02*
D03*
X199600Y115700D02*
D03*
X145100Y135700D02*
D03*
X150100Y130700D02*
D03*
Y120700D02*
D03*
X145100Y115700D02*
D03*
X155100Y130700D02*
D03*
X145100Y120700D02*
D03*
X209600Y130700D02*
D03*
X155100Y120700D02*
D03*
X145100Y130700D02*
D03*
X199600D02*
D03*
X209600Y120700D02*
D03*
X155100Y135700D02*
D03*
Y115700D02*
D03*
Y125700D02*
D03*
X209600Y135700D02*
D03*
Y115700D02*
D03*
X150100Y135700D02*
D03*
Y115700D02*
D03*
X204600Y135700D02*
D03*
Y115700D02*
D03*
X199600Y120700D02*
D03*
X140100Y135700D02*
D03*
Y130700D02*
D03*
X194600Y120700D02*
D03*
Y115700D02*
D03*
Y130700D02*
D03*
Y135700D02*
D03*
X140100Y115700D02*
D03*
Y120700D02*
D03*
X214600Y115700D02*
D03*
X209600Y125700D02*
D03*
X204600D02*
D03*
X214600Y135700D02*
D03*
X160100D02*
D03*
X150100Y125700D02*
D03*
X160100Y115700D02*
D03*
D18*
X162146Y107100D02*
D03*
X161946Y144300D02*
D03*
X300847Y136000D02*
D03*
X216347Y107100D02*
D03*
X295247Y109100D02*
D03*
X198354Y260800D02*
D03*
X192947D02*
D03*
X186253D02*
D03*
X205047D02*
D03*
X155254Y144300D02*
D03*
X155454Y107100D02*
D03*
X209653D02*
D03*
X294153Y136000D02*
D03*
X288554Y109100D02*
D03*
D19*
X185000Y150747D02*
D03*
X122300Y243653D02*
D03*
X129000D02*
D03*
X217100Y150747D02*
D03*
X122300Y227547D02*
D03*
X129000D02*
D03*
X185000Y156653D02*
D03*
X217100D02*
D03*
X122300Y237747D02*
D03*
X129000D02*
D03*
X122300Y233453D02*
D03*
X129000D02*
D03*
D20*
X128878Y171102D02*
D03*
Y177402D02*
D03*
Y183701D02*
D03*
X154075Y171102D02*
D03*
Y177402D02*
D03*
Y183701D02*
D03*
X132028Y193150D02*
D03*
X150925D02*
D03*
X128878Y199449D02*
D03*
X150925D02*
D03*
X132028Y205748D02*
D03*
X150925D02*
D03*
X128878D02*
D03*
X154075Y199449D02*
D03*
X150925Y208898D02*
D03*
X154075Y202598D02*
D03*
X128878Y208898D02*
D03*
Y215197D02*
D03*
X135177D02*
D03*
X154075D02*
D03*
Y218347D02*
D03*
X128878Y180551D02*
D03*
Y174252D02*
D03*
Y202598D02*
D03*
X132028Y190000D02*
D03*
Y196299D02*
D03*
X147776Y199449D02*
D03*
X154075Y174252D02*
D03*
X150925Y190000D02*
D03*
X154075Y180551D02*
D03*
Y196299D02*
D03*
X128878Y212047D02*
D03*
X154075Y208898D02*
D03*
Y205748D02*
D03*
X132028Y208898D02*
D03*
Y215197D02*
D03*
X128878Y218347D02*
D03*
X150925D02*
D03*
X154075Y212047D02*
D03*
X135177Y186850D02*
D03*
X128878Y196299D02*
D03*
X150925Y183701D02*
D03*
X132028Y171102D02*
D03*
X135177Y193150D02*
D03*
X128878Y190000D02*
D03*
X147776Y212047D02*
D03*
Y215197D02*
D03*
X135177Y202598D02*
D03*
Y199449D02*
D03*
Y208898D02*
D03*
X147776Y205748D02*
D03*
X135177Y218347D02*
D03*
X150925Y215197D02*
D03*
X132028Y218347D02*
D03*
X147776D02*
D03*
X132028Y212047D02*
D03*
X150925D02*
D03*
X135177D02*
D03*
X147776Y208898D02*
D03*
Y196299D02*
D03*
X132028Y199449D02*
D03*
X150925Y196299D02*
D03*
X135177D02*
D03*
X150925Y202598D02*
D03*
X132028D02*
D03*
X147776D02*
D03*
X135177Y205748D02*
D03*
X132028Y186850D02*
D03*
X154075Y190000D02*
D03*
X147776Y193150D02*
D03*
Y190000D02*
D03*
X135177D02*
D03*
Y183701D02*
D03*
X150925Y180551D02*
D03*
X132028Y183701D02*
D03*
X147776Y171102D02*
D03*
X135177D02*
D03*
X147776Y180551D02*
D03*
Y174252D02*
D03*
Y186850D02*
D03*
X135177Y174252D02*
D03*
X150925Y171102D02*
D03*
X132028Y174252D02*
D03*
X150925D02*
D03*
X132028Y177402D02*
D03*
X150925D02*
D03*
X132028Y180551D02*
D03*
X135177Y177402D02*
D03*
X147776D02*
D03*
X135177Y180551D02*
D03*
X150925Y186850D02*
D03*
X147776Y183701D02*
D03*
X154075Y186850D02*
D03*
X128878D02*
D03*
X154075Y193150D02*
D03*
X128878D02*
D03*
D21*
X193283Y151031D02*
D03*
X204700Y153000D02*
D03*
Y156937D02*
D03*
Y151031D02*
D03*
Y154969D02*
D03*
X193283Y153000D02*
D03*
Y154969D02*
D03*
Y156937D02*
D03*
D22*
X198991Y153984D02*
D03*
D23*
X135700Y242364D02*
D03*
X241400Y235536D02*
D03*
Y240864D02*
D03*
X135700Y227536D02*
D03*
X210400Y156364D02*
D03*
X135700Y237036D02*
D03*
Y232864D02*
D03*
X210400Y151036D02*
D03*
D24*
X172064Y243375D02*
D03*
X224364Y260600D02*
D03*
X166736Y256800D02*
D03*
Y250100D02*
D03*
X223064Y253900D02*
D03*
X154936Y243375D02*
D03*
X217736Y253900D02*
D03*
X172064Y250100D02*
D03*
X219036Y260600D02*
D03*
X172064Y256800D02*
D03*
X160264Y243375D02*
D03*
X166736D02*
D03*
D25*
X209146Y251724D02*
D03*
X178476Y246724D02*
D03*
Y241724D02*
D03*
X209146Y246724D02*
D03*
Y241724D02*
D03*
X178476Y251724D02*
D03*
X209146Y236724D02*
D03*
X178476D02*
D03*
D26*
X215950Y143900D02*
D03*
X209650D02*
D03*
D27*
X227269Y138118D02*
D03*
Y107082D02*
D03*
X241300D02*
D03*
X241268Y138118D02*
D03*
X241300Y117318D02*
D03*
X241268Y127882D02*
D03*
X227269Y117318D02*
D03*
Y127882D02*
D03*
D28*
X220366Y246748D02*
D03*
X228634Y240252D02*
D03*
Y246748D02*
D03*
X220366Y240252D02*
D03*
D29*
X236000Y147571D02*
D03*
X226000Y156429D02*
D03*
X236000D02*
D03*
X226000Y147571D02*
D03*
X231000D02*
D03*
Y156429D02*
D03*
D30*
X245500Y156547D02*
D03*
X120400Y188153D02*
D03*
X245500Y173953D02*
D03*
X119400Y175153D02*
D03*
X120400Y182247D02*
D03*
X119400Y169247D02*
D03*
X245500Y162453D02*
D03*
Y168047D02*
D03*
D31*
X165004Y154000D02*
D03*
X177996D02*
D03*
D32*
X119000Y208504D02*
D03*
Y221496D02*
D03*
D33*
X117039Y203000D02*
D03*
X121961D02*
D03*
D34*
X157653Y152600D02*
D03*
X151747D02*
D03*
D35*
X245000Y202961D02*
D03*
Y207539D02*
D03*
Y217539D02*
D03*
X245500Y180539D02*
D03*
X245000Y198039D02*
D03*
Y222461D02*
D03*
Y212461D02*
D03*
X245500Y185461D02*
D03*
D36*
X171747Y105000D02*
D03*
X189053D02*
D03*
X177653D02*
D03*
X183147D02*
D03*
D37*
X235500Y239741D02*
D03*
Y244859D02*
D03*
D38*
X119345Y160200D02*
D03*
X144055Y152700D02*
D03*
X125455Y160200D02*
D03*
X137945Y152700D02*
D03*
D39*
X214659Y260800D02*
D03*
X209541D02*
D03*
D40*
X214744Y233700D02*
D03*
X220256D02*
D03*
D41*
X284134Y136000D02*
D03*
X275866D02*
D03*
D42*
X282953Y109100D02*
D03*
X277047D02*
D03*
D43*
X267963Y136000D02*
D03*
X263037D02*
D03*
D59*
X198991Y152016D02*
D03*
Y155953D02*
D03*
X142700Y123300D02*
D03*
X298000Y149000D02*
D03*
X293000D02*
D03*
X288000D02*
D03*
X283000D02*
D03*
X278000D02*
D03*
X273000D02*
D03*
X268000D02*
D03*
X263000D02*
D03*
X258000D02*
D03*
X253000D02*
D03*
X238500Y122600D02*
D03*
X234700D02*
D03*
X231100D02*
D03*
X298000Y144000D02*
D03*
X293000D02*
D03*
X288000D02*
D03*
X283000D02*
D03*
X278000D02*
D03*
X273000D02*
D03*
X268000D02*
D03*
X263000D02*
D03*
X258000D02*
D03*
X253000D02*
D03*
X152500Y118300D02*
D03*
Y133100D02*
D03*
X207000D02*
D03*
Y118300D02*
D03*
X147500Y118100D02*
D03*
Y133300D02*
D03*
X242284Y122633D02*
D03*
X245700Y122600D02*
D03*
X226284Y122567D02*
D03*
X202000Y133300D02*
D03*
Y118100D02*
D03*
X118325Y164724D02*
D03*
X191025Y148979D02*
D03*
X188200Y141300D02*
D03*
X156055Y128348D02*
D03*
X157500Y123100D02*
D03*
X239000Y249300D02*
D03*
X140700Y234800D02*
D03*
X202000Y128300D02*
D03*
Y123100D02*
D03*
X188300Y137400D02*
D03*
Y133500D02*
D03*
X177900Y138374D02*
D03*
X267800Y131000D02*
D03*
X268399Y108900D02*
D03*
X199925Y140267D02*
D03*
X171747Y105000D02*
D03*
X158834Y158210D02*
D03*
X119372Y160228D02*
D03*
X177996Y154000D02*
D03*
X217100Y156653D02*
D03*
X210400Y156364D02*
D03*
X144150Y152700D02*
D03*
X150566Y158210D02*
D03*
X189053Y105000D02*
D03*
X212000Y128300D02*
D03*
X142700Y118300D02*
D03*
Y128300D02*
D03*
X212000Y123100D02*
D03*
X152700Y128100D02*
D03*
X273406Y109100D02*
D03*
X178063Y233506D02*
D03*
X133533Y152284D02*
D03*
X133500Y146300D02*
D03*
Y140600D02*
D03*
X188300Y110300D02*
D03*
Y119300D02*
D03*
X188400Y123500D02*
D03*
Y114800D02*
D03*
X188333Y129516D02*
D03*
X133100Y118400D02*
D03*
X133500Y128700D02*
D03*
X133533Y132916D02*
D03*
D62*
X162639Y174640D02*
G03*
X163176Y175177I0J537D01*
G01*
X162369Y174640D02*
G03*
X161832Y174102I0J-537D01*
G01*
Y173983D02*
G03*
X162369Y173446I537J0D01*
G01*
X165460Y172909D02*
G03*
X164922Y173446I-537J0D01*
G01*
Y172252D02*
G03*
X165460Y172789I0J537D01*
G01*
X161789Y172252D02*
G03*
X161252Y171715I0J-537D01*
G01*
Y171596D02*
G03*
X161789Y171058I537J0D01*
G01*
X163176Y170521D02*
G03*
X162639Y171058I-537J0D01*
G01*
X184476Y240416D02*
G03*
X185013Y239879I537J0D01*
G01*
X185915Y239341D02*
G03*
X185378Y239879I-537J0D01*
G01*
Y238685D02*
G03*
X185915Y239222I0J537D01*
G01*
X182214Y238685D02*
G03*
X181677Y238148I0J-537D01*
G01*
Y238028D02*
G03*
X182214Y237491I537J0D01*
G01*
X185915Y236954D02*
G03*
X185378Y237491I-537J0D01*
G01*
Y236297D02*
G03*
X185915Y236835I0J537D01*
G01*
X182416Y236297D02*
G03*
X181879Y235760I0J-537D01*
G01*
Y235641D02*
G03*
X182416Y235104I537J0D01*
G01*
X184476Y234567D02*
G03*
X183939Y235104I-537J0D01*
G01*
X247247Y228313D02*
G03*
X247784Y227776I537J0D01*
G01*
X246590Y228850D02*
G03*
X246053Y228313I0J-537D01*
G01*
X247247D02*
G03*
X246709Y228850I-537J0D01*
G01*
X244859Y225139D02*
G03*
X245396Y224602I537J0D01*
G01*
X245516D02*
G03*
X246053Y225139I0J537D01*
G01*
X242472Y230346D02*
G03*
X241935Y230883I-537J0D01*
G01*
X244203D02*
G03*
X243666Y230346I0J-537D01*
G01*
X244859D02*
G03*
X244322Y230883I-537J0D01*
G01*
X241815D02*
G03*
X241278Y230346I0J-537D01*
G01*
X240741Y227776D02*
G03*
X241278Y228313I0J537D01*
G01*
X242472Y225065D02*
G03*
X243009Y224528I537J0D01*
G01*
X243128D02*
G03*
X243666Y225065I0J537D01*
G01*
X153959Y229424D02*
G03*
X154497Y229962I0J537D01*
G01*
X155034Y232977D02*
G03*
X154497Y232440I0J-537D01*
G01*
X155690D02*
G03*
X155153Y232977I-537J0D01*
G01*
X155690Y229049D02*
G03*
X156228Y228512I537J0D01*
G01*
X156347D02*
G03*
X156884Y229049I0J537D01*
G01*
X157421Y232977D02*
G03*
X156884Y232440I0J-537D01*
G01*
X158078D02*
G03*
X157541Y232977I-537J0D01*
G01*
X158078Y229049D02*
G03*
X158615Y228512I537J0D01*
G01*
X158734D02*
G03*
X159271Y229049I0J537D01*
G01*
X159809Y232977D02*
G03*
X159271Y232440I0J-537D01*
G01*
X160465D02*
G03*
X159928Y232977I-537J0D01*
G01*
X160465Y229049D02*
G03*
X161002Y228512I537J0D01*
G01*
X161122D02*
G03*
X161659Y229049I0J537D01*
G01*
X162196Y232977D02*
G03*
X161659Y232440I0J-537D01*
G01*
X162853D02*
G03*
X162315Y232977I-537J0D01*
G01*
X162853Y228458D02*
G03*
X163390Y227921I537J0D01*
G01*
X163509D02*
G03*
X164046Y228458I0J537D01*
G01*
X164583Y231600D02*
G03*
X164046Y231063I0J-537D01*
G01*
X165240D02*
G03*
X164703Y231600I-537J0D01*
G01*
X165240Y229962D02*
G03*
X165777Y229424I537J0D01*
G01*
X164329Y224172D02*
G03*
X165089Y224172I380J380D01*
G01*
X169934Y228257D02*
G03*
X169174Y228257I-380J-380D01*
G01*
X170018Y227413D02*
G03*
X170018Y228173I-380J380D01*
G01*
X164972Y222367D02*
G03*
X164972Y221607I380J-380D01*
G01*
X165056Y221522D02*
G03*
X165816Y221522I380J380D01*
G01*
X171738Y226684D02*
G03*
X170978Y226684I-380J-380D01*
G01*
X171822Y225840D02*
G03*
X171822Y226600I-380J380D01*
G01*
X167621Y221639D02*
G03*
X167621Y220880I380J-380D01*
G01*
X134256Y163204D02*
G03*
X134256Y162445I380J-380D01*
G01*
X135835Y164783D02*
G03*
X135835Y165542I-380J380D01*
G01*
X135750Y165627D02*
G03*
X134991Y165627I-380J-380D01*
G01*
X132652Y164048D02*
G03*
X133412Y164048I380J380D01*
G01*
X132568Y164892D02*
G03*
X132568Y164133I380J-380D01*
G01*
X134002Y166327D02*
G03*
X134002Y167086I-380J380D01*
G01*
X133918Y167171D02*
G03*
X133158Y167171I-380J-380D01*
G01*
X130964Y165736D02*
G03*
X131724Y165736I380J380D01*
G01*
X145373Y162924D02*
G03*
X145910Y163462I0J537D01*
G01*
X146448Y165055D02*
G03*
X145910Y164517I0J-537D01*
G01*
X147104D02*
G03*
X146567Y165055I-537J0D01*
G01*
X147104Y162269D02*
G03*
X147641Y161732I537J0D01*
G01*
X147761D02*
G03*
X148298Y162269I0J537D01*
G01*
X148835Y165055D02*
G03*
X148298Y164517I0J-537D01*
G01*
X149492D02*
G03*
X148954Y165055I-537J0D01*
G01*
X149492Y163462D02*
G03*
X150029Y162924I537J0D01*
G01*
X167706Y190139D02*
G03*
X167706Y190899I-380J380D01*
G01*
X164577Y194788D02*
G03*
X164577Y194028I380J-380D01*
G01*
X165421Y194872D02*
G03*
X164661Y194872I-380J-380D01*
G01*
X169509Y190784D02*
G03*
X170269Y190784I380J380D01*
G01*
X170353Y190868D02*
G03*
X170353Y191628I-380J380D01*
G01*
X166265Y196476D02*
G03*
X166265Y195716I380J-380D01*
G01*
X167109Y196560D02*
G03*
X166349Y196560I-380J-380D01*
G01*
X171771Y191898D02*
G03*
X172531Y191898I380J380D01*
G01*
X172615Y191983D02*
G03*
X172615Y192742I-380J380D01*
G01*
X167953Y198164D02*
G03*
X167953Y197404I380J-380D01*
G01*
X168797Y198249D02*
G03*
X168038Y198249I-380J-380D01*
G01*
X173459Y193586D02*
G03*
X174219Y193586I380J380D01*
G01*
X174303Y193671D02*
G03*
X174303Y194430I-380J380D01*
G01*
X171843Y197651D02*
G03*
X171843Y196891I380J-380D01*
G01*
X172687Y197735D02*
G03*
X171927Y197735I-380J-380D01*
G01*
X173615Y196807D02*
G03*
X174374Y196807I380J380D01*
G01*
X172027Y180013D02*
G03*
X172027Y180772I-380J380D01*
G01*
X171364Y182195D02*
G03*
X171364Y181436I380J-380D01*
G01*
X172208Y182280D02*
G03*
X171449Y182280I-380J-380D01*
G01*
X173724Y180763D02*
G03*
X174484Y180763I380J380D01*
G01*
X174568Y180848D02*
G03*
X174568Y181607I-380J380D01*
G01*
X173009Y183927D02*
G03*
X173009Y183167I380J-380D01*
G01*
X173853Y184011D02*
G03*
X173093Y184011I-380J-380D01*
G01*
X174559Y183305D02*
G03*
X175319Y183305I380J380D01*
G01*
X211142Y217032D02*
X211150D01*
X209575Y215472D02*
X209583D01*
X211142Y217032D01*
X212724Y218622D02*
Y218630D01*
X215874D02*
X217449Y220205D01*
Y220213D01*
X212724Y218630D02*
X214299Y220205D01*
Y220213D01*
X215874Y218622D02*
Y218630D01*
X192252Y201303D02*
Y201307D01*
Y201303D02*
X193827Y199728D01*
Y199724D02*
Y199728D01*
X189102Y172945D02*
X190677Y174520D01*
X189102Y172937D02*
Y172945D01*
X190677Y174520D02*
Y174528D01*
X201701Y172953D02*
X203276Y174528D01*
X201701Y176102D02*
X203276Y177677D01*
X189102Y176102D02*
X190677Y177677D01*
X198551Y220197D02*
X200126Y218622D01*
X201701Y217047D02*
X203276Y215472D01*
X195402Y220197D02*
X196976Y218622D01*
X136176Y160524D02*
X167376D01*
X163176Y175177D02*
Y178624D01*
X162369Y174640D02*
X162639D01*
X161832Y173983D02*
Y174102D01*
X162369Y173446D02*
X164922D01*
X165460Y172789D02*
Y172909D01*
X161789Y172252D02*
X164922D01*
X161252Y171596D02*
Y171715D01*
X161789Y171058D02*
X162639D01*
X163176Y170324D02*
Y170521D01*
X161815Y218086D02*
X164776Y215124D01*
X159193Y220708D02*
X161815Y218086D01*
X150925Y196299D02*
X152500Y197874D01*
X173576Y229424D02*
X178079Y224921D01*
X169076Y229424D02*
X173576D01*
X222181Y224921D02*
X223756Y226496D01*
X222181Y221772D02*
X223756Y223346D01*
Y226496D02*
X223764D01*
X222173Y224921D02*
X222181D01*
X222173Y221772D02*
X222181D01*
X223756Y223346D02*
X223764D01*
X219024Y215472D02*
X220598Y217047D01*
X219024Y221772D02*
X220598Y223346D01*
X234772Y212323D02*
X236347Y213898D01*
X234772Y215472D02*
X236347Y217047D01*
X231622Y218622D02*
X233197Y220197D01*
X215874Y215472D02*
X217449Y217047D01*
X228472Y218622D02*
X230047Y220197D01*
X222173Y193425D02*
X223748Y191850D01*
X219024Y193425D02*
X220598Y191850D01*
X237921Y171378D02*
X239496Y169803D01*
X225323Y196575D02*
X226898Y198150D01*
X225323Y193425D02*
X226898Y191850D01*
X228472Y193425D02*
X230047Y191850D01*
X225323Y199724D02*
X226898Y201299D01*
X228472Y196575D02*
X230047Y198150D01*
X231622Y196575D02*
X233197Y198150D01*
X222173Y190276D02*
X223748Y188701D01*
X222173Y187126D02*
X223748Y185551D01*
X219024Y190276D02*
X220598Y188701D01*
X225323Y187126D02*
X226898Y185551D01*
X205476Y241724D02*
X209146D01*
X178476Y251724D02*
X182476D01*
X178476Y241724D02*
X182476D01*
X201701Y163504D02*
X203276Y165079D01*
X201701Y198150D02*
X203276Y196575D01*
X195402Y172953D02*
X196976Y174528D01*
X222173Y199724D02*
X223748Y201299D01*
X172796Y218946D02*
Y219905D01*
X172765Y219936D02*
X172796Y219905D01*
Y218946D02*
X176269Y215472D01*
X164776Y215124D02*
X166476D01*
X189102Y188701D02*
X190677Y190276D01*
X193819Y171378D02*
X193827D01*
X192252Y169819D02*
X192260D01*
X192252Y166654D02*
X193827Y168228D01*
X192260Y169819D02*
X193819Y171378D01*
X192449Y188701D02*
Y188799D01*
X193827Y190177D02*
Y190276D01*
X192449Y188799D02*
X193827Y190177D01*
X225323Y218622D02*
X226898Y220197D01*
X222173Y218622D02*
X223748Y220197D01*
X219024Y206024D02*
X220598Y207598D01*
X222173Y209173D02*
X223748Y210748D01*
X215874Y221772D02*
X217449Y223346D01*
X133602Y216772D02*
X135177Y218347D01*
X185953Y179252D02*
X187528Y180827D01*
X193827Y183878D02*
Y183976D01*
X192449Y182500D02*
X193827Y183878D01*
X192449Y182402D02*
Y182500D01*
X189102Y182402D02*
X190677Y183976D01*
X179654Y207598D02*
X181228Y206024D01*
X185953Y213898D02*
X187528Y212323D01*
X201701Y213898D02*
X203276Y212323D01*
X198551Y213898D02*
X200126Y212323D01*
X195402Y213898D02*
X196976Y212323D01*
X176504Y217047D02*
X178079Y218622D01*
X192256Y213896D02*
Y213898D01*
X193827Y212323D02*
Y212325D01*
X182803Y213898D02*
X184378Y212323D01*
X192256Y213896D02*
X193827Y212325D01*
X176269Y215472D02*
X178079D01*
X204850Y217047D02*
X206425Y215472D01*
X192252Y220197D02*
X193827Y218622D01*
X135177Y171102D02*
X136752Y169528D01*
X132028Y171102D02*
X133602Y169528D01*
X189102Y169803D02*
X190677Y171378D01*
X198551Y163504D02*
X200126Y165079D01*
X150925Y215197D02*
X152500Y216772D01*
X182803Y188701D02*
X184378Y190276D01*
X179654Y188701D02*
X181228Y190276D01*
X195402Y169803D02*
X196976Y171378D01*
X204850Y179252D02*
X206425Y180827D01*
X204850Y176102D02*
X206425Y177677D01*
X198551Y172953D02*
X200126Y174528D01*
X198551Y169803D02*
X200126Y171378D01*
X209575Y180819D02*
Y180827D01*
Y180819D02*
X211150Y179244D01*
Y179236D02*
Y179244D01*
X215874Y212323D02*
X217449Y213898D01*
X219024Y196575D02*
X220598Y198150D01*
X204850Y191858D02*
X204854D01*
X206421Y193425D02*
X206425D01*
X204854Y191858D02*
X206421Y193425D01*
X228472Y165079D02*
X230031Y163520D01*
X219024Y165079D02*
X220598Y163504D01*
X222173Y168228D02*
X223748Y166654D01*
X225323Y168228D02*
X226898Y166654D01*
X130453Y178976D02*
X132028Y180551D01*
X130468Y201031D02*
X132028Y202591D01*
Y202598D01*
X130468Y201024D02*
Y201031D01*
X228472Y212323D02*
X230047Y213898D01*
X231622Y190276D02*
X233197Y188701D01*
X231622Y215472D02*
X233197Y217047D01*
X237921Y209173D02*
X239496Y210748D01*
X225323Y212323D02*
X226898Y213898D01*
X228472Y209173D02*
X230047Y210748D01*
X234772Y209173D02*
X236347Y210748D01*
X231622Y212323D02*
X233197Y213898D01*
X185953Y207598D02*
X187528Y206024D01*
X239440Y201299D02*
Y201355D01*
X237921Y199724D02*
Y199780D01*
X239440Y201299D01*
X234772Y196575D02*
X236347Y198150D01*
X211142Y213898D02*
Y213906D01*
X209575Y212331D02*
X211142Y213898D01*
X209575Y212323D02*
Y212331D01*
X215874Y171378D02*
X217449Y169803D01*
X225323Y165079D02*
X226898Y163504D01*
X204850Y226496D02*
X206425Y224921D01*
X231622Y199724D02*
X233197Y201299D01*
X237921Y168228D02*
X239496Y166654D01*
X237921Y174528D02*
X239496Y172953D01*
X219024Y224921D02*
X220598Y226496D01*
X215874Y209173D02*
X217449Y210748D01*
X201701Y226496D02*
X203276Y224921D01*
X212724Y212323D02*
X214299Y213898D01*
X184476Y231122D02*
Y232702D01*
Y240613D02*
Y243724D01*
X181476Y246724D02*
X184476Y243724D01*
Y231122D02*
X189102Y226496D01*
X178476Y246724D02*
X181476D01*
X189102Y226496D02*
X190677Y224921D01*
X190627Y224972D02*
X190677Y224921D01*
X184476Y240416D02*
Y240613D01*
X185013Y239879D02*
X185378D01*
X185915Y239222D02*
Y239341D01*
X182214Y238685D02*
X185378D01*
X181677Y238028D02*
Y238148D01*
X182214Y237491D02*
X185378D01*
X185915Y236835D02*
Y236954D01*
X182416Y236297D02*
X185378D01*
X181879Y235641D02*
Y235760D01*
X182416Y235104D02*
X183939D01*
X184476Y232702D02*
Y234567D01*
X192236Y226496D02*
X192244D01*
X193819Y224921D01*
X193827D01*
X180800Y260800D02*
X186253D01*
X175400Y255400D02*
X180800Y260800D01*
X175400Y242700D02*
Y255400D01*
Y242700D02*
X176035Y242065D01*
X178136D01*
X178476Y241724D01*
X205476Y246724D02*
X209146D01*
X195402Y223346D02*
X196976Y221772D01*
X205047Y247421D02*
Y260800D01*
Y247421D02*
X205476Y246991D01*
Y246724D02*
Y246991D01*
X192252Y217047D02*
X193827Y215472D01*
X219036Y260600D02*
Y260902D01*
X217936Y262002D02*
X219036Y260902D01*
X217048Y262002D02*
X217936D01*
X210130Y241724D02*
X211815Y243410D01*
X209146Y241724D02*
X210130D01*
X213233Y262965D02*
X216085D01*
X211815Y261547D02*
X213233Y262965D01*
X211815Y243410D02*
Y261547D01*
X216085Y262965D02*
X217048Y262002D01*
X198551Y223346D02*
X200126Y221772D01*
X205630Y236724D02*
X209146D01*
X195402Y226496D02*
X205630Y236724D01*
X195402Y226496D02*
X196976Y224921D01*
X214659Y251710D02*
Y260800D01*
X212603Y249654D02*
X214659Y251710D01*
X212603Y239197D02*
Y249654D01*
X210130Y236724D02*
X212603Y239197D01*
X209146Y236724D02*
X210130D01*
X209575Y218622D02*
X211150Y220197D01*
X204850D02*
X206425Y218622D01*
X201701Y223346D02*
X203276Y221772D01*
X212750D02*
X214299Y223321D01*
X212724Y221772D02*
X212750D01*
X214299Y223321D02*
X214325D01*
X225323Y215472D02*
X226898Y217047D01*
X209575Y224921D02*
X211150Y226496D01*
X214303Y210748D02*
X214307D01*
X212724Y209173D02*
X212728D01*
X214303Y210748D01*
X212724Y224921D02*
X214299Y226496D01*
X222173Y215472D02*
X223748Y217047D01*
X225323Y224921D02*
X226898Y226496D01*
X228472Y221772D02*
X230047Y223346D01*
X219024Y209173D02*
X220598Y210748D01*
X228472Y224921D02*
X230047Y226496D01*
X231622Y221772D02*
X233197Y223346D01*
X219024Y212323D02*
X220598Y213898D01*
X247784Y227776D02*
X249267D01*
X252415D01*
X252470Y227720D02*
X271089D01*
X252415Y227776D02*
X252470Y227720D01*
X246590Y228850D02*
X246709D01*
X244859Y225139D02*
Y230346D01*
X247247Y228313D02*
Y228313D01*
X275671Y221329D02*
Y223139D01*
Y221329D02*
X278000Y219000D01*
X271089Y227720D02*
X275671Y223139D01*
X246053Y225139D02*
Y228313D01*
X245396Y224602D02*
X245516D01*
X241815Y230883D02*
X241935D01*
X244203D02*
X244322D01*
X241278Y228313D02*
Y230346D01*
X240544Y227776D02*
X240741D01*
X237626D02*
X240544D01*
X243666Y225065D02*
Y230346D01*
X242472Y225065D02*
Y230346D01*
X243009Y224528D02*
X243128D01*
X236347Y226496D02*
X237626Y227776D01*
X234772Y224921D02*
X236347Y226496D01*
X189102Y220197D02*
X190677Y218622D01*
X189102Y223346D02*
X190677Y221772D01*
X189102Y217047D02*
X190677Y215472D01*
X198551Y217047D02*
X200126Y215472D01*
X135177Y186850D02*
X136752Y188425D01*
X150925Y183701D02*
X152500Y182126D01*
X127303Y197874D02*
X128878Y196299D01*
X192252Y204449D02*
X193827Y202874D01*
X185953Y223346D02*
X187528Y221772D01*
X185953Y182402D02*
X187528Y183976D01*
X135177Y193150D02*
X136752Y194724D01*
X128878Y190000D02*
X130453Y188425D01*
X188900Y185551D02*
X189001D01*
X190576Y187126D02*
X190677D01*
X189001Y185551D02*
X190576Y187126D01*
X147776Y212047D02*
X149350Y210472D01*
X179654Y210748D02*
X181228Y209173D01*
X147776Y215197D02*
X149350Y213622D01*
X133602Y204173D02*
X135177Y202598D01*
X133602Y201024D02*
X135177Y199449D01*
Y208898D02*
X136752Y210472D01*
X175225Y209173D02*
X178079D01*
X173776Y207724D02*
X175225Y209173D01*
X146576Y229424D02*
X153762D01*
X141576Y213224D02*
Y224424D01*
X146576Y229424D01*
X146201Y207323D02*
X147776Y205748D01*
X153762Y229424D02*
X153959D01*
X154497Y229962D02*
Y232440D01*
X155034Y232977D02*
X155153D01*
X155690Y229049D02*
Y232440D01*
X156228Y228512D02*
X156347D01*
X156884Y229049D02*
Y232440D01*
X157421Y232977D02*
X157541D01*
X158078Y229049D02*
Y232440D01*
X158615Y228512D02*
X158734D01*
X159271Y229049D02*
Y232440D01*
X159809Y232977D02*
X159928D01*
X160465Y229049D02*
Y232440D01*
X161002Y228512D02*
X161122D01*
X161659Y229049D02*
Y232440D01*
X162196Y232977D02*
X162315D01*
X162853Y228458D02*
Y232440D01*
X163390Y227921D02*
X163509D01*
X164046Y228458D02*
Y231063D01*
X164583Y231600D02*
X164703D01*
X165240Y229962D02*
Y231063D01*
X165777Y229424D02*
X169076D01*
X177828Y199724D02*
X178079D01*
X176504Y201299D02*
X178079Y199724D01*
X176504Y204449D02*
X178079Y202874D01*
X130453Y216772D02*
X132028Y218347D01*
X179654Y204449D02*
X181228Y202874D01*
X147776Y218347D02*
X149350Y219921D01*
X184378Y199728D02*
X185953Y201303D01*
Y201307D01*
X184378Y199724D02*
Y199728D01*
X132028Y212047D02*
X133602Y210472D01*
X182803Y201307D02*
X182807D01*
X184374Y202874D01*
X184378D01*
X182803Y204449D02*
X184378Y206024D01*
X150925Y212047D02*
X152500Y213622D01*
X135177Y212047D02*
X136752Y213622D01*
X168465Y220036D02*
X174603Y213898D01*
X160776Y227724D02*
X164190Y224311D01*
X151076Y227724D02*
X160776D01*
X179654Y213898D02*
X181228Y212323D01*
X174603Y213898D02*
X179654D01*
X145976Y210697D02*
X147776Y208898D01*
X145976Y210697D02*
Y216824D01*
X164190Y224311D02*
X164329Y224172D01*
X165089D02*
X169174Y228257D01*
X169934Y228257D02*
X169934Y228257D01*
X170018Y228173D01*
X170018Y228173D02*
X170018Y228173D01*
Y227413D02*
Y227413D01*
X164972Y222367D02*
X170018Y227413D01*
X164972Y221607D02*
X165056Y221522D01*
X165816Y221522D02*
Y221522D01*
X170978Y226684D01*
X171738Y226684D02*
X171738Y226684D01*
X171822Y226600D01*
X171822Y226600D02*
X171822Y226600D01*
X167621Y221639D02*
X171822Y225840D01*
X167621Y220880D02*
X168465Y220036D01*
X147776Y196299D02*
X149350Y197874D01*
X176504Y210748D02*
X178079Y212323D01*
X132028Y199449D02*
X133602Y197874D01*
X135177Y196299D02*
X135364D01*
X135177D02*
X136752Y197874D01*
X182803Y217047D02*
X184378Y215472D01*
X185953Y226496D02*
X187528Y224921D01*
X150925Y202598D02*
X152500Y204173D01*
X179654Y226496D02*
X181228Y224921D01*
X182803Y223346D02*
X184378Y221772D01*
X147776Y202598D02*
X149350Y204173D01*
X135177Y205748D02*
X136752Y207323D01*
X182803Y220197D02*
X184378Y218622D01*
X172676Y187225D02*
X177980D01*
X178079Y187126D01*
X132028Y186850D02*
X133602Y185276D01*
X172576Y187324D02*
X172676Y187225D01*
X154075Y190000D02*
X155650Y188425D01*
X182803Y185551D02*
X184378Y187126D01*
X147776Y193150D02*
X147778Y193147D01*
X147866D02*
X149303Y194584D01*
X179654Y191850D02*
X181228Y193425D01*
X147776Y190000D02*
X147863D01*
X149301Y191437D02*
X149388D01*
X147863Y190000D02*
X149301Y191437D01*
X135177Y190000D02*
X136752Y191575D01*
X133602Y182126D02*
X135177Y183701D01*
X190677Y199721D02*
Y199724D01*
X189102Y198142D02*
Y198146D01*
X190677Y199721D01*
X150925Y180551D02*
X152500Y178976D01*
X189102Y191850D02*
X190677Y193425D01*
X130453Y182126D02*
X132028Y183701D01*
X185953Y210748D02*
X187528Y209173D01*
X146201Y172677D02*
X147776Y171102D01*
X141476Y177402D02*
X146201Y172677D01*
X141476Y177402D02*
Y192756D01*
X185953Y217047D02*
X187528Y215472D01*
X156776Y223124D02*
X159193Y220708D01*
X143276Y185050D02*
Y219024D01*
X147376Y223124D01*
X156776D01*
X143276Y185050D02*
X147776Y180551D01*
X149291Y170593D02*
X154160Y165724D01*
X149291Y170593D02*
Y172736D01*
X163176Y178624D02*
Y194924D01*
Y168524D02*
Y170324D01*
Y194924D02*
X171076Y202824D01*
X147776Y174252D02*
X149291Y172736D01*
X160376Y165724D02*
X163176Y168524D01*
X154160Y165724D02*
X160376D01*
X189102Y210748D02*
X190677Y209173D01*
X146201Y188425D02*
X147776Y186850D01*
X133602Y175827D02*
X135177Y174252D01*
X187528Y199724D02*
Y199728D01*
X189102Y201303D01*
Y201307D01*
X150925Y171102D02*
X152500Y169528D01*
X178079Y196575D02*
X179654Y195000D01*
X187528Y196575D02*
X189102Y195000D01*
X132028Y174252D02*
X133602Y172677D01*
X185953Y191850D02*
X187528Y193425D01*
X150925Y174252D02*
X152500Y172677D01*
X130512Y167698D02*
Y175886D01*
X135240Y161461D02*
X136176Y160524D01*
X130512Y175886D02*
X132028Y177402D01*
X167376Y160524D02*
X170197Y163345D01*
Y186754D01*
X176604Y193162D01*
X177815D01*
X178079Y193425D01*
X134256Y162445D02*
X135240Y161461D01*
X134256Y163204D02*
X135835Y164783D01*
X135835Y165542D02*
X135835Y165542D01*
X135750Y165627D02*
X135835Y165542D01*
X135750Y165627D02*
X135750Y165627D01*
X134991D02*
X134991D01*
X133412Y164048D02*
X134991Y165627D01*
X132568Y164133D02*
X132652Y164048D01*
X132568Y164892D02*
X132568D01*
X134002Y166327D01*
X134002Y167086D02*
X134002Y167086D01*
X133918Y167171D02*
X134002Y167086D01*
X133918Y167171D02*
X133918Y167171D01*
X131724Y165736D02*
X133158Y167171D01*
X130512Y166189D02*
X130964Y165736D01*
X130512Y166189D02*
Y167698D01*
X185953Y188701D02*
X187528Y190276D01*
X150925Y177402D02*
X152500Y175827D01*
X182803Y198142D02*
X182807D01*
X184374Y196575D02*
X184378D01*
X182807Y198142D02*
X184374Y196575D01*
X153276Y162924D02*
X163876D01*
X143676D02*
X145176D01*
X139476Y167124D02*
X143676Y162924D01*
X139476Y167124D02*
Y173102D01*
X136752Y175827D02*
X139476Y173102D01*
X135177Y177402D02*
X136752Y175827D01*
X168976Y168024D02*
Y188124D01*
X163876Y162924D02*
X168976Y168024D01*
Y188124D02*
X169976Y189124D01*
X145176Y162924D02*
X145373D01*
X145910Y163462D02*
Y164517D01*
X146448Y165055D02*
X146567D01*
X147104Y162269D02*
Y164517D01*
X147641Y161732D02*
X147761D01*
X148298Y162269D02*
Y164517D01*
X148835Y165055D02*
X148954D01*
X149492Y163462D02*
Y164517D01*
X150029Y162924D02*
X153276D01*
X175473Y197906D02*
X175618Y198051D01*
X166876Y189309D02*
X167567Y190000D01*
X147776Y177402D02*
X149350Y175827D01*
X179752Y198051D02*
X181228Y196575D01*
X166876Y178824D02*
Y189309D01*
X175618Y198051D02*
X179752D01*
X167567Y190000D02*
X167706Y190139D01*
X167706Y190899D02*
X167706Y190899D01*
X164577Y194028D02*
X167706Y190899D01*
X164577Y194028D02*
X164577Y194028D01*
Y194788D02*
X164661Y194872D01*
X165421Y194872D02*
X165421Y194872D01*
X169509Y190784D01*
X169509Y190784D02*
X169509Y190784D01*
X170269D02*
X170353Y190868D01*
X170353Y191628D02*
X170353Y191628D01*
X166265Y195716D02*
X170353Y191628D01*
X166265Y195716D02*
X166265Y195716D01*
Y196476D02*
X166349Y196560D01*
X167109Y196560D02*
X167109Y196560D01*
X171771Y191898D01*
X171771Y191898D02*
X171771Y191898D01*
X172531D02*
X172615Y191983D01*
X172615Y192742D02*
X172615Y192742D01*
X167953Y197404D02*
X172615Y192742D01*
X167953Y197404D02*
X167953Y197404D01*
Y198164D02*
X168038Y198249D01*
X168797Y198249D02*
X168797Y198249D01*
X173459Y193586D01*
X173459Y193586D02*
X173459Y193586D01*
X174219D02*
X174303Y193671D01*
X174303Y194430D02*
X174303Y194430D01*
X171843Y196891D02*
X174303Y194430D01*
X171843Y197651D02*
X171927Y197735D01*
X172687Y197735D02*
X173615Y196807D01*
X174374Y196807D02*
X175473Y197906D01*
X175991Y183976D02*
X177664Y185650D01*
X171476Y179462D02*
X171888Y179874D01*
X135177Y180551D02*
X136752Y178976D01*
X177664Y185650D02*
X179752D01*
X181228Y187126D01*
X171476Y177124D02*
Y179462D01*
X171888Y179874D02*
X172027Y180013D01*
X172027Y180772D02*
X172027Y180772D01*
X171364Y181436D02*
X172027Y180772D01*
X171364Y182195D02*
X171449Y182280D01*
X172208D02*
X173724Y180763D01*
X174484D02*
X174568Y180848D01*
X173009Y183167D02*
X174568Y181607D01*
X173009Y183927D02*
X173093Y184011D01*
X173853D02*
X174559Y183305D01*
X175319D02*
X175991Y183976D01*
X231622Y174528D02*
X233197Y172953D01*
X192252Y191850D02*
X193827Y193425D01*
X150925Y186850D02*
X152500Y185276D01*
X189102Y207598D02*
X190677Y206024D01*
X189102Y204449D02*
X190677Y202874D01*
X192256Y210746D02*
X193827Y209175D01*
X192256Y210746D02*
Y210748D01*
X193827Y209173D02*
Y209175D01*
X192252Y207598D02*
X193827Y206024D01*
X201701Y210748D02*
X203276Y209173D01*
X234772Y174528D02*
X236347Y172953D01*
X219024Y199724D02*
X220598Y201299D01*
X222173Y202874D02*
X223748Y204449D01*
X222173Y206024D02*
X223748Y207598D01*
X234772Y206024D02*
X236347Y207598D01*
X237921Y206024D02*
X239496Y207598D01*
X237921Y202874D02*
X239496Y204449D01*
X228472Y206024D02*
X230047Y207598D01*
X231622Y206024D02*
X233197Y207598D01*
X231622Y202874D02*
X233197Y204449D01*
X225323Y202874D02*
X226898Y204449D01*
X228472Y202874D02*
X230047Y204449D01*
X234772Y199724D02*
X236347Y201299D01*
X228472Y190276D02*
X230047Y188701D01*
X252470Y195280D02*
X281720D01*
X234772Y190276D02*
X236248Y188799D01*
X245990D01*
X252470Y195280D01*
X281720D02*
X283000Y194000D01*
X237921Y190276D02*
X246353D01*
X252144Y196067D02*
X285933D01*
X288000Y194000D01*
X246353Y190276D02*
X252144Y196067D01*
X225323Y209173D02*
X226898Y210748D01*
X237921Y215472D02*
X239496Y217047D01*
X234772Y221772D02*
X236347Y223346D01*
X237921Y224921D02*
X239496Y226496D01*
X237921Y218622D02*
X239496Y220197D01*
X237921Y221772D02*
X239496Y223346D01*
X234772Y177677D02*
X236347Y176102D01*
X222173Y183976D02*
X223748Y182402D01*
X225323Y183976D02*
X226898Y182402D01*
X228472Y187126D02*
X230047Y185551D01*
X231622Y183976D02*
X233197Y182402D01*
X231622Y168228D02*
X233197Y166654D01*
X234772Y168228D02*
X236347Y166654D01*
X228472Y171378D02*
X230047Y169803D01*
X231622Y171378D02*
X233197Y169803D01*
X228472Y177677D02*
X230047Y176102D01*
X231622Y180827D02*
X233197Y179252D01*
X225323Y180827D02*
X226898Y179252D01*
X228472Y180827D02*
X230047Y179252D01*
X225323Y171378D02*
X226898Y169803D01*
X231622Y165079D02*
X233197Y163504D01*
X234772Y165079D02*
X236347Y163504D01*
X237921Y177677D02*
X239496Y176102D01*
X252734Y179000D02*
X253000D01*
X241508Y180547D02*
Y183539D01*
X237921Y187126D02*
X241508Y183539D01*
Y180547D02*
X243582Y178472D01*
X252206D02*
X252734Y179000D01*
X243582Y178472D02*
X252206D01*
X240721Y180221D02*
Y181177D01*
X237921Y183976D02*
X240721Y181177D01*
Y180221D02*
X243256Y177685D01*
X256685D01*
X258000Y179000D01*
X231622Y187126D02*
X233197Y185551D01*
X234772Y183976D02*
X236347Y182402D01*
X219024Y174528D02*
X220598Y172953D01*
X222173Y174528D02*
X223748Y172953D01*
X222173Y171378D02*
X223748Y169803D01*
X225323Y177677D02*
X226898Y176102D01*
X228472Y174528D02*
X230047Y172953D01*
X219024Y168228D02*
X220598Y166654D01*
X219024Y183976D02*
X220598Y182402D01*
X219024Y180827D02*
X220598Y179252D01*
X219024Y177677D02*
X220598Y176102D01*
X222173Y177677D02*
X223748Y176102D01*
X214283Y169787D02*
Y169803D01*
X212724Y171362D02*
X214283Y169803D01*
X212724Y171362D02*
Y171378D01*
X215874Y168228D02*
X215882D01*
X217457Y166654D01*
X217465D01*
X215874Y174528D02*
X217449Y172953D01*
X212724Y177677D02*
X214299Y176102D01*
X212732Y174528D02*
X214307Y172953D01*
X214315D01*
X212724Y174528D02*
X212732D01*
X211134Y176102D02*
Y176110D01*
X209575Y177669D02*
X211134Y176110D01*
X209575Y177669D02*
Y177677D01*
X234772Y180827D02*
X236347Y179252D01*
X209575Y171378D02*
X211150Y169803D01*
X204850D02*
X206425Y171378D01*
X212724Y165071D02*
Y165079D01*
Y165071D02*
X214283Y163512D01*
Y163504D02*
Y163512D01*
X215874Y165079D02*
X217449Y163504D01*
X209575Y168228D02*
X211150Y166654D01*
X209575Y165079D02*
X211150Y163504D01*
X204850Y166654D02*
X206425Y168228D01*
X201701Y166654D02*
X203276Y168228D01*
X198551Y166654D02*
X200126Y168228D01*
X204850Y172953D02*
X206425Y174528D01*
D63*
X193811Y244224D02*
D03*
D64*
X142700Y123300D02*
X145100Y125700D01*
X142631Y123369D02*
X142700Y123300D01*
X142431Y123369D02*
X142631D01*
X140100Y125700D02*
X142431Y123369D01*
X140100Y125700D02*
X140100D01*
X150100Y120700D02*
X152500Y118300D01*
X150100Y130700D02*
X152500Y133100D01*
X204600Y130700D02*
X207000Y133100D01*
X204600Y120700D02*
X207000Y118300D01*
X145100Y115700D02*
X147500Y118100D01*
X145100Y135700D02*
X147500Y133300D01*
X199600Y135700D02*
X202000Y133300D01*
X199600Y115700D02*
X202000Y118100D01*
X119372Y164721D02*
Y169220D01*
X119360Y164708D02*
X119372Y164721D01*
X118340Y164708D02*
X119360D01*
X118325Y164724D02*
X118340Y164708D01*
X245000Y212461D02*
X251594D01*
X252137Y211917D01*
X278863D01*
X280083Y213137D01*
Y234863D01*
X278445Y236500D02*
X280083Y234863D01*
X277555Y236500D02*
X278445D01*
X275709Y238346D02*
X277555Y236500D01*
X275709Y238346D02*
Y239237D01*
X265645Y249300D02*
X275709Y239237D01*
X239000Y249300D02*
X265645D01*
X119360Y160240D02*
X119372Y160228D01*
X119360Y160240D02*
Y164708D01*
X120870Y221496D02*
X123688Y218679D01*
X119372Y169220D02*
X119400Y169247D01*
X144055Y152700D02*
X151647D01*
X125455Y160200D02*
X125943D01*
X133464Y152680D01*
Y152354D02*
Y152680D01*
Y152354D02*
X133533Y152284D01*
X177653Y105000D02*
X183147D01*
Y112571D01*
X183018Y112700D02*
X183147Y112571D01*
D65*
X128878Y205748D02*
X132028D01*
X128878D02*
Y208898D01*
X125821Y186758D02*
X128878Y183701D01*
X125821Y186758D02*
Y199541D01*
X127303Y201024D01*
X213738Y148000D02*
X220016D01*
X210702Y151036D02*
X213738Y148000D01*
X210400Y151036D02*
X210702D01*
X242000Y145000D02*
Y149500D01*
X240500Y143500D02*
X242000Y145000D01*
X224516Y143500D02*
X240500D01*
X220016Y148000D02*
X224516Y143500D01*
X240700Y245400D02*
X241400Y244700D01*
Y240864D02*
Y244700D01*
X235500Y239741D02*
X235894D01*
X237017Y240864D01*
X241400D01*
X245000Y222461D02*
X245197D01*
X247467Y220191D01*
Y214731D02*
Y220191D01*
X245197Y212461D02*
X247467Y214731D01*
X204700Y151031D02*
X204702Y151034D01*
X210398D01*
X210400Y151036D01*
D66*
X245000Y212461D02*
X245197D01*
X247817Y209840D01*
Y200659D02*
Y209840D01*
X245197Y198039D02*
X247817Y200659D01*
X245000Y198039D02*
X245197D01*
X237921Y196575D02*
X237995D01*
X239459Y198039D01*
X245000D01*
X179654Y220197D02*
X181228Y218622D01*
X179654Y223346D02*
X181228Y221772D01*
D67*
X122000Y112000D02*
D03*
Y258000D02*
D03*
X317000Y112000D02*
D03*
Y258000D02*
D03*
D68*
X222717Y232618D02*
D03*
X211150Y217032D02*
D03*
X217449Y220213D02*
D03*
X214299D02*
D03*
X268000Y239000D02*
D03*
X192252Y201307D02*
D03*
X288000Y159000D02*
D03*
X189102Y172937D02*
D03*
X268000Y159000D02*
D03*
X201701Y172953D02*
D03*
X268000Y154000D02*
D03*
X201701Y176102D02*
D03*
X182803D02*
D03*
X155650Y182126D02*
D03*
X176504Y188701D02*
D03*
X185953Y185551D02*
D03*
X201701Y169803D02*
D03*
Y188701D02*
D03*
X198551Y191850D02*
D03*
X149350Y207323D02*
D03*
X152500Y207323D02*
D03*
X155650Y201024D02*
D03*
X133602Y213622D02*
D03*
X182803Y210748D02*
D03*
X155650Y219921D02*
D03*
X195402Y210748D02*
D03*
X201701Y220197D02*
D03*
X198551Y226496D02*
D03*
X204850Y210748D02*
D03*
X230047Y182402D02*
D03*
X217449Y204449D02*
D03*
X220598Y185551D02*
D03*
X226898Y207598D02*
D03*
X236347Y204449D02*
D03*
X123760Y215211D02*
D03*
X214307Y207598D02*
D03*
X223748Y163504D02*
D03*
X214299Y166654D02*
D03*
X185953Y220197D02*
D03*
X298000Y234000D02*
D03*
X127303Y201024D02*
D03*
X236347Y169803D02*
D03*
X226898Y172953D02*
D03*
X239496Y179252D02*
D03*
X233197Y226496D02*
D03*
X211150Y223346D02*
D03*
X239496Y213898D02*
D03*
X217449Y198150D02*
D03*
X233197Y191850D02*
D03*
X204850Y198150D02*
D03*
X214299Y185551D02*
D03*
X211150Y182402D02*
D03*
X201701D02*
D03*
X152500Y191575D02*
D03*
Y201024D02*
D03*
X201701Y191850D02*
D03*
X220598Y220197D02*
D03*
X195402Y204449D02*
D03*
X179654Y201307D02*
D03*
X189102Y163504D02*
D03*
X179654Y169803D02*
D03*
X223748Y198150D02*
D03*
X209146Y251724D02*
D03*
X220500Y247500D02*
D03*
X128874Y177402D02*
D03*
X128878Y171102D02*
D03*
X230047Y217047D02*
D03*
X173500Y226500D02*
D03*
X288000Y239000D02*
D03*
X293000Y159000D02*
D03*
X189102Y176102D02*
D03*
X253000Y234000D02*
D03*
X198551Y220197D02*
D03*
X268000Y234000D02*
D03*
X201701Y217047D02*
D03*
X293000Y239000D02*
D03*
X198354Y260800D02*
D03*
X283000Y239000D02*
D03*
X240874Y232008D02*
D03*
X195402Y220197D02*
D03*
X298000Y239000D02*
D03*
X192947Y260800D02*
D03*
X172765Y219936D02*
D03*
X152500Y197874D02*
D03*
X127303Y204165D02*
D03*
X223764Y226496D02*
D03*
Y223346D02*
D03*
X220598Y217047D02*
D03*
Y223346D02*
D03*
X236347Y217047D02*
D03*
Y213898D02*
D03*
X233197Y220197D02*
D03*
X236347D02*
D03*
X217449Y217047D02*
D03*
X230047Y220197D02*
D03*
X223748Y191850D02*
D03*
X220598D02*
D03*
X155650Y178976D02*
D03*
Y172677D02*
D03*
X283000Y234000D02*
D03*
X239496Y169803D02*
D03*
X242000Y149500D02*
D03*
X226898Y198150D02*
D03*
Y191850D02*
D03*
X230047D02*
D03*
Y198150D02*
D03*
X226898Y201299D02*
D03*
X230047D02*
D03*
X233197Y198150D02*
D03*
X223748Y188701D02*
D03*
Y185551D02*
D03*
X220598Y188701D02*
D03*
X226898Y185551D02*
D03*
X122300Y225185D02*
D03*
X200200Y233900D02*
D03*
X205476Y241724D02*
D03*
X240700Y245400D02*
D03*
X182476Y251724D02*
D03*
Y241724D02*
D03*
X201701Y163504D02*
D03*
Y198150D02*
D03*
X183600Y161000D02*
D03*
X195402Y172953D02*
D03*
X223748Y201299D02*
D03*
X201615Y201385D02*
D03*
X195402Y201299D02*
D03*
X166476Y215124D02*
D03*
X192449Y188701D02*
D03*
X189102D02*
D03*
X192252Y169819D02*
D03*
Y166654D02*
D03*
X195402Y182402D02*
D03*
X195402Y188701D02*
D03*
X185953Y169803D02*
D03*
X226898Y220197D02*
D03*
X223748D02*
D03*
X220598Y207598D02*
D03*
X223748Y210748D02*
D03*
X217449Y223346D02*
D03*
X133602Y216772D02*
D03*
X204850Y163504D02*
D03*
X220500Y143100D02*
D03*
X189102Y179252D02*
D03*
X185953D02*
D03*
X189102Y182402D02*
D03*
X192449D02*
D03*
X198543Y207598D02*
D03*
X179654D02*
D03*
X185953Y213898D02*
D03*
X201701D02*
D03*
X198551D02*
D03*
X195402D02*
D03*
X176504Y217047D02*
D03*
X189102Y213898D02*
D03*
X192256D02*
D03*
X182803D02*
D03*
X204850Y217047D02*
D03*
X192252Y220197D02*
D03*
Y223346D02*
D03*
X136752Y169528D02*
D03*
X133602D02*
D03*
X189102Y169803D02*
D03*
X198551Y163504D02*
D03*
X152500Y216772D02*
D03*
X182803Y188701D02*
D03*
X179654D02*
D03*
X195402Y169803D02*
D03*
X204850Y179252D02*
D03*
Y176102D02*
D03*
X198551Y169803D02*
D03*
Y172953D02*
D03*
X211150Y179236D02*
D03*
X214299Y198150D02*
D03*
X217449Y213898D02*
D03*
X220598Y198150D02*
D03*
X211134Y185551D02*
D03*
X204835Y201299D02*
D03*
X208000D02*
D03*
X204850Y191858D02*
D03*
X230031Y163520D02*
D03*
X220598Y163504D02*
D03*
X223748Y166654D02*
D03*
X226898D02*
D03*
X130453Y178976D02*
D03*
X130468Y201024D02*
D03*
X230047Y213898D02*
D03*
X233197Y188701D02*
D03*
Y217047D02*
D03*
X239496Y210748D02*
D03*
X226898Y213898D02*
D03*
X230047Y210748D02*
D03*
X233197D02*
D03*
X236347D02*
D03*
X233197Y213898D02*
D03*
X185953Y207598D02*
D03*
X239440Y201355D02*
D03*
X236347Y198150D02*
D03*
X211142Y213906D02*
D03*
X214299Y188701D02*
D03*
X217449Y169803D02*
D03*
X226898Y163504D02*
D03*
X211000Y232800D02*
D03*
X198551Y210748D02*
D03*
X236018Y156441D02*
D03*
X204850Y226496D02*
D03*
X233197Y201299D02*
D03*
X239496Y166654D02*
D03*
Y172953D02*
D03*
X220598Y169803D02*
D03*
Y226496D02*
D03*
X217449D02*
D03*
X273000Y239000D02*
D03*
X278000D02*
D03*
X195402Y191850D02*
D03*
X198551Y182402D02*
D03*
X195402Y207598D02*
D03*
X198551Y198150D02*
D03*
Y188701D02*
D03*
X177900Y129200D02*
D03*
X226898Y223346D02*
D03*
X223748Y213898D02*
D03*
X214299Y217047D02*
D03*
X223064Y253900D02*
D03*
X154936Y243375D02*
D03*
X195402Y217047D02*
D03*
X127303Y182126D02*
D03*
X133602Y188425D02*
D03*
X130453Y197874D02*
D03*
X152500Y188425D02*
D03*
X149350Y201024D02*
D03*
X155650Y197874D02*
D03*
X123760Y218360D02*
D03*
X155650Y207323D02*
D03*
Y210472D02*
D03*
X152500Y219921D02*
D03*
X176504Y172953D02*
D03*
X179654Y182402D02*
D03*
X182803Y191850D02*
D03*
X176504Y207402D02*
D03*
X182803Y226496D02*
D03*
X185953Y204449D02*
D03*
X179654Y217047D02*
D03*
X123100Y133900D02*
D03*
X220598Y204449D02*
D03*
X226898Y188701D02*
D03*
X245000Y222461D02*
D03*
Y212461D02*
D03*
X230047Y166654D02*
D03*
X223748Y179252D02*
D03*
X245500Y185461D02*
D03*
X233197Y176102D02*
D03*
X236347Y185551D02*
D03*
X239496Y163504D02*
D03*
X198551Y176102D02*
D03*
X211150Y172953D02*
D03*
X195402Y166654D02*
D03*
X192252Y198142D02*
D03*
X214299Y182402D02*
D03*
Y204449D02*
D03*
X211142Y207598D02*
D03*
X211150Y191850D02*
D03*
X201701Y185551D02*
D03*
X201701Y179252D02*
D03*
X177900Y142943D02*
D03*
X258000Y229000D02*
D03*
X217449Y210748D02*
D03*
X253000Y229000D02*
D03*
X201701Y226496D02*
D03*
X258000Y224000D02*
D03*
X214299Y213898D02*
D03*
X253000Y224000D02*
D03*
X258000Y219000D02*
D03*
X253000D02*
D03*
X189102Y226496D02*
D03*
X172064Y250100D02*
D03*
X178476Y246724D02*
D03*
X192236Y226496D02*
D03*
X205476Y246724D02*
D03*
X195402Y223346D02*
D03*
X192252Y217047D02*
D03*
X198551Y223346D02*
D03*
X172064Y256800D02*
D03*
X195402Y226496D02*
D03*
X211150Y220197D02*
D03*
X263000Y229000D02*
D03*
X204850Y220197D02*
D03*
X201701Y223346D02*
D03*
X283000Y229000D02*
D03*
X214325Y223321D02*
D03*
X283000Y214000D02*
D03*
X226898Y217047D02*
D03*
X278000Y214000D02*
D03*
X298000Y229000D02*
D03*
Y224000D02*
D03*
Y219000D02*
D03*
X288000D02*
D03*
X211150Y226496D02*
D03*
X214307Y210748D02*
D03*
X293000Y229000D02*
D03*
X214299Y226496D02*
D03*
X293000Y224000D02*
D03*
X223748Y217047D02*
D03*
X293000Y219000D02*
D03*
Y214000D02*
D03*
X288000Y229000D02*
D03*
Y214000D02*
D03*
Y224000D02*
D03*
X298000Y214000D02*
D03*
X263000Y224000D02*
D03*
X268000D02*
D03*
Y219000D02*
D03*
X226898Y226496D02*
D03*
X268000Y214000D02*
D03*
X263000Y219000D02*
D03*
X230047Y223346D02*
D03*
X278000Y224000D02*
D03*
X220598Y210748D02*
D03*
X230047Y226496D02*
D03*
X273000Y224000D02*
D03*
Y219000D02*
D03*
X233197Y223346D02*
D03*
X273000Y214000D02*
D03*
X220598Y213898D02*
D03*
X278000Y219000D02*
D03*
X189102Y220197D02*
D03*
X258000Y234000D02*
D03*
X263000D02*
D03*
X273000D02*
D03*
X278000D02*
D03*
X189102Y223346D02*
D03*
X288000Y234000D02*
D03*
X189102Y217047D02*
D03*
X198551D02*
D03*
X293000Y234000D02*
D03*
X136752Y188425D02*
D03*
X152500Y182126D02*
D03*
X127303Y197874D02*
D03*
X192252Y204449D02*
D03*
X185953Y223346D02*
D03*
Y182402D02*
D03*
X136752Y194724D02*
D03*
X130453Y188425D02*
D03*
X188900Y185551D02*
D03*
X149350Y210472D02*
D03*
X179654Y210748D02*
D03*
X149350Y213622D02*
D03*
X133602Y204173D02*
D03*
X179654Y220197D02*
D03*
X133602Y201024D02*
D03*
X179654Y223346D02*
D03*
X136752Y210472D02*
D03*
X173776Y207724D02*
D03*
X146201Y207323D02*
D03*
X141576Y213224D02*
D03*
X176504Y201299D02*
D03*
Y204449D02*
D03*
X130453Y216772D02*
D03*
X179654Y204449D02*
D03*
X149350Y219921D02*
D03*
X185953Y201307D02*
D03*
X133602Y210472D02*
D03*
X182803Y201307D02*
D03*
Y204449D02*
D03*
X152500Y213622D02*
D03*
X136752D02*
D03*
X151076Y227724D02*
D03*
X145976Y216824D02*
D03*
X149350Y197874D02*
D03*
X176504Y210748D02*
D03*
X133602Y197874D02*
D03*
X136752D02*
D03*
X182803Y217047D02*
D03*
X185953Y226496D02*
D03*
X152500Y204173D02*
D03*
X179654Y226496D02*
D03*
X182803Y223346D02*
D03*
X149350Y204173D02*
D03*
X136752Y207323D02*
D03*
X182803Y220197D02*
D03*
X133602Y185276D02*
D03*
X172576Y187324D02*
D03*
X155650Y188425D02*
D03*
X182803Y185551D02*
D03*
X149391Y194584D02*
D03*
X179654Y191850D02*
D03*
X149388Y191437D02*
D03*
X136752Y191575D02*
D03*
X133602Y182126D02*
D03*
X189102Y198142D02*
D03*
X152500Y178976D02*
D03*
X189102Y191850D02*
D03*
X130453Y182126D02*
D03*
X185953Y210748D02*
D03*
X146201Y172677D02*
D03*
X141476Y192756D02*
D03*
X185953Y217047D02*
D03*
X171076Y202824D02*
D03*
X189102Y210748D02*
D03*
X146201Y188425D02*
D03*
X133602Y175827D02*
D03*
X189102Y201307D02*
D03*
X152500Y169528D02*
D03*
X179654Y195000D02*
D03*
X189102D02*
D03*
X133602Y172677D02*
D03*
X185953Y191850D02*
D03*
X152500Y172677D02*
D03*
X185953Y188701D02*
D03*
X152500Y175827D02*
D03*
X182803Y198142D02*
D03*
X136752Y175827D02*
D03*
X169976Y189124D02*
D03*
X149350Y175827D02*
D03*
X166876Y178824D02*
D03*
X136752Y178976D02*
D03*
X171476Y177124D02*
D03*
X233197Y172953D02*
D03*
X163500Y243275D02*
D03*
X192252Y191850D02*
D03*
X152500Y185276D02*
D03*
X189102Y207598D02*
D03*
Y204449D02*
D03*
X192256Y210748D02*
D03*
X258000Y239000D02*
D03*
X192252Y207598D02*
D03*
X253000Y239000D02*
D03*
X201701Y210748D02*
D03*
X263000Y239000D02*
D03*
X271500Y136000D02*
D03*
X236347Y172953D02*
D03*
X253000Y214000D02*
D03*
X258000D02*
D03*
X283000Y209000D02*
D03*
X288000D02*
D03*
X273000D02*
D03*
X278000D02*
D03*
X263000D02*
D03*
X220598Y201299D02*
D03*
X268000Y209000D02*
D03*
X223748Y204449D02*
D03*
X253000Y209000D02*
D03*
X223748Y207598D02*
D03*
X258000Y209000D02*
D03*
X236347Y207598D02*
D03*
X239496D02*
D03*
Y204449D02*
D03*
X230047Y207598D02*
D03*
X273000Y204000D02*
D03*
X233197Y207598D02*
D03*
X278000Y204000D02*
D03*
X263000D02*
D03*
X268000D02*
D03*
X253000D02*
D03*
X233197Y204449D02*
D03*
X258000Y204000D02*
D03*
X226898Y204449D02*
D03*
X293000Y199000D02*
D03*
X230047Y204449D02*
D03*
X298000Y199000D02*
D03*
X283000D02*
D03*
X288000D02*
D03*
X236347Y201299D02*
D03*
X234772Y193425D02*
D03*
X253000Y199000D02*
D03*
X237921Y193425D02*
D03*
X258000Y199000D02*
D03*
X293000Y194000D02*
D03*
X230047Y188701D02*
D03*
X298000Y194000D02*
D03*
X283000D02*
D03*
X288000D02*
D03*
X226898Y210748D02*
D03*
X273000Y194000D02*
D03*
X278000D02*
D03*
X263000D02*
D03*
X268000D02*
D03*
X253000D02*
D03*
X258000D02*
D03*
X239496Y217047D02*
D03*
X293000Y189000D02*
D03*
X298000D02*
D03*
X236347Y223346D02*
D03*
X283000Y189000D02*
D03*
X239496Y226496D02*
D03*
X288000Y189000D02*
D03*
X239496Y220197D02*
D03*
X273000Y189000D02*
D03*
X239496Y223346D02*
D03*
X278000Y189000D02*
D03*
X268000D02*
D03*
X263000Y214000D02*
D03*
Y189000D02*
D03*
X236347Y176102D02*
D03*
X223748Y182402D02*
D03*
X253000Y189000D02*
D03*
X226898Y182402D02*
D03*
X258000Y189000D02*
D03*
X230047Y185551D02*
D03*
X293000Y184000D02*
D03*
X233197Y182402D02*
D03*
X298000Y184000D02*
D03*
X233197Y166654D02*
D03*
X283000Y184000D02*
D03*
X236347Y166654D02*
D03*
X288000Y184000D02*
D03*
X273000D02*
D03*
X230047Y169803D02*
D03*
X278000Y184000D02*
D03*
X233197Y169803D02*
D03*
X230047Y176102D02*
D03*
X263000Y184000D02*
D03*
X233197Y179252D02*
D03*
X268000Y184000D02*
D03*
X226898Y179252D02*
D03*
X253000Y184000D02*
D03*
X230047Y179252D02*
D03*
X258000Y184000D02*
D03*
X293000Y179000D02*
D03*
X226898Y169803D02*
D03*
X298000Y179000D02*
D03*
X283000D02*
D03*
X233197Y163504D02*
D03*
X288000Y179000D02*
D03*
X236347Y163504D02*
D03*
X273000Y179000D02*
D03*
X278000D02*
D03*
X263000D02*
D03*
X239496Y176102D02*
D03*
X268000Y179000D02*
D03*
X253000D02*
D03*
X258000D02*
D03*
X298000Y174000D02*
D03*
X233197Y185551D02*
D03*
X293000Y174000D02*
D03*
X236347Y182402D02*
D03*
X220598Y172953D02*
D03*
X288000Y174000D02*
D03*
X223748Y172953D02*
D03*
Y169803D02*
D03*
X263000Y174000D02*
D03*
X226898Y176102D02*
D03*
X230047Y172953D02*
D03*
X268000Y174000D02*
D03*
X220598Y166654D02*
D03*
X253000Y174000D02*
D03*
X258000D02*
D03*
X298000Y169000D02*
D03*
X293000D02*
D03*
X220598Y182402D02*
D03*
X283000Y169000D02*
D03*
X220598Y179252D02*
D03*
X288000Y169000D02*
D03*
X220598Y176102D02*
D03*
X273000Y169000D02*
D03*
X278000D02*
D03*
X223748Y176102D02*
D03*
X214283Y169787D02*
D03*
X263000Y169000D02*
D03*
X217465Y166654D02*
D03*
X268000Y169000D02*
D03*
X217449Y172953D02*
D03*
X253000Y169000D02*
D03*
X258000D02*
D03*
X214299Y176102D02*
D03*
X293000Y164000D02*
D03*
X214315Y172953D02*
D03*
X298000Y164000D02*
D03*
X211134Y176102D02*
D03*
X283000Y164000D02*
D03*
X288000D02*
D03*
X236347Y179252D02*
D03*
X268000Y164000D02*
D03*
X273000D02*
D03*
X211150Y169803D02*
D03*
X258000Y164000D02*
D03*
X204850Y169803D02*
D03*
X263000Y164000D02*
D03*
X214283Y163504D02*
D03*
X298000Y159000D02*
D03*
X217449Y163504D02*
D03*
X253000Y164000D02*
D03*
X211150Y166654D02*
D03*
X278000Y159000D02*
D03*
X211150Y163504D02*
D03*
X283000Y159000D02*
D03*
X273000D02*
D03*
X204850Y166654D02*
D03*
X258000Y159000D02*
D03*
X201701Y166654D02*
D03*
X263000Y159000D02*
D03*
X298000Y154000D02*
D03*
X198551Y166654D02*
D03*
X253000Y159000D02*
D03*
X288000Y154000D02*
D03*
X293000D02*
D03*
X278000D02*
D03*
X283000D02*
D03*
X204850Y172953D02*
D03*
X273000Y154000D02*
D03*
X258000D02*
D03*
X263000D02*
D03*
X253000D02*
D03*
X192246Y185545D02*
D03*
X181700Y258600D02*
D03*
X209541Y260800D02*
D03*
X172429Y236724D02*
D03*
X194741Y160000D02*
D03*
X211142Y210740D02*
D03*
M02*
