G04*
G04 #@! TF.GenerationSoftware,Altium Limited,Altium Designer,25.6.2 (33)*
G04*
G04 Layer_Color=65535*
%FSLAX25Y25*%
%MOIN*%
G70*
G04*
G04 #@! TF.SameCoordinates,D3077B53-F130-49B9-AE0B-FC42BD5CCE1B*
G04*
G04*
G04 #@! TF.FilePolarity,Positive*
G04*
G01*
G75*
%ADD10C,0.00984*%
%ADD11C,0.00787*%
%ADD12C,0.00500*%
%ADD13C,0.01000*%
G36*
X129474Y222284D02*
X125728Y218537D01*
Y222284D01*
X129474D01*
D02*
G37*
G36*
X178142Y228465D02*
X174535Y224858D01*
Y228465D01*
X178142D01*
D02*
G37*
G36*
X283400Y114400D02*
X276140D01*
Y129794D01*
X283400D01*
Y114400D01*
D02*
G37*
G36*
X283313Y142425D02*
X276053D01*
Y169554D01*
X283313D01*
Y142425D01*
D02*
G37*
G36*
X274136Y253027D02*
X274178Y253019D01*
X274195D01*
X274253Y253010D01*
X274303Y253002D01*
X274336Y252994D01*
X274345D01*
X274436Y252969D01*
X274520Y252935D01*
X274586Y252902D01*
X274645Y252860D01*
X274686Y252827D01*
X274711Y252794D01*
X274728Y252777D01*
X274736Y252769D01*
X274778Y252702D01*
X274803Y252627D01*
X274819Y252552D01*
X274828Y252485D01*
X274836Y252427D01*
X274828Y252377D01*
Y252336D01*
Y252327D01*
X274803Y252236D01*
X274769Y252161D01*
X274736Y252094D01*
X274695Y252044D01*
X274653Y252002D01*
X274628Y251977D01*
X274603Y251961D01*
X274595Y251952D01*
X274528Y251919D01*
X274453Y251894D01*
X274378Y251877D01*
X274195D01*
X274153Y251886D01*
X274145D01*
X274103Y251894D01*
X274061D01*
X274028Y251902D01*
X274020D01*
X273970Y251911D01*
X273787D01*
X273695Y251894D01*
X273612Y251869D01*
X273528Y251844D01*
X273378Y251761D01*
X273253Y251677D01*
X273153Y251586D01*
X273078Y251511D01*
X273054Y251478D01*
X273037Y251461D01*
X273029Y251444D01*
X273020Y251436D01*
X272962Y251336D01*
X272904Y251228D01*
X272862Y251111D01*
X272820Y250994D01*
X272754Y250736D01*
X272712Y250478D01*
X272695Y250361D01*
X272687Y250253D01*
X272679Y250145D01*
X272670Y250061D01*
X272662Y249987D01*
Y249937D01*
Y249895D01*
Y249886D01*
Y248570D01*
X272654Y248470D01*
X272637Y248387D01*
X272612Y248304D01*
X272587Y248246D01*
X272554Y248187D01*
X272529Y248154D01*
X272512Y248129D01*
X272504Y248121D01*
X272437Y248062D01*
X272371Y248021D01*
X272295Y247996D01*
X272229Y247979D01*
X272162Y247962D01*
X272112Y247954D01*
X272071D01*
X271979Y247962D01*
X271896Y247979D01*
X271821Y248004D01*
X271762Y248037D01*
X271712Y248071D01*
X271679Y248096D01*
X271654Y248112D01*
X271646Y248121D01*
X271596Y248187D01*
X271554Y248262D01*
X271529Y248337D01*
X271504Y248412D01*
X271496Y248470D01*
X271487Y248529D01*
Y248562D01*
Y248570D01*
Y252336D01*
X271496Y252435D01*
X271513Y252519D01*
X271537Y252594D01*
X271571Y252660D01*
X271596Y252710D01*
X271621Y252744D01*
X271637Y252769D01*
X271646Y252777D01*
X271712Y252835D01*
X271779Y252877D01*
X271854Y252910D01*
X271921Y252927D01*
X271979Y252944D01*
X272029Y252952D01*
X272071D01*
X272162Y252944D01*
X272246Y252927D01*
X272312Y252902D01*
X272371Y252877D01*
X272421Y252844D01*
X272454Y252819D01*
X272470Y252802D01*
X272479Y252794D01*
X272529Y252735D01*
X272570Y252669D01*
X272604Y252594D01*
X272620Y252527D01*
X272637Y252469D01*
X272645Y252419D01*
Y252385D01*
Y252377D01*
Y252252D01*
X272695D01*
X272779Y252385D01*
X272870Y252502D01*
X272962Y252602D01*
X273054Y252677D01*
X273137Y252744D01*
X273203Y252794D01*
X273245Y252819D01*
X273262Y252827D01*
X273395Y252894D01*
X273537Y252944D01*
X273662Y252985D01*
X273770Y253010D01*
X273862Y253027D01*
X273937Y253035D01*
X274078D01*
X274136Y253027D01*
D02*
G37*
G36*
X278210Y253019D02*
X278410Y252994D01*
X278585Y252969D01*
X278735Y252935D01*
X278860Y252894D01*
X278909Y252877D01*
X278951Y252869D01*
X278993Y252852D01*
X279018Y252844D01*
X279026Y252835D01*
X279034D01*
X279201Y252760D01*
X279359Y252677D01*
X279493Y252585D01*
X279618Y252502D01*
X279709Y252427D01*
X279784Y252369D01*
X279826Y252327D01*
X279842Y252311D01*
X279901Y252236D01*
X279942Y252169D01*
X279967Y252102D01*
X279984Y252036D01*
X279992Y251986D01*
Y251944D01*
Y251919D01*
Y251911D01*
X279976Y251836D01*
X279951Y251761D01*
X279918Y251694D01*
X279876Y251636D01*
X279842Y251586D01*
X279818Y251544D01*
X279792Y251519D01*
X279784Y251511D01*
X279709Y251444D01*
X279634Y251403D01*
X279568Y251361D01*
X279509Y251336D01*
X279459Y251328D01*
X279418Y251319D01*
X279393Y251311D01*
X279384D01*
X279318Y251319D01*
X279243Y251336D01*
X279184Y251369D01*
X279126Y251403D01*
X279084Y251428D01*
X279051Y251461D01*
X279026Y251478D01*
X279018Y251486D01*
X278943Y251561D01*
X278860Y251627D01*
X278785Y251677D01*
X278718Y251728D01*
X278660Y251761D01*
X278610Y251786D01*
X278576Y251802D01*
X278568Y251811D01*
X278468Y251852D01*
X278376Y251886D01*
X278276Y251911D01*
X278193Y251927D01*
X278118Y251936D01*
X278051Y251944D01*
X278002D01*
X277885Y251936D01*
X277768Y251919D01*
X277568Y251869D01*
X277394Y251794D01*
X277243Y251719D01*
X277127Y251636D01*
X277035Y251569D01*
X277010Y251544D01*
X276985Y251519D01*
X276977Y251511D01*
X276969Y251503D01*
X276902Y251419D01*
X276844Y251336D01*
X276744Y251161D01*
X276677Y250978D01*
X276627Y250811D01*
X276594Y250670D01*
X276586Y250603D01*
X276577Y250553D01*
Y250503D01*
X276569Y250470D01*
Y250453D01*
Y250445D01*
X276577Y250328D01*
X276594Y250220D01*
X276635Y250020D01*
X276702Y249836D01*
X276777Y249687D01*
X276844Y249562D01*
X276877Y249512D01*
X276910Y249470D01*
X276935Y249437D01*
X276952Y249412D01*
X276969Y249403D01*
Y249395D01*
X277044Y249320D01*
X277127Y249254D01*
X277293Y249153D01*
X277460Y249078D01*
X277627Y249020D01*
X277777Y248987D01*
X277843Y248979D01*
X277893Y248970D01*
X277943D01*
X277977Y248962D01*
X278002D01*
X278118Y248970D01*
X278226Y248987D01*
X278326Y249004D01*
X278410Y249028D01*
X278476Y249054D01*
X278535Y249070D01*
X278568Y249078D01*
X278576Y249087D01*
X278668Y249137D01*
X278760Y249195D01*
X278835Y249245D01*
X278901Y249303D01*
X278959Y249345D01*
X279001Y249387D01*
X279026Y249412D01*
X279034Y249420D01*
X279101Y249478D01*
X279176Y249528D01*
X279243Y249562D01*
X279301Y249578D01*
X279351Y249595D01*
X279393Y249603D01*
X279426D01*
X279501Y249595D01*
X279576Y249578D01*
X279651Y249545D01*
X279709Y249512D01*
X279759Y249478D01*
X279801Y249445D01*
X279826Y249428D01*
X279834Y249420D01*
X279892Y249345D01*
X279942Y249278D01*
X279976Y249203D01*
X280001Y249145D01*
X280017Y249087D01*
X280026Y249045D01*
Y249020D01*
Y249012D01*
Y248929D01*
X280001Y248854D01*
X279976Y248787D01*
X279942Y248720D01*
X279909Y248670D01*
X279876Y248629D01*
X279851Y248604D01*
X279842Y248595D01*
X279709Y248470D01*
X279568Y248362D01*
X279434Y248271D01*
X279301Y248196D01*
X279193Y248137D01*
X279101Y248096D01*
X279068Y248079D01*
X279051Y248071D01*
X279034Y248062D01*
X279026D01*
X278851Y248004D01*
X278676Y247954D01*
X278501Y247921D01*
X278343Y247904D01*
X278202Y247887D01*
X278143D01*
X278101Y247879D01*
X278002D01*
X277727Y247896D01*
X277468Y247929D01*
X277235Y247979D01*
X277135Y248012D01*
X277035Y248046D01*
X276952Y248071D01*
X276869Y248104D01*
X276802Y248129D01*
X276752Y248154D01*
X276702Y248171D01*
X276669Y248187D01*
X276652Y248204D01*
X276644D01*
X276435Y248337D01*
X276252Y248487D01*
X276094Y248637D01*
X275969Y248787D01*
X275861Y248920D01*
X275819Y248979D01*
X275786Y249020D01*
X275761Y249062D01*
X275744Y249095D01*
X275728Y249112D01*
Y249120D01*
X275619Y249345D01*
X275536Y249570D01*
X275478Y249795D01*
X275436Y250003D01*
X275419Y250095D01*
X275411Y250178D01*
X275403Y250253D01*
Y250320D01*
X275394Y250370D01*
Y250411D01*
Y250436D01*
Y250445D01*
X275411Y250719D01*
X275444Y250969D01*
X275503Y251203D01*
X275528Y251303D01*
X275561Y251394D01*
X275594Y251478D01*
X275619Y251553D01*
X275653Y251619D01*
X275677Y251677D01*
X275694Y251719D01*
X275711Y251752D01*
X275728Y251769D01*
Y251777D01*
X275861Y251986D01*
X276011Y252169D01*
X276161Y252327D01*
X276311Y252452D01*
X276444Y252560D01*
X276502Y252602D01*
X276544Y252635D01*
X276586Y252660D01*
X276619Y252677D01*
X276635Y252694D01*
X276644D01*
X276869Y252802D01*
X277102Y252885D01*
X277335Y252944D01*
X277543Y252985D01*
X277643Y253002D01*
X277727Y253010D01*
X277810Y253019D01*
X277877D01*
X277927Y253027D01*
X278002D01*
X278210Y253019D01*
D02*
G37*
G36*
X292446Y251319D02*
X292529Y251303D01*
X292604Y251278D01*
X292662Y251253D01*
X292712Y251228D01*
X292754Y251203D01*
X292771Y251186D01*
X292779Y251178D01*
X292837Y251119D01*
X292879Y251053D01*
X292904Y250978D01*
X292929Y250911D01*
X292937Y250853D01*
X292946Y250803D01*
Y250769D01*
Y250761D01*
X292937Y250670D01*
X292921Y250586D01*
X292896Y250511D01*
X292862Y250453D01*
X292829Y250403D01*
X292804Y250370D01*
X292787Y250353D01*
X292779Y250345D01*
X292712Y250295D01*
X292646Y250261D01*
X292571Y250228D01*
X292504Y250211D01*
X292438Y250203D01*
X292388Y250195D01*
X290255D01*
X290155Y250203D01*
X290072Y250220D01*
X289997Y250245D01*
X289930Y250270D01*
X289880Y250295D01*
X289847Y250320D01*
X289822Y250336D01*
X289813Y250345D01*
X289763Y250403D01*
X289722Y250470D01*
X289697Y250545D01*
X289672Y250611D01*
X289664Y250670D01*
X289655Y250719D01*
Y250753D01*
Y250761D01*
X289664Y250853D01*
X289680Y250936D01*
X289705Y251011D01*
X289738Y251069D01*
X289763Y251119D01*
X289789Y251153D01*
X289805Y251169D01*
X289813Y251178D01*
X289880Y251228D01*
X289955Y251261D01*
X290030Y251294D01*
X290097Y251311D01*
X290163Y251319D01*
X290213Y251328D01*
X292346D01*
X292446Y251319D01*
D02*
G37*
G36*
X297794Y254468D02*
X297869Y254460D01*
X297935Y254435D01*
X297994Y254418D01*
X298035Y254393D01*
X298068Y254368D01*
X298085Y254360D01*
X298094Y254351D01*
X298152Y254301D01*
X298194Y254243D01*
X298227Y254193D01*
X298260Y254135D01*
X298277Y254093D01*
X298293Y254051D01*
X298302Y254027D01*
Y254018D01*
X298310Y253935D01*
X298318Y253868D01*
X298310Y253810D01*
Y253802D01*
Y253793D01*
X298293Y253710D01*
X298260Y253643D01*
X298235Y253593D01*
X298227Y253585D01*
Y253577D01*
X295694Y248287D01*
X295636Y248204D01*
X295578Y248137D01*
X295520Y248087D01*
X295461Y248046D01*
X295403Y248012D01*
X295370Y247996D01*
X295336Y247979D01*
X295328D01*
X295245Y247962D01*
X295161D01*
X295086Y247971D01*
X295011Y247987D01*
X294953Y248004D01*
X294912Y248021D01*
X294878Y248029D01*
X294870Y248037D01*
X294795Y248087D01*
X294737Y248146D01*
X294687Y248204D01*
X294653Y248262D01*
X294628Y248312D01*
X294612Y248354D01*
X294603Y248379D01*
Y248387D01*
X294595Y248470D01*
Y248562D01*
X294603Y248637D01*
X294620Y248712D01*
X294637Y248770D01*
X294653Y248812D01*
X294662Y248845D01*
X294670Y248854D01*
X296927Y253368D01*
X294487D01*
X294395Y253377D01*
X294312Y253394D01*
X294237Y253418D01*
X294178Y253443D01*
X294128Y253468D01*
X294095Y253493D01*
X294070Y253510D01*
X294062Y253518D01*
X294012Y253577D01*
X293970Y253643D01*
X293945Y253710D01*
X293920Y253777D01*
X293912Y253835D01*
X293903Y253877D01*
Y253910D01*
Y253918D01*
X293912Y254010D01*
X293929Y254093D01*
X293953Y254160D01*
X293987Y254218D01*
X294012Y254268D01*
X294037Y254301D01*
X294054Y254318D01*
X294062Y254326D01*
X294128Y254376D01*
X294195Y254410D01*
X294270Y254443D01*
X294337Y254460D01*
X294395Y254468D01*
X294445Y254476D01*
X297710D01*
X297794Y254468D01*
D02*
G37*
G36*
X301775Y253019D02*
X302000Y252985D01*
X302200Y252944D01*
X302375Y252894D01*
X302458Y252869D01*
X302525Y252844D01*
X302583Y252819D01*
X302642Y252802D01*
X302675Y252785D01*
X302708Y252769D01*
X302725Y252760D01*
X302733D01*
X302933Y252652D01*
X303108Y252536D01*
X303267Y252402D01*
X303391Y252277D01*
X303500Y252169D01*
X303575Y252077D01*
X303600Y252044D01*
X303616Y252019D01*
X303633Y252002D01*
Y251994D01*
X303750Y251794D01*
X303833Y251586D01*
X303891Y251378D01*
X303933Y251178D01*
X303949Y251086D01*
X303966Y251003D01*
X303975Y250936D01*
Y250869D01*
X303983Y250819D01*
Y250778D01*
Y250753D01*
Y250745D01*
Y248570D01*
X303975Y248470D01*
X303958Y248387D01*
X303933Y248304D01*
X303908Y248246D01*
X303874Y248187D01*
X303850Y248154D01*
X303833Y248129D01*
X303825Y248121D01*
X303766Y248062D01*
X303691Y248021D01*
X303625Y247996D01*
X303558Y247979D01*
X303491Y247962D01*
X303441Y247954D01*
X303400D01*
X303308Y247962D01*
X303233Y247979D01*
X303167Y248004D01*
X303108Y248029D01*
X303058Y248054D01*
X303025Y248079D01*
X303008Y248096D01*
X303000Y248104D01*
X302950Y248162D01*
X302908Y248229D01*
X302875Y248295D01*
X302858Y248362D01*
X302842Y248420D01*
X302833Y248462D01*
X302825Y248495D01*
Y248504D01*
X302775D01*
X302708Y248420D01*
X302633Y248345D01*
X302550Y248271D01*
X302475Y248204D01*
X302400Y248154D01*
X302342Y248112D01*
X302300Y248087D01*
X302284Y248079D01*
X302150Y248012D01*
X302000Y247971D01*
X301842Y247929D01*
X301692Y247904D01*
X301551Y247896D01*
X301492Y247887D01*
X301442D01*
X301400Y247879D01*
X301342D01*
X301101Y247896D01*
X300867Y247929D01*
X300659Y247979D01*
X300476Y248037D01*
X300393Y248071D01*
X300326Y248096D01*
X300259Y248121D01*
X300209Y248146D01*
X300168Y248171D01*
X300134Y248179D01*
X300118Y248196D01*
X300109D01*
X299909Y248329D01*
X299734Y248470D01*
X299576Y248620D01*
X299451Y248762D01*
X299351Y248887D01*
X299310Y248945D01*
X299268Y248995D01*
X299243Y249028D01*
X299226Y249062D01*
X299218Y249078D01*
X299210Y249087D01*
X299093Y249303D01*
X299010Y249528D01*
X298952Y249745D01*
X298910Y249945D01*
X298893Y250037D01*
X298885Y250120D01*
X298877Y250195D01*
X298868Y250253D01*
X298860Y250311D01*
Y250345D01*
Y250370D01*
Y250378D01*
X298868Y250595D01*
X298893Y250803D01*
X298926Y250994D01*
X298976Y251178D01*
X299026Y251353D01*
X299093Y251503D01*
X299151Y251653D01*
X299218Y251777D01*
X299285Y251894D01*
X299351Y251994D01*
X299410Y252086D01*
X299468Y252152D01*
X299510Y252211D01*
X299543Y252252D01*
X299568Y252277D01*
X299576Y252286D01*
X299718Y252411D01*
X299868Y252527D01*
X300018Y252627D01*
X300184Y252710D01*
X300343Y252777D01*
X300509Y252835D01*
X300668Y252885D01*
X300826Y252927D01*
X300967Y252960D01*
X301109Y252985D01*
X301226Y253002D01*
X301334Y253010D01*
X301426Y253019D01*
X301484Y253027D01*
X301542D01*
X301775Y253019D01*
D02*
G37*
G36*
X287939Y254460D02*
X287998Y254451D01*
X288048Y254435D01*
X288081Y254418D01*
X288114Y254410D01*
X288131Y254393D01*
X288139D01*
X288231Y254326D01*
X288297Y254252D01*
X288322Y254218D01*
X288339Y254193D01*
X288347Y254176D01*
Y254168D01*
X288372Y254110D01*
X288389Y254051D01*
X288406Y253943D01*
Y253902D01*
Y253868D01*
Y253843D01*
Y253835D01*
X288381Y253710D01*
X288364Y253652D01*
X288347Y253602D01*
X288331Y253568D01*
X288314Y253535D01*
X288306Y253518D01*
X288297Y253510D01*
X285190Y249087D01*
X287864D01*
X287964Y249078D01*
X288048Y249062D01*
X288123Y249037D01*
X288181Y249012D01*
X288231Y248979D01*
X288273Y248954D01*
X288289Y248937D01*
X288297Y248929D01*
X288356Y248870D01*
X288397Y248804D01*
X288422Y248737D01*
X288447Y248670D01*
X288456Y248612D01*
X288464Y248562D01*
Y248529D01*
Y248520D01*
X288456Y248429D01*
X288439Y248345D01*
X288414Y248279D01*
X288381Y248212D01*
X288347Y248171D01*
X288322Y248129D01*
X288306Y248112D01*
X288297Y248104D01*
X288231Y248054D01*
X288164Y248021D01*
X288089Y247987D01*
X288023Y247971D01*
X287956Y247962D01*
X287906Y247954D01*
X284057D01*
X283974Y247962D01*
X283908Y247971D01*
X283849Y247987D01*
X283799Y248012D01*
X283758Y248037D01*
X283733Y248054D01*
X283716Y248062D01*
X283708Y248071D01*
X283666Y248121D01*
X283633Y248179D01*
X283583Y248287D01*
X283566Y248337D01*
X283549Y248379D01*
X283541Y248404D01*
Y248412D01*
X283533Y248504D01*
X283524Y248579D01*
X283533Y248612D01*
Y248637D01*
Y248654D01*
Y248662D01*
X283558Y248762D01*
X283599Y248845D01*
X283616Y248879D01*
X283624Y248904D01*
X283641Y248920D01*
Y248929D01*
X286748Y253344D01*
X284191D01*
X284099Y253352D01*
X284024Y253368D01*
X283958Y253394D01*
X283899Y253418D01*
X283858Y253443D01*
X283824Y253468D01*
X283808Y253485D01*
X283799Y253493D01*
X283758Y253560D01*
X283724Y253627D01*
X283699Y253693D01*
X283683Y253760D01*
X283666Y253818D01*
X283658Y253868D01*
Y253902D01*
Y253910D01*
X283666Y254001D01*
X283691Y254085D01*
X283716Y254152D01*
X283741Y254210D01*
X283774Y254260D01*
X283799Y254293D01*
X283816Y254310D01*
X283824Y254318D01*
X283891Y254368D01*
X283966Y254410D01*
X284033Y254435D01*
X284107Y254460D01*
X284166Y254468D01*
X284216Y254476D01*
X287806D01*
X287939Y254460D01*
D02*
G37*
G36*
X267922Y254551D02*
X267989Y254543D01*
X268047Y254526D01*
X268097Y254510D01*
X268139Y254485D01*
X268172Y254468D01*
X268189Y254460D01*
X268197Y254451D01*
X268255Y254410D01*
X268297Y254360D01*
X268372Y254260D01*
X268397Y254218D01*
X268414Y254176D01*
X268430Y254152D01*
Y254143D01*
X270596Y248795D01*
X270630Y248704D01*
X270638Y248612D01*
X270646Y248537D01*
X270638Y248462D01*
X270630Y248404D01*
X270621Y248362D01*
X270604Y248329D01*
Y248321D01*
X270563Y248246D01*
X270521Y248179D01*
X270463Y248121D01*
X270405Y248071D01*
X270355Y248037D01*
X270313Y248012D01*
X270280Y247996D01*
X270271Y247987D01*
X270180Y247962D01*
X270088Y247954D01*
X269938D01*
X269880Y247971D01*
X269838Y247979D01*
X269805Y247996D01*
X269796D01*
X269722Y248046D01*
X269655Y248096D01*
X269605Y248162D01*
X269555Y248220D01*
X269522Y248279D01*
X269497Y248321D01*
X269488Y248354D01*
X269480Y248362D01*
X269163Y249220D01*
X266540D01*
X266223Y248362D01*
X266181Y248271D01*
X266131Y248196D01*
X266081Y248129D01*
X266031Y248079D01*
X265981Y248046D01*
X265940Y248021D01*
X265915Y248004D01*
X265906Y247996D01*
X265823Y247971D01*
X265740Y247954D01*
X265665Y247946D01*
X265590Y247954D01*
X265523Y247962D01*
X265473Y247979D01*
X265440Y247987D01*
X265432D01*
X265348Y248037D01*
X265273Y248087D01*
X265215Y248146D01*
X265165Y248196D01*
X265132Y248246D01*
X265107Y248287D01*
X265098Y248312D01*
X265090Y248321D01*
X265065Y248404D01*
X265057Y248487D01*
Y248570D01*
X265065Y248645D01*
X265082Y248704D01*
X265090Y248754D01*
X265107Y248787D01*
Y248795D01*
X267272Y254143D01*
X267306Y254218D01*
X267348Y254276D01*
X267381Y254335D01*
X267423Y254376D01*
X267456Y254410D01*
X267481Y254435D01*
X267497Y254443D01*
X267506Y254451D01*
X267564Y254485D01*
X267631Y254518D01*
X267739Y254543D01*
X267789Y254551D01*
X267822Y254560D01*
X267856D01*
X267922Y254551D01*
D02*
G37*
G36*
X304923Y256600D02*
X234600D01*
Y265239D01*
X276500D01*
Y265281D01*
X304923D01*
Y256600D01*
D02*
G37*
%LPC*%
G36*
X282900Y129294D02*
X276640D01*
X279659D01*
X279645Y129176D01*
X279631Y129058D01*
X279624Y128954D01*
X279617Y128863D01*
X279610Y128787D01*
Y128676D01*
X279617Y128454D01*
X279624Y128350D01*
X279631Y128260D01*
X279645Y128183D01*
X279652Y128121D01*
X279659Y128079D01*
Y128065D01*
X281797D01*
X281810Y127996D01*
X281817Y127926D01*
X281824Y127899D01*
Y127878D01*
X281831Y127864D01*
Y127857D01*
X281838Y127774D01*
X281845Y127690D01*
Y127607D01*
X281838Y127454D01*
X281824Y127309D01*
X281797Y127177D01*
X281769Y127052D01*
X281727Y126941D01*
X281685Y126837D01*
X281637Y126740D01*
X281588Y126656D01*
X281547Y126580D01*
X281498Y126518D01*
X281456Y126462D01*
X281415Y126420D01*
X281387Y126386D01*
X281359Y126358D01*
X281345Y126344D01*
X281339Y126337D01*
X281234Y126261D01*
X281123Y126198D01*
X281005Y126136D01*
X280880Y126087D01*
X280749Y126046D01*
X280624Y126011D01*
X280374Y125962D01*
X280256Y125942D01*
X280145Y125928D01*
X280048Y125921D01*
X279957Y125914D01*
X279888Y125907D01*
X279839D01*
X279805D01*
X279791D01*
X279604Y125914D01*
X279423Y125928D01*
X279257Y125949D01*
X279104Y125976D01*
X278965Y126011D01*
X278840Y126046D01*
X278722Y126087D01*
X278618Y126129D01*
X278521Y126164D01*
X278445Y126205D01*
X278375Y126240D01*
X278320Y126275D01*
X278278Y126302D01*
X278250Y126323D01*
X278229Y126337D01*
X278222Y126344D01*
X278132Y126427D01*
X278049Y126524D01*
X277979Y126622D01*
X277917Y126726D01*
X277869Y126823D01*
X277827Y126927D01*
X277785Y127031D01*
X277758Y127128D01*
X277737Y127225D01*
X277723Y127309D01*
X277709Y127385D01*
X277702Y127454D01*
X277695Y127510D01*
Y127697D01*
X277702Y127802D01*
X277709Y127892D01*
X277716Y127975D01*
X277723Y128037D01*
X277730Y128086D01*
X277737Y128121D01*
Y128128D01*
X277778Y128308D01*
X277799Y128391D01*
X277827Y128475D01*
X277848Y128544D01*
X277869Y128600D01*
X277875Y128634D01*
X277882Y128648D01*
X277702Y128725D01*
X277619Y128752D01*
X277549Y128780D01*
X277487Y128801D01*
X277438Y128822D01*
X277411Y128829D01*
X277397Y128835D01*
X277216Y128884D01*
X277133Y128905D01*
X277057Y128919D01*
X276994Y128926D01*
X276945Y128933D01*
X276918Y128940D01*
X276904D01*
X276848Y128801D01*
X276807Y128662D01*
X276765Y128537D01*
X276737Y128426D01*
X276716Y128336D01*
X276703Y128266D01*
Y128239D01*
X276696Y128218D01*
Y128204D01*
X276661Y127940D01*
X276654Y127815D01*
X276647Y127697D01*
X276640Y127600D01*
Y127683D01*
Y127454D01*
X276647Y127205D01*
X276675Y126976D01*
X276716Y126767D01*
X276737Y126670D01*
X276758Y126587D01*
X276779Y126511D01*
X276800Y126441D01*
X276821Y126379D01*
X276841Y126330D01*
X276855Y126288D01*
X276869Y126261D01*
X276876Y126240D01*
Y126233D01*
X276973Y126039D01*
X277077Y125865D01*
X277188Y125713D01*
X277292Y125581D01*
X277390Y125477D01*
X277431Y125435D01*
X277466Y125400D01*
X277494Y125365D01*
X277515Y125345D01*
X277528Y125338D01*
X277535Y125331D01*
X277702Y125199D01*
X277869Y125088D01*
X278035Y124991D01*
X278195Y124914D01*
X278264Y124880D01*
X278327Y124852D01*
X278389Y124824D01*
X278438Y124803D01*
X278479Y124790D01*
X278507Y124776D01*
X278528Y124769D01*
X278535D01*
X278757Y124706D01*
X278972Y124658D01*
X279187Y124623D01*
X279381Y124602D01*
X279465Y124588D01*
X279548D01*
X279617Y124581D01*
X279673Y124574D01*
X279791D01*
X280041Y124581D01*
X280270Y124602D01*
X280485Y124637D01*
X280575Y124651D01*
X280665Y124671D01*
X280749Y124685D01*
X280825Y124699D01*
X280887Y124720D01*
X280936Y124734D01*
X280985Y124748D01*
X281012Y124755D01*
X281033Y124762D01*
X281040D01*
X281248Y124838D01*
X281436Y124928D01*
X281602Y125019D01*
X281748Y125109D01*
X281810Y125150D01*
X281866Y125192D01*
X281914Y125227D01*
X281949Y125254D01*
X281984Y125282D01*
X282005Y125303D01*
X282019Y125310D01*
X282026Y125317D01*
X282171Y125463D01*
X282303Y125622D01*
X282414Y125775D01*
X282504Y125921D01*
X282574Y126053D01*
X282602Y126108D01*
X282629Y126157D01*
X282650Y126191D01*
X282657Y126219D01*
X282671Y126240D01*
Y126247D01*
X282747Y126462D01*
X282803Y126684D01*
X282844Y126899D01*
X282872Y127108D01*
X282879Y127198D01*
X282886Y127281D01*
X282893Y127357D01*
Y127420D01*
X282900Y127475D01*
Y127683D01*
X282893Y127822D01*
X282879Y127961D01*
X282872Y128093D01*
X282858Y128204D01*
Y128253D01*
X282851Y128294D01*
Y128322D01*
X282844Y128350D01*
Y128370D01*
X282824Y128551D01*
X282789Y128718D01*
X282754Y128870D01*
X282720Y129009D01*
X282692Y129127D01*
X282678Y129176D01*
X282664Y129217D01*
X282650Y129252D01*
X282643Y129273D01*
X282636Y129287D01*
Y129294D01*
X282900D01*
D02*
G37*
G36*
X278868Y123839D02*
X278757D01*
X278521Y123832D01*
X278313Y123804D01*
X278222Y123790D01*
X278132Y123769D01*
X278049Y123749D01*
X277979Y123728D01*
X277910Y123707D01*
X277855Y123686D01*
X277806Y123665D01*
X277764Y123651D01*
X277730Y123637D01*
X277709Y123624D01*
X277695Y123617D01*
X277688D01*
X277542Y123533D01*
X277411Y123436D01*
X277299Y123339D01*
X277209Y123249D01*
X277140Y123172D01*
X277084Y123103D01*
X277057Y123061D01*
X277043Y123055D01*
Y123048D01*
X276966Y122916D01*
X276897Y122777D01*
X276841Y122645D01*
X276800Y122527D01*
X276772Y122423D01*
X276758Y122374D01*
X276744Y122340D01*
X276737Y122305D01*
Y122284D01*
X276730Y122270D01*
Y122263D01*
X276703Y122104D01*
X276675Y121951D01*
X276661Y121805D01*
X276654Y121673D01*
X276647Y121569D01*
X276640Y121521D01*
Y121111D01*
X276647Y120979D01*
Y120854D01*
X276654Y120750D01*
Y120674D01*
X276661Y120646D01*
Y120605D01*
X276668Y120459D01*
X276675Y120313D01*
X276689Y120188D01*
X276696Y120070D01*
X276703Y119966D01*
X276710Y119897D01*
Y119862D01*
X276716Y119848D01*
Y119827D01*
X276640D01*
X282844D01*
Y120556D01*
X282838Y120646D01*
Y120688D01*
X282831Y120716D01*
Y120744D01*
X282824Y120854D01*
X282817Y120910D01*
Y120959D01*
X282810Y121000D01*
X282803Y121028D01*
Y121056D01*
X280860D01*
X280867Y121118D01*
Y121181D01*
X280873Y121222D01*
Y121444D01*
X280867Y121597D01*
X280860Y121750D01*
X280846Y121889D01*
X280832Y122013D01*
X280818Y122125D01*
X280811Y122166D01*
X280804Y122208D01*
X280797Y122236D01*
X280790Y122256D01*
Y122277D01*
X280755Y122437D01*
X280707Y122583D01*
X280651Y122714D01*
X280596Y122826D01*
X280547Y122923D01*
X280506Y122992D01*
X280492Y123020D01*
X280478Y123041D01*
X280471Y123048D01*
Y123055D01*
X280374Y123179D01*
X280270Y123291D01*
X280166Y123388D01*
X280062Y123464D01*
X279964Y123533D01*
X279895Y123575D01*
X279867Y123596D01*
X279846Y123610D01*
X279833Y123617D01*
X279826D01*
X279659Y123693D01*
X279486Y123749D01*
X279305Y123783D01*
X279138Y123811D01*
X279062Y123818D01*
X278986Y123825D01*
X278923Y123832D01*
X278868Y123839D01*
D02*
G37*
G36*
X278681Y118516D02*
X278660D01*
D01*
X278681D01*
D02*
G37*
G36*
X281533D02*
X281172D01*
X281130Y118509D01*
X281102D01*
X281089D01*
X281082D01*
X280985Y118502D01*
X280894Y118488D01*
X280867Y118481D01*
X280839D01*
X280825Y118474D01*
X280818D01*
X279950Y115927D01*
X279028Y118474D01*
X278930Y118495D01*
X278847Y118502D01*
X278812Y118509D01*
X278785D01*
X278771D01*
X278764D01*
X278660Y118516D01*
X277938D01*
Y114900D01*
Y118467D01*
X279312Y114976D01*
X279423Y114949D01*
X279534Y114935D01*
X279638Y114921D01*
X279728Y114907D01*
X279805D01*
X279867Y114900D01*
X277938D01*
X281956D01*
X279916D01*
X280034Y114907D01*
X280152Y114914D01*
X280263Y114928D01*
X280367Y114942D01*
X280450Y114955D01*
X280520Y114962D01*
X280561Y114976D01*
X280568D01*
X280575D01*
X281956Y118467D01*
D01*
X281831Y118488D01*
X281776Y118495D01*
X281734Y118502D01*
X281692D01*
X281665Y118509D01*
X281644D01*
X281637D01*
X281533Y118516D01*
D02*
G37*
%LPD*%
G36*
X278882Y122569D02*
X278986Y122562D01*
X279069Y122548D01*
X279146Y122527D01*
X279201Y122506D01*
X279250Y122492D01*
X279277Y122485D01*
X279284Y122478D01*
X279361Y122444D01*
X279423Y122402D01*
X279479Y122361D01*
X279527Y122319D01*
X279569Y122284D01*
X279597Y122256D01*
X279610Y122236D01*
X279617Y122229D01*
X279701Y122111D01*
X279728Y122048D01*
X279756Y121993D01*
X279770Y121944D01*
X279784Y121909D01*
X279798Y121882D01*
Y121875D01*
X279833Y121722D01*
X279839Y121653D01*
X279846Y121590D01*
X279853Y121535D01*
Y121181D01*
X279846Y121118D01*
X279839Y121077D01*
Y121056D01*
X277688D01*
X277681Y121111D01*
Y121153D01*
X277674Y121195D01*
Y121229D01*
X277667Y121250D01*
Y121285D01*
X277660Y121347D01*
Y121458D01*
X277667Y121611D01*
X277674Y121687D01*
X277688Y121750D01*
X277695Y121798D01*
X277709Y121840D01*
X277716Y121868D01*
Y121875D01*
X277737Y121951D01*
X277771Y122013D01*
X277799Y122076D01*
X277827Y122125D01*
X277862Y122173D01*
X277882Y122201D01*
X277896Y122222D01*
X277903Y122229D01*
X277959Y122284D01*
X278014Y122333D01*
X278070Y122381D01*
X278125Y122416D01*
X278174Y122444D01*
X278216Y122465D01*
X278243Y122471D01*
X278250Y122478D01*
X278333Y122513D01*
X278424Y122534D01*
X278514Y122555D01*
X278597Y122562D01*
X278667Y122569D01*
X278722Y122576D01*
X278764D01*
X278771D01*
X278778D01*
X278882Y122569D01*
D02*
G37*
G36*
X282844Y119827D02*
X282803D01*
X282817Y119952D01*
X282824Y120001D01*
Y120091D01*
X282831Y120126D01*
Y120154D01*
X282838Y120265D01*
Y120313D01*
X282844Y120362D01*
Y119827D01*
D02*
G37*
G36*
X278306Y118509D02*
X278216Y118502D01*
X278132Y118495D01*
X278056Y118481D01*
X277993Y118474D01*
X277952Y118467D01*
X277945D01*
X277938D01*
Y118516D01*
X278389D01*
X278306Y118509D01*
D02*
G37*
%LPC*%
G36*
X282716Y169054D02*
X276658D01*
Y165508D01*
X282716D01*
Y169006D01*
X282529Y169034D01*
X282438Y169040D01*
X282355Y169047D01*
X282293Y169054D01*
X282716D01*
D02*
G37*
G36*
Y164321D02*
X276658D01*
X276630Y164141D01*
X276623Y164058D01*
X276616Y163974D01*
X276609Y163912D01*
Y164321D01*
D01*
Y159873D01*
D01*
Y160365D01*
X276616Y160192D01*
X276623Y160109D01*
X276630Y160032D01*
X276644Y159970D01*
X276651Y159914D01*
X276658Y159887D01*
Y159873D01*
X276609D01*
X282765D01*
X282716D01*
X282744Y160067D01*
X282751Y160157D01*
X282758Y160233D01*
X282765Y160303D01*
Y160407D01*
X282758Y160608D01*
X282751Y160705D01*
X282737Y160789D01*
X282730Y160858D01*
X282723Y160907D01*
X282716Y160941D01*
Y160955D01*
X278864D01*
X282716Y163315D01*
X282730Y163419D01*
X282744Y163516D01*
X282751Y163606D01*
X282758Y163683D01*
X282765Y163745D01*
Y163835D01*
X282758Y164002D01*
X282751Y164085D01*
X282737Y164162D01*
X282730Y164224D01*
X282723Y164273D01*
X282716Y164307D01*
Y164321D01*
D02*
G37*
G36*
X279815Y158853D02*
X276553D01*
X279704D01*
X279454Y158846D01*
X279218Y158825D01*
X279010Y158804D01*
X278913Y158790D01*
X278823Y158776D01*
X278740Y158755D01*
X278663Y158741D01*
X278601Y158728D01*
X278545Y158721D01*
X278503Y158707D01*
X278476Y158700D01*
X278455Y158693D01*
X278448D01*
X278240Y158630D01*
X278046Y158554D01*
X277879Y158478D01*
X277733Y158395D01*
X277671Y158360D01*
X277615Y158325D01*
X277567Y158297D01*
X277525Y158270D01*
X277490Y158249D01*
X277469Y158228D01*
X277456Y158221D01*
X277449Y158214D01*
X277296Y158089D01*
X277164Y157950D01*
X277053Y157811D01*
X276963Y157687D01*
X276887Y157569D01*
X276859Y157520D01*
X276831Y157478D01*
X276817Y157444D01*
X276803Y157416D01*
X276789Y157402D01*
Y157395D01*
X276713Y157201D01*
X276651Y157006D01*
X276609Y156805D01*
X276581Y156625D01*
X276574Y156542D01*
X276567Y156465D01*
X276560Y156396D01*
X276553Y156333D01*
Y156222D01*
X276560Y155972D01*
X276588Y155750D01*
X276609Y155646D01*
X276630Y155542D01*
X276651Y155452D01*
X276671Y155369D01*
X276692Y155299D01*
X276713Y155230D01*
X276734Y155174D01*
X276755Y155126D01*
X276768Y155084D01*
X276782Y155056D01*
X276789Y155042D01*
Y155035D01*
X276887Y154862D01*
X276991Y154702D01*
X277102Y154557D01*
X277206Y154439D01*
X277303Y154348D01*
X277379Y154272D01*
X277407Y154251D01*
X277428Y154230D01*
X277442Y154224D01*
X277449Y154217D01*
X277615Y154105D01*
X277782Y154008D01*
X277948Y153925D01*
X278108Y153856D01*
X278177Y153828D01*
X278240Y153807D01*
X278302Y153786D01*
X278351Y153765D01*
X278393Y153752D01*
X278420Y153745D01*
X278441Y153738D01*
X278448D01*
X278670Y153689D01*
X278885Y153647D01*
X279100Y153620D01*
X279295Y153606D01*
X279378Y153599D01*
X279461Y153592D01*
X279531D01*
X279586Y153585D01*
X279704D01*
X279954Y153592D01*
X280183Y153606D01*
X280391Y153634D01*
X280488Y153647D01*
X280579Y153661D01*
X280655Y153675D01*
X280731Y153689D01*
X280794Y153703D01*
X280849Y153717D01*
X280891Y153724D01*
X280919Y153731D01*
X280939Y153738D01*
X280946D01*
X281155Y153807D01*
X281342Y153883D01*
X281508Y153960D01*
X281654Y154036D01*
X281717Y154071D01*
X281772Y154105D01*
X281821Y154140D01*
X281856Y154161D01*
X281890Y154189D01*
X281911Y154203D01*
X281925Y154217D01*
X281932D01*
X282078Y154348D01*
X282209Y154480D01*
X282320Y154619D01*
X282411Y154751D01*
X282487Y154862D01*
X282515Y154911D01*
X282543Y154952D01*
X282557Y154987D01*
X282570Y155015D01*
X282584Y155028D01*
Y155035D01*
X282661Y155230D01*
X282716Y155431D01*
X282758Y155632D01*
X282786Y155820D01*
X282792Y155903D01*
X282799Y155979D01*
X282806Y156049D01*
Y156104D01*
X282813Y156153D01*
Y154557D01*
Y156153D01*
Y156222D01*
X282806Y156465D01*
X282779Y156694D01*
X282758Y156798D01*
X282744Y156895D01*
X282723Y156979D01*
X282695Y157062D01*
X282674Y157138D01*
X282654Y157201D01*
X282640Y157263D01*
X282619Y157305D01*
X282605Y157346D01*
X282591Y157374D01*
X282584Y157388D01*
Y157395D01*
X282487Y157576D01*
X282383Y157735D01*
X282272Y157874D01*
X282168Y157992D01*
X282078Y158089D01*
X282001Y158159D01*
X281974Y158179D01*
X281953Y158200D01*
X281939Y158207D01*
X281932Y158214D01*
X281772Y158325D01*
X281599Y158429D01*
X281439Y158512D01*
X281279Y158575D01*
X281210Y158603D01*
X281148Y158630D01*
X281092Y158644D01*
X281044Y158665D01*
X281002Y158679D01*
X280974Y158686D01*
X280953Y158693D01*
X280946D01*
X280731Y158748D01*
X280509Y158783D01*
X280301Y158811D01*
X280114Y158832D01*
X280023Y158839D01*
X279947Y158846D01*
X279878D01*
X279815Y158853D01*
D02*
G37*
G36*
X279829Y152731D02*
X279725D01*
D01*
D01*
D01*
X276553D01*
X279725D01*
X279440Y152725D01*
X279170Y152697D01*
X278920Y152655D01*
X278684Y152600D01*
X278476Y152537D01*
X278281Y152468D01*
X278101Y152391D01*
X277941Y152315D01*
X277803Y152239D01*
X277685Y152162D01*
X277580Y152093D01*
X277497Y152031D01*
X277435Y151975D01*
X277386Y151933D01*
X277358Y151906D01*
X277351Y151899D01*
X277213Y151739D01*
X277088Y151558D01*
X276984Y151371D01*
X276887Y151170D01*
X276810Y150969D01*
X276748Y150767D01*
X276692Y150573D01*
X276651Y150379D01*
X276623Y150198D01*
X276595Y150025D01*
X276574Y149872D01*
X276567Y149740D01*
X276560Y149629D01*
X276553Y149588D01*
Y147873D01*
Y149303D01*
X276560Y149143D01*
X276567Y148998D01*
Y148873D01*
X276574Y148762D01*
X276581Y148720D01*
Y148685D01*
X276588Y148658D01*
Y148616D01*
X276602Y148470D01*
X276609Y148338D01*
X276623Y148214D01*
X276630Y148102D01*
X276644Y148005D01*
X276651Y147936D01*
Y147908D01*
X276658Y147887D01*
Y147873D01*
X276553D01*
X282716D01*
X282730Y148005D01*
X282744Y148137D01*
X282758Y148255D01*
X282765Y148366D01*
X282772Y148456D01*
X282779Y148526D01*
X282786Y148554D01*
Y148588D01*
X282799Y148866D01*
X282806Y149005D01*
Y149123D01*
X282813Y149234D01*
Y149386D01*
X282806Y149685D01*
X282779Y149969D01*
X282744Y150233D01*
X282695Y150476D01*
X282640Y150698D01*
X282577Y150906D01*
X282508Y151094D01*
X282438Y151260D01*
X282369Y151406D01*
X282307Y151531D01*
X282244Y151642D01*
X282189Y151725D01*
X282140Y151795D01*
X282105Y151843D01*
X282078Y151878D01*
X282071Y151885D01*
X281918Y152037D01*
X281751Y152162D01*
X281578Y152280D01*
X281391Y152377D01*
X281196Y152454D01*
X281002Y152523D01*
X280808Y152579D01*
X280613Y152627D01*
X280440Y152662D01*
X280266Y152690D01*
X280120Y152704D01*
X279989Y152717D01*
X279878Y152725D01*
X279829Y152731D01*
D02*
G37*
G36*
X281446Y146541D02*
X281085D01*
X281044Y146534D01*
X281016D01*
X281002D01*
X280995D01*
X280898Y146527D01*
X280808Y146513D01*
X280780Y146506D01*
X280752D01*
X280738Y146499D01*
X280731D01*
X279864Y143952D01*
X278941Y146499D01*
X278844Y146520D01*
X278760Y146527D01*
X278726Y146534D01*
X278698D01*
X278684D01*
X278677D01*
X278573Y146541D01*
X278594D01*
X277851D01*
Y142925D01*
Y146492D01*
Y146541D01*
X278302D01*
X278219Y146534D01*
X278129Y146527D01*
X278046Y146520D01*
X277969Y146506D01*
X277907Y146499D01*
X277865Y146492D01*
X277858D01*
X277851D01*
X279225Y143001D01*
X279336Y142974D01*
X279447Y142960D01*
X279551Y142946D01*
X279642Y142932D01*
X279718D01*
X279781Y142925D01*
X277851D01*
X281869D01*
X279829D01*
X279947Y142932D01*
X280065Y142939D01*
X280176Y142953D01*
X280280Y142967D01*
X280363Y142981D01*
X280433Y142988D01*
X280474Y143001D01*
X280481D01*
X280488D01*
X281869Y146492D01*
D01*
X281745Y146513D01*
X281689Y146520D01*
X281647Y146527D01*
X281606D01*
X281578Y146534D01*
X281557D01*
X281550D01*
X281446Y146541D01*
D02*
G37*
%LPD*%
G36*
X281994Y169047D02*
X281911Y169040D01*
X281835Y169034D01*
X281765Y169020D01*
X281717Y169013D01*
X281689Y169006D01*
X281675D01*
Y166736D01*
X280072D01*
Y168492D01*
X279878Y168520D01*
X279787Y168527D01*
X279704Y168534D01*
X279635Y168541D01*
X279586D01*
X279551D01*
X279538D01*
X279350Y168534D01*
X279260Y168527D01*
X279184Y168520D01*
X279114Y168506D01*
X279066Y168499D01*
X279031Y168492D01*
X279017D01*
Y166736D01*
X277705D01*
Y168943D01*
X277511Y168978D01*
X277421Y168985D01*
X277344Y168992D01*
X277275Y168999D01*
X277220D01*
X277185D01*
X277171D01*
X276977Y168992D01*
X276893Y168985D01*
X276817Y168971D01*
X276748Y168964D01*
X276699Y168950D01*
X276671Y168943D01*
X276658D01*
Y169054D01*
X282189D01*
X281994Y169047D01*
D02*
G37*
G36*
X276616Y163606D02*
X276623Y163509D01*
X276630Y163419D01*
X276644Y163343D01*
X276651Y163287D01*
X276658Y163245D01*
Y163232D01*
X280516D01*
X276658Y160893D01*
X276644Y160796D01*
X276630Y160698D01*
X276623Y160608D01*
X276616Y160525D01*
X276609Y160463D01*
Y163815D01*
X276616Y163606D01*
D02*
G37*
G36*
X279891Y157520D02*
X280072Y157513D01*
X280239Y157492D01*
X280391Y157471D01*
X280537Y157444D01*
X280676Y157409D01*
X280794Y157367D01*
X280912Y157326D01*
X281016Y157277D01*
X281113Y157222D01*
X281203Y157173D01*
X281279Y157117D01*
X281356Y157055D01*
X281418Y157000D01*
X281529Y156875D01*
X281620Y156750D01*
X281682Y156639D01*
X281731Y156528D01*
X281758Y156423D01*
X281779Y156340D01*
X281786Y156278D01*
X281793Y156236D01*
Y156222D01*
X281786Y156104D01*
X281772Y155993D01*
X281745Y155882D01*
X281703Y155785D01*
X281654Y155695D01*
X281599Y155612D01*
X281536Y155535D01*
X281467Y155459D01*
X281307Y155334D01*
X281134Y155223D01*
X280946Y155140D01*
X280745Y155070D01*
X280551Y155015D01*
X280363Y154973D01*
X280190Y154945D01*
X280030Y154924D01*
X279961Y154918D01*
X279898Y154911D01*
X279843D01*
X279794Y154904D01*
X279753D01*
X279725D01*
X279711D01*
X279704D01*
X279517Y154911D01*
X279336Y154918D01*
X279170Y154938D01*
X279010Y154959D01*
X278864Y154994D01*
X278732Y155028D01*
X278608Y155063D01*
X278490Y155112D01*
X278385Y155160D01*
X278288Y155209D01*
X278198Y155264D01*
X278122Y155320D01*
X278046Y155383D01*
X277983Y155445D01*
X277872Y155570D01*
X277782Y155688D01*
X277719Y155813D01*
X277671Y155924D01*
X277643Y156021D01*
X277622Y156104D01*
X277615Y156174D01*
X277608Y156215D01*
Y156229D01*
X277615Y156347D01*
X277629Y156465D01*
X277657Y156569D01*
X277692Y156666D01*
X277733Y156750D01*
X277775Y156833D01*
X277823Y156902D01*
X277872Y156972D01*
X277921Y157027D01*
X277969Y157076D01*
X278011Y157117D01*
X278052Y157152D01*
X278087Y157173D01*
X278115Y157194D01*
X278129Y157208D01*
X278136D01*
X278240Y157263D01*
X278351Y157312D01*
X278476Y157353D01*
X278601Y157395D01*
X278857Y157451D01*
X279114Y157485D01*
X279232Y157499D01*
X279343Y157513D01*
X279447Y157520D01*
X279531D01*
X279607Y157527D01*
X279656D01*
X279690D01*
X279704D01*
X279891Y157520D01*
D02*
G37*
G36*
X279926Y151420D02*
X280120Y151406D01*
X280301Y151378D01*
X280377Y151364D01*
X280447Y151357D01*
X280509Y151343D01*
X280565Y151330D01*
X280613Y151316D01*
X280655Y151302D01*
X280683Y151295D01*
X280703Y151288D01*
X280717Y151281D01*
X280724D01*
X280863Y151225D01*
X280988Y151156D01*
X281099Y151094D01*
X281189Y151031D01*
X281259Y150976D01*
X281314Y150934D01*
X281342Y150906D01*
X281356Y150892D01*
X281439Y150795D01*
X281508Y150698D01*
X281564Y150601D01*
X281606Y150511D01*
X281640Y150434D01*
X281661Y150372D01*
X281675Y150330D01*
X281682Y150323D01*
Y150316D01*
X281710Y150191D01*
X281731Y150066D01*
X281745Y149942D01*
X281751Y149830D01*
X281758Y149733D01*
X281765Y149664D01*
Y149435D01*
X281758Y149393D01*
Y149310D01*
X281751Y149227D01*
Y149171D01*
X281745Y149129D01*
Y149116D01*
X277643D01*
X277636Y149206D01*
X277629Y149296D01*
X277622Y149331D01*
Y149386D01*
X277615Y149497D01*
Y149664D01*
X277622Y149796D01*
X277629Y149921D01*
X277643Y150032D01*
X277664Y150129D01*
X277685Y150212D01*
X277698Y150275D01*
X277705Y150316D01*
X277712Y150330D01*
X277754Y150448D01*
X277803Y150552D01*
X277858Y150649D01*
X277914Y150733D01*
X277962Y150802D01*
X278004Y150851D01*
X278032Y150878D01*
X278046Y150892D01*
X278143Y150976D01*
X278247Y151059D01*
X278351Y151121D01*
X278455Y151177D01*
X278552Y151225D01*
X278622Y151253D01*
X278649Y151267D01*
X278670Y151274D01*
X278684Y151281D01*
X278691D01*
X278851Y151330D01*
X279017Y151364D01*
X279191Y151392D01*
X279350Y151406D01*
X279420Y151413D01*
X279489Y151420D01*
X279551D01*
X279600Y151427D01*
X279642D01*
X279676D01*
X279697D01*
X279704D01*
X279926Y151420D01*
D02*
G37*
%LPC*%
G36*
X301584Y251944D02*
X301517D01*
X301334Y251936D01*
X301167Y251911D01*
X301017Y251869D01*
X300892Y251836D01*
X300801Y251794D01*
X300726Y251761D01*
X300684Y251736D01*
X300668Y251728D01*
X300551Y251644D01*
X300459Y251553D01*
X300376Y251461D01*
X300301Y251378D01*
X300251Y251294D01*
X300218Y251236D01*
X300193Y251194D01*
X300184Y251178D01*
X300134Y251044D01*
X300101Y250920D01*
X300068Y250795D01*
X300051Y250686D01*
X300043Y250586D01*
X300034Y250511D01*
Y250461D01*
Y250453D01*
Y250445D01*
X300043Y250320D01*
X300059Y250203D01*
X300109Y249987D01*
X300168Y249795D01*
X300243Y249645D01*
X300284Y249578D01*
X300318Y249520D01*
X300351Y249470D01*
X300384Y249437D01*
X300409Y249403D01*
X300426Y249378D01*
X300443Y249370D01*
Y249362D01*
X300518Y249295D01*
X300601Y249229D01*
X300767Y249137D01*
X300942Y249062D01*
X301109Y249012D01*
X301251Y248987D01*
X301317Y248979D01*
X301367Y248970D01*
X301417Y248962D01*
X301476D01*
X301584Y248970D01*
X301692Y248979D01*
X301884Y249020D01*
X302050Y249078D01*
X302184Y249145D01*
X302300Y249212D01*
X302375Y249270D01*
X302425Y249312D01*
X302442Y249328D01*
X302508Y249403D01*
X302567Y249487D01*
X302658Y249662D01*
X302725Y249845D01*
X302775Y250020D01*
X302800Y250186D01*
X302808Y250253D01*
X302817Y250320D01*
X302825Y250370D01*
Y250403D01*
Y250428D01*
Y250436D01*
Y250636D01*
X302808Y250853D01*
X302775Y251044D01*
X302725Y251203D01*
X302667Y251336D01*
X302600Y251444D01*
X302550Y251519D01*
X302517Y251569D01*
X302500Y251586D01*
X302367Y251702D01*
X302209Y251786D01*
X302050Y251852D01*
X301884Y251894D01*
X301742Y251927D01*
X301684Y251936D01*
X301625D01*
X301584Y251944D01*
D02*
G37*
G36*
X267856Y252760D02*
X266931Y250270D01*
X268772D01*
X267856Y252760D01*
D02*
G37*
G36*
X254817Y264739D02*
X253809D01*
X253693Y264730D01*
X253643D01*
X253601Y264722D01*
X253568D01*
X253426Y264714D01*
X253368Y264705D01*
X253309Y264697D01*
X253268Y264689D01*
X253234D01*
X253209Y264680D01*
X253201D01*
X253184Y264547D01*
X253168Y264430D01*
X253159Y264314D01*
X253151Y264214D01*
X253143Y264130D01*
Y264064D01*
Y264022D01*
Y264006D01*
X253151Y263756D01*
X253159Y263647D01*
X253176Y263539D01*
X253184Y263447D01*
X253193Y263381D01*
X253201Y263339D01*
Y263322D01*
X253334Y263306D01*
X253451Y263289D01*
X253501D01*
X253543Y263281D01*
X253576D01*
X253717Y263273D01*
X254067D01*
X254192Y263281D01*
X254309D01*
X254451Y263298D01*
X254517D01*
X254567Y263306D01*
X254609Y263314D01*
X254650Y263322D01*
X254676D01*
X254700Y263447D01*
X254709Y263556D01*
X254717Y263606D01*
Y263639D01*
Y263656D01*
Y263664D01*
X254726Y263789D01*
X254734Y263897D01*
Y263947D01*
Y263981D01*
Y263997D01*
Y264006D01*
Y264130D01*
X254726Y264239D01*
Y264281D01*
X254717Y264314D01*
Y264330D01*
Y264339D01*
X254709Y264464D01*
X254692Y264572D01*
X254684Y264622D01*
Y264655D01*
X254676Y264672D01*
Y264680D01*
X254551Y264705D01*
X254426Y264714D01*
X254376Y264722D01*
X254301D01*
X254159Y264730D01*
X254101Y264739D01*
X254817D01*
D02*
G37*
G36*
X294668Y264281D02*
X294577D01*
X294510Y264272D01*
X294427Y264264D01*
X294327Y264256D01*
X294218Y264239D01*
X294102Y264222D01*
X293968Y264197D01*
X293835Y264164D01*
X293552Y264089D01*
X293410Y264039D01*
X293269Y263981D01*
X293127Y263906D01*
X292986Y263831D01*
X292977Y263823D01*
X292952Y263814D01*
X292919Y263789D01*
X292869Y263748D01*
X292811Y263706D01*
X292736Y263656D01*
X292661Y263589D01*
X292577Y263523D01*
X292486Y263439D01*
X292394Y263348D01*
X292302Y263256D01*
X292202Y263148D01*
X292019Y262906D01*
X291853Y262640D01*
X291844Y262631D01*
X291836Y262606D01*
X291819Y262565D01*
X291786Y262506D01*
X291761Y262440D01*
X291728Y262348D01*
X291686Y262257D01*
X291653Y262140D01*
X291611Y262023D01*
X291578Y261890D01*
X291536Y261748D01*
X291511Y261598D01*
X291486Y261440D01*
X291461Y261274D01*
X291453Y261099D01*
X291444Y260915D01*
Y260815D01*
X291453Y260749D01*
X291461Y260657D01*
X291469Y260557D01*
X291486Y260449D01*
X291503Y260324D01*
X291528Y260191D01*
X291553Y260049D01*
X291628Y259757D01*
X291678Y259608D01*
X291736Y259458D01*
X291803Y259308D01*
X291878Y259166D01*
X291886Y259158D01*
X291894Y259133D01*
X291919Y259091D01*
X291961Y259041D01*
X292003Y258983D01*
X292053Y258908D01*
X292111Y258833D01*
X292186Y258741D01*
X292261Y258650D01*
X292352Y258558D01*
X292544Y258366D01*
X292769Y258175D01*
X293027Y258008D01*
X293035Y258000D01*
X293060Y257992D01*
X293102Y257975D01*
X293152Y257942D01*
X293219Y257916D01*
X293302Y257883D01*
X293394Y257842D01*
X293502Y257808D01*
X293619Y257767D01*
X293743Y257733D01*
X293877Y257692D01*
X294018Y257667D01*
X294318Y257617D01*
X294477Y257608D01*
X294643Y257600D01*
X294718D01*
X294768Y257608D01*
X294835D01*
X294910Y257617D01*
X295001Y257625D01*
X295093Y257633D01*
X295309Y257667D01*
X295543Y257717D01*
X295793Y257783D01*
X296043Y257875D01*
X296051D01*
X296076Y257892D01*
X296109Y257908D01*
X296151Y257925D01*
X296209Y257958D01*
X296276Y257992D01*
X296426Y258083D01*
X296601Y258208D01*
X296784Y258350D01*
X296959Y258516D01*
X297126Y258716D01*
X297134Y258724D01*
X297142Y258741D01*
X297167Y258774D01*
X297192Y258816D01*
X297225Y258875D01*
X297259Y258941D01*
X297300Y259016D01*
X297342Y259108D01*
X297375Y259199D01*
X297417Y259308D01*
X297459Y259424D01*
X297484Y259549D01*
X297542Y259816D01*
X297550Y259966D01*
X297559Y260116D01*
Y260965D01*
X297550Y261015D01*
X297542Y261074D01*
X297525Y261132D01*
X297492Y261199D01*
X297459Y261265D01*
X297409Y261323D01*
X297400Y261332D01*
X297384Y261349D01*
X297350Y261373D01*
X297300Y261399D01*
X297242Y261423D01*
X297167Y261449D01*
X297084Y261465D01*
X296992Y261473D01*
X295301D01*
X295251Y261465D01*
X295193Y261457D01*
X295126Y261440D01*
X295051Y261407D01*
X294985Y261373D01*
X294918Y261323D01*
X294910Y261315D01*
X294893Y261298D01*
X294868Y261265D01*
X294835Y261224D01*
X294810Y261165D01*
X294785Y261099D01*
X294760Y261015D01*
X294751Y260924D01*
Y260915D01*
Y260882D01*
X294760Y260840D01*
X294776Y260782D01*
X294793Y260715D01*
X294826Y260649D01*
X294868Y260582D01*
X294918Y260524D01*
X294926Y260515D01*
X294951Y260499D01*
X294985Y260482D01*
X295035Y260457D01*
X295093Y260424D01*
X295168Y260407D01*
X295251Y260390D01*
X295343Y260382D01*
X296417D01*
Y260241D01*
Y260232D01*
Y260207D01*
X296409Y260174D01*
Y260124D01*
X296401Y260066D01*
X296384Y259991D01*
X296351Y259832D01*
X296292Y259649D01*
X296209Y259466D01*
X296159Y259374D01*
X296093Y259283D01*
X296026Y259199D01*
X295943Y259116D01*
X295934Y259108D01*
X295926Y259099D01*
X295893Y259083D01*
X295859Y259049D01*
X295818Y259024D01*
X295759Y258983D01*
X295693Y258949D01*
X295626Y258908D01*
X295543Y258875D01*
X295451Y258833D01*
X295351Y258800D01*
X295243Y258766D01*
X295001Y258716D01*
X294876Y258708D01*
X294735Y258700D01*
X294693D01*
X294652Y258708D01*
X294585D01*
X294510Y258724D01*
X294418Y258733D01*
X294318Y258758D01*
X294210Y258783D01*
X294093Y258816D01*
X293977Y258858D01*
X293852Y258908D01*
X293727Y258966D01*
X293602Y259033D01*
X293477Y259116D01*
X293360Y259208D01*
X293252Y259308D01*
X293244Y259316D01*
X293227Y259333D01*
X293202Y259366D01*
X293160Y259416D01*
X293119Y259474D01*
X293069Y259549D01*
X293019Y259632D01*
X292961Y259733D01*
X292911Y259841D01*
X292852Y259966D01*
X292802Y260099D01*
X292761Y260241D01*
X292719Y260390D01*
X292686Y260557D01*
X292661Y260740D01*
X292652Y260924D01*
Y260932D01*
Y260949D01*
Y260990D01*
X292661Y261032D01*
Y261090D01*
X292669Y261157D01*
X292686Y261307D01*
X292719Y261482D01*
X292761Y261673D01*
X292819Y261873D01*
X292894Y262065D01*
Y262073D01*
X292902Y262090D01*
X292919Y262115D01*
X292935Y262148D01*
X292994Y262240D01*
X293069Y262356D01*
X293169Y262481D01*
X293285Y262615D01*
X293419Y262748D01*
X293577Y262865D01*
X293585D01*
X293594Y262881D01*
X293619Y262890D01*
X293652Y262914D01*
X293702Y262931D01*
X293752Y262956D01*
X293877Y263015D01*
X294027Y263073D01*
X294210Y263123D01*
X294410Y263156D01*
X294635Y263173D01*
X294685D01*
X294726Y263164D01*
X294768D01*
X294826Y263156D01*
X294951Y263139D01*
X295085Y263106D01*
X295235Y263073D01*
X295385Y263023D01*
X295518Y262956D01*
X295534Y262948D01*
X295576Y262923D01*
X295634Y262890D01*
X295709Y262840D01*
X295793Y262790D01*
X295884Y262731D01*
X295968Y262665D01*
X296043Y262606D01*
X296051Y262598D01*
X296076Y262581D01*
X296117Y262565D01*
X296167Y262540D01*
X296226Y262506D01*
X296301Y262490D01*
X296376Y262473D01*
X296459Y262465D01*
X296467D01*
X296501Y262473D01*
X296542Y262481D01*
X296592Y262498D01*
X296659Y262523D01*
X296726Y262565D01*
X296801Y262615D01*
X296867Y262690D01*
X296876Y262698D01*
X296892Y262723D01*
X296917Y262756D01*
X296942Y262806D01*
X296975Y262865D01*
X297001Y262923D01*
X297017Y262989D01*
X297025Y263065D01*
Y263073D01*
Y263098D01*
Y263139D01*
X297009Y263189D01*
X296992Y263248D01*
X296967Y263314D01*
X296926Y263389D01*
X296867Y263464D01*
X296851Y263481D01*
X296817Y263523D01*
X296751Y263581D01*
X296659Y263656D01*
X296534Y263748D01*
X296392Y263839D01*
X296217Y263939D01*
X296009Y264031D01*
X296001D01*
X295984Y264039D01*
X295951Y264056D01*
X295909Y264072D01*
X295851Y264089D01*
X295784Y264106D01*
X295709Y264131D01*
X295626Y264156D01*
X295526Y264172D01*
X295426Y264197D01*
X295201Y264239D01*
X294943Y264264D01*
X294668Y264281D01*
D02*
G37*
G36*
X270611Y262506D02*
Y262056D01*
X270602Y262148D01*
Y262181D01*
X270594Y262206D01*
Y262223D01*
Y262231D01*
X270586Y262323D01*
X270578Y262398D01*
X270569Y262448D01*
Y262456D01*
Y262464D01*
X270511Y262481D01*
X270444Y262490D01*
X270394Y262498D01*
X270369D01*
X270278Y262506D01*
X270144D01*
X269969Y262498D01*
X269811Y262464D01*
X269670Y262431D01*
X269553Y262381D01*
X269453Y262340D01*
X269386Y262298D01*
X269345Y262265D01*
X269328Y262256D01*
X269211Y262165D01*
X269111Y262065D01*
X269020Y261973D01*
X268936Y261881D01*
X268878Y261807D01*
X268828Y261748D01*
X268795Y261715D01*
X268787Y261698D01*
X268778Y261756D01*
X268770Y261815D01*
X268761Y261856D01*
Y261865D01*
Y261873D01*
X268745Y261948D01*
X268737Y262015D01*
X268728Y262065D01*
X268720Y262073D01*
Y262081D01*
X268703Y262156D01*
X268695Y262223D01*
X268687Y262265D01*
X268678Y262281D01*
X268662Y262348D01*
X268637Y262398D01*
X268628Y262423D01*
X268620Y262431D01*
X268512Y262456D01*
X268420Y262473D01*
X268387D01*
X268353Y262481D01*
X268328D01*
X268220Y262498D01*
X268128Y262506D01*
X267920D01*
X267829Y262498D01*
X267787D01*
X267762Y262490D01*
X267737D01*
X267637Y262473D01*
X267545Y262464D01*
X267512Y262456D01*
X267479D01*
X267462Y262448D01*
X267454D01*
D01*
Y257158D01*
X270611D01*
Y262506D01*
D02*
G37*
G36*
X240481Y264547D02*
X240198D01*
X240056Y264539D01*
X239923Y264530D01*
X239806Y264522D01*
X239715Y264505D01*
X239640Y264497D01*
X239590Y264489D01*
X239573D01*
X238157Y261190D01*
X236716Y264489D01*
X236574Y264505D01*
X236433Y264522D01*
X236308Y264530D01*
X236191Y264539D01*
X236091Y264547D01*
X235791D01*
X235641Y264539D01*
X235491Y264530D01*
X235367Y264522D01*
X235258Y264505D01*
X235175Y264497D01*
X235142D01*
X235117Y264489D01*
X235100D01*
D01*
X237366Y259816D01*
Y257208D01*
X237507Y257192D01*
X237566Y257183D01*
X237674D01*
X237707Y257175D01*
X237741D01*
X237882Y257167D01*
X237941D01*
X237999Y257158D01*
X235100D01*
D01*
X241123D01*
D01*
X238240D01*
X238349Y257167D01*
X238399D01*
X238432Y257175D01*
X238465D01*
X238607Y257183D01*
X238665Y257192D01*
X238723D01*
X238773Y257200D01*
X238815Y257208D01*
X238848D01*
Y259816D01*
X241123Y264489D01*
X240973Y264505D01*
X240823Y264522D01*
X240689Y264530D01*
X240573Y264539D01*
X240481Y264547D01*
D02*
G37*
G36*
X264038Y262564D02*
X263938D01*
X263647Y262556D01*
X263505Y262540D01*
X263380Y262531D01*
X263272Y262514D01*
X263180Y262498D01*
X263147D01*
X263122Y262490D01*
X263106D01*
X262939Y262464D01*
X262781Y262431D01*
X262631Y262390D01*
X262497Y262356D01*
X262389Y262323D01*
X262297Y262298D01*
X262264Y262290D01*
X262239Y262281D01*
X262231Y262273D01*
X262223D01*
Y262156D01*
X262231Y262048D01*
X262247Y261956D01*
X262256Y261873D01*
X262273Y261806D01*
X262281Y261756D01*
X262289Y261723D01*
Y261715D01*
X262356Y261540D01*
X262389Y261457D01*
X262422Y261382D01*
X262456Y261315D01*
X262481Y261265D01*
X262497Y261232D01*
X262506Y261223D01*
X262731Y261290D01*
X262947Y261340D01*
X263147Y261382D01*
X263314Y261407D01*
X263389Y261415D01*
X263464Y261423D01*
X263522D01*
X263572Y261432D01*
X263755Y261432D01*
X263847Y261423D01*
X263922D01*
X263997Y261415D01*
X264047Y261407D01*
X264097D01*
X264122Y261398D01*
X264130D01*
X264272Y261373D01*
X264330Y261348D01*
X264380Y261332D01*
X264422Y261315D01*
X264455Y261298D01*
X264472Y261290D01*
X264480Y261282D01*
X264571Y261207D01*
X264638Y261132D01*
X264663Y261098D01*
X264680Y261073D01*
X264697Y261057D01*
Y261048D01*
X264721Y260990D01*
X264746Y260924D01*
X264772Y260799D01*
X264780Y260740D01*
Y260699D01*
Y260665D01*
Y260657D01*
Y260532D01*
X264655Y260540D01*
X264530Y260549D01*
X264422Y260557D01*
X264322Y260565D01*
X263980D01*
X263839Y260549D01*
X263697Y260540D01*
X263580Y260524D01*
X263472Y260507D01*
X263389Y260490D01*
X263364Y260482D01*
X263339D01*
X263330Y260474D01*
X263322D01*
X263172Y260440D01*
X263031Y260399D01*
X262906Y260349D01*
X262797Y260299D01*
X262706Y260257D01*
X262639Y260224D01*
X262597Y260199D01*
X262581Y260190D01*
X262464Y260116D01*
X262364Y260024D01*
X262273Y259941D01*
X262189Y259857D01*
X262131Y259782D01*
X262089Y259724D01*
X262056Y259682D01*
X262048Y259666D01*
X261981Y259541D01*
X261931Y259399D01*
X261898Y259266D01*
X261873Y259133D01*
X261856Y259024D01*
X261848Y258933D01*
Y257100D01*
X266179Y257100D01*
Y260440D01*
X266171Y260640D01*
X266154Y260832D01*
X266121Y261007D01*
X266088Y261165D01*
X266046Y261307D01*
X265996Y261440D01*
X265938Y261565D01*
X265888Y261665D01*
X265829Y261756D01*
X265771Y261840D01*
X265721Y261906D01*
X265679Y261965D01*
X265646Y262006D01*
X265613Y262031D01*
X265596Y262048D01*
X265588Y262056D01*
X265471Y262148D01*
X265346Y262223D01*
X265213Y262290D01*
X265080Y262348D01*
X264946Y262398D01*
X264805Y262439D01*
X264538Y262498D01*
X264422Y262523D01*
X264305Y262540D01*
X264205Y262548D01*
X264113Y262556D01*
X264038Y262564D01*
D02*
G37*
G36*
X275417Y262506D02*
X275284D01*
X275026Y262498D01*
X274901Y262490D01*
X274793Y262481D01*
X274701Y262464D01*
X274634Y262456D01*
X274584Y262448D01*
X274568D01*
Y258349D01*
X274468Y258325D01*
X274368Y258308D01*
X274259Y258291D01*
X274159Y258283D01*
X274076D01*
X274009Y258275D01*
X273843D01*
X273751Y258283D01*
X273668Y258299D01*
X273601Y258308D01*
X273543Y258325D01*
X273501Y258333D01*
X273476Y258341D01*
X273468D01*
X273393Y258366D01*
X273335Y258408D01*
X273276Y258441D01*
X273226Y258483D01*
X273185Y258516D01*
X273151Y258541D01*
X273135Y258558D01*
X273127Y258566D01*
X273077Y258633D01*
X273043Y258699D01*
X272976Y258841D01*
X272952Y258899D01*
X272943Y258949D01*
X272926Y258983D01*
Y258991D01*
X272902Y259099D01*
X272885Y259208D01*
X272877Y259324D01*
X272868Y259432D01*
X272860Y259532D01*
Y259607D01*
Y259657D01*
Y259666D01*
Y259674D01*
Y262448D01*
X272727Y262464D01*
X272593Y262481D01*
X272468Y262490D01*
X272368Y262498D01*
X272277Y262506D01*
X272010D01*
X271877Y262498D01*
X271760Y262490D01*
X271652Y262481D01*
X271560Y262464D01*
X271485Y262456D01*
X271444Y262448D01*
X271427D01*
D01*
Y259632D01*
X271435Y259332D01*
X271444Y259199D01*
X271460Y259066D01*
X271477Y258949D01*
X271494Y258833D01*
X271510Y258733D01*
X271535Y258641D01*
X271552Y258558D01*
X271569Y258491D01*
X271585Y258424D01*
X271602Y258375D01*
X271619Y258333D01*
X271627Y258308D01*
X271635Y258291D01*
Y258283D01*
X271719Y258108D01*
X271819Y257950D01*
X271910Y257825D01*
X272002Y257716D01*
X272085Y257625D01*
X272152Y257566D01*
X272194Y257533D01*
X272210Y257517D01*
X272352Y257425D01*
X272493Y257350D01*
X272635Y257292D01*
X272760Y257250D01*
X272877Y257217D01*
X272960Y257192D01*
X272993Y257183D01*
X273018Y257175D01*
X273043D01*
X273226Y257150D01*
X273401Y257133D01*
X273568Y257117D01*
X273718Y257108D01*
X273843D01*
X273901Y257100D01*
X271427D01*
D01*
X276000D01*
D01*
X274034D01*
X274251Y257108D01*
X274451Y257117D01*
X274634Y257133D01*
X274801Y257150D01*
X274942Y257167D01*
X275001Y257175D01*
X275051Y257183D01*
X275092Y257192D01*
X275117Y257200D01*
X275142D01*
X275334Y257242D01*
X275500Y257275D01*
X275650Y257317D01*
X275775Y257350D01*
X275867Y257375D01*
X275942Y257400D01*
X275984Y257408D01*
X276000Y257417D01*
Y262448D01*
X275867Y262464D01*
X275734Y262481D01*
X275609Y262490D01*
X275509Y262498D01*
X275417Y262506D01*
D02*
G37*
G36*
X245829Y262506D02*
X243578D01*
X245696D01*
X245438Y262498D01*
X245313Y262490D01*
X245204Y262481D01*
X245113Y262464D01*
X245046Y262456D01*
X244996Y262448D01*
X244979D01*
Y258349D01*
X244879Y258325D01*
X244779Y258308D01*
X244671Y258291D01*
X244571Y258283D01*
X244488D01*
X244421Y258275D01*
X244255D01*
X244163Y258283D01*
X244080Y258299D01*
X244013Y258308D01*
X243955Y258325D01*
X243913Y258333D01*
X243888Y258341D01*
X243880D01*
X243805Y258366D01*
X243746Y258408D01*
X243688Y258441D01*
X243638Y258483D01*
X243597Y258516D01*
X243563Y258541D01*
X243547Y258558D01*
X243538Y258566D01*
X243488Y258633D01*
X243455Y258699D01*
X243388Y258841D01*
X243363Y258899D01*
X243355Y258949D01*
X243338Y258983D01*
Y258991D01*
X243313Y259099D01*
X243297Y259208D01*
X243288Y259324D01*
X243280Y259432D01*
X243272Y259532D01*
Y259607D01*
Y259657D01*
Y259666D01*
Y259674D01*
Y262448D01*
X243139Y262464D01*
X243005Y262481D01*
X242880Y262490D01*
X242780Y262498D01*
X242689Y262506D01*
X242422D01*
X242289Y262498D01*
X242172Y262490D01*
X242064Y262481D01*
X241972Y262464D01*
X241897Y262456D01*
X241856Y262448D01*
X241839D01*
D01*
Y259632D01*
X241847Y259332D01*
X241856Y259199D01*
X241872Y259066D01*
X241889Y258949D01*
X241906Y258833D01*
X241922Y258733D01*
X241947Y258641D01*
X241964Y258558D01*
X241981Y258491D01*
X241997Y258424D01*
X242014Y258375D01*
X242031Y258333D01*
X242039Y258308D01*
X242047Y258291D01*
Y258283D01*
X242130Y258108D01*
X242231Y257950D01*
X242322Y257825D01*
X242414Y257716D01*
X242497Y257625D01*
X242564Y257566D01*
X242605Y257533D01*
X242622Y257517D01*
X242764Y257425D01*
X242905Y257350D01*
X243047Y257292D01*
X243172Y257250D01*
X243288Y257217D01*
X243372Y257192D01*
X243405Y257183D01*
X243430Y257175D01*
X243455D01*
X243638Y257150D01*
X243813Y257133D01*
X243980Y257117D01*
X244130Y257108D01*
X244255D01*
X244313Y257100D01*
X241839D01*
D01*
X246412D01*
X244446D01*
X244663Y257108D01*
X244863Y257117D01*
X245046Y257133D01*
X245213Y257150D01*
X245354Y257167D01*
X245412Y257175D01*
X245462Y257183D01*
X245504Y257192D01*
X245529Y257200D01*
X245554D01*
X245746Y257242D01*
X245912Y257275D01*
X246062Y257317D01*
X246187Y257350D01*
X246279Y257375D01*
X246354Y257400D01*
X246395Y257408D01*
X246412Y257417D01*
Y262448D01*
X246279Y262464D01*
X246146Y262481D01*
X246021Y262490D01*
X245921Y262498D01*
X245829Y262506D01*
D02*
G37*
G36*
X301132Y264281D02*
X301099D01*
X301066Y264272D01*
X301016Y264264D01*
X300907Y264239D01*
X300841Y264206D01*
X300782Y264172D01*
X300774Y264164D01*
X300757Y264156D01*
X300732Y264131D01*
X300699Y264097D01*
X300657Y264056D01*
X300624Y263997D01*
X300582Y263939D01*
X300549Y263864D01*
X298383Y258516D01*
Y258508D01*
X298367Y258475D01*
X298358Y258425D01*
X298342Y258366D01*
X298333Y258291D01*
Y258208D01*
X298342Y258125D01*
X298367Y258042D01*
X298375Y258033D01*
X298383Y258008D01*
X298408Y257966D01*
X298442Y257916D01*
X298492Y257867D01*
X298550Y257808D01*
X298625Y257758D01*
X298708Y257708D01*
X298716D01*
X298750Y257700D01*
X298800Y257683D01*
X298866Y257675D01*
X298941Y257667D01*
X299016Y257675D01*
X299100Y257692D01*
X299183Y257717D01*
X299191Y257725D01*
X299216Y257742D01*
X299258Y257767D01*
X299308Y257800D01*
X299358Y257850D01*
X299408Y257916D01*
X299458Y257992D01*
X299500Y258083D01*
X299816Y258941D01*
X302440D01*
X302757Y258083D01*
X302765Y258075D01*
X302773Y258042D01*
X302798Y258000D01*
X302832Y257942D01*
X302882Y257883D01*
X302931Y257817D01*
X302998Y257767D01*
X303073Y257717D01*
X303081D01*
X303115Y257700D01*
X303156Y257692D01*
X303215Y257675D01*
X303365D01*
X303456Y257683D01*
X303548Y257708D01*
X303556Y257717D01*
X303590Y257733D01*
X303631Y257758D01*
X303681Y257792D01*
X303740Y257842D01*
X303798Y257900D01*
X303839Y257966D01*
X303881Y258042D01*
Y258050D01*
X303898Y258083D01*
X303906Y258125D01*
X303914Y258183D01*
X303923Y258258D01*
X303914Y258333D01*
X303906Y258425D01*
X303873Y258516D01*
X301707Y263864D01*
Y263873D01*
X301690Y263897D01*
X301674Y263939D01*
X301649Y263981D01*
X301574Y264081D01*
X301532Y264131D01*
X301474Y264172D01*
X301465Y264181D01*
X301449Y264189D01*
X301415Y264206D01*
X301374Y264231D01*
X301324Y264247D01*
X301266Y264264D01*
X301199Y264272D01*
X301132Y264281D01*
D02*
G37*
G36*
X288296Y264197D02*
X286371D01*
X286321Y264189D01*
X286255Y264172D01*
X286188Y264156D01*
X286113Y264122D01*
X286047Y264081D01*
X285980Y264022D01*
X285972Y264014D01*
X285955Y263989D01*
X285930Y263956D01*
X285905Y263897D01*
X285872Y263839D01*
X285847Y263756D01*
X285830Y263673D01*
X285822Y263573D01*
Y258258D01*
X285830Y258200D01*
X285838Y258141D01*
X285863Y258067D01*
X285888Y257992D01*
X285930Y257916D01*
X285980Y257850D01*
X285988Y257842D01*
X286013Y257825D01*
X286047Y257792D01*
X286097Y257767D01*
X286155Y257733D01*
X286230Y257700D01*
X286313Y257683D01*
X286413Y257675D01*
X286455D01*
X286505Y257683D01*
X286571Y257700D01*
X286638Y257717D01*
X286713Y257750D01*
X286780Y257792D01*
X286846Y257850D01*
X286855Y257858D01*
X286871Y257883D01*
X286896Y257916D01*
X286930Y257975D01*
X286963Y258033D01*
X286988Y258117D01*
X287004Y258200D01*
X287013Y258300D01*
Y259566D01*
X288412D01*
X288462Y259574D01*
X288529Y259582D01*
X288596Y259591D01*
X288679Y259599D01*
X288771Y259616D01*
X288962Y259658D01*
X289162Y259716D01*
X289370Y259799D01*
X289570Y259916D01*
X289579Y259924D01*
X289595Y259932D01*
X289620Y259949D01*
X289653Y259982D01*
X289745Y260057D01*
X289862Y260157D01*
X289987Y260282D01*
X290112Y260432D01*
X290245Y260599D01*
X290353Y260790D01*
Y260799D01*
X290361Y260815D01*
X290378Y260840D01*
X290395Y260882D01*
X290420Y260932D01*
X290437Y260990D01*
X290495Y261132D01*
X290545Y261290D01*
X290586Y261482D01*
X290620Y261682D01*
X290628Y261890D01*
Y261982D01*
X290620Y262032D01*
Y262090D01*
X290603Y262231D01*
X290578Y262398D01*
X290536Y262573D01*
X290478Y262765D01*
X290395Y262965D01*
Y262973D01*
X290387Y262989D01*
X290370Y263015D01*
X290353Y263056D01*
X290295Y263148D01*
X290212Y263273D01*
X290112Y263414D01*
X289978Y263556D01*
X289828Y263706D01*
X289645Y263839D01*
X289637Y263847D01*
X289620Y263856D01*
X289595Y263873D01*
X289553Y263897D01*
X289504Y263923D01*
X289437Y263948D01*
X289362Y263981D01*
X289287Y264014D01*
X289187Y264047D01*
X289087Y264081D01*
X288979Y264114D01*
X288862Y264139D01*
X288729Y264164D01*
X288596Y264181D01*
X288296Y264197D01*
D02*
G37*
G36*
X284197D02*
X281407D01*
X281357Y264189D01*
X281298Y264172D01*
X281224Y264156D01*
X281149Y264122D01*
X281082Y264081D01*
X281015Y264022D01*
X281007Y264014D01*
X280990Y263989D01*
X280965Y263956D01*
X280940Y263897D01*
X280907Y263839D01*
X280882Y263756D01*
X280865Y263673D01*
X280857Y263573D01*
Y258258D01*
X280865Y258200D01*
X280874Y258141D01*
X280899Y258067D01*
X280924Y257992D01*
X280965Y257916D01*
X281015Y257850D01*
X281024Y257842D01*
X281049Y257825D01*
X281082Y257792D01*
X281132Y257767D01*
X281190Y257733D01*
X281265Y257700D01*
X281348Y257683D01*
X281440Y257675D01*
X281482D01*
X281532Y257683D01*
X281598Y257700D01*
X281665Y257717D01*
X281740Y257750D01*
X281807Y257792D01*
X281873Y257850D01*
X281882Y257858D01*
X281898Y257883D01*
X281923Y257916D01*
X281957Y257975D01*
X281981Y258033D01*
X282007Y258117D01*
X282023Y258200D01*
X282031Y258300D01*
Y260332D01*
X283731D01*
X283781Y260341D01*
X283839Y260349D01*
X283906Y260366D01*
X283981Y260390D01*
X284056Y260424D01*
X284122Y260474D01*
X284131Y260482D01*
X284147Y260499D01*
X284181Y260532D01*
X284214Y260582D01*
X284247Y260641D01*
X284272Y260715D01*
X284297Y260799D01*
X284306Y260890D01*
Y260899D01*
Y260932D01*
X284297Y260982D01*
X284281Y261049D01*
X284256Y261115D01*
X284222Y261182D01*
X284181Y261248D01*
X284122Y261307D01*
X284114Y261315D01*
X284089Y261332D01*
X284056Y261357D01*
X284006Y261382D01*
X283939Y261407D01*
X283864Y261432D01*
X283781Y261449D01*
X283681Y261457D01*
X282031D01*
Y263073D01*
X284239D01*
X284289Y263081D01*
X284347Y263089D01*
X284422Y263106D01*
X284489Y263139D01*
X284556Y263173D01*
X284622Y263223D01*
X284630Y263231D01*
X284647Y263248D01*
X284672Y263281D01*
X284705Y263331D01*
X284739Y263389D01*
X284764Y263456D01*
X284789Y263539D01*
X284797Y263631D01*
Y263673D01*
X284789Y263723D01*
X284772Y263781D01*
X284747Y263847D01*
X284722Y263914D01*
X284681Y263981D01*
X284622Y264039D01*
X284614Y264047D01*
X284597Y264064D01*
X284556Y264089D01*
X284514Y264122D01*
X284447Y264147D01*
X284381Y264172D01*
X284289Y264189D01*
X284197Y264197D01*
D02*
G37*
G36*
X260865Y264664D02*
X256217D01*
X256800D01*
X256691Y264655D01*
X256641D01*
X256608Y264647D01*
X256575D01*
X256441Y264639D01*
X256383Y264630D01*
X256325D01*
X256283Y264622D01*
X256250D01*
X256225Y264614D01*
X256217D01*
Y257158D01*
D01*
Y257208D01*
X256350Y257192D01*
X256408Y257183D01*
X256508D01*
X256541Y257175D01*
X256575D01*
X256708Y257167D01*
X256766D01*
X256816Y257158D01*
X257238D01*
X257058D01*
X257166Y257167D01*
X257216D01*
X257249Y257175D01*
X257283D01*
X257416Y257183D01*
X257474Y257192D01*
X257533D01*
X257574Y257200D01*
X257608Y257208D01*
X257641D01*
Y259957D01*
X257649Y260107D01*
X257658Y260240D01*
X257674Y260357D01*
X257691Y260457D01*
X257708Y260540D01*
X257724Y260590D01*
X257741Y260632D01*
Y260640D01*
X257783Y260732D01*
X257824Y260815D01*
X257858Y260890D01*
X257899Y260948D01*
X257932Y260990D01*
X257958Y261023D01*
X257974Y261040D01*
X257982Y261048D01*
X258041Y261098D01*
X258099Y261140D01*
X258207Y261207D01*
X258249Y261223D01*
X258282Y261240D01*
X258307Y261248D01*
X258316D01*
X258449Y261282D01*
X258507Y261290D01*
X258557D01*
X258607Y261298D01*
X258666D01*
X258807Y261290D01*
X258932Y261257D01*
X259032Y261207D01*
X259115Y261157D01*
X259174Y261098D01*
X259215Y261057D01*
X259240Y261023D01*
X259249Y261007D01*
X259307Y260890D01*
X259349Y260749D01*
X259382Y260615D01*
X259399Y260474D01*
X259415Y260357D01*
X259424Y260257D01*
Y260215D01*
Y260190D01*
Y260174D01*
Y260165D01*
Y257208D01*
X259557Y257192D01*
X259624Y257183D01*
X259723D01*
X259757Y257175D01*
X259790D01*
X259923Y257167D01*
X259982D01*
X260040Y257158D01*
X260273D01*
X260390Y257167D01*
X260432D01*
X260465Y257175D01*
X260498D01*
X260631Y257183D01*
X260698Y257192D01*
X260748D01*
X260798Y257200D01*
X260831Y257208D01*
X260865D01*
Y260549D01*
X260856Y260740D01*
X260848Y260915D01*
X260823Y261082D01*
X260798Y261232D01*
X260765Y261373D01*
X260723Y261498D01*
X260681Y261607D01*
X260640Y261706D01*
X260598Y261798D01*
X260557Y261873D01*
X260523Y261940D01*
X260482Y261990D01*
X260456Y262031D01*
X260432Y262056D01*
X260423Y262073D01*
X260415Y262081D01*
X260323Y262165D01*
X260232Y262240D01*
X260123Y262306D01*
X260015Y262365D01*
X259907Y262406D01*
X259799Y262448D01*
X259582Y262506D01*
X259482Y262523D01*
X259390Y262540D01*
X259307Y262548D01*
X259232Y262556D01*
X259174Y262564D01*
X258982D01*
X258874Y262548D01*
X258782Y262540D01*
X258699Y262523D01*
X258624Y262506D01*
X258574Y262498D01*
X258541Y262481D01*
X258532D01*
X258449Y262448D01*
X258366Y262423D01*
X258291Y262390D01*
X258232Y262356D01*
X258182Y262331D01*
X258149Y262306D01*
X258124Y262298D01*
X258116Y262290D01*
X257999Y262198D01*
X257916Y262123D01*
X257882Y262090D01*
X257858Y262065D01*
X257841Y262048D01*
X257833Y262040D01*
X257758Y261956D01*
X257691Y261890D01*
X257658Y261848D01*
X257641Y261831D01*
Y264614D01*
X257508Y264630D01*
X257399Y264639D01*
X257349Y264647D01*
X257283D01*
X257150Y264655D01*
X257091Y264664D01*
X260865D01*
D02*
G37*
G36*
X254817Y262448D02*
Y262448D01*
X252735D01*
X252701Y262248D01*
X252693Y262156D01*
X252685Y262081D01*
X252676Y262006D01*
Y257158D01*
D01*
Y261806D01*
X252685Y261715D01*
Y261682D01*
X252693Y261648D01*
Y261631D01*
Y261623D01*
X252710Y261523D01*
X252718Y261432D01*
X252726Y261398D01*
X252735Y261373D01*
Y261357D01*
Y261348D01*
X253418D01*
Y257217D01*
X253551Y257200D01*
X253676Y257183D01*
X253793Y257175D01*
X253901Y257167D01*
X253984Y257158D01*
X254109D01*
X254367Y257167D01*
X254484Y257175D01*
X254592Y257192D01*
X254684Y257200D01*
X254759Y257208D01*
X254801Y257217D01*
X254817D01*
Y262448D01*
D02*
G37*
G36*
X248470Y264672D02*
X248203D01*
X248070Y264664D01*
X247953Y264655D01*
X247845Y264647D01*
X247753Y264630D01*
X247687Y264622D01*
X247645Y264614D01*
X247628D01*
Y257158D01*
X252318D01*
X251668D01*
X251810Y257167D01*
X251943Y257175D01*
X252068Y257192D01*
X252168Y257200D01*
X252252Y257208D01*
X252302Y257217D01*
X252318D01*
D01*
X250760Y260024D01*
X252101Y262448D01*
X251827Y262481D01*
X251702Y262490D01*
X251593Y262498D01*
X251493Y262506D01*
X251202D01*
X251052Y262498D01*
X250919Y262490D01*
X250802Y262481D01*
X250694Y262464D01*
X250619Y262456D01*
X250569Y262448D01*
X250552D01*
X249253Y259957D01*
X250769Y257217D01*
X250919Y257200D01*
X251052Y257183D01*
X251185Y257175D01*
X251293Y257167D01*
X251385Y257158D01*
X248470D01*
X248603Y257167D01*
X248720Y257175D01*
X248828Y257192D01*
X248920Y257200D01*
X248994Y257208D01*
X249036Y257217D01*
X249053D01*
Y264614D01*
X248920Y264630D01*
X248786Y264647D01*
X248670Y264655D01*
X248561Y264664D01*
X248470Y264672D01*
D02*
G37*
%LPD*%
G36*
X270611Y257158D02*
X268295D01*
X268412Y257167D01*
X268453D01*
X268487Y257175D01*
X268520D01*
X268653Y257183D01*
X268720Y257192D01*
X268770D01*
X268820Y257200D01*
X268853Y257208D01*
X268886D01*
Y259691D01*
X268895Y259882D01*
X268903Y260057D01*
X268928Y260199D01*
X268953Y260324D01*
X268970Y260415D01*
X268995Y260482D01*
X269003Y260524D01*
X269011Y260540D01*
X269061Y260649D01*
X269111Y260740D01*
X269170Y260823D01*
X269220Y260882D01*
X269261Y260932D01*
X269295Y260974D01*
X269320Y260990D01*
X269328Y260999D01*
X269403Y261048D01*
X269478Y261090D01*
X269545Y261123D01*
X269611Y261148D01*
X269661Y261165D01*
X269703Y261173D01*
X269728Y261182D01*
X269736D01*
X269886Y261207D01*
X269953Y261215D01*
X270011D01*
X270053Y261223D01*
X270386D01*
X270461Y261215D01*
X270494Y261207D01*
X270519D01*
X270528Y261198D01*
X270536D01*
X270561Y261340D01*
X270569Y261398D01*
X270578Y261457D01*
X270586Y261507D01*
X270594Y261548D01*
Y261573D01*
Y261582D01*
X270602Y261732D01*
X270611Y261790D01*
Y257158D01*
D02*
G37*
G36*
X267595Y257192D02*
X267654Y257183D01*
X267754D01*
X267787Y257175D01*
X267820D01*
X267945Y257167D01*
X268062Y257158D01*
X267454D01*
Y257208D01*
X267595Y257192D01*
D02*
G37*
G36*
X264430Y259657D02*
X264463D01*
X264488Y259649D01*
X264513D01*
X264613Y259632D01*
X264697Y259624D01*
X264730Y259616D01*
X264755D01*
X264772Y259607D01*
X264780D01*
Y258275D01*
X264697Y258258D01*
X264605Y258249D01*
X264571Y258241D01*
X264538D01*
X264522Y258233D01*
X264513D01*
X264405Y258216D01*
X264305Y258208D01*
X264113D01*
X264013Y258216D01*
X263905D01*
X263780Y258233D01*
X263672Y258266D01*
X263630Y258275D01*
X263597Y258291D01*
X263580Y258299D01*
X263572D01*
X263464Y258358D01*
X263372Y258433D01*
X263339Y258458D01*
X263322Y258483D01*
X263305Y258499D01*
X263297Y258508D01*
X263264Y258566D01*
X263239Y258633D01*
X263205Y258766D01*
X263197Y258824D01*
X263189Y258874D01*
Y258908D01*
Y258916D01*
X263205Y259049D01*
X263239Y259166D01*
X263280Y259266D01*
X263339Y259349D01*
X263389Y259407D01*
X263439Y259449D01*
X263472Y259474D01*
X263480Y259482D01*
X263597Y259541D01*
X263722Y259591D01*
X263855Y259624D01*
X263980Y259641D01*
X264097Y259657D01*
X264180Y259666D01*
X264347D01*
X264430Y259657D01*
D02*
G37*
G36*
X266179Y257100D02*
X264172D01*
X264405Y257108D01*
X264621Y257117D01*
X264813Y257133D01*
X264980Y257150D01*
X265055Y257158D01*
X265121Y257167D01*
X265180Y257175D01*
X265221Y257183D01*
X265263Y257192D01*
X265288Y257200D01*
X265313D01*
X265496Y257233D01*
X265663Y257275D01*
X265813Y257308D01*
X265938Y257342D01*
X266038Y257367D01*
X266113Y257392D01*
X266163Y257400D01*
X266179Y257408D01*
Y257100D01*
D02*
G37*
G36*
X261856Y258674D02*
X261873Y258516D01*
X261898Y258383D01*
X261931Y258258D01*
X261964Y258166D01*
X261989Y258091D01*
X262006Y258050D01*
X262014Y258033D01*
X262081Y257916D01*
X262156Y257808D01*
X262239Y257716D01*
X262314Y257633D01*
X262381Y257566D01*
X262439Y257525D01*
X262472Y257491D01*
X262489Y257483D01*
X262606Y257408D01*
X262731Y257350D01*
X262856Y257300D01*
X262972Y257258D01*
X263072Y257233D01*
X263147Y257208D01*
X263180Y257200D01*
X263205D01*
X263214Y257192D01*
X263222D01*
X263389Y257158D01*
X263555Y257142D01*
X263714Y257125D01*
X263863Y257108D01*
X263988D01*
X264038Y257100D01*
X261848Y257100D01*
Y258849D01*
X261856Y258674D01*
D02*
G37*
G36*
X302048Y259991D02*
X300208D01*
X301132Y262481D01*
X302048Y259991D01*
D02*
G37*
G36*
X288346Y263065D02*
X288462Y263048D01*
X288587Y263023D01*
X288712Y262981D01*
X288845Y262940D01*
X288954Y262873D01*
X288970Y262865D01*
X289004Y262840D01*
X289045Y262798D01*
X289112Y262748D01*
X289170Y262681D01*
X289237Y262606D01*
X289295Y262515D01*
X289345Y262415D01*
X289354Y262406D01*
X289362Y262373D01*
X289379Y262315D01*
X289404Y262248D01*
X289420Y262173D01*
X289437Y262082D01*
X289445Y261990D01*
X289454Y261890D01*
Y261882D01*
Y261848D01*
X289445Y261790D01*
X289437Y261723D01*
X289429Y261648D01*
X289412Y261557D01*
X289379Y261457D01*
X289345Y261357D01*
X289337Y261349D01*
X289329Y261315D01*
X289295Y261257D01*
X289262Y261199D01*
X289204Y261124D01*
X289137Y261040D01*
X289054Y260965D01*
X288954Y260890D01*
X288937Y260882D01*
X288904Y260857D01*
X288837Y260832D01*
X288737Y260790D01*
X288621Y260757D01*
X288479Y260724D01*
X288312Y260699D01*
X288121Y260690D01*
X287013D01*
Y263073D01*
X288254D01*
X288346Y263065D01*
D02*
G37*
G36*
X247886Y257183D02*
X248003Y257175D01*
X248112Y257167D01*
X248203Y257158D01*
X247628D01*
Y257217D01*
X247886Y257183D01*
D02*
G37*
D10*
X188655Y135995D02*
G03*
X188655Y135995I-492J0D01*
G01*
X123661Y221693D02*
G03*
X123661Y221693I-492J0D01*
G01*
X172468Y227874D02*
G03*
X172468Y227874I-492J0D01*
G01*
X229126Y251079D02*
G03*
X229126Y251079I-492J0D01*
G01*
X224445Y143043D02*
G03*
X224445Y143043I-492J0D01*
G01*
X134155Y135995D02*
G03*
X134155Y135995I-492J0D01*
G01*
X273406Y109100D02*
G03*
X273406Y109100I-492J0D01*
G01*
X190035Y156937D02*
G03*
X190035Y156937I-492J0D01*
G01*
X289547Y136000D02*
G03*
X289547Y136000I-492J0D01*
G01*
D11*
X215327Y236724D02*
G03*
X215327Y236724I-394J0D01*
G01*
X190427Y111527D02*
Y139873D01*
Y111527D02*
X218773D01*
Y139873D01*
X190427D02*
X218773D01*
X139047Y226239D02*
Y234161D01*
X132353Y226239D02*
Y234161D01*
X125654Y227153D02*
Y233846D01*
X132346Y227153D02*
Y233846D01*
X118954Y227153D02*
Y233846D01*
X125646Y227153D02*
Y233846D01*
X125654Y237353D02*
Y244046D01*
X132346Y237353D02*
Y244046D01*
X118954Y237353D02*
Y244046D01*
X125646Y237353D02*
Y244046D01*
X139047Y235739D02*
Y243661D01*
X132353Y235739D02*
Y243661D01*
X165439Y246721D02*
X173361D01*
X165439Y240028D02*
X173361D01*
X153639Y246721D02*
X161561D01*
X153639Y240028D02*
X161561D01*
X125728Y167165D02*
X157224D01*
X125728Y222284D02*
X157224D01*
Y167165D02*
Y222284D01*
X125728Y167165D02*
Y222284D01*
Y218537D02*
X129474Y222284D01*
X174535Y161535D02*
X241465D01*
X174535Y228465D02*
X241465D01*
Y161535D02*
Y228465D01*
X174535Y161535D02*
Y228465D01*
Y224858D02*
X178142Y228465D01*
X166130Y233378D02*
X172823D01*
X166130Y240071D02*
X172823D01*
X232669Y238185D02*
Y248815D01*
X216331Y238185D02*
Y248815D01*
X260132Y112050D02*
X264069D01*
X260132Y105750D02*
X264069D01*
X122214Y146143D02*
X123986D01*
X122214Y139057D02*
X123986D01*
X132549Y142600D02*
X134517D01*
X133533Y141616D02*
Y143584D01*
X122214Y137443D02*
X123986D01*
X122214Y130357D02*
X123986D01*
X132549Y133900D02*
X134517D01*
X133533Y132916D02*
Y134884D01*
X122214Y128743D02*
X123986D01*
X122214Y121657D02*
X123986D01*
X132549Y125200D02*
X134517D01*
X133533Y124216D02*
Y126184D01*
X155454Y103950D02*
X162146D01*
X155432Y110278D02*
X162126D01*
X155254Y141150D02*
X161946D01*
X155233Y147478D02*
X161925D01*
X122214Y154843D02*
X123986D01*
X122214Y147757D02*
X123986D01*
X132549Y151300D02*
X134517D01*
X133533Y150316D02*
Y152284D01*
X143654Y141154D02*
X150347D01*
X143654Y147846D02*
X150347D01*
X143853Y103553D02*
X150547D01*
X143853Y110247D02*
X150547D01*
X135927Y139873D02*
X164273D01*
Y111527D02*
Y139873D01*
X135927Y111527D02*
X164273D01*
X135927D02*
Y139873D01*
X288554Y112250D02*
X295247D01*
X288575Y105921D02*
X295268D01*
X276654Y112446D02*
X283347D01*
X276654Y105754D02*
X283347D01*
X212603Y145475D02*
X212997D01*
X212603Y142325D02*
X212997D01*
X209653Y103950D02*
X216347D01*
X209632Y110278D02*
X216325D01*
X177014Y116243D02*
X178786D01*
X177014Y109157D02*
X178786D01*
X187349Y112700D02*
X189317D01*
X188333Y111716D02*
Y113684D01*
X197653Y141053D02*
X204346D01*
X197653Y147747D02*
X204346D01*
X197953Y103553D02*
X204646D01*
X197953Y110247D02*
X204646D01*
X177014Y142943D02*
X178786D01*
X177014Y135857D02*
X178786D01*
X187349Y139400D02*
X189317D01*
X188333Y138416D02*
Y140384D01*
X177014Y125143D02*
X178786D01*
X177014Y118057D02*
X178786D01*
X187349Y121600D02*
X189317D01*
X188333Y120616D02*
Y122584D01*
X177014Y134043D02*
X178786D01*
X177014Y126957D02*
X178786D01*
X187349Y130500D02*
X189317D01*
X188333Y129516D02*
Y131484D01*
X227269Y121583D02*
Y123551D01*
X226284Y122567D02*
X228253D01*
X221363Y132114D02*
Y133886D01*
X233174Y132114D02*
Y133886D01*
X227269Y121649D02*
Y123617D01*
X226284Y122633D02*
X228253D01*
X233174Y111314D02*
Y113086D01*
X221363Y111314D02*
Y113086D01*
X241268Y121583D02*
Y123551D01*
X240284Y122567D02*
X242253D01*
X235363Y132114D02*
Y133886D01*
X247174Y132114D02*
Y133886D01*
X241300Y121649D02*
Y123617D01*
X240316Y122633D02*
X242284D01*
X247205Y111314D02*
Y113086D01*
X235395Y111314D02*
Y113086D01*
X135374Y156358D02*
X146626D01*
X135374Y149042D02*
X146626D01*
X116774Y156542D02*
X128026D01*
X116774Y163858D02*
X128026D01*
X113685Y212146D02*
Y217854D01*
X124315Y212146D02*
Y217854D01*
X168646Y159315D02*
X174354D01*
X168646Y148685D02*
X174354D01*
X238053Y234239D02*
Y242161D01*
X244746Y234239D02*
Y242161D01*
X216439Y257246D02*
X224361D01*
X216439Y250553D02*
X224361D01*
X228153Y230554D02*
X234846D01*
X228153Y237246D02*
X234846D01*
X213747Y149739D02*
Y157661D01*
X207053Y149739D02*
Y157661D01*
X192889Y148866D02*
X205094D01*
X192889Y159102D02*
X205094D01*
X181653Y150354D02*
Y157046D01*
X188347Y150354D02*
Y157046D01*
X213754Y150354D02*
Y157046D01*
X220446Y150354D02*
Y157046D01*
X165439Y246754D02*
X173361D01*
X165439Y253447D02*
X173361D01*
X165439Y253453D02*
X173361D01*
X165439Y260146D02*
X173361D01*
X217739Y263947D02*
X225661D01*
X217739Y257254D02*
X225661D01*
X261354Y132457D02*
X269646D01*
X261354Y139543D02*
X269646D01*
X198374Y257622D02*
X205067D01*
X198354Y263950D02*
X205047D01*
X276063Y139937D02*
X283937D01*
X276063Y132063D02*
X283937D01*
X186232Y263979D02*
X192926D01*
X186253Y257650D02*
X192947D01*
X297500Y134228D02*
Y137772D01*
D12*
X178063Y232413D02*
Y234598D01*
Y253850D02*
Y256035D01*
X209559Y232413D02*
Y234598D01*
Y253850D02*
Y256035D01*
X178063Y232413D02*
X209559D01*
X178063Y256035D02*
X209559D01*
X220612Y145156D02*
Y158844D01*
X239228D02*
X241388D01*
X220612D02*
X222772D01*
X241388Y145156D02*
Y158844D01*
X239228Y145156D02*
X241388D01*
X220612D02*
X222772D01*
D13*
X44099Y138098D02*
X40100D01*
Y132100D01*
X44099D01*
X40100Y135099D02*
X42099D01*
X46098Y138098D02*
X50097D01*
X48097D01*
Y132100D01*
X52096Y138098D02*
Y132100D01*
Y135099D01*
X56095D01*
Y138098D01*
Y132100D01*
X58094Y136099D02*
X59094D01*
Y135099D01*
X58094D01*
Y136099D01*
Y133100D02*
X59094D01*
Y132100D01*
X58094D01*
Y133100D01*
X69091Y137098D02*
X70090Y138098D01*
X72090D01*
X73089Y137098D01*
Y136099D01*
X72090Y135099D01*
X73089Y134099D01*
Y133100D01*
X72090Y132100D01*
X70090D01*
X69091Y133100D01*
Y134099D01*
X70090Y135099D01*
X69091Y136099D01*
Y137098D01*
X70090Y135099D02*
X72090D01*
X75089Y137098D02*
X76088Y138098D01*
X78088D01*
X79087Y137098D01*
Y133100D01*
X78088Y132100D01*
X76088D01*
X75089Y133100D01*
Y137098D01*
X81087D02*
X82086Y138098D01*
X84086D01*
X85085Y137098D01*
Y133100D01*
X84086Y132100D01*
X82086D01*
X81087Y133100D01*
Y137098D01*
X87085Y132100D02*
Y136099D01*
X88085D01*
X89084Y135099D01*
Y132100D01*
Y135099D01*
X90084Y136099D01*
X91084Y135099D01*
Y132100D01*
X93083D02*
X95082D01*
X94082D01*
Y136099D01*
X93083D01*
X98081Y132100D02*
X100081D01*
X99081D01*
Y138098D01*
X98081D01*
X15499Y214498D02*
X13499D01*
X14499D01*
Y209500D01*
X13499Y208500D01*
X12500D01*
X11500Y209500D01*
X17498Y214498D02*
Y208500D01*
X21497D01*
X27495Y213498D02*
X26495Y214498D01*
X24496D01*
X23496Y213498D01*
Y209500D01*
X24496Y208500D01*
X26495D01*
X27495Y209500D01*
X29494Y213498D02*
X30494Y214498D01*
X32493D01*
X33493Y213498D01*
Y209500D01*
X32493Y208500D01*
X30494D01*
X29494Y209500D01*
Y213498D01*
X35492D02*
X36492Y214498D01*
X38491D01*
X39491Y213498D01*
Y212499D01*
X38491Y211499D01*
X39491Y210499D01*
Y209500D01*
X38491Y208500D01*
X36492D01*
X35492Y209500D01*
Y210499D01*
X36492Y211499D01*
X35492Y212499D01*
Y213498D01*
X36492Y211499D02*
X38491D01*
X41490Y208500D02*
X43490D01*
X42490D01*
Y214498D01*
X41490Y213498D01*
X50487Y214498D02*
X48488Y213498D01*
X46489Y211499D01*
Y209500D01*
X47488Y208500D01*
X49488D01*
X50487Y209500D01*
Y210499D01*
X49488Y211499D01*
X46489D01*
X52487Y208500D02*
X54486D01*
X53486D01*
Y214498D01*
X52487Y213498D01*
X57485Y214498D02*
Y208500D01*
Y211499D01*
X61484D01*
Y214498D01*
Y208500D01*
X63483Y211499D02*
X67482D01*
X69481Y208500D02*
X71481D01*
X70481D01*
Y214498D01*
X69481Y213498D01*
X74480D02*
X75479Y214498D01*
X77479D01*
X78478Y213498D01*
Y209500D01*
X77479Y208500D01*
X75479D01*
X74480Y209500D01*
Y213498D01*
X80478D02*
X81477Y214498D01*
X83477D01*
X84476Y213498D01*
Y212499D01*
X83477Y211499D01*
X84476Y210499D01*
Y209500D01*
X83477Y208500D01*
X81477D01*
X80478Y209500D01*
Y210499D01*
X81477Y211499D01*
X80478Y212499D01*
Y213498D01*
X81477Y211499D02*
X83477D01*
X86476Y213498D02*
X87475Y214498D01*
X89475D01*
X90474Y213498D01*
Y209500D01*
X89475Y208500D01*
X87475D01*
X86476Y209500D01*
Y213498D01*
X28000Y142000D02*
Y147998D01*
X30999D01*
X31999Y146998D01*
Y144999D01*
X30999Y143999D01*
X28000D01*
X37997Y146998D02*
X36997Y147998D01*
X34998D01*
X33998Y146998D01*
Y145999D01*
X34998Y144999D01*
X36997D01*
X37997Y143999D01*
Y143000D01*
X36997Y142000D01*
X34998D01*
X33998Y143000D01*
X49993Y146998D02*
X48993Y147998D01*
X46994D01*
X45994Y146998D01*
Y145999D01*
X46994Y144999D01*
X48993D01*
X49993Y143999D01*
Y143000D01*
X48993Y142000D01*
X46994D01*
X45994Y143000D01*
X51992Y147998D02*
Y142000D01*
X54991D01*
X55991Y143000D01*
Y146998D01*
X54991Y147998D01*
X51992D01*
X57990Y145999D02*
X58990D01*
Y144999D01*
X57990D01*
Y145999D01*
Y143000D02*
X58990D01*
Y142000D01*
X57990D01*
Y143000D01*
X72986Y147998D02*
X70986Y146998D01*
X68987Y144999D01*
Y143000D01*
X69986Y142000D01*
X71986D01*
X72986Y143000D01*
Y143999D01*
X71986Y144999D01*
X68987D01*
X77984Y142000D02*
Y147998D01*
X74985Y144999D01*
X78983D01*
X80983Y146998D02*
X81982Y147998D01*
X83982D01*
X84982Y146998D01*
Y143000D01*
X83982Y142000D01*
X81982D01*
X80983Y143000D01*
Y146998D01*
X86981Y142000D02*
Y145999D01*
X87981D01*
X88980Y144999D01*
Y142000D01*
Y144999D01*
X89980Y145999D01*
X90980Y144999D01*
Y142000D01*
X92979D02*
X94978D01*
X93979D01*
Y145999D01*
X92979D01*
X97977Y142000D02*
X99977D01*
X98977D01*
Y147998D01*
X97977D01*
X10199Y156998D02*
X9199Y157998D01*
X7200D01*
X6200Y156998D01*
Y155999D01*
X7200Y154999D01*
X9199D01*
X10199Y153999D01*
Y153000D01*
X9199Y152000D01*
X7200D01*
X6200Y153000D01*
X12198Y152000D02*
Y157998D01*
X15197D01*
X16197Y156998D01*
Y154999D01*
X15197Y153999D01*
X12198D01*
X18196Y157998D02*
X20196D01*
X19196D01*
Y152000D01*
X18196D01*
X20196D01*
X33191Y157998D02*
X29193D01*
Y154999D01*
X31192D01*
X29193D01*
Y152000D01*
X35191D02*
X37190D01*
X36190D01*
Y157998D01*
X35191D01*
X41189Y155999D02*
X43188D01*
X44188Y154999D01*
Y152000D01*
X41189D01*
X40189Y153000D01*
X41189Y153999D01*
X44188D01*
X46187Y152000D02*
X49186D01*
X50186Y153000D01*
X49186Y153999D01*
X47187D01*
X46187Y154999D01*
X47187Y155999D01*
X50186D01*
X52185Y157998D02*
Y152000D01*
Y154999D01*
X53185Y155999D01*
X55184D01*
X56184Y154999D01*
Y152000D01*
X58183Y155999D02*
X59183D01*
Y154999D01*
X58183D01*
Y155999D01*
Y153000D02*
X59183D01*
Y152000D01*
X58183D01*
Y153000D01*
X72179Y152000D02*
Y157998D01*
X69180Y154999D01*
X73178D01*
X79176Y157998D02*
X77177Y156998D01*
X75178Y154999D01*
Y153000D01*
X76177Y152000D01*
X78177D01*
X79176Y153000D01*
Y153999D01*
X78177Y154999D01*
X75178D01*
X81176Y156998D02*
X82175Y157998D01*
X84175D01*
X85175Y156998D01*
Y153000D01*
X84175Y152000D01*
X82175D01*
X81176Y153000D01*
Y156998D01*
X87174Y152000D02*
Y155999D01*
X88174D01*
X89173Y154999D01*
Y152000D01*
Y154999D01*
X90173Y155999D01*
X91172Y154999D01*
Y152000D01*
X93172D02*
X95171D01*
X94172D01*
Y155999D01*
X93172D01*
X98170Y152000D02*
X100170D01*
X99170D01*
Y157998D01*
X98170D01*
X28900Y162100D02*
Y166099D01*
X30899Y168098D01*
X32899Y166099D01*
Y162100D01*
Y165099D01*
X28900D01*
X38897Y168098D02*
Y162100D01*
X35898D01*
X34898Y163100D01*
Y165099D01*
X35898Y166099D01*
X38897D01*
X44895Y168098D02*
Y162100D01*
X41896D01*
X40896Y163100D01*
Y165099D01*
X41896Y166099D01*
X44895D01*
X46894D02*
Y162100D01*
Y164099D01*
X47894Y165099D01*
X48893Y166099D01*
X49893D01*
X52892D02*
X53892D01*
Y165099D01*
X52892D01*
Y166099D01*
Y163100D02*
X53892D01*
Y162100D01*
X52892D01*
Y163100D01*
X63889Y162100D02*
X65888D01*
X64888D01*
Y168098D01*
X63889Y167098D01*
X68887D02*
X69887Y168098D01*
X71886D01*
X72886Y167098D01*
Y163100D01*
X71886Y162100D01*
X69887D01*
X68887Y163100D01*
Y167098D01*
X74885D02*
X75885Y168098D01*
X77884D01*
X78884Y167098D01*
Y163100D01*
X77884Y162100D01*
X75885D01*
X74885Y163100D01*
Y167098D01*
X80883D02*
X81883Y168098D01*
X83882D01*
X84882Y167098D01*
Y163100D01*
X83882Y162100D01*
X81883D01*
X80883Y163100D01*
Y167098D01*
X86881Y162100D02*
Y166099D01*
X87881D01*
X88881Y165099D01*
Y162100D01*
Y165099D01*
X89880Y166099D01*
X90880Y165099D01*
Y162100D01*
X92879D02*
X94879D01*
X93879D01*
Y166099D01*
X92879D01*
X97878Y162100D02*
X99877D01*
X98877D01*
Y168098D01*
X97878D01*
X10514Y178593D02*
Y172595D01*
X13513D01*
X14513Y173595D01*
Y177594D01*
X13513Y178593D01*
X10514D01*
X16512D02*
Y172595D01*
X19511D01*
X20511Y173595D01*
Y177594D01*
X19511Y178593D01*
X16512D01*
X22510Y172595D02*
Y178593D01*
X25509D01*
X26509Y177594D01*
Y175594D01*
X25509Y174595D01*
X22510D01*
X24509D02*
X26509Y172595D01*
X34506Y178593D02*
Y172595D01*
X37505D01*
X38505Y173595D01*
Y177594D01*
X37505Y178593D01*
X34506D01*
X41504Y176594D02*
X43503D01*
X44503Y175594D01*
Y172595D01*
X41504D01*
X40504Y173595D01*
X41504Y174595D01*
X44503D01*
X47502Y177594D02*
Y176594D01*
X46502D01*
X48502D01*
X47502D01*
Y173595D01*
X48502Y172595D01*
X52500Y176594D02*
X54500D01*
X55500Y175594D01*
Y172595D01*
X52500D01*
X51501Y173595D01*
X52500Y174595D01*
X55500D01*
X57499Y176594D02*
X58499D01*
Y175594D01*
X57499D01*
Y176594D01*
Y173595D02*
X58499D01*
Y172595D01*
X57499D01*
Y173595D01*
X68495D02*
X69495Y172595D01*
X71494D01*
X72494Y173595D01*
Y177594D01*
X71494Y178593D01*
X69495D01*
X68495Y177594D01*
Y176594D01*
X69495Y175594D01*
X72494D01*
X74493Y177594D02*
X75493Y178593D01*
X77492D01*
X78492Y177594D01*
Y173595D01*
X77492Y172595D01*
X75493D01*
X74493Y173595D01*
Y177594D01*
X80491D02*
X81491Y178593D01*
X83490D01*
X84490Y177594D01*
Y173595D01*
X83490Y172595D01*
X81491D01*
X80491Y173595D01*
Y177594D01*
X86489Y172595D02*
Y176594D01*
X87489D01*
X88489Y175594D01*
Y172595D01*
Y175594D01*
X89489Y176594D01*
X90488Y175594D01*
Y172595D01*
X92488D02*
X94487D01*
X93487D01*
Y176594D01*
X92488D01*
X97486Y172595D02*
X99485D01*
X98486D01*
Y178593D01*
X97486D01*
M02*
