G04*
G04 #@! TF.GenerationSoftware,Altium Limited,Altium Designer,25.6.2 (33)*
G04*
G04 Layer_Color=32896*
%FSLAX25Y25*%
%MOIN*%
G70*
G04*
G04 #@! TF.SameCoordinates,D3077B53-F130-49B9-AE0B-FC42BD5CCE1B*
G04*
G04*
G04 #@! TF.FilePolarity,Positive*
G04*
G01*
G75*
%ADD10C,0.00984*%
%ADD11C,0.00787*%
%ADD12C,0.00500*%
%ADD13C,0.01000*%
G36*
X326100Y122432D02*
X316812D01*
Y194000D01*
X326100D01*
Y122432D01*
D02*
G37*
%LPC*%
G36*
X323556Y193500D02*
X317405D01*
Y193500D01*
X317451D01*
Y193482D01*
X317442Y193445D01*
X317432Y193380D01*
X317423Y193306D01*
Y193213D01*
X317414Y193102D01*
X317405Y192880D01*
Y192769D01*
X317414Y192686D01*
Y192594D01*
X317423Y192492D01*
X317451Y192261D01*
X319828D01*
Y190226D01*
X317451D01*
Y190207D01*
X317442Y190170D01*
X317432Y190114D01*
X317423Y190031D01*
Y189939D01*
X317414Y189837D01*
X317405Y189615D01*
Y189504D01*
X317414Y189421D01*
Y189328D01*
X317423Y189217D01*
X317451Y188986D01*
X323510D01*
Y189005D01*
X323519Y189041D01*
X323528Y189106D01*
Y189180D01*
X323537Y189282D01*
X323547Y189384D01*
X323556Y189606D01*
Y188986D01*
X323556D01*
Y193500D01*
D02*
G37*
G36*
X323602Y188033D02*
X319060D01*
Y188033D01*
X321280D01*
X321188Y188024D01*
X321068Y188015D01*
X320929Y188005D01*
X320781Y187978D01*
X320623Y187950D01*
X320466Y187904D01*
X320457D01*
X320448Y187894D01*
X320392Y187876D01*
X320318Y187848D01*
X320216Y187802D01*
X320096Y187747D01*
X319976Y187672D01*
X319856Y187599D01*
X319736Y187506D01*
X319717Y187497D01*
X319680Y187460D01*
X319624Y187404D01*
X319560Y187321D01*
X319477Y187229D01*
X319393Y187118D01*
X319319Y186988D01*
X319245Y186849D01*
Y186840D01*
X319236Y186831D01*
X319217Y186775D01*
X319190Y186692D01*
X319153Y186581D01*
X319116Y186451D01*
X319088Y186294D01*
X319070Y186118D01*
X319060Y185934D01*
Y185859D01*
X319070Y185767D01*
X319079Y185656D01*
X319097Y185536D01*
X319125Y185397D01*
X319162Y185258D01*
X319217Y185119D01*
X319227Y185101D01*
X319245Y185064D01*
X319282Y184999D01*
X319328Y184916D01*
X319393Y184814D01*
X319467Y184722D01*
X319550Y184620D01*
X319652Y184518D01*
X319661Y184509D01*
X319699Y184481D01*
X319763Y184435D01*
X319837Y184379D01*
X319939Y184315D01*
X320050Y184259D01*
X320180Y184195D01*
X320318Y184148D01*
X320337Y184139D01*
X320383Y184130D01*
X320457Y184111D01*
X320559Y184083D01*
X320688Y184056D01*
X320827Y184037D01*
X320975Y184028D01*
X321141Y184019D01*
X321243D01*
X321336Y184028D01*
X321456Y184037D01*
X321465D01*
X321484D01*
X321512D01*
X321549Y184046D01*
X321632D01*
X321706Y184056D01*
Y186858D01*
X321715D01*
X321724D01*
X321752Y186849D01*
X321789D01*
X321872Y186831D01*
X321983Y186803D01*
X322104Y186757D01*
X322224Y186692D01*
X322335Y186609D01*
X322436Y186507D01*
X322446Y186488D01*
X322474Y186451D01*
X322511Y186378D01*
X322548Y186276D01*
X322585Y186155D01*
X322621Y186007D01*
X322649Y185841D01*
X322658Y185656D01*
Y185545D01*
X322649Y185471D01*
Y185388D01*
X322640Y185286D01*
X322612Y185073D01*
Y185064D01*
X322603Y185027D01*
X322585Y184962D01*
X322575Y184888D01*
X322548Y184805D01*
X322520Y184713D01*
X322455Y184509D01*
X322464D01*
X322483Y184491D01*
X322520Y184472D01*
X322566Y184453D01*
X322631Y184426D01*
X322695Y184407D01*
X322862Y184352D01*
X322871D01*
X322899Y184343D01*
X322945Y184324D01*
X323010Y184315D01*
X323084Y184296D01*
X323167Y184287D01*
X323361Y184268D01*
Y184278D01*
X323371Y184296D01*
X323380Y184333D01*
X323398Y184379D01*
X323417Y184444D01*
X323435Y184518D01*
X323463Y184601D01*
X323482Y184703D01*
X323500Y184805D01*
X323528Y184916D01*
X323565Y185166D01*
X323593Y185452D01*
X323602Y185749D01*
Y184019D01*
X323602D01*
Y188033D01*
D02*
G37*
G36*
Y183316D02*
X317312D01*
Y183316D01*
X321308D01*
X321216Y183307D01*
X321095Y183297D01*
X320956Y183279D01*
X320809Y183251D01*
X320642Y183214D01*
X320485Y183159D01*
X320476D01*
X320466Y183149D01*
X320411Y183131D01*
X320337Y183094D01*
X320235Y183047D01*
X320115Y182983D01*
X319994Y182909D01*
X319874Y182816D01*
X319754Y182714D01*
X319736Y182705D01*
X319699Y182659D01*
X319643Y182604D01*
X319569Y182520D01*
X319495Y182419D01*
X319412Y182298D01*
X319328Y182159D01*
X319254Y182011D01*
Y182002D01*
X319245Y181993D01*
X319227Y181938D01*
X319199Y181854D01*
X319162Y181743D01*
X319125Y181605D01*
X319097Y181447D01*
X319079Y181281D01*
X319070Y181096D01*
Y180994D01*
X319079Y180892D01*
X319088Y180781D01*
Y180754D01*
X319097Y180717D01*
Y180680D01*
X319116Y180578D01*
X319144Y180457D01*
X317358D01*
Y180448D01*
X317349Y180430D01*
Y180402D01*
X317340Y180365D01*
X317331Y180272D01*
X317321Y180161D01*
Y180106D01*
X317312Y180069D01*
Y179690D01*
X317321Y179579D01*
Y179523D01*
X317331Y179477D01*
X317340Y179385D01*
X317358Y179273D01*
X323371D01*
X323380Y179292D01*
X323389Y179338D01*
X323408Y179421D01*
X323435Y179523D01*
X323463Y179643D01*
X323491Y179782D01*
X323519Y179930D01*
X323547Y180078D01*
Y180097D01*
X323556Y180152D01*
X323565Y180236D01*
X323574Y180356D01*
X323584Y180494D01*
X323593Y180670D01*
X323602Y180855D01*
Y179273D01*
X323602D01*
Y183316D01*
D02*
G37*
G36*
X325600Y178422D02*
X319060D01*
Y178422D01*
X324416D01*
X324351Y178413D01*
X324259Y178404D01*
X324157Y178376D01*
X324055Y178349D01*
X323954Y178302D01*
X323852Y178247D01*
X323843Y178237D01*
X323815Y178210D01*
X323768Y178173D01*
X323713Y178117D01*
X323648Y178043D01*
X323574Y177960D01*
X323500Y177867D01*
X323435Y177757D01*
X323426Y177766D01*
X323417Y177784D01*
X323389Y177821D01*
X323361Y177867D01*
X323269Y177969D01*
X323149Y178071D01*
X323140D01*
X323121Y178089D01*
X323075Y178108D01*
X323028Y178127D01*
X322964Y178145D01*
X322890Y178164D01*
X322797Y178173D01*
X322705Y178182D01*
X322686D01*
X322649D01*
X322594Y178173D01*
X322520Y178164D01*
X322353Y178127D01*
X322261Y178099D01*
X322187Y178052D01*
X322178Y178043D01*
X322150Y178025D01*
X322113Y177997D01*
X322057Y177951D01*
X322002Y177895D01*
X321937Y177821D01*
X321872Y177747D01*
X321798Y177655D01*
X321789Y177664D01*
X321761Y177701D01*
X321715Y177757D01*
X321650Y177821D01*
X321576Y177895D01*
X321493Y177969D01*
X321391Y178043D01*
X321280Y178108D01*
X321262Y178117D01*
X321225Y178136D01*
X321160Y178154D01*
X321077Y178182D01*
X320984Y178219D01*
X320864Y178237D01*
X320744Y178256D01*
X320605Y178265D01*
X320586D01*
X320550D01*
X320485Y178256D01*
X320411Y178247D01*
X320318Y178237D01*
X320216Y178210D01*
X320106Y178182D01*
X320004Y178145D01*
X319994Y178136D01*
X319957Y178117D01*
X319902Y178089D01*
X319837Y178052D01*
X319754Y177997D01*
X319680Y177932D01*
X319597Y177858D01*
X319514Y177775D01*
X319504Y177766D01*
X319477Y177729D01*
X319440Y177682D01*
X319393Y177609D01*
X319338Y177525D01*
X319282Y177424D01*
X319227Y177313D01*
X319180Y177192D01*
X319171Y177174D01*
X319162Y177128D01*
X319144Y177063D01*
X319116Y176961D01*
X319097Y176850D01*
X319079Y176711D01*
X319070Y176573D01*
X319060Y176415D01*
Y176341D01*
X319070Y176258D01*
X319079Y176156D01*
X319097Y176036D01*
X319116Y175907D01*
X319153Y175768D01*
X319199Y175638D01*
X319208Y175620D01*
X319217Y175583D01*
X319254Y175518D01*
X319291Y175435D01*
X319338Y175342D01*
X319393Y175241D01*
X319458Y175139D01*
X319532Y175046D01*
X319523Y175037D01*
X319495Y175019D01*
X319458Y174981D01*
X319412Y174935D01*
X319366Y174880D01*
X319310Y174815D01*
X319264Y174741D01*
X319217Y174658D01*
X319208Y174648D01*
X319199Y174611D01*
X319180Y174556D01*
X319162Y174482D01*
X319144Y174390D01*
X319125Y174278D01*
X319107Y174158D01*
Y174010D01*
X319116D01*
X319125D01*
X319171Y174001D01*
X319245Y173992D01*
X319328Y173983D01*
X319347D01*
X319393Y173973D01*
X319717D01*
X319819Y173983D01*
X319828D01*
X319837D01*
X319865D01*
X319902D01*
X319994Y173992D01*
X320096Y174010D01*
Y174695D01*
X320115Y174686D01*
X320152Y174667D01*
X320216Y174639D01*
X320300Y174621D01*
X320309D01*
X320318Y174611D01*
X320346D01*
X320383Y174602D01*
X320476Y174593D01*
X320605Y174584D01*
X320623D01*
X320660D01*
X320725Y174593D01*
X320809Y174602D01*
X320901Y174611D01*
X321003Y174630D01*
X321114Y174667D01*
X321225Y174704D01*
X321234Y174713D01*
X321271Y174723D01*
X321326Y174750D01*
X321391Y174796D01*
X321465Y174843D01*
X321549Y174908D01*
X321622Y174981D01*
X321706Y175065D01*
X321715Y175074D01*
X321733Y175102D01*
X321771Y175157D01*
X321817Y175222D01*
X321863Y175305D01*
X321919Y175407D01*
X321974Y175518D01*
X322020Y175638D01*
X322029Y175657D01*
X322039Y175694D01*
X322057Y175768D01*
X322076Y175860D01*
X322104Y175980D01*
X322122Y176110D01*
X322131Y176258D01*
X322141Y176415D01*
Y176545D01*
X322131Y176628D01*
X322122Y176730D01*
X322113Y176841D01*
X322066Y177063D01*
Y177072D01*
X322085Y177081D01*
X322122Y177137D01*
X322187Y177192D01*
X322233Y177220D01*
X322270Y177239D01*
X322288Y177248D01*
X322335Y177257D01*
X322390Y177266D01*
X322464Y177276D01*
X322474D01*
X322483D01*
X322538Y177266D01*
X322612Y177239D01*
X322677Y177183D01*
Y177174D01*
X322686Y177164D01*
X322705Y177137D01*
X322723Y177100D01*
X322732Y177053D01*
X322751Y176989D01*
X322760Y176915D01*
X322769Y176822D01*
X322788Y175675D01*
Y175601D01*
X322797Y175546D01*
X322807Y175490D01*
Y175416D01*
X322834Y175250D01*
X322881Y175065D01*
X322936Y174871D01*
X323019Y174695D01*
X323075Y174621D01*
X323130Y174547D01*
X323149Y174528D01*
X323186Y174491D01*
X323260Y174426D01*
X323361Y174362D01*
X323500Y174297D01*
X323648Y174232D01*
X323833Y174195D01*
X324046Y174177D01*
X324064D01*
X324101D01*
X324176Y174186D01*
X324259Y174195D01*
X324360Y174223D01*
X324462Y174251D01*
X324573Y174297D01*
X324684Y174362D01*
X324693Y174371D01*
X324730Y174399D01*
X324786Y174436D01*
X324860Y174491D01*
X324934Y174565D01*
X325017Y174658D01*
X325100Y174759D01*
X325184Y174871D01*
X325193Y174889D01*
X325221Y174926D01*
X325258Y175000D01*
X325295Y175083D01*
X325350Y175194D01*
X325396Y175324D01*
X325443Y175472D01*
X325489Y175629D01*
Y175647D01*
X325507Y175703D01*
X325526Y175795D01*
X325545Y175907D01*
X325563Y176055D01*
X325582Y176212D01*
X325591Y176388D01*
X325600Y176573D01*
Y173973D01*
X325600D01*
Y178422D01*
D02*
G37*
G36*
X323602Y173566D02*
X319060D01*
Y173566D01*
X321280D01*
X321188Y173557D01*
X321068Y173548D01*
X320929Y173538D01*
X320781Y173511D01*
X320623Y173483D01*
X320466Y173437D01*
X320457D01*
X320448Y173427D01*
X320392Y173409D01*
X320318Y173381D01*
X320216Y173335D01*
X320096Y173280D01*
X319976Y173205D01*
X319856Y173132D01*
X319736Y173039D01*
X319717Y173030D01*
X319680Y172993D01*
X319624Y172937D01*
X319560Y172854D01*
X319477Y172761D01*
X319393Y172651D01*
X319319Y172521D01*
X319245Y172382D01*
Y172373D01*
X319236Y172364D01*
X319217Y172308D01*
X319190Y172225D01*
X319153Y172114D01*
X319116Y171985D01*
X319088Y171827D01*
X319070Y171651D01*
X319060Y171467D01*
Y171392D01*
X319070Y171300D01*
X319079Y171189D01*
X319097Y171069D01*
X319125Y170930D01*
X319162Y170791D01*
X319217Y170652D01*
X319227Y170634D01*
X319245Y170597D01*
X319282Y170532D01*
X319328Y170449D01*
X319393Y170347D01*
X319467Y170255D01*
X319550Y170153D01*
X319652Y170051D01*
X319661Y170042D01*
X319699Y170014D01*
X319763Y169968D01*
X319837Y169913D01*
X319939Y169848D01*
X320050Y169792D01*
X320180Y169728D01*
X320318Y169681D01*
X320337Y169672D01*
X320383Y169663D01*
X320457Y169644D01*
X320559Y169616D01*
X320688Y169589D01*
X320827Y169570D01*
X320975Y169561D01*
X321141Y169552D01*
X321243D01*
X321336Y169561D01*
X321456Y169570D01*
X321465D01*
X321484D01*
X321512D01*
X321549Y169580D01*
X321632D01*
X321706Y169589D01*
Y172391D01*
X321715D01*
X321724D01*
X321752Y172382D01*
X321789D01*
X321872Y172364D01*
X321983Y172336D01*
X322104Y172290D01*
X322224Y172225D01*
X322335Y172142D01*
X322436Y172040D01*
X322446Y172021D01*
X322474Y171985D01*
X322511Y171911D01*
X322548Y171809D01*
X322585Y171688D01*
X322621Y171540D01*
X322649Y171374D01*
X322658Y171189D01*
Y171078D01*
X322649Y171004D01*
Y170921D01*
X322640Y170819D01*
X322612Y170606D01*
Y170597D01*
X322603Y170560D01*
X322585Y170495D01*
X322575Y170421D01*
X322548Y170338D01*
X322520Y170246D01*
X322455Y170042D01*
X322464D01*
X322483Y170024D01*
X322520Y170005D01*
X322566Y169986D01*
X322631Y169959D01*
X322695Y169940D01*
X322862Y169885D01*
X322871D01*
X322899Y169876D01*
X322945Y169857D01*
X323010Y169848D01*
X323084Y169829D01*
X323167Y169820D01*
X323361Y169801D01*
Y169811D01*
X323371Y169829D01*
X323380Y169866D01*
X323398Y169913D01*
X323417Y169977D01*
X323435Y170051D01*
X323463Y170134D01*
X323482Y170236D01*
X323500Y170338D01*
X323528Y170449D01*
X323565Y170699D01*
X323593Y170985D01*
X323602Y171282D01*
Y169552D01*
X323602D01*
Y173566D01*
D02*
G37*
G36*
X323556Y168673D02*
X317405D01*
Y168673D01*
X323510D01*
X317451Y168442D01*
Y168423D01*
X317442Y168386D01*
X317432Y168312D01*
X317423Y168229D01*
Y168127D01*
X317414Y168016D01*
X317405Y167785D01*
Y167665D01*
X317414Y167581D01*
Y167480D01*
X317423Y167378D01*
X317451Y167138D01*
X320929Y165750D01*
X317451Y164316D01*
Y164307D01*
X317442Y164270D01*
X317432Y164215D01*
X317423Y164150D01*
Y164057D01*
X317414Y163965D01*
X317405Y163854D01*
Y163622D01*
X317414Y163539D01*
Y163447D01*
X317423Y163345D01*
X317451Y163123D01*
X323509Y162836D01*
X323510D01*
Y162846D01*
X323519Y162892D01*
X323528Y162947D01*
Y163031D01*
X323537Y163123D01*
X323547Y163225D01*
X323556Y163437D01*
Y162836D01*
X323556D01*
Y168673D01*
D02*
G37*
G36*
X323602Y161967D02*
X319060D01*
Y161967D01*
X321262D01*
X321169Y161958D01*
X321049Y161948D01*
X320910Y161939D01*
X320762Y161911D01*
X320605Y161883D01*
X320448Y161837D01*
X320439D01*
X320429Y161828D01*
X320374Y161810D01*
X320300Y161782D01*
X320198Y161735D01*
X320078Y161689D01*
X319957Y161615D01*
X319837Y161541D01*
X319717Y161449D01*
X319708Y161440D01*
X319671Y161402D01*
X319615Y161347D01*
X319541Y161273D01*
X319467Y161180D01*
X319384Y161070D01*
X319310Y160940D01*
X319236Y160801D01*
X319227Y160783D01*
X319208Y160727D01*
X319180Y160653D01*
X319144Y160542D01*
X319116Y160404D01*
X319088Y160246D01*
X319070Y160071D01*
X319060Y159876D01*
Y159784D01*
X319070Y159691D01*
X319079Y159562D01*
X319107Y159423D01*
X319134Y159266D01*
X319180Y159108D01*
X319236Y158951D01*
Y158942D01*
X319245Y158933D01*
X319264Y158887D01*
X319310Y158812D01*
X319366Y158720D01*
X319430Y158618D01*
X319514Y158507D01*
X319606Y158396D01*
X319717Y158294D01*
X319726Y158285D01*
X319773Y158248D01*
X319837Y158202D01*
X319920Y158147D01*
X320031Y158082D01*
X320152Y158017D01*
X320290Y157961D01*
X320448Y157906D01*
X320466Y157897D01*
X320522Y157887D01*
X320605Y157869D01*
X320716Y157841D01*
X320846Y157814D01*
X321003Y157795D01*
X321169Y157786D01*
X321345Y157776D01*
X321428D01*
X321521Y157786D01*
X321641Y157795D01*
X321780Y157804D01*
X321928Y157832D01*
X322085Y157860D01*
X322242Y157906D01*
X322261Y157915D01*
X322316Y157934D01*
X322390Y157961D01*
X322492Y157999D01*
X322603Y158054D01*
X322723Y158128D01*
X322844Y158202D01*
X322964Y158294D01*
X322973Y158304D01*
X323010Y158341D01*
X323065Y158396D01*
X323140Y158470D01*
X323214Y158572D01*
X323288Y158683D01*
X323371Y158812D01*
X323435Y158951D01*
X323445Y158970D01*
X323463Y159025D01*
X323491Y159108D01*
X323519Y159220D01*
X323547Y159349D01*
X323574Y159506D01*
X323593Y159682D01*
X323602Y159876D01*
Y157776D01*
X323602D01*
Y161967D01*
D02*
G37*
G36*
Y156916D02*
X319107D01*
Y156916D01*
X319162D01*
Y156898D01*
X319153Y156861D01*
X319144Y156805D01*
X319134Y156722D01*
X319125Y156639D01*
X319116Y156537D01*
X319107Y156315D01*
Y156204D01*
X319116Y156130D01*
Y156037D01*
X319125Y155936D01*
X319162Y155723D01*
X321465D01*
X321484D01*
X321521D01*
X321585D01*
X321669Y155714D01*
X321752D01*
X321854Y155695D01*
X321946Y155686D01*
X322039Y155667D01*
X322048D01*
X322076Y155658D01*
X322113Y155640D01*
X322168Y155621D01*
X322279Y155575D01*
X322390Y155501D01*
X322399Y155492D01*
X322409Y155482D01*
X322436Y155455D01*
X322464Y155418D01*
X322520Y155325D01*
X322575Y155214D01*
Y155205D01*
X322585Y155186D01*
X322594Y155149D01*
X322603Y155103D01*
X322612Y155048D01*
X322621Y154974D01*
X322631Y154816D01*
Y154706D01*
X322621Y154631D01*
X322612Y154548D01*
X322603Y154465D01*
X322585Y154382D01*
X322566Y154298D01*
X319162D01*
Y154280D01*
X319153Y154243D01*
X319144Y154188D01*
X319134Y154113D01*
X319125Y154021D01*
X319116Y153919D01*
X319107Y153707D01*
Y153595D01*
X319116Y153522D01*
Y153429D01*
X319125Y153327D01*
X319162Y153105D01*
X323343D01*
Y153114D01*
X323361Y153152D01*
X323380Y153216D01*
X323398Y153290D01*
X323426Y153401D01*
X323454Y153522D01*
X323491Y153660D01*
X323519Y153817D01*
Y153836D01*
X323528Y153892D01*
X323547Y153984D01*
X323556Y154095D01*
X323574Y154234D01*
X323593Y154391D01*
X323602Y154567D01*
Y153105D01*
X323602D01*
Y156916D01*
D02*
G37*
G36*
X323556Y152023D02*
X319060D01*
Y152023D01*
X319162D01*
Y152014D01*
X319153Y152005D01*
X319144Y151949D01*
X319134Y151875D01*
X319125Y151783D01*
Y151764D01*
X319116Y151708D01*
X319107Y151625D01*
Y151440D01*
X319116Y151357D01*
X319125Y151274D01*
Y151255D01*
X319134Y151200D01*
X319144Y151126D01*
X319162Y151042D01*
X319171Y151033D01*
X319190Y151024D01*
X319227Y151015D01*
X319282Y150996D01*
X319291D01*
X319328Y150987D01*
X319384Y150969D01*
X319449Y150959D01*
X319467D01*
X319504Y150950D01*
X319560Y150941D01*
X319624Y150932D01*
X319634D01*
X319671Y150922D01*
X319717Y150913D01*
X319763Y150904D01*
X319754D01*
X319745Y150885D01*
X319680Y150848D01*
X319606Y150784D01*
X319514Y150709D01*
X319504Y150700D01*
X319495Y150691D01*
X319467Y150663D01*
X319440Y150626D01*
X319366Y150543D01*
X319282Y150432D01*
X319273Y150423D01*
X319264Y150404D01*
X319245Y150367D01*
X319227Y150330D01*
X319171Y150219D01*
X319125Y150081D01*
Y150071D01*
X319116Y150043D01*
X319107Y150006D01*
X319088Y149951D01*
X319079Y149896D01*
X319070Y149821D01*
X319060Y149655D01*
Y149581D01*
X319070Y149535D01*
Y149470D01*
X319079Y149396D01*
X319107Y149239D01*
X319162Y149054D01*
X319236Y148869D01*
X319328Y148693D01*
X319393Y148610D01*
X319467Y148536D01*
X319486Y148517D01*
X319514Y148499D01*
X319541Y148480D01*
X319587Y148443D01*
X319643Y148416D01*
X319699Y148379D01*
X319773Y148342D01*
X319856Y148314D01*
X319948Y148277D01*
X320059Y148240D01*
X320170Y148212D01*
X320290Y148194D01*
X320429Y148175D01*
X320577Y148156D01*
X323510D01*
Y148166D01*
X323519Y148212D01*
X323528Y148267D01*
Y148342D01*
X323537Y148434D01*
X323547Y148536D01*
X323556Y148758D01*
Y148156D01*
X323556D01*
Y152023D01*
D02*
G37*
G36*
Y147546D02*
X317885D01*
Y147546D01*
X319902D01*
X317885Y145964D01*
Y145770D01*
X319162D01*
Y144753D01*
X319171D01*
X319180Y144743D01*
X319236Y144734D01*
X319310Y144725D01*
X319384D01*
X319403D01*
X319449Y144715D01*
X319514D01*
X319597D01*
X319606D01*
X319615D01*
X319671D01*
X319745D01*
X319828Y144725D01*
X319847D01*
X319893D01*
X319976Y144734D01*
X320069Y144753D01*
Y145770D01*
X321780D01*
X321789D01*
X321826D01*
X321872D01*
X321928Y145761D01*
X322066Y145752D01*
X322205Y145733D01*
X322215D01*
X322233Y145724D01*
X322261Y145714D01*
X322298Y145696D01*
X322381Y145659D01*
X322455Y145613D01*
X322474Y145594D01*
X322501Y145557D01*
X322548Y145492D01*
X322585Y145419D01*
Y145400D01*
X322594Y145372D01*
Y145335D01*
X322603Y145243D01*
X322612Y145132D01*
Y145058D01*
X322603Y144984D01*
X322594Y144891D01*
Y144882D01*
X322585Y144873D01*
X322575Y144817D01*
X322566Y144743D01*
X322557Y144669D01*
X322566D01*
X322585Y144660D01*
X322612Y144651D01*
X322658Y144641D01*
X322760Y144614D01*
X322890Y144586D01*
X322899D01*
X322918Y144577D01*
X322945D01*
X322991Y144568D01*
X323084Y144558D01*
X323297D01*
X323352Y144568D01*
X323361D01*
X323389D01*
X323426D01*
X323472Y144577D01*
Y144595D01*
X323482Y144641D01*
X323500Y144725D01*
X323510Y144826D01*
X323528Y144947D01*
X323547Y145076D01*
X323556Y145224D01*
Y144558D01*
X323556D01*
Y147546D01*
D02*
G37*
G36*
X323510Y142107D02*
X317451D01*
Y142107D01*
X323389D01*
X321512Y140784D01*
X321493Y140775D01*
X321456Y140738D01*
X321382Y140692D01*
X321299Y140636D01*
X321197Y140562D01*
X321086Y140488D01*
X320864Y140331D01*
X320855Y140322D01*
X320818Y140294D01*
X320753Y140257D01*
X320679Y140201D01*
X320596Y140146D01*
X320503Y140091D01*
X320300Y139970D01*
X320290Y139961D01*
X320253Y139943D01*
X320198Y139915D01*
X320133Y139878D01*
X320059Y139841D01*
X319976Y139804D01*
X319800Y139730D01*
X319791D01*
X319763Y139711D01*
X319708Y139702D01*
X319652Y139683D01*
X319578Y139665D01*
X319504Y139656D01*
X319338Y139637D01*
X319319D01*
X319273D01*
X319208Y139646D01*
X319116Y139674D01*
X319023Y139702D01*
X318921Y139748D01*
X318829Y139813D01*
X318746Y139906D01*
X318737Y139915D01*
X318709Y139952D01*
X318681Y140016D01*
X318635Y140100D01*
X318598Y140201D01*
X318570Y140331D01*
X318542Y140479D01*
X318533Y140655D01*
Y140775D01*
X318542Y140858D01*
X318551Y140951D01*
X318570Y141052D01*
X318616Y141256D01*
Y141265D01*
X318625Y141302D01*
X318644Y141349D01*
X318672Y141413D01*
X318700Y141478D01*
X318727Y141561D01*
X318811Y141718D01*
X318801D01*
X318764Y141737D01*
X318718Y141755D01*
X318663Y141783D01*
X318588Y141811D01*
X318505Y141839D01*
X318320Y141903D01*
X318311D01*
X318274Y141913D01*
X318228Y141931D01*
X318163Y141950D01*
X318080Y141968D01*
X317997Y141978D01*
X317811Y142005D01*
Y141996D01*
X317793Y141968D01*
X317784Y141931D01*
X317765Y141885D01*
X317710Y141765D01*
X317664Y141635D01*
Y141626D01*
X317654Y141607D01*
X317636Y141570D01*
X317627Y141515D01*
X317589Y141404D01*
X317552Y141265D01*
Y141256D01*
X317543Y141237D01*
X317534Y141200D01*
X317525Y141145D01*
X317497Y141025D01*
X317478Y140886D01*
Y140877D01*
X317469Y140849D01*
Y140812D01*
X317460Y140756D01*
Y140682D01*
X317451Y140609D01*
Y140359D01*
X317460Y140276D01*
X317469Y140174D01*
X317478Y140053D01*
X317497Y139915D01*
X317534Y139776D01*
X317571Y139637D01*
X317580Y139619D01*
X317589Y139573D01*
X317617Y139498D01*
X317654Y139415D01*
X317710Y139313D01*
X317765Y139202D01*
X317830Y139092D01*
X317913Y138980D01*
X317922Y138971D01*
X317950Y138934D01*
X317997Y138879D01*
X318061Y138814D01*
X318144Y138749D01*
X318237Y138675D01*
X318348Y138601D01*
X318468Y138537D01*
X318487Y138527D01*
X318524Y138509D01*
X318588Y138481D01*
X318681Y138453D01*
X318792Y138426D01*
X318921Y138398D01*
X319060Y138379D01*
X319217Y138370D01*
X319236D01*
X319273D01*
X319338D01*
X319412Y138379D01*
X319504Y138389D01*
X319615Y138398D01*
X319828Y138444D01*
X319837D01*
X319874Y138453D01*
X319930Y138472D01*
X320004Y138490D01*
X320096Y138527D01*
X320189Y138564D01*
X320402Y138657D01*
X320411Y138666D01*
X320448Y138684D01*
X320513Y138712D01*
X320586Y138749D01*
X320670Y138805D01*
X320772Y138860D01*
X321003Y138999D01*
X321012Y139008D01*
X321058Y139036D01*
X321114Y139073D01*
X321197Y139128D01*
X321299Y139193D01*
X321410Y139277D01*
X321530Y139360D01*
X321659Y139462D01*
X322474Y140044D01*
Y138231D01*
X322483D01*
X322520Y138222D01*
X322566Y138213D01*
X322631Y138204D01*
X322705Y138194D01*
X322797Y138185D01*
X322982Y138176D01*
X323084D01*
X323149Y138185D01*
X323232D01*
X323324Y138194D01*
X323510Y138231D01*
Y138176D01*
X323510D01*
Y142107D01*
D02*
G37*
G36*
X323602Y137195D02*
X317451D01*
Y137195D01*
X320355D01*
X320290Y137186D01*
X320124Y137177D01*
X319930Y137168D01*
X319726Y137140D01*
X319504Y137112D01*
X319291Y137075D01*
X319282D01*
X319264Y137066D01*
X319236D01*
X319199Y137047D01*
X319088Y137020D01*
X318958Y136983D01*
X318811Y136927D01*
X318644Y136862D01*
X318478Y136788D01*
X318320Y136696D01*
X318311D01*
X318302Y136687D01*
X318255Y136650D01*
X318181Y136585D01*
X318089Y136511D01*
X317987Y136409D01*
X317876Y136298D01*
X317775Y136159D01*
X317682Y136011D01*
Y136002D01*
X317673Y135993D01*
X317645Y135937D01*
X317608Y135845D01*
X317562Y135724D01*
X317525Y135576D01*
X317488Y135410D01*
X317460Y135206D01*
X317451Y134994D01*
Y134892D01*
X317460Y134846D01*
Y134781D01*
X317478Y134642D01*
X317506Y134485D01*
X317552Y134318D01*
X317608Y134152D01*
X317682Y133985D01*
Y133976D01*
X317691Y133967D01*
X317728Y133912D01*
X317775Y133837D01*
X317848Y133736D01*
X317941Y133634D01*
X318052Y133514D01*
X318172Y133403D01*
X318320Y133301D01*
X318339Y133292D01*
X318394Y133255D01*
X318478Y133209D01*
X318598Y133153D01*
X318737Y133098D01*
X318903Y133033D01*
X319088Y132968D01*
X319291Y132922D01*
X319301D01*
X319319Y132913D01*
X319347D01*
X319393Y132903D01*
X319440Y132894D01*
X319504Y132885D01*
X319661Y132857D01*
X319837Y132829D01*
X320050Y132811D01*
X320281Y132801D01*
X320531Y132792D01*
X320707D01*
X320772Y132801D01*
X320938Y132811D01*
X321132Y132820D01*
X321345Y132848D01*
X321558Y132876D01*
X321780Y132922D01*
X321789D01*
X321808Y132931D01*
X321835D01*
X321872Y132940D01*
X321983Y132977D01*
X322113Y133014D01*
X322261Y133070D01*
X322427Y133134D01*
X322594Y133209D01*
X322751Y133301D01*
X322769Y133310D01*
X322816Y133347D01*
X322890Y133403D01*
X322982Y133486D01*
X323084Y133579D01*
X323186Y133699D01*
X323288Y133837D01*
X323380Y133985D01*
X323389Y134004D01*
X323417Y134060D01*
X323454Y134152D01*
X323491Y134263D01*
X323528Y134411D01*
X323565Y134587D01*
X323593Y134781D01*
X323602Y134994D01*
Y132792D01*
X323602D01*
Y137195D01*
D02*
G37*
G36*
X323510Y131988D02*
X317451D01*
Y131988D01*
X323389D01*
X321512Y130665D01*
X321493Y130656D01*
X321456Y130619D01*
X321382Y130572D01*
X321299Y130517D01*
X321197Y130443D01*
X321086Y130369D01*
X320864Y130211D01*
X320855Y130202D01*
X320818Y130175D01*
X320753Y130138D01*
X320679Y130082D01*
X320596Y130026D01*
X320503Y129971D01*
X320300Y129851D01*
X320290Y129841D01*
X320253Y129823D01*
X320198Y129795D01*
X320133Y129758D01*
X320059Y129721D01*
X319976Y129684D01*
X319800Y129610D01*
X319791D01*
X319763Y129592D01*
X319708Y129583D01*
X319652Y129564D01*
X319578Y129545D01*
X319504Y129536D01*
X319338Y129518D01*
X319319D01*
X319273D01*
X319208Y129527D01*
X319116Y129555D01*
X319023Y129583D01*
X318921Y129629D01*
X318829Y129693D01*
X318746Y129786D01*
X318737Y129795D01*
X318709Y129832D01*
X318681Y129897D01*
X318635Y129980D01*
X318598Y130082D01*
X318570Y130211D01*
X318542Y130359D01*
X318533Y130535D01*
Y130656D01*
X318542Y130739D01*
X318551Y130831D01*
X318570Y130933D01*
X318616Y131137D01*
Y131146D01*
X318625Y131183D01*
X318644Y131229D01*
X318672Y131294D01*
X318700Y131359D01*
X318727Y131442D01*
X318811Y131599D01*
X318801D01*
X318764Y131617D01*
X318718Y131636D01*
X318663Y131664D01*
X318588Y131692D01*
X318505Y131719D01*
X318320Y131784D01*
X318311D01*
X318274Y131793D01*
X318228Y131812D01*
X318163Y131830D01*
X318080Y131849D01*
X317997Y131858D01*
X317811Y131886D01*
Y131877D01*
X317793Y131849D01*
X317784Y131812D01*
X317765Y131765D01*
X317710Y131645D01*
X317664Y131516D01*
Y131507D01*
X317654Y131488D01*
X317636Y131451D01*
X317627Y131395D01*
X317589Y131284D01*
X317552Y131146D01*
Y131137D01*
X317543Y131118D01*
X317534Y131081D01*
X317525Y131026D01*
X317497Y130905D01*
X317478Y130766D01*
Y130757D01*
X317469Y130729D01*
Y130693D01*
X317460Y130637D01*
Y130563D01*
X317451Y130489D01*
Y130239D01*
X317460Y130156D01*
X317469Y130054D01*
X317478Y129934D01*
X317497Y129795D01*
X317534Y129657D01*
X317571Y129518D01*
X317580Y129499D01*
X317589Y129453D01*
X317617Y129379D01*
X317654Y129296D01*
X317710Y129194D01*
X317765Y129083D01*
X317830Y128972D01*
X317913Y128861D01*
X317922Y128852D01*
X317950Y128815D01*
X317997Y128759D01*
X318061Y128694D01*
X318144Y128630D01*
X318237Y128556D01*
X318348Y128482D01*
X318468Y128417D01*
X318487Y128408D01*
X318524Y128389D01*
X318588Y128361D01*
X318681Y128334D01*
X318792Y128306D01*
X318921Y128278D01*
X319060Y128260D01*
X319217Y128251D01*
X319236D01*
X319273D01*
X319338D01*
X319412Y128260D01*
X319504Y128269D01*
X319615Y128278D01*
X319828Y128324D01*
X319837D01*
X319874Y128334D01*
X319930Y128352D01*
X320004Y128371D01*
X320096Y128408D01*
X320189Y128445D01*
X320402Y128537D01*
X320411Y128547D01*
X320448Y128565D01*
X320513Y128593D01*
X320586Y128630D01*
X320670Y128685D01*
X320772Y128741D01*
X321003Y128879D01*
X321012Y128889D01*
X321058Y128917D01*
X321114Y128954D01*
X321197Y129009D01*
X321299Y129074D01*
X321410Y129157D01*
X321530Y129240D01*
X321659Y129342D01*
X322474Y129925D01*
Y128112D01*
X322483D01*
X322520Y128103D01*
X322566Y128093D01*
X322631Y128084D01*
X322705Y128075D01*
X322797Y128066D01*
X322982Y128056D01*
X323084D01*
X323149Y128066D01*
X323232D01*
X323324Y128075D01*
X323510Y128112D01*
Y128056D01*
X323510D01*
Y131988D01*
D02*
G37*
G36*
X323602Y126928D02*
X317552D01*
Y126928D01*
X323306D01*
X323260Y126918D01*
X323195Y126909D01*
X323112Y126891D01*
X323028Y126872D01*
X322844Y126826D01*
X322834D01*
X322797Y126807D01*
X322751Y126798D01*
X322686Y126770D01*
X322603Y126743D01*
X322520Y126715D01*
X322344Y126641D01*
Y126632D01*
X322362Y126595D01*
X322381Y126530D01*
X322399Y126456D01*
X322427Y126373D01*
X322455Y126280D01*
X322511Y126086D01*
Y126077D01*
X322520Y126040D01*
X322529Y125984D01*
X322538Y125910D01*
X322548Y125827D01*
X322557Y125734D01*
X322566Y125522D01*
Y125457D01*
X322557Y125392D01*
Y125300D01*
X322548Y125198D01*
X322529Y125096D01*
X322511Y124995D01*
X322483Y124893D01*
Y124883D01*
X322464Y124846D01*
X322446Y124810D01*
X322418Y124745D01*
X322344Y124615D01*
X322252Y124486D01*
X322242Y124477D01*
X322224Y124458D01*
X322196Y124430D01*
X322159Y124393D01*
X322057Y124319D01*
X322002Y124282D01*
X321937Y124255D01*
X321928D01*
X321909Y124245D01*
X321872Y124227D01*
X321817Y124217D01*
X321696Y124190D01*
X321558Y124180D01*
X321549D01*
X321539D01*
X321484D01*
X321410Y124199D01*
X321317Y124217D01*
X321206Y124255D01*
X321105Y124301D01*
X320993Y124375D01*
X320901Y124467D01*
X320892Y124477D01*
X320864Y124523D01*
X320827Y124588D01*
X320781Y124680D01*
X320735Y124810D01*
X320697Y124967D01*
X320670Y125152D01*
X320660Y125364D01*
Y125457D01*
X320670Y125513D01*
Y125586D01*
X320679Y125670D01*
X320707Y125846D01*
Y125855D01*
X320716Y125882D01*
X320725Y125929D01*
X320744Y125994D01*
X320762Y126058D01*
X320790Y126142D01*
X320864Y126308D01*
X320772Y126437D01*
X317552Y126308D01*
Y123293D01*
X317562D01*
X317599Y123283D01*
X317645Y123274D01*
X317710Y123265D01*
X317784Y123256D01*
X317867Y123246D01*
X318052Y123237D01*
X318061D01*
X318098D01*
X318154D01*
X318218Y123246D01*
X318302D01*
X318385Y123256D01*
X318579Y123293D01*
Y125226D01*
X319782Y125281D01*
Y125272D01*
X319773Y125253D01*
Y125226D01*
X319763Y125189D01*
X319745Y125106D01*
X319736Y125013D01*
Y124995D01*
X319726Y124939D01*
Y124698D01*
X319736Y124615D01*
Y124513D01*
X319754Y124402D01*
X319773Y124282D01*
X319800Y124153D01*
X319837Y124023D01*
X319847Y124005D01*
X319856Y123968D01*
X319883Y123903D01*
X319920Y123820D01*
X319967Y123727D01*
X320022Y123635D01*
X320096Y123533D01*
X320170Y123441D01*
X320180Y123431D01*
X320207Y123404D01*
X320253Y123357D01*
X320318Y123302D01*
X320402Y123246D01*
X320494Y123181D01*
X320605Y123126D01*
X320725Y123071D01*
X320744Y123061D01*
X320781Y123052D01*
X320855Y123024D01*
X320938Y122996D01*
X321049Y122978D01*
X321179Y122950D01*
X321326Y122941D01*
X321484Y122932D01*
X321567D01*
X321669Y122941D01*
X321789Y122950D01*
X321937Y122978D01*
X322085Y123006D01*
X322242Y123052D01*
X322399Y123117D01*
X322418Y123126D01*
X322464Y123144D01*
X322538Y123191D01*
X322631Y123246D01*
X322732Y123320D01*
X322844Y123404D01*
X322964Y123505D01*
X323065Y123626D01*
X323075Y123644D01*
X323112Y123681D01*
X323158Y123755D01*
X323214Y123847D01*
X323278Y123968D01*
X323352Y124107D01*
X323417Y124264D01*
X323472Y124440D01*
Y124449D01*
X323482Y124458D01*
Y124486D01*
X323491Y124523D01*
X323510Y124615D01*
X323537Y124745D01*
X323565Y124902D01*
X323584Y125087D01*
X323593Y125291D01*
X323602Y125503D01*
Y122932D01*
X323602D01*
Y126928D01*
D02*
G37*
%LPD*%
G36*
X323556Y192991D02*
X323547Y193065D01*
Y193167D01*
X323537Y193269D01*
X323510Y193500D01*
X323556D01*
Y192991D01*
D02*
G37*
G36*
Y189717D02*
X323547Y189800D01*
Y189892D01*
X323537Y190004D01*
X323510Y190226D01*
X320892D01*
Y192261D01*
X323510D01*
Y192270D01*
X323519Y192316D01*
X323528Y192371D01*
Y192455D01*
X323537Y192547D01*
X323547Y192649D01*
X323556Y192871D01*
Y189717D01*
D02*
G37*
G36*
X323602Y185850D02*
X323593Y185906D01*
Y185961D01*
X323584Y186109D01*
X323565Y186276D01*
X323537Y186442D01*
X323500Y186627D01*
X323445Y186794D01*
Y186803D01*
X323435Y186812D01*
X323417Y186868D01*
X323380Y186942D01*
X323324Y187043D01*
X323260Y187154D01*
X323177Y187275D01*
X323084Y187395D01*
X322982Y187506D01*
X322964Y187515D01*
X322927Y187552D01*
X322862Y187599D01*
X322779Y187654D01*
X322677Y187719D01*
X322557Y187784D01*
X322418Y187848D01*
X322270Y187904D01*
X322261D01*
X322252Y187913D01*
X322196Y187922D01*
X322113Y187941D01*
X322002Y187969D01*
X321863Y187996D01*
X321715Y188015D01*
X321539Y188024D01*
X321363Y188033D01*
X323602D01*
Y185850D01*
D02*
G37*
G36*
X320864Y185147D02*
X320855D01*
X320846D01*
X320799Y185157D01*
X320725Y185166D01*
X320633Y185184D01*
X320531Y185212D01*
X320420Y185249D01*
X320318Y185304D01*
X320216Y185369D01*
X320207Y185379D01*
X320180Y185406D01*
X320133Y185452D01*
X320087Y185517D01*
X320050Y185600D01*
X320004Y185693D01*
X319976Y185813D01*
X319967Y185943D01*
Y186017D01*
X319976Y186091D01*
X319994Y186183D01*
X320022Y186285D01*
X320069Y186396D01*
X320124Y186498D01*
X320207Y186590D01*
X320216Y186600D01*
X320253Y186627D01*
X320300Y186664D01*
X320374Y186701D01*
X320466Y186748D01*
X320577Y186785D01*
X320716Y186821D01*
X320864Y186849D01*
Y185147D01*
D02*
G37*
G36*
X323602Y181142D02*
X323593Y181235D01*
X323584Y181345D01*
X323574Y181475D01*
X323556Y181614D01*
X323528Y181771D01*
X323491Y181928D01*
X323482Y181947D01*
X323463Y181993D01*
X323435Y182076D01*
X323398Y182169D01*
X323343Y182280D01*
X323278Y182400D01*
X323204Y182529D01*
X323112Y182650D01*
X323102Y182659D01*
X323065Y182696D01*
X323001Y182752D01*
X322927Y182826D01*
X322825Y182899D01*
X322714Y182983D01*
X322575Y183066D01*
X322427Y183140D01*
X322418D01*
X322409Y183149D01*
X322381Y183159D01*
X322353Y183168D01*
X322261Y183195D01*
X322141Y183223D01*
X321983Y183260D01*
X321808Y183288D01*
X321613Y183307D01*
X321391Y183316D01*
X323602D01*
Y181142D01*
D02*
G37*
G36*
X321512Y182076D02*
X321595D01*
X321687Y182067D01*
X321780Y182048D01*
X321882Y182030D01*
X321974Y182002D01*
X321983D01*
X322011Y181984D01*
X322057Y181965D01*
X322113Y181938D01*
X322242Y181873D01*
X322362Y181771D01*
X322372Y181762D01*
X322381Y181743D01*
X322409Y181716D01*
X322436Y181669D01*
X322474Y181623D01*
X322511Y181558D01*
X322566Y181420D01*
Y181410D01*
X322575Y181383D01*
X322585Y181345D01*
X322594Y181290D01*
X322612Y181225D01*
X322621Y181151D01*
X322631Y180985D01*
Y180809D01*
X322621Y180726D01*
Y180707D01*
X322603Y180642D01*
X322594Y180559D01*
X322566Y180457D01*
X320059D01*
Y180467D01*
X320050Y180485D01*
X320041Y180522D01*
X320031Y180559D01*
X320013Y180652D01*
X320004Y180735D01*
Y180754D01*
X319994Y180809D01*
Y181050D01*
X320004Y181105D01*
Y181170D01*
X320022Y181244D01*
X320041Y181327D01*
X320069Y181401D01*
X320106Y181484D01*
X320115Y181493D01*
X320124Y181521D01*
X320152Y181558D01*
X320189Y181605D01*
X320281Y181716D01*
X320411Y181826D01*
X320420Y181836D01*
X320448Y181845D01*
X320485Y181873D01*
X320531Y181901D01*
X320596Y181928D01*
X320679Y181965D01*
X320762Y181993D01*
X320855Y182021D01*
X320864D01*
X320901Y182030D01*
X320947Y182039D01*
X321021Y182048D01*
X321095Y182067D01*
X321188Y182076D01*
X321391Y182086D01*
X321410D01*
X321447D01*
X321512Y182076D01*
D02*
G37*
G36*
X325600Y176656D02*
X325591Y176748D01*
Y176868D01*
X325582Y177007D01*
X325563Y177146D01*
X325545Y177294D01*
X325517Y177433D01*
Y177451D01*
X325498Y177488D01*
X325489Y177553D01*
X325461Y177636D01*
X325433Y177729D01*
X325387Y177821D01*
X325350Y177914D01*
X325295Y178006D01*
X325286Y178015D01*
X325267Y178043D01*
X325239Y178080D01*
X325202Y178127D01*
X325147Y178182D01*
X325091Y178237D01*
X325017Y178284D01*
X324943Y178330D01*
X324934D01*
X324906Y178349D01*
X324869Y178358D01*
X324804Y178376D01*
X324740Y178395D01*
X324666Y178404D01*
X324481Y178422D01*
X325600D01*
Y176656D01*
D02*
G37*
G36*
X320725Y177081D02*
X320809Y177072D01*
X320892Y177053D01*
X320984Y177026D01*
X321077Y176989D01*
X321160Y176933D01*
X321169Y176924D01*
X321188Y176906D01*
X321225Y176859D01*
X321262Y176804D01*
X321299Y176730D01*
X321336Y176637D01*
X321354Y176535D01*
X321363Y176406D01*
Y176350D01*
X321354Y176286D01*
X321336Y176212D01*
X321317Y176128D01*
X321280Y176045D01*
X321225Y175962D01*
X321160Y175897D01*
X321151Y175888D01*
X321123Y175870D01*
X321077Y175851D01*
X321012Y175814D01*
X320938Y175786D01*
X320836Y175768D01*
X320725Y175749D01*
X320605Y175740D01*
X320586D01*
X320550D01*
X320485Y175749D01*
X320402Y175759D01*
X320318Y175777D01*
X320226Y175805D01*
X320133Y175842D01*
X320050Y175897D01*
X320041Y175907D01*
X320013Y175925D01*
X319985Y175962D01*
X319939Y176017D01*
X319902Y176092D01*
X319874Y176175D01*
X319847Y176286D01*
X319837Y176406D01*
Y176462D01*
X319847Y176526D01*
X319865Y176610D01*
X319893Y176693D01*
X319930Y176776D01*
X319976Y176859D01*
X320050Y176933D01*
X320059Y176943D01*
X320087Y176961D01*
X320133Y176979D01*
X320198Y177007D01*
X320272Y177044D01*
X320374Y177063D01*
X320476Y177081D01*
X320605Y177091D01*
X320623D01*
X320660D01*
X320725Y177081D01*
D02*
G37*
G36*
X324305Y177368D02*
X324370Y177349D01*
X324444Y177322D01*
X324518Y177276D01*
X324583Y177220D01*
X324629Y177146D01*
Y177137D01*
X324647Y177100D01*
X324666Y177044D01*
X324684Y176970D01*
X324703Y176878D01*
X324721Y176767D01*
X324730Y176646D01*
X324740Y176498D01*
Y176406D01*
X324730Y176313D01*
X324721Y176193D01*
X324703Y176055D01*
X324666Y175907D01*
X324629Y175768D01*
X324573Y175638D01*
X324564Y175620D01*
X324546Y175583D01*
X324509Y175537D01*
X324453Y175472D01*
X324388Y175416D01*
X324314Y175361D01*
X324222Y175324D01*
X324120Y175314D01*
X324101D01*
X324064D01*
X324018Y175324D01*
X323963Y175342D01*
X323954D01*
X323917Y175361D01*
X323870Y175389D01*
X323824Y175426D01*
X323815Y175435D01*
X323787Y175462D01*
X323750Y175518D01*
X323713Y175583D01*
X323704Y175601D01*
X323694Y175657D01*
X323685Y175740D01*
X323676Y175860D01*
X323657Y176748D01*
Y176859D01*
X323667Y176961D01*
X323694Y177063D01*
Y177072D01*
X323704Y177081D01*
X323731Y177128D01*
X323768Y177192D01*
X323824Y177257D01*
X323843Y177266D01*
X323880Y177294D01*
X323935Y177322D01*
X324000Y177349D01*
X324018D01*
X324064Y177359D01*
X324120Y177368D01*
X324194Y177377D01*
X324203D01*
X324250D01*
X324305Y177368D01*
D02*
G37*
G36*
X323602Y171383D02*
X323593Y171439D01*
Y171494D01*
X323584Y171642D01*
X323565Y171809D01*
X323537Y171975D01*
X323500Y172160D01*
X323445Y172327D01*
Y172336D01*
X323435Y172345D01*
X323417Y172401D01*
X323380Y172475D01*
X323324Y172576D01*
X323260Y172687D01*
X323177Y172808D01*
X323084Y172928D01*
X322982Y173039D01*
X322964Y173048D01*
X322927Y173085D01*
X322862Y173132D01*
X322779Y173187D01*
X322677Y173252D01*
X322557Y173317D01*
X322418Y173381D01*
X322270Y173437D01*
X322261D01*
X322252Y173446D01*
X322196Y173455D01*
X322113Y173474D01*
X322002Y173502D01*
X321863Y173529D01*
X321715Y173548D01*
X321539Y173557D01*
X321363Y173566D01*
X323602D01*
Y171383D01*
D02*
G37*
G36*
X320864Y170680D02*
X320855D01*
X320846D01*
X320799Y170689D01*
X320725Y170699D01*
X320633Y170717D01*
X320531Y170745D01*
X320420Y170782D01*
X320318Y170837D01*
X320216Y170902D01*
X320207Y170912D01*
X320180Y170939D01*
X320133Y170985D01*
X320087Y171050D01*
X320050Y171133D01*
X320004Y171226D01*
X319976Y171346D01*
X319967Y171476D01*
Y171550D01*
X319976Y171624D01*
X319994Y171716D01*
X320022Y171818D01*
X320069Y171929D01*
X320124Y172031D01*
X320207Y172123D01*
X320216Y172133D01*
X320253Y172160D01*
X320300Y172197D01*
X320374Y172234D01*
X320466Y172281D01*
X320577Y172318D01*
X320716Y172354D01*
X320864Y172382D01*
Y170680D01*
D02*
G37*
G36*
X323556Y168220D02*
X323547Y168284D01*
Y168368D01*
X323537Y168470D01*
X323510Y168673D01*
X323556D01*
Y168220D01*
D02*
G37*
G36*
Y163539D02*
X323547Y163613D01*
Y163697D01*
X323537Y163798D01*
X323510Y164002D01*
X319403Y164159D01*
X322252Y165389D01*
Y165408D01*
X322261Y165463D01*
X322270Y165537D01*
X322279Y165630D01*
Y165713D01*
X322288Y165787D01*
Y166120D01*
X322279Y166175D01*
X322270Y166250D01*
X322252Y166333D01*
X319347Y167480D01*
X323510Y167591D01*
Y167600D01*
X323519Y167637D01*
X323528Y167692D01*
Y167757D01*
X323537Y167841D01*
X323547Y167933D01*
X323556Y168118D01*
Y163539D01*
D02*
G37*
G36*
X323602Y159969D02*
X323593Y160071D01*
X323584Y160191D01*
X323565Y160339D01*
X323528Y160496D01*
X323491Y160653D01*
X323435Y160801D01*
X323426Y160820D01*
X323408Y160866D01*
X323371Y160940D01*
X323315Y161023D01*
X323251Y161134D01*
X323167Y161236D01*
X323075Y161347D01*
X322964Y161449D01*
X322945Y161458D01*
X322908Y161495D01*
X322844Y161541D01*
X322760Y161597D01*
X322649Y161662D01*
X322529Y161717D01*
X322390Y161782D01*
X322242Y161837D01*
X322233D01*
X322224Y161846D01*
X322168Y161856D01*
X322085Y161874D01*
X321974Y161902D01*
X321845Y161930D01*
X321687Y161948D01*
X321521Y161958D01*
X321345Y161967D01*
X323602D01*
Y159969D01*
D02*
G37*
G36*
X321512Y160746D02*
X321567D01*
X321715Y160727D01*
X321882Y160709D01*
X322048Y160672D01*
X322205Y160616D01*
X322353Y160552D01*
X322372Y160542D01*
X322409Y160514D01*
X322464Y160459D01*
X322529Y160385D01*
X322594Y160292D01*
X322649Y160172D01*
X322686Y160034D01*
X322705Y159876D01*
Y159858D01*
X322695Y159802D01*
X322686Y159719D01*
X322658Y159617D01*
X322621Y159506D01*
X322557Y159395D01*
X322474Y159284D01*
X322353Y159201D01*
X322335Y159192D01*
X322288Y159173D01*
X322205Y159136D01*
X322094Y159099D01*
X321955Y159062D01*
X321780Y159025D01*
X321576Y159007D01*
X321345Y158997D01*
X321336D01*
X321317D01*
X321280D01*
X321234D01*
X321179Y159007D01*
X321123D01*
X320975Y159025D01*
X320809Y159044D01*
X320642Y159081D01*
X320485Y159136D01*
X320346Y159201D01*
X320327Y159210D01*
X320290Y159238D01*
X320235Y159293D01*
X320170Y159358D01*
X320106Y159451D01*
X320050Y159571D01*
X320013Y159710D01*
X319994Y159876D01*
Y159895D01*
X320004Y159950D01*
X320013Y160034D01*
X320041Y160135D01*
X320078Y160246D01*
X320143Y160357D01*
X320226Y160459D01*
X320346Y160552D01*
X320364Y160561D01*
X320411Y160579D01*
X320485Y160616D01*
X320596Y160653D01*
X320744Y160690D01*
X320910Y160727D01*
X321114Y160746D01*
X321345Y160755D01*
X321354D01*
X321373D01*
X321410D01*
X321456D01*
X321512Y160746D01*
D02*
G37*
G36*
X323602Y154900D02*
X323593Y155001D01*
X323584Y155131D01*
X323574Y155270D01*
X323537Y155566D01*
Y155584D01*
X323528Y155631D01*
X323510Y155704D01*
X323482Y155806D01*
X323445Y155908D01*
X323398Y156028D01*
X323334Y156149D01*
X323260Y156269D01*
X323251Y156278D01*
X323223Y156315D01*
X323167Y156370D01*
X323093Y156435D01*
X323010Y156509D01*
X322899Y156593D01*
X322769Y156667D01*
X322621Y156740D01*
X322612D01*
X322603Y156750D01*
X322575Y156759D01*
X322548Y156768D01*
X322446Y156796D01*
X322325Y156824D01*
X322159Y156861D01*
X321974Y156888D01*
X321752Y156907D01*
X321502Y156916D01*
X323602D01*
Y154900D01*
D02*
G37*
G36*
X323556Y151533D02*
X323547Y151607D01*
Y151699D01*
X323537Y151801D01*
X323510Y152023D01*
X323556D01*
Y151533D01*
D02*
G37*
G36*
Y148869D02*
X323547Y148943D01*
Y149035D01*
X323537Y149137D01*
X323510Y149359D01*
X321049D01*
X321040D01*
X321030D01*
X320975D01*
X320892Y149368D01*
X320790Y149378D01*
X320679Y149396D01*
X320568Y149415D01*
X320457Y149451D01*
X320355Y149498D01*
X320346Y149507D01*
X320318Y149525D01*
X320272Y149563D01*
X320226Y149609D01*
X320189Y149673D01*
X320143Y149757D01*
X320115Y149858D01*
X320106Y149979D01*
Y150034D01*
X320115Y150071D01*
X320124Y150173D01*
X320152Y150284D01*
Y150293D01*
X320161Y150312D01*
X320170Y150339D01*
X320189Y150376D01*
X320244Y150460D01*
X320318Y150552D01*
X320327Y150561D01*
X320337Y150571D01*
X320364Y150599D01*
X320402Y150617D01*
X320457Y150654D01*
X320513Y150682D01*
X320577Y150719D01*
X320660Y150747D01*
X320670D01*
X320697Y150756D01*
X320744Y150765D01*
X320809Y150784D01*
X320892Y150793D01*
X320993Y150811D01*
X321105Y150821D01*
X321234D01*
X323510D01*
Y150830D01*
X323519Y150876D01*
X323528Y150932D01*
Y151005D01*
X323537Y151098D01*
X323547Y151200D01*
X323556Y151422D01*
Y148869D01*
D02*
G37*
G36*
Y145456D02*
X323547Y145511D01*
Y145576D01*
X323537Y145650D01*
X323510Y145816D01*
X323472Y146001D01*
X323408Y146205D01*
X323324Y146390D01*
X323204Y146556D01*
X323186Y146575D01*
X323140Y146621D01*
X323047Y146686D01*
X322991Y146713D01*
X322927Y146750D01*
X322853Y146788D01*
X322769Y146825D01*
X322668Y146862D01*
X322566Y146889D01*
X322446Y146917D01*
X322325Y146935D01*
X322187Y146945D01*
X322039Y146954D01*
X320069D01*
Y147500D01*
X319902Y147546D01*
D01*
D01*
D01*
X323556D01*
Y145456D01*
D02*
G37*
G36*
X323510Y142051D02*
X323389Y142107D01*
X323510D01*
Y142051D01*
D02*
G37*
G36*
X323602Y135096D02*
X323593Y135142D01*
Y135206D01*
X323574Y135345D01*
X323547Y135503D01*
X323510Y135678D01*
X323454Y135845D01*
X323380Y136011D01*
X323371Y136030D01*
X323343Y136076D01*
X323288Y136159D01*
X323214Y136252D01*
X323130Y136363D01*
X323019Y136474D01*
X322899Y136585D01*
X322751Y136696D01*
X322742D01*
X322732Y136705D01*
X322677Y136742D01*
X322594Y136788D01*
X322474Y136844D01*
X322335Y136899D01*
X322168Y136964D01*
X321983Y137020D01*
X321780Y137075D01*
X321771D01*
X321752Y137084D01*
X321724D01*
X321678Y137093D01*
X321622Y137103D01*
X321567Y137112D01*
X321493Y137121D01*
X321410Y137130D01*
X321225Y137158D01*
X321012Y137177D01*
X320781Y137186D01*
X320531Y137195D01*
X323602D01*
Y135096D01*
D02*
G37*
G36*
X320790Y135854D02*
X320883D01*
X320993Y135845D01*
X321114Y135836D01*
X321363Y135808D01*
X321613Y135771D01*
X321854Y135724D01*
X321965Y135687D01*
X322066Y135651D01*
X322076D01*
X322085Y135641D01*
X322141Y135604D01*
X322224Y135558D01*
X322316Y135484D01*
X322409Y135391D01*
X322492Y135281D01*
X322548Y135151D01*
X322557Y135077D01*
X322566Y134994D01*
Y134975D01*
X322557Y134920D01*
X322538Y134846D01*
X322501Y134753D01*
X322446Y134652D01*
X322353Y134540D01*
X322298Y134485D01*
X322233Y134439D01*
X322150Y134392D01*
X322066Y134346D01*
X322057D01*
X322039Y134337D01*
X322011Y134328D01*
X321974Y134309D01*
X321919Y134291D01*
X321854Y134272D01*
X321780Y134254D01*
X321687Y134235D01*
X321585Y134217D01*
X321475Y134198D01*
X321345Y134180D01*
X321206Y134161D01*
X321058Y134143D01*
X320892Y134134D01*
X320716Y134124D01*
X320531D01*
X320522D01*
X320485D01*
X320429D01*
X320364D01*
X320272Y134134D01*
X320180D01*
X320069Y134143D01*
X319948Y134152D01*
X319699Y134180D01*
X319449Y134217D01*
X319208Y134272D01*
X319107Y134309D01*
X319005Y134346D01*
X318995D01*
X318986Y134355D01*
X318931Y134383D01*
X318847Y134439D01*
X318755Y134513D01*
X318663Y134605D01*
X318579Y134716D01*
X318524Y134846D01*
X318514Y134920D01*
X318505Y134994D01*
Y135012D01*
X318514Y135068D01*
X318533Y135142D01*
X318570Y135234D01*
X318625Y135345D01*
X318718Y135456D01*
X318774Y135512D01*
X318838Y135558D01*
X318912Y135604D01*
X319005Y135651D01*
X319014D01*
X319023Y135660D01*
X319060Y135669D01*
X319097Y135687D01*
X319153Y135697D01*
X319217Y135715D01*
X319291Y135734D01*
X319375Y135752D01*
X319477Y135780D01*
X319597Y135799D01*
X319717Y135817D01*
X319856Y135826D01*
X320004Y135845D01*
X320170Y135854D01*
X320346Y135863D01*
X320531D01*
X320540D01*
X320577D01*
X320633D01*
X320697D01*
X320790Y135854D01*
D02*
G37*
G36*
X323510Y131932D02*
X323389Y131988D01*
X323510D01*
Y131932D01*
D02*
G37*
G36*
X323602Y125577D02*
X323593Y125661D01*
X323584Y125771D01*
Y125799D01*
X323574Y125836D01*
Y125882D01*
X323556Y125994D01*
X323537Y126132D01*
Y126142D01*
X323528Y126160D01*
Y126206D01*
X323519Y126252D01*
X323510Y126308D01*
X323491Y126382D01*
X323463Y126530D01*
Y126539D01*
X323454Y126567D01*
X323445Y126604D01*
X323435Y126660D01*
X323398Y126789D01*
X323352Y126928D01*
X323602D01*
Y125577D01*
D02*
G37*
D10*
X298107Y265387D02*
G03*
X298107Y265387I-492J0D01*
G01*
X265120Y117760D02*
G03*
X265120Y117760I-492J0D01*
G01*
D11*
X253394Y133429D02*
G03*
X253394Y133429I-394J0D01*
G01*
X324874Y112000D02*
G03*
X324874Y112000I-7874J0D01*
G01*
X129874D02*
G03*
X129874Y112000I-7874J0D01*
G01*
X324874Y258000D02*
G03*
X324874Y258000I-7874J0D01*
G01*
X129874D02*
G03*
X129874Y258000I-7874J0D01*
G01*
X289544Y264402D02*
X295056D01*
X289544Y252198D02*
X295056D01*
Y256922D02*
Y258103D01*
X289544Y256922D02*
Y259678D01*
X280646Y255753D02*
Y262446D01*
X273954Y255753D02*
Y262446D01*
X125015Y168346D02*
Y174054D01*
X114385Y168346D02*
Y174054D01*
X187258Y146974D02*
Y158226D01*
X179942Y146974D02*
Y158226D01*
X143474Y182376D02*
X143868D01*
X143474Y185526D02*
X143868D01*
X159833Y127722D02*
X166525D01*
X159853Y134050D02*
X166546D01*
X167664Y118450D02*
X171601D01*
X167664Y124750D02*
X171601D01*
X157939Y215197D02*
Y223118D01*
X164632Y215197D02*
Y223118D01*
X164845Y218249D02*
Y226170D01*
X171537Y218249D02*
Y226170D01*
X186439Y257353D02*
X194361D01*
X186439Y264047D02*
X194361D01*
X196839D02*
X204761D01*
X196839Y257353D02*
X204761D01*
X234442Y103139D02*
Y133061D01*
X250485Y103139D02*
X252158D01*
X234442D02*
X236115D01*
X252158D02*
Y133061D01*
X250485D02*
X252158D01*
X234442D02*
X236115D01*
X243418Y95738D02*
Y98100D01*
X242237Y96919D02*
X244599D01*
X169381Y229848D02*
X180634D01*
X169381Y237164D02*
X180634D01*
X197346Y135185D02*
X203054D01*
X197346Y145815D02*
X203054D01*
X131912Y154110D02*
X146888D01*
X131912Y167890D02*
X146888D01*
X162474Y157658D02*
X173726D01*
X162474Y150342D02*
X173726D01*
X155946Y114580D02*
X161654D01*
X155946Y103950D02*
X161654D01*
X167236Y207423D02*
Y214116D01*
X173564Y207402D02*
Y214094D01*
X168651Y195863D02*
Y202556D01*
X162323Y195884D02*
Y202577D01*
X152199Y190732D02*
Y194668D01*
X146644Y190732D02*
Y194668D01*
X272108Y115516D02*
X275356D01*
Y124079D02*
Y127484D01*
Y115516D02*
Y118921D01*
X272108Y127484D02*
X275356D01*
X269844Y120339D02*
Y122661D01*
X130067Y120858D02*
X136957D01*
X130088Y127562D02*
X136978D01*
X132934Y109142D02*
X139824D01*
X132955Y115847D02*
X139845D01*
X222031Y133650D02*
X225969D01*
X222031Y127350D02*
X225969D01*
X222131Y116450D02*
X226068D01*
X222131Y110150D02*
X226068D01*
X215155Y118553D02*
X222045D01*
X215176Y125258D02*
X222066D01*
D12*
X305894Y240910D02*
G03*
X300776Y246028I-5118J0D01*
G01*
X250224D02*
G03*
X245106Y240910I0J-5118D01*
G01*
Y142091D02*
G03*
X250224Y136972I5118J0D01*
G01*
X300776D02*
G03*
X305894Y142091I0J5118D01*
G01*
X265707Y133232D02*
X285293D01*
X269644Y249768D02*
X281356D01*
X245106Y142091D02*
Y144335D01*
X305894Y183626D02*
X307862D01*
Y199374D01*
X305894D02*
X307862D01*
X305894D02*
Y231579D01*
X307862D01*
Y238665D01*
X305894D02*
X307862D01*
X305894D02*
Y240910D01*
X281356Y246028D02*
X300776D01*
X281356D02*
Y249768D01*
X269644Y246028D02*
Y249768D01*
X250224Y246028D02*
X269644D01*
X245106Y238665D02*
Y240910D01*
X243138Y238665D02*
X245106D01*
X243138Y231579D02*
Y238665D01*
Y231579D02*
X245106D01*
Y199374D02*
Y231579D01*
X243138Y199374D02*
X245106D01*
X243138Y183626D02*
Y199374D01*
Y183626D02*
X245106D01*
Y151421D02*
Y183626D01*
X243138Y151421D02*
X245106D01*
X243138Y144335D02*
Y151421D01*
Y144335D02*
X245106D01*
X250224Y136972D02*
X265707D01*
Y133232D02*
Y136972D01*
X285293Y133232D02*
Y136972D01*
X300776D01*
X305894Y142091D02*
Y144335D01*
X307862D01*
Y151421D01*
X305894D02*
X307862D01*
X305894D02*
Y183626D01*
D13*
X286632Y267399D02*
Y264067D01*
X285966Y263401D01*
X284633D01*
X283966Y264067D01*
Y267399D01*
X282633D02*
X279968D01*
Y266733D01*
X282633Y264067D01*
Y263401D01*
X258801Y257601D02*
X257802Y256601D01*
X255802D01*
X254803Y257601D01*
Y261599D01*
X255802Y262599D01*
X257802D01*
X258801Y261599D01*
X260801Y257601D02*
X261800Y256601D01*
X263800D01*
X264799Y257601D01*
Y258600D01*
X263800Y259600D01*
X262800D01*
X263800D01*
X264799Y260600D01*
Y261599D01*
X263800Y262599D01*
X261800D01*
X260801Y261599D01*
X266799Y257601D02*
X267798Y256601D01*
X269798D01*
X270797Y257601D01*
Y261599D01*
X269798Y262599D01*
X267798D01*
X266799Y261599D01*
Y257601D01*
X184465Y258951D02*
Y262449D01*
X182716D01*
X182133Y261866D01*
Y260700D01*
X182716Y260117D01*
X184465D01*
X183299D02*
X182133Y258951D01*
X180966Y261866D02*
X180383Y262449D01*
X179217D01*
X178634Y261866D01*
Y261283D01*
X179217Y260700D01*
X179800D01*
X179217D01*
X178634Y260117D01*
Y259534D01*
X179217Y258951D01*
X180383D01*
X180966Y259534D01*
X177467D02*
X176884Y258951D01*
X175718D01*
X175135Y259534D01*
Y261866D01*
X175718Y262449D01*
X176884D01*
X177467Y261866D01*
Y261283D01*
X176884Y260700D01*
X175135D01*
X216465Y258951D02*
Y262449D01*
X214716D01*
X214133Y261866D01*
Y260700D01*
X214716Y260117D01*
X216465D01*
X215299D02*
X214133Y258951D01*
X212966Y261866D02*
X212383Y262449D01*
X211217D01*
X210634Y261866D01*
Y261283D01*
X211217Y260700D01*
X211800D01*
X211217D01*
X210634Y260117D01*
Y259534D01*
X211217Y258951D01*
X212383D01*
X212966Y259534D01*
X209467Y261866D02*
X208884Y262449D01*
X207718D01*
X207135Y261866D01*
Y261283D01*
X207718Y260700D01*
X207135Y260117D01*
Y259534D01*
X207718Y258951D01*
X208884D01*
X209467Y259534D01*
Y260117D01*
X208884Y260700D01*
X209467Y261283D01*
Y261866D01*
X208884Y260700D02*
X207718D01*
X186527Y178426D02*
Y181925D01*
X184777D01*
X184194Y181342D01*
Y180175D01*
X184777Y179592D01*
X186527D01*
X185360D02*
X184194Y178426D01*
X183028Y181342D02*
X182445Y181925D01*
X181278D01*
X180695Y181342D01*
Y180758D01*
X181278Y180175D01*
X181861D01*
X181278D01*
X180695Y179592D01*
Y179009D01*
X181278Y178426D01*
X182445D01*
X183028Y179009D01*
X177779Y178426D02*
Y181925D01*
X179529Y180175D01*
X177196D01*
X173261Y183073D02*
Y186572D01*
X171512D01*
X170929Y185989D01*
Y184822D01*
X171512Y184239D01*
X173261D01*
X172095D02*
X170929Y183073D01*
X169762Y185989D02*
X169179Y186572D01*
X168013D01*
X167430Y185989D01*
Y185406D01*
X168013Y184822D01*
X168596D01*
X168013D01*
X167430Y184239D01*
Y183656D01*
X168013Y183073D01*
X169179D01*
X169762Y183656D01*
X166263Y185989D02*
X165680Y186572D01*
X164514D01*
X163931Y185989D01*
Y185406D01*
X164514Y184822D01*
X165097D01*
X164514D01*
X163931Y184239D01*
Y183656D01*
X164514Y183073D01*
X165680D01*
X166263Y183656D01*
X157135Y217985D02*
Y221483D01*
X155385D01*
X154802Y220900D01*
Y219734D01*
X155385Y219151D01*
X157135D01*
X155968D02*
X154802Y217985D01*
X153636Y220900D02*
X153053Y221483D01*
X151886D01*
X151303Y220900D01*
Y220317D01*
X151886Y219734D01*
X152470D01*
X151886D01*
X151303Y219151D01*
Y218568D01*
X151886Y217985D01*
X153053D01*
X153636Y218568D01*
X147804Y217985D02*
X150137D01*
X147804Y220317D01*
Y220900D01*
X148388Y221483D01*
X149554D01*
X150137Y220900D01*
X201058Y163329D02*
Y166828D01*
X199309D01*
X198726Y166245D01*
Y165079D01*
X199309Y164496D01*
X201058D01*
X199892D02*
X198726Y163329D01*
X197559Y166245D02*
X196976Y166828D01*
X195810D01*
X195227Y166245D01*
Y165662D01*
X195810Y165079D01*
X196393D01*
X195810D01*
X195227Y164496D01*
Y163912D01*
X195810Y163329D01*
X196976D01*
X197559Y163912D01*
X194061Y163329D02*
X192894D01*
X193477D01*
Y166828D01*
X194061Y166245D01*
X182165Y221251D02*
Y224749D01*
X180416D01*
X179833Y224166D01*
Y223000D01*
X180416Y222417D01*
X182165D01*
X180999D02*
X179833Y221251D01*
X176334D02*
X178666D01*
X176334Y223583D01*
Y224166D01*
X176917Y224749D01*
X178083D01*
X178666Y224166D01*
X175167Y221834D02*
X174584Y221251D01*
X173418D01*
X172835Y221834D01*
Y224166D01*
X173418Y224749D01*
X174584D01*
X175167Y224166D01*
Y223583D01*
X174584Y223000D01*
X172835D01*
X135265Y172551D02*
Y176049D01*
X133516D01*
X132933Y175466D01*
Y174300D01*
X133516Y173717D01*
X135265D01*
X134099D02*
X132933Y172551D01*
X129434D02*
X131766D01*
X129434Y174883D01*
Y175466D01*
X130017Y176049D01*
X131183D01*
X131766Y175466D01*
X128267Y176049D02*
X125935D01*
Y175466D01*
X128267Y173134D01*
Y172551D01*
X159965Y183351D02*
Y186849D01*
X158216D01*
X157633Y186266D01*
Y185100D01*
X158216Y184517D01*
X159965D01*
X158799D02*
X157633Y183351D01*
X154134D02*
X156466D01*
X154134Y185683D01*
Y186266D01*
X154717Y186849D01*
X155883D01*
X156466Y186266D01*
X150635Y186849D02*
X151801Y186266D01*
X152967Y185100D01*
Y183934D01*
X152384Y183351D01*
X151218D01*
X150635Y183934D01*
Y184517D01*
X151218Y185100D01*
X152967D01*
X166103Y212019D02*
Y215518D01*
X164354D01*
X163771Y214935D01*
Y213769D01*
X164354Y213186D01*
X166103D01*
X164937D02*
X163771Y212019D01*
X160272D02*
X162604D01*
X160272Y214352D01*
Y214935D01*
X160855Y215518D01*
X162021D01*
X162604Y214935D01*
X157356Y212019D02*
Y215518D01*
X159106Y213769D01*
X156773D01*
X165174Y205807D02*
Y209306D01*
X163425D01*
X162841Y208723D01*
Y207557D01*
X163425Y206974D01*
X165174D01*
X164008D02*
X162841Y205807D01*
X159343D02*
X161675D01*
X159343Y208140D01*
Y208723D01*
X159926Y209306D01*
X161092D01*
X161675Y208723D01*
X158176D02*
X157593Y209306D01*
X156427D01*
X155844Y208723D01*
Y208140D01*
X156427Y207557D01*
X157010D01*
X156427D01*
X155844Y206974D01*
Y206391D01*
X156427Y205807D01*
X157593D01*
X158176Y206391D01*
X145276Y197611D02*
X141277D01*
Y195612D01*
X141944Y194946D01*
X143276D01*
X143943Y195612D01*
Y197611D01*
Y196278D02*
X145276Y194946D01*
Y190947D02*
Y193613D01*
X142610Y190947D01*
X141944D01*
X141277Y191613D01*
Y192946D01*
X141944Y193613D01*
X145276Y189614D02*
Y188281D01*
Y188947D01*
X141277D01*
X141944Y189614D01*
X156980Y145703D02*
Y149202D01*
X155231D01*
X154648Y148619D01*
Y147453D01*
X155231Y146870D01*
X156980D01*
X155814D02*
X154648Y145703D01*
X151149D02*
X153481D01*
X151149Y148036D01*
Y148619D01*
X151732Y149202D01*
X152898D01*
X153481Y148619D01*
X149982D02*
X149399Y149202D01*
X148233D01*
X147650Y148619D01*
Y146286D01*
X148233Y145703D01*
X149399D01*
X149982Y146286D01*
Y148619D01*
X199874Y132951D02*
Y136449D01*
X198124D01*
X197541Y135866D01*
Y134700D01*
X198124Y134117D01*
X199874D01*
X198707D02*
X197541Y132951D01*
X196375D02*
X195208D01*
X195792D01*
Y136449D01*
X196375Y135866D01*
X193459Y133534D02*
X192876Y132951D01*
X191710D01*
X191126Y133534D01*
Y135866D01*
X191710Y136449D01*
X192876D01*
X193459Y135866D01*
Y135283D01*
X192876Y134700D01*
X191126D01*
X157650Y161175D02*
Y164674D01*
X155901D01*
X155317Y164091D01*
Y162924D01*
X155901Y162341D01*
X157650D01*
X156484D02*
X155317Y161175D01*
X154151D02*
X152985D01*
X153568D01*
Y164674D01*
X154151Y164091D01*
X151235D02*
X150652Y164674D01*
X149486D01*
X148903Y164091D01*
Y163508D01*
X149486Y162924D01*
X148903Y162341D01*
Y161758D01*
X149486Y161175D01*
X150652D01*
X151235Y161758D01*
Y162341D01*
X150652Y162924D01*
X151235Y163508D01*
Y164091D01*
X150652Y162924D02*
X149486D01*
X187874Y122051D02*
Y125549D01*
X186124D01*
X185541Y124966D01*
Y123800D01*
X186124Y123217D01*
X187874D01*
X186707D02*
X185541Y122051D01*
X184375D02*
X183208D01*
X183792D01*
Y125549D01*
X184375Y124966D01*
X181459Y125549D02*
X179126D01*
Y124966D01*
X181459Y122634D01*
Y122051D01*
X174274Y147451D02*
Y150949D01*
X172524D01*
X171941Y150366D01*
Y149200D01*
X172524Y148617D01*
X174274D01*
X173107D02*
X171941Y147451D01*
X170775D02*
X169608D01*
X170192D01*
Y150949D01*
X170775Y150366D01*
X165526Y150949D02*
X166693Y150366D01*
X167859Y149200D01*
Y148034D01*
X167276Y147451D01*
X166110D01*
X165526Y148034D01*
Y148617D01*
X166110Y149200D01*
X167859D01*
X198951Y123426D02*
X202449D01*
Y125176D01*
X201866Y125759D01*
X200700D01*
X200117Y125176D01*
Y123426D01*
Y124593D02*
X198951Y125759D01*
Y126925D02*
Y128092D01*
Y127508D01*
X202449D01*
X201866Y126925D01*
X202449Y132174D02*
Y129841D01*
X200700D01*
X201283Y131007D01*
Y131590D01*
X200700Y132174D01*
X199534D01*
X198951Y131590D01*
Y130424D01*
X199534Y129841D01*
X133624Y137251D02*
Y140749D01*
X131874D01*
X131291Y140166D01*
Y139000D01*
X131874Y138417D01*
X133624D01*
X132457D02*
X131291Y137251D01*
X130125D02*
X128958D01*
X129542D01*
Y140749D01*
X130125Y140166D01*
X127209D02*
X126626Y140749D01*
X125460D01*
X124876Y140166D01*
Y139583D01*
X125460Y139000D01*
X126043D01*
X125460D01*
X124876Y138417D01*
Y137834D01*
X125460Y137251D01*
X126626D01*
X127209Y137834D01*
X156232Y129301D02*
Y133299D01*
X154233D01*
X153567Y132633D01*
Y131300D01*
X154233Y130633D01*
X156232D01*
X154899D02*
X153567Y129301D01*
X152234Y129967D02*
X151567Y129301D01*
X150234D01*
X149568Y129967D01*
Y132633D01*
X150234Y133299D01*
X151567D01*
X152234Y132633D01*
Y131966D01*
X151567Y131300D01*
X149568D01*
X185916Y117051D02*
Y120549D01*
X184166D01*
X183583Y119966D01*
Y118800D01*
X184166Y118217D01*
X185916D01*
X184749D02*
X183583Y117051D01*
X182417Y119966D02*
X181834Y120549D01*
X180667D01*
X180084Y119966D01*
Y119383D01*
X180667Y118800D01*
X180084Y118217D01*
Y117634D01*
X180667Y117051D01*
X181834D01*
X182417Y117634D01*
Y118217D01*
X181834Y118800D01*
X182417Y119383D01*
Y119966D01*
X181834Y118800D02*
X180667D01*
X230716Y135651D02*
Y139149D01*
X228966D01*
X228383Y138566D01*
Y137400D01*
X228966Y136817D01*
X230716D01*
X229549D02*
X228383Y135651D01*
X227217Y139149D02*
X224884D01*
Y138566D01*
X227217Y136234D01*
Y135651D01*
X280947Y107351D02*
Y110849D01*
X279198D01*
X278615Y110266D01*
Y109100D01*
X279198Y108517D01*
X280947D01*
X279781D02*
X278615Y107351D01*
X275116Y110849D02*
X276282Y110266D01*
X277448Y109100D01*
Y107934D01*
X276865Y107351D01*
X275699D01*
X275116Y107934D01*
Y108517D01*
X275699Y109100D01*
X277448D01*
X232216Y105151D02*
Y108649D01*
X230466D01*
X229883Y108066D01*
Y106900D01*
X230466Y106317D01*
X232216D01*
X231049D02*
X229883Y105151D01*
X226384D02*
X228717D01*
X226384Y107483D01*
Y108066D01*
X226967Y108649D01*
X228134D01*
X228717Y108066D01*
X218679Y105351D02*
Y108849D01*
X216930D01*
X216347Y108266D01*
Y107100D01*
X216930Y106517D01*
X218679D01*
X217513D02*
X216347Y105351D01*
X215180D02*
X214014D01*
X214597D01*
Y108849D01*
X215180Y108266D01*
X283400Y122367D02*
Y125033D01*
X284066Y125699D01*
X285399D01*
X286066Y125033D01*
Y122367D01*
X285399Y121701D01*
X284066D01*
X284733Y123033D02*
X283400Y121701D01*
X284066D02*
X283400Y122367D01*
X282067Y121701D02*
X280734D01*
X281401D01*
Y125699D01*
X282067Y125033D01*
X179166Y243199D02*
X181832D01*
Y241200D01*
X180499D01*
X181832D01*
Y239201D01*
X177833Y243199D02*
Y239201D01*
X175833D01*
X175167Y239867D01*
Y240534D01*
X175833Y241200D01*
X177833D01*
X175833D01*
X175167Y241866D01*
Y242533D01*
X175833Y243199D01*
X177833D01*
X171168D02*
X173834D01*
Y241200D01*
X172501Y241866D01*
X171835D01*
X171168Y241200D01*
Y239867D01*
X171835Y239201D01*
X173168D01*
X173834Y239867D01*
X179533Y163049D02*
X181865D01*
Y161300D01*
X180699D01*
X181865D01*
Y159551D01*
X178366Y163049D02*
Y159551D01*
X176617D01*
X176034Y160134D01*
Y160717D01*
X176617Y161300D01*
X178366D01*
X176617D01*
X176034Y161883D01*
Y162466D01*
X176617Y163049D01*
X178366D01*
X174867Y162466D02*
X174284Y163049D01*
X173118D01*
X172535Y162466D01*
Y161883D01*
X173118Y161300D01*
X173701D01*
X173118D01*
X172535Y160717D01*
Y160134D01*
X173118Y159551D01*
X174284D01*
X174867Y160134D01*
X175851Y154049D02*
Y156382D01*
X177600D01*
Y155216D01*
Y156382D01*
X179349D01*
X175851Y152883D02*
X179349D01*
Y151134D01*
X178766Y150551D01*
X178183D01*
X177600Y151134D01*
Y152883D01*
Y151134D01*
X177017Y150551D01*
X176434D01*
X175851Y151134D01*
Y152883D01*
X179349Y149384D02*
Y148218D01*
Y148801D01*
X175851D01*
X176434Y149384D01*
X186934Y144033D02*
X186351Y144616D01*
Y145782D01*
X186934Y146365D01*
X189266D01*
X189849Y145782D01*
Y144616D01*
X189266Y144033D01*
X186351Y142866D02*
Y140534D01*
X186934D01*
X189266Y142866D01*
X189849D01*
Y137618D02*
X186351D01*
X188100Y139367D01*
Y137035D01*
X201333Y186166D02*
X201916Y186749D01*
X203082D01*
X203665Y186166D01*
Y183834D01*
X203082Y183251D01*
X201916D01*
X201333Y183834D01*
X200166Y186749D02*
X197834D01*
Y186166D01*
X200166Y183834D01*
Y183251D01*
X196667Y186166D02*
X196084Y186749D01*
X194918D01*
X194335Y186166D01*
Y185583D01*
X194918Y185000D01*
X195501D01*
X194918D01*
X194335Y184417D01*
Y183834D01*
X194918Y183251D01*
X196084D01*
X196667Y183834D01*
X160133Y143866D02*
X160716Y144449D01*
X161882D01*
X162465Y143866D01*
Y141534D01*
X161882Y140951D01*
X160716D01*
X160133Y141534D01*
X158966Y144449D02*
X156634D01*
Y143866D01*
X158966Y141534D01*
Y140951D01*
X153135D02*
X155467D01*
X153135Y143283D01*
Y143866D01*
X153718Y144449D01*
X154884D01*
X155467Y143866D01*
X209234Y216132D02*
X209901Y216799D01*
X211234D01*
X211900Y216132D01*
Y213466D01*
X211234Y212800D01*
X209901D01*
X209234Y213466D01*
X207901Y216799D02*
X205236D01*
Y216132D01*
X207901Y213466D01*
Y212800D01*
X203903D02*
X202570D01*
X203236D01*
Y216799D01*
X203903Y216132D01*
X197825Y154348D02*
X197242Y154931D01*
Y156098D01*
X197825Y156681D01*
X200158D01*
X200741Y156098D01*
Y154931D01*
X200158Y154348D01*
X197242Y153182D02*
Y150849D01*
X197825D01*
X200158Y153182D01*
X200741D01*
X197825Y149683D02*
X197242Y149100D01*
Y147934D01*
X197825Y147351D01*
X200158D01*
X200741Y147934D01*
Y149100D01*
X200158Y149683D01*
X197825D01*
X228666Y179833D02*
X229332Y180499D01*
X230665D01*
X231332Y179833D01*
Y177167D01*
X230665Y176501D01*
X229332D01*
X228666Y177167D01*
X224667Y180499D02*
X226000Y179833D01*
X227333Y178500D01*
Y177167D01*
X226666Y176501D01*
X225334D01*
X224667Y177167D01*
Y177833D01*
X225334Y178500D01*
X227333D01*
X223334Y177167D02*
X222668Y176501D01*
X221335D01*
X220668Y177167D01*
Y179833D01*
X221335Y180499D01*
X222668D01*
X223334Y179833D01*
Y179166D01*
X222668Y178500D01*
X220668D01*
X228833Y166166D02*
X229416Y166749D01*
X230582D01*
X231165Y166166D01*
Y163834D01*
X230582Y163251D01*
X229416D01*
X228833Y163834D01*
X225334Y166749D02*
X226500Y166166D01*
X227666Y165000D01*
Y163834D01*
X227083Y163251D01*
X225917D01*
X225334Y163834D01*
Y164417D01*
X225917Y165000D01*
X227666D01*
X224167Y166749D02*
X221835D01*
Y166166D01*
X224167Y163834D01*
Y163251D01*
X240587Y166412D02*
X241253Y167078D01*
X242586D01*
X243253Y166412D01*
Y163746D01*
X242586Y163079D01*
X241253D01*
X240587Y163746D01*
X236588Y167078D02*
X237921Y166412D01*
X239254Y165079D01*
Y163746D01*
X238588Y163079D01*
X237255D01*
X236588Y163746D01*
Y164412D01*
X237255Y165079D01*
X239254D01*
X232590Y167078D02*
X233923Y166412D01*
X235256Y165079D01*
Y163746D01*
X234589Y163079D01*
X233256D01*
X232590Y163746D01*
Y164412D01*
X233256Y165079D01*
X235256D01*
X144233Y171966D02*
X144816Y172549D01*
X145982D01*
X146565Y171966D01*
Y169634D01*
X145982Y169051D01*
X144816D01*
X144233Y169634D01*
X140734Y172549D02*
X141900Y171966D01*
X143066Y170800D01*
Y169634D01*
X142483Y169051D01*
X141317D01*
X140734Y169634D01*
Y170217D01*
X141317Y170800D01*
X143066D01*
X139567Y171966D02*
X138984Y172549D01*
X137818D01*
X137235Y171966D01*
Y171383D01*
X137818Y170800D01*
X138401D01*
X137818D01*
X137235Y170217D01*
Y169634D01*
X137818Y169051D01*
X138984D01*
X139567Y169634D01*
X161525Y178112D02*
X162109Y178696D01*
X163275D01*
X163858Y178112D01*
Y175780D01*
X163275Y175197D01*
X162109D01*
X161525Y175780D01*
X158027Y178696D02*
X160359D01*
Y176946D01*
X159193Y177529D01*
X158610D01*
X158027Y176946D01*
Y175780D01*
X158610Y175197D01*
X159776D01*
X160359Y175780D01*
X156860Y178112D02*
X156277Y178696D01*
X155111D01*
X154528Y178112D01*
Y177529D01*
X155111Y176946D01*
X154528Y176363D01*
Y175780D01*
X155111Y175197D01*
X156277D01*
X156860Y175780D01*
Y176363D01*
X156277Y176946D01*
X156860Y177529D01*
Y178112D01*
X156277Y176946D02*
X155111D01*
X182561Y190759D02*
X183228Y190093D01*
Y188760D01*
X182561Y188094D01*
X179895D01*
X179229Y188760D01*
Y190093D01*
X179895Y190759D01*
X183228Y194758D02*
Y192092D01*
X181228D01*
X181895Y193425D01*
Y194092D01*
X181228Y194758D01*
X179895D01*
X179229Y194092D01*
Y192759D01*
X179895Y192092D01*
X183228Y196091D02*
Y198757D01*
X182561D01*
X179895Y196091D01*
X179229D01*
X176966Y167467D02*
X177549Y166884D01*
Y165718D01*
X176966Y165135D01*
X174634D01*
X174051Y165718D01*
Y166884D01*
X174634Y167467D01*
X177549Y170966D02*
Y168634D01*
X175800D01*
X176383Y169800D01*
Y170383D01*
X175800Y170966D01*
X174634D01*
X174051Y170383D01*
Y169217D01*
X174634Y168634D01*
X177549Y174465D02*
X176966Y173299D01*
X175800Y172133D01*
X174634D01*
X174051Y172716D01*
Y173882D01*
X174634Y174465D01*
X175217D01*
X175800Y173882D01*
Y172133D01*
X206833Y201166D02*
X207416Y201749D01*
X208582D01*
X209165Y201166D01*
Y198834D01*
X208582Y198251D01*
X207416D01*
X206833Y198834D01*
X203334Y201749D02*
X205666D01*
Y200000D01*
X204500Y200583D01*
X203917D01*
X203334Y200000D01*
Y198834D01*
X203917Y198251D01*
X205083D01*
X205666Y198834D01*
X200418Y198251D02*
Y201749D01*
X202167Y200000D01*
X199835D01*
X177233Y135066D02*
X177816Y135649D01*
X178982D01*
X179565Y135066D01*
Y132734D01*
X178982Y132151D01*
X177816D01*
X177233Y132734D01*
X173734Y135649D02*
X176066D01*
Y133900D01*
X174900Y134483D01*
X174317D01*
X173734Y133900D01*
Y132734D01*
X174317Y132151D01*
X175483D01*
X176066Y132734D01*
X172567Y135066D02*
X171984Y135649D01*
X170818D01*
X170235Y135066D01*
Y134483D01*
X170818Y133900D01*
X171401D01*
X170818D01*
X170235Y133317D01*
Y132734D01*
X170818Y132151D01*
X171984D01*
X172567Y132734D01*
X235833Y196166D02*
X236416Y196749D01*
X237582D01*
X238165Y196166D01*
Y193834D01*
X237582Y193251D01*
X236416D01*
X235833Y193834D01*
X232334Y196749D02*
X234666D01*
Y195000D01*
X233500Y195583D01*
X232917D01*
X232334Y195000D01*
Y193834D01*
X232917Y193251D01*
X234083D01*
X234666Y193834D01*
X228835Y193251D02*
X231167D01*
X228835Y195583D01*
Y196166D01*
X229418Y196749D01*
X230584D01*
X231167Y196166D01*
X217623Y166245D02*
X218207Y166828D01*
X219373D01*
X219956Y166245D01*
Y163912D01*
X219373Y163329D01*
X218207D01*
X217623Y163912D01*
X214125Y166828D02*
X216457D01*
Y165079D01*
X215291Y165662D01*
X214708D01*
X214125Y165079D01*
Y163912D01*
X214708Y163329D01*
X215874D01*
X216457Y163912D01*
X212958Y163329D02*
X211792D01*
X212375D01*
Y166828D01*
X212958Y166245D01*
X208833Y236666D02*
X209416Y237249D01*
X210582D01*
X211165Y236666D01*
Y234334D01*
X210582Y233751D01*
X209416D01*
X208833Y234334D01*
X205334Y237249D02*
X207666D01*
Y235500D01*
X206500Y236083D01*
X205917D01*
X205334Y235500D01*
Y234334D01*
X205917Y233751D01*
X207083D01*
X207666Y234334D01*
X204167Y236666D02*
X203584Y237249D01*
X202418D01*
X201835Y236666D01*
Y234334D01*
X202418Y233751D01*
X203584D01*
X204167Y234334D01*
Y236666D01*
X224506Y191442D02*
X225089Y192025D01*
X226255D01*
X226838Y191442D01*
Y189109D01*
X226255Y188526D01*
X225089D01*
X224506Y189109D01*
X221590Y188526D02*
Y192025D01*
X223340Y190276D01*
X221007D01*
X219841Y189109D02*
X219257Y188526D01*
X218091D01*
X217508Y189109D01*
Y191442D01*
X218091Y192025D01*
X219257D01*
X219841Y191442D01*
Y190859D01*
X219257Y190276D01*
X217508D01*
X200286Y106295D02*
X200869Y106878D01*
X202036D01*
X202619Y106295D01*
Y103962D01*
X202036Y103379D01*
X200869D01*
X200286Y103962D01*
X197370Y103379D02*
Y106878D01*
X199120Y105128D01*
X196787D01*
X195621Y106295D02*
X195038Y106878D01*
X193871D01*
X193288Y106295D01*
Y105711D01*
X193871Y105128D01*
X193288Y104545D01*
Y103962D01*
X193871Y103379D01*
X195038D01*
X195621Y103962D01*
Y104545D01*
X195038Y105128D01*
X195621Y105711D01*
Y106295D01*
X195038Y105128D02*
X193871D01*
X193333Y114266D02*
X193916Y114849D01*
X195082D01*
X195665Y114266D01*
Y111934D01*
X195082Y111351D01*
X193916D01*
X193333Y111934D01*
X190417Y111351D02*
Y114849D01*
X192166Y113100D01*
X189834D01*
X188667Y114849D02*
X186335D01*
Y114266D01*
X188667Y111934D01*
Y111351D01*
X260333Y131666D02*
X260916Y132249D01*
X262082D01*
X262665Y131666D01*
Y129334D01*
X262082Y128751D01*
X260916D01*
X260333Y129334D01*
X257417Y128751D02*
Y132249D01*
X259166Y130500D01*
X256834D01*
X253335Y132249D02*
X254501Y131666D01*
X255667Y130500D01*
Y129334D01*
X255084Y128751D01*
X253918D01*
X253335Y129334D01*
Y129917D01*
X253918Y130500D01*
X255667D01*
X201666Y173833D02*
X202332Y174499D01*
X203665D01*
X204332Y173833D01*
Y171167D01*
X203665Y170501D01*
X202332D01*
X201666Y171167D01*
X198334Y170501D02*
Y174499D01*
X200333Y172500D01*
X197667D01*
X193668Y174499D02*
X196334D01*
Y172500D01*
X195001Y173167D01*
X194335D01*
X193668Y172500D01*
Y171167D01*
X194335Y170501D01*
X195668D01*
X196334Y171167D01*
X208758Y166245D02*
X209341Y166828D01*
X210507D01*
X211090Y166245D01*
Y163912D01*
X210507Y163329D01*
X209341D01*
X208758Y163912D01*
X205842Y163329D02*
Y166828D01*
X207592Y165079D01*
X205259D01*
X202343Y163329D02*
Y166828D01*
X204093Y165079D01*
X201760D01*
X185833Y171666D02*
X186416Y172249D01*
X187582D01*
X188165Y171666D01*
Y169334D01*
X187582Y168751D01*
X186416D01*
X185833Y169334D01*
X182917Y168751D02*
Y172249D01*
X184666Y170500D01*
X182334D01*
X181167Y171666D02*
X180584Y172249D01*
X179418D01*
X178835Y171666D01*
Y171083D01*
X179418Y170500D01*
X180001D01*
X179418D01*
X178835Y169917D01*
Y169334D01*
X179418Y168751D01*
X180584D01*
X181167Y169334D01*
X206333Y180166D02*
X206916Y180749D01*
X208082D01*
X208665Y180166D01*
Y177834D01*
X208082Y177251D01*
X206916D01*
X206333Y177834D01*
X203417Y177251D02*
Y180749D01*
X205166Y179000D01*
X202834D01*
X199335Y177251D02*
X201667D01*
X199335Y179583D01*
Y180166D01*
X199918Y180749D01*
X201084D01*
X201667Y180166D01*
X143435Y142713D02*
X144018Y143297D01*
X145184D01*
X145767Y142713D01*
Y140381D01*
X145184Y139798D01*
X144018D01*
X143435Y140381D01*
X140519Y139798D02*
Y143297D01*
X142268Y141547D01*
X139936D01*
X138769Y139798D02*
X137603D01*
X138186D01*
Y143297D01*
X138769Y142713D01*
X198333Y236666D02*
X198916Y237249D01*
X200082D01*
X200665Y236666D01*
Y234334D01*
X200082Y233751D01*
X198916D01*
X198333Y234334D01*
X197166Y236666D02*
X196583Y237249D01*
X195417D01*
X194834Y236666D01*
Y236083D01*
X195417Y235500D01*
X196000D01*
X195417D01*
X194834Y234917D01*
Y234334D01*
X195417Y233751D01*
X196583D01*
X197166Y234334D01*
X193667Y237249D02*
X191335D01*
Y236666D01*
X193667Y234334D01*
Y233751D01*
X167630Y167695D02*
X168213Y167112D01*
Y165945D01*
X167630Y165362D01*
X165298D01*
X164715Y165945D01*
Y167112D01*
X165298Y167695D01*
X167630Y168861D02*
X168213Y169444D01*
Y170611D01*
X167630Y171194D01*
X167047D01*
X166464Y170611D01*
Y170027D01*
Y170611D01*
X165881Y171194D01*
X165298D01*
X164715Y170611D01*
Y169444D01*
X165298Y168861D01*
X168213Y174693D02*
X167630Y173526D01*
X166464Y172360D01*
X165298D01*
X164715Y172943D01*
Y174109D01*
X165298Y174693D01*
X165881D01*
X166464Y174109D01*
Y172360D01*
X157367Y121316D02*
X157951Y121899D01*
X159117D01*
X159700Y121316D01*
Y118983D01*
X159117Y118400D01*
X157951D01*
X157367Y118983D01*
X156201Y121316D02*
X155618Y121899D01*
X154452D01*
X153869Y121316D01*
Y120733D01*
X154452Y120149D01*
X155035D01*
X154452D01*
X153869Y119566D01*
Y118983D01*
X154452Y118400D01*
X155618D01*
X156201Y118983D01*
X150370Y121899D02*
X152702D01*
Y120149D01*
X151536Y120733D01*
X150953D01*
X150370Y120149D01*
Y118983D01*
X150953Y118400D01*
X152119D01*
X152702Y118983D01*
X196159Y191442D02*
X196742Y192025D01*
X197909D01*
X198492Y191442D01*
Y189109D01*
X197909Y188526D01*
X196742D01*
X196159Y189109D01*
X194993Y191442D02*
X194410Y192025D01*
X193244D01*
X192660Y191442D01*
Y190859D01*
X193244Y190276D01*
X193827D01*
X193244D01*
X192660Y189692D01*
Y189109D01*
X193244Y188526D01*
X194410D01*
X194993Y189109D01*
X189745Y188526D02*
Y192025D01*
X191494Y190276D01*
X189162D01*
X169854Y190536D02*
X170438Y191120D01*
X171604D01*
X172187Y190536D01*
Y188204D01*
X171604Y187621D01*
X170438D01*
X169854Y188204D01*
X168688Y190536D02*
X168105Y191120D01*
X166939D01*
X166356Y190536D01*
Y189953D01*
X166939Y189370D01*
X167522D01*
X166939D01*
X166356Y188787D01*
Y188204D01*
X166939Y187621D01*
X168105D01*
X168688Y188204D01*
X165189Y190536D02*
X164606Y191120D01*
X163440D01*
X162857Y190536D01*
Y189953D01*
X163440Y189370D01*
X164023D01*
X163440D01*
X162857Y188787D01*
Y188204D01*
X163440Y187621D01*
X164606D01*
X165189Y188204D01*
X154237Y198632D02*
X153654Y199215D01*
Y200381D01*
X154237Y200964D01*
X156570D01*
X157153Y200381D01*
Y199215D01*
X156570Y198632D01*
X154237Y197466D02*
X153654Y196882D01*
Y195716D01*
X154237Y195133D01*
X154821D01*
X155404Y195716D01*
Y196299D01*
Y195716D01*
X155987Y195133D01*
X156570D01*
X157153Y195716D01*
Y196882D01*
X156570Y197466D01*
X157153Y191634D02*
Y193967D01*
X154821Y191634D01*
X154237D01*
X153654Y192217D01*
Y193384D01*
X154237Y193967D01*
X170041Y114449D02*
X169458Y115033D01*
Y116199D01*
X170041Y116782D01*
X172373D01*
X172957Y116199D01*
Y115033D01*
X172373Y114449D01*
X170041Y113283D02*
X169458Y112700D01*
Y111534D01*
X170041Y110951D01*
X170624D01*
X171207Y111534D01*
Y112117D01*
Y111534D01*
X171790Y110951D01*
X172373D01*
X172957Y111534D01*
Y112700D01*
X172373Y113283D01*
X172957Y109784D02*
Y108618D01*
Y109201D01*
X169458D01*
X170041Y109784D01*
X235166Y232333D02*
X235832Y232999D01*
X237165D01*
X237832Y232333D01*
Y229667D01*
X237165Y229001D01*
X235832D01*
X235166Y229667D01*
X231167Y229001D02*
X233833D01*
X231167Y231666D01*
Y232333D01*
X231834Y232999D01*
X233166D01*
X233833Y232333D01*
X229834Y229667D02*
X229168Y229001D01*
X227835D01*
X227168Y229667D01*
Y232333D01*
X227835Y232999D01*
X229168D01*
X229834Y232333D01*
Y231666D01*
X229168Y231000D01*
X227168D01*
X235166Y237833D02*
X235832Y238499D01*
X237165D01*
X237832Y237833D01*
Y235167D01*
X237165Y234501D01*
X235832D01*
X235166Y235167D01*
X231167Y234501D02*
X233833D01*
X231167Y237166D01*
Y237833D01*
X231834Y238499D01*
X233166D01*
X233833Y237833D01*
X229834D02*
X229168Y238499D01*
X227835D01*
X227168Y237833D01*
Y237166D01*
X227835Y236500D01*
X227168Y235834D01*
Y235167D01*
X227835Y234501D01*
X229168D01*
X229834Y235167D01*
Y235834D01*
X229168Y236500D01*
X229834Y237166D01*
Y237833D01*
X229168Y236500D02*
X227835D01*
X218666Y208333D02*
X219332Y208999D01*
X220665D01*
X221332Y208333D01*
Y205667D01*
X220665Y205001D01*
X219332D01*
X218666Y205667D01*
X214667Y205001D02*
X217333D01*
X214667Y207666D01*
Y208333D01*
X215334Y208999D01*
X216666D01*
X217333Y208333D01*
X211335Y205001D02*
Y208999D01*
X213334Y207000D01*
X210668D01*
X123633Y161366D02*
X124216Y161949D01*
X125382D01*
X125965Y161366D01*
Y159034D01*
X125382Y158451D01*
X124216D01*
X123633Y159034D01*
X120134Y158451D02*
X122466D01*
X120134Y160783D01*
Y161366D01*
X120717Y161949D01*
X121883D01*
X122466Y161366D01*
X118967D02*
X118384Y161949D01*
X117218D01*
X116635Y161366D01*
Y160783D01*
X117218Y160200D01*
X117801D01*
X117218D01*
X116635Y159617D01*
Y159034D01*
X117218Y158451D01*
X118384D01*
X118967Y159034D01*
X120249Y182666D02*
X120833Y183249D01*
X121999D01*
X122582Y182666D01*
Y180334D01*
X121999Y179751D01*
X120833D01*
X120249Y180334D01*
X116751Y179751D02*
X119083D01*
X116751Y182083D01*
Y182666D01*
X117334Y183249D01*
X118500D01*
X119083Y182666D01*
X115584Y179751D02*
X114418D01*
X115001D01*
Y183249D01*
X115584Y182666D01*
X149566Y125633D02*
X150232Y126299D01*
X151565D01*
X152232Y125633D01*
Y122967D01*
X151565Y122301D01*
X150232D01*
X149566Y122967D01*
X145567Y122301D02*
X148233D01*
X145567Y124967D01*
Y125633D01*
X146233Y126299D01*
X147566D01*
X148233Y125633D01*
X144234D02*
X143568Y126299D01*
X142235D01*
X141568Y125633D01*
Y122967D01*
X142235Y122301D01*
X143568D01*
X144234Y122967D01*
Y125633D01*
X138433Y106533D02*
X139099Y107199D01*
X140432D01*
X141098Y106533D01*
Y103867D01*
X140432Y103201D01*
X139099D01*
X138433Y103867D01*
X137100Y103201D02*
X135767D01*
X136433D01*
Y107199D01*
X137100Y106533D01*
X133767D02*
X133101Y107199D01*
X131768D01*
X131102Y106533D01*
Y105867D01*
X131768Y105200D01*
X132434D01*
X131768D01*
X131102Y104534D01*
Y103867D01*
X131768Y103201D01*
X133101D01*
X133767Y103867D01*
X226867Y123733D02*
X227450Y124316D01*
X228617D01*
X229200Y123733D01*
Y121401D01*
X228617Y120817D01*
X227450D01*
X226867Y121401D01*
X225701Y123733D02*
X225118Y124316D01*
X223952D01*
X223369Y123733D01*
Y123150D01*
X223952Y122567D01*
X223369Y121984D01*
Y121401D01*
X223952Y120817D01*
X225118D01*
X225701Y121401D01*
Y121984D01*
X225118Y122567D01*
X225701Y123150D01*
Y123733D01*
X225118Y122567D02*
X223952D01*
M02*
