G04*
G04 #@! TF.GenerationSoftware,Altium Limited,Altium Designer,25.6.2 (33)*
G04*
G04 Layer_Color=16711935*
%FSLAX25Y25*%
%MOIN*%
G70*
G04*
G04 #@! TF.SameCoordinates,D3077B53-F130-49B9-AE0B-FC42BD5CCE1B*
G04*
G04*
G04 #@! TF.FilePolarity,Negative*
G04*
G01*
G75*
%ADD18R,0.03543X0.03150*%
%ADD19R,0.03543X0.03150*%
%ADD23R,0.03197X0.02593*%
%ADD24R,0.02593X0.03197*%
%ADD31R,0.04331X0.08071*%
%ADD32R,0.08071X0.04331*%
%ADD38R,0.05142X0.04166*%
%ADD48R,0.03943X0.04337*%
%ADD50R,0.05518X0.04337*%
%ADD51R,0.03353X0.03747*%
%ADD52R,0.04337X0.05518*%
%ADD53R,0.03747X0.03353*%
%ADD54R,0.03550X0.04337*%
%ADD56R,0.02762X0.03550*%
%ADD58C,0.04337*%
%ADD59C,0.02362*%
%ADD60C,0.01778*%
%ADD61C,0.03162*%
%ADD75R,0.02953X0.03543*%
%ADD76R,0.03150X0.03543*%
%ADD77R,0.03740X0.02205*%
%ADD78R,0.06704X0.10261*%
%ADD79R,0.11417X0.09449*%
%ADD82R,0.04166X0.05142*%
%ADD84R,0.02362X0.01968*%
%ADD85C,0.02920*%
%ADD86R,0.04337X0.04337*%
%ADD87R,0.04337X0.02762*%
%ADD88R,0.05321X0.07487*%
%ADD89R,0.04337X0.03550*%
D18*
X166546Y130900D02*
D03*
X159853D02*
D03*
D19*
X277300Y256147D02*
D03*
Y262053D02*
D03*
D23*
X161285Y221822D02*
D03*
X168191Y219545D02*
D03*
X161285Y216493D02*
D03*
X168191Y224874D02*
D03*
D24*
X198136Y260700D02*
D03*
X193064D02*
D03*
X203464D02*
D03*
X187736D02*
D03*
D31*
X152304Y109265D02*
D03*
X206696Y140500D02*
D03*
X165296Y109265D02*
D03*
X193704Y140500D02*
D03*
D32*
X119700Y177696D02*
D03*
Y164704D02*
D03*
D38*
X171952Y233506D02*
D03*
X171155Y154000D02*
D03*
X178063Y233506D02*
D03*
X165045Y154000D02*
D03*
D48*
X140522Y183951D02*
D03*
X146821D02*
D03*
D50*
X192300Y155153D02*
D03*
X119300Y149747D02*
D03*
Y155653D02*
D03*
X192300Y149247D02*
D03*
D51*
X203500Y207500D02*
D03*
X224539Y159500D02*
D03*
X234539D02*
D03*
X207311Y195000D02*
D03*
X211839Y201299D02*
D03*
X222961Y230500D02*
D03*
X209961Y160000D02*
D03*
X192039Y179000D02*
D03*
X181539Y166500D02*
D03*
X192039Y195000D02*
D03*
X198461Y230000D02*
D03*
X225461Y195000D02*
D03*
X203039Y230000D02*
D03*
X219461Y160000D02*
D03*
X196961Y195000D02*
D03*
X202390D02*
D03*
X218039Y230500D02*
D03*
X193539Y230000D02*
D03*
X216760Y201299D02*
D03*
X229461Y159500D02*
D03*
X239461D02*
D03*
X205039Y160000D02*
D03*
X196961Y179000D02*
D03*
X186461Y166500D02*
D03*
X207961Y230000D02*
D03*
X220539Y195000D02*
D03*
X214539Y160000D02*
D03*
X208421Y207500D02*
D03*
D52*
X223953Y236500D02*
D03*
X183147Y105000D02*
D03*
X176916Y112700D02*
D03*
X177653Y105000D02*
D03*
X171747Y129200D02*
D03*
X165747Y142800D02*
D03*
X169753Y161500D02*
D03*
X138732Y147453D02*
D03*
X171747Y105000D02*
D03*
X177653Y129200D02*
D03*
X218047Y236500D02*
D03*
X163847Y161500D02*
D03*
X144638Y147453D02*
D03*
X189053Y105000D02*
D03*
X182821Y112700D02*
D03*
X171653Y142800D02*
D03*
D53*
X159809Y167305D02*
D03*
X171239Y167071D02*
D03*
X206500Y187961D02*
D03*
X208000Y168539D02*
D03*
X217500Y176039D02*
D03*
X170759Y193826D02*
D03*
X160236Y193839D02*
D03*
X175500Y191539D02*
D03*
X214500Y193461D02*
D03*
Y188539D02*
D03*
X170759Y198747D02*
D03*
X160236Y198760D02*
D03*
X159809Y172226D02*
D03*
X171239Y171993D02*
D03*
X175500Y196461D02*
D03*
X217500Y180961D02*
D03*
X208000Y173461D02*
D03*
X206500Y183039D02*
D03*
D54*
X210441Y107100D02*
D03*
X182247Y129200D02*
D03*
X182147Y137200D02*
D03*
X127447Y133000D02*
D03*
X177847Y142900D02*
D03*
X204535Y107100D02*
D03*
X188153Y129200D02*
D03*
X188053Y137200D02*
D03*
X183753Y142900D02*
D03*
X133353Y133000D02*
D03*
D56*
X128441Y169300D02*
D03*
X133559D02*
D03*
X175126Y180551D02*
D03*
X180401Y185551D02*
D03*
X199859Y160000D02*
D03*
X194741D02*
D03*
X175283Y185551D02*
D03*
X170008Y180551D02*
D03*
D58*
X122000Y112000D02*
D03*
Y258000D02*
D03*
X317000Y112000D02*
D03*
Y258000D02*
D03*
D59*
X198991Y152016D02*
D03*
Y155953D02*
D03*
D60*
X268000Y239000D02*
D03*
X288000Y159000D02*
D03*
X268000D02*
D03*
Y154000D02*
D03*
X298000Y234000D02*
D03*
X209146Y251724D02*
D03*
X220500Y247500D02*
D03*
X288000Y239000D02*
D03*
X293000Y159000D02*
D03*
X253000Y234000D02*
D03*
X268000D02*
D03*
X293000Y239000D02*
D03*
X198354Y260800D02*
D03*
X283000Y239000D02*
D03*
X298000D02*
D03*
X192947Y260800D02*
D03*
X283000Y234000D02*
D03*
X205476Y241724D02*
D03*
X240700Y245400D02*
D03*
X182476Y251724D02*
D03*
Y241724D02*
D03*
X133602Y169528D02*
D03*
X214299Y188701D02*
D03*
X273000Y239000D02*
D03*
X278000D02*
D03*
X177900Y129200D02*
D03*
X223064Y253900D02*
D03*
X154936Y243375D02*
D03*
X245000Y222461D02*
D03*
Y212461D02*
D03*
X245500Y185461D02*
D03*
X177900Y142943D02*
D03*
X258000Y229000D02*
D03*
X253000D02*
D03*
X258000Y224000D02*
D03*
X253000D02*
D03*
X258000Y219000D02*
D03*
X253000D02*
D03*
X172064Y250100D02*
D03*
X178476Y246724D02*
D03*
X205476D02*
D03*
X172064Y256800D02*
D03*
X263000Y229000D02*
D03*
X283000D02*
D03*
Y214000D02*
D03*
X278000D02*
D03*
X298000Y229000D02*
D03*
Y224000D02*
D03*
Y219000D02*
D03*
X288000D02*
D03*
X293000Y229000D02*
D03*
Y224000D02*
D03*
Y219000D02*
D03*
Y214000D02*
D03*
X288000Y229000D02*
D03*
Y214000D02*
D03*
Y224000D02*
D03*
X298000Y214000D02*
D03*
X263000Y224000D02*
D03*
X268000D02*
D03*
Y219000D02*
D03*
Y214000D02*
D03*
X263000Y219000D02*
D03*
X278000Y224000D02*
D03*
X273000D02*
D03*
Y219000D02*
D03*
Y214000D02*
D03*
X278000Y219000D02*
D03*
X258000Y234000D02*
D03*
X263000D02*
D03*
X273000D02*
D03*
X278000D02*
D03*
X288000D02*
D03*
X293000D02*
D03*
X149391Y194584D02*
D03*
X149388Y191437D02*
D03*
X163500Y243275D02*
D03*
X258000Y239000D02*
D03*
X253000D02*
D03*
X263000D02*
D03*
X271500Y136000D02*
D03*
X253000Y214000D02*
D03*
X258000D02*
D03*
X283000Y209000D02*
D03*
X288000D02*
D03*
X273000D02*
D03*
X278000D02*
D03*
X263000D02*
D03*
X268000D02*
D03*
X253000D02*
D03*
X258000D02*
D03*
X273000Y204000D02*
D03*
X278000D02*
D03*
X263000D02*
D03*
X268000D02*
D03*
X253000D02*
D03*
X258000D02*
D03*
X293000Y199000D02*
D03*
X298000D02*
D03*
X283000D02*
D03*
X288000D02*
D03*
X253000D02*
D03*
X258000D02*
D03*
X293000Y194000D02*
D03*
X298000D02*
D03*
X283000D02*
D03*
X288000D02*
D03*
X273000D02*
D03*
X278000D02*
D03*
X263000D02*
D03*
X268000D02*
D03*
X253000D02*
D03*
X258000D02*
D03*
X293000Y189000D02*
D03*
X298000D02*
D03*
X283000D02*
D03*
X288000D02*
D03*
X273000D02*
D03*
X278000D02*
D03*
X268000D02*
D03*
X263000Y214000D02*
D03*
Y189000D02*
D03*
X253000D02*
D03*
X258000D02*
D03*
X293000Y184000D02*
D03*
X298000D02*
D03*
X283000D02*
D03*
X288000D02*
D03*
X273000D02*
D03*
X278000D02*
D03*
X263000D02*
D03*
X268000D02*
D03*
X253000D02*
D03*
X258000D02*
D03*
X293000Y179000D02*
D03*
X298000D02*
D03*
X283000D02*
D03*
X288000D02*
D03*
X273000D02*
D03*
X278000D02*
D03*
X263000D02*
D03*
X268000D02*
D03*
X253000D02*
D03*
X258000D02*
D03*
X298000Y174000D02*
D03*
X293000D02*
D03*
X288000D02*
D03*
X263000D02*
D03*
X268000D02*
D03*
X253000D02*
D03*
X258000D02*
D03*
X298000Y169000D02*
D03*
X293000D02*
D03*
X283000D02*
D03*
X288000D02*
D03*
X273000D02*
D03*
X278000D02*
D03*
X263000D02*
D03*
X268000D02*
D03*
X253000D02*
D03*
X258000D02*
D03*
X293000Y164000D02*
D03*
X298000D02*
D03*
X283000D02*
D03*
X288000D02*
D03*
X268000D02*
D03*
X273000D02*
D03*
X258000D02*
D03*
X263000D02*
D03*
X298000Y159000D02*
D03*
X253000Y164000D02*
D03*
X278000Y159000D02*
D03*
X283000D02*
D03*
X273000D02*
D03*
X258000D02*
D03*
X263000D02*
D03*
X298000Y154000D02*
D03*
X253000Y159000D02*
D03*
X288000Y154000D02*
D03*
X293000D02*
D03*
X278000D02*
D03*
X283000D02*
D03*
X273000D02*
D03*
X258000D02*
D03*
X263000D02*
D03*
X253000D02*
D03*
X181700Y258600D02*
D03*
X209541Y260800D02*
D03*
X194741Y160000D02*
D03*
D61*
X191025Y148979D02*
D03*
X188200Y141300D02*
D03*
X188300Y137400D02*
D03*
X178063Y233506D02*
D03*
X188333Y129516D02*
D03*
D75*
X131171Y124216D02*
D03*
X134038Y112500D02*
D03*
X220962Y121900D02*
D03*
X138762Y112500D02*
D03*
X135895Y124216D02*
D03*
X216238Y121900D02*
D03*
D76*
X165472Y195884D02*
D03*
X170414Y214094D02*
D03*
Y207402D02*
D03*
X165472Y202577D02*
D03*
D77*
X268761Y125240D02*
D03*
Y117760D02*
D03*
X276439Y121500D02*
D03*
D78*
X135264Y161000D02*
D03*
X143536D02*
D03*
D79*
X243300Y130108D02*
D03*
Y106092D02*
D03*
D82*
X183600Y155655D02*
D03*
Y149545D02*
D03*
D84*
X149400Y194668D02*
D03*
Y190732D02*
D03*
D85*
X268000Y149000D02*
D03*
X258000D02*
D03*
X263000D02*
D03*
X253000D02*
D03*
X283000D02*
D03*
X273000D02*
D03*
X278000D02*
D03*
X288000D02*
D03*
X298000D02*
D03*
X293000D02*
D03*
X288000Y239000D02*
D03*
X298000Y234000D02*
D03*
X283000Y239000D02*
D03*
X253000Y154000D02*
D03*
X263000D02*
D03*
X258000D02*
D03*
X273000D02*
D03*
X268000D02*
D03*
X283000D02*
D03*
X278000D02*
D03*
X293000D02*
D03*
X288000D02*
D03*
X253000Y159000D02*
D03*
X298000Y154000D02*
D03*
X263000Y159000D02*
D03*
X258000D02*
D03*
X273000D02*
D03*
X268000D02*
D03*
X283000D02*
D03*
X278000D02*
D03*
X288000D02*
D03*
X293000D02*
D03*
X253000Y164000D02*
D03*
X298000Y159000D02*
D03*
X263000Y164000D02*
D03*
X258000D02*
D03*
X273000D02*
D03*
X268000D02*
D03*
X278000D02*
D03*
X288000D02*
D03*
X283000D02*
D03*
X298000D02*
D03*
X293000D02*
D03*
X258000Y169000D02*
D03*
X253000D02*
D03*
X268000D02*
D03*
X263000D02*
D03*
X278000D02*
D03*
X273000D02*
D03*
X288000D02*
D03*
X283000D02*
D03*
X293000D02*
D03*
X298000D02*
D03*
X258000Y174000D02*
D03*
X253000D02*
D03*
X268000D02*
D03*
X263000D02*
D03*
X278000D02*
D03*
X273000D02*
D03*
X288000D02*
D03*
X283000D02*
D03*
X293000D02*
D03*
X298000D02*
D03*
X258000Y179000D02*
D03*
X253000D02*
D03*
X268000D02*
D03*
X263000D02*
D03*
X278000D02*
D03*
X273000D02*
D03*
X288000D02*
D03*
X283000D02*
D03*
X298000D02*
D03*
X293000D02*
D03*
X258000Y184000D02*
D03*
X253000D02*
D03*
X268000D02*
D03*
X263000D02*
D03*
X278000D02*
D03*
X273000D02*
D03*
X288000D02*
D03*
X283000D02*
D03*
X298000D02*
D03*
X293000D02*
D03*
X258000Y189000D02*
D03*
X253000D02*
D03*
X263000D02*
D03*
Y214000D02*
D03*
X268000Y189000D02*
D03*
X278000D02*
D03*
X273000D02*
D03*
X288000D02*
D03*
X283000D02*
D03*
X298000D02*
D03*
X293000D02*
D03*
X258000Y194000D02*
D03*
X253000D02*
D03*
X268000D02*
D03*
X263000D02*
D03*
X278000D02*
D03*
X273000D02*
D03*
X288000D02*
D03*
X283000D02*
D03*
X298000D02*
D03*
X293000D02*
D03*
X258000Y199000D02*
D03*
X253000D02*
D03*
X268000D02*
D03*
X263000D02*
D03*
X278000D02*
D03*
X273000D02*
D03*
X288000D02*
D03*
X283000D02*
D03*
X298000D02*
D03*
X293000D02*
D03*
X258000Y204000D02*
D03*
X253000D02*
D03*
X268000D02*
D03*
X263000D02*
D03*
X278000D02*
D03*
X273000D02*
D03*
X288000D02*
D03*
X283000D02*
D03*
X298000D02*
D03*
X293000D02*
D03*
X258000Y209000D02*
D03*
X253000D02*
D03*
X268000D02*
D03*
X263000D02*
D03*
X278000D02*
D03*
X273000D02*
D03*
X288000D02*
D03*
X283000D02*
D03*
X298000D02*
D03*
X293000D02*
D03*
X258000Y214000D02*
D03*
X253000D02*
D03*
X293000Y239000D02*
D03*
X298000D02*
D03*
X263000D02*
D03*
X253000D02*
D03*
X258000D02*
D03*
X268000D02*
D03*
X293000Y234000D02*
D03*
X288000D02*
D03*
X278000D02*
D03*
X273000D02*
D03*
X268000D02*
D03*
X263000D02*
D03*
X258000D02*
D03*
X253000D02*
D03*
X278000Y219000D02*
D03*
X273000Y214000D02*
D03*
Y219000D02*
D03*
Y224000D02*
D03*
Y229000D02*
D03*
X278000Y224000D02*
D03*
X263000Y219000D02*
D03*
X268000Y214000D02*
D03*
Y219000D02*
D03*
Y224000D02*
D03*
Y229000D02*
D03*
X263000Y224000D02*
D03*
X298000Y214000D02*
D03*
X288000Y224000D02*
D03*
Y214000D02*
D03*
Y229000D02*
D03*
X293000Y214000D02*
D03*
Y219000D02*
D03*
Y224000D02*
D03*
Y229000D02*
D03*
X288000Y219000D02*
D03*
X298000D02*
D03*
Y224000D02*
D03*
Y229000D02*
D03*
X278000Y214000D02*
D03*
X283000D02*
D03*
Y219000D02*
D03*
Y224000D02*
D03*
Y229000D02*
D03*
Y234000D02*
D03*
X263000Y229000D02*
D03*
X278000D02*
D03*
X253000Y219000D02*
D03*
X258000D02*
D03*
X253000Y224000D02*
D03*
X258000D02*
D03*
X253000Y229000D02*
D03*
X258000D02*
D03*
X273000Y144000D02*
D03*
X268000D02*
D03*
X263000D02*
D03*
X258000D02*
D03*
X253000D02*
D03*
X278000D02*
D03*
X283000D02*
D03*
X288000D02*
D03*
X298000D02*
D03*
X293000D02*
D03*
X278000Y239000D02*
D03*
X273000D02*
D03*
D86*
X296237Y261253D02*
D03*
D87*
X288363Y254560D02*
D03*
X296237D02*
D03*
X288363Y262040D02*
D03*
D88*
X175636Y121600D02*
D03*
X256096Y108900D02*
D03*
X230004Y130500D02*
D03*
X230104Y113300D02*
D03*
X268104Y108900D02*
D03*
X217996Y130500D02*
D03*
X163628Y121600D02*
D03*
X218096Y113300D02*
D03*
D89*
X158834Y158210D02*
D03*
X150566D02*
D03*
X193750Y130953D02*
D03*
X150566Y152305D02*
D03*
X158834D02*
D03*
X193750Y125047D02*
D03*
M02*
