G04*
G04 #@! TF.GenerationSoftware,Altium Limited,Altium Designer,25.6.2 (33)*
G04*
G04 Layer_Color=32768*
%FSLAX25Y25*%
%MOIN*%
G70*
G04*
G04 #@! TF.SameCoordinates,D3077B53-F130-49B9-AE0B-FC42BD5CCE1B*
G04*
G04*
G04 #@! TF.FilePolarity,Positive*
G04*
G01*
G75*
%ADD11C,0.00787*%
%ADD62C,0.00394*%
%ADD90C,0.00197*%
D11*
X190033Y111133D02*
Y140267D01*
Y111133D02*
X219167D01*
Y140267D01*
X190033D02*
X219167D01*
X133535Y225845D02*
Y234555D01*
X137865D01*
Y225845D02*
Y234555D01*
X133535Y225845D02*
X137865D01*
X126047Y225185D02*
Y235815D01*
X131953D01*
Y225185D02*
Y235815D01*
X126047Y225185D02*
X131953D01*
X119347D02*
Y235815D01*
X125253D01*
Y225185D02*
Y235815D01*
X119347Y225185D02*
X125253D01*
X126047Y235385D02*
Y246015D01*
X131953D01*
Y235385D02*
Y246015D01*
X126047Y235385D02*
X131953D01*
X119347D02*
Y246015D01*
X125253D01*
Y235385D02*
Y246015D01*
X119347Y235385D02*
X125253D01*
X133535Y235345D02*
Y244055D01*
X137865D01*
Y235345D02*
Y244055D01*
X133535Y235345D02*
X137865D01*
X165045Y241210D02*
X173755D01*
X165045D02*
Y245540D01*
X173755D01*
Y241210D02*
Y245540D01*
X153245Y241210D02*
X161955D01*
X153245D02*
Y245540D01*
X161955D01*
Y241210D02*
Y245540D01*
X164161Y233772D02*
X174791D01*
X164161D02*
Y239677D01*
X174791D01*
Y233772D02*
Y239677D01*
X217413Y237693D02*
X231587D01*
X217413D02*
Y249307D01*
X231587D01*
Y237693D02*
Y249307D01*
X114832Y146537D02*
X131368D01*
Y138663D02*
Y146537D01*
X114832Y138663D02*
X131368D01*
X114832D02*
Y146537D01*
Y137837D02*
X131368D01*
Y129963D02*
Y137837D01*
X114832Y129963D02*
X131368D01*
X114832D02*
Y137837D01*
Y129137D02*
X131368D01*
Y121263D02*
Y129137D01*
X114832Y121263D02*
X131368D01*
X114832D02*
Y129137D01*
X153288Y104935D02*
X164312D01*
X153288D02*
Y109265D01*
X164312D01*
Y104935D02*
Y109265D01*
X153088Y142135D02*
X164112D01*
X153088D02*
Y146465D01*
X164112D01*
Y142135D02*
Y146465D01*
X114832Y155237D02*
X131368D01*
Y147363D02*
Y155237D01*
X114832Y147363D02*
X131368D01*
X114832D02*
Y155237D01*
X141685Y141547D02*
X152315D01*
X141685D02*
Y147453D01*
X152315D01*
Y141547D02*
Y147453D01*
X141885Y103947D02*
X152515D01*
X141885D02*
Y109853D01*
X152515D01*
Y103947D02*
Y109853D01*
X135533Y140267D02*
X164667D01*
Y111133D02*
Y140267D01*
X135533Y111133D02*
X164667D01*
X135533D02*
Y140267D01*
X286388Y111265D02*
X297412D01*
Y106935D02*
Y111265D01*
X286388Y106935D02*
X297412D01*
X286388D02*
Y111265D01*
X275079D02*
X284921D01*
Y106935D02*
Y111265D01*
X275079Y106935D02*
X284921D01*
X275079D02*
Y111265D01*
X207488Y104935D02*
X218512D01*
X207488D02*
Y109265D01*
X218512D01*
Y104935D02*
Y109265D01*
X169632Y116637D02*
X186168D01*
Y108763D02*
Y116637D01*
X169632Y108763D02*
X186168D01*
X169632D02*
Y116637D01*
X195685Y141447D02*
X206315D01*
X195685D02*
Y147353D01*
X206315D01*
Y141447D02*
Y147353D01*
X195985Y103947D02*
X206615D01*
X195985D02*
Y109853D01*
X206615D01*
Y103947D02*
Y109853D01*
X169632Y143337D02*
X186168D01*
Y135463D02*
Y143337D01*
X169632Y135463D02*
X186168D01*
X169632D02*
Y143337D01*
Y125537D02*
X186168D01*
Y117663D02*
Y125537D01*
X169632Y117663D02*
X186168D01*
X169632D02*
Y125537D01*
Y134437D02*
X186168D01*
Y126563D02*
Y134437D01*
X169632Y126563D02*
X186168D01*
X169632D02*
Y134437D01*
X220969Y141268D02*
X233568D01*
X220969Y124732D02*
Y141268D01*
Y124732D02*
X233568D01*
Y141268D01*
X220969Y103932D02*
X233568D01*
Y120468D01*
X220969D02*
X233568D01*
X220969Y103932D02*
Y120468D01*
X234969Y141268D02*
X247568D01*
X234969Y124732D02*
Y141268D01*
Y124732D02*
X247568D01*
Y141268D01*
X235001Y103932D02*
X247599D01*
Y120468D01*
X235001D02*
X247599D01*
X235001Y103932D02*
Y120468D01*
X133405Y148648D02*
Y156752D01*
Y148648D02*
X148595D01*
Y156752D01*
X133405D02*
X148595D01*
X129995Y156148D02*
Y164252D01*
X114805D02*
X129995D01*
X114805Y156148D02*
Y164252D01*
Y156148D02*
X129995D01*
X113291Y224055D02*
X124709D01*
X113291Y205945D02*
Y224055D01*
Y205945D02*
X124709D01*
Y224055D01*
X180555Y148291D02*
Y159709D01*
X162445D02*
X180555D01*
X162445Y148291D02*
Y159709D01*
Y148291D02*
X180555D01*
X239235Y233845D02*
X243565D01*
Y242555D01*
X239235D02*
X243565D01*
X239235Y233845D02*
Y242555D01*
X216045Y251735D02*
Y256065D01*
Y251735D02*
X224755D01*
Y256065D01*
X216045D02*
X224755D01*
X226185Y230947D02*
Y236853D01*
Y230947D02*
X236815D01*
Y236853D01*
X226185D02*
X236815D01*
X208235Y158055D02*
X212565D01*
X208235Y149345D02*
Y158055D01*
Y149345D02*
X212565D01*
Y158055D01*
X191216Y149457D02*
Y158512D01*
Y149457D02*
X206767D01*
Y158512D01*
X191216D02*
X206767D01*
X182047Y159015D02*
X187953D01*
X182047Y148385D02*
Y159015D01*
Y148385D02*
X187953D01*
Y159015D01*
X214147D02*
X220053D01*
X214147Y148385D02*
Y159015D01*
Y148385D02*
X220053D01*
Y159015D01*
X173755Y247935D02*
Y252265D01*
X165045D02*
X173755D01*
X165045Y247935D02*
Y252265D01*
Y247935D02*
X173755D01*
Y254635D02*
Y258965D01*
X165045D02*
X173755D01*
X165045Y254635D02*
Y258965D01*
Y254635D02*
X173755D01*
X217345Y258435D02*
Y262765D01*
Y258435D02*
X226055D01*
Y262765D01*
X217345D02*
X226055D01*
X270040Y133638D02*
Y138362D01*
X260960D02*
X270040D01*
X260960Y133638D02*
Y138362D01*
Y133638D02*
X270040D01*
X196188Y258635D02*
Y262965D01*
Y258635D02*
X207212D01*
Y262965D01*
X196188D02*
X207212D01*
X286890Y132949D02*
Y139051D01*
X273110D02*
X286890D01*
X273110Y132949D02*
Y139051D01*
Y132949D02*
X286890D01*
X195112Y258635D02*
Y262965D01*
X184088D02*
X195112D01*
X184088Y258635D02*
Y262965D01*
Y258635D02*
X195112D01*
X303012Y133835D02*
Y138165D01*
X291988D02*
X303012D01*
X291988Y133835D02*
Y138165D01*
Y133835D02*
X303012D01*
D62*
X245500Y181228D02*
Y184772D01*
X243728Y183000D02*
X247272D01*
X141476Y192756D02*
Y196693D01*
X139508Y194724D02*
X143445D01*
X208000Y193032D02*
Y196968D01*
X206031Y195000D02*
X209968D01*
X262100Y106931D02*
Y110869D01*
X260132Y108900D02*
X264069D01*
X184328Y105000D02*
X187872D01*
X186100Y103228D02*
Y106772D01*
X172928Y105000D02*
X176472D01*
X174700Y103228D02*
Y106772D01*
X243228Y200500D02*
X246772D01*
X245000Y198728D02*
Y202272D01*
X243228Y220000D02*
X246772D01*
X245000Y218228D02*
Y221772D01*
X243228Y210000D02*
X246772D01*
X245000Y208228D02*
Y211772D01*
X117431Y172200D02*
X121369D01*
X119400Y170231D02*
Y174169D01*
X154700Y150631D02*
Y154569D01*
X152732Y152600D02*
X156668D01*
X119500Y201228D02*
Y204772D01*
X117728Y203000D02*
X121272D01*
X118431Y185200D02*
X122369D01*
X120400Y183231D02*
Y187169D01*
X243531Y159500D02*
X247468D01*
X245500Y157531D02*
Y161469D01*
X243531Y171000D02*
X247468D01*
X245500Y169032D02*
Y172968D01*
X215728Y233700D02*
X219272D01*
X217500Y231928D02*
Y235472D01*
X235500Y240528D02*
Y244072D01*
X233728Y242300D02*
X237272D01*
X212100Y259028D02*
Y262572D01*
X210328Y260800D02*
X213872D01*
D90*
X243335Y178669D02*
X247665D01*
X243335Y187331D02*
X247665D01*
X243335Y178669D02*
Y187331D01*
X247665Y178669D02*
Y187331D01*
X123760Y165197D02*
X159193D01*
X123760Y224252D02*
X159193D01*
Y165197D02*
Y224252D01*
X123760Y165197D02*
Y224252D01*
X211980Y231429D02*
Y257020D01*
X175642D02*
X211980D01*
X175642Y231429D02*
Y257020D01*
Y231429D02*
X211980D01*
X172567Y159567D02*
X243433D01*
X172567Y230433D02*
X243433D01*
Y159567D02*
Y230433D01*
X172567Y159567D02*
Y230433D01*
X220468Y144638D02*
Y159362D01*
X241531D01*
Y144638D02*
Y159362D01*
X220468Y144638D02*
X241531D01*
X251667Y114412D02*
X272533D01*
X251667Y103388D02*
X272533D01*
X251667D02*
Y114412D01*
X272533Y103388D02*
Y114412D01*
X218706Y140947D02*
Y146853D01*
X206894Y140947D02*
Y146853D01*
Y140947D02*
X218706D01*
X206894Y146853D02*
X218706D01*
X210930Y143900D02*
X214670D01*
X212800Y142030D02*
Y145770D01*
X192596Y101063D02*
Y108937D01*
X179604Y101063D02*
Y108937D01*
Y101063D02*
X192596D01*
X179604Y108937D02*
X192596D01*
X168204Y101063D02*
Y108937D01*
X181196Y101063D02*
Y108937D01*
X168204D02*
X181196D01*
X168204Y101063D02*
X181196D01*
X242835Y196169D02*
Y204831D01*
X247165Y196169D02*
Y204831D01*
X242835Y196169D02*
X247165D01*
X242835Y204831D02*
X247165D01*
X247165Y215669D02*
Y224331D01*
X242835Y215669D02*
Y224331D01*
X247165D01*
X242835Y215669D02*
X247165D01*
Y205669D02*
Y214331D01*
X242835Y205669D02*
Y214331D01*
X247165D01*
X242835Y205669D02*
X247165D01*
X116250Y166885D02*
Y177515D01*
X122550Y166885D02*
Y177515D01*
X116250Y166885D02*
X122550D01*
X116250Y177515D02*
X122550D01*
X149385Y155750D02*
X160015D01*
X149385Y149450D02*
X160015D01*
X149385D02*
Y155750D01*
X160015Y149450D02*
Y155750D01*
X115169Y200835D02*
X123831D01*
X115169Y205165D02*
X123831D01*
Y200835D02*
Y205165D01*
X115169Y200835D02*
Y205165D01*
X117250Y179885D02*
Y190515D01*
X123550Y179885D02*
Y190515D01*
X117250Y179885D02*
X123550D01*
X117250Y190515D02*
X123550D01*
X248650Y154185D02*
Y164815D01*
X242350Y154185D02*
Y164815D01*
X248650D01*
X242350Y154185D02*
X248650D01*
X242350Y165685D02*
Y176315D01*
X248650Y165685D02*
Y176315D01*
X242350Y165685D02*
X248650D01*
X242350Y176315D02*
X248650D01*
X222618Y230944D02*
Y236456D01*
X212382Y230944D02*
Y236456D01*
Y230944D02*
X222618D01*
X212382Y236456D02*
X222618D01*
X233335Y238166D02*
X237665D01*
X233335Y246434D02*
X237665D01*
X233335Y238166D02*
Y246434D01*
X237665Y238166D02*
Y246434D01*
X207966Y262965D02*
X216234D01*
X207966Y258635D02*
X216234D01*
X207966D02*
Y262965D01*
X216234Y258635D02*
Y262965D01*
M02*
