G04*
G04 #@! TF.GenerationSoftware,Altium Limited,Altium Designer,25.6.2 (33)*
G04*
G04 Layer_Physical_Order=2*
G04 Layer_Color=16440176*
%FSLAX25Y25*%
%MOIN*%
G70*
G04*
G04 #@! TF.SameCoordinates,D3077B53-F130-49B9-AE0B-FC42BD5CCE1B*
G04*
G04*
G04 #@! TF.FilePolarity,Positive*
G04*
G01*
G75*
%ADD12C,0.00500*%
%ADD59C,0.02362*%
%ADD62C,0.00394*%
%ADD65C,0.00800*%
%ADD67C,0.03937*%
%ADD68C,0.01378*%
%ADD69C,0.00400*%
G36*
X329000Y260000D02*
Y110000D01*
X319000Y100000D01*
X120000D01*
X110000Y110000D01*
Y260000D01*
X120000Y270000D01*
X319000D01*
X329000Y260000D01*
D02*
G37*
%LPC*%
G36*
X209756Y261883D02*
X209326D01*
X208928Y261718D01*
X208623Y261413D01*
X208458Y261015D01*
Y260585D01*
X208623Y260187D01*
X208928Y259882D01*
X209326Y259717D01*
X209756D01*
X210154Y259882D01*
X210459Y260187D01*
X210624Y260585D01*
Y261015D01*
X210459Y261413D01*
X210154Y261718D01*
X209756Y261883D01*
D02*
G37*
G36*
X198569D02*
X198138D01*
X197740Y261718D01*
X197436Y261413D01*
X197271Y261015D01*
Y260585D01*
X197436Y260187D01*
X197740Y259882D01*
X198138Y259717D01*
X198569D01*
X198967Y259882D01*
X199271Y260187D01*
X199436Y260585D01*
Y261015D01*
X199271Y261413D01*
X198967Y261718D01*
X198569Y261883D01*
D02*
G37*
G36*
X193162D02*
X192731D01*
X192333Y261718D01*
X192029Y261413D01*
X191864Y261015D01*
Y260585D01*
X192029Y260187D01*
X192333Y259882D01*
X192731Y259717D01*
X193162D01*
X193560Y259882D01*
X193864Y260187D01*
X194029Y260585D01*
Y261015D01*
X193864Y261413D01*
X193560Y261718D01*
X193162Y261883D01*
D02*
G37*
G36*
X181915Y259683D02*
X181485D01*
X181087Y259518D01*
X180782Y259213D01*
X180617Y258815D01*
Y258385D01*
X180782Y257987D01*
X181087Y257682D01*
X181485Y257517D01*
X181915D01*
X182313Y257682D01*
X182618Y257987D01*
X182783Y258385D01*
Y258815D01*
X182618Y259213D01*
X182313Y259518D01*
X181915Y259683D01*
D02*
G37*
G36*
X172280Y257883D02*
X171849D01*
X171451Y257718D01*
X171146Y257413D01*
X170982Y257015D01*
Y256585D01*
X171146Y256187D01*
X171451Y255882D01*
X171849Y255717D01*
X172280D01*
X172678Y255882D01*
X172982Y256187D01*
X173147Y256585D01*
Y257015D01*
X172982Y257413D01*
X172678Y257718D01*
X172280Y257883D01*
D02*
G37*
G36*
X223280Y254983D02*
X222849D01*
X222451Y254818D01*
X222146Y254513D01*
X221982Y254115D01*
Y253685D01*
X222146Y253287D01*
X222451Y252982D01*
X222849Y252817D01*
X223280D01*
X223677Y252982D01*
X223982Y253287D01*
X224147Y253685D01*
Y254115D01*
X223982Y254513D01*
X223677Y254818D01*
X223280Y254983D01*
D02*
G37*
G36*
X182692Y252807D02*
X182261D01*
X181863Y252642D01*
X181559Y252338D01*
X181394Y251940D01*
Y251509D01*
X181559Y251111D01*
X181863Y250807D01*
X182261Y250642D01*
X182692D01*
X183090Y250807D01*
X183394Y251111D01*
X183559Y251509D01*
Y251940D01*
X183394Y252338D01*
X183090Y252642D01*
X182692Y252807D01*
D02*
G37*
G36*
X172280Y251183D02*
X171849D01*
X171451Y251018D01*
X171146Y250713D01*
X170982Y250315D01*
Y249885D01*
X171146Y249487D01*
X171451Y249182D01*
X171849Y249017D01*
X172280D01*
X172678Y249182D01*
X172982Y249487D01*
X173147Y249885D01*
Y250315D01*
X172982Y250713D01*
X172678Y251018D01*
X172280Y251183D01*
D02*
G37*
G36*
X239313Y250875D02*
X238687D01*
X238108Y250635D01*
X237665Y250192D01*
X237425Y249613D01*
Y248987D01*
X237665Y248408D01*
X238108Y247965D01*
X238687Y247725D01*
X239313D01*
X239892Y247965D01*
X240335Y248408D01*
X240575Y248987D01*
Y249613D01*
X240335Y250192D01*
X239892Y250635D01*
X239313Y250875D01*
D02*
G37*
G36*
X205692Y247807D02*
X205261D01*
X204863Y247642D01*
X204558Y247338D01*
X204394Y246940D01*
Y246509D01*
X204558Y246111D01*
X204863Y245807D01*
X205261Y245642D01*
X205692D01*
X206090Y245807D01*
X206394Y246111D01*
X206559Y246509D01*
Y246940D01*
X206394Y247338D01*
X206090Y247642D01*
X205692Y247807D01*
D02*
G37*
G36*
X178692D02*
X178261D01*
X177863Y247642D01*
X177559Y247338D01*
X177394Y246940D01*
Y246509D01*
X177559Y246111D01*
X177863Y245807D01*
X178261Y245642D01*
X178692D01*
X179090Y245807D01*
X179394Y246111D01*
X179559Y246509D01*
Y246940D01*
X179394Y247338D01*
X179090Y247642D01*
X178692Y247807D01*
D02*
G37*
G36*
X155151Y244458D02*
X154720D01*
X154323Y244293D01*
X154018Y243988D01*
X153853Y243590D01*
Y243159D01*
X154018Y242761D01*
X154323Y242457D01*
X154720Y242292D01*
X155151D01*
X155549Y242457D01*
X155854Y242761D01*
X156018Y243159D01*
Y243590D01*
X155854Y243988D01*
X155549Y244293D01*
X155151Y244458D01*
D02*
G37*
G36*
X163715Y244357D02*
X163285D01*
X162887Y244193D01*
X162582Y243888D01*
X162417Y243490D01*
Y243059D01*
X162582Y242661D01*
X162887Y242357D01*
X163285Y242192D01*
X163715D01*
X164113Y242357D01*
X164418Y242661D01*
X164583Y243059D01*
Y243490D01*
X164418Y243888D01*
X164113Y244193D01*
X163715Y244357D01*
D02*
G37*
G36*
X182692Y242807D02*
X182261D01*
X181863Y242642D01*
X181559Y242338D01*
X181394Y241940D01*
Y241509D01*
X181559Y241111D01*
X181863Y240807D01*
X182261Y240642D01*
X182692D01*
X183090Y240807D01*
X183394Y241111D01*
X183559Y241509D01*
Y241940D01*
X183394Y242338D01*
X183090Y242642D01*
X182692Y242807D01*
D02*
G37*
G36*
X298215Y240083D02*
X297785D01*
X297387Y239918D01*
X297082Y239613D01*
X296917Y239215D01*
Y238785D01*
X297082Y238387D01*
X297387Y238082D01*
X297785Y237917D01*
X298215D01*
X298613Y238082D01*
X298918Y238387D01*
X299083Y238785D01*
Y239215D01*
X298918Y239613D01*
X298613Y239918D01*
X298215Y240083D01*
D02*
G37*
G36*
X293215D02*
X292785D01*
X292387Y239918D01*
X292082Y239613D01*
X291917Y239215D01*
Y238785D01*
X292082Y238387D01*
X292387Y238082D01*
X292785Y237917D01*
X293215D01*
X293613Y238082D01*
X293918Y238387D01*
X294083Y238785D01*
Y239215D01*
X293918Y239613D01*
X293613Y239918D01*
X293215Y240083D01*
D02*
G37*
G36*
X172644Y237807D02*
X172214D01*
X171816Y237642D01*
X171511Y237338D01*
X171346Y236940D01*
Y236509D01*
X171511Y236111D01*
X171816Y235807D01*
X172214Y235642D01*
X172644D01*
X173042Y235807D01*
X173347Y236111D01*
X173512Y236509D01*
Y236940D01*
X173347Y237338D01*
X173042Y237642D01*
X172644Y237807D01*
D02*
G37*
G36*
X240915Y246483D02*
X240485D01*
X240087Y246318D01*
X239782Y246013D01*
X239617Y245615D01*
Y245185D01*
X239767Y244824D01*
X239700Y244642D01*
X239582Y244430D01*
X199562D01*
X199110Y244243D01*
X188901Y234034D01*
X179552Y234027D01*
X179398Y234398D01*
X178955Y234841D01*
X178376Y235081D01*
X177750D01*
X177171Y234841D01*
X176728Y234398D01*
X176573Y234025D01*
X145500Y234000D01*
X145346Y233846D01*
X142436D01*
X142173Y234240D01*
X142275Y234487D01*
Y235113D01*
X142035Y235692D01*
X141592Y236135D01*
X141013Y236375D01*
X140387D01*
X139808Y236135D01*
X139365Y235692D01*
X139125Y235113D01*
Y234487D01*
X139227Y234240D01*
X138964Y233846D01*
X125654D01*
Y222006D01*
X125124Y221476D01*
X124937Y221024D01*
Y219271D01*
X124543Y219108D01*
X124373Y219278D01*
X123975Y219443D01*
X123545D01*
X123147Y219278D01*
X122842Y218973D01*
X122677Y218576D01*
Y218145D01*
X122842Y217747D01*
X123147Y217442D01*
X123545Y217278D01*
X123975D01*
X124373Y217442D01*
X124543Y217613D01*
X124937Y217450D01*
Y204090D01*
X125124Y203639D01*
X125566Y203197D01*
X125572Y203183D01*
X125654Y203101D01*
Y168378D01*
X135681Y158350D01*
X148991D01*
Y157897D01*
X149231Y157318D01*
X149674Y156875D01*
X150253Y156635D01*
X150879D01*
X151458Y156875D01*
X151901Y157318D01*
X152141Y157897D01*
Y158350D01*
X157259D01*
Y157897D01*
X157499Y157318D01*
X157942Y156875D01*
X158521Y156635D01*
X159147D01*
X159726Y156875D01*
X160169Y157318D01*
X160409Y157897D01*
Y158350D01*
X192752D01*
Y155018D01*
X192802Y154767D01*
X192944Y154554D01*
X201295Y146203D01*
X201508Y146061D01*
X201759Y146011D01*
X293248D01*
X293499Y146061D01*
X293712Y146203D01*
X296258Y148749D01*
X296400Y148962D01*
X296450Y149213D01*
Y151522D01*
X297846Y152917D01*
X298215D01*
X298613Y153082D01*
X298918Y153387D01*
X299083Y153785D01*
Y154215D01*
X298918Y154613D01*
X298613Y154918D01*
X298215Y155083D01*
X297785D01*
X297387Y154918D01*
X297082Y154613D01*
X296917Y154215D01*
Y153846D01*
X295330Y152258D01*
X295188Y152045D01*
X295138Y151794D01*
Y149485D01*
X292976Y147324D01*
X202031D01*
X194065Y155290D01*
Y158350D01*
X196574D01*
Y155218D01*
X196762Y154763D01*
X198189Y153336D01*
X198644Y153148D01*
X199460D01*
X201710Y150898D01*
X202164Y150710D01*
X241142D01*
X241285Y150316D01*
X241082Y150113D01*
X240917Y149715D01*
Y149285D01*
X241082Y148887D01*
X241387Y148582D01*
X241785Y148417D01*
X242215D01*
X242613Y148582D01*
X242918Y148887D01*
X243083Y149285D01*
Y149715D01*
X242918Y150113D01*
X242715Y150316D01*
X242858Y150710D01*
X290353D01*
X290807Y150898D01*
X292826Y152917D01*
X293215D01*
X293613Y153082D01*
X293918Y153387D01*
X294083Y153785D01*
Y154215D01*
X293918Y154613D01*
X293613Y154918D01*
X293215Y155083D01*
X292785D01*
X292387Y154918D01*
X292082Y154613D01*
X291917Y154215D01*
Y153826D01*
X290087Y151995D01*
X287419D01*
X287268Y152359D01*
X287826Y152917D01*
X288215D01*
X288613Y153082D01*
X288918Y153387D01*
X289083Y153785D01*
Y154215D01*
X288918Y154613D01*
X288613Y154918D01*
X288215Y155083D01*
X287785D01*
X287387Y154918D01*
X287082Y154613D01*
X286917Y154215D01*
Y153826D01*
X285880Y152789D01*
X283856D01*
X283714Y153183D01*
X283918Y153387D01*
X284083Y153785D01*
Y154215D01*
X283918Y154613D01*
X283613Y154918D01*
X283215Y155083D01*
X282785D01*
X282387Y154918D01*
X282082Y154613D01*
X281917Y154215D01*
Y153785D01*
X282082Y153387D01*
X282286Y153183D01*
X282144Y152789D01*
X278856D01*
X278714Y153183D01*
X278918Y153387D01*
X279083Y153785D01*
Y154215D01*
X279070Y154247D01*
X279262Y154608D01*
X279325Y154659D01*
X279731Y154827D01*
X282821Y157917D01*
X283215D01*
X283613Y158082D01*
X283918Y158387D01*
X284083Y158785D01*
Y159215D01*
X283918Y159613D01*
X283613Y159918D01*
X283215Y160083D01*
X282785D01*
X282387Y159918D01*
X282082Y159613D01*
X281917Y159215D01*
Y158821D01*
X279015Y155919D01*
X247889D01*
X247437Y155731D01*
X247226Y155520D01*
X237185D01*
X237094Y155633D01*
X236971Y155914D01*
X237100Y156226D01*
Y156656D01*
X237087Y156688D01*
X237351Y157081D01*
X276720D01*
X277172Y157269D01*
X277821Y157917D01*
X278215D01*
X278613Y158082D01*
X278918Y158387D01*
X279083Y158785D01*
Y159215D01*
X278918Y159613D01*
X278613Y159918D01*
X278215Y160083D01*
X277785D01*
X277387Y159918D01*
X277082Y159613D01*
X276917Y159215D01*
Y158821D01*
X276456Y158360D01*
X274333D01*
X274070Y158753D01*
X274083Y158785D01*
Y159215D01*
X273918Y159613D01*
X273613Y159918D01*
X273215Y160083D01*
X272785D01*
X272387Y159918D01*
X272082Y159613D01*
X271917Y159215D01*
Y158785D01*
X271930Y158753D01*
X271667Y158360D01*
X269333D01*
X269070Y158753D01*
X269083Y158785D01*
Y159215D01*
X268918Y159613D01*
X268613Y159918D01*
X268215Y160083D01*
X267785D01*
X267387Y159918D01*
X267082Y159613D01*
X266917Y159215D01*
Y158785D01*
X266930Y158753D01*
X266667Y158360D01*
X264333D01*
X264070Y158753D01*
X264083Y158785D01*
Y159215D01*
X263918Y159613D01*
X263613Y159918D01*
X263215Y160083D01*
X262785D01*
X262387Y159918D01*
X262082Y159613D01*
X261917Y159215D01*
Y158785D01*
X261930Y158753D01*
X261667Y158360D01*
X259333D01*
X259070Y158753D01*
X259083Y158785D01*
Y159215D01*
X258918Y159613D01*
X258613Y159918D01*
X258215Y160083D01*
X257785D01*
X257387Y159918D01*
X257082Y159613D01*
X256917Y159215D01*
Y158785D01*
X256930Y158753D01*
X256667Y158360D01*
X254333D01*
X254070Y158753D01*
X254083Y158785D01*
Y159215D01*
X253918Y159613D01*
X253613Y159918D01*
X253215Y160083D01*
X252785D01*
X252387Y159918D01*
X252082Y159613D01*
X251917Y159215D01*
Y158785D01*
X251930Y158753D01*
X251667Y158360D01*
X236818D01*
X235226Y159952D01*
X234774Y160139D01*
X217056D01*
X217003Y160219D01*
X217213Y160613D01*
X295483D01*
X296917Y159179D01*
Y158785D01*
X297082Y158387D01*
X297387Y158082D01*
X297785Y157917D01*
X298215D01*
X298613Y158082D01*
X298918Y158387D01*
X299083Y158785D01*
Y159215D01*
X298918Y159613D01*
X298613Y159918D01*
X298215Y160083D01*
X297821D01*
X296200Y161704D01*
X295748Y161891D01*
X241111D01*
X240961Y162255D01*
X242066Y163361D01*
X252108D01*
X252387Y163082D01*
X252785Y162917D01*
X253215D01*
X253613Y163082D01*
X253918Y163387D01*
X254083Y163785D01*
Y164215D01*
X254031Y164341D01*
X254294Y164735D01*
X256706D01*
X256969Y164341D01*
X256917Y164215D01*
Y163785D01*
X257082Y163387D01*
X257387Y163082D01*
X257785Y162917D01*
X258215D01*
X258613Y163082D01*
X258918Y163387D01*
X259083Y163785D01*
Y164215D01*
X259031Y164341D01*
X259294Y164735D01*
X261706D01*
X261969Y164341D01*
X261917Y164215D01*
Y163785D01*
X262082Y163387D01*
X262387Y163082D01*
X262785Y162917D01*
X263215D01*
X263613Y163082D01*
X263918Y163387D01*
X264083Y163785D01*
Y164215D01*
X264031Y164341D01*
X264294Y164735D01*
X266706D01*
X266969Y164341D01*
X266917Y164215D01*
Y163785D01*
X267082Y163387D01*
X267387Y163082D01*
X267785Y162917D01*
X268215D01*
X268613Y163082D01*
X268918Y163387D01*
X269083Y163785D01*
Y164215D01*
X269031Y164341D01*
X269294Y164735D01*
X271706D01*
X271969Y164341D01*
X271917Y164215D01*
Y163785D01*
X272082Y163387D01*
X272387Y163082D01*
X272785Y162917D01*
X273215D01*
X273613Y163082D01*
X273918Y163387D01*
X274083Y163785D01*
Y164215D01*
X274031Y164341D01*
X274294Y164735D01*
X276184D01*
X276636Y164922D01*
X279779Y168065D01*
X279966Y168517D01*
Y171871D01*
X286455Y178361D01*
X287108D01*
X287387Y178082D01*
X287785Y177917D01*
X288215D01*
X288613Y178082D01*
X288918Y178387D01*
X288931Y178418D01*
X289395Y178510D01*
X292361Y175545D01*
Y174892D01*
X292082Y174613D01*
X291917Y174215D01*
Y173785D01*
X292082Y173387D01*
X292387Y173082D01*
X292785Y172917D01*
X293215D01*
X293613Y173082D01*
X293918Y173387D01*
X294083Y173785D01*
Y174215D01*
X293967Y174496D01*
X294300Y174719D01*
X295471Y173548D01*
X295923Y173361D01*
X297108D01*
X297387Y173082D01*
X297785Y172917D01*
X298215D01*
X298613Y173082D01*
X298918Y173387D01*
X299083Y173785D01*
Y174215D01*
X298918Y174613D01*
X298613Y174918D01*
X298215Y175083D01*
X297785D01*
X297387Y174918D01*
X297108Y174639D01*
X296188D01*
X293273Y177554D01*
X293393Y177991D01*
X293613Y178082D01*
X293918Y178387D01*
X294083Y178785D01*
Y179215D01*
X293918Y179613D01*
X293613Y179918D01*
X293215Y180083D01*
X292785D01*
X292387Y179918D01*
X292082Y179613D01*
X291991Y179393D01*
X291554Y179273D01*
X289308Y181519D01*
X288856Y181706D01*
X254388D01*
X253490Y182605D01*
X253582Y183069D01*
X253613Y183082D01*
X253918Y183387D01*
X254083Y183785D01*
Y184215D01*
X253918Y184613D01*
X253613Y184918D01*
X253215Y185083D01*
X252785D01*
X252387Y184918D01*
X252082Y184613D01*
X251917Y184215D01*
X251858Y184176D01*
X251509Y184320D01*
X246448D01*
X246285Y184714D01*
X246418Y184847D01*
X246583Y185245D01*
Y185676D01*
X246532Y185798D01*
X246795Y186191D01*
X286714D01*
X287510Y185395D01*
X287418Y184931D01*
X287387Y184918D01*
X287082Y184613D01*
X286917Y184215D01*
Y183785D01*
X287082Y183387D01*
X287387Y183082D01*
X287785Y182917D01*
X288215D01*
X288613Y183082D01*
X288918Y183387D01*
X288931Y183418D01*
X289357Y183548D01*
X289375Y183541D01*
X289809Y183361D01*
X292108D01*
X292387Y183082D01*
X292785Y182917D01*
X293215D01*
X293613Y183082D01*
X293918Y183387D01*
X294083Y183785D01*
Y184215D01*
X293918Y184613D01*
X293613Y184918D01*
X293215Y185083D01*
X292785D01*
X292387Y184918D01*
X292108Y184639D01*
X290074D01*
X287431Y187283D01*
X286979Y187470D01*
X234012D01*
X233999Y187489D01*
X233891Y187864D01*
X234115Y188087D01*
X234279Y188485D01*
Y188875D01*
X235862Y190457D01*
X252739D01*
X252785Y190083D01*
X252387Y189918D01*
X252082Y189613D01*
X251917Y189215D01*
Y188785D01*
X252082Y188387D01*
X252387Y188082D01*
X252785Y187917D01*
X253215D01*
X253613Y188082D01*
X253918Y188387D01*
X254083Y188785D01*
Y189215D01*
X253918Y189613D01*
X253613Y189918D01*
X253215Y190083D01*
X253261Y190457D01*
X257739D01*
X257785Y190083D01*
X257387Y189918D01*
X257082Y189613D01*
X256917Y189215D01*
Y188785D01*
X257082Y188387D01*
X257387Y188082D01*
X257785Y187917D01*
X258215D01*
X258613Y188082D01*
X258918Y188387D01*
X259083Y188785D01*
Y189215D01*
X258918Y189613D01*
X258613Y189918D01*
X258215Y190083D01*
X258261Y190457D01*
X262739D01*
X262785Y190083D01*
X262387Y189918D01*
X262082Y189613D01*
X261917Y189215D01*
Y188785D01*
X262082Y188387D01*
X262387Y188082D01*
X262785Y187917D01*
X263215D01*
X263613Y188082D01*
X263918Y188387D01*
X264083Y188785D01*
Y189215D01*
X263918Y189613D01*
X263613Y189918D01*
X263215Y190083D01*
X263261Y190457D01*
X267739D01*
X267785Y190083D01*
X267387Y189918D01*
X267082Y189613D01*
X266917Y189215D01*
Y188785D01*
X267082Y188387D01*
X267387Y188082D01*
X267785Y187917D01*
X268215D01*
X268613Y188082D01*
X268918Y188387D01*
X269083Y188785D01*
Y189215D01*
X268918Y189613D01*
X268613Y189918D01*
X268215Y190083D01*
X268261Y190457D01*
X272739D01*
X272785Y190083D01*
X272387Y189918D01*
X272082Y189613D01*
X271917Y189215D01*
Y188785D01*
X272082Y188387D01*
X272387Y188082D01*
X272785Y187917D01*
X273215D01*
X273613Y188082D01*
X273918Y188387D01*
X274083Y188785D01*
Y189215D01*
X273918Y189613D01*
X273613Y189918D01*
X273215Y190083D01*
X273261Y190457D01*
X277739D01*
X277785Y190083D01*
X277387Y189918D01*
X277082Y189613D01*
X276917Y189215D01*
Y188785D01*
X277082Y188387D01*
X277387Y188082D01*
X277785Y187917D01*
X278215D01*
X278613Y188082D01*
X278918Y188387D01*
X279083Y188785D01*
Y189215D01*
X278918Y189613D01*
X278613Y189918D01*
X278215Y190083D01*
X278261Y190457D01*
X282739D01*
X282785Y190083D01*
X282387Y189918D01*
X282082Y189613D01*
X281917Y189215D01*
Y188785D01*
X282082Y188387D01*
X282387Y188082D01*
X282785Y187917D01*
X283215D01*
X283613Y188082D01*
X283918Y188387D01*
X284083Y188785D01*
Y189179D01*
X284574Y189670D01*
X286680D01*
X286943Y189277D01*
X286917Y189215D01*
Y188785D01*
X287082Y188387D01*
X287387Y188082D01*
X287785Y187917D01*
X288215D01*
X288613Y188082D01*
X288918Y188387D01*
X289083Y188785D01*
Y189215D01*
X289057Y189277D01*
X289320Y189670D01*
X291680D01*
X291943Y189277D01*
X291917Y189215D01*
Y188785D01*
X292082Y188387D01*
X292387Y188082D01*
X292785Y187917D01*
X293215D01*
X293613Y188082D01*
X293918Y188387D01*
X294083Y188785D01*
Y189215D01*
X294057Y189277D01*
X294320Y189670D01*
X296680D01*
X296943Y189277D01*
X296917Y189215D01*
Y188785D01*
X297082Y188387D01*
X297387Y188082D01*
X297785Y187917D01*
X298215D01*
X298613Y188082D01*
X298918Y188387D01*
X299083Y188785D01*
Y189215D01*
X299003Y189407D01*
X299061Y189857D01*
X302352Y193148D01*
X302539Y193600D01*
Y199000D01*
X302352Y199452D01*
X299552Y202252D01*
X299100Y202439D01*
X253240D01*
X253029Y202833D01*
X253086Y202917D01*
X253215D01*
X253613Y203082D01*
X253918Y203387D01*
X254083Y203785D01*
Y204215D01*
X254070Y204247D01*
X254333Y204640D01*
X256456D01*
X256917Y204179D01*
Y203785D01*
X257082Y203387D01*
X257387Y203082D01*
X257785Y202917D01*
X258215D01*
X258613Y203082D01*
X258918Y203387D01*
X259083Y203785D01*
Y204215D01*
X258918Y204613D01*
X258613Y204918D01*
X258333Y205034D01*
X258411Y205428D01*
X261031D01*
X261065Y205414D01*
X262555D01*
X262633Y205020D01*
X262387Y204918D01*
X262082Y204613D01*
X261917Y204215D01*
Y203785D01*
X262082Y203387D01*
X262387Y203082D01*
X262785Y202917D01*
X263215D01*
X263613Y203082D01*
X263918Y203387D01*
X264083Y203785D01*
Y204215D01*
X263918Y204613D01*
X263613Y204918D01*
X263367Y205020D01*
X263445Y205414D01*
X267555D01*
X267633Y205020D01*
X267387Y204918D01*
X267082Y204613D01*
X266917Y204215D01*
Y203785D01*
X267082Y203387D01*
X267387Y203082D01*
X267785Y202917D01*
X268215D01*
X268613Y203082D01*
X268918Y203387D01*
X269083Y203785D01*
Y204215D01*
X268918Y204613D01*
X268613Y204918D01*
X268367Y205020D01*
X268445Y205414D01*
X271862D01*
X272314Y205601D01*
X293452Y226739D01*
X293639Y227190D01*
Y228108D01*
X293918Y228387D01*
X294083Y228785D01*
Y229215D01*
X293918Y229613D01*
X293613Y229918D01*
X293215Y230083D01*
X292785D01*
X292387Y229918D01*
X292082Y229613D01*
X291917Y229215D01*
Y228785D01*
X292082Y228387D01*
X292361Y228108D01*
Y227455D01*
X289395Y224490D01*
X288931Y224582D01*
X288918Y224613D01*
X288613Y224918D01*
X288215Y225083D01*
X287785D01*
X287387Y224918D01*
X287082Y224613D01*
X286917Y224215D01*
Y223785D01*
X287082Y223387D01*
X287387Y223082D01*
X287418Y223069D01*
X287510Y222605D01*
X279395Y214490D01*
X278931Y214582D01*
X278918Y214613D01*
X278613Y214918D01*
X278215Y215083D01*
X277785D01*
X277387Y214918D01*
X277082Y214613D01*
X276917Y214215D01*
Y213785D01*
X277082Y213387D01*
X277387Y213082D01*
X277418Y213069D01*
X277510Y212605D01*
X274395Y209490D01*
X273931Y209582D01*
X273918Y209613D01*
X273613Y209918D01*
X273215Y210083D01*
X272785D01*
X272387Y209918D01*
X272082Y209613D01*
X271917Y209215D01*
Y208785D01*
X272082Y208387D01*
X272387Y208082D01*
X272418Y208069D01*
X272510Y207605D01*
X271598Y206692D01*
X261085D01*
X261051Y206706D01*
X250253D01*
X250219Y206692D01*
X245385D01*
X245141Y207086D01*
X245174Y207254D01*
X245225Y207377D01*
Y207522D01*
X245253Y207547D01*
X245619Y207697D01*
X245877Y207524D01*
X246194Y207461D01*
X246317Y207410D01*
X246436D01*
X246560Y207461D01*
X246876Y207524D01*
X247249Y207773D01*
X247498Y208147D01*
X247562Y208463D01*
X247613Y208587D01*
Y210361D01*
X252427D01*
X252506Y209967D01*
X252387Y209918D01*
X252082Y209613D01*
X251917Y209215D01*
Y208785D01*
X252082Y208387D01*
X252387Y208082D01*
X252785Y207917D01*
X253215D01*
X253613Y208082D01*
X253918Y208387D01*
X254083Y208785D01*
Y209215D01*
X253918Y209613D01*
X253613Y209918D01*
X253494Y209967D01*
X253573Y210361D01*
X257427D01*
X257506Y209967D01*
X257387Y209918D01*
X257082Y209613D01*
X256917Y209215D01*
Y208785D01*
X257082Y208387D01*
X257387Y208082D01*
X257785Y207917D01*
X258215D01*
X258613Y208082D01*
X258918Y208387D01*
X259083Y208785D01*
Y209215D01*
X258918Y209613D01*
X258613Y209918D01*
X258494Y209967D01*
X258573Y210361D01*
X262427D01*
X262506Y209967D01*
X262387Y209918D01*
X262082Y209613D01*
X261917Y209215D01*
Y208785D01*
X262082Y208387D01*
X262387Y208082D01*
X262785Y207917D01*
X263215D01*
X263613Y208082D01*
X263918Y208387D01*
X264083Y208785D01*
Y209215D01*
X263918Y209613D01*
X263613Y209918D01*
X263494Y209967D01*
X263573Y210361D01*
X267427D01*
X267506Y209967D01*
X267387Y209918D01*
X267082Y209613D01*
X266917Y209215D01*
Y208785D01*
X267082Y208387D01*
X267387Y208082D01*
X267785Y207917D01*
X268215D01*
X268613Y208082D01*
X268918Y208387D01*
X269083Y208785D01*
Y209215D01*
X268918Y209613D01*
X268613Y209918D01*
X268494Y209967D01*
X268573Y210361D01*
X270000D01*
X270452Y210548D01*
X272821Y212917D01*
X273215D01*
X273613Y213082D01*
X273918Y213387D01*
X274083Y213785D01*
Y214215D01*
X273918Y214613D01*
X273613Y214918D01*
X273215Y215083D01*
X272785D01*
X272387Y214918D01*
X272082Y214613D01*
X271917Y214215D01*
Y213821D01*
X269735Y211639D01*
X247511D01*
X247387Y211588D01*
X247071Y211525D01*
X246698Y211276D01*
X246656Y211213D01*
X246640Y211208D01*
X246200Y211240D01*
X246056Y211457D01*
X245949Y211528D01*
X245918Y211847D01*
X246083Y212245D01*
Y212676D01*
X245918Y213074D01*
X245613Y213379D01*
X245215Y213543D01*
X244785D01*
X244387Y213379D01*
X244260Y213252D01*
X243785Y213307D01*
X243668Y213482D01*
X243295Y213731D01*
X242979Y213794D01*
X242855Y213845D01*
X242736D01*
X242612Y213794D01*
X242296Y213731D01*
X241923Y213482D01*
X241673Y213109D01*
X241611Y212792D01*
X241559Y212669D01*
Y211955D01*
X241166Y211792D01*
X240060Y212897D01*
X239608Y213084D01*
X237579D01*
X237345Y213478D01*
X237429Y213682D01*
Y214113D01*
X237264Y214511D01*
X237040Y214735D01*
X237149Y215110D01*
X237161Y215128D01*
X244768D01*
X245220Y215316D01*
X248479Y218575D01*
X252821Y222917D01*
X253215D01*
X253613Y223082D01*
X253918Y223387D01*
X253946Y223454D01*
X254410Y223546D01*
X255753Y222203D01*
X255966Y222061D01*
X256217Y222011D01*
X259783D01*
X260034Y222061D01*
X260247Y222203D01*
X261590Y223546D01*
X262054Y223454D01*
X262082Y223387D01*
X262387Y223082D01*
X262785Y222917D01*
X263215D01*
X263613Y223082D01*
X263918Y223387D01*
X264083Y223785D01*
Y224215D01*
X263918Y224613D01*
X263613Y224918D01*
X263546Y224946D01*
X263454Y225410D01*
X266387Y228344D01*
X282125D01*
X282387Y228082D01*
X282785Y227917D01*
X283215D01*
X283613Y228082D01*
X283918Y228387D01*
X284083Y228785D01*
Y229215D01*
X283918Y229613D01*
X283613Y229918D01*
X283215Y230083D01*
X282785D01*
X282387Y229918D01*
X282125Y229656D01*
X266115D01*
X265864Y229606D01*
X265651Y229464D01*
X259659Y223472D01*
X259349Y223497D01*
X259083Y223785D01*
Y224215D01*
X258918Y224613D01*
X258613Y224918D01*
X258215Y225083D01*
X257821D01*
X256279Y226625D01*
X255827Y226812D01*
X252901D01*
X251486Y228228D01*
X251034Y228415D01*
X208045D01*
Y230293D01*
X206319Y232020D01*
X213939Y239640D01*
X251667D01*
X251930Y239247D01*
X251917Y239215D01*
Y238785D01*
X252082Y238387D01*
X252387Y238082D01*
X252785Y237917D01*
X253215D01*
X253613Y238082D01*
X253918Y238387D01*
X254083Y238785D01*
Y239215D01*
X254070Y239247D01*
X254333Y239640D01*
X256667D01*
X256930Y239247D01*
X256917Y239215D01*
Y238785D01*
X257082Y238387D01*
X257387Y238082D01*
X257785Y237917D01*
X258215D01*
X258613Y238082D01*
X258918Y238387D01*
X259083Y238785D01*
Y239215D01*
X259070Y239247D01*
X259333Y239640D01*
X261667D01*
X261930Y239247D01*
X261917Y239215D01*
Y238785D01*
X262082Y238387D01*
X262387Y238082D01*
X262785Y237917D01*
X263215D01*
X263613Y238082D01*
X263918Y238387D01*
X264083Y238785D01*
Y239215D01*
X264070Y239247D01*
X264333Y239640D01*
X266667D01*
X266930Y239247D01*
X266917Y239215D01*
Y238785D01*
X267082Y238387D01*
X267387Y238082D01*
X267785Y237917D01*
X268215D01*
X268613Y238082D01*
X268918Y238387D01*
X269083Y238785D01*
Y239215D01*
X269070Y239247D01*
X269333Y239640D01*
X271456D01*
X271917Y239179D01*
Y238785D01*
X272082Y238387D01*
X272387Y238082D01*
X272785Y237917D01*
X273215D01*
X273613Y238082D01*
X273918Y238387D01*
X274083Y238785D01*
Y239215D01*
X273918Y239613D01*
X273613Y239918D01*
X273333Y240034D01*
X273411Y240428D01*
X275668D01*
X276917Y239179D01*
Y238785D01*
X277082Y238387D01*
X277387Y238082D01*
X277785Y237917D01*
X278215D01*
X278613Y238082D01*
X278918Y238387D01*
X279083Y238785D01*
Y239215D01*
X278918Y239613D01*
X278613Y239918D01*
X278215Y240083D01*
X277821D01*
X276385Y241519D01*
X275933Y241706D01*
X211313D01*
X210860Y241519D01*
X203387Y234046D01*
X201354Y234044D01*
X201283Y234115D01*
X201118Y234513D01*
X200813Y234818D01*
X200415Y234983D01*
X199985D01*
X199735Y234879D01*
X199371Y235074D01*
X199340Y235109D01*
X199322Y235263D01*
X199617Y235545D01*
X199676Y235534D01*
X200116Y235621D01*
X200384Y235801D01*
X200508Y235852D01*
X205298Y240642D01*
X205692D01*
X206090Y240807D01*
X206394Y241111D01*
X206559Y241509D01*
Y241940D01*
X206546Y241971D01*
X206809Y242365D01*
X280541D01*
X282510Y240395D01*
X282418Y239931D01*
X282387Y239918D01*
X282082Y239613D01*
X281917Y239215D01*
Y238785D01*
X282082Y238387D01*
X282387Y238082D01*
X282785Y237917D01*
X283215D01*
X283613Y238082D01*
X283918Y238387D01*
X283931Y238418D01*
X284395Y238510D01*
X285032Y237874D01*
Y236329D01*
X285219Y235877D01*
X286917Y234179D01*
Y233785D01*
X287082Y233387D01*
X287387Y233082D01*
X287785Y232917D01*
X288215D01*
X288613Y233082D01*
X288918Y233387D01*
X289083Y233785D01*
Y234215D01*
X288918Y234613D01*
X288613Y234918D01*
X288215Y235083D01*
X287821D01*
X286310Y236594D01*
Y238139D01*
X286123Y238591D01*
X281925Y242788D01*
X282076Y243152D01*
X284753D01*
X287510Y240395D01*
X287418Y239931D01*
X287387Y239918D01*
X287082Y239613D01*
X286917Y239215D01*
Y238785D01*
X287082Y238387D01*
X287387Y238082D01*
X287785Y237917D01*
X288215D01*
X288613Y238082D01*
X288918Y238387D01*
X288931Y238418D01*
X289395Y238510D01*
X290032Y237874D01*
Y236329D01*
X290219Y235877D01*
X291917Y234179D01*
Y233785D01*
X292082Y233387D01*
X292387Y233082D01*
X292785Y232917D01*
X293215D01*
X293613Y233082D01*
X293918Y233387D01*
X294083Y233785D01*
Y234215D01*
X293918Y234613D01*
X293613Y234918D01*
X293215Y235083D01*
X292821D01*
X291310Y236594D01*
Y238139D01*
X291123Y238591D01*
X285470Y244243D01*
X285018Y244430D01*
X241818D01*
X241700Y244642D01*
X241633Y244824D01*
X241783Y245185D01*
Y245615D01*
X241618Y246013D01*
X241313Y246318D01*
X240915Y246483D01*
D02*
G37*
G36*
X283215Y235083D02*
X282785D01*
X282387Y234918D01*
X282082Y234613D01*
X281917Y234215D01*
Y233785D01*
X282082Y233387D01*
X282387Y233082D01*
X282785Y232917D01*
X283215D01*
X283613Y233082D01*
X283918Y233387D01*
X284083Y233785D01*
Y234215D01*
X283918Y234613D01*
X283613Y234918D01*
X283215Y235083D01*
D02*
G37*
G36*
X278215D02*
X277785D01*
X277387Y234918D01*
X277082Y234613D01*
X276917Y234215D01*
Y233785D01*
X277082Y233387D01*
X277387Y233082D01*
X277785Y232917D01*
X278215D01*
X278613Y233082D01*
X278918Y233387D01*
X279083Y233785D01*
Y234215D01*
X278918Y234613D01*
X278613Y234918D01*
X278215Y235083D01*
D02*
G37*
G36*
X273215D02*
X272785D01*
X272387Y234918D01*
X272082Y234613D01*
X271917Y234215D01*
Y233785D01*
X272082Y233387D01*
X272387Y233082D01*
X272785Y232917D01*
X273215D01*
X273613Y233082D01*
X273918Y233387D01*
X274083Y233785D01*
Y234215D01*
X273918Y234613D01*
X273613Y234918D01*
X273215Y235083D01*
D02*
G37*
G36*
X268215D02*
X267785D01*
X267387Y234918D01*
X267082Y234613D01*
X266917Y234215D01*
Y233785D01*
X267082Y233387D01*
X267387Y233082D01*
X267785Y232917D01*
X268215D01*
X268613Y233082D01*
X268918Y233387D01*
X269083Y233785D01*
Y234215D01*
X268918Y234613D01*
X268613Y234918D01*
X268215Y235083D01*
D02*
G37*
G36*
X263215D02*
X262785D01*
X262387Y234918D01*
X262082Y234613D01*
X261917Y234215D01*
Y233785D01*
X262082Y233387D01*
X262387Y233082D01*
X262785Y232917D01*
X263215D01*
X263613Y233082D01*
X263918Y233387D01*
X264083Y233785D01*
Y234215D01*
X263918Y234613D01*
X263613Y234918D01*
X263215Y235083D01*
D02*
G37*
G36*
X258215D02*
X257785D01*
X257387Y234918D01*
X257082Y234613D01*
X256917Y234215D01*
Y233785D01*
X257082Y233387D01*
X257387Y233082D01*
X257785Y232917D01*
X258215D01*
X258613Y233082D01*
X258918Y233387D01*
X259083Y233785D01*
Y234215D01*
X258918Y234613D01*
X258613Y234918D01*
X258215Y235083D01*
D02*
G37*
G36*
X253215D02*
X252785D01*
X252387Y234918D01*
X252082Y234613D01*
X251917Y234215D01*
Y233785D01*
X252082Y233387D01*
X252387Y233082D01*
X252785Y232917D01*
X253215D01*
X253613Y233082D01*
X253918Y233387D01*
X254083Y233785D01*
Y234215D01*
X253918Y234613D01*
X253613Y234918D01*
X253215Y235083D01*
D02*
G37*
G36*
X211215Y233883D02*
X210785D01*
X210387Y233718D01*
X210082Y233413D01*
X209917Y233015D01*
Y232585D01*
X210082Y232187D01*
X210387Y231882D01*
X210785Y231717D01*
X211215D01*
X211613Y231882D01*
X211918Y232187D01*
X212083Y232585D01*
Y233015D01*
X211918Y233413D01*
X211613Y233718D01*
X211215Y233883D01*
D02*
G37*
G36*
X241090Y233091D02*
X240659D01*
X240261Y232926D01*
X239957Y232621D01*
X239792Y232224D01*
Y231793D01*
X239957Y231395D01*
X240261Y231090D01*
X240659Y230925D01*
X241090D01*
X241488Y231090D01*
X241792Y231395D01*
X241957Y231793D01*
Y232224D01*
X241792Y232621D01*
X241488Y232926D01*
X241090Y233091D01*
D02*
G37*
G36*
X298215Y230083D02*
X297785D01*
X297387Y229918D01*
X297082Y229613D01*
X296917Y229215D01*
Y228785D01*
X297082Y228387D01*
X297387Y228082D01*
X297785Y227917D01*
X298215D01*
X298613Y228082D01*
X298918Y228387D01*
X299083Y228785D01*
Y229215D01*
X298918Y229613D01*
X298613Y229918D01*
X298215Y230083D01*
D02*
G37*
G36*
X288215D02*
X287785D01*
X287387Y229918D01*
X287082Y229613D01*
X286917Y229215D01*
Y228785D01*
X287082Y228387D01*
X287387Y228082D01*
X287785Y227917D01*
X288215D01*
X288613Y228082D01*
X288918Y228387D01*
X289083Y228785D01*
Y229215D01*
X288918Y229613D01*
X288613Y229918D01*
X288215Y230083D01*
D02*
G37*
G36*
X263215D02*
X262785D01*
X262387Y229918D01*
X262082Y229613D01*
X261917Y229215D01*
Y228785D01*
X262082Y228387D01*
X262387Y228082D01*
X262785Y227917D01*
X263215D01*
X263613Y228082D01*
X263918Y228387D01*
X264083Y228785D01*
Y229215D01*
X263918Y229613D01*
X263613Y229918D01*
X263215Y230083D01*
D02*
G37*
G36*
X258215D02*
X257785D01*
X257387Y229918D01*
X257082Y229613D01*
X256917Y229215D01*
Y228785D01*
X257082Y228387D01*
X257387Y228082D01*
X257785Y227917D01*
X258215D01*
X258613Y228082D01*
X258918Y228387D01*
X259083Y228785D01*
Y229215D01*
X258918Y229613D01*
X258613Y229918D01*
X258215Y230083D01*
D02*
G37*
G36*
X253215D02*
X252785D01*
X252387Y229918D01*
X252082Y229613D01*
X251917Y229215D01*
Y228785D01*
X252082Y228387D01*
X252387Y228082D01*
X252785Y227917D01*
X253215D01*
X253613Y228082D01*
X253918Y228387D01*
X254083Y228785D01*
Y229215D01*
X253918Y229613D01*
X253613Y229918D01*
X253215Y230083D01*
D02*
G37*
G36*
X122515Y226268D02*
X122085D01*
X121687Y226103D01*
X121382Y225798D01*
X121217Y225400D01*
Y224970D01*
X121382Y224572D01*
X121687Y224267D01*
X122085Y224102D01*
X122515D01*
X122913Y224267D01*
X123218Y224572D01*
X123383Y224970D01*
Y225400D01*
X123218Y225798D01*
X122913Y226103D01*
X122515Y226268D01*
D02*
G37*
G36*
X298215Y225083D02*
X297785D01*
X297387Y224918D01*
X297082Y224613D01*
X296917Y224215D01*
Y223785D01*
X297082Y223387D01*
X297387Y223082D01*
X297785Y222917D01*
X298215D01*
X298613Y223082D01*
X298918Y223387D01*
X299083Y223785D01*
Y224215D01*
X298918Y224613D01*
X298613Y224918D01*
X298215Y225083D01*
D02*
G37*
G36*
X293215D02*
X292785D01*
X292387Y224918D01*
X292082Y224613D01*
X291917Y224215D01*
Y223785D01*
X292082Y223387D01*
X292387Y223082D01*
X292785Y222917D01*
X293215D01*
X293613Y223082D01*
X293918Y223387D01*
X294083Y223785D01*
Y224215D01*
X293918Y224613D01*
X293613Y224918D01*
X293215Y225083D01*
D02*
G37*
G36*
X278215D02*
X277785D01*
X277387Y224918D01*
X277082Y224613D01*
X276917Y224215D01*
Y223785D01*
X277082Y223387D01*
X277387Y223082D01*
X277785Y222917D01*
X278215D01*
X278613Y223082D01*
X278918Y223387D01*
X279083Y223785D01*
Y224215D01*
X278918Y224613D01*
X278613Y224918D01*
X278215Y225083D01*
D02*
G37*
G36*
X273215D02*
X272785D01*
X272387Y224918D01*
X272082Y224613D01*
X271917Y224215D01*
Y223785D01*
X272082Y223387D01*
X272387Y223082D01*
X272785Y222917D01*
X273215D01*
X273613Y223082D01*
X273918Y223387D01*
X274083Y223785D01*
Y224215D01*
X273918Y224613D01*
X273613Y224918D01*
X273215Y225083D01*
D02*
G37*
G36*
X268215D02*
X267785D01*
X267387Y224918D01*
X267082Y224613D01*
X266917Y224215D01*
Y223785D01*
X267082Y223387D01*
X267387Y223082D01*
X267785Y222917D01*
X268215D01*
X268613Y223082D01*
X268918Y223387D01*
X269083Y223785D01*
Y224215D01*
X268918Y224613D01*
X268613Y224918D01*
X268215Y225083D01*
D02*
G37*
G36*
X298215Y220083D02*
X297785D01*
X297387Y219918D01*
X297082Y219613D01*
X296917Y219215D01*
Y218785D01*
X297082Y218387D01*
X297387Y218082D01*
X297785Y217917D01*
X298215D01*
X298613Y218082D01*
X298918Y218387D01*
X299083Y218785D01*
Y219215D01*
X298918Y219613D01*
X298613Y219918D01*
X298215Y220083D01*
D02*
G37*
G36*
X293215D02*
X292785D01*
X292387Y219918D01*
X292082Y219613D01*
X291917Y219215D01*
Y218785D01*
X292082Y218387D01*
X292387Y218082D01*
X292785Y217917D01*
X293215D01*
X293613Y218082D01*
X293918Y218387D01*
X294083Y218785D01*
Y219215D01*
X293918Y219613D01*
X293613Y219918D01*
X293215Y220083D01*
D02*
G37*
G36*
X288215D02*
X287785D01*
X287387Y219918D01*
X287082Y219613D01*
X286917Y219215D01*
Y218785D01*
X287082Y218387D01*
X287387Y218082D01*
X287785Y217917D01*
X288215D01*
X288613Y218082D01*
X288918Y218387D01*
X289083Y218785D01*
Y219215D01*
X288918Y219613D01*
X288613Y219918D01*
X288215Y220083D01*
D02*
G37*
G36*
X278215D02*
X277785D01*
X277387Y219918D01*
X277082Y219613D01*
X276917Y219215D01*
Y218785D01*
X277082Y218387D01*
X277387Y218082D01*
X277785Y217917D01*
X278215D01*
X278613Y218082D01*
X278918Y218387D01*
X279083Y218785D01*
Y219215D01*
X278918Y219613D01*
X278613Y219918D01*
X278215Y220083D01*
D02*
G37*
G36*
X273215D02*
X272785D01*
X272387Y219918D01*
X272082Y219613D01*
X271917Y219215D01*
Y218785D01*
X272082Y218387D01*
X272387Y218082D01*
X272785Y217917D01*
X273215D01*
X273613Y218082D01*
X273918Y218387D01*
X274083Y218785D01*
Y219215D01*
X273918Y219613D01*
X273613Y219918D01*
X273215Y220083D01*
D02*
G37*
G36*
X268215D02*
X267785D01*
X267387Y219918D01*
X267082Y219613D01*
X266917Y219215D01*
Y218785D01*
X267082Y218387D01*
X267387Y218082D01*
X267785Y217917D01*
X268215D01*
X268613Y218082D01*
X268918Y218387D01*
X269083Y218785D01*
Y219215D01*
X268918Y219613D01*
X268613Y219918D01*
X268215Y220083D01*
D02*
G37*
G36*
X263215D02*
X262785D01*
X262387Y219918D01*
X262082Y219613D01*
X261917Y219215D01*
Y218785D01*
X262082Y218387D01*
X262387Y218082D01*
X262785Y217917D01*
X263215D01*
X263613Y218082D01*
X263918Y218387D01*
X264083Y218785D01*
Y219215D01*
X263918Y219613D01*
X263613Y219918D01*
X263215Y220083D01*
D02*
G37*
G36*
X258215D02*
X257785D01*
X257387Y219918D01*
X257082Y219613D01*
X256917Y219215D01*
Y218785D01*
X257082Y218387D01*
X257387Y218082D01*
X257785Y217917D01*
X258215D01*
X258613Y218082D01*
X258918Y218387D01*
X259083Y218785D01*
Y219215D01*
X258918Y219613D01*
X258613Y219918D01*
X258215Y220083D01*
D02*
G37*
G36*
X253215D02*
X252785D01*
X252387Y219918D01*
X252082Y219613D01*
X251917Y219215D01*
Y218785D01*
X252082Y218387D01*
X252387Y218082D01*
X252785Y217917D01*
X253215D01*
X253613Y218082D01*
X253918Y218387D01*
X254083Y218785D01*
Y219215D01*
X253918Y219613D01*
X253613Y219918D01*
X253215Y220083D01*
D02*
G37*
G36*
X298215Y215083D02*
X297785D01*
X297387Y214918D01*
X297082Y214613D01*
X296917Y214215D01*
Y213785D01*
X297082Y213387D01*
X297387Y213082D01*
X297785Y212917D01*
X298215D01*
X298613Y213082D01*
X298918Y213387D01*
X299083Y213785D01*
Y214215D01*
X298918Y214613D01*
X298613Y214918D01*
X298215Y215083D01*
D02*
G37*
G36*
X293215D02*
X292785D01*
X292387Y214918D01*
X292082Y214613D01*
X291917Y214215D01*
Y213785D01*
X292082Y213387D01*
X292387Y213082D01*
X292785Y212917D01*
X293215D01*
X293613Y213082D01*
X293918Y213387D01*
X294083Y213785D01*
Y214215D01*
X293918Y214613D01*
X293613Y214918D01*
X293215Y215083D01*
D02*
G37*
G36*
X288215D02*
X287785D01*
X287387Y214918D01*
X287082Y214613D01*
X286917Y214215D01*
Y213785D01*
X287082Y213387D01*
X287387Y213082D01*
X287785Y212917D01*
X288215D01*
X288613Y213082D01*
X288918Y213387D01*
X289083Y213785D01*
Y214215D01*
X288918Y214613D01*
X288613Y214918D01*
X288215Y215083D01*
D02*
G37*
G36*
X283215D02*
X282785D01*
X282387Y214918D01*
X282082Y214613D01*
X281917Y214215D01*
Y213785D01*
X282082Y213387D01*
X282387Y213082D01*
X282785Y212917D01*
X283215D01*
X283613Y213082D01*
X283918Y213387D01*
X284083Y213785D01*
Y214215D01*
X283918Y214613D01*
X283613Y214918D01*
X283215Y215083D01*
D02*
G37*
G36*
X268215D02*
X267785D01*
X267387Y214918D01*
X267082Y214613D01*
X266917Y214215D01*
Y213785D01*
X267082Y213387D01*
X267387Y213082D01*
X267785Y212917D01*
X268215D01*
X268613Y213082D01*
X268918Y213387D01*
X269083Y213785D01*
Y214215D01*
X268918Y214613D01*
X268613Y214918D01*
X268215Y215083D01*
D02*
G37*
G36*
X263215D02*
X262785D01*
X262387Y214918D01*
X262082Y214613D01*
X261917Y214215D01*
Y213785D01*
X262082Y213387D01*
X262387Y213082D01*
X262785Y212917D01*
X263215D01*
X263613Y213082D01*
X263918Y213387D01*
X264083Y213785D01*
Y214215D01*
X263918Y214613D01*
X263613Y214918D01*
X263215Y215083D01*
D02*
G37*
G36*
X258215D02*
X257785D01*
X257387Y214918D01*
X257082Y214613D01*
X256917Y214215D01*
Y213785D01*
X257082Y213387D01*
X257387Y213082D01*
X257785Y212917D01*
X258215D01*
X258613Y213082D01*
X258918Y213387D01*
X259083Y213785D01*
Y214215D01*
X258918Y214613D01*
X258613Y214918D01*
X258215Y215083D01*
D02*
G37*
G36*
X253215D02*
X252785D01*
X252387Y214918D01*
X252082Y214613D01*
X251917Y214215D01*
Y213785D01*
X252082Y213387D01*
X252387Y213082D01*
X252785Y212917D01*
X253215D01*
X253613Y213082D01*
X253918Y213387D01*
X254083Y213785D01*
Y214215D01*
X253918Y214613D01*
X253613Y214918D01*
X253215Y215083D01*
D02*
G37*
G36*
X288215Y210083D02*
X287785D01*
X287387Y209918D01*
X287082Y209613D01*
X286917Y209215D01*
Y208785D01*
X287082Y208387D01*
X287387Y208082D01*
X287785Y207917D01*
X288215D01*
X288613Y208082D01*
X288918Y208387D01*
X289083Y208785D01*
Y209215D01*
X288918Y209613D01*
X288613Y209918D01*
X288215Y210083D01*
D02*
G37*
G36*
X283215D02*
X282785D01*
X282387Y209918D01*
X282082Y209613D01*
X281917Y209215D01*
Y208785D01*
X282082Y208387D01*
X282387Y208082D01*
X282785Y207917D01*
X283215D01*
X283613Y208082D01*
X283918Y208387D01*
X284083Y208785D01*
Y209215D01*
X283918Y209613D01*
X283613Y209918D01*
X283215Y210083D01*
D02*
G37*
G36*
X278215D02*
X277785D01*
X277387Y209918D01*
X277082Y209613D01*
X276917Y209215D01*
Y208785D01*
X277082Y208387D01*
X277387Y208082D01*
X277785Y207917D01*
X278215D01*
X278613Y208082D01*
X278918Y208387D01*
X279083Y208785D01*
Y209215D01*
X278918Y209613D01*
X278613Y209918D01*
X278215Y210083D01*
D02*
G37*
G36*
Y205083D02*
X277785D01*
X277387Y204918D01*
X277082Y204613D01*
X276917Y204215D01*
Y203785D01*
X277082Y203387D01*
X277387Y203082D01*
X277785Y202917D01*
X278215D01*
X278613Y203082D01*
X278918Y203387D01*
X279083Y203785D01*
Y204215D01*
X278918Y204613D01*
X278613Y204918D01*
X278215Y205083D01*
D02*
G37*
G36*
X273215D02*
X272785D01*
X272387Y204918D01*
X272082Y204613D01*
X271917Y204215D01*
Y203785D01*
X272082Y203387D01*
X272387Y203082D01*
X272785Y202917D01*
X273215D01*
X273613Y203082D01*
X273918Y203387D01*
X274083Y203785D01*
Y204215D01*
X273918Y204613D01*
X273613Y204918D01*
X273215Y205083D01*
D02*
G37*
G36*
X298215Y185083D02*
X297785D01*
X297387Y184918D01*
X297082Y184613D01*
X296917Y184215D01*
Y183785D01*
X297082Y183387D01*
X297387Y183082D01*
X297785Y182917D01*
X298215D01*
X298613Y183082D01*
X298918Y183387D01*
X299083Y183785D01*
Y184215D01*
X298918Y184613D01*
X298613Y184918D01*
X298215Y185083D01*
D02*
G37*
G36*
X283215D02*
X282785D01*
X282387Y184918D01*
X282082Y184613D01*
X281917Y184215D01*
Y183785D01*
X282082Y183387D01*
X282387Y183082D01*
X282785Y182917D01*
X283215D01*
X283613Y183082D01*
X283918Y183387D01*
X284083Y183785D01*
Y184215D01*
X283918Y184613D01*
X283613Y184918D01*
X283215Y185083D01*
D02*
G37*
G36*
X278215D02*
X277785D01*
X277387Y184918D01*
X277082Y184613D01*
X276917Y184215D01*
Y183785D01*
X277082Y183387D01*
X277387Y183082D01*
X277785Y182917D01*
X278215D01*
X278613Y183082D01*
X278918Y183387D01*
X279083Y183785D01*
Y184215D01*
X278918Y184613D01*
X278613Y184918D01*
X278215Y185083D01*
D02*
G37*
G36*
X273215D02*
X272785D01*
X272387Y184918D01*
X272082Y184613D01*
X271917Y184215D01*
Y183785D01*
X272082Y183387D01*
X272387Y183082D01*
X272785Y182917D01*
X273215D01*
X273613Y183082D01*
X273918Y183387D01*
X274083Y183785D01*
Y184215D01*
X273918Y184613D01*
X273613Y184918D01*
X273215Y185083D01*
D02*
G37*
G36*
X268215D02*
X267785D01*
X267387Y184918D01*
X267082Y184613D01*
X266917Y184215D01*
Y183785D01*
X267082Y183387D01*
X267387Y183082D01*
X267785Y182917D01*
X268215D01*
X268613Y183082D01*
X268918Y183387D01*
X269083Y183785D01*
Y184215D01*
X268918Y184613D01*
X268613Y184918D01*
X268215Y185083D01*
D02*
G37*
G36*
X263215D02*
X262785D01*
X262387Y184918D01*
X262082Y184613D01*
X261917Y184215D01*
Y183785D01*
X262082Y183387D01*
X262387Y183082D01*
X262785Y182917D01*
X263215D01*
X263613Y183082D01*
X263918Y183387D01*
X264083Y183785D01*
Y184215D01*
X263918Y184613D01*
X263613Y184918D01*
X263215Y185083D01*
D02*
G37*
G36*
X258215D02*
X257785D01*
X257387Y184918D01*
X257082Y184613D01*
X256917Y184215D01*
Y183785D01*
X257082Y183387D01*
X257387Y183082D01*
X257785Y182917D01*
X258215D01*
X258613Y183082D01*
X258918Y183387D01*
X259083Y183785D01*
Y184215D01*
X258918Y184613D01*
X258613Y184918D01*
X258215Y185083D01*
D02*
G37*
G36*
X298215Y180083D02*
X297785D01*
X297387Y179918D01*
X297082Y179613D01*
X296917Y179215D01*
Y178785D01*
X297082Y178387D01*
X297387Y178082D01*
X297785Y177917D01*
X298215D01*
X298613Y178082D01*
X298918Y178387D01*
X299083Y178785D01*
Y179215D01*
X298918Y179613D01*
X298613Y179918D01*
X298215Y180083D01*
D02*
G37*
G36*
X288215Y175083D02*
X287785D01*
X287387Y174918D01*
X287082Y174613D01*
X286917Y174215D01*
Y173785D01*
X287082Y173387D01*
X287387Y173082D01*
X287785Y172917D01*
X288215D01*
X288613Y173082D01*
X288918Y173387D01*
X289083Y173785D01*
Y174215D01*
X288918Y174613D01*
X288613Y174918D01*
X288215Y175083D01*
D02*
G37*
G36*
X298215Y170083D02*
X297785D01*
X297387Y169918D01*
X297082Y169613D01*
X296917Y169215D01*
Y168785D01*
X297082Y168387D01*
X297387Y168082D01*
X297785Y167917D01*
X298215D01*
X298613Y168082D01*
X298918Y168387D01*
X299083Y168785D01*
Y169215D01*
X298918Y169613D01*
X298613Y169918D01*
X298215Y170083D01*
D02*
G37*
G36*
X293215D02*
X292785D01*
X292387Y169918D01*
X292082Y169613D01*
X291917Y169215D01*
Y168785D01*
X292082Y168387D01*
X292387Y168082D01*
X292785Y167917D01*
X293215D01*
X293613Y168082D01*
X293918Y168387D01*
X294083Y168785D01*
Y169215D01*
X293918Y169613D01*
X293613Y169918D01*
X293215Y170083D01*
D02*
G37*
G36*
X288215D02*
X287785D01*
X287387Y169918D01*
X287082Y169613D01*
X286917Y169215D01*
Y168785D01*
X287082Y168387D01*
X287387Y168082D01*
X287785Y167917D01*
X288215D01*
X288613Y168082D01*
X288918Y168387D01*
X289083Y168785D01*
Y169215D01*
X288918Y169613D01*
X288613Y169918D01*
X288215Y170083D01*
D02*
G37*
G36*
X283215D02*
X282785D01*
X282387Y169918D01*
X282082Y169613D01*
X281917Y169215D01*
Y168785D01*
X282082Y168387D01*
X282387Y168082D01*
X282785Y167917D01*
X283215D01*
X283613Y168082D01*
X283918Y168387D01*
X284083Y168785D01*
Y169215D01*
X283918Y169613D01*
X283613Y169918D01*
X283215Y170083D01*
D02*
G37*
G36*
X118638Y166298D02*
X118012D01*
X117433Y166059D01*
X116990Y165616D01*
X116750Y165037D01*
Y164410D01*
X116990Y163832D01*
X117433Y163389D01*
X118012Y163149D01*
X118638D01*
X119217Y163389D01*
X119660Y163832D01*
X119900Y164410D01*
Y165037D01*
X119660Y165616D01*
X119217Y166059D01*
X118638Y166298D01*
D02*
G37*
G36*
X298215Y165083D02*
X297785D01*
X297387Y164918D01*
X297082Y164613D01*
X296917Y164215D01*
Y163785D01*
X297082Y163387D01*
X297387Y163082D01*
X297785Y162917D01*
X298215D01*
X298613Y163082D01*
X298918Y163387D01*
X299083Y163785D01*
Y164215D01*
X298918Y164613D01*
X298613Y164918D01*
X298215Y165083D01*
D02*
G37*
G36*
X293215D02*
X292785D01*
X292387Y164918D01*
X292082Y164613D01*
X291917Y164215D01*
Y163785D01*
X292082Y163387D01*
X292387Y163082D01*
X292785Y162917D01*
X293215D01*
X293613Y163082D01*
X293918Y163387D01*
X294083Y163785D01*
Y164215D01*
X293918Y164613D01*
X293613Y164918D01*
X293215Y165083D01*
D02*
G37*
G36*
X288215D02*
X287785D01*
X287387Y164918D01*
X287082Y164613D01*
X286917Y164215D01*
Y163785D01*
X287082Y163387D01*
X287387Y163082D01*
X287785Y162917D01*
X288215D01*
X288613Y163082D01*
X288918Y163387D01*
X289083Y163785D01*
Y164215D01*
X288918Y164613D01*
X288613Y164918D01*
X288215Y165083D01*
D02*
G37*
G36*
X283215D02*
X282785D01*
X282387Y164918D01*
X282082Y164613D01*
X281917Y164215D01*
Y163785D01*
X282082Y163387D01*
X282387Y163082D01*
X282785Y162917D01*
X283215D01*
X283613Y163082D01*
X283918Y163387D01*
X284083Y163785D01*
Y164215D01*
X283918Y164613D01*
X283613Y164918D01*
X283215Y165083D01*
D02*
G37*
G36*
X119685Y161802D02*
X119059D01*
X118480Y161563D01*
X118037Y161120D01*
X117798Y160541D01*
Y159915D01*
X118037Y159336D01*
X118480Y158893D01*
X119059Y158653D01*
X119685D01*
X120264Y158893D01*
X120707Y159336D01*
X120947Y159915D01*
Y160541D01*
X120707Y161120D01*
X120264Y161563D01*
X119685Y161802D01*
D02*
G37*
G36*
X293215Y160083D02*
X292785D01*
X292387Y159918D01*
X292082Y159613D01*
X291917Y159215D01*
Y158785D01*
X292082Y158387D01*
X292387Y158082D01*
X292785Y157917D01*
X293215D01*
X293613Y158082D01*
X293918Y158387D01*
X294083Y158785D01*
Y159215D01*
X293918Y159613D01*
X293613Y159918D01*
X293215Y160083D01*
D02*
G37*
G36*
X288215D02*
X287785D01*
X287387Y159918D01*
X287082Y159613D01*
X286917Y159215D01*
Y158785D01*
X287082Y158387D01*
X287387Y158082D01*
X287785Y157917D01*
X288215D01*
X288613Y158082D01*
X288918Y158387D01*
X289083Y158785D01*
Y159215D01*
X288918Y159613D01*
X288613Y159918D01*
X288215Y160083D01*
D02*
G37*
G36*
X178309Y155575D02*
X177683D01*
X177104Y155335D01*
X176661Y154892D01*
X176421Y154313D01*
Y153687D01*
X176661Y153108D01*
X177104Y152665D01*
X177683Y152425D01*
X178309D01*
X178888Y152665D01*
X179331Y153108D01*
X179571Y153687D01*
Y154313D01*
X179331Y154892D01*
X178888Y155335D01*
X178309Y155575D01*
D02*
G37*
G36*
X144463Y154275D02*
X143836D01*
X143258Y154035D01*
X142815Y153592D01*
X142575Y153013D01*
Y152387D01*
X142815Y151808D01*
X143258Y151365D01*
X143836Y151125D01*
X144463D01*
X145042Y151365D01*
X145485Y151808D01*
X145724Y152387D01*
Y153013D01*
X145485Y153592D01*
X145042Y154035D01*
X144463Y154275D01*
D02*
G37*
G36*
X133846Y153859D02*
X133220D01*
X132641Y153619D01*
X132198Y153176D01*
X131958Y152597D01*
Y151971D01*
X132198Y151392D01*
X132641Y150949D01*
X133220Y150709D01*
X133846D01*
X134425Y150949D01*
X134868Y151392D01*
X135108Y151971D01*
Y152597D01*
X134868Y153176D01*
X134425Y153619D01*
X133846Y153859D01*
D02*
G37*
G36*
X191338Y150554D02*
X190711D01*
X190132Y150314D01*
X189690Y149871D01*
X189450Y149292D01*
Y148665D01*
X189690Y148087D01*
X190132Y147644D01*
X190711Y147404D01*
X191338D01*
X191917Y147644D01*
X192360Y148087D01*
X192599Y148665D01*
Y149292D01*
X192360Y149871D01*
X191917Y150314D01*
X191338Y150554D01*
D02*
G37*
G36*
X133813Y147875D02*
X133187D01*
X132608Y147635D01*
X132165Y147192D01*
X131925Y146613D01*
Y145987D01*
X132165Y145408D01*
X132608Y144965D01*
X133187Y144725D01*
X133813D01*
X134392Y144965D01*
X134835Y145408D01*
X135075Y145987D01*
Y146613D01*
X134835Y147192D01*
X134392Y147635D01*
X133813Y147875D01*
D02*
G37*
G36*
X298313Y145575D02*
X297687D01*
X297108Y145335D01*
X296665Y144892D01*
X296425Y144313D01*
Y143687D01*
X296665Y143108D01*
X297108Y142665D01*
X297687Y142425D01*
X298313D01*
X298892Y142665D01*
X299335Y143108D01*
X299575Y143687D01*
Y144313D01*
X299335Y144892D01*
X298892Y145335D01*
X298313Y145575D01*
D02*
G37*
G36*
X293313D02*
X292687D01*
X292108Y145335D01*
X291665Y144892D01*
X291425Y144313D01*
Y143687D01*
X291665Y143108D01*
X292108Y142665D01*
X292687Y142425D01*
X293313D01*
X293892Y142665D01*
X294335Y143108D01*
X294575Y143687D01*
Y144313D01*
X294335Y144892D01*
X293892Y145335D01*
X293313Y145575D01*
D02*
G37*
G36*
X288313D02*
X287687D01*
X287108Y145335D01*
X286665Y144892D01*
X286425Y144313D01*
Y143687D01*
X286665Y143108D01*
X287108Y142665D01*
X287687Y142425D01*
X288313D01*
X288892Y142665D01*
X289335Y143108D01*
X289575Y143687D01*
Y144313D01*
X289335Y144892D01*
X288892Y145335D01*
X288313Y145575D01*
D02*
G37*
G36*
X283313D02*
X282687D01*
X282108Y145335D01*
X281665Y144892D01*
X281425Y144313D01*
Y143687D01*
X281665Y143108D01*
X282108Y142665D01*
X282687Y142425D01*
X283313D01*
X283892Y142665D01*
X284335Y143108D01*
X284575Y143687D01*
Y144313D01*
X284335Y144892D01*
X283892Y145335D01*
X283313Y145575D01*
D02*
G37*
G36*
X278313D02*
X277687D01*
X277108Y145335D01*
X276665Y144892D01*
X276425Y144313D01*
Y143687D01*
X276665Y143108D01*
X277108Y142665D01*
X277687Y142425D01*
X278313D01*
X278892Y142665D01*
X279335Y143108D01*
X279575Y143687D01*
Y144313D01*
X279335Y144892D01*
X278892Y145335D01*
X278313Y145575D01*
D02*
G37*
G36*
X273313D02*
X272687D01*
X272108Y145335D01*
X271665Y144892D01*
X271425Y144313D01*
Y143687D01*
X271665Y143108D01*
X272108Y142665D01*
X272687Y142425D01*
X273313D01*
X273892Y142665D01*
X274335Y143108D01*
X274575Y143687D01*
Y144313D01*
X274335Y144892D01*
X273892Y145335D01*
X273313Y145575D01*
D02*
G37*
G36*
X268313D02*
X267687D01*
X267108Y145335D01*
X266665Y144892D01*
X266425Y144313D01*
Y143687D01*
X266665Y143108D01*
X267108Y142665D01*
X267687Y142425D01*
X268313D01*
X268892Y142665D01*
X269335Y143108D01*
X269575Y143687D01*
Y144313D01*
X269335Y144892D01*
X268892Y145335D01*
X268313Y145575D01*
D02*
G37*
G36*
X263313D02*
X262687D01*
X262108Y145335D01*
X261665Y144892D01*
X261425Y144313D01*
Y143687D01*
X261665Y143108D01*
X262108Y142665D01*
X262687Y142425D01*
X263313D01*
X263892Y142665D01*
X264335Y143108D01*
X264575Y143687D01*
Y144313D01*
X264335Y144892D01*
X263892Y145335D01*
X263313Y145575D01*
D02*
G37*
G36*
X258313D02*
X257687D01*
X257108Y145335D01*
X256665Y144892D01*
X256425Y144313D01*
Y143687D01*
X256665Y143108D01*
X257108Y142665D01*
X257687Y142425D01*
X258313D01*
X258892Y142665D01*
X259335Y143108D01*
X259575Y143687D01*
Y144313D01*
X259335Y144892D01*
X258892Y145335D01*
X258313Y145575D01*
D02*
G37*
G36*
X253313D02*
X252687D01*
X252108Y145335D01*
X251665Y144892D01*
X251425Y144313D01*
Y143687D01*
X251665Y143108D01*
X252108Y142665D01*
X252687Y142425D01*
X253313D01*
X253892Y142665D01*
X254335Y143108D01*
X254575Y143687D01*
Y144313D01*
X254335Y144892D01*
X253892Y145335D01*
X253313Y145575D01*
D02*
G37*
G36*
X220715Y144183D02*
X220285D01*
X219887Y144018D01*
X219582Y143713D01*
X219417Y143315D01*
Y142885D01*
X219582Y142487D01*
X219887Y142182D01*
X220285Y142017D01*
X220715D01*
X221113Y142182D01*
X221418Y142487D01*
X221583Y142885D01*
Y143315D01*
X221418Y143713D01*
X221113Y144018D01*
X220715Y144183D01*
D02*
G37*
G36*
X178115Y144026D02*
X177685D01*
X177287Y143861D01*
X176982Y143557D01*
X176817Y143159D01*
Y142728D01*
X176982Y142330D01*
X177287Y142025D01*
X177685Y141861D01*
X178115D01*
X178513Y142025D01*
X178818Y142330D01*
X178983Y142728D01*
Y143159D01*
X178818Y143557D01*
X178513Y143861D01*
X178115Y144026D01*
D02*
G37*
G36*
X188513Y142875D02*
X187887D01*
X187308Y142635D01*
X186865Y142192D01*
X186625Y141613D01*
Y140987D01*
X186865Y140408D01*
X187308Y139965D01*
X187887Y139725D01*
X188513D01*
X189092Y139965D01*
X189535Y140408D01*
X189775Y140987D01*
Y141613D01*
X189535Y142192D01*
X189092Y142635D01*
X188513Y142875D01*
D02*
G37*
G36*
X133813Y142175D02*
X133187D01*
X132608Y141935D01*
X132165Y141492D01*
X131925Y140913D01*
Y140287D01*
X132165Y139708D01*
X132608Y139265D01*
X133187Y139025D01*
X133813D01*
X134392Y139265D01*
X134835Y139708D01*
X135075Y140287D01*
Y140913D01*
X134835Y141492D01*
X134392Y141935D01*
X133813Y142175D01*
D02*
G37*
G36*
X200238Y141842D02*
X199612D01*
X199033Y141602D01*
X198590Y141159D01*
X198350Y140580D01*
Y139954D01*
X198590Y139375D01*
X199033Y138932D01*
X199612Y138692D01*
X200238D01*
X200817Y138932D01*
X201260Y139375D01*
X201500Y139954D01*
Y140580D01*
X201260Y141159D01*
X200817Y141602D01*
X200238Y141842D01*
D02*
G37*
G36*
X178213Y139949D02*
X177587D01*
X177008Y139709D01*
X176565Y139267D01*
X176325Y138688D01*
Y138061D01*
X176565Y137482D01*
X177008Y137039D01*
X177587Y136800D01*
X178213D01*
X178792Y137039D01*
X179235Y137482D01*
X179475Y138061D01*
Y138688D01*
X179235Y139267D01*
X178792Y139709D01*
X178213Y139949D01*
D02*
G37*
G36*
X188613Y138975D02*
X187987D01*
X187408Y138735D01*
X186965Y138292D01*
X186725Y137713D01*
Y137087D01*
X186965Y136508D01*
X187408Y136065D01*
X187987Y135825D01*
X188613D01*
X189192Y136065D01*
X189635Y136508D01*
X189875Y137087D01*
Y137713D01*
X189635Y138292D01*
X189192Y138735D01*
X188613Y138975D01*
D02*
G37*
G36*
X271715Y137083D02*
X271285D01*
X270887Y136918D01*
X270582Y136613D01*
X270417Y136215D01*
Y135785D01*
X270582Y135387D01*
X270887Y135082D01*
X271285Y134917D01*
X271715D01*
X272113Y135082D01*
X272418Y135387D01*
X272583Y135785D01*
Y136215D01*
X272418Y136613D01*
X272113Y136918D01*
X271715Y137083D01*
D02*
G37*
G36*
X123315Y134983D02*
X122885D01*
X122487Y134818D01*
X122182Y134513D01*
X122017Y134115D01*
Y133685D01*
X122182Y133287D01*
X122487Y132982D01*
X122885Y132817D01*
X123315D01*
X123713Y132982D01*
X124018Y133287D01*
X124183Y133685D01*
Y134115D01*
X124018Y134513D01*
X123713Y134818D01*
X123315Y134983D01*
D02*
G37*
G36*
X188613Y135075D02*
X187987D01*
X187408Y134835D01*
X186965Y134392D01*
X186725Y133813D01*
Y133187D01*
X186965Y132608D01*
X187408Y132165D01*
X187987Y131925D01*
X188613D01*
X189192Y132165D01*
X189635Y132608D01*
X189875Y133187D01*
Y133813D01*
X189635Y134392D01*
X189192Y134835D01*
X188613Y135075D01*
D02*
G37*
G36*
X202313Y134875D02*
X201687D01*
X201108Y134635D01*
X200665Y134192D01*
X200425Y133613D01*
Y132987D01*
X200665Y132408D01*
X201108Y131965D01*
X201687Y131725D01*
X202313D01*
X202892Y131965D01*
X203335Y132408D01*
X203575Y132987D01*
Y133613D01*
X203335Y134192D01*
X202892Y134635D01*
X202313Y134875D01*
D02*
G37*
G36*
X147813D02*
X147187D01*
X146608Y134635D01*
X146165Y134192D01*
X145925Y133613D01*
Y132987D01*
X146165Y132408D01*
X146608Y131965D01*
X147187Y131725D01*
X147813D01*
X148392Y131965D01*
X148835Y132408D01*
X149075Y132987D01*
Y133613D01*
X148835Y134192D01*
X148392Y134635D01*
X147813Y134875D01*
D02*
G37*
G36*
X207313Y134675D02*
X206687D01*
X206108Y134435D01*
X205665Y133992D01*
X205425Y133413D01*
Y132787D01*
X205665Y132208D01*
X206108Y131765D01*
X206687Y131525D01*
X207313D01*
X207892Y131765D01*
X208335Y132208D01*
X208575Y132787D01*
Y133413D01*
X208335Y133992D01*
X207892Y134435D01*
X207313Y134675D01*
D02*
G37*
G36*
X152813D02*
X152187D01*
X151608Y134435D01*
X151165Y133992D01*
X150925Y133413D01*
Y132787D01*
X151165Y132208D01*
X151608Y131765D01*
X152187Y131525D01*
X152813D01*
X153392Y131765D01*
X153835Y132208D01*
X154075Y132787D01*
Y133413D01*
X153835Y133992D01*
X153392Y134435D01*
X152813Y134675D01*
D02*
G37*
G36*
X133846Y134491D02*
X133220D01*
X132641Y134251D01*
X132198Y133808D01*
X131958Y133229D01*
Y132603D01*
X132198Y132024D01*
X132641Y131581D01*
X133220Y131341D01*
X133846D01*
X134425Y131581D01*
X134868Y132024D01*
X135108Y132603D01*
Y133229D01*
X134868Y133808D01*
X134425Y134251D01*
X133846Y134491D01*
D02*
G37*
G36*
X268113Y132575D02*
X267487D01*
X266908Y132335D01*
X266465Y131892D01*
X266225Y131313D01*
Y130687D01*
X266465Y130108D01*
X266908Y129665D01*
X267487Y129425D01*
X268113D01*
X268692Y129665D01*
X269135Y130108D01*
X269375Y130687D01*
Y131313D01*
X269135Y131892D01*
X268692Y132335D01*
X268113Y132575D01*
D02*
G37*
G36*
X156369Y129923D02*
X155742D01*
X155163Y129683D01*
X154720Y129240D01*
X154540Y128803D01*
X154117Y128794D01*
X154035Y128992D01*
X153592Y129435D01*
X153013Y129675D01*
X152387D01*
X151808Y129435D01*
X151365Y128992D01*
X151125Y128413D01*
Y127787D01*
X151365Y127208D01*
X151808Y126765D01*
X152387Y126525D01*
X153013D01*
X153592Y126765D01*
X154035Y127208D01*
X154216Y127645D01*
X154639Y127654D01*
X154720Y127456D01*
X155163Y127013D01*
X155742Y126773D01*
X156369D01*
X156948Y127013D01*
X157391Y127456D01*
X157630Y128035D01*
Y128661D01*
X157391Y129240D01*
X156948Y129683D01*
X156369Y129923D01*
D02*
G37*
G36*
X178115Y130283D02*
X177685D01*
X177287Y130118D01*
X176982Y129813D01*
X176817Y129415D01*
Y128985D01*
X176982Y128587D01*
X177287Y128282D01*
X177685Y128117D01*
X178115D01*
X178513Y128282D01*
X178818Y128587D01*
X178983Y128985D01*
Y129415D01*
X178818Y129813D01*
X178513Y130118D01*
X178115Y130283D01*
D02*
G37*
G36*
X188646Y131091D02*
X188020D01*
X187441Y130851D01*
X186998Y130408D01*
X186758Y129829D01*
Y129202D01*
X186998Y128624D01*
X187441Y128181D01*
X188020Y127941D01*
X188646D01*
X189225Y128181D01*
X189668Y128624D01*
X189908Y129202D01*
Y129829D01*
X189668Y130408D01*
X189225Y130851D01*
X188646Y131091D01*
D02*
G37*
G36*
X133813Y130275D02*
X133187D01*
X132608Y130035D01*
X132165Y129592D01*
X131925Y129013D01*
Y128387D01*
X132165Y127808D01*
X132608Y127365D01*
X133187Y127125D01*
X133813D01*
X134392Y127365D01*
X134835Y127808D01*
X135075Y128387D01*
Y129013D01*
X134835Y129592D01*
X134392Y130035D01*
X133813Y130275D01*
D02*
G37*
G36*
X212313Y129875D02*
X211687D01*
X211108Y129635D01*
X210665Y129192D01*
X210425Y128613D01*
Y127987D01*
X210665Y127408D01*
X211108Y126965D01*
X211687Y126725D01*
X212313D01*
X212892Y126965D01*
X213335Y127408D01*
X213575Y127987D01*
Y128613D01*
X213335Y129192D01*
X212892Y129635D01*
X212313Y129875D01*
D02*
G37*
G36*
X202313D02*
X201687D01*
X201108Y129635D01*
X200665Y129192D01*
X200425Y128613D01*
Y127987D01*
X200665Y127408D01*
X201108Y126965D01*
X201687Y126725D01*
X202313D01*
X202892Y126965D01*
X203335Y127408D01*
X203575Y127987D01*
Y128613D01*
X203335Y129192D01*
X202892Y129635D01*
X202313Y129875D01*
D02*
G37*
G36*
X143013D02*
X142387D01*
X141808Y129635D01*
X141365Y129192D01*
X141125Y128613D01*
Y127987D01*
X141365Y127408D01*
X141808Y126965D01*
X142387Y126725D01*
X143013D01*
X143592Y126965D01*
X144035Y127408D01*
X144275Y127987D01*
Y128613D01*
X144035Y129192D01*
X143592Y129635D01*
X143013Y129875D01*
D02*
G37*
G36*
X188713Y125075D02*
X188087D01*
X187508Y124835D01*
X187065Y124392D01*
X186825Y123813D01*
Y123187D01*
X187065Y122608D01*
X187508Y122165D01*
X188087Y121925D01*
X188713D01*
X189292Y122165D01*
X189735Y122608D01*
X189975Y123187D01*
Y123813D01*
X189735Y124392D01*
X189292Y124835D01*
X188713Y125075D01*
D02*
G37*
G36*
X212313Y124675D02*
X211687D01*
X211108Y124435D01*
X210665Y123992D01*
X210425Y123413D01*
Y122787D01*
X210665Y122208D01*
X211108Y121765D01*
X211687Y121525D01*
X212313D01*
X212892Y121765D01*
X213335Y122208D01*
X213575Y122787D01*
Y123413D01*
X213335Y123992D01*
X212892Y124435D01*
X212313Y124675D01*
D02*
G37*
G36*
X202313D02*
X201687D01*
X201108Y124435D01*
X200665Y123992D01*
X200425Y123413D01*
Y122787D01*
X200665Y122208D01*
X201108Y121765D01*
X201687Y121525D01*
X202313D01*
X202892Y121765D01*
X203335Y122208D01*
X203575Y122787D01*
Y123413D01*
X203335Y123992D01*
X202892Y124435D01*
X202313Y124675D01*
D02*
G37*
G36*
X157813D02*
X157187D01*
X156608Y124435D01*
X156165Y123992D01*
X155925Y123413D01*
Y122787D01*
X156165Y122208D01*
X156608Y121765D01*
X157187Y121525D01*
X157813D01*
X158392Y121765D01*
X158835Y122208D01*
X159075Y122787D01*
Y123413D01*
X158835Y123992D01*
X158392Y124435D01*
X157813Y124675D01*
D02*
G37*
G36*
X242598Y124208D02*
X241971D01*
X241392Y123968D01*
X240949Y123525D01*
X240709Y122946D01*
Y122320D01*
X240949Y121741D01*
X241392Y121298D01*
X241971Y121058D01*
X242598D01*
X243176Y121298D01*
X243619Y121741D01*
X243772Y122110D01*
X244198D01*
X244365Y121708D01*
X244808Y121265D01*
X245387Y121025D01*
X246013D01*
X246592Y121265D01*
X247035Y121708D01*
X247275Y122287D01*
Y122913D01*
X247035Y123492D01*
X246592Y123935D01*
X246013Y124175D01*
X245387D01*
X244808Y123935D01*
X244365Y123492D01*
X244212Y123123D01*
X243786D01*
X243619Y123525D01*
X243176Y123968D01*
X242598Y124208D01*
D02*
G37*
G36*
X238813Y124175D02*
X238187D01*
X237608Y123935D01*
X237165Y123492D01*
X236925Y122913D01*
Y122287D01*
X237165Y121708D01*
X237608Y121265D01*
X238187Y121025D01*
X238813D01*
X239392Y121265D01*
X239835Y121708D01*
X240075Y122287D01*
Y122913D01*
X239835Y123492D01*
X239392Y123935D01*
X238813Y124175D01*
D02*
G37*
G36*
X235013D02*
X234387D01*
X233808Y123935D01*
X233365Y123492D01*
X233125Y122913D01*
Y122287D01*
X233365Y121708D01*
X233808Y121265D01*
X234387Y121025D01*
X235013D01*
X235592Y121265D01*
X236035Y121708D01*
X236275Y122287D01*
Y122913D01*
X236035Y123492D01*
X235592Y123935D01*
X235013Y124175D01*
D02*
G37*
G36*
X231413D02*
X230787D01*
X230208Y123935D01*
X229765Y123492D01*
X229525Y122913D01*
Y122287D01*
X229765Y121708D01*
X230208Y121265D01*
X230787Y121025D01*
X231413D01*
X231992Y121265D01*
X232435Y121708D01*
X232675Y122287D01*
Y122913D01*
X232435Y123492D01*
X231992Y123935D01*
X231413Y124175D01*
D02*
G37*
G36*
X226597Y124142D02*
X225971D01*
X225392Y123902D01*
X224949Y123459D01*
X224710Y122880D01*
Y122254D01*
X224949Y121675D01*
X225392Y121232D01*
X225971Y120992D01*
X226597D01*
X227176Y121232D01*
X227619Y121675D01*
X227859Y122254D01*
Y122880D01*
X227619Y123459D01*
X227176Y123902D01*
X226597Y124142D01*
D02*
G37*
G36*
X188613Y120875D02*
X187987D01*
X187408Y120635D01*
X186965Y120192D01*
X186725Y119613D01*
Y118987D01*
X186965Y118408D01*
X187408Y117965D01*
X187987Y117725D01*
X188613D01*
X189192Y117965D01*
X189635Y118408D01*
X189875Y118987D01*
Y119613D01*
X189635Y120192D01*
X189192Y120635D01*
X188613Y120875D01*
D02*
G37*
G36*
X133413Y119975D02*
X132787D01*
X132208Y119735D01*
X131765Y119292D01*
X131525Y118713D01*
Y118087D01*
X131765Y117508D01*
X132208Y117065D01*
X132787Y116825D01*
X133413D01*
X133992Y117065D01*
X134435Y117508D01*
X134675Y118087D01*
Y118713D01*
X134435Y119292D01*
X133992Y119735D01*
X133413Y119975D01*
D02*
G37*
G36*
X207313Y119875D02*
X206687D01*
X206108Y119635D01*
X205665Y119192D01*
X205425Y118613D01*
Y117987D01*
X205665Y117408D01*
X206108Y116965D01*
X206687Y116725D01*
X207313D01*
X207892Y116965D01*
X208335Y117408D01*
X208575Y117987D01*
Y118613D01*
X208335Y119192D01*
X207892Y119635D01*
X207313Y119875D01*
D02*
G37*
G36*
X152813D02*
X152187D01*
X151608Y119635D01*
X151165Y119192D01*
X150925Y118613D01*
Y117987D01*
X151165Y117408D01*
X151608Y116965D01*
X152187Y116725D01*
X152813D01*
X153392Y116965D01*
X153835Y117408D01*
X154075Y117987D01*
Y118613D01*
X153835Y119192D01*
X153392Y119635D01*
X152813Y119875D01*
D02*
G37*
G36*
X143013D02*
X142387D01*
X141808Y119635D01*
X141365Y119192D01*
X141125Y118613D01*
Y117987D01*
X141365Y117408D01*
X141808Y116965D01*
X142387Y116725D01*
X143013D01*
X143592Y116965D01*
X144035Y117408D01*
X144275Y117987D01*
Y118613D01*
X144035Y119192D01*
X143592Y119635D01*
X143013Y119875D01*
D02*
G37*
G36*
X202313Y119675D02*
X201687D01*
X201108Y119435D01*
X200665Y118992D01*
X200425Y118413D01*
Y117787D01*
X200665Y117208D01*
X201108Y116765D01*
X201687Y116525D01*
X202313D01*
X202892Y116765D01*
X203335Y117208D01*
X203575Y117787D01*
Y118413D01*
X203335Y118992D01*
X202892Y119435D01*
X202313Y119675D01*
D02*
G37*
G36*
X147813D02*
X147187D01*
X146608Y119435D01*
X146165Y118992D01*
X145925Y118413D01*
Y117787D01*
X146165Y117208D01*
X146608Y116765D01*
X147187Y116525D01*
X147813D01*
X148392Y116765D01*
X148835Y117208D01*
X149075Y117787D01*
Y118413D01*
X148835Y118992D01*
X148392Y119435D01*
X147813Y119675D01*
D02*
G37*
G36*
X188713Y116375D02*
X188087D01*
X187508Y116135D01*
X187065Y115692D01*
X186825Y115113D01*
Y114487D01*
X187065Y113908D01*
X187508Y113465D01*
X188087Y113225D01*
X188713D01*
X189292Y113465D01*
X189735Y113908D01*
X189975Y114487D01*
Y115113D01*
X189735Y115692D01*
X189292Y116135D01*
X188713Y116375D01*
D02*
G37*
G36*
X188613Y111875D02*
X187987D01*
X187408Y111635D01*
X186965Y111192D01*
X186725Y110613D01*
Y109987D01*
X186965Y109408D01*
X187408Y108965D01*
X187987Y108725D01*
X188613D01*
X189192Y108965D01*
X189635Y109408D01*
X189875Y109987D01*
Y110613D01*
X189635Y111192D01*
X189192Y111635D01*
X188613Y111875D01*
D02*
G37*
G36*
X273719Y110675D02*
X273092D01*
X272514Y110435D01*
X272071Y109992D01*
X271831Y109413D01*
Y108787D01*
X272071Y108208D01*
X272514Y107765D01*
X273092Y107525D01*
X273719D01*
X274298Y107765D01*
X274741Y108208D01*
X274980Y108787D01*
Y109413D01*
X274741Y109992D01*
X274298Y110435D01*
X273719Y110675D01*
D02*
G37*
G36*
X268712Y110475D02*
X268086D01*
X267507Y110235D01*
X267064Y109792D01*
X266824Y109213D01*
Y108587D01*
X267064Y108008D01*
X267507Y107565D01*
X268086Y107325D01*
X268712D01*
X269291Y107565D01*
X269734Y108008D01*
X269974Y108587D01*
Y109213D01*
X269734Y109792D01*
X269291Y110235D01*
X268712Y110475D01*
D02*
G37*
G36*
X189366Y106575D02*
X188740D01*
X188161Y106335D01*
X187718Y105892D01*
X187478Y105313D01*
Y104687D01*
X187718Y104108D01*
X188161Y103665D01*
X188740Y103425D01*
X189366D01*
X189945Y103665D01*
X190388Y104108D01*
X190628Y104687D01*
Y105313D01*
X190388Y105892D01*
X189945Y106335D01*
X189366Y106575D01*
D02*
G37*
G36*
X172061D02*
X171434D01*
X170855Y106335D01*
X170412Y105892D01*
X170172Y105313D01*
Y104687D01*
X170412Y104108D01*
X170855Y103665D01*
X171434Y103425D01*
X172061D01*
X172639Y103665D01*
X173082Y104108D01*
X173322Y104687D01*
Y105313D01*
X173082Y105892D01*
X172639Y106335D01*
X172061Y106575D01*
D02*
G37*
%LPD*%
G36*
X219529Y226743D02*
X219516Y226711D01*
Y226281D01*
X219681Y225883D01*
X219834Y225729D01*
X219671Y225335D01*
X218781D01*
X218530Y225286D01*
X218317Y225143D01*
X217603Y224429D01*
X217233D01*
X216835Y224264D01*
X216531Y223960D01*
X216366Y223562D01*
Y223131D01*
X216531Y222733D01*
X216709Y222555D01*
X216661Y222128D01*
X216647Y222103D01*
X216638Y222099D01*
X216494Y221955D01*
X216467Y221944D01*
X215717Y221195D01*
X215706Y221168D01*
X215548Y221009D01*
X215474Y220969D01*
X215079Y220964D01*
X214913Y221130D01*
X214515Y221295D01*
X214084D01*
X213686Y221130D01*
X213381Y220826D01*
X213216Y220428D01*
Y219997D01*
X213381Y219599D01*
X213502Y219478D01*
X213683Y219289D01*
X213502Y218964D01*
X212469Y217931D01*
X212419Y217808D01*
X212344Y217773D01*
X211966Y217746D01*
X211763Y217949D01*
X211365Y218114D01*
X210934D01*
X210536Y217949D01*
X210232Y217645D01*
X210067Y217247D01*
Y216816D01*
X210232Y216418D01*
X210536Y216114D01*
X210934Y215949D01*
X211365D01*
X211763Y216114D01*
X211888Y216239D01*
X212282Y216076D01*
Y214853D01*
X211888Y214690D01*
X211755Y214823D01*
X211357Y214988D01*
X210926D01*
X210528Y214823D01*
X210224Y214519D01*
X210059Y214121D01*
Y213690D01*
X210224Y213292D01*
X210528Y212988D01*
X210926Y212823D01*
X211357D01*
X211755Y212988D01*
X211888Y213121D01*
X212282Y212958D01*
Y211688D01*
X211888Y211525D01*
X211755Y211658D01*
X211357Y211823D01*
X210926D01*
X210528Y211658D01*
X210224Y211353D01*
X210059Y210956D01*
Y210525D01*
X210224Y210127D01*
X210528Y209822D01*
X210926Y209658D01*
X211357D01*
X211755Y209822D01*
X211888Y209956D01*
X212282Y209793D01*
Y208546D01*
X211888Y208383D01*
X211755Y208516D01*
X211357Y208681D01*
X210926D01*
X210528Y208516D01*
X210224Y208212D01*
X210059Y207814D01*
Y207383D01*
X210224Y206985D01*
X210528Y206681D01*
X210926Y206516D01*
X211357D01*
X211755Y206681D01*
X211971Y206897D01*
X212318Y206878D01*
X212423Y206834D01*
X212469Y206723D01*
X213498Y205694D01*
X213684Y205370D01*
X213498Y205179D01*
X213381Y205062D01*
X213216Y204664D01*
Y204234D01*
X213381Y203836D01*
X213686Y203531D01*
X214084Y203366D01*
X214515D01*
X214913Y203531D01*
X215070Y203688D01*
X215465Y203688D01*
X215540Y203644D01*
X216615Y202570D01*
X217067Y202382D01*
X219594D01*
X219757Y201989D01*
X219681Y201912D01*
X219516Y201515D01*
Y201084D01*
X219681Y200686D01*
X219985Y200381D01*
X220383Y200217D01*
X220814D01*
X221212Y200381D01*
X221516Y200686D01*
X221681Y201084D01*
Y201515D01*
X221516Y201912D01*
X221440Y201989D01*
X221603Y202382D01*
X222743D01*
X222906Y201989D01*
X222830Y201912D01*
X222665Y201515D01*
Y201084D01*
X222830Y200686D01*
X223135Y200381D01*
X223533Y200217D01*
X223963D01*
X224361Y200381D01*
X224666Y200686D01*
X224831Y201084D01*
Y201515D01*
X224666Y201912D01*
X224590Y201989D01*
X224753Y202382D01*
X225893D01*
X226056Y201989D01*
X225980Y201912D01*
X225815Y201515D01*
Y201084D01*
X225980Y200686D01*
X226284Y200381D01*
X226682Y200217D01*
X227113D01*
X227473Y200366D01*
X227498Y200352D01*
X227725Y200034D01*
X227663Y199724D01*
X227663Y199724D01*
Y199430D01*
X227270Y199168D01*
X227113Y199232D01*
X226682D01*
X226284Y199067D01*
X225980Y198763D01*
X225815Y198365D01*
Y197934D01*
X225980Y197536D01*
X226284Y197232D01*
X226682Y197067D01*
X227113D01*
X227270Y197132D01*
X227663Y196870D01*
Y193130D01*
X227270Y192868D01*
X227113Y192933D01*
X226682D01*
X226284Y192768D01*
X225980Y192464D01*
X225815Y192066D01*
Y191635D01*
X225980Y191237D01*
X226284Y190933D01*
X226682Y190768D01*
X227113D01*
X227389Y190456D01*
X227411Y190358D01*
X226836Y189784D01*
X226682D01*
X226284Y189619D01*
X225980Y189314D01*
X225815Y188916D01*
Y188485D01*
X225980Y188087D01*
X226284Y187783D01*
X226682Y187618D01*
X227113D01*
X227511Y187783D01*
X227816Y188087D01*
X227980Y188485D01*
Y188639D01*
X228737Y189396D01*
X229071Y189173D01*
X228965Y188916D01*
Y188485D01*
X229129Y188087D01*
X229434Y187783D01*
X229832Y187618D01*
X230263D01*
X230661Y187783D01*
X230936Y188058D01*
X231383D01*
X231837Y188246D01*
X232266Y188119D01*
X232279Y188087D01*
X232503Y187864D01*
X232394Y187489D01*
X232382Y187470D01*
X231327D01*
X230875Y187283D01*
X230226Y186634D01*
X229832D01*
X229434Y186469D01*
X229129Y186164D01*
X228965Y185766D01*
Y185336D01*
X229129Y184938D01*
X229434Y184633D01*
X229832Y184468D01*
X230263D01*
X230661Y184633D01*
X230965Y184938D01*
X231130Y185336D01*
Y185730D01*
X231509Y186109D01*
X231897Y186082D01*
X232114Y185766D01*
Y185336D01*
X232279Y184938D01*
X232584Y184633D01*
X232981Y184468D01*
X233412D01*
X233810Y184633D01*
X234089Y184912D01*
X234272D01*
X235755Y183429D01*
X235733Y183319D01*
X235429Y183015D01*
X235264Y182617D01*
Y182186D01*
X235429Y181788D01*
X235733Y181484D01*
X236131Y181319D01*
X236562D01*
X236960Y181484D01*
X237238Y181762D01*
X251411D01*
X252727Y180446D01*
X252607Y180009D01*
X252387Y179918D01*
X252082Y179613D01*
X251917Y179215D01*
Y178785D01*
X252082Y178387D01*
X252286Y178182D01*
X252145Y177789D01*
X240543D01*
X240091Y177602D01*
X239675Y177185D01*
X239281D01*
X238883Y177020D01*
X238578Y176716D01*
X238413Y176318D01*
Y175887D01*
X238578Y175489D01*
X238883Y175185D01*
X239281Y175020D01*
X239711D01*
X240109Y175185D01*
X240414Y175489D01*
X240579Y175887D01*
Y176281D01*
X240808Y176510D01*
X241593D01*
X241756Y176117D01*
X239675Y174035D01*
X239281D01*
X238883Y173871D01*
X238578Y173566D01*
X238413Y173168D01*
Y172737D01*
X238426Y172706D01*
X238163Y172312D01*
X237679D01*
X237416Y172706D01*
X237429Y172737D01*
Y173168D01*
X237264Y173566D01*
X236960Y173871D01*
X236562Y174035D01*
X236131D01*
X235733Y173871D01*
X235429Y173566D01*
X235264Y173168D01*
Y172737D01*
X235277Y172706D01*
X235014Y172312D01*
X234530D01*
X234267Y172706D01*
X234279Y172737D01*
Y173168D01*
X234115Y173566D01*
X233810Y173871D01*
X233412Y174035D01*
X232981D01*
X232584Y173871D01*
X232279Y173566D01*
X232114Y173168D01*
Y172737D01*
X232127Y172706D01*
X231864Y172312D01*
X231380D01*
X231117Y172706D01*
X231130Y172737D01*
Y173168D01*
X230965Y173566D01*
X230661Y173871D01*
X230263Y174035D01*
X229832D01*
X229434Y173871D01*
X229129Y173566D01*
X228965Y173168D01*
Y172737D01*
X228977Y172706D01*
X228714Y172312D01*
X225081D01*
X224818Y172706D01*
X224831Y172737D01*
Y173168D01*
X224666Y173566D01*
X224361Y173871D01*
X223963Y174035D01*
X223533D01*
X223135Y173871D01*
X222830Y173566D01*
X222665Y173168D01*
Y172737D01*
X222830Y172339D01*
X223135Y172035D01*
X223157Y171925D01*
X221846Y170614D01*
X221842Y170605D01*
X221817Y170591D01*
X221390Y170543D01*
X221212Y170721D01*
X220814Y170886D01*
X220383D01*
X219985Y170721D01*
X219681Y170416D01*
X219516Y170018D01*
Y169588D01*
X219681Y169190D01*
X219985Y168885D01*
X220383Y168720D01*
X220814D01*
X220994Y168795D01*
X221427Y168598D01*
X221437Y168585D01*
X221469Y168428D01*
X220777Y167736D01*
X220383D01*
X219985Y167571D01*
X219681Y167267D01*
X219516Y166869D01*
Y166438D01*
X219681Y166040D01*
X219985Y165736D01*
X220383Y165571D01*
X220814D01*
X221212Y165736D01*
X221516Y166040D01*
X221681Y166438D01*
Y166832D01*
X222750Y167901D01*
X222937Y168353D01*
Y168569D01*
X223331Y168804D01*
X223533Y168720D01*
X223963D01*
X224361Y168885D01*
X224666Y169190D01*
X224831Y169588D01*
Y170018D01*
X224666Y170416D01*
X224442Y170640D01*
X224551Y171015D01*
X224563Y171034D01*
X226083D01*
X226095Y171015D01*
X226204Y170640D01*
X225980Y170416D01*
X225815Y170018D01*
Y169588D01*
X225980Y169190D01*
X226284Y168885D01*
X226682Y168720D01*
X227113D01*
X227511Y168885D01*
X227816Y169190D01*
X227980Y169588D01*
Y170018D01*
X227816Y170416D01*
X227592Y170640D01*
X227700Y171015D01*
X227712Y171034D01*
X229233D01*
X229245Y171015D01*
X229353Y170640D01*
X229129Y170416D01*
X228965Y170018D01*
Y169588D01*
X229129Y169190D01*
X229434Y168885D01*
X229832Y168720D01*
X230263D01*
X230661Y168885D01*
X230965Y169190D01*
X231130Y169588D01*
Y170018D01*
X230965Y170416D01*
X230741Y170640D01*
X230850Y171015D01*
X230862Y171034D01*
X232382D01*
X232394Y171015D01*
X232503Y170640D01*
X232279Y170416D01*
X232114Y170018D01*
Y169588D01*
X232279Y169190D01*
X232584Y168885D01*
X232981Y168720D01*
X233412D01*
X233810Y168885D01*
X234115Y169190D01*
X234279Y169588D01*
Y170018D01*
X234115Y170416D01*
X233891Y170640D01*
X233999Y171015D01*
X234012Y171034D01*
X238681D01*
X238693Y171015D01*
X238802Y170640D01*
X238578Y170416D01*
X238413Y170018D01*
Y169588D01*
X238578Y169190D01*
X238883Y168885D01*
X239281Y168720D01*
X239711D01*
X240109Y168885D01*
X240414Y169190D01*
X240579Y169588D01*
Y169982D01*
X241596Y170999D01*
X242423D01*
X242573Y170635D01*
X239675Y167736D01*
X239281D01*
X238883Y167571D01*
X238578Y167267D01*
X238413Y166869D01*
Y166438D01*
X238578Y166040D01*
X238686Y165933D01*
X238523Y165539D01*
X237742D01*
X237291Y165352D01*
X236525Y164587D01*
X236131D01*
X235733Y164422D01*
X235429Y164117D01*
X235264Y163719D01*
Y163289D01*
X235277Y163257D01*
X235014Y162864D01*
X234530D01*
X234267Y163257D01*
X234279Y163289D01*
Y163719D01*
X234115Y164117D01*
X233810Y164422D01*
X233412Y164587D01*
X232981D01*
X232584Y164422D01*
X232279Y164117D01*
X232114Y163719D01*
Y163289D01*
X232127Y163257D01*
X231864Y162864D01*
X231358D01*
X231095Y163257D01*
X231114Y163304D01*
Y163735D01*
X230949Y164133D01*
X230645Y164437D01*
X230247Y164602D01*
X229816D01*
X229418Y164437D01*
X229114Y164133D01*
X228949Y163735D01*
Y163304D01*
X228968Y163257D01*
X228705Y162864D01*
X228230D01*
X227967Y163257D01*
X227980Y163289D01*
Y163719D01*
X227816Y164117D01*
X227511Y164422D01*
X227113Y164587D01*
X226682D01*
X226284Y164422D01*
X225980Y164117D01*
X225815Y163719D01*
Y163289D01*
X225828Y163257D01*
X225565Y162864D01*
X221931D01*
X221668Y163257D01*
X221681Y163289D01*
Y163719D01*
X221516Y164117D01*
X221212Y164422D01*
X220814Y164587D01*
X220383D01*
X219985Y164422D01*
X219681Y164117D01*
X219516Y163719D01*
Y163289D01*
X219299Y162973D01*
X218911Y162946D01*
X218531Y163325D01*
Y163719D01*
X218367Y164117D01*
X218062Y164422D01*
X217664Y164587D01*
X217233D01*
X216835Y164422D01*
X216531Y164117D01*
X216366Y163719D01*
Y163289D01*
X216531Y162891D01*
X216835Y162586D01*
X217233Y162421D01*
X217446D01*
X217548Y162285D01*
X217352Y161891D01*
X216800D01*
X215366Y163325D01*
Y163719D01*
X215201Y164117D01*
X214897Y164422D01*
X214499Y164587D01*
X214068D01*
X214037Y164574D01*
X213657Y164791D01*
X213630Y164831D01*
X213456Y165251D01*
X212232Y166475D01*
Y166869D01*
X212067Y167267D01*
X211763Y167571D01*
X211365Y167736D01*
X210934D01*
X210536Y167571D01*
X210232Y167267D01*
X210067Y166869D01*
Y166438D01*
X210232Y166040D01*
X210536Y165736D01*
X210934Y165571D01*
X211328D01*
X212192Y164707D01*
X212163Y164578D01*
X211793Y164434D01*
X211727Y164437D01*
X211365Y164587D01*
X210934D01*
X210536Y164422D01*
X210232Y164117D01*
X210067Y163719D01*
Y163289D01*
X210232Y162891D01*
X210510Y162612D01*
Y160098D01*
X210698Y159646D01*
X215914Y154429D01*
X216366Y154242D01*
X247491D01*
X247942Y154429D01*
X248154Y154640D01*
X251667D01*
X251930Y154247D01*
X251917Y154215D01*
Y153785D01*
X252082Y153387D01*
X252286Y153183D01*
X252144Y152789D01*
X205574D01*
X200406Y157957D01*
X200569Y158350D01*
X204642D01*
X208045Y161754D01*
Y200217D01*
X208215D01*
X208613Y200381D01*
X208918Y200686D01*
X209083Y201084D01*
Y201515D01*
X208918Y201912D01*
X208613Y202217D01*
X208215Y202382D01*
X208045D01*
Y227136D01*
X209817D01*
X210080Y226743D01*
X210067Y226711D01*
Y226281D01*
X210232Y225883D01*
X210536Y225578D01*
X210934Y225413D01*
X211365D01*
X211763Y225578D01*
X212067Y225883D01*
X212232Y226281D01*
Y226711D01*
X212219Y226743D01*
X212482Y227136D01*
X212966D01*
X213229Y226743D01*
X213216Y226711D01*
Y226281D01*
X213381Y225883D01*
X213686Y225578D01*
X214084Y225413D01*
X214515D01*
X214913Y225578D01*
X215217Y225883D01*
X215382Y226281D01*
Y226711D01*
X215369Y226743D01*
X215632Y227136D01*
X216116D01*
X216379Y226743D01*
X216366Y226711D01*
Y226281D01*
X216531Y225883D01*
X216835Y225578D01*
X217233Y225413D01*
X217664D01*
X218062Y225578D01*
X218367Y225883D01*
X218531Y226281D01*
Y226711D01*
X218518Y226743D01*
X218782Y227136D01*
X219266D01*
X219529Y226743D01*
D02*
G37*
G36*
X251945Y224283D02*
X251917Y224215D01*
Y223821D01*
X247575Y219479D01*
X244503Y216407D01*
X240829D01*
X240566Y216801D01*
X240579Y216832D01*
Y217263D01*
X240414Y217660D01*
X240109Y217965D01*
X239711Y218130D01*
X239281D01*
X238883Y217965D01*
X238578Y217660D01*
X238413Y217263D01*
Y216832D01*
X238426Y216801D01*
X238163Y216407D01*
X237679D01*
X237416Y216801D01*
X237429Y216832D01*
Y217263D01*
X237264Y217660D01*
X236960Y217965D01*
X236562Y218130D01*
X236131D01*
X235733Y217965D01*
X235429Y217660D01*
X235264Y217263D01*
Y216832D01*
X235277Y216801D01*
X235014Y216407D01*
X234530D01*
X234267Y216801D01*
X234279Y216832D01*
Y217263D01*
X234115Y217660D01*
X233810Y217965D01*
X233412Y218130D01*
X232981D01*
X232584Y217965D01*
X232279Y217660D01*
X232114Y217263D01*
Y216832D01*
X232127Y216801D01*
X231864Y216407D01*
X228230D01*
X227967Y216801D01*
X227980Y216832D01*
Y217263D01*
X227816Y217660D01*
X227511Y217965D01*
X227113Y218130D01*
X226682D01*
X226284Y217965D01*
X225980Y217660D01*
X225815Y217263D01*
Y216832D01*
X225828Y216801D01*
X225565Y216407D01*
X225081D01*
X224818Y216801D01*
X224831Y216832D01*
Y217263D01*
X224666Y217660D01*
X224361Y217965D01*
X223963Y218130D01*
X223533D01*
X223135Y217965D01*
X222830Y217660D01*
X222665Y217263D01*
Y216832D01*
X222678Y216801D01*
X222415Y216407D01*
X221931D01*
X221668Y216801D01*
X221681Y216832D01*
Y217263D01*
X221516Y217660D01*
X221212Y217965D01*
X220814Y218130D01*
X220383D01*
X219985Y217965D01*
X219681Y217660D01*
X219516Y217263D01*
Y216832D01*
X219529Y216801D01*
X219266Y216407D01*
X218782D01*
X218518Y216801D01*
X218531Y216832D01*
Y217263D01*
X218367Y217660D01*
X218062Y217965D01*
X217664Y218130D01*
X217233D01*
X216835Y217965D01*
X216531Y217660D01*
X216366Y217263D01*
Y216832D01*
X216379Y216801D01*
X216187Y216440D01*
X216124Y216388D01*
X215717Y216220D01*
X214478Y214980D01*
X214084D01*
X213954Y214927D01*
X213561Y215190D01*
Y215755D01*
X213954Y216018D01*
X214084Y215965D01*
X214515D01*
X214913Y216129D01*
X215217Y216434D01*
X215382Y216832D01*
Y217263D01*
X215217Y217660D01*
X215032Y217846D01*
X215074Y218261D01*
X215094Y218298D01*
X215127Y218311D01*
X216216Y219400D01*
X216469Y219560D01*
X216730Y219400D01*
X216835Y219295D01*
X217233Y219130D01*
X217664D01*
X218062Y219295D01*
X218367Y219599D01*
X218531Y219997D01*
Y220428D01*
X218454Y220614D01*
X218699Y221008D01*
X222514D01*
X222749Y220614D01*
X222665Y220412D01*
Y219982D01*
X222830Y219584D01*
X223135Y219279D01*
X223533Y219114D01*
X223963D01*
X224361Y219279D01*
X224666Y219584D01*
X224831Y219982D01*
Y220412D01*
X224747Y220614D01*
X224982Y221008D01*
X225663D01*
X225899Y220614D01*
X225815Y220412D01*
Y219982D01*
X225980Y219584D01*
X226284Y219279D01*
X226682Y219114D01*
X227113D01*
X227511Y219279D01*
X227816Y219584D01*
X227980Y219982D01*
Y220412D01*
X227897Y220614D01*
X228132Y221008D01*
X228813D01*
X229048Y220614D01*
X228965Y220412D01*
Y219982D01*
X229129Y219584D01*
X229434Y219279D01*
X229832Y219114D01*
X230263D01*
X230661Y219279D01*
X230965Y219584D01*
X231130Y219982D01*
Y220412D01*
X231046Y220614D01*
X231282Y221008D01*
X231962D01*
X232198Y220614D01*
X232114Y220412D01*
Y219982D01*
X232279Y219584D01*
X232584Y219279D01*
X232981Y219114D01*
X233412D01*
X233810Y219279D01*
X234115Y219584D01*
X234279Y219982D01*
Y220412D01*
X234115Y220810D01*
X234002Y220923D01*
X233818Y221129D01*
X234002Y221438D01*
X235271Y222707D01*
X235455D01*
X235733Y222429D01*
X236131Y222264D01*
X236562D01*
X236960Y222429D01*
X237264Y222733D01*
X237429Y223131D01*
Y223562D01*
X237401Y223629D01*
X237664Y224023D01*
X238178D01*
X238441Y223629D01*
X238413Y223562D01*
Y223131D01*
X238578Y222733D01*
X238883Y222429D01*
X239281Y222264D01*
X239711D01*
X240109Y222429D01*
X240414Y222733D01*
X240579Y223131D01*
Y223562D01*
X240414Y223960D01*
X240109Y224264D01*
X240104Y224291D01*
X240489Y224676D01*
X251682D01*
X251945Y224283D01*
D02*
G37*
G36*
X219796Y215110D02*
X219904Y214735D01*
X219681Y214511D01*
X219516Y214113D01*
Y213682D01*
X219681Y213284D01*
X219985Y212980D01*
X220383Y212815D01*
X220777D01*
X221599Y211993D01*
X222051Y211806D01*
X222718D01*
X222881Y211412D01*
X222830Y211361D01*
X222665Y210963D01*
Y210533D01*
X222830Y210135D01*
X223135Y209830D01*
X223533Y209665D01*
X223963D01*
X224361Y209830D01*
X224666Y210135D01*
X224831Y210533D01*
Y210963D01*
X224666Y211361D01*
X224615Y211412D01*
X224778Y211806D01*
X225868D01*
X226031Y211412D01*
X225980Y211361D01*
X225815Y210963D01*
Y210533D01*
X225980Y210135D01*
X226284Y209830D01*
X226682Y209665D01*
X227113D01*
X227511Y209830D01*
X227816Y210135D01*
X227980Y210533D01*
Y210963D01*
X227816Y211361D01*
X227765Y211412D01*
X227928Y211806D01*
X229017D01*
X229180Y211412D01*
X229129Y211361D01*
X228965Y210963D01*
Y210533D01*
X229129Y210135D01*
X229434Y209830D01*
X229832Y209665D01*
X230263D01*
X230661Y209830D01*
X230965Y210135D01*
X231130Y210533D01*
Y210963D01*
X230965Y211361D01*
X230914Y211412D01*
X231077Y211806D01*
X232167D01*
X232330Y211412D01*
X232279Y211361D01*
X232114Y210963D01*
Y210533D01*
X232279Y210135D01*
X232584Y209830D01*
X232981Y209665D01*
X233412D01*
X233810Y209830D01*
X234115Y210135D01*
X234279Y210533D01*
Y210963D01*
X234115Y211361D01*
X234064Y211412D01*
X234227Y211806D01*
X235316D01*
X235480Y211412D01*
X235429Y211361D01*
X235264Y210963D01*
Y210533D01*
X235429Y210135D01*
X235733Y209830D01*
X236131Y209665D01*
X236562D01*
X236960Y209830D01*
X237264Y210135D01*
X237429Y210533D01*
Y210963D01*
X237264Y211361D01*
X237213Y211412D01*
X237376Y211806D01*
X238466D01*
X238629Y211412D01*
X238578Y211361D01*
X238413Y210963D01*
Y210533D01*
X238578Y210135D01*
X238883Y209830D01*
X239281Y209665D01*
X239711D01*
X240109Y209830D01*
X240414Y210135D01*
X240448Y210218D01*
X240592Y210528D01*
X240924Y210415D01*
X241054Y210361D01*
X241662D01*
X241785Y210412D01*
X242102Y210475D01*
X242359Y210647D01*
X242726Y210498D01*
X242753Y210473D01*
Y207377D01*
X242804Y207254D01*
X242838Y207086D01*
X242594Y206692D01*
X240635D01*
X240456Y207086D01*
X240579Y207383D01*
Y207814D01*
X240414Y208212D01*
X240109Y208516D01*
X239711Y208681D01*
X239281D01*
X238883Y208516D01*
X238578Y208212D01*
X238413Y207814D01*
Y207383D01*
X238537Y207086D01*
X238357Y206692D01*
X237486D01*
X237306Y207086D01*
X237429Y207383D01*
Y207814D01*
X237264Y208212D01*
X236960Y208516D01*
X236562Y208681D01*
X236131D01*
X235733Y208516D01*
X235429Y208212D01*
X235264Y207814D01*
Y207383D01*
X235387Y207086D01*
X235207Y206692D01*
X234336D01*
X234156Y207086D01*
X234279Y207383D01*
Y207814D01*
X234115Y208212D01*
X233810Y208516D01*
X233412Y208681D01*
X232981D01*
X232584Y208516D01*
X232279Y208212D01*
X232114Y207814D01*
Y207383D01*
X232237Y207086D01*
X232058Y206692D01*
X231186D01*
X231007Y207086D01*
X231130Y207383D01*
Y207814D01*
X230965Y208212D01*
X230661Y208516D01*
X230263Y208681D01*
X229832D01*
X229434Y208516D01*
X229129Y208212D01*
X228965Y207814D01*
Y207383D01*
X229088Y207086D01*
X228908Y206692D01*
X224887D01*
X224708Y207086D01*
X224831Y207383D01*
Y207814D01*
X224666Y208212D01*
X224361Y208516D01*
X223963Y208681D01*
X223533D01*
X223135Y208516D01*
X222830Y208212D01*
X222665Y207814D01*
Y207383D01*
X222789Y207086D01*
X222609Y206692D01*
X221738D01*
X221558Y207086D01*
X221681Y207383D01*
Y207814D01*
X221516Y208212D01*
X221212Y208516D01*
X220814Y208681D01*
X220383D01*
X219985Y208516D01*
X219681Y208212D01*
X219516Y207814D01*
Y207383D01*
X219549Y207303D01*
X219322Y206889D01*
X219102Y206857D01*
X215390Y210569D01*
Y210963D01*
X215225Y211361D01*
X214920Y211666D01*
X214522Y211831D01*
X214092D01*
X213954Y211774D01*
X213561Y212037D01*
Y212606D01*
X213954Y212869D01*
X214084Y212815D01*
X214515D01*
X214913Y212980D01*
X215217Y213284D01*
X215382Y213682D01*
Y214076D01*
X216277Y214971D01*
X216403Y214940D01*
X216531Y214511D01*
X216528Y214504D01*
X216366Y214113D01*
Y213682D01*
X216531Y213284D01*
X216835Y212980D01*
X217233Y212815D01*
X217664D01*
X218062Y212980D01*
X218367Y213284D01*
X218531Y213682D01*
Y214113D01*
X218367Y214511D01*
X218143Y214735D01*
X218251Y215110D01*
X218264Y215128D01*
X219784D01*
X219796Y215110D01*
D02*
G37*
G36*
X301261Y198735D02*
Y193865D01*
X298345Y190949D01*
X296372D01*
X296221Y191312D01*
X297826Y192917D01*
X298215D01*
X298613Y193082D01*
X298918Y193387D01*
X299083Y193785D01*
Y194215D01*
X298918Y194613D01*
X298613Y194918D01*
X298215Y195083D01*
X297785D01*
X297387Y194918D01*
X297082Y194613D01*
X296917Y194215D01*
Y193826D01*
X294834Y191743D01*
X292166D01*
X292015Y192106D01*
X292826Y192917D01*
X293215D01*
X293613Y193082D01*
X293918Y193387D01*
X294083Y193785D01*
Y194215D01*
X293918Y194613D01*
X293613Y194918D01*
X293215Y195083D01*
X292785D01*
X292387Y194918D01*
X292082Y194613D01*
X291917Y194215D01*
Y193826D01*
X290628Y192536D01*
X288246D01*
X288215Y192917D01*
X288613Y193082D01*
X288918Y193387D01*
X289083Y193785D01*
Y194215D01*
X288918Y194613D01*
X288613Y194918D01*
X288215Y195083D01*
X287785D01*
X287387Y194918D01*
X287082Y194613D01*
X286917Y194215D01*
Y193785D01*
X287082Y193387D01*
X287387Y193082D01*
X287785Y192917D01*
X287754Y192536D01*
X283246D01*
X283215Y192917D01*
X283613Y193082D01*
X283918Y193387D01*
X284083Y193785D01*
Y194215D01*
X283918Y194613D01*
X283613Y194918D01*
X283215Y195083D01*
X282785D01*
X282387Y194918D01*
X282082Y194613D01*
X281917Y194215D01*
Y193785D01*
X282082Y193387D01*
X282387Y193082D01*
X282785Y192917D01*
X282754Y192536D01*
X278246D01*
X278215Y192917D01*
X278613Y193082D01*
X278918Y193387D01*
X279083Y193785D01*
Y194215D01*
X279070Y194247D01*
X279262Y194608D01*
X279325Y194659D01*
X279731Y194827D01*
X282821Y197917D01*
X283215D01*
X283613Y198082D01*
X283918Y198387D01*
X284001Y198589D01*
X284446Y198701D01*
X284599Y198548D01*
X285051Y198361D01*
X287108D01*
X287387Y198082D01*
X287785Y197917D01*
X288215D01*
X288613Y198082D01*
X288918Y198387D01*
X289083Y198785D01*
Y199215D01*
X288918Y199613D01*
X288613Y199918D01*
X288215Y200083D01*
X287785D01*
X287387Y199918D01*
X287108Y199639D01*
X285316D01*
X284224Y200731D01*
X284138Y200767D01*
X284216Y201161D01*
X298835D01*
X301261Y198735D01*
D02*
G37*
G36*
X280723Y200767D02*
X280637Y200731D01*
X277305Y197399D01*
X241858D01*
X241707Y197763D01*
X245105Y201161D01*
X280645D01*
X280723Y200767D01*
D02*
G37*
G36*
X285533Y179247D02*
X278875Y172588D01*
X278688Y172136D01*
Y170313D01*
X278294Y170050D01*
X278215Y170083D01*
X277785D01*
X277387Y169918D01*
X277082Y169613D01*
X276917Y169215D01*
Y168785D01*
X277082Y168387D01*
X277387Y168082D01*
X277418Y168069D01*
X277510Y167605D01*
X275919Y166013D01*
X250700D01*
X250248Y165826D01*
X249961Y165539D01*
X240470D01*
X240306Y165933D01*
X240414Y166040D01*
X240579Y166438D01*
Y166832D01*
X243958Y170211D01*
X252145D01*
X252286Y169817D01*
X252082Y169613D01*
X251917Y169215D01*
Y168785D01*
X252082Y168387D01*
X252387Y168082D01*
X252785Y167917D01*
X253215D01*
X253613Y168082D01*
X253918Y168387D01*
X254083Y168785D01*
Y169215D01*
X253918Y169613D01*
X253714Y169817D01*
X253855Y170211D01*
X257144D01*
X257286Y169817D01*
X257082Y169613D01*
X256917Y169215D01*
Y168785D01*
X257082Y168387D01*
X257387Y168082D01*
X257785Y167917D01*
X258215D01*
X258613Y168082D01*
X258918Y168387D01*
X259083Y168785D01*
Y169215D01*
X258918Y169613D01*
X258714Y169817D01*
X258856Y170211D01*
X262144D01*
X262286Y169817D01*
X262082Y169613D01*
X261917Y169215D01*
Y168785D01*
X262082Y168387D01*
X262387Y168082D01*
X262785Y167917D01*
X263215D01*
X263613Y168082D01*
X263918Y168387D01*
X264083Y168785D01*
Y169215D01*
X263918Y169613D01*
X263714Y169817D01*
X263856Y170211D01*
X267144D01*
X267286Y169817D01*
X267082Y169613D01*
X266917Y169215D01*
Y168785D01*
X267082Y168387D01*
X267387Y168082D01*
X267785Y167917D01*
X268215D01*
X268613Y168082D01*
X268918Y168387D01*
X269083Y168785D01*
Y169215D01*
X268918Y169613D01*
X268714Y169817D01*
X268856Y170211D01*
X272145D01*
X272286Y169817D01*
X272082Y169613D01*
X271917Y169215D01*
Y168785D01*
X272082Y168387D01*
X272387Y168082D01*
X272785Y167917D01*
X273215D01*
X273613Y168082D01*
X273918Y168387D01*
X274083Y168785D01*
Y169215D01*
X273918Y169613D01*
X273684Y169848D01*
X273710Y170163D01*
X273757Y170284D01*
X274033Y170398D01*
X276295Y172661D01*
X276482Y173112D01*
Y176578D01*
X277821Y177917D01*
X278215D01*
X278613Y178082D01*
X278918Y178387D01*
X279083Y178785D01*
Y179215D01*
X279070Y179247D01*
X279333Y179640D01*
X281667D01*
X281930Y179247D01*
X281917Y179215D01*
Y178785D01*
X282082Y178387D01*
X282387Y178082D01*
X282785Y177917D01*
X283215D01*
X283613Y178082D01*
X283918Y178387D01*
X284083Y178785D01*
Y179215D01*
X284070Y179247D01*
X284333Y179640D01*
X285370D01*
X285533Y179247D01*
D02*
G37*
G36*
X271930Y179247D02*
X271917Y179215D01*
Y178785D01*
X272082Y178387D01*
X272387Y178082D01*
X272785Y177917D01*
X273179D01*
X274211Y176885D01*
Y173498D01*
X272990Y172277D01*
X252695D01*
X252545Y172641D01*
X252821Y172917D01*
X253215D01*
X253613Y173082D01*
X253918Y173387D01*
X254083Y173785D01*
Y174215D01*
X253918Y174613D01*
X253697Y174834D01*
X253813Y175221D01*
X253818Y175228D01*
X257182D01*
X257187Y175221D01*
X257303Y174834D01*
X257082Y174613D01*
X256917Y174215D01*
Y173785D01*
X257082Y173387D01*
X257387Y173082D01*
X257785Y172917D01*
X258215D01*
X258613Y173082D01*
X258918Y173387D01*
X259083Y173785D01*
Y174215D01*
X258918Y174613D01*
X258697Y174834D01*
X258813Y175221D01*
X258818Y175228D01*
X262182D01*
X262187Y175221D01*
X262303Y174834D01*
X262082Y174613D01*
X261917Y174215D01*
Y173785D01*
X262082Y173387D01*
X262387Y173082D01*
X262785Y172917D01*
X263215D01*
X263613Y173082D01*
X263918Y173387D01*
X264083Y173785D01*
Y174215D01*
X263918Y174613D01*
X263613Y174918D01*
X263215Y175083D01*
X263118D01*
X263061Y175187D01*
X262997Y175476D01*
X265882Y178361D01*
X267108D01*
X267387Y178082D01*
X267785Y177917D01*
X268215D01*
X268613Y178082D01*
X268918Y178387D01*
X269083Y178785D01*
Y179215D01*
X269070Y179247D01*
X269333Y179640D01*
X271667D01*
X271930Y179247D01*
D02*
G37*
G36*
X212459Y162747D02*
X212552Y162522D01*
X216026Y159048D01*
X216478Y158861D01*
X234509D01*
X235532Y157838D01*
X235440Y157373D01*
X235404Y157359D01*
X235100Y157054D01*
X234935Y156656D01*
Y156226D01*
X235064Y155914D01*
X234942Y155633D01*
X234850Y155520D01*
X218709D01*
X218499Y155914D01*
X218675Y156340D01*
Y156966D01*
X218435Y157545D01*
X217992Y157988D01*
X217413Y158228D01*
X216787D01*
X216208Y157988D01*
X215765Y157545D01*
X215589Y157119D01*
X215161Y156990D01*
X211789Y160362D01*
Y162520D01*
X212083Y162810D01*
X212459Y162747D01*
D02*
G37*
%LPC*%
G36*
X214540Y224404D02*
X214109D01*
X213712Y224239D01*
X213407Y223934D01*
X213242Y223536D01*
Y223106D01*
X213407Y222708D01*
X213712Y222403D01*
X214109Y222238D01*
X214540D01*
X214938Y222403D01*
X215243Y222708D01*
X215407Y223106D01*
Y223536D01*
X215243Y223934D01*
X214938Y224239D01*
X214540Y224404D01*
D02*
G37*
G36*
X211365Y221280D02*
X210934D01*
X210536Y221115D01*
X210232Y220810D01*
X210067Y220412D01*
Y219982D01*
X210232Y219584D01*
X210536Y219279D01*
X210934Y219114D01*
X211365D01*
X211763Y219279D01*
X212067Y219584D01*
X212232Y219982D01*
Y220412D01*
X212067Y220810D01*
X211763Y221115D01*
X211365Y221280D01*
D02*
G37*
G36*
X220814Y199232D02*
X220383D01*
X219985Y199067D01*
X219681Y198763D01*
X219516Y198365D01*
Y197934D01*
X219681Y197536D01*
X219985Y197232D01*
X220383Y197067D01*
X220814D01*
X221212Y197232D01*
X221516Y197536D01*
X221681Y197934D01*
Y198365D01*
X221516Y198763D01*
X221212Y199067D01*
X220814Y199232D01*
D02*
G37*
G36*
X214515D02*
X214084D01*
X213686Y199067D01*
X213381Y198763D01*
X213216Y198365D01*
Y197934D01*
X213381Y197536D01*
X213686Y197232D01*
X214084Y197067D01*
X214515D01*
X214913Y197232D01*
X215217Y197536D01*
X215382Y197934D01*
Y198365D01*
X215217Y198763D01*
X214913Y199067D01*
X214515Y199232D01*
D02*
G37*
G36*
X223963Y192933D02*
X223533D01*
X223135Y192768D01*
X222830Y192464D01*
X222665Y192066D01*
Y191635D01*
X222830Y191237D01*
X223135Y190933D01*
X223533Y190768D01*
X223963D01*
X224361Y190933D01*
X224666Y191237D01*
X224831Y191635D01*
Y192066D01*
X224666Y192464D01*
X224361Y192768D01*
X223963Y192933D01*
D02*
G37*
G36*
X220814D02*
X220383D01*
X219985Y192768D01*
X219681Y192464D01*
X219516Y192066D01*
Y191635D01*
X219681Y191237D01*
X219985Y190933D01*
X220383Y190768D01*
X220814D01*
X221212Y190933D01*
X221516Y191237D01*
X221681Y191635D01*
Y192066D01*
X221516Y192464D01*
X221212Y192768D01*
X220814Y192933D01*
D02*
G37*
G36*
X211365D02*
X210934D01*
X210536Y192768D01*
X210232Y192464D01*
X210067Y192066D01*
Y191635D01*
X210232Y191237D01*
X210536Y190933D01*
X210934Y190768D01*
X211365D01*
X211763Y190933D01*
X212067Y191237D01*
X212232Y191635D01*
Y192066D01*
X212067Y192464D01*
X211763Y192768D01*
X211365Y192933D01*
D02*
G37*
G36*
X223963Y189784D02*
X223533D01*
X223135Y189619D01*
X222830Y189314D01*
X222665Y188916D01*
Y188485D01*
X222830Y188087D01*
X223135Y187783D01*
X223533Y187618D01*
X223963D01*
X224361Y187783D01*
X224666Y188087D01*
X224831Y188485D01*
Y188916D01*
X224666Y189314D01*
X224361Y189619D01*
X223963Y189784D01*
D02*
G37*
G36*
X220814D02*
X220383D01*
X219985Y189619D01*
X219681Y189314D01*
X219516Y188916D01*
Y188485D01*
X219681Y188087D01*
X219985Y187783D01*
X220383Y187618D01*
X220814D01*
X221212Y187783D01*
X221516Y188087D01*
X221681Y188485D01*
Y188916D01*
X221516Y189314D01*
X221212Y189619D01*
X220814Y189784D01*
D02*
G37*
G36*
X214515D02*
X214084D01*
X213686Y189619D01*
X213381Y189314D01*
X213216Y188916D01*
Y188485D01*
X213381Y188087D01*
X213686Y187783D01*
X214084Y187618D01*
X214515D01*
X214913Y187783D01*
X215217Y188087D01*
X215382Y188485D01*
Y188916D01*
X215217Y189314D01*
X214913Y189619D01*
X214515Y189784D01*
D02*
G37*
G36*
X227113Y186634D02*
X226682D01*
X226284Y186469D01*
X225980Y186164D01*
X225815Y185766D01*
Y185336D01*
X225980Y184938D01*
X226284Y184633D01*
X226682Y184468D01*
X227113D01*
X227511Y184633D01*
X227816Y184938D01*
X227980Y185336D01*
Y185766D01*
X227816Y186164D01*
X227511Y186469D01*
X227113Y186634D01*
D02*
G37*
G36*
X223963D02*
X223533D01*
X223135Y186469D01*
X222830Y186164D01*
X222665Y185766D01*
Y185336D01*
X222830Y184938D01*
X223135Y184633D01*
X223533Y184468D01*
X223963D01*
X224361Y184633D01*
X224666Y184938D01*
X224831Y185336D01*
Y185766D01*
X224666Y186164D01*
X224361Y186469D01*
X223963Y186634D01*
D02*
G37*
G36*
X211349D02*
X210918D01*
X210521Y186469D01*
X210216Y186164D01*
X210051Y185766D01*
Y185336D01*
X210216Y184938D01*
X210521Y184633D01*
X210918Y184468D01*
X211349D01*
X211747Y184633D01*
X212052Y184938D01*
X212216Y185336D01*
Y185766D01*
X212052Y186164D01*
X211747Y186469D01*
X211349Y186634D01*
D02*
G37*
G36*
X233412Y183484D02*
X232981D01*
X232584Y183319D01*
X232279Y183015D01*
X232114Y182617D01*
Y182186D01*
X232279Y181788D01*
X232584Y181484D01*
X232981Y181319D01*
X233412D01*
X233810Y181484D01*
X234115Y181788D01*
X234279Y182186D01*
Y182617D01*
X234115Y183015D01*
X233810Y183319D01*
X233412Y183484D01*
D02*
G37*
G36*
X227113D02*
X226682D01*
X226284Y183319D01*
X225980Y183015D01*
X225815Y182617D01*
Y182186D01*
X225980Y181788D01*
X226284Y181484D01*
X226682Y181319D01*
X227113D01*
X227511Y181484D01*
X227816Y181788D01*
X227980Y182186D01*
Y182617D01*
X227816Y183015D01*
X227511Y183319D01*
X227113Y183484D01*
D02*
G37*
G36*
X223963D02*
X223533D01*
X223135Y183319D01*
X222830Y183015D01*
X222665Y182617D01*
Y182186D01*
X222830Y181788D01*
X223135Y181484D01*
X223533Y181319D01*
X223963D01*
X224361Y181484D01*
X224666Y181788D01*
X224831Y182186D01*
Y182617D01*
X224666Y183015D01*
X224361Y183319D01*
X223963Y183484D01*
D02*
G37*
G36*
X220814D02*
X220383D01*
X219985Y183319D01*
X219681Y183015D01*
X219516Y182617D01*
Y182186D01*
X219681Y181788D01*
X219985Y181484D01*
X220383Y181319D01*
X220814D01*
X221212Y181484D01*
X221516Y181788D01*
X221681Y182186D01*
Y182617D01*
X221516Y183015D01*
X221212Y183319D01*
X220814Y183484D01*
D02*
G37*
G36*
X214515D02*
X214084D01*
X213686Y183319D01*
X213381Y183015D01*
X213216Y182617D01*
Y182186D01*
X213381Y181788D01*
X213686Y181484D01*
X214084Y181319D01*
X214515D01*
X214913Y181484D01*
X215217Y181788D01*
X215382Y182186D01*
Y182617D01*
X215217Y183015D01*
X214913Y183319D01*
X214515Y183484D01*
D02*
G37*
G36*
X236562Y180335D02*
X236131D01*
X235733Y180170D01*
X235429Y179865D01*
X235264Y179467D01*
Y179037D01*
X235429Y178639D01*
X235733Y178334D01*
X236131Y178169D01*
X236562D01*
X236960Y178334D01*
X237264Y178639D01*
X237429Y179037D01*
Y179467D01*
X237264Y179865D01*
X236960Y180170D01*
X236562Y180335D01*
D02*
G37*
G36*
X233412D02*
X232981D01*
X232584Y180170D01*
X232279Y179865D01*
X232114Y179467D01*
Y179037D01*
X232279Y178639D01*
X232584Y178334D01*
X232981Y178169D01*
X233412D01*
X233810Y178334D01*
X234115Y178639D01*
X234279Y179037D01*
Y179467D01*
X234115Y179865D01*
X233810Y180170D01*
X233412Y180335D01*
D02*
G37*
G36*
X230263D02*
X229832D01*
X229434Y180170D01*
X229129Y179865D01*
X228965Y179467D01*
Y179037D01*
X229129Y178639D01*
X229434Y178334D01*
X229832Y178169D01*
X230263D01*
X230661Y178334D01*
X230965Y178639D01*
X231130Y179037D01*
Y179467D01*
X230965Y179865D01*
X230661Y180170D01*
X230263Y180335D01*
D02*
G37*
G36*
X227113D02*
X226682D01*
X226284Y180170D01*
X225980Y179865D01*
X225815Y179467D01*
Y179037D01*
X225980Y178639D01*
X226284Y178334D01*
X226682Y178169D01*
X227113D01*
X227511Y178334D01*
X227816Y178639D01*
X227980Y179037D01*
Y179467D01*
X227816Y179865D01*
X227511Y180170D01*
X227113Y180335D01*
D02*
G37*
G36*
X223963D02*
X223533D01*
X223135Y180170D01*
X222830Y179865D01*
X222665Y179467D01*
Y179037D01*
X222830Y178639D01*
X223135Y178334D01*
X223533Y178169D01*
X223963D01*
X224361Y178334D01*
X224666Y178639D01*
X224831Y179037D01*
Y179467D01*
X224666Y179865D01*
X224361Y180170D01*
X223963Y180335D01*
D02*
G37*
G36*
X220814D02*
X220383D01*
X219985Y180170D01*
X219681Y179865D01*
X219516Y179467D01*
Y179037D01*
X219681Y178639D01*
X219985Y178334D01*
X220383Y178169D01*
X220814D01*
X221212Y178334D01*
X221516Y178639D01*
X221681Y179037D01*
Y179467D01*
X221516Y179865D01*
X221212Y180170D01*
X220814Y180335D01*
D02*
G37*
G36*
X211365Y180319D02*
X210934D01*
X210536Y180154D01*
X210232Y179850D01*
X210067Y179452D01*
Y179021D01*
X210232Y178623D01*
X210536Y178318D01*
X210934Y178154D01*
X211365D01*
X211763Y178318D01*
X212067Y178623D01*
X212232Y179021D01*
Y179452D01*
X212067Y179850D01*
X211763Y180154D01*
X211365Y180319D01*
D02*
G37*
G36*
X236562Y177185D02*
X236131D01*
X235733Y177020D01*
X235429Y176716D01*
X235264Y176318D01*
Y175887D01*
X235429Y175489D01*
X235733Y175185D01*
X236131Y175020D01*
X236562D01*
X236960Y175185D01*
X237264Y175489D01*
X237429Y175887D01*
Y176318D01*
X237264Y176716D01*
X236960Y177020D01*
X236562Y177185D01*
D02*
G37*
G36*
X233412D02*
X232981D01*
X232584Y177020D01*
X232279Y176716D01*
X232114Y176318D01*
Y175887D01*
X232279Y175489D01*
X232584Y175185D01*
X232981Y175020D01*
X233412D01*
X233810Y175185D01*
X234115Y175489D01*
X234279Y175887D01*
Y176318D01*
X234115Y176716D01*
X233810Y177020D01*
X233412Y177185D01*
D02*
G37*
G36*
X230263D02*
X229832D01*
X229434Y177020D01*
X229129Y176716D01*
X228965Y176318D01*
Y175887D01*
X229129Y175489D01*
X229434Y175185D01*
X229832Y175020D01*
X230263D01*
X230661Y175185D01*
X230965Y175489D01*
X231130Y175887D01*
Y176318D01*
X230965Y176716D01*
X230661Y177020D01*
X230263Y177185D01*
D02*
G37*
G36*
X227113D02*
X226682D01*
X226284Y177020D01*
X225980Y176716D01*
X225815Y176318D01*
Y175887D01*
X225980Y175489D01*
X226284Y175185D01*
X226682Y175020D01*
X227113D01*
X227511Y175185D01*
X227816Y175489D01*
X227980Y175887D01*
Y176318D01*
X227816Y176716D01*
X227511Y177020D01*
X227113Y177185D01*
D02*
G37*
G36*
X223963D02*
X223533D01*
X223135Y177020D01*
X222830Y176716D01*
X222665Y176318D01*
Y175887D01*
X222830Y175489D01*
X223135Y175185D01*
X223533Y175020D01*
X223963D01*
X224361Y175185D01*
X224666Y175489D01*
X224831Y175887D01*
Y176318D01*
X224666Y176716D01*
X224361Y177020D01*
X223963Y177185D01*
D02*
G37*
G36*
X220814D02*
X220383D01*
X219985Y177020D01*
X219681Y176716D01*
X219516Y176318D01*
Y175887D01*
X219681Y175489D01*
X219985Y175185D01*
X220383Y175020D01*
X220814D01*
X221212Y175185D01*
X221516Y175489D01*
X221681Y175887D01*
Y176318D01*
X221516Y176716D01*
X221212Y177020D01*
X220814Y177185D01*
D02*
G37*
G36*
X214515D02*
X214084D01*
X213686Y177020D01*
X213381Y176716D01*
X213216Y176318D01*
Y175887D01*
X213381Y175489D01*
X213686Y175185D01*
X214084Y175020D01*
X214515D01*
X214913Y175185D01*
X215217Y175489D01*
X215382Y175887D01*
Y176318D01*
X215217Y176716D01*
X214913Y177020D01*
X214515Y177185D01*
D02*
G37*
G36*
X211349D02*
X210918D01*
X210521Y177020D01*
X210216Y176716D01*
X210051Y176318D01*
Y175887D01*
X210216Y175489D01*
X210521Y175185D01*
X210918Y175020D01*
X211349D01*
X211747Y175185D01*
X212052Y175489D01*
X212216Y175887D01*
Y176318D01*
X212052Y176716D01*
X211747Y177020D01*
X211349Y177185D01*
D02*
G37*
G36*
X220814Y174035D02*
X220383D01*
X219985Y173871D01*
X219681Y173566D01*
X219516Y173168D01*
Y172737D01*
X219681Y172339D01*
X219985Y172035D01*
X220383Y171870D01*
X220814D01*
X221212Y172035D01*
X221516Y172339D01*
X221681Y172737D01*
Y173168D01*
X221516Y173566D01*
X221212Y173871D01*
X220814Y174035D01*
D02*
G37*
G36*
X217664D02*
X217233D01*
X216835Y173871D01*
X216531Y173566D01*
X216366Y173168D01*
Y172737D01*
X216531Y172339D01*
X216835Y172035D01*
X217233Y171870D01*
X217664D01*
X218062Y172035D01*
X218367Y172339D01*
X218531Y172737D01*
Y173168D01*
X218367Y173566D01*
X218062Y173871D01*
X217664Y174035D01*
D02*
G37*
G36*
X214530D02*
X214100D01*
X213702Y173871D01*
X213397Y173566D01*
X213232Y173168D01*
Y172737D01*
X213397Y172339D01*
X213702Y172035D01*
X214100Y171870D01*
X214530D01*
X214928Y172035D01*
X215233Y172339D01*
X215398Y172737D01*
Y173168D01*
X215233Y173566D01*
X214928Y173871D01*
X214530Y174035D01*
D02*
G37*
G36*
X211365D02*
X210934D01*
X210536Y173871D01*
X210232Y173566D01*
X210067Y173168D01*
Y172737D01*
X210232Y172339D01*
X210536Y172035D01*
X210934Y171870D01*
X211365D01*
X211763Y172035D01*
X212067Y172339D01*
X212232Y172737D01*
Y173168D01*
X212067Y173566D01*
X211763Y173871D01*
X211365Y174035D01*
D02*
G37*
G36*
X217664Y170886D02*
X217233D01*
X216835Y170721D01*
X216531Y170416D01*
X216366Y170018D01*
Y169588D01*
X216531Y169190D01*
X216835Y168885D01*
X217233Y168720D01*
X217664D01*
X218062Y168885D01*
X218367Y169190D01*
X218531Y169588D01*
Y170018D01*
X218367Y170416D01*
X218062Y170721D01*
X217664Y170886D01*
D02*
G37*
G36*
X211365D02*
X210934D01*
X210536Y170721D01*
X210232Y170416D01*
X210067Y170018D01*
Y169588D01*
X210232Y169190D01*
X210536Y168885D01*
X210934Y168720D01*
X211365D01*
X211763Y168885D01*
X212067Y169190D01*
X212232Y169588D01*
Y170018D01*
X212067Y170416D01*
X211763Y170721D01*
X211365Y170886D01*
D02*
G37*
G36*
X214499Y170870D02*
X214068D01*
X213670Y170705D01*
X213366Y170401D01*
X213201Y170003D01*
Y169572D01*
X213366Y169174D01*
X213670Y168870D01*
X214068Y168705D01*
X214499D01*
X214897Y168870D01*
X215201Y169174D01*
X215366Y169572D01*
Y170003D01*
X215201Y170401D01*
X214897Y170705D01*
X214499Y170870D01*
D02*
G37*
G36*
X236562Y167736D02*
X236131D01*
X235733Y167571D01*
X235429Y167267D01*
X235264Y166869D01*
Y166438D01*
X235429Y166040D01*
X235733Y165736D01*
X236131Y165571D01*
X236562D01*
X236960Y165736D01*
X237264Y166040D01*
X237429Y166438D01*
Y166869D01*
X237264Y167267D01*
X236960Y167571D01*
X236562Y167736D01*
D02*
G37*
G36*
X233412D02*
X232981D01*
X232584Y167571D01*
X232279Y167267D01*
X232114Y166869D01*
Y166438D01*
X232279Y166040D01*
X232584Y165736D01*
X232981Y165571D01*
X233412D01*
X233810Y165736D01*
X234115Y166040D01*
X234279Y166438D01*
Y166869D01*
X234115Y167267D01*
X233810Y167571D01*
X233412Y167736D01*
D02*
G37*
G36*
X230263D02*
X229832D01*
X229434Y167571D01*
X229129Y167267D01*
X228965Y166869D01*
Y166438D01*
X229129Y166040D01*
X229434Y165736D01*
X229832Y165571D01*
X230263D01*
X230661Y165736D01*
X230965Y166040D01*
X231130Y166438D01*
Y166869D01*
X230965Y167267D01*
X230661Y167571D01*
X230263Y167736D01*
D02*
G37*
G36*
X227113D02*
X226682D01*
X226284Y167571D01*
X225980Y167267D01*
X225815Y166869D01*
Y166438D01*
X225980Y166040D01*
X226284Y165736D01*
X226682Y165571D01*
X227113D01*
X227511Y165736D01*
X227816Y166040D01*
X227980Y166438D01*
Y166869D01*
X227816Y167267D01*
X227511Y167571D01*
X227113Y167736D01*
D02*
G37*
G36*
X223963D02*
X223533D01*
X223135Y167571D01*
X222830Y167267D01*
X222665Y166869D01*
Y166438D01*
X222830Y166040D01*
X223135Y165736D01*
X223533Y165571D01*
X223963D01*
X224361Y165736D01*
X224666Y166040D01*
X224831Y166438D01*
Y166869D01*
X224666Y167267D01*
X224361Y167571D01*
X223963Y167736D01*
D02*
G37*
G36*
X217680D02*
X217249D01*
X216851Y167571D01*
X216547Y167267D01*
X216382Y166869D01*
Y166438D01*
X216547Y166040D01*
X216851Y165736D01*
X217249Y165571D01*
X217680D01*
X218078Y165736D01*
X218382Y166040D01*
X218547Y166438D01*
Y166869D01*
X218382Y167267D01*
X218078Y167571D01*
X217680Y167736D01*
D02*
G37*
G36*
X210713Y157939D02*
X210087D01*
X209508Y157699D01*
X209065Y157256D01*
X208825Y156677D01*
Y156051D01*
X209065Y155472D01*
X209508Y155029D01*
X210087Y154789D01*
X210713D01*
X211292Y155029D01*
X211735Y155472D01*
X211975Y156051D01*
Y156677D01*
X211735Y157256D01*
X211292Y157699D01*
X210713Y157939D01*
D02*
G37*
G36*
X245215Y223543D02*
X244785D01*
X244387Y223378D01*
X244082Y223074D01*
X243917Y222676D01*
Y222245D01*
X244082Y221847D01*
X244387Y221543D01*
X244785Y221378D01*
X245215D01*
X245613Y221543D01*
X245918Y221847D01*
X246083Y222245D01*
Y222676D01*
X245918Y223074D01*
X245613Y223378D01*
X245215Y223543D01*
D02*
G37*
G36*
X239711Y221280D02*
X239281D01*
X238883Y221115D01*
X238578Y220810D01*
X238413Y220412D01*
Y219982D01*
X238578Y219584D01*
X238883Y219279D01*
X239281Y219114D01*
X239711D01*
X240109Y219279D01*
X240414Y219584D01*
X240579Y219982D01*
Y220412D01*
X240414Y220810D01*
X240109Y221115D01*
X239711Y221280D01*
D02*
G37*
G36*
X236562D02*
X236131D01*
X235733Y221115D01*
X235429Y220810D01*
X235264Y220412D01*
Y219982D01*
X235429Y219584D01*
X235733Y219279D01*
X236131Y219114D01*
X236562D01*
X236960Y219279D01*
X237264Y219584D01*
X237429Y219982D01*
Y220412D01*
X237264Y220810D01*
X236960Y221115D01*
X236562Y221280D01*
D02*
G37*
G36*
X220814Y211831D02*
X220383D01*
X219985Y211666D01*
X219681Y211361D01*
X219516Y210963D01*
Y210533D01*
X219681Y210135D01*
X219985Y209830D01*
X220383Y209665D01*
X220814D01*
X221212Y209830D01*
X221516Y210135D01*
X221681Y210533D01*
Y210963D01*
X221516Y211361D01*
X221212Y211666D01*
X220814Y211831D01*
D02*
G37*
G36*
X217664D02*
X217233D01*
X216835Y211666D01*
X216531Y211361D01*
X216366Y210963D01*
Y210533D01*
X216531Y210135D01*
X216835Y209830D01*
X217233Y209665D01*
X217664D01*
X218062Y209830D01*
X218367Y210135D01*
X218531Y210533D01*
Y210963D01*
X218367Y211361D01*
X218062Y211666D01*
X217664Y211831D01*
D02*
G37*
G36*
X298215Y200083D02*
X297785D01*
X297387Y199918D01*
X297082Y199613D01*
X296917Y199215D01*
Y198785D01*
X297082Y198387D01*
X297387Y198082D01*
X297785Y197917D01*
X298215D01*
X298613Y198082D01*
X298918Y198387D01*
X299083Y198785D01*
Y199215D01*
X298918Y199613D01*
X298613Y199918D01*
X298215Y200083D01*
D02*
G37*
G36*
X293215D02*
X292785D01*
X292387Y199918D01*
X292082Y199613D01*
X291917Y199215D01*
Y198785D01*
X292082Y198387D01*
X292387Y198082D01*
X292785Y197917D01*
X293215D01*
X293613Y198082D01*
X293918Y198387D01*
X294083Y198785D01*
Y199215D01*
X293918Y199613D01*
X293613Y199918D01*
X293215Y200083D01*
D02*
G37*
G36*
X258215D02*
X257785D01*
X257387Y199918D01*
X257082Y199613D01*
X256917Y199215D01*
Y198785D01*
X257082Y198387D01*
X257387Y198082D01*
X257785Y197917D01*
X258215D01*
X258613Y198082D01*
X258918Y198387D01*
X259083Y198785D01*
Y199215D01*
X258918Y199613D01*
X258613Y199918D01*
X258215Y200083D01*
D02*
G37*
G36*
X253215D02*
X252785D01*
X252387Y199918D01*
X252082Y199613D01*
X251917Y199215D01*
Y198785D01*
X252082Y198387D01*
X252387Y198082D01*
X252785Y197917D01*
X253215D01*
X253613Y198082D01*
X253918Y198387D01*
X254083Y198785D01*
Y199215D01*
X253918Y199613D01*
X253613Y199918D01*
X253215Y200083D01*
D02*
G37*
G36*
X268215Y175083D02*
X267785D01*
X267387Y174918D01*
X267082Y174613D01*
X266917Y174215D01*
Y173785D01*
X267082Y173387D01*
X267387Y173082D01*
X267785Y172917D01*
X268215D01*
X268613Y173082D01*
X268918Y173387D01*
X269083Y173785D01*
Y174215D01*
X268918Y174613D01*
X268613Y174918D01*
X268215Y175083D01*
D02*
G37*
%LPD*%
D12*
X217449Y223346D02*
X218781Y224679D01*
X196734Y167986D02*
X198551Y169803D01*
X218781Y224679D02*
X239564D01*
X240217Y225333D01*
X253552D01*
X256217Y222667D01*
X259783D01*
X266115Y229000D01*
X283000D01*
X196734Y166102D02*
Y167986D01*
X193408Y162776D02*
X196734Y166102D01*
X193408Y155018D02*
Y162776D01*
Y155018D02*
X201759Y146667D01*
X293248D01*
X295794Y149213D01*
Y151794D01*
X298000Y154000D01*
D59*
X198991Y152016D02*
D03*
Y155953D02*
D03*
X142700Y123300D02*
D03*
X298000Y149000D02*
D03*
X293000D02*
D03*
X288000D02*
D03*
X283000D02*
D03*
X278000D02*
D03*
X273000D02*
D03*
X268000D02*
D03*
X263000D02*
D03*
X258000D02*
D03*
X253000D02*
D03*
X238500Y122600D02*
D03*
X234700D02*
D03*
X231100D02*
D03*
X298000Y144000D02*
D03*
X293000D02*
D03*
X288000D02*
D03*
X283000D02*
D03*
X278000D02*
D03*
X273000D02*
D03*
X268000D02*
D03*
X263000D02*
D03*
X258000D02*
D03*
X253000D02*
D03*
X152500Y118300D02*
D03*
Y133100D02*
D03*
X207000D02*
D03*
Y118300D02*
D03*
X147500Y118100D02*
D03*
Y133300D02*
D03*
X242284Y122633D02*
D03*
X245700Y122600D02*
D03*
X226284Y122567D02*
D03*
X202000Y133300D02*
D03*
Y118100D02*
D03*
X118325Y164724D02*
D03*
X191025Y148979D02*
D03*
X188200Y141300D02*
D03*
X156055Y128348D02*
D03*
X157500Y123100D02*
D03*
X239000Y249300D02*
D03*
X140700Y234800D02*
D03*
X202000Y128300D02*
D03*
Y123100D02*
D03*
X188300Y137400D02*
D03*
Y133500D02*
D03*
X177900Y138374D02*
D03*
X267800Y131000D02*
D03*
X268399Y108900D02*
D03*
X199925Y140267D02*
D03*
X171747Y105000D02*
D03*
X158834Y158210D02*
D03*
X119372Y160228D02*
D03*
X177996Y154000D02*
D03*
X217100Y156653D02*
D03*
X210400Y156364D02*
D03*
X144150Y152700D02*
D03*
X150566Y158210D02*
D03*
X189053Y105000D02*
D03*
X212000Y128300D02*
D03*
X142700Y118300D02*
D03*
Y128300D02*
D03*
X212000Y123100D02*
D03*
X152700Y128100D02*
D03*
X273406Y109100D02*
D03*
X178063Y233506D02*
D03*
X133533Y152284D02*
D03*
X133500Y146300D02*
D03*
Y140600D02*
D03*
X188300Y110300D02*
D03*
Y119300D02*
D03*
X188400Y123500D02*
D03*
Y114800D02*
D03*
X188333Y129516D02*
D03*
X133100Y118400D02*
D03*
X133500Y128700D02*
D03*
X133533Y132916D02*
D03*
D62*
X169061Y217584D02*
G03*
X169598Y217047I537J0D01*
G01*
X169061Y220569D02*
G03*
X168523Y221107I-537J0D01*
G01*
X168404D02*
G03*
X167867Y220569I0J-537D01*
G01*
X167330Y216882D02*
G03*
X167867Y217419I0J537D01*
G01*
X166673D02*
G03*
X167210Y216882I537J0D01*
G01*
X166673Y221300D02*
G03*
X166136Y221837I-537J0D01*
G01*
X166017D02*
G03*
X165479Y221300I0J-537D01*
G01*
X164942Y216882D02*
G03*
X165479Y217419I0J537D01*
G01*
X164286D02*
G03*
X164823Y216882I537J0D01*
G01*
X164286Y221300D02*
G03*
X163749Y221837I-537J0D01*
G01*
X163629D02*
G03*
X163092Y221300I0J-537D01*
G01*
X162175Y218268D02*
G03*
X163092Y218648I380J380D01*
G01*
X165472Y206502D02*
G03*
X166232Y206502I380J380D01*
G01*
X163716Y208259D02*
G03*
X162956Y208259I-380J-380D01*
G01*
X162872Y208174D02*
G03*
X162872Y207415I380J-380D01*
G01*
X164628Y204899D02*
G03*
X164628Y205658I-380J380D01*
G01*
X163784Y204814D02*
G03*
X164544Y204814I380J380D01*
G01*
X162028Y206571D02*
G03*
X161268Y206571I-380J-380D01*
G01*
X161184Y206486D02*
G03*
X161184Y205727I380J-380D01*
G01*
X162981Y203169D02*
G03*
X162981Y203929I-380J380D01*
G01*
X162137Y203085D02*
G03*
X162897Y203085I380J380D01*
G01*
X160340Y204883D02*
G03*
X159580Y204883I-380J-380D01*
G01*
X159496Y204798D02*
G03*
X159496Y204038I380J-380D01*
G01*
X161252Y201522D02*
G03*
X161252Y202282I-380J380D01*
G01*
X169972Y194179D02*
G03*
X171296Y192854I1325J0D01*
G01*
X169972Y196699D02*
G03*
X169435Y197236I-537J0D01*
G01*
X169315D02*
G03*
X168778Y196699I0J-537D01*
G01*
X167454Y189495D02*
G03*
X168778Y190820I0J1325D01*
G01*
X166010D02*
G03*
X167334Y189495I1325J0D01*
G01*
X166010Y197906D02*
G03*
X165472Y198443I-537J0D01*
G01*
X165353D02*
G03*
X164816Y197906I0J-537D01*
G01*
X163491Y189514D02*
G03*
X164816Y190839I0J1325D01*
G01*
X162047D02*
G03*
X163372Y189514I1325J0D01*
G01*
X162047Y196934D02*
G03*
X161510Y197471I-537J0D01*
G01*
X161391D02*
G03*
X160854Y196934I0J-537D01*
G01*
X159529Y189638D02*
G03*
X160854Y190962I0J1325D01*
G01*
X158085D02*
G03*
X159410Y189638I1325J0D01*
G01*
X158085Y194187D02*
G03*
X157548Y194724I-537J0D01*
G01*
X157429D02*
G03*
X156892Y194187I0J-537D01*
G01*
X155567Y192854D02*
G03*
X156892Y194179I0J1325D01*
G01*
X170759D02*
G03*
X171296Y193642I537J0D01*
G01*
X170759Y196699D02*
G03*
X169435Y198024I-1325J0D01*
G01*
X169315D02*
G03*
X167991Y196699I0J-1325D01*
G01*
X167454Y190283D02*
G03*
X167991Y190820I0J537D01*
G01*
X166797D02*
G03*
X167334Y190283I537J0D01*
G01*
X166797Y197906D02*
G03*
X165472Y199230I-1325J0D01*
G01*
X165353D02*
G03*
X164029Y197906I0J-1325D01*
G01*
X163491Y190302D02*
G03*
X164029Y190839I0J537D01*
G01*
X162835D02*
G03*
X163372Y190302I537J0D01*
G01*
X162835Y196934D02*
G03*
X161510Y198258I-1325J0D01*
G01*
X161391D02*
G03*
X160066Y196934I0J-1325D01*
G01*
X159529Y190425D02*
G03*
X160066Y190962I0J537D01*
G01*
X158873D02*
G03*
X159410Y190425I537J0D01*
G01*
X158873Y194187D02*
G03*
X157548Y195512I-1325J0D01*
G01*
X157429D02*
G03*
X156104Y194187I0J-1325D01*
G01*
X155567Y193642D02*
G03*
X156104Y194179I0J537D01*
G01*
X140004Y230362D02*
G03*
X140541Y229824I537J0D01*
G01*
X140004Y231026D02*
G03*
X139467Y231563I-537J0D01*
G01*
X139348D02*
G03*
X138810Y231026I0J-537D01*
G01*
X138273Y229824D02*
G03*
X138810Y230362I0J537D01*
G01*
X182040Y179252D02*
G03*
X181502Y178715I0J-537D01*
G01*
X180965Y178111D02*
G03*
X181502Y178648I0J537D01*
G01*
X180309D02*
G03*
X180846Y178111I537J0D01*
G01*
X180309Y179797D02*
G03*
X179772Y180335I-537J0D01*
G01*
X179652D02*
G03*
X179115Y179797I0J-537D01*
G01*
X178578Y178338D02*
G03*
X179115Y178876I0J537D01*
G01*
X177921D02*
G03*
X178459Y178338I537J0D01*
G01*
X177921Y180509D02*
G03*
X177384Y181047I-537J0D01*
G01*
X177265D02*
G03*
X176728Y180509I0J-537D01*
G01*
X176191Y177764D02*
G03*
X176728Y178302I0J537D01*
G01*
X175534D02*
G03*
X176071Y177764I537J0D01*
G01*
X175534Y180824D02*
G03*
X174997Y181361I-537J0D01*
G01*
X174878D02*
G03*
X174340Y180824I0J-537D01*
G01*
X173803Y177764D02*
G03*
X174340Y178302I0J537D01*
G01*
X173147D02*
G03*
X173684Y177764I537J0D01*
G01*
X173147Y180657D02*
G03*
X172609Y181194I-537J0D01*
G01*
X172490D02*
G03*
X171953Y180657I0J-537D01*
G01*
X171416Y179252D02*
G03*
X171953Y179789I0J537D01*
G01*
X183489Y174528D02*
G03*
X182952Y173990I0J-537D01*
G01*
X182415Y171802D02*
G03*
X182952Y172340I0J537D01*
G01*
X181758D02*
G03*
X182296Y171802I537J0D01*
G01*
X181758Y174800D02*
G03*
X181221Y175338I-537J0D01*
G01*
X181102D02*
G03*
X180565Y174800I0J-537D01*
G01*
X180028Y171083D02*
G03*
X180565Y171620I0J537D01*
G01*
X179371D02*
G03*
X179908Y171083I537J0D01*
G01*
X179371Y177014D02*
G03*
X178834Y177551I-537J0D01*
G01*
X178715D02*
G03*
X178177Y177014I0J-537D01*
G01*
X177640Y174232D02*
G03*
X178177Y174769I0J537D01*
G01*
X176984D02*
G03*
X177521Y174232I537J0D01*
G01*
X176984Y176440D02*
G03*
X176446Y176977I-537J0D01*
G01*
X176327D02*
G03*
X175790Y176440I0J-537D01*
G01*
X175253Y174048D02*
G03*
X175790Y174585I0J537D01*
G01*
X174596D02*
G03*
X175133Y174048I537J0D01*
G01*
X174596Y176440D02*
G03*
X174059Y176977I-537J0D01*
G01*
X173940D02*
G03*
X173403Y176440I0J-537D01*
G01*
X172865Y170739D02*
G03*
X173403Y171276I0J537D01*
G01*
X172209D02*
G03*
X172746Y170739I537J0D01*
G01*
X172209Y175308D02*
G03*
X171672Y175845I-537J0D01*
G01*
X171552D02*
G03*
X171015Y175308I0J-537D01*
G01*
X170478Y171223D02*
G03*
X171015Y171760I0J537D01*
G01*
X169822D02*
G03*
X170359Y171223I537J0D01*
G01*
X169822Y176000D02*
G03*
X169284Y176537I-537J0D01*
G01*
X169165D02*
G03*
X168628Y176000I0J-537D01*
G01*
X168091Y174528D02*
G03*
X168628Y175065I0J537D01*
G01*
X172432Y168765D02*
G03*
X172970Y168228I537J0D01*
G01*
X172432Y169451D02*
G03*
X171895Y169988I-537J0D01*
G01*
X171776D02*
G03*
X171239Y169451I0J-537D01*
G01*
X170702Y167916D02*
G03*
X171239Y168453I0J537D01*
G01*
X170045D02*
G03*
X170582Y167916I537J0D01*
G01*
X170045Y169936D02*
G03*
X169508Y170473I-537J0D01*
G01*
X169389D02*
G03*
X168851Y169936I0J-537D01*
G01*
X168314Y165869D02*
G03*
X168851Y166406I0J537D01*
G01*
X167658D02*
G03*
X168195Y165869I537J0D01*
G01*
X167658Y170545D02*
G03*
X167121Y171082I-537J0D01*
G01*
X167001D02*
G03*
X166464Y170545I0J-537D01*
G01*
X165927Y168228D02*
G03*
X166464Y168765I0J537D01*
G01*
X179287Y165616D02*
G03*
X179824Y165079I537J0D01*
G01*
X179287Y165974D02*
G03*
X178750Y166511I-537J0D01*
G01*
X178630D02*
G03*
X178093Y165974I0J-537D01*
G01*
X177556Y163818D02*
G03*
X178093Y164355I0J537D01*
G01*
X176899D02*
G03*
X177437Y163818I537J0D01*
G01*
X176899Y166591D02*
G03*
X176362Y167128I-537J0D01*
G01*
X176243D02*
G03*
X175706Y166591I0J-537D01*
G01*
X175169Y163818D02*
G03*
X175706Y164355I0J537D01*
G01*
X174512D02*
G03*
X175049Y163818I537J0D01*
G01*
X174512Y166591D02*
G03*
X173975Y167128I-537J0D01*
G01*
X173855D02*
G03*
X173318Y166591I0J-537D01*
G01*
X172781Y163818D02*
G03*
X173318Y164355I0J537D01*
G01*
X172125D02*
G03*
X172662Y163818I537J0D01*
G01*
X172125Y166591D02*
G03*
X171587Y167128I-537J0D01*
G01*
X171468D02*
G03*
X170931Y166591I0J-537D01*
G01*
X170394Y165079D02*
G03*
X170931Y165616I0J537D01*
G01*
X147071Y184405D02*
G03*
X146311Y184405I-380J-380D01*
G01*
X142775Y181629D02*
G03*
X143535Y181629I380J380D01*
G01*
X142691Y182473D02*
G03*
X142691Y181714I380J-380D01*
G01*
X146140Y185922D02*
G03*
X146140Y186681I-380J380D01*
G01*
X146055Y186766D02*
G03*
X145296Y186766I-380J-380D01*
G01*
X140779Y183009D02*
G03*
X141539Y183009I380J380D01*
G01*
X140695Y183853D02*
G03*
X140695Y183094I380J-380D01*
G01*
X144544Y187702D02*
G03*
X144544Y188462I-380J380D01*
G01*
X144459Y188547D02*
G03*
X143700Y188547I-380J-380D01*
G01*
X140160Y185766D02*
G03*
X140920Y185766I380J380D01*
G01*
X140076Y186610D02*
G03*
X140076Y185851I380J-380D01*
G01*
X142374Y188908D02*
G03*
X142374Y189668I-380J380D01*
G01*
X142289Y189752D02*
G03*
X141530Y189752I-380J-380D01*
G01*
X140141Y189124D02*
G03*
X140901Y189124I380J380D01*
G01*
X140057Y189968D02*
G03*
X140057Y189208I380J-380D01*
G01*
X140403Y190314D02*
G03*
X140403Y191074I-380J380D01*
G01*
X144290Y205412D02*
G03*
X144290Y204653I380J-380D01*
G01*
X144290Y203893D02*
G03*
X144290Y204652I-380J380D01*
G01*
X143446Y203808D02*
G03*
X144206Y203808I380J380D01*
G01*
X141478Y205777D02*
G03*
X140718Y205777I-380J-380D01*
G01*
X140634Y205692D02*
G03*
X140634Y204933I380J-380D01*
G01*
X142272Y202534D02*
G03*
X142272Y203294I-380J380D01*
G01*
X141428Y202450D02*
G03*
X142188Y202450I380J380D01*
G01*
X139502Y204377D02*
G03*
X138742Y204377I-380J-380D01*
G01*
X138658Y204292D02*
G03*
X138658Y203532I380J-380D01*
G01*
X140584Y200846D02*
G03*
X140584Y201606I-380J380D01*
G01*
X139740Y200762D02*
G03*
X140500Y200762I380J380D01*
G01*
X138688Y201814D02*
G03*
X137928Y201814I-380J-380D01*
G01*
X137844Y201730D02*
G03*
X137844Y200970I380J-380D01*
G01*
X138466Y199588D02*
G03*
X138466Y200348I-380J380D01*
G01*
X139862Y220710D02*
G03*
X139862Y219950I380J-380D01*
G01*
X139862Y219190D02*
G03*
X139862Y219950I-380J380D01*
G01*
X139018Y219106D02*
G03*
X139777Y219106I380J380D01*
G01*
X136315Y221809D02*
G03*
X135555Y221809I-380J-380D01*
G01*
X135471Y221724D02*
G03*
X135471Y220965I380J-380D01*
G01*
X139557Y216119D02*
G03*
X139557Y216878I-380J380D01*
G01*
X138713Y216034D02*
G03*
X139473Y216034I380J380D01*
G01*
X134301Y220446D02*
G03*
X133542Y220446I-380J-380D01*
G01*
X133457Y220362D02*
G03*
X133457Y219602I380J-380D01*
G01*
X138476Y214203D02*
G03*
X138210Y214849I-917J0D01*
G01*
X140915Y225413D02*
G03*
X141452Y225951I0J537D01*
G01*
X142777Y227275D02*
G03*
X141452Y225951I0J-1325D01*
G01*
X144221D02*
G03*
X142896Y227275I-1325J0D01*
G01*
X144221Y225020D02*
G03*
X144758Y224482I537J0D01*
G01*
X144877D02*
G03*
X145415Y225020I0J537D01*
G01*
X146739Y228732D02*
G03*
X145415Y227408I0J-1325D01*
G01*
X148183D02*
G03*
X146859Y228732I-1325J0D01*
G01*
X148183Y225951D02*
G03*
X148720Y225413I537J0D01*
G01*
X140915Y224626D02*
G03*
X142240Y225951I0J1325D01*
G01*
X142777Y226488D02*
G03*
X142240Y225951I0J-537D01*
G01*
X143433D02*
G03*
X142896Y226488I-537J0D01*
G01*
X143433Y225020D02*
G03*
X144758Y223695I1325J0D01*
G01*
X144877D02*
G03*
X146202Y225020I0J1325D01*
G01*
X146739Y227945D02*
G03*
X146202Y227408I0J-537D01*
G01*
X147396D02*
G03*
X146859Y227945I-537J0D01*
G01*
X147396Y225951D02*
G03*
X148720Y224626I1325J0D01*
G01*
X198452Y234700D02*
G03*
X198452Y235460I-380J380D01*
G01*
X196335Y238337D02*
G03*
X196335Y237577I380J-380D01*
G01*
X197179Y238421D02*
G03*
X196419Y238421I-380J-380D01*
G01*
X199296Y236304D02*
G03*
X200056Y236304I380J380D01*
G01*
X245123Y211181D02*
G03*
X244586Y210644I0J-537D01*
G01*
X245780D02*
G03*
X245243Y211181I-537J0D01*
G01*
X247511Y211000D02*
G03*
X246973Y210463I0J-537D01*
G01*
X246436Y208049D02*
G03*
X246973Y208587I0J537D01*
G01*
X245780D02*
G03*
X246317Y208049I537J0D01*
G01*
X244049Y206840D02*
G03*
X244586Y207377I0J537D01*
G01*
X242736Y213206D02*
G03*
X242199Y212669I0J-537D01*
G01*
X243392D02*
G03*
X242855Y213206I-537J0D01*
G01*
X241662Y211000D02*
G03*
X242199Y211537I0J537D01*
G01*
X243392Y207377D02*
G03*
X243930Y206840I537J0D01*
G01*
X149820Y183439D02*
G03*
X149283Y183976I-537J0D01*
G01*
X149820Y181819D02*
G03*
X150358Y181281I537J0D01*
G01*
X150477D02*
G03*
X151014Y181819I0J537D01*
G01*
X151551Y183976D02*
G03*
X151014Y183439I0J-537D01*
G01*
X159135Y208583D02*
G03*
X159135Y209342I-380J380D01*
G01*
X156967Y212270D02*
G03*
X156967Y211510I380J-380D01*
G01*
X157811Y212354D02*
G03*
X157051Y212354I-380J-380D01*
G01*
X160321Y209844D02*
G03*
X161081Y209844I380J380D01*
G01*
X161165Y209928D02*
G03*
X161165Y210688I-380J380D01*
G01*
X159413Y213200D02*
G03*
X159413Y212440I380J-380D01*
G01*
X160257Y213284D02*
G03*
X159498Y213284I-380J-380D01*
G01*
X161667Y211875D02*
G03*
X162426Y211875I380J380D01*
G01*
X156095Y187980D02*
G03*
X157012Y188360I380J380D01*
G01*
X157549Y189045D02*
G03*
X157012Y188508I0J-537D01*
G01*
X158206D02*
G03*
X157669Y189045I-537J0D01*
G01*
X158206Y185301D02*
G03*
X158743Y184764I537J0D01*
G01*
X158862D02*
G03*
X159399Y185301I0J537D01*
G01*
X159937Y188708D02*
G03*
X159399Y188171I0J-537D01*
G01*
X160593D02*
G03*
X160056Y188708I-537J0D01*
G01*
X160593Y185301D02*
G03*
X161130Y184764I537J0D01*
G01*
X161250D02*
G03*
X161787Y185301I0J537D01*
G01*
X162324Y188727D02*
G03*
X161787Y188190I0J-537D01*
G01*
X162980D02*
G03*
X162443Y188727I-537J0D01*
G01*
X162980Y185301D02*
G03*
X163518Y184764I537J0D01*
G01*
X163637D02*
G03*
X164174Y185301I0J537D01*
G01*
X164711Y188719D02*
G03*
X164174Y188182I0J-537D01*
G01*
X165368D02*
G03*
X164831Y188719I-537J0D01*
G01*
X165368Y183801D02*
G03*
X165905Y183264I537J0D01*
G01*
X166024D02*
G03*
X166562Y183801I0J537D01*
G01*
X167099Y188708D02*
G03*
X166562Y188171I0J-537D01*
G01*
X167755D02*
G03*
X167218Y188708I-537J0D01*
G01*
X167755Y181876D02*
G03*
X168292Y181339I537J0D01*
G01*
X168412D02*
G03*
X168949Y181876I0J537D01*
G01*
X169486Y187845D02*
G03*
X168949Y187308I0J-537D01*
G01*
X170143D02*
G03*
X169606Y187845I-537J0D01*
G01*
X170143Y183326D02*
G03*
X170680Y182789I537J0D01*
G01*
X170799D02*
G03*
X171336Y183326I0J537D01*
G01*
X171874Y186045D02*
G03*
X171336Y185508I0J-537D01*
G01*
X172530D02*
G03*
X171993Y186045I-537J0D01*
G01*
X172530Y183473D02*
G03*
X173067Y182936I537J0D01*
G01*
X173187D02*
G03*
X173724Y183473I0J537D01*
G01*
X174261Y186662D02*
G03*
X173724Y186125I0J-537D01*
G01*
X174918D02*
G03*
X174380Y186662I-537J0D01*
G01*
X174918Y183473D02*
G03*
X175455Y182936I537J0D01*
G01*
X175574D02*
G03*
X176111Y183473I0J537D01*
G01*
X176648Y187179D02*
G03*
X176111Y186642I0J-537D01*
G01*
X177305D02*
G03*
X176768Y187179I-537J0D01*
G01*
X177305Y186088D02*
G03*
X177842Y185551I537J0D01*
G01*
X157421Y177324D02*
G03*
X157958Y177862I0J537D01*
G01*
X158496Y182793D02*
G03*
X157958Y182255I0J-537D01*
G01*
X159152D02*
G03*
X158615Y182793I-537J0D01*
G01*
X159152Y177151D02*
G03*
X159689Y176614I537J0D01*
G01*
X159809D02*
G03*
X160346Y177151I0J537D01*
G01*
X160883Y182793D02*
G03*
X160346Y182255I0J-537D01*
G01*
X161540D02*
G03*
X161002Y182793I-537J0D01*
G01*
X161540Y177151D02*
G03*
X162077Y176614I537J0D01*
G01*
X162196D02*
G03*
X162733Y177151I0J537D01*
G01*
X163270Y182793D02*
G03*
X162733Y182255I0J-537D01*
G01*
X163927D02*
G03*
X163390Y182793I-537J0D01*
G01*
X163927Y175852D02*
G03*
X164464Y175315I537J0D01*
G01*
X164584D02*
G03*
X165121Y175852I0J537D01*
G01*
X165658Y177577D02*
G03*
X165121Y177040I0J-537D01*
G01*
X166314D02*
G03*
X165777Y177577I-537J0D01*
G01*
X166314Y175852D02*
G03*
X166851Y175315I537J0D01*
G01*
X166971D02*
G03*
X167508Y175852I0J537D01*
G01*
X168045Y177324D02*
G03*
X167508Y176787I0J-537D01*
G01*
X164298Y202613D02*
G03*
X163538Y202613I-380J-380D01*
G01*
X167816Y199094D02*
G03*
X168576Y199094I380J380D01*
G01*
X168661Y199178D02*
G03*
X168661Y199938I-380J380D01*
G01*
X165101Y204257D02*
G03*
X165101Y203498I380J-380D01*
G01*
X165945Y204342D02*
G03*
X165185Y204342I-380J-380D01*
G01*
X169004Y201282D02*
G03*
X169764Y201282I380J380D01*
G01*
X169848Y201367D02*
G03*
X169848Y202126I-380J380D01*
G01*
X168999Y204272D02*
G03*
X168619Y203355I0J-537D01*
G01*
X152853Y195762D02*
G03*
X152316Y196299I-537J0D01*
G01*
X152853Y194966D02*
G03*
X153390Y194429I537J0D01*
G01*
X153509D02*
G03*
X154047Y194966I0J537D01*
G01*
X154584Y196299D02*
G03*
X154047Y195762I0J-537D01*
G01*
X146201Y190021D02*
G03*
X145664Y190559I-537J0D01*
G01*
X142282Y191096D02*
G03*
X142819Y190559I537J0D01*
G01*
Y191752D02*
G03*
X142282Y191215I0J-537D01*
G01*
X147572Y191752D02*
G03*
X148109Y192289I0J537D01*
G01*
Y192409D02*
G03*
X147572Y192946I-537J0D01*
G01*
X142756Y193483D02*
G03*
X143293Y192946I537J0D01*
G01*
Y194140D02*
G03*
X142756Y193602I0J-537D01*
G01*
X145664Y194140D02*
G03*
X146201Y194677I0J537D01*
G01*
X216169Y220743D02*
X216919Y221492D01*
X216169Y220727D02*
Y220743D01*
X216919Y221492D02*
X216935D01*
X215959Y220517D02*
X216169Y220727D01*
X216935Y221492D02*
X217090Y221647D01*
X171358Y217047D02*
X176504D01*
X169598D02*
X171358D01*
X169061Y217584D02*
Y220569D01*
X168404Y221107D02*
X168523D01*
X167867Y217419D02*
Y220569D01*
X167210Y216882D02*
X167330D01*
X166673Y217419D02*
Y221300D01*
X166017Y221837D02*
X166136D01*
X165479Y217419D02*
Y221300D01*
X164823Y216882D02*
X164942D01*
X164286Y217419D02*
Y221300D01*
X163629Y221837D02*
X163749D01*
X163092Y218648D02*
Y221300D01*
X161821Y218622D02*
X162175Y218268D01*
X166232Y206502D02*
X167814Y208084D01*
X163716Y208259D02*
X165472Y206502D01*
X163716Y208259D02*
X163716Y208259D01*
X162872Y208174D02*
X162956Y208259D01*
X162872Y207415D02*
X162872Y207415D01*
X164628Y205658D01*
X164628Y205658D02*
X164628Y205658D01*
X164544Y204814D02*
X164628Y204899D01*
X163784Y204814D02*
X163784Y204814D01*
X162028Y206571D02*
X163784Y204814D01*
X162028Y206571D02*
X162028Y206571D01*
X161184Y206486D02*
X161268Y206571D01*
X161184Y205727D02*
X161184Y205727D01*
X162981Y203929D01*
X162981Y203929D02*
X162981Y203929D01*
X162897Y203085D02*
X162981Y203169D01*
X162137Y203085D02*
X162137Y203085D01*
X160340Y204883D02*
X162137Y203085D01*
X160340Y204883D02*
X160340Y204883D01*
X159496Y204798D02*
X159580Y204883D01*
X159496Y204038D02*
X159496Y204038D01*
X161252Y202282D01*
X161252Y202282D02*
X161252Y202282D01*
X161113Y201383D02*
X161252Y201522D01*
X167814Y208084D02*
X168903Y209173D01*
X174160Y192854D02*
X176305Y190709D01*
X171296Y192854D02*
X174160D01*
X169972Y194179D02*
Y196699D01*
X169315Y197236D02*
X169435D01*
X168778Y190820D02*
Y196699D01*
X167334Y189495D02*
X167454D01*
X166010Y190820D02*
Y197906D01*
X165353Y198443D02*
X165472D01*
X164816Y190839D02*
Y197906D01*
X163372Y189514D02*
X163491D01*
X162047Y190839D02*
Y196934D01*
X161391Y197471D02*
X161510D01*
X160854Y190962D02*
Y196934D01*
X159410Y189638D02*
X159529D01*
X158085Y190962D02*
Y194187D01*
X157429Y194724D02*
X157548D01*
X156892Y194179D02*
Y194187D01*
X154976Y192854D02*
X155567D01*
X174486Y193642D02*
X176305Y191823D01*
X171296Y193642D02*
X174486D01*
X170759Y194179D02*
Y196699D01*
X169315Y198024D02*
X169435D01*
X167991Y190820D02*
Y196699D01*
X167334Y190283D02*
X167454D01*
X166797Y190820D02*
Y197906D01*
X165353Y199230D02*
X165472D01*
X164029Y190839D02*
Y197906D01*
X163372Y190302D02*
X163491D01*
X162835Y190839D02*
Y196934D01*
X161391Y198258D02*
X161510D01*
X160066Y190962D02*
Y196934D01*
X159410Y190425D02*
X159529D01*
X158873Y190962D02*
Y194187D01*
X157429Y195512D02*
X157548D01*
X156104Y194179D02*
Y194187D01*
X154976Y193642D02*
X155567D01*
X176305Y190709D02*
X177132Y189882D01*
X176305Y191823D02*
X177459Y190669D01*
X177132Y189882D02*
X178472D01*
X140541Y229824D02*
X142376D01*
X140004Y230362D02*
Y231026D01*
X139348Y231563D02*
X139467D01*
X138810Y230362D02*
Y231026D01*
X138076Y229824D02*
X138273D01*
X182040Y179252D02*
X183568D01*
X181502Y178648D02*
Y178715D01*
X180846Y178111D02*
X180965D01*
X180309Y178648D02*
Y179797D01*
X179652Y180335D02*
X179772D01*
X179115Y178876D02*
Y179797D01*
X178459Y178338D02*
X178578D01*
X177921Y178876D02*
Y180509D01*
X177265Y181047D02*
X177384D01*
X176728Y178302D02*
Y180509D01*
X176071Y177764D02*
X176191D01*
X175534Y178302D02*
Y180824D01*
X174878Y181361D02*
X174997D01*
X174340Y178302D02*
Y180824D01*
X173684Y177764D02*
X173803D01*
X173147Y178302D02*
Y180657D01*
X172490Y181194D02*
X172609D01*
X171953Y179789D02*
Y180657D01*
X171219Y179252D02*
X171416D01*
X184378Y174528D02*
X184661Y174810D01*
X183489Y174528D02*
X184378D01*
X182952Y172340D02*
Y173990D01*
X182296Y171802D02*
X182415D01*
X181758Y172340D02*
Y174800D01*
X181102Y175338D02*
X181221D01*
X180565Y171620D02*
Y174800D01*
X179908Y171083D02*
X180028D01*
X179371Y171620D02*
Y177014D01*
X178715Y177551D02*
X178834D01*
X178177Y174769D02*
Y177014D01*
X177521Y174232D02*
X177640D01*
X176984Y174769D02*
Y176440D01*
X176327Y176977D02*
X176446D01*
X175790Y174585D02*
Y176440D01*
X175133Y174048D02*
X175253D01*
X174596Y174585D02*
Y176440D01*
X173940Y176977D02*
X174059D01*
X173403Y171276D02*
Y176440D01*
X172746Y170739D02*
X172865D01*
X172209Y171276D02*
Y175308D01*
X171552Y175845D02*
X171672D01*
X171015Y171760D02*
Y175308D01*
X170359Y171223D02*
X170478D01*
X169822Y171760D02*
Y176000D01*
X169165Y176537D02*
X169284D01*
X168628Y175065D02*
Y176000D01*
X167894Y174528D02*
X168091D01*
X172970Y168228D02*
X173796D01*
X172432Y168765D02*
Y169451D01*
X171776Y169988D02*
X171895D01*
X171239Y168453D02*
Y169451D01*
X170582Y167916D02*
X170702D01*
X170045Y168453D02*
Y169936D01*
X169389Y170473D02*
X169508D01*
X168851Y166406D02*
Y169936D01*
X168195Y165869D02*
X168314D01*
X167658Y166406D02*
Y170545D01*
X167001Y171082D02*
X167121D01*
X166464Y168765D02*
Y170545D01*
X165730Y168228D02*
X165927D01*
X179824Y165079D02*
X182929D01*
X179287Y165616D02*
Y165974D01*
X178630Y166511D02*
X178750D01*
X178093Y164355D02*
Y165974D01*
X177437Y163818D02*
X177556D01*
X176899Y164355D02*
Y166591D01*
X176243Y167128D02*
X176362D01*
X175706Y164355D02*
Y166591D01*
X175049Y163818D02*
X175169D01*
X174512Y164355D02*
Y166591D01*
X173855Y167128D02*
X173975D01*
X173318Y164355D02*
Y166591D01*
X172662Y163818D02*
X172781D01*
X172125Y164355D02*
Y166591D01*
X171468Y167128D02*
X171587D01*
X170931Y165616D02*
Y166591D01*
X170197Y165079D02*
X170394D01*
X147500Y183976D02*
X147893D01*
X147071Y184405D02*
X147500Y183976D01*
X147071Y184405D02*
X147071Y184405D01*
X143535Y181629D02*
X146311Y184405D01*
X142691Y181714D02*
X142775Y181629D01*
X142691Y182473D02*
X146140Y185922D01*
Y185922D02*
Y185922D01*
X146140Y186681D02*
X146140Y186681D01*
X146055Y186766D02*
X146140Y186681D01*
X146055Y186766D02*
X146055Y186766D01*
X141539Y183009D02*
X145296Y186766D01*
X141539Y183009D02*
Y183009D01*
X140695Y183094D02*
X140779Y183009D01*
X140695Y183853D02*
X144544Y187702D01*
Y187702D02*
Y187702D01*
X144544Y188462D02*
X144544Y188462D01*
X144459Y188547D02*
X144544Y188462D01*
X144459Y188547D02*
X144459Y188547D01*
X140920Y185766D02*
X143700Y188547D01*
X140920Y185766D02*
Y185766D01*
X140076Y185851D02*
X140160Y185766D01*
X140076Y186610D02*
X142374Y188908D01*
Y188908D02*
Y188908D01*
X142374Y189668D02*
X142374Y189668D01*
X142289Y189752D02*
X142374Y189668D01*
X142289Y189752D02*
X142289Y189752D01*
X140901Y189124D02*
X141530Y189752D01*
X140901Y189124D02*
Y189124D01*
X140057Y189208D02*
X140141Y189124D01*
X140057Y189968D02*
X140403Y190314D01*
X140403Y191074D02*
X140403Y191074D01*
X139419Y192057D02*
X140403Y191074D01*
X144626Y205748D02*
X145246D01*
X144290Y205412D02*
X144626Y205748D01*
X144290Y204653D02*
X144290Y204652D01*
X144206Y203808D02*
X144290Y203893D01*
X141478Y205777D02*
X143446Y203808D01*
X140634Y205692D02*
X140718Y205777D01*
X140634Y204933D02*
X142272Y203294D01*
X142272Y203294D02*
X142272Y203294D01*
X142188Y202450D02*
X142272Y202534D01*
X141428Y202450D02*
X141428Y202450D01*
X139502Y204377D02*
X141428Y202450D01*
X139502Y204377D02*
X139502Y204377D01*
X138658Y204292D02*
X138742Y204377D01*
X138658Y203532D02*
X138658Y203532D01*
X140584Y201606D01*
X140584Y201606D02*
X140584Y201606D01*
X140500Y200762D02*
X140584Y200846D01*
X139740Y200762D02*
X139740Y200762D01*
X138688Y201814D02*
X139740Y200762D01*
X138688Y201814D02*
X138688Y201814D01*
X137844Y201730D02*
X137928Y201814D01*
X137844Y200970D02*
X137844Y200970D01*
X138466Y200348D01*
X138466Y200348D02*
X138466Y200348D01*
X138327Y199449D02*
X138466Y199588D01*
X145246Y205748D02*
X156300D01*
X139862Y220710D02*
X141435Y222284D01*
X139862Y219950D02*
X139862Y219950D01*
X139777Y219106D02*
X139862Y219190D01*
X136315Y221809D02*
X139018Y219106D01*
X135471Y221724D02*
X135555Y221809D01*
X135471Y220965D02*
X139557Y216878D01*
X139557Y216878D02*
X139557Y216878D01*
X139473Y216034D02*
X139557Y216119D01*
X138713Y216034D02*
X138713Y216034D01*
X134301Y220446D02*
X138713Y216034D01*
X134301Y220446D02*
X134301Y220446D01*
X133457Y220362D02*
X133542Y220446D01*
X133457Y219602D02*
X133457Y219602D01*
X138210Y214849D01*
X138476Y213924D02*
Y214203D01*
X135908Y225150D02*
Y225150D01*
Y225150D02*
X136171Y225413D01*
X140915D01*
X141452Y225951D02*
Y225951D01*
X142777Y227275D02*
X142896D01*
X144221Y225020D02*
Y225951D01*
X144758Y224482D02*
X144877D01*
X145415Y225020D02*
Y227408D01*
X146739Y228732D02*
X146859D01*
X148183Y225951D02*
Y227408D01*
X148720Y225413D02*
X151292D01*
X135908Y224037D02*
X136498Y224626D01*
X140915D01*
X142240Y225951D02*
Y225951D01*
X142777Y226488D02*
X142896D01*
X143433Y225020D02*
Y225951D01*
X144758Y223695D02*
X144877D01*
X146202Y225020D02*
Y227408D01*
X146739Y227945D02*
X146859D01*
X147396Y225951D02*
Y227408D01*
X148720Y224626D02*
X151292D01*
Y225413D02*
X171915D01*
X151292Y224626D02*
X171588D01*
X128091Y217333D02*
X135908Y225150D01*
X128878Y217006D02*
X135908Y224037D01*
X175162Y222165D02*
X178472D01*
X174836Y221378D02*
X178472D01*
X171915Y225413D02*
X175162Y222165D01*
X171588Y224626D02*
X174836Y221378D01*
X126773Y202886D02*
X126781D01*
X126024Y203635D02*
X126773Y202886D01*
X126024Y203635D02*
Y203643D01*
X125576Y204090D02*
X126024Y203643D01*
X126781Y202886D02*
X127016Y202651D01*
X233307Y221647D02*
X235006Y223346D01*
X217090Y221647D02*
X233307D01*
X216169Y215768D02*
X244768D01*
X214299Y213898D02*
X216169Y215768D01*
X239496Y169803D02*
X241331Y171638D01*
X212921Y207175D02*
X214204Y205892D01*
X214665D01*
X215948Y204610D01*
Y204140D02*
Y204610D01*
Y204140D02*
X217067Y203022D01*
X230134D01*
X231622Y201534D01*
Y201064D02*
Y201534D01*
Y201064D02*
X232667Y200020D01*
X233136D01*
X212921Y207175D02*
Y217479D01*
X230047Y198150D02*
X233405Y194791D01*
X251982D01*
X233136Y200020D02*
X234772Y198384D01*
X233197Y198150D02*
X235768Y195579D01*
X200726Y236974D02*
X205476Y241724D01*
X200421Y199429D02*
X201701Y198150D01*
X200335Y201915D02*
X200421Y202001D01*
X200335Y200855D02*
Y201915D01*
X200421Y202001D02*
Y227026D01*
Y199429D02*
Y200769D01*
X200335Y200855D02*
X200421Y200769D01*
X192487Y165079D02*
X193827Y166419D01*
X183568Y179252D02*
X185953D01*
X189337Y174528D02*
X190382Y175572D01*
Y181122D01*
X189102Y182402D02*
X190382Y181122D01*
X197272Y197620D02*
Y207061D01*
Y208136D02*
Y227026D01*
X197264Y207068D02*
X197272Y207061D01*
X197264Y207068D02*
Y208128D01*
X197272Y208136D01*
X190702Y215447D02*
X192252Y213898D01*
X192256D01*
X178472Y189882D02*
X179654Y188701D01*
X177459Y190669D02*
X178472D01*
X179654Y191850D01*
X201876Y194833D02*
X204850Y191858D01*
X202980Y227776D02*
X245106D01*
X130453Y201024D02*
X130468D01*
X128825Y202651D02*
X130453Y201024D01*
X127016Y202651D02*
X128825D01*
X222051Y212445D02*
X239608D01*
X241054Y211000D01*
X255827Y226173D02*
X258000Y224000D01*
X251034Y227776D02*
X252636Y226173D01*
X255827D01*
X248969Y227776D02*
X251034D01*
X235006Y223346D02*
X236347D01*
X215959Y220047D02*
Y220517D01*
X214675Y218763D02*
X215959Y220047D01*
X214206Y218763D02*
X214675D01*
X212921Y217479D02*
X214206Y218763D01*
X234772Y197915D02*
Y198384D01*
Y197915D02*
X235817Y196870D01*
X239911D01*
X244841Y201800D01*
X299100D01*
X301900Y199000D01*
Y193600D02*
Y199000D01*
X298609Y190310D02*
X301900Y193600D01*
X284310Y190310D02*
X298609D01*
X283000Y189000D02*
X284310Y190310D01*
X234476Y203169D02*
X241950D01*
X242482Y202587D02*
X251587D01*
X253000Y204000D01*
X234476Y200020D02*
X239914D01*
X242482Y202587D01*
X241950Y203169D02*
X242156Y203375D01*
X248675D01*
X250580Y205279D01*
X233197Y201299D02*
X234476Y200020D01*
X235768Y195579D02*
X239733D01*
X240914Y196760D02*
X277569D01*
X239733Y195579D02*
X240914Y196760D01*
X250580Y205279D02*
X256720D01*
X250253Y206067D02*
X261051D01*
X283772Y200279D02*
X285051Y199000D01*
X288000D01*
X281089Y200279D02*
X283772D01*
X277569Y196760D02*
X281089Y200279D01*
X188893Y215447D02*
X190702D01*
X187528Y216812D02*
X188893Y215447D01*
X187528Y216812D02*
Y217282D01*
X186483Y218327D02*
X187528Y217282D01*
X186013Y218327D02*
X186483D01*
X184673Y219667D02*
X186013Y218327D01*
X184673Y219667D02*
Y228902D01*
X199562Y243791D01*
X285018D01*
X290671Y238139D01*
Y236329D02*
Y238139D01*
Y236329D02*
X293000Y234000D01*
X187823Y224626D02*
X189102Y223346D01*
X187823Y224626D02*
Y230939D01*
X199888Y243004D01*
X280806D01*
X285671Y238139D01*
Y236329D02*
Y238139D01*
Y236329D02*
X288000Y234000D01*
X211313Y241067D02*
X275933D01*
X278000Y239000D01*
X200058Y194833D02*
X201876D01*
X197272Y197620D02*
X200058Y194833D01*
X197272Y227026D02*
X211313Y241067D01*
X200421Y227026D02*
X213675Y240280D01*
X271721D01*
X273000Y239000D01*
X250239Y206053D02*
X250253Y206067D01*
X261065Y206053D02*
X271862D01*
X256720Y205279D02*
X258000Y204000D01*
X261051Y206067D02*
X261065Y206053D01*
X219002D02*
X250239D01*
X233197Y204449D02*
X234476Y203169D01*
X214307Y210748D02*
X219002Y206053D01*
X230047Y185551D02*
X231327Y186831D01*
X286979D01*
X289809Y184000D01*
X293000D01*
X239496Y166654D02*
X243693Y170850D01*
X273581D01*
X237742Y164900D02*
X250226D01*
X242410Y175867D02*
X262484D01*
X223809Y171673D02*
X240026D01*
X241331Y171638D02*
X273255D01*
X240778Y172425D02*
X251425D01*
X240026Y171673D02*
X240778Y172425D01*
X251425D02*
X253000Y174000D01*
X239496Y172953D02*
X242410Y175867D01*
X220598Y166654D02*
X222298Y168353D01*
Y170162D01*
X223809Y171673D01*
X250226Y164900D02*
X250700Y165374D01*
X236347Y163504D02*
X237742Y164900D01*
X250700Y165374D02*
X276184D01*
X240026Y162224D02*
X241802Y164000D01*
X253000D01*
X217449Y163504D02*
X218728Y162224D01*
X240026D01*
X216535Y161252D02*
X295748D01*
X298000Y159000D01*
X214283Y163504D02*
X216535Y161252D01*
X213004Y162974D02*
X216478Y159500D01*
X234774D01*
X236554Y157720D01*
X286191Y179000D02*
X288000D01*
X279327Y172136D02*
X286191Y179000D01*
X279327Y168517D02*
Y172136D01*
X276184Y165374D02*
X279327Y168517D01*
X211150Y166654D02*
X213004Y164799D01*
Y162974D02*
Y164799D01*
X236554Y157720D02*
X276720D01*
X278000Y159000D01*
X211150Y160098D02*
Y163504D01*
Y160098D02*
X216366Y154881D01*
X247491D01*
X247889Y155280D01*
X279279D01*
X283000Y159000D01*
X201701Y226496D02*
X202980Y227776D01*
X271862Y206053D02*
X293000Y227190D01*
Y229000D01*
X245106Y227776D02*
X248969D01*
X248027Y219027D02*
X252500Y223500D01*
X244768Y215768D02*
X248027Y219027D01*
X252500Y223500D02*
X253000Y224000D01*
X190972Y218327D02*
X192252Y217047D01*
X190972Y227221D02*
X198313Y234561D01*
X198452Y234700D01*
X198452Y235460D02*
X198452Y235460D01*
X196335Y237577D02*
X198452Y235460D01*
X196335Y238337D02*
X196419Y238421D01*
X197179Y238421D02*
X199296Y236304D01*
X200056D02*
X200726Y236974D01*
X190972Y218327D02*
Y225950D01*
Y227042D02*
Y227221D01*
X190957Y225966D02*
X190972Y225950D01*
X190957Y225966D02*
Y227026D01*
X190972Y227042D01*
X270000Y211000D02*
X273000Y214000D01*
X249640Y211000D02*
X270000D01*
X245123Y211181D02*
X245243D01*
X247511Y211000D02*
X249640D01*
X246973Y208587D02*
Y210463D01*
X246317Y208049D02*
X246436D01*
X245780Y208587D02*
Y210644D01*
X244586Y207377D02*
Y210644D01*
X242736Y213206D02*
X242855D01*
X242199Y211537D02*
Y212669D01*
X220598Y213898D02*
X222051Y212445D01*
X243392Y207377D02*
Y212669D01*
X243930Y206840D02*
X244049D01*
X241465Y211000D02*
X241662D01*
X241054D02*
X241465D01*
X152496Y183976D02*
X163542D01*
X164971Y182548D01*
Y181583D02*
Y182548D01*
Y181583D02*
X166003Y180551D01*
X170197D01*
X171794Y182149D01*
X177933D01*
X178960Y181122D01*
X180257D01*
X181536Y182402D01*
X147893Y183976D02*
X149283D01*
X149820Y181819D02*
Y183439D01*
X150358Y181281D02*
X150477D01*
X151014Y181819D02*
Y183439D01*
X151551Y183976D02*
X152496D01*
X181536Y182402D02*
X185953D01*
X136752Y194724D02*
X139419Y192057D01*
X133531Y204102D02*
X133602Y204173D01*
X132974Y202992D02*
X133300D01*
X133531Y203223D01*
Y204102D01*
X128878Y208671D02*
Y217006D01*
X131204Y204762D02*
Y206345D01*
X128878Y208671D02*
X131204Y206345D01*
Y204762D02*
X132974Y202992D01*
X178472Y221378D02*
X179654Y220197D01*
X178472Y222165D02*
X179654Y223346D01*
X130417Y204436D02*
Y206019D01*
X128091Y208345D02*
X130417Y206019D01*
X128091Y208345D02*
Y217333D01*
X133531Y201095D02*
X133602Y201024D01*
X133531Y201095D02*
Y201974D01*
X133300Y202205D02*
X133531Y201974D01*
X132648Y202205D02*
X133300D01*
X130417Y204436D02*
X132648Y202205D01*
X141579Y211945D02*
X146201Y207323D01*
X141579Y211945D02*
Y213222D01*
X141576Y213224D02*
X141579Y213222D01*
X158918Y221524D02*
X161821Y218622D01*
X139776Y215224D02*
X146076Y221524D01*
X158918D01*
X139776Y206524D02*
Y215224D01*
X136676Y203424D02*
X139776Y206524D01*
X133602Y197874D02*
X136676Y200948D01*
Y203424D01*
X163776Y213110D02*
X170972D01*
X173039Y215177D02*
X179593D01*
X170972Y213110D02*
X173039Y215177D01*
X156300Y205748D02*
X158995Y208443D01*
X136752Y197874D02*
X138327Y199449D01*
X158995Y208443D02*
X159135Y208583D01*
X159135Y209342D02*
X159135Y209342D01*
X156967Y211510D02*
X159135Y209342D01*
X156967Y211510D02*
X156967Y211510D01*
Y212270D02*
X157051Y212354D01*
X157811Y212354D02*
X157811Y212354D01*
X160321Y209844D01*
X160321Y209844D02*
X160321Y209844D01*
X161081D02*
X161165Y209928D01*
X161165Y210688D02*
X161165Y210688D01*
X159413Y212440D02*
X161165Y210688D01*
X159413Y213200D02*
X159498Y213284D01*
X160257Y213284D02*
X161667Y211875D01*
X162426D02*
X163662Y213110D01*
X163776D01*
X181463Y217047D02*
X182803D01*
X179593Y215177D02*
X181463Y217047D01*
X142376Y229824D02*
X176325D01*
X134376D02*
X138076D01*
X125576Y221024D02*
X134376Y229824D01*
X125576Y204090D02*
Y221024D01*
X176325Y229824D02*
X179654Y226496D01*
X176183Y218917D02*
X180190D01*
X141776Y222624D02*
X172476D01*
X176183Y218917D01*
X141435Y222284D02*
X141776Y222624D01*
X138476Y209047D02*
Y213924D01*
X136752Y207323D02*
X138476Y209047D01*
X180190Y218917D02*
X181470Y220197D01*
X182803D01*
X181467Y185551D02*
X182803D01*
X155650Y188425D02*
X155741Y188334D01*
X156095Y187980D01*
X157012Y188360D02*
Y188508D01*
X157549Y189045D02*
X157669D01*
X158206Y185301D02*
Y188508D01*
X158743Y184764D02*
X158862D01*
X159399Y185301D02*
Y188171D01*
X159937Y188708D02*
X160056D01*
X160593Y185301D02*
Y188171D01*
X161130Y184764D02*
X161250D01*
X161787Y185301D02*
Y188190D01*
X162324Y188727D02*
X162443D01*
X162980Y185301D02*
Y188190D01*
X163518Y184764D02*
X163637D01*
X164174Y185301D02*
Y188182D01*
X164711Y188719D02*
X164831D01*
X165368Y183801D02*
Y188182D01*
X165905Y183264D02*
X166024D01*
X166562Y183801D02*
Y188171D01*
X167099Y188708D02*
X167218D01*
X167755Y181876D02*
Y188171D01*
X168292Y181339D02*
X168412D01*
X168949Y181876D02*
Y187308D01*
X169486Y187845D02*
X169606D01*
X170143Y183326D02*
Y187308D01*
X170680Y182789D02*
X170799D01*
X171336Y183326D02*
Y185508D01*
X171874Y186045D02*
X171993D01*
X172530Y183473D02*
Y185508D01*
X173067Y182936D02*
X173187D01*
X173724Y183473D02*
Y186125D01*
X174261Y186662D02*
X174380D01*
X174918Y183473D02*
Y186125D01*
X175455Y182936D02*
X175574D01*
X176111Y183473D02*
Y186642D01*
X176648Y187179D02*
X176768D01*
X177305Y186088D02*
Y186642D01*
X177842Y185551D02*
X181467D01*
X150569Y193404D02*
X151406D01*
X151644Y193642D02*
X154976D01*
X151406Y193404D02*
X151644Y193642D01*
X149391Y194583D02*
X150569Y193404D01*
X149391Y194583D02*
Y194584D01*
X149388Y191437D02*
X149390D01*
X150569Y192617D01*
X151733D01*
X151970Y192854D01*
X154976D01*
X173796Y168228D02*
X181228D01*
X165272D02*
X165730D01*
X187528Y174528D02*
X189337D01*
X145966Y174252D02*
X159249D01*
X138908Y181310D02*
X145966Y174252D01*
X138908Y181310D02*
Y189418D01*
X181228Y168228D02*
X187528Y174528D01*
X159249Y174252D02*
X165272Y168228D01*
X136752Y191575D02*
X138908Y189418D01*
X168948Y177556D02*
X170644Y179252D01*
X154152Y177324D02*
X157224D01*
X170644Y179252D02*
X171219D01*
X152500Y178976D02*
X154152Y177324D01*
X157224D02*
X157421D01*
X157958Y177862D02*
Y182255D01*
X158496Y182793D02*
X158615D01*
X159152Y177151D02*
Y182255D01*
X159689Y176614D02*
X159809D01*
X160346Y177151D02*
Y182255D01*
X160883Y182793D02*
X161002D01*
X161540Y177151D02*
Y182255D01*
X162077Y176614D02*
X162196D01*
X162733Y177151D02*
Y182255D01*
X163270Y182793D02*
X163390D01*
X163927Y175852D02*
Y182255D01*
X164464Y175315D02*
X164584D01*
X165121Y175852D02*
Y177040D01*
X165658Y177577D02*
X165777D01*
X166314Y175852D02*
Y177040D01*
X166851Y175315D02*
X166971D01*
X167508Y175852D02*
Y176787D01*
X168045Y177324D02*
X168716D01*
X168948Y177556D01*
X159178Y199449D02*
X161113Y201383D01*
X168903Y209173D02*
X183038D01*
X184613Y210748D02*
X185953D01*
X144626Y199449D02*
X159178D01*
X183038Y209173D02*
X184613Y210748D01*
X141476Y196299D02*
X144626Y199449D01*
X141476Y192756D02*
Y196299D01*
X157224D02*
X162555Y201629D01*
X147776Y196299D02*
X150925D01*
X155404D02*
X157224D01*
X147247Y195770D02*
X147776Y196299D01*
X146201Y188425D02*
Y189824D01*
X170028Y204272D02*
X171780Y206024D01*
X187551Y207387D02*
Y209196D01*
X186188Y206024D02*
X187551Y207387D01*
Y209196D02*
X189102Y210748D01*
X162555Y201629D02*
X163538Y202613D01*
X164298Y202613D02*
X164298Y202613D01*
X167816Y199094D01*
X167816Y199094D02*
X167816Y199094D01*
X168576D02*
X168661Y199178D01*
X168661Y199938D02*
X168661Y199938D01*
X165101Y203498D02*
X168661Y199938D01*
X165101Y203498D02*
X165101Y203498D01*
Y204257D02*
X165185Y204342D01*
X165945Y204342D02*
X165945Y204342D01*
X169004Y201282D01*
X169764Y201282D02*
X169848Y201367D01*
X168619Y203355D02*
X169848Y202126D01*
X168999Y204272D02*
X170028D01*
X150925Y196299D02*
X152316D01*
X152853Y194966D02*
Y195762D01*
X153390Y194429D02*
X153509D01*
X154047Y194966D02*
Y195762D01*
X154584Y196299D02*
X155404D01*
X146201Y189824D02*
Y190021D01*
X142819Y190559D02*
X145664D01*
X142282Y191096D02*
Y191215D01*
X142819Y191752D02*
X147572D01*
X148109Y192289D02*
Y192409D01*
X143293Y192946D02*
X147572D01*
X142756Y193483D02*
Y193602D01*
X143293Y194140D02*
X145664D01*
X146201Y194677D02*
Y194724D01*
X147247Y195770D01*
X171780Y206024D02*
X186188D01*
X135177Y177402D02*
Y194959D01*
X143476Y202624D02*
X155576D01*
X190677Y202874D02*
Y210983D01*
X189337Y212323D02*
X190677Y210983D01*
X155576Y202624D02*
X165275Y212323D01*
X189337D01*
X135177Y194959D02*
X136812Y196595D01*
X137446D01*
X143476Y202624D01*
X133602Y175827D02*
X135177Y177402D01*
X189110Y201307D02*
X190677Y202874D01*
X189102Y201307D02*
X189110D01*
X182929Y165079D02*
X192487D01*
X163722D02*
X170197D01*
X189337Y190276D02*
X190677Y188935D01*
X187528Y190276D02*
X189337D01*
X185953Y191850D02*
X187528Y190276D01*
X185953Y191850D02*
Y191850D01*
X193827Y166419D02*
Y186895D01*
X193301Y187421D02*
X193827Y186895D01*
X191722Y187421D02*
X193301D01*
X190677Y188466D02*
X191722Y187421D01*
X190677Y188466D02*
Y188935D01*
X152500Y172677D02*
X154075Y171102D01*
X152500Y172677D02*
X152500D01*
X157698Y171102D02*
X163722Y165079D01*
X154075Y171102D02*
X157698D01*
X184661Y174810D02*
X187528Y177677D01*
X162873Y174528D02*
X167894D01*
X161574Y175827D02*
X162873Y174528D01*
X152500Y175827D02*
X161574D01*
X187528Y177677D02*
Y187126D01*
X185953Y188701D02*
X187528Y187126D01*
X252470Y195280D02*
X279279D01*
X283000Y199000D01*
X251982Y194791D02*
X252470Y195280D01*
X273255Y171638D02*
X274850Y173233D01*
Y177150D01*
X273000Y179000D02*
X274850Y177150D01*
X273581Y170850D02*
X275843Y173112D01*
Y176843D01*
X278000Y179000D01*
X239496Y176102D02*
X240543Y177150D01*
X258767D01*
X260617Y179000D01*
X263000D01*
X262484Y175867D02*
X265617Y179000D01*
X268000D01*
X295923Y174000D02*
X298000D01*
X288856Y181067D02*
X295923Y174000D01*
X254123Y181067D02*
X288856D01*
X251509Y183681D02*
X254123Y181067D01*
X236407Y183681D02*
X251509D01*
X234537Y185551D02*
X236407Y183681D01*
X233197Y185551D02*
X234537D01*
X293000Y174000D02*
Y175810D01*
X288530Y180280D02*
X293000Y175810D01*
X253797Y180280D02*
X288530D01*
X251675Y182402D02*
X253797Y180280D01*
X236347Y182402D02*
X251675D01*
D65*
X226898Y188701D02*
X228472Y190276D01*
Y199724D01*
X230047Y201299D01*
D67*
X122000Y112000D02*
D03*
Y258000D02*
D03*
X317000Y112000D02*
D03*
Y258000D02*
D03*
D68*
X222717Y232618D02*
D03*
X211150Y217032D02*
D03*
X217449Y220213D02*
D03*
X214299D02*
D03*
X268000Y239000D02*
D03*
X192252Y201307D02*
D03*
X288000Y159000D02*
D03*
X189102Y172937D02*
D03*
X268000Y159000D02*
D03*
X201701Y172953D02*
D03*
X268000Y154000D02*
D03*
X201701Y176102D02*
D03*
X182803D02*
D03*
X155650Y182126D02*
D03*
X176504Y188701D02*
D03*
X185953Y185551D02*
D03*
X201701Y169803D02*
D03*
Y188701D02*
D03*
X198551Y191850D02*
D03*
X149350Y207323D02*
D03*
X152500Y207323D02*
D03*
X155650Y201024D02*
D03*
X133602Y213622D02*
D03*
X182803Y210748D02*
D03*
X155650Y219921D02*
D03*
X195402Y210748D02*
D03*
X201701Y220197D02*
D03*
X198551Y226496D02*
D03*
X204850Y210748D02*
D03*
X230047Y182402D02*
D03*
X217449Y204449D02*
D03*
X220598Y185551D02*
D03*
X226898Y207598D02*
D03*
X236347Y204449D02*
D03*
X123760Y215211D02*
D03*
X214307Y207598D02*
D03*
X223748Y163504D02*
D03*
X214299Y166654D02*
D03*
X185953Y220197D02*
D03*
X298000Y234000D02*
D03*
X127303Y201024D02*
D03*
X236347Y169803D02*
D03*
X226898Y172953D02*
D03*
X239496Y179252D02*
D03*
X233197Y226496D02*
D03*
X211150Y223346D02*
D03*
X239496Y213898D02*
D03*
X217449Y198150D02*
D03*
X233197Y191850D02*
D03*
X204850Y198150D02*
D03*
X214299Y185551D02*
D03*
X211150Y182402D02*
D03*
X201701D02*
D03*
X152500Y191575D02*
D03*
Y201024D02*
D03*
X201701Y191850D02*
D03*
X220598Y220197D02*
D03*
X195402Y204449D02*
D03*
X179654Y201307D02*
D03*
X189102Y163504D02*
D03*
X179654Y169803D02*
D03*
X223748Y198150D02*
D03*
X209146Y251724D02*
D03*
X220500Y247500D02*
D03*
X128874Y177402D02*
D03*
X128878Y171102D02*
D03*
X230047Y217047D02*
D03*
X173500Y226500D02*
D03*
X288000Y239000D02*
D03*
X293000Y159000D02*
D03*
X189102Y176102D02*
D03*
X253000Y234000D02*
D03*
X198551Y220197D02*
D03*
X268000Y234000D02*
D03*
X201701Y217047D02*
D03*
X293000Y239000D02*
D03*
X198354Y260800D02*
D03*
X283000Y239000D02*
D03*
X240874Y232008D02*
D03*
X195402Y220197D02*
D03*
X298000Y239000D02*
D03*
X192947Y260800D02*
D03*
X172765Y219936D02*
D03*
X152500Y197874D02*
D03*
X127303Y204165D02*
D03*
X223764Y226496D02*
D03*
Y223346D02*
D03*
X220598Y217047D02*
D03*
Y223346D02*
D03*
X236347Y217047D02*
D03*
Y213898D02*
D03*
X233197Y220197D02*
D03*
X236347D02*
D03*
X217449Y217047D02*
D03*
X230047Y220197D02*
D03*
X223748Y191850D02*
D03*
X220598D02*
D03*
X155650Y178976D02*
D03*
Y172677D02*
D03*
X283000Y234000D02*
D03*
X239496Y169803D02*
D03*
X242000Y149500D02*
D03*
X226898Y198150D02*
D03*
Y191850D02*
D03*
X230047D02*
D03*
Y198150D02*
D03*
X226898Y201299D02*
D03*
X230047D02*
D03*
X233197Y198150D02*
D03*
X223748Y188701D02*
D03*
Y185551D02*
D03*
X220598Y188701D02*
D03*
X226898Y185551D02*
D03*
X122300Y225185D02*
D03*
X200200Y233900D02*
D03*
X205476Y241724D02*
D03*
X240700Y245400D02*
D03*
X182476Y251724D02*
D03*
Y241724D02*
D03*
X201701Y163504D02*
D03*
Y198150D02*
D03*
X183600Y161000D02*
D03*
X195402Y172953D02*
D03*
X223748Y201299D02*
D03*
X201615Y201385D02*
D03*
X195402Y201299D02*
D03*
X166476Y215124D02*
D03*
X192449Y188701D02*
D03*
X189102D02*
D03*
X192252Y169819D02*
D03*
Y166654D02*
D03*
X195402Y182402D02*
D03*
X195402Y188701D02*
D03*
X185953Y169803D02*
D03*
X226898Y220197D02*
D03*
X223748D02*
D03*
X220598Y207598D02*
D03*
X223748Y210748D02*
D03*
X217449Y223346D02*
D03*
X133602Y216772D02*
D03*
X204850Y163504D02*
D03*
X220500Y143100D02*
D03*
X189102Y179252D02*
D03*
X185953D02*
D03*
X189102Y182402D02*
D03*
X192449D02*
D03*
X198543Y207598D02*
D03*
X179654D02*
D03*
X185953Y213898D02*
D03*
X201701D02*
D03*
X198551D02*
D03*
X195402D02*
D03*
X176504Y217047D02*
D03*
X189102Y213898D02*
D03*
X192256D02*
D03*
X182803D02*
D03*
X204850Y217047D02*
D03*
X192252Y220197D02*
D03*
Y223346D02*
D03*
X136752Y169528D02*
D03*
X133602D02*
D03*
X189102Y169803D02*
D03*
X198551Y163504D02*
D03*
X152500Y216772D02*
D03*
X182803Y188701D02*
D03*
X179654D02*
D03*
X195402Y169803D02*
D03*
X204850Y179252D02*
D03*
Y176102D02*
D03*
X198551Y169803D02*
D03*
Y172953D02*
D03*
X211150Y179236D02*
D03*
X214299Y198150D02*
D03*
X217449Y213898D02*
D03*
X220598Y198150D02*
D03*
X211134Y185551D02*
D03*
X204835Y201299D02*
D03*
X208000D02*
D03*
X204850Y191858D02*
D03*
X230031Y163520D02*
D03*
X220598Y163504D02*
D03*
X223748Y166654D02*
D03*
X226898D02*
D03*
X130453Y178976D02*
D03*
X130468Y201024D02*
D03*
X230047Y213898D02*
D03*
X233197Y188701D02*
D03*
Y217047D02*
D03*
X239496Y210748D02*
D03*
X226898Y213898D02*
D03*
X230047Y210748D02*
D03*
X233197D02*
D03*
X236347D02*
D03*
X233197Y213898D02*
D03*
X185953Y207598D02*
D03*
X239440Y201355D02*
D03*
X236347Y198150D02*
D03*
X211142Y213906D02*
D03*
X214299Y188701D02*
D03*
X217449Y169803D02*
D03*
X226898Y163504D02*
D03*
X211000Y232800D02*
D03*
X198551Y210748D02*
D03*
X236018Y156441D02*
D03*
X204850Y226496D02*
D03*
X233197Y201299D02*
D03*
X239496Y166654D02*
D03*
Y172953D02*
D03*
X220598Y169803D02*
D03*
Y226496D02*
D03*
X217449D02*
D03*
X273000Y239000D02*
D03*
X278000D02*
D03*
X195402Y191850D02*
D03*
X198551Y182402D02*
D03*
X195402Y207598D02*
D03*
X198551Y198150D02*
D03*
Y188701D02*
D03*
X177900Y129200D02*
D03*
X226898Y223346D02*
D03*
X223748Y213898D02*
D03*
X214299Y217047D02*
D03*
X223064Y253900D02*
D03*
X154936Y243375D02*
D03*
X195402Y217047D02*
D03*
X127303Y182126D02*
D03*
X133602Y188425D02*
D03*
X130453Y197874D02*
D03*
X152500Y188425D02*
D03*
X149350Y201024D02*
D03*
X155650Y197874D02*
D03*
X123760Y218360D02*
D03*
X155650Y207323D02*
D03*
Y210472D02*
D03*
X152500Y219921D02*
D03*
X176504Y172953D02*
D03*
X179654Y182402D02*
D03*
X182803Y191850D02*
D03*
X176504Y207402D02*
D03*
X182803Y226496D02*
D03*
X185953Y204449D02*
D03*
X179654Y217047D02*
D03*
X123100Y133900D02*
D03*
X220598Y204449D02*
D03*
X226898Y188701D02*
D03*
X245000Y222461D02*
D03*
Y212461D02*
D03*
X230047Y166654D02*
D03*
X223748Y179252D02*
D03*
X245500Y185461D02*
D03*
X233197Y176102D02*
D03*
X236347Y185551D02*
D03*
X239496Y163504D02*
D03*
X198551Y176102D02*
D03*
X211150Y172953D02*
D03*
X195402Y166654D02*
D03*
X192252Y198142D02*
D03*
X214299Y182402D02*
D03*
Y204449D02*
D03*
X211142Y207598D02*
D03*
X211150Y191850D02*
D03*
X201701Y185551D02*
D03*
X201701Y179252D02*
D03*
X177900Y142943D02*
D03*
X258000Y229000D02*
D03*
X217449Y210748D02*
D03*
X253000Y229000D02*
D03*
X201701Y226496D02*
D03*
X258000Y224000D02*
D03*
X214299Y213898D02*
D03*
X253000Y224000D02*
D03*
X258000Y219000D02*
D03*
X253000D02*
D03*
X189102Y226496D02*
D03*
X172064Y250100D02*
D03*
X178476Y246724D02*
D03*
X192236Y226496D02*
D03*
X205476Y246724D02*
D03*
X195402Y223346D02*
D03*
X192252Y217047D02*
D03*
X198551Y223346D02*
D03*
X172064Y256800D02*
D03*
X195402Y226496D02*
D03*
X211150Y220197D02*
D03*
X263000Y229000D02*
D03*
X204850Y220197D02*
D03*
X201701Y223346D02*
D03*
X283000Y229000D02*
D03*
X214325Y223321D02*
D03*
X283000Y214000D02*
D03*
X226898Y217047D02*
D03*
X278000Y214000D02*
D03*
X298000Y229000D02*
D03*
Y224000D02*
D03*
Y219000D02*
D03*
X288000D02*
D03*
X211150Y226496D02*
D03*
X214307Y210748D02*
D03*
X293000Y229000D02*
D03*
X214299Y226496D02*
D03*
X293000Y224000D02*
D03*
X223748Y217047D02*
D03*
X293000Y219000D02*
D03*
Y214000D02*
D03*
X288000Y229000D02*
D03*
Y214000D02*
D03*
Y224000D02*
D03*
X298000Y214000D02*
D03*
X263000Y224000D02*
D03*
X268000D02*
D03*
Y219000D02*
D03*
X226898Y226496D02*
D03*
X268000Y214000D02*
D03*
X263000Y219000D02*
D03*
X230047Y223346D02*
D03*
X278000Y224000D02*
D03*
X220598Y210748D02*
D03*
X230047Y226496D02*
D03*
X273000Y224000D02*
D03*
Y219000D02*
D03*
X233197Y223346D02*
D03*
X273000Y214000D02*
D03*
X220598Y213898D02*
D03*
X278000Y219000D02*
D03*
X189102Y220197D02*
D03*
X258000Y234000D02*
D03*
X263000D02*
D03*
X273000D02*
D03*
X278000D02*
D03*
X189102Y223346D02*
D03*
X288000Y234000D02*
D03*
X189102Y217047D02*
D03*
X198551D02*
D03*
X293000Y234000D02*
D03*
X136752Y188425D02*
D03*
X152500Y182126D02*
D03*
X127303Y197874D02*
D03*
X192252Y204449D02*
D03*
X185953Y223346D02*
D03*
Y182402D02*
D03*
X136752Y194724D02*
D03*
X130453Y188425D02*
D03*
X188900Y185551D02*
D03*
X149350Y210472D02*
D03*
X179654Y210748D02*
D03*
X149350Y213622D02*
D03*
X133602Y204173D02*
D03*
X179654Y220197D02*
D03*
X133602Y201024D02*
D03*
X179654Y223346D02*
D03*
X136752Y210472D02*
D03*
X173776Y207724D02*
D03*
X146201Y207323D02*
D03*
X141576Y213224D02*
D03*
X176504Y201299D02*
D03*
Y204449D02*
D03*
X130453Y216772D02*
D03*
X179654Y204449D02*
D03*
X149350Y219921D02*
D03*
X185953Y201307D02*
D03*
X133602Y210472D02*
D03*
X182803Y201307D02*
D03*
Y204449D02*
D03*
X152500Y213622D02*
D03*
X136752D02*
D03*
X151076Y227724D02*
D03*
X145976Y216824D02*
D03*
X149350Y197874D02*
D03*
X176504Y210748D02*
D03*
X133602Y197874D02*
D03*
X136752D02*
D03*
X182803Y217047D02*
D03*
X185953Y226496D02*
D03*
X152500Y204173D02*
D03*
X179654Y226496D02*
D03*
X182803Y223346D02*
D03*
X149350Y204173D02*
D03*
X136752Y207323D02*
D03*
X182803Y220197D02*
D03*
X133602Y185276D02*
D03*
X172576Y187324D02*
D03*
X155650Y188425D02*
D03*
X182803Y185551D02*
D03*
X149391Y194584D02*
D03*
X179654Y191850D02*
D03*
X149388Y191437D02*
D03*
X136752Y191575D02*
D03*
X133602Y182126D02*
D03*
X189102Y198142D02*
D03*
X152500Y178976D02*
D03*
X189102Y191850D02*
D03*
X130453Y182126D02*
D03*
X185953Y210748D02*
D03*
X146201Y172677D02*
D03*
X141476Y192756D02*
D03*
X185953Y217047D02*
D03*
X171076Y202824D02*
D03*
X189102Y210748D02*
D03*
X146201Y188425D02*
D03*
X133602Y175827D02*
D03*
X189102Y201307D02*
D03*
X152500Y169528D02*
D03*
X179654Y195000D02*
D03*
X189102D02*
D03*
X133602Y172677D02*
D03*
X185953Y191850D02*
D03*
X152500Y172677D02*
D03*
X185953Y188701D02*
D03*
X152500Y175827D02*
D03*
X182803Y198142D02*
D03*
X136752Y175827D02*
D03*
X169976Y189124D02*
D03*
X149350Y175827D02*
D03*
X166876Y178824D02*
D03*
X136752Y178976D02*
D03*
X171476Y177124D02*
D03*
X233197Y172953D02*
D03*
X163500Y243275D02*
D03*
X192252Y191850D02*
D03*
X152500Y185276D02*
D03*
X189102Y207598D02*
D03*
Y204449D02*
D03*
X192256Y210748D02*
D03*
X258000Y239000D02*
D03*
X192252Y207598D02*
D03*
X253000Y239000D02*
D03*
X201701Y210748D02*
D03*
X263000Y239000D02*
D03*
X271500Y136000D02*
D03*
X236347Y172953D02*
D03*
X253000Y214000D02*
D03*
X258000D02*
D03*
X283000Y209000D02*
D03*
X288000D02*
D03*
X273000D02*
D03*
X278000D02*
D03*
X263000D02*
D03*
X220598Y201299D02*
D03*
X268000Y209000D02*
D03*
X223748Y204449D02*
D03*
X253000Y209000D02*
D03*
X223748Y207598D02*
D03*
X258000Y209000D02*
D03*
X236347Y207598D02*
D03*
X239496D02*
D03*
Y204449D02*
D03*
X230047Y207598D02*
D03*
X273000Y204000D02*
D03*
X233197Y207598D02*
D03*
X278000Y204000D02*
D03*
X263000D02*
D03*
X268000D02*
D03*
X253000D02*
D03*
X233197Y204449D02*
D03*
X258000Y204000D02*
D03*
X226898Y204449D02*
D03*
X293000Y199000D02*
D03*
X230047Y204449D02*
D03*
X298000Y199000D02*
D03*
X283000D02*
D03*
X288000D02*
D03*
X236347Y201299D02*
D03*
X234772Y193425D02*
D03*
X253000Y199000D02*
D03*
X237921Y193425D02*
D03*
X258000Y199000D02*
D03*
X293000Y194000D02*
D03*
X230047Y188701D02*
D03*
X298000Y194000D02*
D03*
X283000D02*
D03*
X288000D02*
D03*
X226898Y210748D02*
D03*
X273000Y194000D02*
D03*
X278000D02*
D03*
X263000D02*
D03*
X268000D02*
D03*
X253000D02*
D03*
X258000D02*
D03*
X239496Y217047D02*
D03*
X293000Y189000D02*
D03*
X298000D02*
D03*
X236347Y223346D02*
D03*
X283000Y189000D02*
D03*
X239496Y226496D02*
D03*
X288000Y189000D02*
D03*
X239496Y220197D02*
D03*
X273000Y189000D02*
D03*
X239496Y223346D02*
D03*
X278000Y189000D02*
D03*
X268000D02*
D03*
X263000Y214000D02*
D03*
Y189000D02*
D03*
X236347Y176102D02*
D03*
X223748Y182402D02*
D03*
X253000Y189000D02*
D03*
X226898Y182402D02*
D03*
X258000Y189000D02*
D03*
X230047Y185551D02*
D03*
X293000Y184000D02*
D03*
X233197Y182402D02*
D03*
X298000Y184000D02*
D03*
X233197Y166654D02*
D03*
X283000Y184000D02*
D03*
X236347Y166654D02*
D03*
X288000Y184000D02*
D03*
X273000D02*
D03*
X230047Y169803D02*
D03*
X278000Y184000D02*
D03*
X233197Y169803D02*
D03*
X230047Y176102D02*
D03*
X263000Y184000D02*
D03*
X233197Y179252D02*
D03*
X268000Y184000D02*
D03*
X226898Y179252D02*
D03*
X253000Y184000D02*
D03*
X230047Y179252D02*
D03*
X258000Y184000D02*
D03*
X293000Y179000D02*
D03*
X226898Y169803D02*
D03*
X298000Y179000D02*
D03*
X283000D02*
D03*
X233197Y163504D02*
D03*
X288000Y179000D02*
D03*
X236347Y163504D02*
D03*
X273000Y179000D02*
D03*
X278000D02*
D03*
X263000D02*
D03*
X239496Y176102D02*
D03*
X268000Y179000D02*
D03*
X253000D02*
D03*
X258000D02*
D03*
X298000Y174000D02*
D03*
X233197Y185551D02*
D03*
X293000Y174000D02*
D03*
X236347Y182402D02*
D03*
X220598Y172953D02*
D03*
X288000Y174000D02*
D03*
X223748Y172953D02*
D03*
Y169803D02*
D03*
X263000Y174000D02*
D03*
X226898Y176102D02*
D03*
X230047Y172953D02*
D03*
X268000Y174000D02*
D03*
X220598Y166654D02*
D03*
X253000Y174000D02*
D03*
X258000D02*
D03*
X298000Y169000D02*
D03*
X293000D02*
D03*
X220598Y182402D02*
D03*
X283000Y169000D02*
D03*
X220598Y179252D02*
D03*
X288000Y169000D02*
D03*
X220598Y176102D02*
D03*
X273000Y169000D02*
D03*
X278000D02*
D03*
X223748Y176102D02*
D03*
X214283Y169787D02*
D03*
X263000Y169000D02*
D03*
X217465Y166654D02*
D03*
X268000Y169000D02*
D03*
X217449Y172953D02*
D03*
X253000Y169000D02*
D03*
X258000D02*
D03*
X214299Y176102D02*
D03*
X293000Y164000D02*
D03*
X214315Y172953D02*
D03*
X298000Y164000D02*
D03*
X211134Y176102D02*
D03*
X283000Y164000D02*
D03*
X288000D02*
D03*
X236347Y179252D02*
D03*
X268000Y164000D02*
D03*
X273000D02*
D03*
X211150Y169803D02*
D03*
X258000Y164000D02*
D03*
X204850Y169803D02*
D03*
X263000Y164000D02*
D03*
X214283Y163504D02*
D03*
X298000Y159000D02*
D03*
X217449Y163504D02*
D03*
X253000Y164000D02*
D03*
X211150Y166654D02*
D03*
X278000Y159000D02*
D03*
X211150Y163504D02*
D03*
X283000Y159000D02*
D03*
X273000D02*
D03*
X204850Y166654D02*
D03*
X258000Y159000D02*
D03*
X201701Y166654D02*
D03*
X263000Y159000D02*
D03*
X298000Y154000D02*
D03*
X198551Y166654D02*
D03*
X253000Y159000D02*
D03*
X288000Y154000D02*
D03*
X293000D02*
D03*
X278000D02*
D03*
X283000D02*
D03*
X204850Y172953D02*
D03*
X273000Y154000D02*
D03*
X258000D02*
D03*
X263000D02*
D03*
X253000D02*
D03*
X192246Y185545D02*
D03*
X181700Y258600D02*
D03*
X209541Y260800D02*
D03*
X172429Y236724D02*
D03*
X194741Y160000D02*
D03*
X211142Y210740D02*
D03*
D69*
X201564Y163504D02*
X201701D01*
X200281Y162221D02*
X201564Y163504D01*
X197216Y162169D02*
X198551Y163504D01*
X233197Y188701D02*
X235596Y191100D01*
X233250Y190568D02*
X233941D01*
X231383Y188701D02*
X233250Y190568D01*
X235267Y191894D02*
X290894D01*
X293000Y194000D01*
X202164Y151353D02*
X290353D01*
X205308Y152146D02*
X286146D01*
X199726Y153791D02*
X202164Y151353D01*
X199726Y157728D02*
X205308Y152146D01*
X230047Y188701D02*
X231383D01*
X233941Y190568D02*
X235267Y191894D01*
X295100Y191100D02*
X298000Y194000D01*
X235596Y191100D02*
X295100D01*
X198084Y158179D02*
Y161821D01*
Y158179D02*
X198536Y157728D01*
X199726D01*
X198485Y162221D02*
X200281D01*
X198084Y161821D02*
X198485Y162221D01*
X286146Y152146D02*
X288000Y154000D01*
X290353Y151353D02*
X293000Y154000D01*
X197216Y155218D02*
Y162169D01*
Y155218D02*
X198644Y153791D01*
X199726D01*
M02*
