G04*
G04 #@! TF.GenerationSoftware,Altium Limited,Altium Designer,25.6.2 (33)*
G04*
G04 Layer_Physical_Order=7*
G04 Layer_Color=6736896*
%FSLAX25Y25*%
%MOIN*%
G70*
G04*
G04 #@! TF.SameCoordinates,D3077B53-F130-49B9-AE0B-FC42BD5CCE1B*
G04*
G04*
G04 #@! TF.FilePolarity,Positive*
G04*
G01*
G75*
%ADD13C,0.01000*%
%ADD59C,0.02362*%
%ADD62C,0.00394*%
%ADD65C,0.00800*%
%ADD67C,0.03937*%
%ADD68C,0.01378*%
%ADD71C,0.00750*%
G36*
X329000Y260000D02*
Y110000D01*
X319000Y100000D01*
X120000D01*
X110000Y110000D01*
Y260000D01*
X120000Y270000D01*
X319000D01*
X329000Y260000D01*
D02*
G37*
%LPC*%
G36*
X209756Y261883D02*
X209326D01*
X208928Y261718D01*
X208623Y261413D01*
X208458Y261015D01*
Y260585D01*
X208623Y260187D01*
X208928Y259882D01*
X209326Y259717D01*
X209756D01*
X210154Y259882D01*
X210459Y260187D01*
X210624Y260585D01*
Y261015D01*
X210459Y261413D01*
X210154Y261718D01*
X209756Y261883D01*
D02*
G37*
G36*
X198569D02*
X198138D01*
X197740Y261718D01*
X197436Y261413D01*
X197271Y261015D01*
Y260585D01*
X197436Y260187D01*
X197740Y259882D01*
X198138Y259717D01*
X198569D01*
X198967Y259882D01*
X199271Y260187D01*
X199436Y260585D01*
Y261015D01*
X199271Y261413D01*
X198967Y261718D01*
X198569Y261883D01*
D02*
G37*
G36*
X193162D02*
X192731D01*
X192333Y261718D01*
X192029Y261413D01*
X191864Y261015D01*
Y260585D01*
X192029Y260187D01*
X192333Y259882D01*
X192731Y259717D01*
X193162D01*
X193560Y259882D01*
X193864Y260187D01*
X194029Y260585D01*
Y261015D01*
X193864Y261413D01*
X193560Y261718D01*
X193162Y261883D01*
D02*
G37*
G36*
X181915Y259683D02*
X181485D01*
X181087Y259518D01*
X180782Y259213D01*
X180617Y258815D01*
Y258385D01*
X180782Y257987D01*
X181087Y257682D01*
X181485Y257517D01*
X181915D01*
X182313Y257682D01*
X182618Y257987D01*
X182783Y258385D01*
Y258815D01*
X182618Y259213D01*
X182313Y259518D01*
X181915Y259683D01*
D02*
G37*
G36*
X172280Y257883D02*
X171849D01*
X171451Y257718D01*
X171146Y257413D01*
X170982Y257015D01*
Y256585D01*
X171146Y256187D01*
X171451Y255882D01*
X171849Y255717D01*
X172280D01*
X172678Y255882D01*
X172982Y256187D01*
X173147Y256585D01*
Y257015D01*
X172982Y257413D01*
X172678Y257718D01*
X172280Y257883D01*
D02*
G37*
G36*
X223280Y254983D02*
X222849D01*
X222451Y254818D01*
X222146Y254513D01*
X221982Y254115D01*
Y253685D01*
X222146Y253287D01*
X222451Y252982D01*
X222849Y252817D01*
X223280D01*
X223677Y252982D01*
X223982Y253287D01*
X224147Y253685D01*
Y254115D01*
X223982Y254513D01*
X223677Y254818D01*
X223280Y254983D01*
D02*
G37*
G36*
X172280Y251183D02*
X171849D01*
X171451Y251018D01*
X171146Y250713D01*
X170982Y250315D01*
Y249885D01*
X171146Y249487D01*
X171451Y249182D01*
X171849Y249017D01*
X172280D01*
X172678Y249182D01*
X172982Y249487D01*
X173147Y249885D01*
Y250315D01*
X172982Y250713D01*
X172678Y251018D01*
X172280Y251183D01*
D02*
G37*
G36*
X239313Y250875D02*
X238687D01*
X238108Y250635D01*
X237665Y250192D01*
X237425Y249613D01*
Y248987D01*
X237665Y248408D01*
X238108Y247965D01*
X238687Y247725D01*
X239313D01*
X239892Y247965D01*
X240335Y248408D01*
X240575Y248987D01*
Y249613D01*
X240335Y250192D01*
X239892Y250635D01*
X239313Y250875D01*
D02*
G37*
G36*
X205692Y247807D02*
X205261D01*
X204863Y247642D01*
X204558Y247338D01*
X204394Y246940D01*
Y246509D01*
X204558Y246111D01*
X204863Y245807D01*
X205261Y245642D01*
X205692D01*
X206090Y245807D01*
X206394Y246111D01*
X206559Y246509D01*
Y246940D01*
X206394Y247338D01*
X206090Y247642D01*
X205692Y247807D01*
D02*
G37*
G36*
X178692D02*
X178261D01*
X177863Y247642D01*
X177559Y247338D01*
X177394Y246940D01*
Y246509D01*
X177559Y246111D01*
X177863Y245807D01*
X178261Y245642D01*
X178692D01*
X179090Y245807D01*
X179394Y246111D01*
X179559Y246509D01*
Y246940D01*
X179394Y247338D01*
X179090Y247642D01*
X178692Y247807D01*
D02*
G37*
G36*
X240915Y246483D02*
X240485D01*
X240087Y246318D01*
X239782Y246013D01*
X239617Y245615D01*
Y245185D01*
X239782Y244787D01*
X240087Y244482D01*
X240485Y244317D01*
X240915D01*
X241313Y244482D01*
X241618Y244787D01*
X241783Y245185D01*
Y245615D01*
X241618Y246013D01*
X241313Y246318D01*
X240915Y246483D01*
D02*
G37*
G36*
X163715Y244357D02*
X163285D01*
X162887Y244193D01*
X162582Y243888D01*
X162417Y243490D01*
Y243059D01*
X162582Y242661D01*
X162887Y242357D01*
X163285Y242192D01*
X163715D01*
X164113Y242357D01*
X164418Y242661D01*
X164583Y243059D01*
Y243490D01*
X164418Y243888D01*
X164113Y244193D01*
X163715Y244357D01*
D02*
G37*
G36*
X205692Y242807D02*
X205261D01*
X204863Y242642D01*
X204558Y242338D01*
X204394Y241940D01*
Y241509D01*
X204558Y241111D01*
X204863Y240807D01*
X205261Y240642D01*
X205692D01*
X206090Y240807D01*
X206394Y241111D01*
X206559Y241509D01*
Y241940D01*
X206394Y242338D01*
X206090Y242642D01*
X205692Y242807D01*
D02*
G37*
G36*
X182692D02*
X182261D01*
X181863Y242642D01*
X181559Y242338D01*
X181394Y241940D01*
Y241509D01*
X181559Y241111D01*
X181863Y240807D01*
X182261Y240642D01*
X182692D01*
X183090Y240807D01*
X183394Y241111D01*
X183559Y241509D01*
Y241940D01*
X183394Y242338D01*
X183090Y242642D01*
X182692Y242807D01*
D02*
G37*
G36*
X298215Y240083D02*
X297785D01*
X297387Y239918D01*
X297082Y239613D01*
X296917Y239215D01*
Y238785D01*
X297082Y238387D01*
X297387Y238082D01*
X297785Y237917D01*
X298215D01*
X298613Y238082D01*
X298918Y238387D01*
X299083Y238785D01*
Y239215D01*
X298918Y239613D01*
X298613Y239918D01*
X298215Y240083D01*
D02*
G37*
G36*
X293215D02*
X292785D01*
X292387Y239918D01*
X292082Y239613D01*
X291917Y239215D01*
Y238785D01*
X292082Y238387D01*
X292387Y238082D01*
X292785Y237917D01*
X293215D01*
X293613Y238082D01*
X293918Y238387D01*
X294083Y238785D01*
Y239215D01*
X293918Y239613D01*
X293613Y239918D01*
X293215Y240083D01*
D02*
G37*
G36*
X288215D02*
X287785D01*
X287387Y239918D01*
X287082Y239613D01*
X286917Y239215D01*
Y238785D01*
X287082Y238387D01*
X287387Y238082D01*
X287785Y237917D01*
X288215D01*
X288613Y238082D01*
X288918Y238387D01*
X289083Y238785D01*
Y239215D01*
X288918Y239613D01*
X288613Y239918D01*
X288215Y240083D01*
D02*
G37*
G36*
X283215D02*
X282785D01*
X282387Y239918D01*
X282082Y239613D01*
X281917Y239215D01*
Y238785D01*
X282082Y238387D01*
X282387Y238082D01*
X282785Y237917D01*
X283215D01*
X283613Y238082D01*
X283918Y238387D01*
X284083Y238785D01*
Y239215D01*
X283918Y239613D01*
X283613Y239918D01*
X283215Y240083D01*
D02*
G37*
G36*
X278215D02*
X277785D01*
X277387Y239918D01*
X277082Y239613D01*
X276917Y239215D01*
Y238785D01*
X277082Y238387D01*
X277387Y238082D01*
X277785Y237917D01*
X278215D01*
X278613Y238082D01*
X278918Y238387D01*
X279083Y238785D01*
Y239215D01*
X278918Y239613D01*
X278613Y239918D01*
X278215Y240083D01*
D02*
G37*
G36*
X273215D02*
X272785D01*
X272387Y239918D01*
X272082Y239613D01*
X271917Y239215D01*
Y238785D01*
X272082Y238387D01*
X272387Y238082D01*
X272785Y237917D01*
X273215D01*
X273613Y238082D01*
X273918Y238387D01*
X274083Y238785D01*
Y239215D01*
X273918Y239613D01*
X273613Y239918D01*
X273215Y240083D01*
D02*
G37*
G36*
X172644Y237807D02*
X172214D01*
X171816Y237642D01*
X171511Y237338D01*
X171346Y236940D01*
Y236509D01*
X171511Y236111D01*
X171816Y235807D01*
X172214Y235642D01*
X172644D01*
X173042Y235807D01*
X173347Y236111D01*
X173512Y236509D01*
Y236940D01*
X173347Y237338D01*
X173042Y237642D01*
X172644Y237807D01*
D02*
G37*
G36*
X182692Y252807D02*
X182261D01*
X181863Y252642D01*
X181559Y252338D01*
X181394Y251940D01*
Y251509D01*
X181559Y251111D01*
X181863Y250807D01*
X182261Y250642D01*
X182655D01*
X188148Y245148D01*
X190798Y242498D01*
X196042Y237255D01*
Y234040D01*
X179552Y234027D01*
X179398Y234398D01*
X178955Y234841D01*
X178376Y235081D01*
X177750D01*
X177171Y234841D01*
X176728Y234398D01*
X176573Y234025D01*
X147366Y234001D01*
X147215Y234365D01*
X155142Y242292D01*
X155151D01*
X155549Y242457D01*
X155854Y242761D01*
X156018Y243159D01*
Y243590D01*
X155854Y243988D01*
X155549Y244293D01*
X155151Y244458D01*
X154720D01*
X154323Y244293D01*
X154018Y243988D01*
X153853Y243590D01*
Y243581D01*
X144119Y233846D01*
X142436D01*
X142173Y234240D01*
X142275Y234487D01*
Y235113D01*
X142035Y235692D01*
X141592Y236135D01*
X141013Y236375D01*
X140387D01*
X139808Y236135D01*
X139365Y235692D01*
X139125Y235113D01*
Y234487D01*
X139227Y234240D01*
X138964Y233846D01*
X125654D01*
Y215499D01*
X119756Y209601D01*
X119558Y209306D01*
X119489Y208957D01*
Y166302D01*
X119095Y166109D01*
X118638Y166298D01*
X118012D01*
X117433Y166059D01*
X116990Y165616D01*
X116750Y165037D01*
Y164410D01*
X116990Y163832D01*
X117433Y163389D01*
X118012Y163149D01*
X118638D01*
X119095Y163338D01*
X119489Y163146D01*
Y163100D01*
X119558Y162751D01*
X119756Y162456D01*
X120193Y162019D01*
X119970Y161685D01*
X119685Y161802D01*
X119059D01*
X118480Y161563D01*
X118037Y161120D01*
X117798Y160541D01*
Y159915D01*
X118037Y159336D01*
X118480Y158893D01*
X119059Y158653D01*
X119685D01*
X120264Y158893D01*
X120707Y159336D01*
X120947Y159915D01*
Y160541D01*
X120829Y160825D01*
X121163Y161048D01*
X128497Y153715D01*
X128792Y153517D01*
X129141Y153448D01*
X131955D01*
X132147Y153054D01*
X131958Y152597D01*
Y151971D01*
X132198Y151392D01*
X132641Y150949D01*
X133220Y150709D01*
X133846D01*
X134425Y150949D01*
X134868Y151392D01*
X135057Y151849D01*
X135472Y151991D01*
X137482Y149981D01*
X137778Y149783D01*
X138126Y149714D01*
X165272D01*
X176325Y138661D01*
Y138061D01*
X176565Y137482D01*
X177008Y137039D01*
X177466Y136849D01*
X177610Y136436D01*
X177328Y136154D01*
X177152Y135891D01*
X177091Y135582D01*
X177091Y135582D01*
Y129922D01*
X176982Y129813D01*
X176817Y129415D01*
Y128985D01*
X176982Y128587D01*
X177287Y128282D01*
X177685Y128117D01*
X178115D01*
X178513Y128282D01*
X178818Y128587D01*
X178983Y128985D01*
Y129415D01*
X178818Y129813D01*
X178709Y129922D01*
Y135246D01*
X188100Y144637D01*
X188100Y144637D01*
X188275Y144899D01*
X188337Y145209D01*
X188337Y145209D01*
Y158350D01*
X193184D01*
X198017Y153518D01*
X198469Y153331D01*
X199278D01*
X200340Y152269D01*
X200792Y152081D01*
X271721D01*
X272172Y152269D01*
X272821Y152917D01*
X273215D01*
X273613Y153082D01*
X273918Y153387D01*
X274083Y153785D01*
Y154215D01*
X273918Y154613D01*
X273613Y154918D01*
X273215Y155083D01*
X272785D01*
X272387Y154918D01*
X272082Y154613D01*
X271917Y154215D01*
Y153821D01*
X271456Y153360D01*
X269333D01*
X269070Y153753D01*
X269083Y153785D01*
Y154215D01*
X269070Y154247D01*
X269262Y154608D01*
X269325Y154659D01*
X269731Y154827D01*
X272821Y157917D01*
X273215D01*
X273613Y158082D01*
X273918Y158387D01*
X274083Y158785D01*
Y159215D01*
X273918Y159613D01*
X273613Y159918D01*
X273215Y160083D01*
X272785D01*
X272387Y159918D01*
X272082Y159613D01*
X271917Y159215D01*
Y158821D01*
X269015Y155919D01*
X263147D01*
X262996Y156282D01*
X265074Y158361D01*
X267108D01*
X267387Y158082D01*
X267785Y157917D01*
X268215D01*
X268613Y158082D01*
X268918Y158387D01*
X269083Y158785D01*
Y159215D01*
X268918Y159613D01*
X268613Y159918D01*
X268215Y160083D01*
X267785D01*
X267387Y159918D01*
X267108Y159639D01*
X264809D01*
X264375Y159459D01*
X264357Y159452D01*
X263931Y159582D01*
X263918Y159613D01*
X263613Y159918D01*
X263215Y160083D01*
X262785D01*
X262387Y159918D01*
X262108Y159639D01*
X260074D01*
X258522Y161191D01*
X258685Y161585D01*
X296224D01*
X296676Y161772D01*
X297821Y162917D01*
X298215D01*
X298613Y163082D01*
X298918Y163387D01*
X299083Y163785D01*
Y164215D01*
X298918Y164613D01*
X298613Y164918D01*
X298215Y165083D01*
X297785D01*
X297387Y164918D01*
X297082Y164613D01*
X296917Y164215D01*
Y163821D01*
X295960Y162864D01*
X293952D01*
X293788Y163257D01*
X293918Y163387D01*
X294083Y163785D01*
Y164215D01*
X293918Y164613D01*
X293613Y164918D01*
X293215Y165083D01*
X292785D01*
X292387Y164918D01*
X292108Y164639D01*
X290074D01*
X288982Y165732D01*
X288530Y165919D01*
X240790D01*
X240527Y166312D01*
X240579Y166438D01*
Y166869D01*
X240721Y167081D01*
X288530D01*
X288982Y167269D01*
X290952Y169238D01*
X291139Y169691D01*
Y173310D01*
X290952Y173761D01*
X288982Y175732D01*
X288530Y175919D01*
X276780D01*
X276327Y175732D01*
X273956Y173360D01*
X269333D01*
X269070Y173753D01*
X269083Y173785D01*
Y174215D01*
X268918Y174613D01*
X268613Y174918D01*
X268215Y175083D01*
X267785D01*
X267387Y174918D01*
X267108Y174639D01*
X265074D01*
X263982Y175732D01*
X263530Y175919D01*
X240579D01*
Y176318D01*
X240414Y176716D01*
X240109Y177020D01*
X239711Y177185D01*
X239281D01*
X238883Y177020D01*
X238578Y176716D01*
X238413Y176318D01*
Y175887D01*
X238578Y175489D01*
X238802Y175265D01*
X238693Y174890D01*
X238681Y174872D01*
X237161D01*
X237149Y174890D01*
X237040Y175265D01*
X237264Y175489D01*
X237429Y175887D01*
Y176281D01*
X238668Y177521D01*
X238856Y177972D01*
Y179722D01*
X244105Y184971D01*
X244569Y184879D01*
X244582Y184847D01*
X244887Y184543D01*
X245285Y184378D01*
X245715D01*
X246113Y184543D01*
X246418Y184847D01*
X246583Y185245D01*
Y185676D01*
X246418Y186074D01*
X246124Y186368D01*
X246126Y186424D01*
X246216Y186762D01*
X261401D01*
X261853Y186949D01*
X262821Y187917D01*
X263215D01*
X263613Y188082D01*
X263918Y188387D01*
X263931Y188418D01*
X264395Y188510D01*
X265032Y187874D01*
Y186329D01*
X265219Y185877D01*
X266917Y184179D01*
Y183785D01*
X267082Y183387D01*
X267387Y183082D01*
X267785Y182917D01*
X268215D01*
X268613Y183082D01*
X268918Y183387D01*
X269083Y183785D01*
Y184215D01*
X268918Y184613D01*
X268613Y184918D01*
X268215Y185083D01*
X267821D01*
X266310Y186594D01*
Y188139D01*
X266123Y188591D01*
X263982Y190732D01*
X263530Y190919D01*
X246978D01*
X246827Y191282D01*
X250185Y194640D01*
X251667D01*
X251930Y194247D01*
X251917Y194215D01*
Y193785D01*
X252082Y193387D01*
X252387Y193082D01*
X252785Y192917D01*
X253215D01*
X253613Y193082D01*
X253918Y193387D01*
X254083Y193785D01*
Y194215D01*
X254070Y194247D01*
X254333Y194640D01*
X256667D01*
X256930Y194247D01*
X256917Y194215D01*
Y193785D01*
X257082Y193387D01*
X257387Y193082D01*
X257785Y192917D01*
X258215D01*
X258613Y193082D01*
X258918Y193387D01*
X259083Y193785D01*
Y194215D01*
X259070Y194247D01*
X259333Y194640D01*
X261667D01*
X261930Y194247D01*
X261917Y194215D01*
Y193785D01*
X262082Y193387D01*
X262387Y193082D01*
X262785Y192917D01*
X263215D01*
X263613Y193082D01*
X263918Y193387D01*
X264083Y193785D01*
Y194215D01*
X264070Y194247D01*
X264333Y194640D01*
X266667D01*
X266930Y194247D01*
X266917Y194215D01*
Y193785D01*
X267082Y193387D01*
X267387Y193082D01*
X267785Y192917D01*
X268215D01*
X268613Y193082D01*
X268918Y193387D01*
X269083Y193785D01*
Y194215D01*
X269070Y194247D01*
X269333Y194640D01*
X271089D01*
X271541Y194827D01*
X283452Y206738D01*
X283639Y207190D01*
Y208108D01*
X283918Y208387D01*
X284083Y208785D01*
Y209215D01*
X283918Y209613D01*
X283613Y209918D01*
X283215Y210083D01*
X282785D01*
X282387Y209918D01*
X282082Y209613D01*
X281917Y209215D01*
Y208785D01*
X282082Y208387D01*
X282361Y208108D01*
Y207455D01*
X279395Y204490D01*
X278931Y204582D01*
X278918Y204613D01*
X278613Y204918D01*
X278215Y205083D01*
X277785D01*
X277387Y204918D01*
X277082Y204613D01*
X276917Y204215D01*
Y203785D01*
X277082Y203387D01*
X277387Y203082D01*
X277418Y203069D01*
X277510Y202605D01*
X270824Y195919D01*
X263147D01*
X262996Y196282D01*
X271306Y204592D01*
X271717Y204566D01*
X271930Y204247D01*
X271917Y204215D01*
Y203785D01*
X272082Y203387D01*
X272387Y203082D01*
X272785Y202917D01*
X273215D01*
X273613Y203082D01*
X273918Y203387D01*
X274083Y203785D01*
Y204215D01*
X274070Y204247D01*
X274262Y204608D01*
X274325Y204659D01*
X274731Y204827D01*
X277821Y207917D01*
X278215D01*
X278613Y208082D01*
X278918Y208387D01*
X279083Y208785D01*
Y209215D01*
X278918Y209613D01*
X278613Y209918D01*
X278215Y210083D01*
X277785D01*
X277387Y209918D01*
X277082Y209613D01*
X276917Y209215D01*
Y208821D01*
X274015Y205919D01*
X271379D01*
X271216Y206312D01*
X272821Y207917D01*
X273215D01*
X273613Y208082D01*
X273918Y208387D01*
X274083Y208785D01*
Y209215D01*
X273918Y209613D01*
X273613Y209918D01*
X273215Y210083D01*
X272785D01*
X272387Y209918D01*
X272082Y209613D01*
X271917Y209215D01*
Y208821D01*
X269015Y205919D01*
X266379D01*
X266216Y206312D01*
X267821Y207917D01*
X268215D01*
X268613Y208082D01*
X268918Y208387D01*
X269083Y208785D01*
Y209215D01*
X268918Y209613D01*
X268613Y209918D01*
X268215Y210083D01*
X267785D01*
X267387Y209918D01*
X267082Y209613D01*
X266917Y209215D01*
Y208821D01*
X264015Y205919D01*
X261380D01*
X261216Y206312D01*
X262821Y207917D01*
X263215D01*
X263613Y208082D01*
X263918Y208387D01*
X264083Y208785D01*
Y209215D01*
X263918Y209613D01*
X263613Y209918D01*
X263215Y210083D01*
X262785D01*
X262387Y209918D01*
X262082Y209613D01*
X261917Y209215D01*
Y208821D01*
X259015Y205919D01*
X253147D01*
X252996Y206282D01*
X255074Y208361D01*
X257108D01*
X257387Y208082D01*
X257785Y207917D01*
X258215D01*
X258613Y208082D01*
X258918Y208387D01*
X259083Y208785D01*
Y209215D01*
X258918Y209613D01*
X258613Y209918D01*
X258350Y210027D01*
X258429Y210420D01*
X261869D01*
X262321Y210608D01*
X265293Y213579D01*
X265480Y214031D01*
Y220576D01*
X267821Y222917D01*
X268215D01*
X268613Y223082D01*
X268918Y223387D01*
X269083Y223785D01*
Y224215D01*
X268918Y224613D01*
X268613Y224918D01*
X268215Y225083D01*
X267785D01*
X267387Y224918D01*
X267082Y224613D01*
X266917Y224215D01*
Y223821D01*
X264388Y221292D01*
X264201Y220841D01*
Y219880D01*
X263808Y219724D01*
X263613Y219918D01*
X263215Y220083D01*
X262785D01*
X262387Y219918D01*
X262082Y219613D01*
X261917Y219215D01*
Y218785D01*
X262082Y218387D01*
X262387Y218082D01*
X262785Y217917D01*
X263215D01*
X263613Y218082D01*
X263808Y218276D01*
X264201Y218121D01*
Y214879D01*
X263808Y214724D01*
X263613Y214918D01*
X263215Y215083D01*
X262785D01*
X262387Y214918D01*
X262082Y214613D01*
X261917Y214215D01*
Y213785D01*
X262082Y213387D01*
X262387Y213082D01*
X262418Y213069D01*
X262510Y212605D01*
X261604Y211699D01*
X250160D01*
X249916Y212093D01*
X249949Y212261D01*
X250000Y212384D01*
Y215241D01*
X250028Y215265D01*
X250394Y215415D01*
X250652Y215243D01*
X250968Y215180D01*
X251092Y215128D01*
X251768D01*
X252220Y215316D01*
X253452Y216548D01*
X253639Y217000D01*
Y218108D01*
X253918Y218387D01*
X253931Y218418D01*
X254358Y218548D01*
X254375Y218541D01*
X254809Y218361D01*
X257108D01*
X257387Y218082D01*
X257785Y217917D01*
X258215D01*
X258613Y218082D01*
X258918Y218387D01*
X259083Y218785D01*
Y219215D01*
X258918Y219613D01*
X258613Y219918D01*
X258215Y220083D01*
X257785D01*
X257387Y219918D01*
X257108Y219639D01*
X255074D01*
X253080Y221633D01*
X252628Y221820D01*
X250242D01*
X250205Y221911D01*
X250142Y222228D01*
X249892Y222601D01*
X249519Y222850D01*
X249408Y223120D01*
X249467Y223209D01*
X249530Y223526D01*
X249581Y223649D01*
Y224752D01*
X249609Y224777D01*
X249975Y224927D01*
X250233Y224754D01*
X250549Y224691D01*
X250673Y224640D01*
X251667D01*
X251930Y224247D01*
X251917Y224215D01*
Y223785D01*
X252082Y223387D01*
X252387Y223082D01*
X252785Y222917D01*
X253215D01*
X253613Y223082D01*
X253918Y223387D01*
X254083Y223785D01*
Y224215D01*
X254070Y224247D01*
X254262Y224608D01*
X254325Y224659D01*
X254731Y224828D01*
X257821Y227917D01*
X258215D01*
X258613Y228082D01*
X258918Y228387D01*
X259083Y228785D01*
Y229215D01*
X258918Y229613D01*
X258613Y229918D01*
X258215Y230083D01*
X257785D01*
X257387Y229918D01*
X257082Y229613D01*
X256917Y229215D01*
Y228821D01*
X254015Y225919D01*
X250775D01*
Y227607D01*
X250724Y227730D01*
X250661Y228047D01*
X250412Y228420D01*
X250039Y228669D01*
X249722Y228732D01*
X249599Y228783D01*
X249479D01*
X249356Y228732D01*
X249039Y228669D01*
X248666Y228420D01*
X248603Y228325D01*
X248131Y228328D01*
X248024Y228488D01*
X247651Y228738D01*
X247335Y228801D01*
X247211Y228852D01*
X247092D01*
X246968Y228801D01*
X246652Y228738D01*
X246279Y228488D01*
X246194Y228362D01*
X245721D01*
X245637Y228488D01*
X245264Y228738D01*
X244947Y228801D01*
X244824Y228852D01*
X244704D01*
X244581Y228801D01*
X244264Y228738D01*
X243891Y228488D01*
X243642Y228116D01*
X243579Y227799D01*
X243528Y227675D01*
Y225919D01*
X240783D01*
X240564Y226246D01*
X240579Y226281D01*
Y226711D01*
X240414Y227109D01*
X240109Y227414D01*
X239711Y227579D01*
X239281D01*
X238883Y227414D01*
X238578Y227109D01*
X238413Y226711D01*
Y226281D01*
X238426Y226249D01*
X238163Y225856D01*
X234281D01*
X234059Y226249D01*
X234108Y226496D01*
X234039Y226845D01*
X233841Y227140D01*
X232259Y228723D01*
X231963Y228921D01*
X231614Y228990D01*
X227667D01*
X227504Y229294D01*
X227499Y229384D01*
X227556Y229671D01*
X227593Y229762D01*
X227628Y229790D01*
X227713Y229830D01*
X228001Y229927D01*
X228259Y229754D01*
X228575Y229691D01*
X228699Y229640D01*
X251456D01*
X251917Y229179D01*
Y228785D01*
X252082Y228387D01*
X252387Y228082D01*
X252785Y227917D01*
X253215D01*
X253613Y228082D01*
X253918Y228387D01*
X254083Y228785D01*
Y229215D01*
X253918Y229613D01*
X253613Y229918D01*
X253215Y230083D01*
X252821D01*
X252172Y230732D01*
X251720Y230919D01*
X241873D01*
X241710Y231312D01*
X241792Y231395D01*
X241957Y231793D01*
Y232224D01*
X241792Y232621D01*
X241488Y232926D01*
X241090Y233091D01*
X240659D01*
X240261Y232926D01*
X239957Y232621D01*
X239792Y232224D01*
Y231793D01*
X239957Y231395D01*
X240039Y231312D01*
X239876Y230919D01*
X228801D01*
Y233296D01*
X228750Y233420D01*
X228687Y233736D01*
X228437Y234109D01*
X228064Y234359D01*
X227940Y234384D01*
X227852Y234556D01*
X227834Y234730D01*
X227867Y234844D01*
X227885Y234861D01*
X251815D01*
X252022Y234467D01*
X251917Y234215D01*
Y233785D01*
X252082Y233387D01*
X252387Y233082D01*
X252785Y232917D01*
X253215D01*
X253613Y233082D01*
X253918Y233387D01*
X254083Y233785D01*
Y234215D01*
X253978Y234467D01*
X254185Y234861D01*
X256815D01*
X257022Y234467D01*
X256917Y234215D01*
Y233785D01*
X257082Y233387D01*
X257387Y233082D01*
X257785Y232917D01*
X258215D01*
X258613Y233082D01*
X258918Y233387D01*
X259083Y233785D01*
Y234215D01*
X258978Y234467D01*
X259185Y234861D01*
X261815D01*
X262022Y234467D01*
X261917Y234215D01*
Y233785D01*
X262082Y233387D01*
X262387Y233082D01*
X262785Y232917D01*
X263215D01*
X263613Y233082D01*
X263918Y233387D01*
X264083Y233785D01*
Y234215D01*
X263978Y234467D01*
X264185Y234861D01*
X264500D01*
X264952Y235048D01*
X267821Y237917D01*
X268215D01*
X268613Y238082D01*
X268918Y238387D01*
X269083Y238785D01*
Y239215D01*
X268918Y239613D01*
X268613Y239918D01*
X268215Y240083D01*
X267785D01*
X267387Y239918D01*
X267082Y239613D01*
X266917Y239215D01*
Y238821D01*
X264235Y236139D01*
X261558D01*
X261407Y236503D01*
X262821Y237917D01*
X263215D01*
X263613Y238082D01*
X263918Y238387D01*
X264083Y238785D01*
Y239215D01*
X263918Y239613D01*
X263613Y239918D01*
X263215Y240083D01*
X262785D01*
X262387Y239918D01*
X262082Y239613D01*
X261917Y239215D01*
Y238821D01*
X260235Y237139D01*
X257558D01*
X257407Y237503D01*
X257821Y237917D01*
X258215D01*
X258613Y238082D01*
X258918Y238387D01*
X259083Y238785D01*
Y239215D01*
X258918Y239613D01*
X258613Y239918D01*
X258215Y240083D01*
X257785D01*
X257387Y239918D01*
X257082Y239613D01*
X256917Y239215D01*
Y238821D01*
X256235Y238139D01*
X254185D01*
X253978Y238533D01*
X254083Y238785D01*
Y239215D01*
X253918Y239613D01*
X253613Y239918D01*
X253215Y240083D01*
X252785D01*
X252387Y239918D01*
X252108Y239639D01*
X215390D01*
X214938Y239452D01*
X209822Y234335D01*
X206912Y231426D01*
X204292Y234047D01*
X201354Y234044D01*
X201283Y234115D01*
X201118Y234513D01*
X200813Y234818D01*
X200415Y234983D01*
X199985D01*
X199587Y234818D01*
X199282Y234513D01*
X199117Y234115D01*
Y234042D01*
X197599Y234041D01*
X197320Y234319D01*
Y237520D01*
X197133Y237972D01*
X191702Y243402D01*
X189052Y246052D01*
X183559Y251546D01*
Y251940D01*
X183394Y252338D01*
X183090Y252642D01*
X182692Y252807D01*
D02*
G37*
G36*
X293215Y235083D02*
X292785D01*
X292387Y234918D01*
X292082Y234613D01*
X291917Y234215D01*
Y233785D01*
X292082Y233387D01*
X292387Y233082D01*
X292785Y232917D01*
X293215D01*
X293613Y233082D01*
X293918Y233387D01*
X294083Y233785D01*
Y234215D01*
X293918Y234613D01*
X293613Y234918D01*
X293215Y235083D01*
D02*
G37*
G36*
X288215D02*
X287785D01*
X287387Y234918D01*
X287082Y234613D01*
X286917Y234215D01*
Y233785D01*
X287082Y233387D01*
X287387Y233082D01*
X287785Y232917D01*
X288215D01*
X288613Y233082D01*
X288918Y233387D01*
X289083Y233785D01*
Y234215D01*
X288918Y234613D01*
X288613Y234918D01*
X288215Y235083D01*
D02*
G37*
G36*
X283215D02*
X282785D01*
X282387Y234918D01*
X282082Y234613D01*
X281917Y234215D01*
Y233785D01*
X282082Y233387D01*
X282387Y233082D01*
X282785Y232917D01*
X283215D01*
X283613Y233082D01*
X283918Y233387D01*
X284083Y233785D01*
Y234215D01*
X283918Y234613D01*
X283613Y234918D01*
X283215Y235083D01*
D02*
G37*
G36*
X278215D02*
X277785D01*
X277387Y234918D01*
X277082Y234613D01*
X276917Y234215D01*
Y233785D01*
X277082Y233387D01*
X277387Y233082D01*
X277785Y232917D01*
X278215D01*
X278613Y233082D01*
X278918Y233387D01*
X279083Y233785D01*
Y234215D01*
X278918Y234613D01*
X278613Y234918D01*
X278215Y235083D01*
D02*
G37*
G36*
X273215D02*
X272785D01*
X272387Y234918D01*
X272082Y234613D01*
X271917Y234215D01*
Y233785D01*
X272082Y233387D01*
X272387Y233082D01*
X272785Y232917D01*
X273215D01*
X273613Y233082D01*
X273918Y233387D01*
X274083Y233785D01*
Y234215D01*
X273918Y234613D01*
X273613Y234918D01*
X273215Y235083D01*
D02*
G37*
G36*
X268215D02*
X267785D01*
X267387Y234918D01*
X267082Y234613D01*
X266917Y234215D01*
Y233785D01*
X267082Y233387D01*
X267387Y233082D01*
X267785Y232917D01*
X268215D01*
X268613Y233082D01*
X268918Y233387D01*
X269083Y233785D01*
Y234215D01*
X268918Y234613D01*
X268613Y234918D01*
X268215Y235083D01*
D02*
G37*
G36*
X298215Y230083D02*
X297785D01*
X297387Y229918D01*
X297082Y229613D01*
X296917Y229215D01*
Y228785D01*
X297082Y228387D01*
X297387Y228082D01*
X297785Y227917D01*
X298215D01*
X298613Y228082D01*
X298918Y228387D01*
X299083Y228785D01*
Y229215D01*
X298918Y229613D01*
X298613Y229918D01*
X298215Y230083D01*
D02*
G37*
G36*
X293215D02*
X292785D01*
X292387Y229918D01*
X292082Y229613D01*
X291917Y229215D01*
Y228785D01*
X292082Y228387D01*
X292387Y228082D01*
X292785Y227917D01*
X293215D01*
X293613Y228082D01*
X293918Y228387D01*
X294083Y228785D01*
Y229215D01*
X293918Y229613D01*
X293613Y229918D01*
X293215Y230083D01*
D02*
G37*
G36*
X288215D02*
X287785D01*
X287387Y229918D01*
X287082Y229613D01*
X286917Y229215D01*
Y228785D01*
X287082Y228387D01*
X287387Y228082D01*
X287785Y227917D01*
X288215D01*
X288613Y228082D01*
X288918Y228387D01*
X289083Y228785D01*
Y229215D01*
X288918Y229613D01*
X288613Y229918D01*
X288215Y230083D01*
D02*
G37*
G36*
X283215D02*
X282785D01*
X282387Y229918D01*
X282082Y229613D01*
X281917Y229215D01*
Y228785D01*
X282082Y228387D01*
X282387Y228082D01*
X282785Y227917D01*
X283215D01*
X283613Y228082D01*
X283918Y228387D01*
X284083Y228785D01*
Y229215D01*
X283918Y229613D01*
X283613Y229918D01*
X283215Y230083D01*
D02*
G37*
G36*
X263215D02*
X262785D01*
X262387Y229918D01*
X262082Y229613D01*
X261917Y229215D01*
Y228785D01*
X262082Y228387D01*
X262387Y228082D01*
X262785Y227917D01*
X263215D01*
X263613Y228082D01*
X263918Y228387D01*
X264083Y228785D01*
Y229215D01*
X263918Y229613D01*
X263613Y229918D01*
X263215Y230083D01*
D02*
G37*
G36*
X122515Y226268D02*
X122085D01*
X121687Y226103D01*
X121382Y225798D01*
X121217Y225400D01*
Y224970D01*
X121382Y224572D01*
X121687Y224267D01*
X122085Y224102D01*
X122515D01*
X122913Y224267D01*
X123218Y224572D01*
X123383Y224970D01*
Y225400D01*
X123218Y225798D01*
X122913Y226103D01*
X122515Y226268D01*
D02*
G37*
G36*
X298215Y225083D02*
X297785D01*
X297387Y224918D01*
X297082Y224613D01*
X296917Y224215D01*
Y223785D01*
X297082Y223387D01*
X297387Y223082D01*
X297785Y222917D01*
X298215D01*
X298613Y223082D01*
X298918Y223387D01*
X299083Y223785D01*
Y224215D01*
X298918Y224613D01*
X298613Y224918D01*
X298215Y225083D01*
D02*
G37*
G36*
X293215D02*
X292785D01*
X292387Y224918D01*
X292082Y224613D01*
X291917Y224215D01*
Y223785D01*
X292082Y223387D01*
X292387Y223082D01*
X292785Y222917D01*
X293215D01*
X293613Y223082D01*
X293918Y223387D01*
X294083Y223785D01*
Y224215D01*
X293918Y224613D01*
X293613Y224918D01*
X293215Y225083D01*
D02*
G37*
G36*
X288215D02*
X287785D01*
X287387Y224918D01*
X287082Y224613D01*
X286917Y224215D01*
Y223785D01*
X287082Y223387D01*
X287387Y223082D01*
X287785Y222917D01*
X288215D01*
X288613Y223082D01*
X288918Y223387D01*
X289083Y223785D01*
Y224215D01*
X288918Y224613D01*
X288613Y224918D01*
X288215Y225083D01*
D02*
G37*
G36*
X278215D02*
X277785D01*
X277387Y224918D01*
X277082Y224613D01*
X276917Y224215D01*
Y223785D01*
X277082Y223387D01*
X277387Y223082D01*
X277785Y222917D01*
X278215D01*
X278613Y223082D01*
X278918Y223387D01*
X279083Y223785D01*
Y224215D01*
X278918Y224613D01*
X278613Y224918D01*
X278215Y225083D01*
D02*
G37*
G36*
X273215D02*
X272785D01*
X272387Y224918D01*
X272082Y224613D01*
X271917Y224215D01*
Y223785D01*
X272082Y223387D01*
X272387Y223082D01*
X272785Y222917D01*
X273215D01*
X273613Y223082D01*
X273918Y223387D01*
X274083Y223785D01*
Y224215D01*
X273918Y224613D01*
X273613Y224918D01*
X273215Y225083D01*
D02*
G37*
G36*
X263215D02*
X262785D01*
X262387Y224918D01*
X262082Y224613D01*
X261917Y224215D01*
Y223785D01*
X262082Y223387D01*
X262387Y223082D01*
X262785Y222917D01*
X263215D01*
X263613Y223082D01*
X263918Y223387D01*
X264083Y223785D01*
Y224215D01*
X263918Y224613D01*
X263613Y224918D01*
X263215Y225083D01*
D02*
G37*
G36*
X258215D02*
X257785D01*
X257387Y224918D01*
X257082Y224613D01*
X256917Y224215D01*
Y223785D01*
X257082Y223387D01*
X257387Y223082D01*
X257785Y222917D01*
X258215D01*
X258613Y223082D01*
X258918Y223387D01*
X259083Y223785D01*
Y224215D01*
X258918Y224613D01*
X258613Y224918D01*
X258215Y225083D01*
D02*
G37*
G36*
X298215Y220083D02*
X297785D01*
X297387Y219918D01*
X297082Y219613D01*
X296917Y219215D01*
Y218785D01*
X297082Y218387D01*
X297387Y218082D01*
X297785Y217917D01*
X298215D01*
X298613Y218082D01*
X298918Y218387D01*
X299083Y218785D01*
Y219215D01*
X298918Y219613D01*
X298613Y219918D01*
X298215Y220083D01*
D02*
G37*
G36*
X293215D02*
X292785D01*
X292387Y219918D01*
X292082Y219613D01*
X291917Y219215D01*
Y218785D01*
X292082Y218387D01*
X292387Y218082D01*
X292785Y217917D01*
X293215D01*
X293613Y218082D01*
X293918Y218387D01*
X294083Y218785D01*
Y219215D01*
X293918Y219613D01*
X293613Y219918D01*
X293215Y220083D01*
D02*
G37*
G36*
X288215D02*
X287785D01*
X287387Y219918D01*
X287082Y219613D01*
X286917Y219215D01*
Y218785D01*
X287082Y218387D01*
X287387Y218082D01*
X287785Y217917D01*
X288215D01*
X288613Y218082D01*
X288918Y218387D01*
X289083Y218785D01*
Y219215D01*
X288918Y219613D01*
X288613Y219918D01*
X288215Y220083D01*
D02*
G37*
G36*
X278215D02*
X277785D01*
X277387Y219918D01*
X277082Y219613D01*
X276917Y219215D01*
Y218785D01*
X277082Y218387D01*
X277387Y218082D01*
X277785Y217917D01*
X278215D01*
X278613Y218082D01*
X278918Y218387D01*
X279083Y218785D01*
Y219215D01*
X278918Y219613D01*
X278613Y219918D01*
X278215Y220083D01*
D02*
G37*
G36*
X273215D02*
X272785D01*
X272387Y219918D01*
X272082Y219613D01*
X271917Y219215D01*
Y218785D01*
X272082Y218387D01*
X272387Y218082D01*
X272785Y217917D01*
X273215D01*
X273613Y218082D01*
X273918Y218387D01*
X274083Y218785D01*
Y219215D01*
X273918Y219613D01*
X273613Y219918D01*
X273215Y220083D01*
D02*
G37*
G36*
X268215D02*
X267785D01*
X267387Y219918D01*
X267082Y219613D01*
X266917Y219215D01*
Y218785D01*
X267082Y218387D01*
X267387Y218082D01*
X267785Y217917D01*
X268215D01*
X268613Y218082D01*
X268918Y218387D01*
X269083Y218785D01*
Y219215D01*
X268918Y219613D01*
X268613Y219918D01*
X268215Y220083D01*
D02*
G37*
G36*
X123975Y219443D02*
X123545D01*
X123147Y219278D01*
X122842Y218973D01*
X122677Y218576D01*
Y218145D01*
X122842Y217747D01*
X123147Y217442D01*
X123545Y217278D01*
X123975D01*
X124373Y217442D01*
X124678Y217747D01*
X124843Y218145D01*
Y218576D01*
X124678Y218973D01*
X124373Y219278D01*
X123975Y219443D01*
D02*
G37*
G36*
X298215Y215083D02*
X297785D01*
X297387Y214918D01*
X297082Y214613D01*
X296917Y214215D01*
Y213785D01*
X297082Y213387D01*
X297387Y213082D01*
X297785Y212917D01*
X298215D01*
X298613Y213082D01*
X298918Y213387D01*
X299083Y213785D01*
Y214215D01*
X298918Y214613D01*
X298613Y214918D01*
X298215Y215083D01*
D02*
G37*
G36*
X293215D02*
X292785D01*
X292387Y214918D01*
X292082Y214613D01*
X291917Y214215D01*
Y213785D01*
X292082Y213387D01*
X292387Y213082D01*
X292785Y212917D01*
X293215D01*
X293613Y213082D01*
X293918Y213387D01*
X294083Y213785D01*
Y214215D01*
X293918Y214613D01*
X293613Y214918D01*
X293215Y215083D01*
D02*
G37*
G36*
X288215D02*
X287785D01*
X287387Y214918D01*
X287082Y214613D01*
X286917Y214215D01*
Y213785D01*
X287082Y213387D01*
X287387Y213082D01*
X287785Y212917D01*
X288215D01*
X288613Y213082D01*
X288918Y213387D01*
X289083Y213785D01*
Y214215D01*
X288918Y214613D01*
X288613Y214918D01*
X288215Y215083D01*
D02*
G37*
G36*
X283215D02*
X282785D01*
X282387Y214918D01*
X282082Y214613D01*
X281917Y214215D01*
Y213785D01*
X282082Y213387D01*
X282387Y213082D01*
X282785Y212917D01*
X283215D01*
X283613Y213082D01*
X283918Y213387D01*
X284083Y213785D01*
Y214215D01*
X283918Y214613D01*
X283613Y214918D01*
X283215Y215083D01*
D02*
G37*
G36*
X278215D02*
X277785D01*
X277387Y214918D01*
X277082Y214613D01*
X276917Y214215D01*
Y213785D01*
X277082Y213387D01*
X277387Y213082D01*
X277785Y212917D01*
X278215D01*
X278613Y213082D01*
X278918Y213387D01*
X279083Y213785D01*
Y214215D01*
X278918Y214613D01*
X278613Y214918D01*
X278215Y215083D01*
D02*
G37*
G36*
X273215D02*
X272785D01*
X272387Y214918D01*
X272082Y214613D01*
X271917Y214215D01*
Y213785D01*
X272082Y213387D01*
X272387Y213082D01*
X272785Y212917D01*
X273215D01*
X273613Y213082D01*
X273918Y213387D01*
X274083Y213785D01*
Y214215D01*
X273918Y214613D01*
X273613Y214918D01*
X273215Y215083D01*
D02*
G37*
G36*
X268215D02*
X267785D01*
X267387Y214918D01*
X267082Y214613D01*
X266917Y214215D01*
Y213785D01*
X267082Y213387D01*
X267387Y213082D01*
X267785Y212917D01*
X268215D01*
X268613Y213082D01*
X268918Y213387D01*
X269083Y213785D01*
Y214215D01*
X268918Y214613D01*
X268613Y214918D01*
X268215Y215083D01*
D02*
G37*
G36*
X258215D02*
X257785D01*
X257387Y214918D01*
X257082Y214613D01*
X256917Y214215D01*
Y213785D01*
X257082Y213387D01*
X257387Y213082D01*
X257785Y212917D01*
X258215D01*
X258613Y213082D01*
X258918Y213387D01*
X259083Y213785D01*
Y214215D01*
X258918Y214613D01*
X258613Y214918D01*
X258215Y215083D01*
D02*
G37*
G36*
X253215D02*
X252785D01*
X252387Y214918D01*
X252082Y214613D01*
X251917Y214215D01*
Y213785D01*
X252082Y213387D01*
X252387Y213082D01*
X252785Y212917D01*
X253215D01*
X253613Y213082D01*
X253918Y213387D01*
X254083Y213785D01*
Y214215D01*
X253918Y214613D01*
X253613Y214918D01*
X253215Y215083D01*
D02*
G37*
G36*
X288215Y210083D02*
X287785D01*
X287387Y209918D01*
X287082Y209613D01*
X286917Y209215D01*
Y208785D01*
X287082Y208387D01*
X287387Y208082D01*
X287785Y207917D01*
X288215D01*
X288613Y208082D01*
X288918Y208387D01*
X289083Y208785D01*
Y209215D01*
X288918Y209613D01*
X288613Y209918D01*
X288215Y210083D01*
D02*
G37*
G36*
X298215Y200083D02*
X297785D01*
X297387Y199918D01*
X297082Y199613D01*
X296917Y199215D01*
Y198785D01*
X297082Y198387D01*
X297387Y198082D01*
X297785Y197917D01*
X298215D01*
X298613Y198082D01*
X298918Y198387D01*
X299083Y198785D01*
Y199215D01*
X298918Y199613D01*
X298613Y199918D01*
X298215Y200083D01*
D02*
G37*
G36*
X293215D02*
X292785D01*
X292387Y199918D01*
X292082Y199613D01*
X291917Y199215D01*
Y198785D01*
X292082Y198387D01*
X292387Y198082D01*
X292785Y197917D01*
X293215D01*
X293613Y198082D01*
X293918Y198387D01*
X294083Y198785D01*
Y199215D01*
X293918Y199613D01*
X293613Y199918D01*
X293215Y200083D01*
D02*
G37*
G36*
X288215D02*
X287785D01*
X287387Y199918D01*
X287082Y199613D01*
X286917Y199215D01*
Y198785D01*
X287082Y198387D01*
X287387Y198082D01*
X287785Y197917D01*
X288215D01*
X288613Y198082D01*
X288918Y198387D01*
X289083Y198785D01*
Y199215D01*
X288918Y199613D01*
X288613Y199918D01*
X288215Y200083D01*
D02*
G37*
G36*
X283215D02*
X282785D01*
X282387Y199918D01*
X282082Y199613D01*
X281917Y199215D01*
Y198785D01*
X282082Y198387D01*
X282387Y198082D01*
X282785Y197917D01*
X283215D01*
X283613Y198082D01*
X283918Y198387D01*
X284083Y198785D01*
Y199215D01*
X283918Y199613D01*
X283613Y199918D01*
X283215Y200083D01*
D02*
G37*
G36*
X298215Y195083D02*
X297785D01*
X297387Y194918D01*
X297082Y194613D01*
X296917Y194215D01*
Y193785D01*
X297082Y193387D01*
X297387Y193082D01*
X297785Y192917D01*
X298215D01*
X298613Y193082D01*
X298918Y193387D01*
X299083Y193785D01*
Y194215D01*
X298918Y194613D01*
X298613Y194918D01*
X298215Y195083D01*
D02*
G37*
G36*
X293215D02*
X292785D01*
X292387Y194918D01*
X292082Y194613D01*
X291917Y194215D01*
Y193785D01*
X292082Y193387D01*
X292387Y193082D01*
X292785Y192917D01*
X293215D01*
X293613Y193082D01*
X293918Y193387D01*
X294083Y193785D01*
Y194215D01*
X293918Y194613D01*
X293613Y194918D01*
X293215Y195083D01*
D02*
G37*
G36*
X288215D02*
X287785D01*
X287387Y194918D01*
X287082Y194613D01*
X286917Y194215D01*
Y193785D01*
X287082Y193387D01*
X287387Y193082D01*
X287785Y192917D01*
X288215D01*
X288613Y193082D01*
X288918Y193387D01*
X289083Y193785D01*
Y194215D01*
X288918Y194613D01*
X288613Y194918D01*
X288215Y195083D01*
D02*
G37*
G36*
X283215D02*
X282785D01*
X282387Y194918D01*
X282082Y194613D01*
X281917Y194215D01*
Y193785D01*
X282082Y193387D01*
X282387Y193082D01*
X282785Y192917D01*
X283215D01*
X283613Y193082D01*
X283918Y193387D01*
X284083Y193785D01*
Y194215D01*
X283918Y194613D01*
X283613Y194918D01*
X283215Y195083D01*
D02*
G37*
G36*
X278215D02*
X277785D01*
X277387Y194918D01*
X277082Y194613D01*
X276917Y194215D01*
Y193785D01*
X277082Y193387D01*
X277387Y193082D01*
X277785Y192917D01*
X278215D01*
X278613Y193082D01*
X278918Y193387D01*
X279083Y193785D01*
Y194215D01*
X278918Y194613D01*
X278613Y194918D01*
X278215Y195083D01*
D02*
G37*
G36*
X273215D02*
X272785D01*
X272387Y194918D01*
X272082Y194613D01*
X271917Y194215D01*
Y193785D01*
X272082Y193387D01*
X272387Y193082D01*
X272785Y192917D01*
X273215D01*
X273613Y193082D01*
X273918Y193387D01*
X274083Y193785D01*
Y194215D01*
X273918Y194613D01*
X273613Y194918D01*
X273215Y195083D01*
D02*
G37*
G36*
X298215Y190083D02*
X297785D01*
X297387Y189918D01*
X297082Y189613D01*
X296917Y189215D01*
Y188785D01*
X297082Y188387D01*
X297387Y188082D01*
X297785Y187917D01*
X298215D01*
X298613Y188082D01*
X298918Y188387D01*
X299083Y188785D01*
Y189215D01*
X298918Y189613D01*
X298613Y189918D01*
X298215Y190083D01*
D02*
G37*
G36*
X293215D02*
X292785D01*
X292387Y189918D01*
X292082Y189613D01*
X291917Y189215D01*
Y188785D01*
X292082Y188387D01*
X292387Y188082D01*
X292785Y187917D01*
X293215D01*
X293613Y188082D01*
X293918Y188387D01*
X294083Y188785D01*
Y189215D01*
X293918Y189613D01*
X293613Y189918D01*
X293215Y190083D01*
D02*
G37*
G36*
X288215D02*
X287785D01*
X287387Y189918D01*
X287082Y189613D01*
X286917Y189215D01*
Y188785D01*
X287082Y188387D01*
X287387Y188082D01*
X287785Y187917D01*
X288215D01*
X288613Y188082D01*
X288918Y188387D01*
X289083Y188785D01*
Y189215D01*
X288918Y189613D01*
X288613Y189918D01*
X288215Y190083D01*
D02*
G37*
G36*
X283215D02*
X282785D01*
X282387Y189918D01*
X282082Y189613D01*
X281917Y189215D01*
Y188785D01*
X282082Y188387D01*
X282387Y188082D01*
X282785Y187917D01*
X283215D01*
X283613Y188082D01*
X283918Y188387D01*
X284083Y188785D01*
Y189215D01*
X283918Y189613D01*
X283613Y189918D01*
X283215Y190083D01*
D02*
G37*
G36*
X278215D02*
X277785D01*
X277387Y189918D01*
X277082Y189613D01*
X276917Y189215D01*
Y188785D01*
X277082Y188387D01*
X277387Y188082D01*
X277785Y187917D01*
X278215D01*
X278613Y188082D01*
X278918Y188387D01*
X279083Y188785D01*
Y189215D01*
X278918Y189613D01*
X278613Y189918D01*
X278215Y190083D01*
D02*
G37*
G36*
X273215D02*
X272785D01*
X272387Y189918D01*
X272082Y189613D01*
X271917Y189215D01*
Y188785D01*
X272082Y188387D01*
X272387Y188082D01*
X272785Y187917D01*
X273215D01*
X273613Y188082D01*
X273918Y188387D01*
X274083Y188785D01*
Y189215D01*
X273918Y189613D01*
X273613Y189918D01*
X273215Y190083D01*
D02*
G37*
G36*
X268215D02*
X267785D01*
X267387Y189918D01*
X267082Y189613D01*
X266917Y189215D01*
Y188785D01*
X267082Y188387D01*
X267387Y188082D01*
X267785Y187917D01*
X268215D01*
X268613Y188082D01*
X268918Y188387D01*
X269083Y188785D01*
Y189215D01*
X268918Y189613D01*
X268613Y189918D01*
X268215Y190083D01*
D02*
G37*
G36*
X298215Y185083D02*
X297785D01*
X297387Y184918D01*
X297082Y184613D01*
X296917Y184215D01*
Y183785D01*
X297082Y183387D01*
X297387Y183082D01*
X297785Y182917D01*
X298215D01*
X298613Y183082D01*
X298918Y183387D01*
X299083Y183785D01*
Y184215D01*
X298918Y184613D01*
X298613Y184918D01*
X298215Y185083D01*
D02*
G37*
G36*
X293215D02*
X292785D01*
X292387Y184918D01*
X292082Y184613D01*
X291917Y184215D01*
Y183785D01*
X292082Y183387D01*
X292387Y183082D01*
X292785Y182917D01*
X293215D01*
X293613Y183082D01*
X293918Y183387D01*
X294083Y183785D01*
Y184215D01*
X293918Y184613D01*
X293613Y184918D01*
X293215Y185083D01*
D02*
G37*
G36*
X288215D02*
X287785D01*
X287387Y184918D01*
X287082Y184613D01*
X286917Y184215D01*
Y183785D01*
X287082Y183387D01*
X287387Y183082D01*
X287785Y182917D01*
X288215D01*
X288613Y183082D01*
X288918Y183387D01*
X289083Y183785D01*
Y184215D01*
X288918Y184613D01*
X288613Y184918D01*
X288215Y185083D01*
D02*
G37*
G36*
X283215D02*
X282785D01*
X282387Y184918D01*
X282082Y184613D01*
X281917Y184215D01*
Y183785D01*
X282082Y183387D01*
X282387Y183082D01*
X282785Y182917D01*
X283215D01*
X283613Y183082D01*
X283918Y183387D01*
X284083Y183785D01*
Y184215D01*
X283918Y184613D01*
X283613Y184918D01*
X283215Y185083D01*
D02*
G37*
G36*
X278215D02*
X277785D01*
X277387Y184918D01*
X277082Y184613D01*
X276917Y184215D01*
Y183785D01*
X277082Y183387D01*
X277387Y183082D01*
X277785Y182917D01*
X278215D01*
X278613Y183082D01*
X278918Y183387D01*
X279083Y183785D01*
Y184215D01*
X278918Y184613D01*
X278613Y184918D01*
X278215Y185083D01*
D02*
G37*
G36*
X273215D02*
X272785D01*
X272387Y184918D01*
X272082Y184613D01*
X271917Y184215D01*
Y183785D01*
X272082Y183387D01*
X272387Y183082D01*
X272785Y182917D01*
X273215D01*
X273613Y183082D01*
X273918Y183387D01*
X274083Y183785D01*
Y184215D01*
X273918Y184613D01*
X273613Y184918D01*
X273215Y185083D01*
D02*
G37*
G36*
X263215D02*
X262785D01*
X262387Y184918D01*
X262082Y184613D01*
X261917Y184215D01*
Y183785D01*
X262082Y183387D01*
X262387Y183082D01*
X262785Y182917D01*
X263215D01*
X263613Y183082D01*
X263918Y183387D01*
X264083Y183785D01*
Y184215D01*
X263918Y184613D01*
X263613Y184918D01*
X263215Y185083D01*
D02*
G37*
G36*
X258215D02*
X257785D01*
X257387Y184918D01*
X257082Y184613D01*
X256917Y184215D01*
Y183785D01*
X257082Y183387D01*
X257387Y183082D01*
X257785Y182917D01*
X258215D01*
X258613Y183082D01*
X258918Y183387D01*
X259083Y183785D01*
Y184215D01*
X258918Y184613D01*
X258613Y184918D01*
X258215Y185083D01*
D02*
G37*
G36*
X253215D02*
X252785D01*
X252387Y184918D01*
X252082Y184613D01*
X251917Y184215D01*
Y183785D01*
X252082Y183387D01*
X252387Y183082D01*
X252785Y182917D01*
X253215D01*
X253613Y183082D01*
X253918Y183387D01*
X254083Y183785D01*
Y184215D01*
X253918Y184613D01*
X253613Y184918D01*
X253215Y185083D01*
D02*
G37*
G36*
X298215Y180083D02*
X297785D01*
X297387Y179918D01*
X297082Y179613D01*
X296917Y179215D01*
Y178785D01*
X297082Y178387D01*
X297387Y178082D01*
X297785Y177917D01*
X298215D01*
X298613Y178082D01*
X298918Y178387D01*
X299083Y178785D01*
Y179215D01*
X298918Y179613D01*
X298613Y179918D01*
X298215Y180083D01*
D02*
G37*
G36*
X293215D02*
X292785D01*
X292387Y179918D01*
X292082Y179613D01*
X291917Y179215D01*
Y178785D01*
X292082Y178387D01*
X292387Y178082D01*
X292785Y177917D01*
X293215D01*
X293613Y178082D01*
X293918Y178387D01*
X294083Y178785D01*
Y179215D01*
X293918Y179613D01*
X293613Y179918D01*
X293215Y180083D01*
D02*
G37*
G36*
X288215D02*
X287785D01*
X287387Y179918D01*
X287082Y179613D01*
X286917Y179215D01*
Y178785D01*
X287082Y178387D01*
X287387Y178082D01*
X287785Y177917D01*
X288215D01*
X288613Y178082D01*
X288918Y178387D01*
X289083Y178785D01*
Y179215D01*
X288918Y179613D01*
X288613Y179918D01*
X288215Y180083D01*
D02*
G37*
G36*
X283215D02*
X282785D01*
X282387Y179918D01*
X282082Y179613D01*
X281917Y179215D01*
Y178785D01*
X282082Y178387D01*
X282387Y178082D01*
X282785Y177917D01*
X283215D01*
X283613Y178082D01*
X283918Y178387D01*
X284083Y178785D01*
Y179215D01*
X283918Y179613D01*
X283613Y179918D01*
X283215Y180083D01*
D02*
G37*
G36*
X278215D02*
X277785D01*
X277387Y179918D01*
X277082Y179613D01*
X276917Y179215D01*
Y178785D01*
X277082Y178387D01*
X277387Y178082D01*
X277785Y177917D01*
X278215D01*
X278613Y178082D01*
X278918Y178387D01*
X279083Y178785D01*
Y179215D01*
X278918Y179613D01*
X278613Y179918D01*
X278215Y180083D01*
D02*
G37*
G36*
X273215D02*
X272785D01*
X272387Y179918D01*
X272082Y179613D01*
X271917Y179215D01*
Y178785D01*
X272082Y178387D01*
X272387Y178082D01*
X272785Y177917D01*
X273215D01*
X273613Y178082D01*
X273918Y178387D01*
X274083Y178785D01*
Y179215D01*
X273918Y179613D01*
X273613Y179918D01*
X273215Y180083D01*
D02*
G37*
G36*
X268215D02*
X267785D01*
X267387Y179918D01*
X267082Y179613D01*
X266917Y179215D01*
Y178785D01*
X267082Y178387D01*
X267387Y178082D01*
X267785Y177917D01*
X268215D01*
X268613Y178082D01*
X268918Y178387D01*
X269083Y178785D01*
Y179215D01*
X268918Y179613D01*
X268613Y179918D01*
X268215Y180083D01*
D02*
G37*
G36*
X263215D02*
X262785D01*
X262387Y179918D01*
X262082Y179613D01*
X261917Y179215D01*
Y178785D01*
X262082Y178387D01*
X262387Y178082D01*
X262785Y177917D01*
X263215D01*
X263613Y178082D01*
X263918Y178387D01*
X264083Y178785D01*
Y179215D01*
X263918Y179613D01*
X263613Y179918D01*
X263215Y180083D01*
D02*
G37*
G36*
X258215D02*
X257785D01*
X257387Y179918D01*
X257082Y179613D01*
X256917Y179215D01*
Y178785D01*
X257082Y178387D01*
X257387Y178082D01*
X257785Y177917D01*
X258215D01*
X258613Y178082D01*
X258918Y178387D01*
X259083Y178785D01*
Y179215D01*
X258918Y179613D01*
X258613Y179918D01*
X258215Y180083D01*
D02*
G37*
G36*
X253215D02*
X252785D01*
X252387Y179918D01*
X252082Y179613D01*
X251917Y179215D01*
Y178785D01*
X252082Y178387D01*
X252387Y178082D01*
X252785Y177917D01*
X253215D01*
X253613Y178082D01*
X253918Y178387D01*
X254083Y178785D01*
Y179215D01*
X253918Y179613D01*
X253613Y179918D01*
X253215Y180083D01*
D02*
G37*
G36*
X298215Y175083D02*
X297785D01*
X297387Y174918D01*
X297082Y174613D01*
X296917Y174215D01*
Y173785D01*
X297082Y173387D01*
X297387Y173082D01*
X297785Y172917D01*
X298215D01*
X298613Y173082D01*
X298918Y173387D01*
X299083Y173785D01*
Y174215D01*
X298918Y174613D01*
X298613Y174918D01*
X298215Y175083D01*
D02*
G37*
G36*
X293215D02*
X292785D01*
X292387Y174918D01*
X292082Y174613D01*
X291917Y174215D01*
Y173785D01*
X292082Y173387D01*
X292387Y173082D01*
X292785Y172917D01*
X293215D01*
X293613Y173082D01*
X293918Y173387D01*
X294083Y173785D01*
Y174215D01*
X293918Y174613D01*
X293613Y174918D01*
X293215Y175083D01*
D02*
G37*
G36*
X298215Y170083D02*
X297785D01*
X297387Y169918D01*
X297082Y169613D01*
X296917Y169215D01*
Y168785D01*
X297082Y168387D01*
X297387Y168082D01*
X297785Y167917D01*
X298215D01*
X298613Y168082D01*
X298918Y168387D01*
X299083Y168785D01*
Y169215D01*
X298918Y169613D01*
X298613Y169918D01*
X298215Y170083D01*
D02*
G37*
G36*
X293215D02*
X292785D01*
X292387Y169918D01*
X292082Y169613D01*
X291917Y169215D01*
Y168785D01*
X292082Y168387D01*
X292387Y168082D01*
X292785Y167917D01*
X293215D01*
X293613Y168082D01*
X293918Y168387D01*
X294083Y168785D01*
Y169215D01*
X293918Y169613D01*
X293613Y169918D01*
X293215Y170083D01*
D02*
G37*
G36*
X298215Y160083D02*
X297785D01*
X297387Y159918D01*
X297082Y159613D01*
X296917Y159215D01*
Y158785D01*
X297082Y158387D01*
X297387Y158082D01*
X297785Y157917D01*
X298215D01*
X298613Y158082D01*
X298918Y158387D01*
X299083Y158785D01*
Y159215D01*
X298918Y159613D01*
X298613Y159918D01*
X298215Y160083D01*
D02*
G37*
G36*
X293215D02*
X292785D01*
X292387Y159918D01*
X292082Y159613D01*
X291917Y159215D01*
Y158785D01*
X292082Y158387D01*
X292387Y158082D01*
X292785Y157917D01*
X293215D01*
X293613Y158082D01*
X293918Y158387D01*
X294083Y158785D01*
Y159215D01*
X293918Y159613D01*
X293613Y159918D01*
X293215Y160083D01*
D02*
G37*
G36*
X288215D02*
X287785D01*
X287387Y159918D01*
X287082Y159613D01*
X286917Y159215D01*
Y158785D01*
X287082Y158387D01*
X287387Y158082D01*
X287785Y157917D01*
X288215D01*
X288613Y158082D01*
X288918Y158387D01*
X289083Y158785D01*
Y159215D01*
X288918Y159613D01*
X288613Y159918D01*
X288215Y160083D01*
D02*
G37*
G36*
X283215D02*
X282785D01*
X282387Y159918D01*
X282082Y159613D01*
X281917Y159215D01*
Y158785D01*
X282082Y158387D01*
X282387Y158082D01*
X282785Y157917D01*
X283215D01*
X283613Y158082D01*
X283918Y158387D01*
X284083Y158785D01*
Y159215D01*
X283918Y159613D01*
X283613Y159918D01*
X283215Y160083D01*
D02*
G37*
G36*
X278215D02*
X277785D01*
X277387Y159918D01*
X277082Y159613D01*
X276917Y159215D01*
Y158785D01*
X277082Y158387D01*
X277387Y158082D01*
X277785Y157917D01*
X278215D01*
X278613Y158082D01*
X278918Y158387D01*
X279083Y158785D01*
Y159215D01*
X278918Y159613D01*
X278613Y159918D01*
X278215Y160083D01*
D02*
G37*
G36*
X298215Y155083D02*
X297785D01*
X297387Y154918D01*
X297082Y154613D01*
X296917Y154215D01*
Y153785D01*
X297082Y153387D01*
X297387Y153082D01*
X297785Y152917D01*
X298215D01*
X298613Y153082D01*
X298918Y153387D01*
X299083Y153785D01*
Y154215D01*
X298918Y154613D01*
X298613Y154918D01*
X298215Y155083D01*
D02*
G37*
G36*
X293215D02*
X292785D01*
X292387Y154918D01*
X292082Y154613D01*
X291917Y154215D01*
Y153785D01*
X292082Y153387D01*
X292387Y153082D01*
X292785Y152917D01*
X293215D01*
X293613Y153082D01*
X293918Y153387D01*
X294083Y153785D01*
Y154215D01*
X293918Y154613D01*
X293613Y154918D01*
X293215Y155083D01*
D02*
G37*
G36*
X288215D02*
X287785D01*
X287387Y154918D01*
X287082Y154613D01*
X286917Y154215D01*
Y153785D01*
X287082Y153387D01*
X287387Y153082D01*
X287785Y152917D01*
X288215D01*
X288613Y153082D01*
X288918Y153387D01*
X289083Y153785D01*
Y154215D01*
X288918Y154613D01*
X288613Y154918D01*
X288215Y155083D01*
D02*
G37*
G36*
X283215D02*
X282785D01*
X282387Y154918D01*
X282082Y154613D01*
X281917Y154215D01*
Y153785D01*
X282082Y153387D01*
X282387Y153082D01*
X282785Y152917D01*
X283215D01*
X283613Y153082D01*
X283918Y153387D01*
X284083Y153785D01*
Y154215D01*
X283918Y154613D01*
X283613Y154918D01*
X283215Y155083D01*
D02*
G37*
G36*
X278215D02*
X277785D01*
X277387Y154918D01*
X277082Y154613D01*
X276917Y154215D01*
Y153785D01*
X277082Y153387D01*
X277387Y153082D01*
X277785Y152917D01*
X278215D01*
X278613Y153082D01*
X278918Y153387D01*
X279083Y153785D01*
Y154215D01*
X278918Y154613D01*
X278613Y154918D01*
X278215Y155083D01*
D02*
G37*
G36*
X242215Y150583D02*
X241785D01*
X241387Y150418D01*
X241082Y150113D01*
X240917Y149715D01*
Y149285D01*
X241082Y148887D01*
X241387Y148582D01*
X241785Y148417D01*
X242215D01*
X242613Y148582D01*
X242918Y148887D01*
X243083Y149285D01*
Y149715D01*
X242918Y150113D01*
X242613Y150418D01*
X242215Y150583D01*
D02*
G37*
G36*
X191338Y150554D02*
X190711D01*
X190132Y150314D01*
X189690Y149871D01*
X189450Y149292D01*
Y148665D01*
X189690Y148087D01*
X190132Y147644D01*
X190711Y147404D01*
X191338D01*
X191917Y147644D01*
X192360Y148087D01*
X192599Y148665D01*
Y149292D01*
X192360Y149871D01*
X191917Y150314D01*
X191338Y150554D01*
D02*
G37*
G36*
X133813Y147875D02*
X133187D01*
X132608Y147635D01*
X132165Y147192D01*
X131925Y146613D01*
Y145987D01*
X132165Y145408D01*
X132608Y144965D01*
X133187Y144725D01*
X133813D01*
X134392Y144965D01*
X134835Y145408D01*
X135075Y145987D01*
Y146613D01*
X134835Y147192D01*
X134392Y147635D01*
X133813Y147875D01*
D02*
G37*
G36*
X298313Y145575D02*
X297687D01*
X297108Y145335D01*
X296665Y144892D01*
X296425Y144313D01*
Y143687D01*
X296665Y143108D01*
X297108Y142665D01*
X297687Y142425D01*
X298313D01*
X298892Y142665D01*
X299335Y143108D01*
X299575Y143687D01*
Y144313D01*
X299335Y144892D01*
X298892Y145335D01*
X298313Y145575D01*
D02*
G37*
G36*
X293313D02*
X292687D01*
X292108Y145335D01*
X291665Y144892D01*
X291425Y144313D01*
Y143687D01*
X291665Y143108D01*
X292108Y142665D01*
X292687Y142425D01*
X293313D01*
X293892Y142665D01*
X294335Y143108D01*
X294575Y143687D01*
Y144313D01*
X294335Y144892D01*
X293892Y145335D01*
X293313Y145575D01*
D02*
G37*
G36*
X288313D02*
X287687D01*
X287108Y145335D01*
X286665Y144892D01*
X286425Y144313D01*
Y143687D01*
X286665Y143108D01*
X287108Y142665D01*
X287687Y142425D01*
X288313D01*
X288892Y142665D01*
X289335Y143108D01*
X289575Y143687D01*
Y144313D01*
X289335Y144892D01*
X288892Y145335D01*
X288313Y145575D01*
D02*
G37*
G36*
X283313D02*
X282687D01*
X282108Y145335D01*
X281665Y144892D01*
X281425Y144313D01*
Y143687D01*
X281665Y143108D01*
X282108Y142665D01*
X282687Y142425D01*
X283313D01*
X283892Y142665D01*
X284335Y143108D01*
X284575Y143687D01*
Y144313D01*
X284335Y144892D01*
X283892Y145335D01*
X283313Y145575D01*
D02*
G37*
G36*
X278313D02*
X277687D01*
X277108Y145335D01*
X276665Y144892D01*
X276425Y144313D01*
Y143687D01*
X276665Y143108D01*
X277108Y142665D01*
X277687Y142425D01*
X278313D01*
X278892Y142665D01*
X279335Y143108D01*
X279575Y143687D01*
Y144313D01*
X279335Y144892D01*
X278892Y145335D01*
X278313Y145575D01*
D02*
G37*
G36*
X273313D02*
X272687D01*
X272108Y145335D01*
X271665Y144892D01*
X271425Y144313D01*
Y143687D01*
X271665Y143108D01*
X272108Y142665D01*
X272687Y142425D01*
X273313D01*
X273892Y142665D01*
X274335Y143108D01*
X274575Y143687D01*
Y144313D01*
X274335Y144892D01*
X273892Y145335D01*
X273313Y145575D01*
D02*
G37*
G36*
X268313D02*
X267687D01*
X267108Y145335D01*
X266665Y144892D01*
X266425Y144313D01*
Y143687D01*
X266665Y143108D01*
X267108Y142665D01*
X267687Y142425D01*
X268313D01*
X268892Y142665D01*
X269335Y143108D01*
X269575Y143687D01*
Y144313D01*
X269335Y144892D01*
X268892Y145335D01*
X268313Y145575D01*
D02*
G37*
G36*
X263313D02*
X262687D01*
X262108Y145335D01*
X261665Y144892D01*
X261425Y144313D01*
Y143687D01*
X261665Y143108D01*
X262108Y142665D01*
X262687Y142425D01*
X263313D01*
X263892Y142665D01*
X264335Y143108D01*
X264575Y143687D01*
Y144313D01*
X264335Y144892D01*
X263892Y145335D01*
X263313Y145575D01*
D02*
G37*
G36*
X258313D02*
X257687D01*
X257108Y145335D01*
X256665Y144892D01*
X256425Y144313D01*
Y143687D01*
X256665Y143108D01*
X257108Y142665D01*
X257687Y142425D01*
X258313D01*
X258892Y142665D01*
X259335Y143108D01*
X259575Y143687D01*
Y144313D01*
X259335Y144892D01*
X258892Y145335D01*
X258313Y145575D01*
D02*
G37*
G36*
X253313D02*
X252687D01*
X252108Y145335D01*
X251665Y144892D01*
X251425Y144313D01*
Y143687D01*
X251665Y143108D01*
X252108Y142665D01*
X252687Y142425D01*
X253313D01*
X253892Y142665D01*
X254335Y143108D01*
X254575Y143687D01*
Y144313D01*
X254335Y144892D01*
X253892Y145335D01*
X253313Y145575D01*
D02*
G37*
G36*
X220715Y144183D02*
X220285D01*
X219887Y144018D01*
X219582Y143713D01*
X219417Y143315D01*
Y142885D01*
X219582Y142487D01*
X219887Y142182D01*
X220285Y142017D01*
X220715D01*
X221113Y142182D01*
X221418Y142487D01*
X221583Y142885D01*
Y143315D01*
X221418Y143713D01*
X221113Y144018D01*
X220715Y144183D01*
D02*
G37*
G36*
X188513Y142875D02*
X187887D01*
X187308Y142635D01*
X186865Y142192D01*
X186625Y141613D01*
Y140987D01*
X186865Y140408D01*
X187308Y139965D01*
X187887Y139725D01*
X188513D01*
X189092Y139965D01*
X189535Y140408D01*
X189775Y140987D01*
Y141613D01*
X189535Y142192D01*
X189092Y142635D01*
X188513Y142875D01*
D02*
G37*
G36*
X133813Y142175D02*
X133187D01*
X132608Y141935D01*
X132165Y141492D01*
X131925Y140913D01*
Y140287D01*
X132165Y139708D01*
X132608Y139265D01*
X133187Y139025D01*
X133813D01*
X134392Y139265D01*
X134835Y139708D01*
X135075Y140287D01*
Y140913D01*
X134835Y141492D01*
X134392Y141935D01*
X133813Y142175D01*
D02*
G37*
G36*
X200238Y141842D02*
X199612D01*
X199033Y141602D01*
X198590Y141159D01*
X198350Y140580D01*
Y139954D01*
X198590Y139375D01*
X199033Y138932D01*
X199612Y138692D01*
X200238D01*
X200817Y138932D01*
X201260Y139375D01*
X201500Y139954D01*
Y140580D01*
X201260Y141159D01*
X200817Y141602D01*
X200238Y141842D01*
D02*
G37*
G36*
X188613Y138975D02*
X187987D01*
X187408Y138735D01*
X186965Y138292D01*
X186725Y137713D01*
Y137087D01*
X186965Y136508D01*
X187408Y136065D01*
X187987Y135825D01*
X188613D01*
X189192Y136065D01*
X189635Y136508D01*
X189875Y137087D01*
Y137713D01*
X189635Y138292D01*
X189192Y138735D01*
X188613Y138975D01*
D02*
G37*
G36*
X271715Y137083D02*
X271285D01*
X270887Y136918D01*
X270582Y136613D01*
X270417Y136215D01*
Y135785D01*
X270582Y135387D01*
X270887Y135082D01*
X271285Y134917D01*
X271715D01*
X272113Y135082D01*
X272418Y135387D01*
X272583Y135785D01*
Y136215D01*
X272418Y136613D01*
X272113Y136918D01*
X271715Y137083D01*
D02*
G37*
G36*
X123315Y134983D02*
X122885D01*
X122487Y134818D01*
X122182Y134513D01*
X122017Y134115D01*
Y133685D01*
X122182Y133287D01*
X122487Y132982D01*
X122885Y132817D01*
X123315D01*
X123713Y132982D01*
X124018Y133287D01*
X124183Y133685D01*
Y134115D01*
X124018Y134513D01*
X123713Y134818D01*
X123315Y134983D01*
D02*
G37*
G36*
X188613Y135075D02*
X187987D01*
X187408Y134835D01*
X186965Y134392D01*
X186725Y133813D01*
Y133187D01*
X186965Y132608D01*
X187408Y132165D01*
X187987Y131925D01*
X188613D01*
X189192Y132165D01*
X189635Y132608D01*
X189875Y133187D01*
Y133813D01*
X189635Y134392D01*
X189192Y134835D01*
X188613Y135075D01*
D02*
G37*
G36*
X202313Y134875D02*
X201687D01*
X201108Y134635D01*
X200665Y134192D01*
X200425Y133613D01*
Y132987D01*
X200665Y132408D01*
X201108Y131965D01*
X201687Y131725D01*
X202313D01*
X202892Y131965D01*
X203335Y132408D01*
X203575Y132987D01*
Y133613D01*
X203335Y134192D01*
X202892Y134635D01*
X202313Y134875D01*
D02*
G37*
G36*
X147813D02*
X147187D01*
X146608Y134635D01*
X146165Y134192D01*
X145925Y133613D01*
Y132987D01*
X146165Y132408D01*
X146608Y131965D01*
X147187Y131725D01*
X147813D01*
X148392Y131965D01*
X148835Y132408D01*
X149075Y132987D01*
Y133613D01*
X148835Y134192D01*
X148392Y134635D01*
X147813Y134875D01*
D02*
G37*
G36*
X207313Y134675D02*
X206687D01*
X206108Y134435D01*
X205665Y133992D01*
X205425Y133413D01*
Y132787D01*
X205665Y132208D01*
X206108Y131765D01*
X206687Y131525D01*
X207313D01*
X207892Y131765D01*
X208335Y132208D01*
X208575Y132787D01*
Y133413D01*
X208335Y133992D01*
X207892Y134435D01*
X207313Y134675D01*
D02*
G37*
G36*
X152813D02*
X152187D01*
X151608Y134435D01*
X151165Y133992D01*
X150925Y133413D01*
Y132787D01*
X151165Y132208D01*
X151608Y131765D01*
X152187Y131525D01*
X152813D01*
X153392Y131765D01*
X153835Y132208D01*
X154075Y132787D01*
Y133413D01*
X153835Y133992D01*
X153392Y134435D01*
X152813Y134675D01*
D02*
G37*
G36*
X133846Y134491D02*
X133220D01*
X132641Y134251D01*
X132198Y133808D01*
X131958Y133229D01*
Y132603D01*
X132198Y132024D01*
X132641Y131581D01*
X133220Y131341D01*
X133846D01*
X134425Y131581D01*
X134868Y132024D01*
X135108Y132603D01*
Y133229D01*
X134868Y133808D01*
X134425Y134251D01*
X133846Y134491D01*
D02*
G37*
G36*
X268113Y132575D02*
X267487D01*
X266908Y132335D01*
X266465Y131892D01*
X266225Y131313D01*
Y130687D01*
X266465Y130108D01*
X266908Y129665D01*
X267487Y129425D01*
X268113D01*
X268692Y129665D01*
X269135Y130108D01*
X269375Y130687D01*
Y131313D01*
X269135Y131892D01*
X268692Y132335D01*
X268113Y132575D01*
D02*
G37*
G36*
X156369Y129923D02*
X155742D01*
X155163Y129683D01*
X154720Y129240D01*
X154540Y128803D01*
X154117Y128794D01*
X154035Y128992D01*
X153592Y129435D01*
X153013Y129675D01*
X152387D01*
X151808Y129435D01*
X151365Y128992D01*
X151125Y128413D01*
Y127787D01*
X151365Y127208D01*
X151808Y126765D01*
X152387Y126525D01*
X153013D01*
X153592Y126765D01*
X154035Y127208D01*
X154216Y127645D01*
X154639Y127654D01*
X154720Y127456D01*
X155163Y127013D01*
X155742Y126773D01*
X156342D01*
X158156Y124959D01*
X157932Y124625D01*
X157813Y124675D01*
X157187D01*
X156608Y124435D01*
X156165Y123992D01*
X155925Y123413D01*
Y122787D01*
X156165Y122208D01*
X156608Y121765D01*
X157187Y121525D01*
X157813D01*
X158392Y121765D01*
X158835Y122208D01*
X159075Y122787D01*
Y123413D01*
X159025Y123532D01*
X159359Y123756D01*
X175534Y107581D01*
X175829Y107383D01*
X176178Y107314D01*
X227398D01*
X227747Y107383D01*
X228043Y107581D01*
X228450Y107989D01*
X267083D01*
X267507Y107565D01*
X268086Y107325D01*
X268712D01*
X269291Y107565D01*
X269734Y108008D01*
X269974Y108587D01*
Y109213D01*
X269734Y109792D01*
X269291Y110235D01*
X268712Y110475D01*
X268086D01*
X267507Y110235D01*
X267083Y109811D01*
X228073D01*
X227724Y109742D01*
X227429Y109544D01*
X227021Y109136D01*
X189878D01*
X189686Y109530D01*
X189875Y109987D01*
Y110613D01*
X189635Y111192D01*
X189192Y111635D01*
X188613Y111875D01*
X187987D01*
X187408Y111635D01*
X186965Y111192D01*
X186725Y110613D01*
Y109987D01*
X186914Y109530D01*
X186722Y109136D01*
X176556D01*
X157630Y128062D01*
Y128661D01*
X157391Y129240D01*
X156948Y129683D01*
X156369Y129923D01*
D02*
G37*
G36*
X188646Y131091D02*
X188020D01*
X187441Y130851D01*
X186998Y130408D01*
X186758Y129829D01*
Y129202D01*
X186998Y128624D01*
X187441Y128181D01*
X188020Y127941D01*
X188646D01*
X189225Y128181D01*
X189668Y128624D01*
X189908Y129202D01*
Y129829D01*
X189668Y130408D01*
X189225Y130851D01*
X188646Y131091D01*
D02*
G37*
G36*
X133813Y130275D02*
X133187D01*
X132608Y130035D01*
X132165Y129592D01*
X131925Y129013D01*
Y128387D01*
X132165Y127808D01*
X132608Y127365D01*
X133187Y127125D01*
X133813D01*
X134392Y127365D01*
X134835Y127808D01*
X135075Y128387D01*
Y129013D01*
X134835Y129592D01*
X134392Y130035D01*
X133813Y130275D01*
D02*
G37*
G36*
X212313Y129875D02*
X211687D01*
X211108Y129635D01*
X210665Y129192D01*
X210425Y128613D01*
Y127987D01*
X210665Y127408D01*
X211108Y126965D01*
X211687Y126725D01*
X212313D01*
X212892Y126965D01*
X213335Y127408D01*
X213575Y127987D01*
Y128613D01*
X213335Y129192D01*
X212892Y129635D01*
X212313Y129875D01*
D02*
G37*
G36*
X202313D02*
X201687D01*
X201108Y129635D01*
X200665Y129192D01*
X200425Y128613D01*
Y127987D01*
X200665Y127408D01*
X201108Y126965D01*
X201687Y126725D01*
X202313D01*
X202892Y126965D01*
X203335Y127408D01*
X203575Y127987D01*
Y128613D01*
X203335Y129192D01*
X202892Y129635D01*
X202313Y129875D01*
D02*
G37*
G36*
X143013D02*
X142387D01*
X141808Y129635D01*
X141365Y129192D01*
X141125Y128613D01*
Y127987D01*
X141365Y127408D01*
X141808Y126965D01*
X142387Y126725D01*
X143013D01*
X143592Y126965D01*
X144035Y127408D01*
X144275Y127987D01*
Y128613D01*
X144035Y129192D01*
X143592Y129635D01*
X143013Y129875D01*
D02*
G37*
G36*
X188713Y125075D02*
X188087D01*
X187508Y124835D01*
X187065Y124392D01*
X186825Y123813D01*
Y123187D01*
X187065Y122608D01*
X187508Y122165D01*
X188087Y121925D01*
X188713D01*
X189292Y122165D01*
X189735Y122608D01*
X189975Y123187D01*
Y123813D01*
X189735Y124392D01*
X189292Y124835D01*
X188713Y125075D01*
D02*
G37*
G36*
X212313Y124675D02*
X211687D01*
X211108Y124435D01*
X210665Y123992D01*
X210425Y123413D01*
Y122787D01*
X210665Y122208D01*
X211108Y121765D01*
X211687Y121525D01*
X212313D01*
X212892Y121765D01*
X213335Y122208D01*
X213575Y122787D01*
Y123413D01*
X213335Y123992D01*
X212892Y124435D01*
X212313Y124675D01*
D02*
G37*
G36*
X202313D02*
X201687D01*
X201108Y124435D01*
X200665Y123992D01*
X200425Y123413D01*
Y122787D01*
X200665Y122208D01*
X201108Y121765D01*
X201687Y121525D01*
X202313D01*
X202892Y121765D01*
X203335Y122208D01*
X203575Y122787D01*
Y123413D01*
X203335Y123992D01*
X202892Y124435D01*
X202313Y124675D01*
D02*
G37*
G36*
X242598Y124208D02*
X241971D01*
X241392Y123968D01*
X240949Y123525D01*
X240709Y122946D01*
Y122320D01*
X240949Y121741D01*
X241392Y121298D01*
X241971Y121058D01*
X242598D01*
X243176Y121298D01*
X243619Y121741D01*
X243772Y122110D01*
X244198D01*
X244365Y121708D01*
X244808Y121265D01*
X245387Y121025D01*
X246013D01*
X246592Y121265D01*
X247035Y121708D01*
X247275Y122287D01*
Y122913D01*
X247035Y123492D01*
X246592Y123935D01*
X246013Y124175D01*
X245387D01*
X244808Y123935D01*
X244365Y123492D01*
X244212Y123123D01*
X243786D01*
X243619Y123525D01*
X243176Y123968D01*
X242598Y124208D01*
D02*
G37*
G36*
X238813Y124175D02*
X238187D01*
X237608Y123935D01*
X237165Y123492D01*
X236925Y122913D01*
Y122287D01*
X237165Y121708D01*
X237608Y121265D01*
X238187Y121025D01*
X238813D01*
X239392Y121265D01*
X239835Y121708D01*
X240075Y122287D01*
Y122913D01*
X239835Y123492D01*
X239392Y123935D01*
X238813Y124175D01*
D02*
G37*
G36*
X235013D02*
X234387D01*
X233808Y123935D01*
X233365Y123492D01*
X233125Y122913D01*
Y122287D01*
X233365Y121708D01*
X233808Y121265D01*
X234387Y121025D01*
X235013D01*
X235592Y121265D01*
X236035Y121708D01*
X236275Y122287D01*
Y122913D01*
X236035Y123492D01*
X235592Y123935D01*
X235013Y124175D01*
D02*
G37*
G36*
X231413D02*
X230787D01*
X230208Y123935D01*
X229765Y123492D01*
X229525Y122913D01*
Y122287D01*
X229765Y121708D01*
X230208Y121265D01*
X230787Y121025D01*
X231413D01*
X231992Y121265D01*
X232435Y121708D01*
X232675Y122287D01*
Y122913D01*
X232435Y123492D01*
X231992Y123935D01*
X231413Y124175D01*
D02*
G37*
G36*
X226597Y124142D02*
X225971D01*
X225392Y123902D01*
X224949Y123459D01*
X224710Y122880D01*
Y122254D01*
X224949Y121675D01*
X225392Y121232D01*
X225971Y120992D01*
X226597D01*
X227176Y121232D01*
X227619Y121675D01*
X227859Y122254D01*
Y122880D01*
X227619Y123459D01*
X227176Y123902D01*
X226597Y124142D01*
D02*
G37*
G36*
X188613Y120875D02*
X187987D01*
X187408Y120635D01*
X186965Y120192D01*
X186725Y119613D01*
Y118987D01*
X186965Y118408D01*
X187408Y117965D01*
X187987Y117725D01*
X188613D01*
X189192Y117965D01*
X189635Y118408D01*
X189875Y118987D01*
Y119613D01*
X189635Y120192D01*
X189192Y120635D01*
X188613Y120875D01*
D02*
G37*
G36*
X133413Y119975D02*
X132787D01*
X132208Y119735D01*
X131765Y119292D01*
X131525Y118713D01*
Y118087D01*
X131765Y117508D01*
X132208Y117065D01*
X132787Y116825D01*
X133413D01*
X133992Y117065D01*
X134435Y117508D01*
X134675Y118087D01*
Y118713D01*
X134435Y119292D01*
X133992Y119735D01*
X133413Y119975D01*
D02*
G37*
G36*
X207313Y119875D02*
X206687D01*
X206108Y119635D01*
X205665Y119192D01*
X205425Y118613D01*
Y117987D01*
X205665Y117408D01*
X206108Y116965D01*
X206687Y116725D01*
X207313D01*
X207892Y116965D01*
X208335Y117408D01*
X208575Y117987D01*
Y118613D01*
X208335Y119192D01*
X207892Y119635D01*
X207313Y119875D01*
D02*
G37*
G36*
X152813D02*
X152187D01*
X151608Y119635D01*
X151165Y119192D01*
X150925Y118613D01*
Y117987D01*
X151165Y117408D01*
X151608Y116965D01*
X152187Y116725D01*
X152813D01*
X153392Y116965D01*
X153835Y117408D01*
X154075Y117987D01*
Y118613D01*
X153835Y119192D01*
X153392Y119635D01*
X152813Y119875D01*
D02*
G37*
G36*
X143013D02*
X142387D01*
X141808Y119635D01*
X141365Y119192D01*
X141125Y118613D01*
Y117987D01*
X141365Y117408D01*
X141808Y116965D01*
X142387Y116725D01*
X143013D01*
X143592Y116965D01*
X144035Y117408D01*
X144275Y117987D01*
Y118613D01*
X144035Y119192D01*
X143592Y119635D01*
X143013Y119875D01*
D02*
G37*
G36*
X202313Y119675D02*
X201687D01*
X201108Y119435D01*
X200665Y118992D01*
X200425Y118413D01*
Y117787D01*
X200665Y117208D01*
X201108Y116765D01*
X201687Y116525D01*
X202313D01*
X202892Y116765D01*
X203335Y117208D01*
X203575Y117787D01*
Y118413D01*
X203335Y118992D01*
X202892Y119435D01*
X202313Y119675D01*
D02*
G37*
G36*
X147813D02*
X147187D01*
X146608Y119435D01*
X146165Y118992D01*
X145925Y118413D01*
Y117787D01*
X146165Y117208D01*
X146608Y116765D01*
X147187Y116525D01*
X147813D01*
X148392Y116765D01*
X148835Y117208D01*
X149075Y117787D01*
Y118413D01*
X148835Y118992D01*
X148392Y119435D01*
X147813Y119675D01*
D02*
G37*
G36*
X188713Y116375D02*
X188087D01*
X187508Y116135D01*
X187065Y115692D01*
X186825Y115113D01*
Y114487D01*
X187065Y113908D01*
X187508Y113465D01*
X188087Y113225D01*
X188713D01*
X189292Y113465D01*
X189735Y113908D01*
X189975Y114487D01*
Y115113D01*
X189735Y115692D01*
X189292Y116135D01*
X188713Y116375D01*
D02*
G37*
G36*
X273719Y110675D02*
X273092D01*
X272514Y110435D01*
X272071Y109992D01*
X271831Y109413D01*
Y108787D01*
X272071Y108208D01*
X272514Y107765D01*
X273092Y107525D01*
X273719D01*
X274298Y107765D01*
X274741Y108208D01*
X274980Y108787D01*
Y109413D01*
X274741Y109992D01*
X274298Y110435D01*
X273719Y110675D01*
D02*
G37*
G36*
X189366Y106575D02*
X188740D01*
X188161Y106335D01*
X187718Y105892D01*
X187478Y105313D01*
Y104687D01*
X187718Y104108D01*
X188161Y103665D01*
X188740Y103425D01*
X189366D01*
X189945Y103665D01*
X190388Y104108D01*
X190628Y104687D01*
Y105313D01*
X190388Y105892D01*
X189945Y106335D01*
X189366Y106575D01*
D02*
G37*
G36*
X172061D02*
X171434D01*
X170855Y106335D01*
X170412Y105892D01*
X170172Y105313D01*
Y104687D01*
X170412Y104108D01*
X170855Y103665D01*
X171434Y103425D01*
X172061D01*
X172639Y103665D01*
X173082Y104108D01*
X173322Y104687D01*
Y105313D01*
X173082Y105892D01*
X172639Y106335D01*
X172061Y106575D01*
D02*
G37*
%LPD*%
G36*
X218584Y237967D02*
X218548Y237952D01*
X217546Y236950D01*
X208409Y227813D01*
X208045Y227964D01*
Y230293D01*
X207817Y230522D01*
X209605Y232310D01*
X210069Y232218D01*
X210082Y232187D01*
X210387Y231882D01*
X210785Y231717D01*
X211215D01*
X211613Y231882D01*
X211918Y232187D01*
X212083Y232585D01*
Y233015D01*
X211918Y233413D01*
X211613Y233718D01*
X211582Y233731D01*
X211490Y234195D01*
X215655Y238361D01*
X218506D01*
X218584Y237967D01*
D02*
G37*
G36*
X225118Y234473D02*
X224994Y234422D01*
X224678Y234359D01*
X224305Y234109D01*
X224055Y233736D01*
X223992Y233420D01*
X223941Y233296D01*
Y230919D01*
X222572D01*
X222120Y230732D01*
X218690Y227301D01*
X218516Y227198D01*
X218189Y227287D01*
X218062Y227414D01*
X217664Y227579D01*
X217233D01*
X216835Y227414D01*
X216531Y227109D01*
X216366Y226711D01*
Y226558D01*
X215609Y225801D01*
X215276Y226024D01*
X215382Y226281D01*
Y226711D01*
X215217Y227109D01*
X214913Y227414D01*
X214515Y227579D01*
X214084D01*
X213797Y227824D01*
X213771Y228177D01*
X220454Y234861D01*
X225104D01*
X225118Y234473D01*
D02*
G37*
G36*
X213381Y225883D02*
X213686Y225578D01*
X214084Y225413D01*
X214515D01*
X214874Y225562D01*
X214899Y225549D01*
X215126Y225231D01*
X215065Y224921D01*
X215065Y224921D01*
Y224612D01*
X214671Y224349D01*
X214540Y224404D01*
X214109D01*
X213712Y224239D01*
X213407Y223934D01*
X213242Y223536D01*
Y223106D01*
X213407Y222708D01*
X213712Y222403D01*
X214109Y222238D01*
X214540D01*
X214671Y222292D01*
X215065Y222029D01*
Y221493D01*
X214671Y221231D01*
X214515Y221295D01*
X214084D01*
X213686Y221130D01*
X213381Y220826D01*
X213216Y220428D01*
Y219997D01*
X213381Y219599D01*
X213686Y219295D01*
X214084Y219130D01*
X214515D01*
X214826Y218835D01*
X214839Y218731D01*
X214237Y218130D01*
X214084D01*
X213686Y217965D01*
X213381Y217660D01*
X213216Y217263D01*
Y216832D01*
X213381Y216434D01*
X213686Y216129D01*
X214084Y215965D01*
X214237D01*
X214812Y215390D01*
X214790Y215292D01*
X214515Y214980D01*
X214084D01*
X213686Y214815D01*
X213381Y214511D01*
X213216Y214113D01*
Y213682D01*
X213381Y213284D01*
X213686Y212980D01*
X214084Y212815D01*
X214515D01*
X214671Y212880D01*
X215065Y212618D01*
Y212032D01*
X214671Y211769D01*
X214522Y211831D01*
X214092D01*
X213694Y211666D01*
X213389Y211361D01*
X213224Y210963D01*
Y210533D01*
X213389Y210135D01*
X213694Y209830D01*
X214092Y209665D01*
X214522D01*
X214920Y209830D01*
X215301Y209654D01*
X215302Y209654D01*
X216355Y208601D01*
X216355Y208601D01*
X216617Y208426D01*
X216927Y208364D01*
X216927Y208364D01*
X219319D01*
X219581Y207970D01*
X219516Y207814D01*
Y207383D01*
X219681Y206985D01*
X219985Y206681D01*
X220383Y206516D01*
X220814D01*
X221212Y206681D01*
X221516Y206985D01*
X221681Y207383D01*
Y207814D01*
X221616Y207970D01*
X221640Y208078D01*
X221849Y208393D01*
X222014Y208426D01*
X222277Y208601D01*
X222745Y209070D01*
X222745Y209070D01*
X222921Y209332D01*
X222954Y209497D01*
X223268Y209706D01*
X223376Y209730D01*
X223533Y209665D01*
X223963D01*
X224361Y209830D01*
X224666Y210135D01*
X224831Y210533D01*
Y210927D01*
X225210Y211306D01*
X225598Y211279D01*
X225815Y210963D01*
Y210533D01*
X225980Y210135D01*
X226284Y209830D01*
X226682Y209665D01*
X227113D01*
X227511Y209830D01*
X227816Y210135D01*
X227980Y210533D01*
Y210963D01*
X227967Y210995D01*
X228230Y211388D01*
X228714D01*
X228977Y210995D01*
X228965Y210963D01*
Y210533D01*
X229129Y210135D01*
X229434Y209830D01*
X229832Y209665D01*
X230263D01*
X230661Y209830D01*
X230965Y210135D01*
X231130Y210533D01*
Y210963D01*
X231117Y210995D01*
X231380Y211388D01*
X231864D01*
X232127Y210995D01*
X232114Y210963D01*
Y210533D01*
X232279Y210135D01*
X232584Y209830D01*
X232981Y209665D01*
X233412D01*
X233810Y209830D01*
X234115Y210135D01*
X234279Y210533D01*
Y210963D01*
X234267Y210995D01*
X234530Y211388D01*
X235014D01*
X235277Y210995D01*
X235264Y210963D01*
Y210533D01*
X235429Y210135D01*
X235733Y209830D01*
X236131Y209665D01*
X236562D01*
X236960Y209830D01*
X237264Y210135D01*
X237429Y210533D01*
Y210963D01*
X237416Y210995D01*
X237679Y211388D01*
X238163D01*
X238426Y210995D01*
X238413Y210963D01*
Y210533D01*
X238578Y210135D01*
X238883Y209830D01*
X239281Y209665D01*
X239711D01*
X240109Y209830D01*
X240414Y210135D01*
X240547Y210457D01*
X240883Y210594D01*
X240953Y210608D01*
X241405Y210420D01*
X244123D01*
Y206595D01*
X244174Y206471D01*
X244208Y206303D01*
X243964Y205909D01*
X240749D01*
X240478Y206180D01*
X240204Y206294D01*
X240163Y206461D01*
X240160Y206731D01*
X240414Y206985D01*
X240579Y207383D01*
Y207814D01*
X240414Y208212D01*
X240109Y208516D01*
X239711Y208681D01*
X239281D01*
X238883Y208516D01*
X238578Y208212D01*
X238413Y207814D01*
Y207383D01*
X238578Y206985D01*
X238802Y206761D01*
X238693Y206386D01*
X238681Y206368D01*
X237161D01*
X237149Y206386D01*
X237040Y206761D01*
X237264Y206985D01*
X237429Y207383D01*
Y207814D01*
X237264Y208212D01*
X236960Y208516D01*
X236562Y208681D01*
X236131D01*
X235733Y208516D01*
X235429Y208212D01*
X235264Y207814D01*
Y207383D01*
X235429Y206985D01*
X235652Y206761D01*
X235544Y206386D01*
X235532Y206368D01*
X234012D01*
X233999Y206386D01*
X233891Y206761D01*
X234115Y206985D01*
X234279Y207383D01*
Y207814D01*
X234115Y208212D01*
X233810Y208516D01*
X233412Y208681D01*
X232981D01*
X232584Y208516D01*
X232279Y208212D01*
X232114Y207814D01*
Y207383D01*
X232279Y206985D01*
X232503Y206761D01*
X232394Y206386D01*
X232382Y206368D01*
X230862D01*
X230850Y206386D01*
X230741Y206761D01*
X230965Y206985D01*
X231130Y207383D01*
Y207814D01*
X230965Y208212D01*
X230661Y208516D01*
X230263Y208681D01*
X229832D01*
X229434Y208516D01*
X229129Y208212D01*
X228965Y207814D01*
Y207383D01*
X229129Y206985D01*
X229353Y206761D01*
X229245Y206386D01*
X229233Y206368D01*
X225028D01*
X224576Y206180D01*
X223927Y205532D01*
X223533D01*
X223217Y205748D01*
X223190Y206136D01*
X223569Y206516D01*
X223963D01*
X224361Y206681D01*
X224666Y206985D01*
X224831Y207383D01*
Y207814D01*
X224666Y208212D01*
X224361Y208516D01*
X223963Y208681D01*
X223533D01*
X223135Y208516D01*
X222830Y208212D01*
X222665Y207814D01*
Y207420D01*
X222017Y206771D01*
X221829Y206319D01*
Y205263D01*
X221811Y205251D01*
X221436Y205143D01*
X221212Y205367D01*
X220814Y205532D01*
X220383D01*
X219985Y205367D01*
X219681Y205062D01*
X219516Y204664D01*
Y204234D01*
X219681Y203836D01*
X219985Y203531D01*
X220383Y203366D01*
X220814D01*
X221212Y203531D01*
X221465Y203785D01*
X221736Y203782D01*
X221903Y203741D01*
X222017Y203467D01*
X222766Y202717D01*
X223040Y202604D01*
X223081Y202437D01*
X223084Y202166D01*
X222830Y201912D01*
X222665Y201515D01*
Y201084D01*
X222678Y201053D01*
X222486Y200691D01*
X222423Y200640D01*
X222017Y200472D01*
X220777Y199232D01*
X220383D01*
X220067Y199449D01*
X220040Y199837D01*
X220420Y200217D01*
X220814D01*
X221212Y200381D01*
X221516Y200686D01*
X221681Y201084D01*
Y201515D01*
X221516Y201912D01*
X221212Y202217D01*
X220814Y202382D01*
X220383D01*
X219985Y202217D01*
X219681Y201912D01*
X219516Y201515D01*
Y201120D01*
X218867Y200472D01*
X218680Y200020D01*
Y197620D01*
X218867Y197168D01*
X219727Y196308D01*
X220179Y196121D01*
X224790D01*
X224941Y195757D01*
X222017Y192832D01*
X221903Y192559D01*
X221736Y192518D01*
X221465Y192514D01*
X221212Y192768D01*
X220814Y192933D01*
X220383D01*
X219985Y192768D01*
X219681Y192464D01*
X219516Y192066D01*
Y191672D01*
X218867Y191023D01*
X218680Y190571D01*
Y185021D01*
X218867Y184569D01*
X219616Y183820D01*
X219890Y183706D01*
X219931Y183539D01*
X219934Y183269D01*
X219681Y183015D01*
X219516Y182617D01*
Y182186D01*
X219681Y181788D01*
X219985Y181484D01*
X220383Y181319D01*
X220814D01*
X221212Y181484D01*
X221516Y181788D01*
X221681Y182186D01*
Y182617D01*
X221516Y183015D01*
X221292Y183239D01*
X221401Y183614D01*
X221413Y183632D01*
X222933D01*
X222945Y183614D01*
X223054Y183239D01*
X222830Y183015D01*
X222665Y182617D01*
Y182186D01*
X222830Y181788D01*
X223135Y181484D01*
X223533Y181319D01*
X223963D01*
X224361Y181484D01*
X224666Y181788D01*
X224831Y182186D01*
Y182617D01*
X224666Y183015D01*
X224442Y183239D01*
X224551Y183614D01*
X224563Y183632D01*
X226083D01*
X226095Y183614D01*
X226204Y183239D01*
X225980Y183015D01*
X225815Y182617D01*
Y182186D01*
X225980Y181788D01*
X226284Y181484D01*
X226682Y181319D01*
X227113D01*
X227511Y181484D01*
X227816Y181788D01*
X227980Y182186D01*
Y182617D01*
X227816Y183015D01*
X227592Y183239D01*
X227700Y183614D01*
X227712Y183632D01*
X232382D01*
X232394Y183614D01*
X232503Y183239D01*
X232279Y183015D01*
X232114Y182617D01*
Y182186D01*
X232279Y181788D01*
X232584Y181484D01*
X232981Y181319D01*
X233412D01*
X233810Y181484D01*
X234115Y181788D01*
X234279Y182186D01*
Y182617D01*
X234115Y183015D01*
X233891Y183239D01*
X233999Y183614D01*
X234012Y183632D01*
X235532D01*
X235544Y183614D01*
X235652Y183239D01*
X235429Y183015D01*
X235264Y182617D01*
Y182186D01*
X235277Y182155D01*
X235084Y181794D01*
X235021Y181742D01*
X234615Y181574D01*
X233376Y180335D01*
X232981D01*
X232584Y180170D01*
X232279Y179865D01*
X232114Y179467D01*
Y179037D01*
X232279Y178639D01*
X232584Y178334D01*
X232981Y178169D01*
X233412D01*
X233810Y178334D01*
X234115Y178639D01*
X234279Y179037D01*
Y179431D01*
X235174Y180325D01*
X235301Y180294D01*
X235429Y179866D01*
X235426Y179858D01*
X235264Y179467D01*
Y179037D01*
X235429Y178639D01*
X235733Y178334D01*
X236131Y178169D01*
X236562D01*
X236953Y178331D01*
X236960Y178334D01*
X237389Y178206D01*
X237420Y178080D01*
X236525Y177185D01*
X236131D01*
X235733Y177020D01*
X235429Y176716D01*
X235264Y176318D01*
Y175887D01*
X235429Y175489D01*
X235652Y175265D01*
X235544Y174890D01*
X235532Y174872D01*
X234012D01*
X233999Y174890D01*
X233891Y175265D01*
X234115Y175489D01*
X234279Y175887D01*
Y176318D01*
X234115Y176716D01*
X233810Y177020D01*
X233412Y177185D01*
X232981D01*
X232584Y177020D01*
X232279Y176716D01*
X232114Y176318D01*
Y175887D01*
X232279Y175489D01*
X232503Y175265D01*
X232394Y174890D01*
X232382Y174872D01*
X231327D01*
X230875Y174684D01*
X230226Y174035D01*
X229832D01*
X229434Y173871D01*
X229129Y173566D01*
X228965Y173168D01*
Y172737D01*
X228977Y172706D01*
X228714Y172312D01*
X225292D01*
X224831Y172774D01*
Y173168D01*
X224666Y173566D01*
X224361Y173871D01*
X223963Y174035D01*
X223533D01*
X223135Y173871D01*
X222881Y173617D01*
X222610Y173620D01*
X222443Y173661D01*
X222330Y173935D01*
X221190Y175075D01*
X221212Y175185D01*
X221516Y175489D01*
X221681Y175887D01*
Y176318D01*
X221516Y176716D01*
X221212Y177020D01*
X220814Y177185D01*
X220383D01*
X219985Y177020D01*
X219681Y176716D01*
X219516Y176318D01*
Y175887D01*
X219529Y175856D01*
X219266Y175462D01*
X218767D01*
X216395Y177834D01*
X215943Y178021D01*
X213769D01*
X213317Y177834D01*
X212417Y176934D01*
X212397Y176885D01*
X212335Y176855D01*
X211945Y176822D01*
X211747Y177020D01*
X211349Y177185D01*
X210918D01*
X210521Y177020D01*
X210216Y176716D01*
X210051Y176318D01*
Y175887D01*
X210146Y175657D01*
X209813Y175434D01*
X208045Y177201D01*
Y200217D01*
X208215D01*
X208613Y200381D01*
X208918Y200686D01*
X209083Y201084D01*
Y201515D01*
X208918Y201912D01*
X208613Y202217D01*
X208215Y202382D01*
X208045D01*
Y214848D01*
X208952Y215755D01*
X209139Y216207D01*
Y222242D01*
X211290Y224392D01*
X211494D01*
X211947Y224580D01*
X213272Y225905D01*
X213381Y225883D01*
D02*
G37*
G36*
X232394Y224559D02*
X232503Y224184D01*
X232279Y223960D01*
X232114Y223562D01*
Y223131D01*
X232279Y222733D01*
X232503Y222509D01*
X232394Y222134D01*
X232382Y222116D01*
X231327D01*
X230875Y221928D01*
X230226Y221280D01*
X229832D01*
X229434Y221115D01*
X229129Y220810D01*
X228965Y220412D01*
Y219982D01*
X229129Y219584D01*
X229434Y219279D01*
X229832Y219114D01*
X230263D01*
X230661Y219279D01*
X230965Y219584D01*
X231130Y219982D01*
Y220375D01*
X231509Y220755D01*
X231897Y220728D01*
X232114Y220412D01*
Y219982D01*
X232279Y219584D01*
X232584Y219279D01*
X232981Y219114D01*
X233412D01*
X233810Y219279D01*
X234115Y219584D01*
X234279Y219982D01*
Y220412D01*
X234267Y220444D01*
X234530Y220837D01*
X235014D01*
X235277Y220444D01*
X235264Y220412D01*
Y219982D01*
X235429Y219584D01*
X235733Y219279D01*
X236131Y219114D01*
X236562D01*
X236960Y219279D01*
X237264Y219584D01*
X237429Y219982D01*
Y220412D01*
X237416Y220444D01*
X237679Y220837D01*
X238163D01*
X238426Y220444D01*
X238413Y220412D01*
Y219982D01*
X238578Y219584D01*
X238883Y219279D01*
X239281Y219114D01*
X239711D01*
X240109Y219279D01*
X240414Y219584D01*
X240579Y219982D01*
Y220412D01*
X240566Y220444D01*
X240651Y220656D01*
X240813Y220874D01*
X240847Y220888D01*
X241163Y220951D01*
X241422Y221124D01*
X241788Y220974D01*
X241815Y220949D01*
Y217444D01*
X241866Y217321D01*
X241929Y217004D01*
X242066Y216801D01*
X241860Y216407D01*
X240829D01*
X240566Y216801D01*
X240579Y216832D01*
Y217263D01*
X240414Y217660D01*
X240109Y217965D01*
X239711Y218130D01*
X239281D01*
X238883Y217965D01*
X238578Y217660D01*
X238413Y217263D01*
Y216832D01*
X238426Y216801D01*
X238163Y216407D01*
X237679D01*
X237416Y216801D01*
X237429Y216832D01*
Y217263D01*
X237264Y217660D01*
X236960Y217965D01*
X236562Y218130D01*
X236131D01*
X235733Y217965D01*
X235429Y217660D01*
X235264Y217263D01*
Y216832D01*
X235277Y216801D01*
X235014Y216407D01*
X234530D01*
X234267Y216801D01*
X234279Y216832D01*
Y217263D01*
X234115Y217660D01*
X233810Y217965D01*
X233412Y218130D01*
X232981D01*
X232584Y217965D01*
X232279Y217660D01*
X232114Y217263D01*
Y216832D01*
X232127Y216801D01*
X231864Y216407D01*
X228230D01*
X227967Y216801D01*
X227980Y216832D01*
Y217263D01*
X227816Y217660D01*
X227511Y217965D01*
X227113Y218130D01*
X226682D01*
X226284Y217965D01*
X225980Y217660D01*
X225815Y217263D01*
Y216832D01*
X225828Y216801D01*
X225565Y216407D01*
X225081D01*
X224818Y216801D01*
X224831Y216832D01*
Y217263D01*
X224666Y217660D01*
X224361Y217965D01*
X223963Y218130D01*
X223533D01*
X223135Y217965D01*
X222830Y217660D01*
X222665Y217263D01*
Y216832D01*
X222448Y216516D01*
X222061Y216489D01*
X221681Y216869D01*
Y217263D01*
X221516Y217660D01*
X221212Y217965D01*
X220814Y218130D01*
X220383D01*
X220057Y217995D01*
X219797Y218102D01*
X219663Y218199D01*
Y219310D01*
X219716Y219354D01*
X220057Y219484D01*
X220250Y219355D01*
X220598Y219286D01*
X220947Y219355D01*
X221243Y219552D01*
X222336Y220646D01*
X222670Y220423D01*
X222665Y220412D01*
Y219982D01*
X222830Y219584D01*
X223135Y219279D01*
X223533Y219114D01*
X223963D01*
X224361Y219279D01*
X224666Y219584D01*
X224831Y219982D01*
Y220412D01*
X224666Y220810D01*
X224361Y221115D01*
X223963Y221280D01*
X223533D01*
X223343Y221201D01*
X223186Y221313D01*
X223037Y221500D01*
X223092Y221779D01*
Y222027D01*
X223486Y222290D01*
X223548Y222264D01*
X223979D01*
X224377Y222429D01*
X224682Y222733D01*
X224847Y223131D01*
Y223541D01*
X225725Y224420D01*
X225852Y224389D01*
X225980Y223960D01*
X225977Y223953D01*
X225815Y223562D01*
Y223131D01*
X225980Y222733D01*
X226284Y222429D01*
X226682Y222264D01*
X227113D01*
X227511Y222429D01*
X227816Y222733D01*
X227980Y223131D01*
Y223562D01*
X227816Y223960D01*
X227592Y224184D01*
X227700Y224559D01*
X227712Y224577D01*
X229233D01*
X229245Y224559D01*
X229353Y224184D01*
X229129Y223960D01*
X228965Y223562D01*
Y223131D01*
X229129Y222733D01*
X229434Y222429D01*
X229832Y222264D01*
X230263D01*
X230661Y222429D01*
X230965Y222733D01*
X231130Y223131D01*
Y223562D01*
X230965Y223960D01*
X230741Y224184D01*
X230850Y224559D01*
X230862Y224577D01*
X232382D01*
X232394Y224559D01*
D02*
G37*
G36*
X247919Y194182D02*
X238648Y184911D01*
X237679D01*
X237416Y185305D01*
X237429Y185336D01*
Y185766D01*
X237264Y186164D01*
X236960Y186469D01*
X236562Y186634D01*
X236131D01*
X235733Y186469D01*
X235429Y186164D01*
X235264Y185766D01*
Y185336D01*
X235277Y185305D01*
X235014Y184911D01*
X234530D01*
X234267Y185305D01*
X234279Y185336D01*
Y185766D01*
X234115Y186164D01*
X233810Y186469D01*
X233412Y186634D01*
X232981D01*
X232584Y186469D01*
X232279Y186164D01*
X232114Y185766D01*
Y185336D01*
X232127Y185305D01*
X231864Y184911D01*
X231380D01*
X231117Y185305D01*
X231130Y185336D01*
Y185766D01*
X230965Y186164D01*
X230661Y186469D01*
X230263Y186634D01*
X229832D01*
X229434Y186469D01*
X229129Y186164D01*
X228965Y185766D01*
Y185336D01*
X228977Y185305D01*
X228714Y184911D01*
X228230D01*
X227967Y185305D01*
X227980Y185336D01*
Y185766D01*
X227816Y186164D01*
X227511Y186469D01*
X227113Y186634D01*
X226719D01*
X226339Y187013D01*
X226366Y187401D01*
X226682Y187618D01*
X227113D01*
X227511Y187783D01*
X227816Y188087D01*
X227980Y188485D01*
Y188916D01*
X227816Y189314D01*
X227511Y189619D01*
X227113Y189784D01*
X226682D01*
X226651Y189770D01*
X226257Y190034D01*
Y190518D01*
X226651Y190781D01*
X226682Y190768D01*
X227113D01*
X227511Y190933D01*
X227816Y191237D01*
X227980Y191635D01*
Y192066D01*
X227816Y192464D01*
X227511Y192768D01*
X227480Y192781D01*
X227387Y193246D01*
X228688Y194546D01*
X233804D01*
X233967Y194152D01*
X233854Y194038D01*
X233689Y193641D01*
Y193210D01*
X233854Y192812D01*
X234158Y192507D01*
X234556Y192342D01*
X234987D01*
X235385Y192507D01*
X235689Y192812D01*
X235854Y193210D01*
Y193641D01*
X235689Y194038D01*
X235576Y194152D01*
X235739Y194546D01*
X236954D01*
X237117Y194152D01*
X237003Y194038D01*
X236839Y193641D01*
Y193210D01*
X237003Y192812D01*
X237308Y192507D01*
X237706Y192342D01*
X238137D01*
X238534Y192507D01*
X238839Y192812D01*
X239004Y193210D01*
Y193641D01*
X238839Y194038D01*
X238725Y194152D01*
X238889Y194546D01*
X247768D01*
X247919Y194182D01*
D02*
G37*
G36*
X212335Y175350D02*
X212397Y175320D01*
X212417Y175271D01*
X213721Y173967D01*
X213702Y173871D01*
X213397Y173566D01*
X213232Y173168D01*
Y172774D01*
X212552Y172094D01*
X212365Y171642D01*
Y170649D01*
X211971Y170513D01*
X211763Y170721D01*
X211365Y170886D01*
X210934D01*
X210536Y170721D01*
X210232Y170416D01*
X210067Y170018D01*
Y169588D01*
X210232Y169190D01*
X210536Y168885D01*
X210934Y168720D01*
X211365D01*
X211763Y168885D01*
X211971Y169094D01*
X212365Y168957D01*
Y167500D01*
X211971Y167363D01*
X211763Y167571D01*
X211365Y167736D01*
X210934D01*
X210536Y167571D01*
X210232Y167267D01*
X210067Y166869D01*
Y166438D01*
X210232Y166040D01*
X210536Y165736D01*
X210934Y165571D01*
X211365D01*
X211763Y165736D01*
X211971Y165944D01*
X212365Y165807D01*
Y164350D01*
X211971Y164214D01*
X211763Y164422D01*
X211365Y164587D01*
X210934D01*
X210536Y164422D01*
X210232Y164117D01*
X210067Y163719D01*
Y163289D01*
X210232Y162891D01*
X210536Y162586D01*
X210934Y162421D01*
X211365D01*
X211763Y162586D01*
X212001Y162824D01*
X212308Y162818D01*
X212446Y162777D01*
X212552Y162522D01*
X212960Y162114D01*
X212797Y161720D01*
X208059D01*
X208045Y161754D01*
Y174398D01*
X208409Y174549D01*
X210067Y172891D01*
Y172737D01*
X210232Y172339D01*
X210536Y172035D01*
X210934Y171870D01*
X211365D01*
X211763Y172035D01*
X212067Y172339D01*
X212232Y172737D01*
Y173168D01*
X212067Y173566D01*
X211763Y173871D01*
X211365Y174035D01*
X211211D01*
X210466Y174781D01*
X210689Y175115D01*
X210918Y175020D01*
X211349D01*
X211747Y175185D01*
X211945Y175382D01*
X212335Y175350D01*
D02*
G37*
G36*
X256930Y174247D02*
X256917Y174215D01*
Y173785D01*
X257082Y173387D01*
X257387Y173082D01*
X257785Y172917D01*
X258215D01*
X258613Y173082D01*
X258892Y173361D01*
X260926D01*
X261610Y172676D01*
X261460Y172312D01*
X240829D01*
X240566Y172706D01*
X240579Y172737D01*
Y173168D01*
X240414Y173566D01*
X240109Y173871D01*
X240088Y173980D01*
X240747Y174640D01*
X251667D01*
X251930Y174247D01*
X251917Y174215D01*
Y173785D01*
X252082Y173387D01*
X252387Y173082D01*
X252785Y172917D01*
X253215D01*
X253613Y173082D01*
X253918Y173387D01*
X254083Y173785D01*
Y174215D01*
X254070Y174247D01*
X254333Y174640D01*
X256667D01*
X256930Y174247D01*
D02*
G37*
G36*
X289861Y173045D02*
Y169955D01*
X289395Y169490D01*
X288931Y169582D01*
X288918Y169613D01*
X288613Y169918D01*
X288215Y170083D01*
X287785D01*
X287387Y169918D01*
X287082Y169613D01*
X286917Y169215D01*
Y168785D01*
X286930Y168753D01*
X286667Y168360D01*
X284333D01*
X284070Y168753D01*
X284083Y168785D01*
Y169215D01*
X283918Y169613D01*
X283613Y169918D01*
X283215Y170083D01*
X282785D01*
X282387Y169918D01*
X282082Y169613D01*
X281917Y169215D01*
Y168785D01*
X281930Y168753D01*
X281667Y168360D01*
X279333D01*
X279070Y168753D01*
X279083Y168785D01*
Y169215D01*
X278918Y169613D01*
X278613Y169918D01*
X278215Y170083D01*
X277785D01*
X277387Y169918D01*
X277082Y169613D01*
X276917Y169215D01*
Y168785D01*
X276930Y168753D01*
X276667Y168360D01*
X274333D01*
X274070Y168753D01*
X274083Y168785D01*
Y169215D01*
X273918Y169613D01*
X273613Y169918D01*
X273215Y170083D01*
X272785D01*
X272387Y169918D01*
X272082Y169613D01*
X271917Y169215D01*
Y168785D01*
X271930Y168753D01*
X271667Y168360D01*
X269333D01*
X269070Y168753D01*
X269083Y168785D01*
Y169215D01*
X268918Y169613D01*
X268613Y169918D01*
X268215Y170083D01*
X267785D01*
X267387Y169918D01*
X267082Y169613D01*
X266917Y169215D01*
Y168785D01*
X266930Y168753D01*
X266667Y168360D01*
X264333D01*
X264070Y168753D01*
X264083Y168785D01*
Y169215D01*
X263918Y169613D01*
X263613Y169918D01*
X263215Y170083D01*
X262785D01*
X262387Y169918D01*
X262082Y169613D01*
X261917Y169215D01*
Y168785D01*
X261930Y168753D01*
X261667Y168360D01*
X259333D01*
X259070Y168753D01*
X259083Y168785D01*
Y169215D01*
X258918Y169613D01*
X258613Y169918D01*
X258215Y170083D01*
X257785D01*
X257387Y169918D01*
X257082Y169613D01*
X256917Y169215D01*
Y168785D01*
X256930Y168753D01*
X256667Y168360D01*
X254333D01*
X254070Y168753D01*
X254083Y168785D01*
Y169215D01*
X253918Y169613D01*
X253613Y169918D01*
X253215Y170083D01*
X252785D01*
X252387Y169918D01*
X252082Y169613D01*
X251917Y169215D01*
Y168785D01*
X251930Y168753D01*
X251667Y168360D01*
X240503D01*
X240088Y168776D01*
X240109Y168885D01*
X240414Y169190D01*
X240579Y169588D01*
Y170018D01*
X240414Y170416D01*
X240190Y170640D01*
X240299Y171015D01*
X240311Y171034D01*
X285673D01*
X286125Y171221D01*
X287821Y172917D01*
X288215D01*
X288613Y173082D01*
X288918Y173387D01*
X288931Y173418D01*
X289395Y173510D01*
X289861Y173045D01*
D02*
G37*
G36*
X252701Y160048D02*
X252387Y159918D01*
X252108Y159639D01*
X206445D01*
X206294Y160003D01*
X206733Y160442D01*
X252623D01*
X252701Y160048D01*
D02*
G37*
G36*
X257246Y160286D02*
X257387Y159918D01*
X257082Y159613D01*
X256917Y159215D01*
Y158785D01*
X257082Y158387D01*
X257387Y158082D01*
X257785Y157917D01*
X258215D01*
X258613Y158082D01*
X258918Y158387D01*
X258931Y158418D01*
X259358Y158548D01*
X259375Y158541D01*
X259809Y158361D01*
X262108D01*
X262387Y158082D01*
X262418Y158069D01*
X262510Y157605D01*
X261612Y156706D01*
X252144D01*
X251692Y156519D01*
X251092Y155919D01*
X237399D01*
X237117Y156208D01*
X237100Y156282D01*
Y156656D01*
X236936Y157054D01*
X236631Y157359D01*
X236233Y157524D01*
X235802D01*
X235404Y157359D01*
X235100Y157054D01*
X234935Y156656D01*
Y156226D01*
X235100Y155828D01*
X235302Y155625D01*
X235157Y155232D01*
X218463D01*
X218300Y155625D01*
X218435Y155761D01*
X218675Y156340D01*
Y156966D01*
X218435Y157545D01*
X218013Y157967D01*
X218021Y158070D01*
X218120Y158361D01*
X252108D01*
X252387Y158082D01*
X252785Y157917D01*
X253215D01*
X253613Y158082D01*
X253918Y158387D01*
X254083Y158785D01*
Y159215D01*
X253918Y159613D01*
X253613Y159918D01*
X253298Y160048D01*
X253377Y160442D01*
X257118D01*
X257246Y160286D01*
D02*
G37*
G36*
X216179Y158070D02*
X216187Y157967D01*
X215765Y157545D01*
X215525Y156966D01*
Y156340D01*
X215765Y155761D01*
X215900Y155625D01*
X215737Y155232D01*
X212009D01*
X211799Y155625D01*
X211975Y156051D01*
Y156677D01*
X211735Y157256D01*
X211292Y157699D01*
X210713Y157939D01*
X210087D01*
X209508Y157699D01*
X209065Y157256D01*
X208825Y156677D01*
Y156051D01*
X209001Y155625D01*
X208791Y155232D01*
X204804D01*
X202049Y157987D01*
X202200Y158350D01*
X204642D01*
X204652Y158361D01*
X216080D01*
X216179Y158070D01*
D02*
G37*
G36*
X125654Y212408D02*
Y168378D01*
X135681Y158350D01*
X148991D01*
Y157897D01*
X149231Y157318D01*
X149674Y156875D01*
X150253Y156635D01*
X150879D01*
X151458Y156875D01*
X151901Y157318D01*
X152141Y157897D01*
Y158350D01*
X157259D01*
Y157897D01*
X157499Y157318D01*
X157942Y156875D01*
X158521Y156635D01*
X159147D01*
X159726Y156875D01*
X160169Y157318D01*
X160409Y157897D01*
Y158350D01*
X186718D01*
Y145544D01*
X179839Y138665D01*
X179425Y138808D01*
X179235Y139267D01*
X178792Y139709D01*
X178213Y139949D01*
X177614D01*
X166294Y151269D01*
X165998Y151467D01*
X165649Y151536D01*
X145728D01*
X145535Y151930D01*
X145724Y152387D01*
Y153013D01*
X145485Y153592D01*
X145042Y154035D01*
X144463Y154275D01*
X143836D01*
X143258Y154035D01*
X142815Y153592D01*
X142575Y153013D01*
Y152387D01*
X142764Y151930D01*
X142572Y151536D01*
X138504D01*
X135037Y155003D01*
X134741Y155201D01*
X134392Y155270D01*
X129518D01*
X121311Y163477D01*
Y208580D01*
X125290Y212558D01*
X125654Y212408D01*
D02*
G37*
%LPC*%
G36*
X211365Y221280D02*
X210934D01*
X210536Y221115D01*
X210232Y220810D01*
X210067Y220412D01*
Y219982D01*
X210232Y219584D01*
X210536Y219279D01*
X210934Y219114D01*
X211365D01*
X211763Y219279D01*
X212067Y219584D01*
X212232Y219982D01*
Y220412D01*
X212067Y220810D01*
X211763Y221115D01*
X211365Y221280D01*
D02*
G37*
G36*
Y218114D02*
X210934D01*
X210536Y217949D01*
X210232Y217645D01*
X210067Y217247D01*
Y216816D01*
X210232Y216418D01*
X210536Y216114D01*
X210934Y215949D01*
X211365D01*
X211763Y216114D01*
X212067Y216418D01*
X212232Y216816D01*
Y217247D01*
X212067Y217645D01*
X211763Y217949D01*
X211365Y218114D01*
D02*
G37*
G36*
X211357Y214988D02*
X210926D01*
X210528Y214823D01*
X210224Y214519D01*
X210059Y214121D01*
Y213690D01*
X210224Y213292D01*
X210528Y212988D01*
X210926Y212823D01*
X211357D01*
X211755Y212988D01*
X212060Y213292D01*
X212224Y213690D01*
Y214121D01*
X212060Y214519D01*
X211755Y214823D01*
X211357Y214988D01*
D02*
G37*
G36*
Y211823D02*
X210926D01*
X210528Y211658D01*
X210224Y211353D01*
X210059Y210956D01*
Y210525D01*
X210224Y210127D01*
X210528Y209822D01*
X210926Y209658D01*
X211357D01*
X211755Y209822D01*
X212060Y210127D01*
X212224Y210525D01*
Y210956D01*
X212060Y211353D01*
X211755Y211658D01*
X211357Y211823D01*
D02*
G37*
G36*
Y208681D02*
X210926D01*
X210528Y208516D01*
X210224Y208212D01*
X210059Y207814D01*
Y207383D01*
X210224Y206985D01*
X210528Y206681D01*
X210926Y206516D01*
X211357D01*
X211755Y206681D01*
X212060Y206985D01*
X212224Y207383D01*
Y207814D01*
X212060Y208212D01*
X211755Y208516D01*
X211357Y208681D01*
D02*
G37*
G36*
X214515Y205532D02*
X214084D01*
X213686Y205367D01*
X213381Y205062D01*
X213216Y204664D01*
Y204234D01*
X213381Y203836D01*
X213686Y203531D01*
X214084Y203366D01*
X214515D01*
X214913Y203531D01*
X215217Y203836D01*
X215382Y204234D01*
Y204664D01*
X215217Y205062D01*
X214913Y205367D01*
X214515Y205532D01*
D02*
G37*
G36*
Y199232D02*
X214084D01*
X213686Y199067D01*
X213381Y198763D01*
X213216Y198365D01*
Y197934D01*
X213381Y197536D01*
X213686Y197232D01*
X214084Y197067D01*
X214515D01*
X214913Y197232D01*
X215217Y197536D01*
X215382Y197934D01*
Y198365D01*
X215217Y198763D01*
X214913Y199067D01*
X214515Y199232D01*
D02*
G37*
G36*
X211365Y192933D02*
X210934D01*
X210536Y192768D01*
X210232Y192464D01*
X210067Y192066D01*
Y191635D01*
X210232Y191237D01*
X210536Y190933D01*
X210934Y190768D01*
X211365D01*
X211763Y190933D01*
X212067Y191237D01*
X212232Y191635D01*
Y192066D01*
X212067Y192464D01*
X211763Y192768D01*
X211365Y192933D01*
D02*
G37*
G36*
X214515Y189784D02*
X214084D01*
X213686Y189619D01*
X213381Y189314D01*
X213216Y188916D01*
Y188485D01*
X213381Y188087D01*
X213686Y187783D01*
X214084Y187618D01*
X214515D01*
X214913Y187783D01*
X215217Y188087D01*
X215382Y188485D01*
Y188916D01*
X215217Y189314D01*
X214913Y189619D01*
X214515Y189784D01*
D02*
G37*
G36*
X211349Y186634D02*
X210918D01*
X210521Y186469D01*
X210216Y186164D01*
X210051Y185766D01*
Y185336D01*
X210216Y184938D01*
X210521Y184633D01*
X210918Y184468D01*
X211349D01*
X211747Y184633D01*
X212052Y184938D01*
X212216Y185336D01*
Y185766D01*
X212052Y186164D01*
X211747Y186469D01*
X211349Y186634D01*
D02*
G37*
G36*
X214515Y183484D02*
X214084D01*
X213686Y183319D01*
X213381Y183015D01*
X213216Y182617D01*
Y182186D01*
X213381Y181788D01*
X213686Y181484D01*
X214084Y181319D01*
X214515D01*
X214913Y181484D01*
X215217Y181788D01*
X215382Y182186D01*
Y182617D01*
X215217Y183015D01*
X214913Y183319D01*
X214515Y183484D01*
D02*
G37*
G36*
X230263Y180335D02*
X229832D01*
X229434Y180170D01*
X229129Y179865D01*
X228965Y179467D01*
Y179037D01*
X229129Y178639D01*
X229434Y178334D01*
X229832Y178169D01*
X230263D01*
X230661Y178334D01*
X230965Y178639D01*
X231130Y179037D01*
Y179467D01*
X230965Y179865D01*
X230661Y180170D01*
X230263Y180335D01*
D02*
G37*
G36*
X227113D02*
X226682D01*
X226284Y180170D01*
X225980Y179865D01*
X225815Y179467D01*
Y179037D01*
X225980Y178639D01*
X226284Y178334D01*
X226682Y178169D01*
X227113D01*
X227511Y178334D01*
X227816Y178639D01*
X227980Y179037D01*
Y179467D01*
X227816Y179865D01*
X227511Y180170D01*
X227113Y180335D01*
D02*
G37*
G36*
X223963D02*
X223533D01*
X223135Y180170D01*
X222830Y179865D01*
X222665Y179467D01*
Y179037D01*
X222830Y178639D01*
X223135Y178334D01*
X223533Y178169D01*
X223963D01*
X224361Y178334D01*
X224666Y178639D01*
X224831Y179037D01*
Y179467D01*
X224666Y179865D01*
X224361Y180170D01*
X223963Y180335D01*
D02*
G37*
G36*
X220814D02*
X220383D01*
X219985Y180170D01*
X219681Y179865D01*
X219516Y179467D01*
Y179037D01*
X219681Y178639D01*
X219985Y178334D01*
X220383Y178169D01*
X220814D01*
X221212Y178334D01*
X221516Y178639D01*
X221681Y179037D01*
Y179467D01*
X221516Y179865D01*
X221212Y180170D01*
X220814Y180335D01*
D02*
G37*
G36*
X211365Y180319D02*
X210934D01*
X210536Y180154D01*
X210232Y179850D01*
X210067Y179452D01*
Y179021D01*
X210232Y178623D01*
X210536Y178318D01*
X210934Y178154D01*
X211365D01*
X211763Y178318D01*
X212067Y178623D01*
X212232Y179021D01*
Y179452D01*
X212067Y179850D01*
X211763Y180154D01*
X211365Y180319D01*
D02*
G37*
G36*
X230263Y177185D02*
X229832D01*
X229434Y177020D01*
X229129Y176716D01*
X228965Y176318D01*
Y175887D01*
X229129Y175489D01*
X229434Y175185D01*
X229832Y175020D01*
X230263D01*
X230661Y175185D01*
X230965Y175489D01*
X231130Y175887D01*
Y176318D01*
X230965Y176716D01*
X230661Y177020D01*
X230263Y177185D01*
D02*
G37*
G36*
X227113D02*
X226682D01*
X226284Y177020D01*
X225980Y176716D01*
X225815Y176318D01*
Y175887D01*
X225980Y175489D01*
X226284Y175185D01*
X226682Y175020D01*
X227113D01*
X227511Y175185D01*
X227816Y175489D01*
X227980Y175887D01*
Y176318D01*
X227816Y176716D01*
X227511Y177020D01*
X227113Y177185D01*
D02*
G37*
G36*
X223963D02*
X223533D01*
X223135Y177020D01*
X222830Y176716D01*
X222665Y176318D01*
Y175887D01*
X222830Y175489D01*
X223135Y175185D01*
X223533Y175020D01*
X223963D01*
X224361Y175185D01*
X224666Y175489D01*
X224831Y175887D01*
Y176318D01*
X224666Y176716D01*
X224361Y177020D01*
X223963Y177185D01*
D02*
G37*
G36*
X227113Y221280D02*
X226682D01*
X226284Y221115D01*
X225980Y220810D01*
X225815Y220412D01*
Y219982D01*
X225980Y219584D01*
X226284Y219279D01*
X226682Y219114D01*
X227113D01*
X227511Y219279D01*
X227816Y219584D01*
X227980Y219982D01*
Y220412D01*
X227816Y220810D01*
X227511Y221115D01*
X227113Y221280D01*
D02*
G37*
G36*
X230263Y192933D02*
X229832D01*
X229434Y192768D01*
X229129Y192464D01*
X228965Y192066D01*
Y191635D01*
X229129Y191237D01*
X229434Y190933D01*
X229832Y190768D01*
X230263D01*
X230661Y190933D01*
X230965Y191237D01*
X231130Y191635D01*
Y192066D01*
X230965Y192464D01*
X230661Y192768D01*
X230263Y192933D01*
D02*
G37*
G36*
X233412Y189784D02*
X232981D01*
X232584Y189619D01*
X232279Y189314D01*
X232114Y188916D01*
Y188485D01*
X232279Y188087D01*
X232584Y187783D01*
X232981Y187618D01*
X233412D01*
X233810Y187783D01*
X234115Y188087D01*
X234279Y188485D01*
Y188916D01*
X234115Y189314D01*
X233810Y189619D01*
X233412Y189784D01*
D02*
G37*
G36*
X230263D02*
X229832D01*
X229434Y189619D01*
X229129Y189314D01*
X228965Y188916D01*
Y188485D01*
X229129Y188087D01*
X229434Y187783D01*
X229832Y187618D01*
X230263D01*
X230661Y187783D01*
X230965Y188087D01*
X231130Y188485D01*
Y188916D01*
X230965Y189314D01*
X230661Y189619D01*
X230263Y189784D01*
D02*
G37*
G36*
X178309Y155575D02*
X177683D01*
X177104Y155335D01*
X176661Y154892D01*
X176421Y154313D01*
Y153687D01*
X176661Y153108D01*
X177104Y152665D01*
X177683Y152425D01*
X178309D01*
X178888Y152665D01*
X179331Y153108D01*
X179571Y153687D01*
Y154313D01*
X179331Y154892D01*
X178888Y155335D01*
X178309Y155575D01*
D02*
G37*
G36*
X178115Y144026D02*
X177685D01*
X177287Y143861D01*
X176982Y143557D01*
X176817Y143159D01*
Y142728D01*
X176982Y142330D01*
X177287Y142025D01*
X177685Y141861D01*
X178115D01*
X178513Y142025D01*
X178818Y142330D01*
X178983Y142728D01*
Y143159D01*
X178818Y143557D01*
X178513Y143861D01*
X178115Y144026D01*
D02*
G37*
%LPD*%
D13*
X220598Y220197D02*
X222181Y221779D01*
Y227152D01*
X223108Y228079D01*
X231614D01*
X233197Y226496D01*
X120400Y208957D02*
X141808Y230365D01*
X120400Y163100D02*
Y208957D01*
Y163100D02*
X129141Y154359D01*
X176178Y108225D02*
X227398D01*
X156055Y128348D02*
X176178Y108225D01*
X165649Y150625D02*
X177900Y138374D01*
X138126Y150625D02*
X165649D01*
X134392Y154359D02*
X138126Y150625D01*
X129141Y154359D02*
X134392D01*
X141808Y230365D02*
X141926D01*
X154936Y243375D01*
X227398Y108225D02*
X228073Y108900D01*
X268399D01*
D59*
X198991Y152016D02*
D03*
Y155953D02*
D03*
X142700Y123300D02*
D03*
X298000Y149000D02*
D03*
X293000D02*
D03*
X288000D02*
D03*
X283000D02*
D03*
X278000D02*
D03*
X273000D02*
D03*
X268000D02*
D03*
X263000D02*
D03*
X258000D02*
D03*
X253000D02*
D03*
X238500Y122600D02*
D03*
X234700D02*
D03*
X231100D02*
D03*
X298000Y144000D02*
D03*
X293000D02*
D03*
X288000D02*
D03*
X283000D02*
D03*
X278000D02*
D03*
X273000D02*
D03*
X268000D02*
D03*
X263000D02*
D03*
X258000D02*
D03*
X253000D02*
D03*
X152500Y118300D02*
D03*
Y133100D02*
D03*
X207000D02*
D03*
Y118300D02*
D03*
X147500Y118100D02*
D03*
Y133300D02*
D03*
X242284Y122633D02*
D03*
X245700Y122600D02*
D03*
X226284Y122567D02*
D03*
X202000Y133300D02*
D03*
Y118100D02*
D03*
X118325Y164724D02*
D03*
X191025Y148979D02*
D03*
X188200Y141300D02*
D03*
X156055Y128348D02*
D03*
X157500Y123100D02*
D03*
X239000Y249300D02*
D03*
X140700Y234800D02*
D03*
X202000Y128300D02*
D03*
Y123100D02*
D03*
X188300Y137400D02*
D03*
Y133500D02*
D03*
X177900Y138374D02*
D03*
X267800Y131000D02*
D03*
X268399Y108900D02*
D03*
X199925Y140267D02*
D03*
X171747Y105000D02*
D03*
X158834Y158210D02*
D03*
X119372Y160228D02*
D03*
X177996Y154000D02*
D03*
X217100Y156653D02*
D03*
X210400Y156364D02*
D03*
X144150Y152700D02*
D03*
X150566Y158210D02*
D03*
X189053Y105000D02*
D03*
X212000Y128300D02*
D03*
X142700Y118300D02*
D03*
Y128300D02*
D03*
X212000Y123100D02*
D03*
X152700Y128100D02*
D03*
X273406Y109100D02*
D03*
X178063Y233506D02*
D03*
X133533Y152284D02*
D03*
X133500Y146300D02*
D03*
Y140600D02*
D03*
X188300Y110300D02*
D03*
Y119300D02*
D03*
X188400Y123500D02*
D03*
Y114800D02*
D03*
X188333Y129516D02*
D03*
X133100Y118400D02*
D03*
X133500Y128700D02*
D03*
X133533Y132916D02*
D03*
D62*
X171716Y190941D02*
G03*
X172253Y190404I537J0D01*
G01*
X171716Y191823D02*
G03*
X171179Y192360I-537J0D01*
G01*
X171059D02*
G03*
X170522Y191823I0J-537D01*
G01*
X169985Y190404D02*
G03*
X170522Y190941I0J537D01*
G01*
X169328D02*
G03*
X169866Y190404I537J0D01*
G01*
X169328Y191823D02*
G03*
X168791Y192360I-537J0D01*
G01*
X168672D02*
G03*
X168135Y191823I0J-537D01*
G01*
X167598Y190157D02*
G03*
X168135Y190695I0J537D01*
G01*
X166941D02*
G03*
X167478Y190157I537J0D01*
G01*
X166941Y191823D02*
G03*
X166404Y192360I-537J0D01*
G01*
X166285D02*
G03*
X165747Y191823I0J-537D01*
G01*
X165210Y190157D02*
G03*
X165747Y190695I0J537D01*
G01*
X164554D02*
G03*
X165091Y190157I537J0D01*
G01*
X164554Y191823D02*
G03*
X164017Y192360I-537J0D01*
G01*
X163897D02*
G03*
X163360Y191823I0J-537D01*
G01*
X162823Y190157D02*
G03*
X163360Y190695I0J537D01*
G01*
X162166D02*
G03*
X162704Y190157I537J0D01*
G01*
X162166Y191823D02*
G03*
X161629Y192360I-537J0D01*
G01*
X161510D02*
G03*
X160973Y191823I0J-537D01*
G01*
X160435Y190157D02*
G03*
X160973Y190695I0J537D01*
G01*
X159779D02*
G03*
X160316Y190157I537J0D01*
G01*
X159779Y191823D02*
G03*
X159242Y192360I-537J0D01*
G01*
X159122D02*
G03*
X158585Y191823I0J-537D01*
G01*
X158048Y190157D02*
G03*
X158585Y190695I0J537D01*
G01*
X157392D02*
G03*
X157929Y190157I537J0D01*
G01*
X157392Y191823D02*
G03*
X156854Y192360I-537J0D01*
G01*
X156735D02*
G03*
X156198Y191823I0J-537D01*
G01*
X155661Y189705D02*
G03*
X156198Y190242I0J537D01*
G01*
X155004D02*
G03*
X155541Y189705I537J0D01*
G01*
X155004Y191823D02*
G03*
X154467Y192360I-537J0D01*
G01*
X154348D02*
G03*
X153810Y191823I0J-537D01*
G01*
X153273Y190157D02*
G03*
X153810Y190695I0J537D01*
G01*
X146596Y183701D02*
G03*
X146059Y183164I0J-537D01*
G01*
X145522Y182141D02*
G03*
X146059Y182678I0J537D01*
G01*
X144865D02*
G03*
X145402Y182141I537J0D01*
G01*
X144865Y183951D02*
G03*
X144328Y184488I-537J0D01*
G01*
X144209D02*
G03*
X143671Y183951I0J-537D01*
G01*
X143134Y181634D02*
G03*
X143671Y182171I0J537D01*
G01*
X142478D02*
G03*
X143015Y181634I537J0D01*
G01*
X142478Y183951D02*
G03*
X141940Y184488I-537J0D01*
G01*
X141821D02*
G03*
X141284Y183951I0J-537D01*
G01*
X140747Y181634D02*
G03*
X141284Y182171I0J537D01*
G01*
X140090D02*
G03*
X140628Y181634I537J0D01*
G01*
X140090Y183951D02*
G03*
X139553Y184488I-537J0D01*
G01*
X139434D02*
G03*
X138897Y183951I0J-537D01*
G01*
X138359Y181634D02*
G03*
X138897Y182171I0J537D01*
G01*
X137703D02*
G03*
X138240Y181634I537J0D01*
G01*
X137703Y183951D02*
G03*
X137166Y184488I-537J0D01*
G01*
X137046D02*
G03*
X136509Y183951I0J-537D01*
G01*
X135972Y181634D02*
G03*
X136509Y182171I0J537D01*
G01*
X135316D02*
G03*
X135853Y181634I537J0D01*
G01*
X135316Y183164D02*
G03*
X134778Y183701I-537J0D01*
G01*
X164423Y221815D02*
G03*
X165183Y221815I380J380D01*
G01*
X163892Y222346D02*
G03*
X163132Y222346I-380J-380D01*
G01*
X163048Y222262D02*
G03*
X163048Y221502I380J-380D01*
G01*
X163579Y220211D02*
G03*
X163579Y220971I-380J380D01*
G01*
X162735Y220127D02*
G03*
X163495Y220127I380J380D01*
G01*
X160664Y222198D02*
G03*
X159904Y222198I-380J-380D01*
G01*
X159819Y222114D02*
G03*
X159819Y221354I380J-380D01*
G01*
X161891Y218523D02*
G03*
X161891Y219283I-380J380D01*
G01*
X161047Y218439D02*
G03*
X161806Y218439I380J380D01*
G01*
X158975Y220510D02*
G03*
X158216Y220510I-380J-380D01*
G01*
X158131Y220426D02*
G03*
X158131Y219666I380J-380D01*
G01*
X160203Y216835D02*
G03*
X160203Y217595I-380J380D01*
G01*
X169035Y221365D02*
G03*
X169794Y221365I380J380D01*
G01*
X169035Y221366D02*
G03*
X168275Y221366I-380J-380D01*
G01*
X168191Y221281D02*
G03*
X168191Y220521I380J-380D01*
G01*
X168191Y219762D02*
G03*
X168191Y220521I-380J380D01*
G01*
X167347Y219677D02*
G03*
X168106Y219677I380J380D01*
G01*
X166344Y220680D02*
G03*
X165584Y220680I-380J-380D01*
G01*
X165499Y220596D02*
G03*
X165499Y219836I380J-380D01*
G01*
X166503Y218074D02*
G03*
X166503Y218833I-380J380D01*
G01*
X165658Y217989D02*
G03*
X166418Y217989I380J380D01*
G01*
X164444Y219203D02*
G03*
X163685Y219203I-380J-380D01*
G01*
X163600Y219119D02*
G03*
X163600Y218359I380J-380D01*
G01*
X164814Y216386D02*
G03*
X164814Y217145I-380J380D01*
G01*
X163970Y216301D02*
G03*
X164730Y216301I380J380D01*
G01*
X162756Y217515D02*
G03*
X161996Y217515I-380J-380D01*
G01*
X161912Y217431D02*
G03*
X161912Y216671I380J-380D01*
G01*
X163126Y214697D02*
G03*
X163126Y215457I-380J380D01*
G01*
X162282Y214613D02*
G03*
X163042Y214613I380J380D01*
G01*
X161068Y215827D02*
G03*
X160308Y215827I-380J-380D01*
G01*
X160224Y215743D02*
G03*
X160224Y214983I380J-380D01*
G01*
X161438Y213009D02*
G03*
X161438Y213769I-380J380D01*
G01*
X160594Y212925D02*
G03*
X161354Y212925I380J380D01*
G01*
X159380Y214139D02*
G03*
X158620Y214139I-380J-380D01*
G01*
X158536Y214055D02*
G03*
X158536Y213295I380J-380D01*
G01*
X159750Y211321D02*
G03*
X159750Y212081I-380J380D01*
G01*
X158906Y211237D02*
G03*
X159666Y211237I380J380D01*
G01*
X157692Y212451D02*
G03*
X156932Y212451I-380J-380D01*
G01*
X156848Y212366D02*
G03*
X156848Y211607I380J-380D01*
G01*
X158062Y209633D02*
G03*
X158062Y210393I-380J380D01*
G01*
X228162Y230817D02*
G03*
X228699Y230279I537J0D01*
G01*
X228162Y233296D02*
G03*
X227625Y233834I-537J0D01*
G01*
X227505D02*
G03*
X226968Y233296I0J-537D01*
G01*
X226431Y229258D02*
G03*
X226968Y229795I0J537D01*
G01*
X225774D02*
G03*
X226311Y229258I537J0D01*
G01*
X225774Y233296D02*
G03*
X225237Y233834I-537J0D01*
G01*
X225118D02*
G03*
X224581Y233296I0J-537D01*
G01*
X224043Y230279D02*
G03*
X224581Y230817I0J537D01*
G01*
X243630Y225279D02*
G03*
X244167Y225817I0J537D01*
G01*
X244704Y228213D02*
G03*
X244167Y227675I0J-537D01*
G01*
X245361D02*
G03*
X244824Y228213I-537J0D01*
G01*
X245361Y224277D02*
G03*
X245898Y223740I537J0D01*
G01*
X246017D02*
G03*
X246554Y224277I0J537D01*
G01*
X247092Y228213D02*
G03*
X246554Y227675I0J-537D01*
G01*
X247748D02*
G03*
X247211Y228213I-537J0D01*
G01*
X247748Y223649D02*
G03*
X248285Y223112I537J0D01*
G01*
X248405D02*
G03*
X248942Y223649I0J537D01*
G01*
X249479Y228144D02*
G03*
X248942Y227607I0J-537D01*
G01*
X250136D02*
G03*
X249599Y228144I-537J0D01*
G01*
X250136Y225817D02*
G03*
X250673Y225279I537J0D01*
G01*
X240723Y221476D02*
G03*
X241261Y222013I0J537D01*
G01*
X241798Y223186D02*
G03*
X241261Y222649I0J-537D01*
G01*
X242454D02*
G03*
X241917Y223186I-537J0D01*
G01*
X242454Y217444D02*
G03*
X242991Y216907I537J0D01*
G01*
X243111D02*
G03*
X243648Y217444I0J537D01*
G01*
X244185Y221181D02*
G03*
X243648Y220644I0J-537D01*
G01*
X244842D02*
G03*
X244305Y221181I-537J0D01*
G01*
X244842Y217444D02*
G03*
X245379Y216907I537J0D01*
G01*
X245498D02*
G03*
X246036Y217444I0J537D01*
G01*
X246573Y221687D02*
G03*
X246036Y221149I0J-537D01*
G01*
X247229D02*
G03*
X246692Y221687I-537J0D01*
G01*
X247229Y217444D02*
G03*
X247766Y216907I537J0D01*
G01*
X247886D02*
G03*
X248423Y217444I0J537D01*
G01*
X248960Y222325D02*
G03*
X248423Y221787I0J-537D01*
G01*
X249617D02*
G03*
X249079Y222325I-537J0D01*
G01*
X249617Y221718D02*
G03*
X250154Y221181I537J0D01*
G01*
X243392Y215230D02*
G03*
X242855Y215768I-537J0D01*
G01*
X243392Y214277D02*
G03*
X243930Y213740I537J0D01*
G01*
X244049D02*
G03*
X244586Y214277I0J537D01*
G01*
X245123Y216120D02*
G03*
X244586Y215583I0J-537D01*
G01*
X245780D02*
G03*
X245243Y216120I-537J0D01*
G01*
X245780Y214028D02*
G03*
X246317Y213490I537J0D01*
G01*
X246436D02*
G03*
X246973Y214028I0J537D01*
G01*
X247511Y216120D02*
G03*
X246973Y215583I0J-537D01*
G01*
X248167D02*
G03*
X247630Y216120I-537J0D01*
G01*
X248167Y212384D02*
G03*
X248704Y211847I537J0D01*
G01*
X248824D02*
G03*
X249361Y212384I0J537D01*
G01*
X249898Y220082D02*
G03*
X249361Y219545I0J-537D01*
G01*
X250554D02*
G03*
X250017Y220082I-537J0D01*
G01*
X250554Y216305D02*
G03*
X251092Y215768I537J0D01*
G01*
X247150Y211070D02*
G03*
X246613Y211607I-537J0D01*
G01*
X248881Y211060D02*
G03*
X248343Y210523I0J-537D01*
G01*
X247806Y207186D02*
G03*
X248343Y207723I0J537D01*
G01*
X247150D02*
G03*
X247687Y207186I537J0D01*
G01*
X246493Y211607D02*
G03*
X245956Y211070I0J-537D01*
G01*
X244762Y210523D02*
G03*
X244225Y211060I-537J0D01*
G01*
X244762Y206595D02*
G03*
X245300Y206058I537J0D01*
G01*
X245419D02*
G03*
X245956Y206595I0J537D01*
G01*
X159332Y200716D02*
G03*
X159332Y201476I-380J380D01*
G01*
X157422Y204146D02*
G03*
X157422Y203386I380J-380D01*
G01*
X158266Y204230D02*
G03*
X157506Y204230I-380J-380D01*
G01*
X164416Y198080D02*
G03*
X165176Y198080I380J380D01*
G01*
X165260Y198164D02*
G03*
X165260Y198924I-380J380D01*
G01*
X161731Y203213D02*
G03*
X161731Y202453I380J-380D01*
G01*
X162575Y203297D02*
G03*
X161815Y203297I-380J-380D01*
G01*
X166104Y199768D02*
G03*
X166864Y199768I380J380D01*
G01*
X166948Y199852D02*
G03*
X166948Y200612I-380J380D01*
G01*
X163421Y204899D02*
G03*
X163421Y204139I380J-380D01*
G01*
X164266Y204983D02*
G03*
X163506Y204983I-380J-380D01*
G01*
X167792Y201456D02*
G03*
X168552Y201456I380J380D01*
G01*
X168636Y201540D02*
G03*
X168636Y202300I-380J380D01*
G01*
X165079Y206617D02*
G03*
X165079Y205858I380J-380D01*
G01*
X165923Y206702D02*
G03*
X165163Y206702I-380J-380D01*
G01*
X168324Y204300D02*
G03*
X169084Y204300I380J380D01*
G01*
X169168Y204385D02*
G03*
X169168Y205145I-380J380D01*
G01*
X166844Y208228D02*
G03*
X166844Y207469I380J-380D01*
G01*
X157364Y205939D02*
G03*
X157364Y206699I-380J380D01*
G01*
X157309Y207513D02*
G03*
X157309Y206753I380J-380D01*
G01*
X158153Y207598D02*
G03*
X157393Y207598I-380J-380D01*
G01*
X161222Y204529D02*
G03*
X161981Y204529I380J380D01*
G01*
X162066Y204613D02*
G03*
X162066Y205373I-380J380D01*
G01*
X158870Y209328D02*
G03*
X158870Y208568I380J-380D01*
G01*
X159715Y209412D02*
G03*
X158955Y209412I-380J-380D01*
G01*
X162912Y206215D02*
G03*
X163672Y206215I380J380D01*
G01*
X163756Y206299D02*
G03*
X163756Y207059I-380J380D01*
G01*
X160559Y211016D02*
G03*
X160559Y210257I380J-380D01*
G01*
X161403Y211101D02*
G03*
X160643Y211101I-380J-380D01*
G01*
X163836Y208668D02*
G03*
X164595Y208668I380J380D01*
G01*
X164680Y208752D02*
G03*
X164680Y209512I-380J380D01*
G01*
X162247Y212704D02*
G03*
X162247Y211945I380J-380D01*
G01*
X156122Y186609D02*
G03*
X155585Y187146I-537J0D01*
G01*
X156122Y185025D02*
G03*
X156659Y184488I537J0D01*
G01*
X156779D02*
G03*
X157316Y185025I0J537D01*
G01*
X157853Y189370D02*
G03*
X157316Y188833I0J-537D01*
G01*
X158509D02*
G03*
X157972Y189370I-537J0D01*
G01*
X158509Y185025D02*
G03*
X159046Y184488I537J0D01*
G01*
X159166D02*
G03*
X159703Y185025I0J537D01*
G01*
X160240Y189370D02*
G03*
X159703Y188833I0J-537D01*
G01*
X160897D02*
G03*
X160360Y189370I-537J0D01*
G01*
X160897Y185025D02*
G03*
X161434Y184488I537J0D01*
G01*
X161553D02*
G03*
X162090Y185025I0J537D01*
G01*
X162628Y189370D02*
G03*
X162090Y188833I0J-537D01*
G01*
X163284D02*
G03*
X162747Y189370I-537J0D01*
G01*
X163284Y185025D02*
G03*
X163821Y184488I537J0D01*
G01*
X163941D02*
G03*
X164478Y185025I0J537D01*
G01*
X165015Y189370D02*
G03*
X164478Y188833I0J-537D01*
G01*
X165672D02*
G03*
X165134Y189370I-537J0D01*
G01*
X165672Y185025D02*
G03*
X166209Y184488I537J0D01*
G01*
X166328D02*
G03*
X166865Y185025I0J537D01*
G01*
X167402Y189370D02*
G03*
X166865Y188833I0J-537D01*
G01*
X168059D02*
G03*
X167522Y189370I-537J0D01*
G01*
X168059Y185360D02*
G03*
X168596Y184822I537J0D01*
G01*
X168716D02*
G03*
X169253Y185360I0J537D01*
G01*
X169790Y187146D02*
G03*
X169253Y186609I0J-537D01*
G01*
X154272Y193147D02*
G03*
X154809Y193684I0J537D01*
G01*
X155346Y195512D02*
G03*
X154809Y194975I0J-537D01*
G01*
X156003D02*
G03*
X155465Y195512I-537J0D01*
G01*
X156003Y193684D02*
G03*
X156540Y193147I537J0D01*
G01*
X156659D02*
G03*
X157196Y193684I0J537D01*
G01*
X157733Y195512D02*
G03*
X157196Y194975I0J-537D01*
G01*
X158390D02*
G03*
X157853Y195512I-537J0D01*
G01*
X158390Y193684D02*
G03*
X158927Y193147I537J0D01*
G01*
X159046D02*
G03*
X159584Y193684I0J537D01*
G01*
X160121Y195512D02*
G03*
X159584Y194975I0J-537D01*
G01*
X160777D02*
G03*
X160240Y195512I-537J0D01*
G01*
X160777Y193684D02*
G03*
X161314Y193147I537J0D01*
G01*
X161434D02*
G03*
X161971Y193684I0J537D01*
G01*
X162508Y195393D02*
G03*
X161971Y194856I0J-537D01*
G01*
X163165D02*
G03*
X162628Y195393I-537J0D01*
G01*
X163165Y193684D02*
G03*
X163702Y193147I537J0D01*
G01*
X157958Y180309D02*
G03*
X157421Y180847I-537J0D01*
G01*
X157958Y178726D02*
G03*
X158496Y178189I537J0D01*
G01*
X158615D02*
G03*
X159152Y178726I0J537D01*
G01*
X159689Y182093D02*
G03*
X159152Y181556I0J-537D01*
G01*
X160346D02*
G03*
X159809Y182093I-537J0D01*
G01*
X160346Y178726D02*
G03*
X160883Y178189I537J0D01*
G01*
X161002D02*
G03*
X161540Y178726I0J537D01*
G01*
X162077Y182093D02*
G03*
X161540Y181556I0J-537D01*
G01*
X162733D02*
G03*
X162196Y182093I-537J0D01*
G01*
X162733Y178895D02*
G03*
X163270Y178358I537J0D01*
G01*
X163390D02*
G03*
X163927Y178895I0J537D01*
G01*
X164464Y181921D02*
G03*
X163927Y181384I0J-537D01*
G01*
X165121D02*
G03*
X164584Y181921I-537J0D01*
G01*
X165121Y181384D02*
G03*
X165658Y180847I537J0D01*
G01*
X157421Y171398D02*
G03*
X157958Y171935I0J537D01*
G01*
X158496Y173760D02*
G03*
X157958Y173223I0J-537D01*
G01*
X159152D02*
G03*
X158615Y173760I-537J0D01*
G01*
X159152Y169765D02*
G03*
X159689Y169228I537J0D01*
G01*
X159809D02*
G03*
X160346Y169765I0J537D01*
G01*
X160883Y173760D02*
G03*
X160346Y173223I0J-537D01*
G01*
X161540D02*
G03*
X161002Y173760I-537J0D01*
G01*
X161540Y169931D02*
G03*
X162077Y169393I537J0D01*
G01*
X162196D02*
G03*
X162733Y169931I0J537D01*
G01*
X163270Y171398D02*
G03*
X162733Y170861I0J-537D01*
G01*
X168235Y198150D02*
G03*
X168772Y198687I0J537D01*
G01*
X169309Y199661D02*
G03*
X168772Y199124I0J-537D01*
G01*
X169965D02*
G03*
X169428Y199661I-537J0D01*
G01*
X169965Y194472D02*
G03*
X170502Y193935I537J0D01*
G01*
X170622D02*
G03*
X171159Y194472I0J537D01*
G01*
X171696Y199661D02*
G03*
X171159Y199124I0J-537D01*
G01*
X172353D02*
G03*
X171816Y199661I-537J0D01*
G01*
X172353Y194553D02*
G03*
X172890Y194016I537J0D01*
G01*
X173009D02*
G03*
X173546Y194553I0J537D01*
G01*
X174084Y198150D02*
G03*
X173546Y197612I0J-537D01*
G01*
X141969Y174547D02*
G03*
X142506Y175084I0J537D01*
G01*
X143043Y178628D02*
G03*
X142506Y178091I0J-537D01*
G01*
X143699D02*
G03*
X143162Y178628I-537J0D01*
G01*
X143699Y174980D02*
G03*
X144237Y174443I537J0D01*
G01*
X144356D02*
G03*
X144893Y174980I0J537D01*
G01*
X145430Y178628D02*
G03*
X144893Y178091I0J-537D01*
G01*
X146087D02*
G03*
X145550Y178628I-537J0D01*
G01*
X146087Y175084D02*
G03*
X146624Y174547I537J0D01*
G01*
X153957D02*
G03*
X154494Y175084I0J537D01*
G01*
X155032Y176614D02*
G03*
X154494Y176077I0J-537D01*
G01*
X155688D02*
G03*
X155151Y176614I-537J0D01*
G01*
X155688Y174815D02*
G03*
X156225Y174277I537J0D01*
G01*
X156345D02*
G03*
X156882Y174815I0J537D01*
G01*
X157419Y176614D02*
G03*
X156882Y176077I0J-537D01*
G01*
X158075D02*
G03*
X157538Y176614I-537J0D01*
G01*
X158075Y175084D02*
G03*
X158613Y174547I537J0D01*
G01*
X158732D02*
G03*
X159269Y175084I0J537D01*
G01*
X159806Y176614D02*
G03*
X159269Y176077I0J-537D01*
G01*
X160463D02*
G03*
X159926Y176614I-537J0D01*
G01*
X160463Y175084D02*
G03*
X161000Y174547I537J0D01*
G01*
X161119D02*
G03*
X161657Y175084I0J537D01*
G01*
X162194Y176614D02*
G03*
X161657Y176077I0J-537D01*
G01*
X162850D02*
G03*
X162313Y176614I-537J0D01*
G01*
X162850Y174815D02*
G03*
X163388Y174277I537J0D01*
G01*
X163507D02*
G03*
X164044Y174815I0J537D01*
G01*
X164581Y176539D02*
G03*
X164044Y176002I0J-537D01*
G01*
X165238D02*
G03*
X164700Y176539I-537J0D01*
G01*
X165238Y175084D02*
G03*
X165775Y174547I537J0D01*
G01*
X264500Y235500D02*
X268000Y239000D01*
X203571Y211278D02*
X208500Y216207D01*
X220189Y235500D02*
X264500D01*
X213020Y228331D02*
X220189Y235500D01*
X208500Y216207D02*
Y222506D01*
X211025Y225031D01*
X213020Y226557D02*
Y228331D01*
X211025Y225031D02*
X211494D01*
X213020Y226557D01*
X203571Y210809D02*
Y211278D01*
X195462Y203169D02*
X195932D01*
X203571Y210809D01*
X192252Y201307D02*
X193600D01*
X195462Y203169D01*
X264809Y159000D02*
X268000D01*
X196484Y165927D02*
X197253Y166695D01*
Y170314D01*
X198478Y171539D01*
X200287D01*
X201701Y172953D01*
X236496Y154593D02*
X237183Y155280D01*
X204539Y154593D02*
X236496D01*
X196484Y162648D02*
X204539Y154593D01*
X252144Y156067D02*
X261877D01*
X237183Y155280D02*
X251357D01*
X261877Y156067D02*
X264809Y159000D01*
X251357Y155280D02*
X252144Y156067D01*
X196484Y162648D02*
Y165927D01*
X177310Y190404D02*
X186059D01*
X172253D02*
X177310D01*
X171716Y190941D02*
Y191823D01*
X171059Y192360D02*
X171179D01*
X170522Y190941D02*
Y191823D01*
X169866Y190404D02*
X169985D01*
X169328Y190941D02*
Y191823D01*
X168672Y192360D02*
X168791D01*
X168135Y190695D02*
Y191823D01*
X167478Y190157D02*
X167598D01*
X166941Y190695D02*
Y191823D01*
X166285Y192360D02*
X166404D01*
X165747Y190695D02*
Y191823D01*
X165091Y190157D02*
X165210D01*
X164554Y190695D02*
Y191823D01*
X163897Y192360D02*
X164017D01*
X163360Y190695D02*
Y191823D01*
X162704Y190157D02*
X162823D01*
X162166Y190695D02*
Y191823D01*
X161510Y192360D02*
X161629D01*
X160973Y190695D02*
Y191823D01*
X160316Y190157D02*
X160435D01*
X159779Y190695D02*
Y191823D01*
X159122Y192360D02*
X159242D01*
X158585Y190695D02*
Y191823D01*
X157929Y190157D02*
X158048D01*
X157392Y190695D02*
Y191823D01*
X156735Y192360D02*
X156854D01*
X156198Y190242D02*
Y191823D01*
X155541Y189705D02*
X155661D01*
X155004Y190242D02*
Y191823D01*
X154348Y192360D02*
X154467D01*
X153810Y190695D02*
Y191823D01*
X153076Y190157D02*
X153273D01*
X146596Y183701D02*
X152666D01*
X146059Y182678D02*
Y183164D01*
X145402Y182141D02*
X145522D01*
X144865Y182678D02*
Y183951D01*
X144209Y184488D02*
X144328D01*
X143671Y182171D02*
Y183951D01*
X143015Y181634D02*
X143134D01*
X142478Y182171D02*
Y183951D01*
X141821Y184488D02*
X141940D01*
X141284Y182171D02*
Y183951D01*
X140628Y181634D02*
X140747D01*
X140090Y182171D02*
Y183951D01*
X139434Y184488D02*
X139553D01*
X138897Y182171D02*
Y183951D01*
X138240Y181634D02*
X138359D01*
X137703Y182171D02*
Y183951D01*
X137046Y184488D02*
X137166D01*
X136509Y182171D02*
Y183951D01*
X135853Y181634D02*
X135972D01*
X135316Y182171D02*
Y183164D01*
X133388Y183701D02*
X134778D01*
X152666D02*
X187252D01*
X165183Y221815D02*
X170174Y226807D01*
X163892Y222346D02*
X164423Y221815D01*
X163048Y222262D02*
X163132Y222346D01*
X163048Y221502D02*
X163579Y220971D01*
X163579Y220971D02*
X163579Y220971D01*
X163495Y220127D02*
X163579Y220211D01*
X162735Y220127D02*
X162735Y220127D01*
X160664Y222198D02*
X162735Y220127D01*
X160664Y222198D02*
X160664Y222198D01*
X159819Y222114D02*
X159904Y222198D01*
X159819Y221354D02*
X159819Y221354D01*
X161891Y219283D01*
X161891Y219283D02*
X161891Y219283D01*
X161806Y218439D02*
X161891Y218523D01*
X161047Y218439D02*
X161047Y218439D01*
X158975Y220510D02*
X161047Y218439D01*
X158975Y220510D02*
X158975Y220510D01*
X158131Y220426D02*
X158216Y220510D01*
X158131Y219666D02*
X158131Y219666D01*
X160203Y217595D01*
X160203Y217595D02*
X160203Y217595D01*
X160063Y216696D02*
X160203Y216835D01*
X170876Y222447D02*
X173649Y225220D01*
X169794Y221365D02*
X170876Y222447D01*
X169035Y221366D02*
X169035Y221365D01*
X168191Y221281D02*
X168275Y221366D01*
X168191Y220521D02*
X168191Y220521D01*
X168191Y220521D02*
X168191Y220521D01*
X168106Y219677D02*
X168191Y219762D01*
X167347Y219677D02*
X167347Y219677D01*
X166344Y220680D02*
X167347Y219677D01*
X165499Y220596D02*
X165584Y220680D01*
X165499Y219836D02*
X166503Y218833D01*
X166503Y218833D02*
X166503Y218833D01*
X166418Y217989D02*
X166503Y218074D01*
X165658Y217989D02*
X165658Y217989D01*
X164444Y219203D02*
X165658Y217989D01*
X164444Y219203D02*
X164444Y219203D01*
X163600Y219119D02*
X163685Y219203D01*
X163600Y218359D02*
X163600Y218359D01*
X164814Y217145D01*
X164814Y217145D02*
X164814Y217145D01*
X164730Y216301D02*
X164814Y216386D01*
X163970Y216301D02*
X163970Y216301D01*
X162756Y217515D02*
X163970Y216301D01*
X162756Y217515D02*
X162756Y217515D01*
X161912Y217431D02*
X161996Y217515D01*
X161912Y216671D02*
X161912Y216671D01*
X163126Y215457D01*
X163126Y215457D02*
X163126Y215457D01*
X163042Y214613D02*
X163126Y214697D01*
X162282Y214613D02*
X162282Y214613D01*
X161068Y215827D02*
X162282Y214613D01*
X161068Y215827D02*
X161068Y215827D01*
X160224Y215743D02*
X160308Y215827D01*
X160224Y214983D02*
X160224Y214983D01*
X161438Y213769D01*
X161438Y213769D02*
X161438Y213769D01*
X161354Y212925D02*
X161438Y213009D01*
X160594Y212925D02*
X160594Y212925D01*
X159380Y214139D02*
X160594Y212925D01*
X159380Y214139D02*
X159380Y214139D01*
X158536Y214055D02*
X158620Y214139D01*
X158536Y213295D02*
X158536Y213295D01*
X159750Y212081D01*
X159750Y212081D02*
X159750Y212081D01*
X159666Y211237D02*
X159750Y211321D01*
X158906Y211237D02*
X158906Y211237D01*
X157692Y212451D02*
X158906Y211237D01*
X157692Y212451D02*
X157692Y212451D01*
X156848Y212366D02*
X156932Y212451D01*
X156848Y211607D02*
X156848Y211607D01*
X158062Y210393D01*
X158062Y210393D02*
X158062Y210393D01*
X157923Y209494D02*
X158062Y209633D01*
X173649Y225220D02*
X174030D01*
X177134Y228324D01*
X150925Y196299D02*
X152500Y197874D01*
X177134Y228324D02*
X184124D01*
X223764Y223362D02*
X225618Y225217D01*
X223764Y223346D02*
Y223362D01*
X228699Y230279D02*
X231694D01*
X228162Y230817D02*
Y233296D01*
X227505Y233834D02*
X227625D01*
X226968Y229795D02*
Y233296D01*
X226311Y229258D02*
X226431D01*
X225774Y229795D02*
Y233296D01*
X225118Y233834D02*
X225237D01*
X224581Y230817D02*
Y233296D01*
X223847Y230279D02*
X224043D01*
X231694D02*
X251720D01*
X222572D02*
X223847D01*
X219024Y226731D02*
X222572Y230279D01*
X251720D02*
X253000Y229000D01*
X220598Y217047D02*
X221878Y215768D01*
X241465D01*
X231327Y221476D02*
X240527D01*
X230047Y220197D02*
X231327Y221476D01*
X219319Y190571D02*
X220598Y191850D01*
X222468Y186831D02*
Y192380D01*
X226061Y195972D01*
X247900D01*
X219319Y185021D02*
Y190571D01*
X223218Y168524D02*
X239436D01*
X240239Y167720D01*
X220179Y196760D02*
X245827D01*
X222468Y186831D02*
X223748Y185551D01*
X220068Y184272D02*
X238913D01*
X225618Y186831D02*
X226898Y185551D01*
X225618Y186831D02*
Y192380D01*
X228423Y195185D02*
X248712D01*
X225618Y192380D02*
X228423Y195185D01*
X182476Y251724D02*
X188600Y245600D01*
X222468Y200020D02*
X246943D01*
X245827Y196760D02*
X249347Y200279D01*
X200421Y162974D02*
X202314Y161081D01*
X200421Y162974D02*
Y165374D01*
X169478Y219936D02*
X172765D01*
X166529Y215177D02*
X184673D01*
X166476Y215124D02*
X166529Y215177D01*
X184673D02*
X185953Y213898D01*
X191169Y186278D02*
Y191124D01*
X190966Y185015D02*
Y186075D01*
X187762Y188701D02*
X189102D01*
X190179Y186401D02*
X190382Y186604D01*
X190179Y184689D02*
Y186401D01*
X189102Y191850D02*
X190382Y190571D01*
Y186604D02*
Y190571D01*
X190966Y186075D02*
X191169Y186278D01*
X186059Y190404D02*
X187762Y188701D01*
X190751Y191542D02*
X191169Y191124D01*
X223748Y210748D02*
X225028Y212028D01*
X240437D01*
X191169Y179509D02*
Y184812D01*
X190382Y181872D02*
Y184486D01*
X189357Y180847D02*
X190382Y181872D01*
X197272Y162974D02*
Y165374D01*
X150668Y191552D02*
X152263Y193147D01*
X181524Y187421D02*
X182803Y188701D01*
X189042Y177382D02*
X191169Y179509D01*
X186013Y174823D02*
X188572Y177382D01*
X189042D01*
X197147Y171549D02*
X198551Y172953D01*
X194122Y170333D02*
X195338Y171549D01*
X194122Y163897D02*
Y170333D01*
X220598Y198150D02*
X222468Y200020D01*
X219194Y164908D02*
X220598Y163504D01*
X128878Y180551D02*
X130453Y178976D01*
X184145Y205791D02*
X185953Y207598D01*
X223218Y203169D02*
X248979D01*
X217401Y164908D02*
X219194D01*
X216123Y166186D02*
X217401Y164908D01*
X216123Y166186D02*
Y172954D01*
X214814Y174263D02*
X216123Y172954D01*
X214329Y174263D02*
X214814D01*
X212869Y175723D02*
X214329Y174263D01*
X212869Y175723D02*
Y176482D01*
X213769Y177382D01*
X215943D01*
X218502Y174823D01*
X220538D01*
X221878Y173483D01*
Y169864D02*
Y173483D01*
Y169864D02*
X223218Y168524D01*
X240239Y167720D02*
X288530D01*
X290500Y169691D01*
Y173310D01*
X288530Y175279D02*
X290500Y173310D01*
X276780Y175279D02*
X288530D01*
X274220Y172721D02*
X276780Y175279D01*
X262470Y172721D02*
X274220D01*
X261191Y174000D02*
X262470Y172721D01*
X258000Y174000D02*
X261191D01*
X240483Y175279D02*
X263530D01*
X239436Y174232D02*
X240483Y175279D01*
X218744Y166698D02*
X220163Y165279D01*
X218744Y166698D02*
Y173467D01*
X216109Y176102D02*
X218744Y173467D01*
X214299Y176102D02*
X216109D01*
X220163Y165279D02*
X288530D01*
X225028Y171673D02*
X285673D01*
X288000Y174000D01*
X213754Y162224D02*
X296224D01*
X202314Y161081D02*
X257728D01*
X263530Y175279D02*
X264809Y174000D01*
X268000D01*
X219319Y185021D02*
X220068Y184272D01*
X238913D02*
X249920Y195280D01*
X271089D01*
X283000Y207190D01*
Y209000D01*
X247900Y195972D02*
X249473Y197545D01*
X248712Y195185D02*
X249594Y196067D01*
X261877D01*
X271089Y205279D01*
X249473Y197545D02*
X258355D01*
X271089Y205279D02*
X274279D01*
X278000Y209000D01*
X258355Y197545D02*
X266089Y205279D01*
X269280D01*
X273000Y209000D01*
X219319Y200020D02*
X220598Y201299D01*
X219319Y197620D02*
Y200020D01*
Y197620D02*
X220179Y196760D01*
X249347Y200279D02*
X256089D01*
X261089Y205279D01*
X264280D01*
X268000Y209000D01*
X246943Y200020D02*
X252203Y205279D01*
X259279D01*
X263000Y209000D01*
X248979Y203169D02*
X254809Y209000D01*
X222468Y203919D02*
X223218Y203169D01*
X222468Y206319D02*
X223748Y207598D01*
X222468Y203919D02*
Y206319D01*
X254809Y209000D02*
X258000D01*
X223748Y204449D02*
X225028Y205728D01*
X240026D01*
X240484Y205270D01*
X249270D01*
X253000Y209000D01*
X230047Y172953D02*
X231327Y174232D01*
X239436D01*
X203571D02*
X204850Y172953D01*
X194856Y174232D02*
X203571D01*
X190972Y170349D02*
X194856Y174232D01*
X190972Y161466D02*
Y170349D01*
Y161466D02*
X198469Y153970D01*
X199543D01*
X200792Y152720D01*
X271721D01*
X273000Y154000D01*
X195338Y171549D02*
X197147D01*
X194122Y163897D02*
X204213Y153805D01*
X250996D01*
X252470Y155280D01*
X269280D01*
X273000Y159000D01*
X201246D02*
X253000D01*
X197272Y162974D02*
X201246Y159000D01*
X200421Y165374D02*
X201701Y166654D01*
X257728Y161081D02*
X259809Y159000D01*
X263000D01*
X197272Y165374D02*
X198551Y166654D01*
X296224Y162224D02*
X298000Y164000D01*
X213004Y162974D02*
X213754Y162224D01*
X213004Y162974D02*
Y171642D01*
X214315Y172953D01*
X288530Y165279D02*
X289809Y164000D01*
X293000D01*
X223748Y172953D02*
X225028Y171673D01*
X233197Y179252D02*
X235067Y181122D01*
X236876D01*
X246034Y190279D01*
X263530D01*
X265671Y188139D01*
Y186329D02*
Y188139D01*
Y186329D02*
X268000Y184000D01*
X236347Y176102D02*
X238216Y177972D01*
Y179987D01*
X245631Y187401D01*
X261401D01*
X263000Y189000D01*
X240026Y225217D02*
X240089Y225279D01*
X243433D01*
X225618Y225217D02*
X240026D01*
X254279Y225279D02*
X258000Y229000D01*
X252000Y225279D02*
X254279D01*
X243433D02*
X243630D01*
X244167Y225817D02*
Y227675D01*
X244704Y228213D02*
X244824D01*
X245361Y224277D02*
Y227675D01*
X245898Y223740D02*
X246017D01*
X246554Y224277D02*
Y227675D01*
X247092Y228213D02*
X247211D01*
X247748Y223649D02*
Y227675D01*
X248285Y223112D02*
X248405D01*
X248942Y223649D02*
Y227607D01*
X249479Y228144D02*
X249599D01*
X250136Y225817D02*
Y227607D01*
X250673Y225279D02*
X252000D01*
X219024Y212323D02*
Y226731D01*
X217449Y210748D02*
X219024Y212323D01*
X254809Y219000D02*
X258000D01*
X252628Y221181D02*
X254809Y219000D01*
X251529Y221181D02*
X252628D01*
X240527Y221476D02*
X240723D01*
X241261Y222013D02*
Y222649D01*
X241798Y223186D02*
X241917D01*
X242454Y217444D02*
Y222649D01*
X242991Y216907D02*
X243111D01*
X243648Y217444D02*
Y220644D01*
X244185Y221181D02*
X244305D01*
X244842Y217444D02*
Y220644D01*
X245379Y216907D02*
X245498D01*
X246036Y217444D02*
Y221149D01*
X246573Y221687D02*
X246692D01*
X247229Y217444D02*
Y221149D01*
X247766Y216907D02*
X247886D01*
X248423Y217444D02*
Y221787D01*
X248960Y222325D02*
X249079D01*
X249617Y221718D02*
Y221787D01*
X250154Y221181D02*
X251529D01*
X253000Y217000D02*
Y219000D01*
X251904Y215903D02*
X253000Y217000D01*
X241465Y215768D02*
X242855D01*
X243392Y214277D02*
Y215230D01*
X243930Y213740D02*
X244049D01*
X244586Y214277D02*
Y215583D01*
X245123Y216120D02*
X245243D01*
X245780Y214028D02*
Y215583D01*
X246317Y213490D02*
X246436D01*
X246973Y214028D02*
Y215583D01*
X247511Y216120D02*
X247630D01*
X248167Y212384D02*
Y215583D01*
X248704Y211847D02*
X248824D01*
X249361Y212384D02*
Y219545D01*
X249898Y220082D02*
X250017D01*
X250554Y216305D02*
Y219545D01*
X251092Y215768D02*
X251768D01*
X251904Y215903D01*
X196681Y225217D02*
X198551Y223346D01*
X188600Y245600D02*
X191250Y242950D01*
X196681Y225217D02*
Y237520D01*
X191250Y242950D02*
X196681Y237520D01*
X264841Y214031D02*
Y220841D01*
X268000Y224000D01*
X246493Y211607D02*
X246613D01*
X250400Y211060D02*
X261869D01*
X248881D02*
X250400D01*
X261869D02*
X264841Y214031D01*
X248343Y207723D02*
Y210523D01*
X247150Y207723D02*
Y211070D01*
X247687Y207186D02*
X247806D01*
X241405Y211060D02*
X242835D01*
X244225D01*
X240437Y212028D02*
X241405Y211060D01*
X245956Y206595D02*
Y211070D01*
X245300Y206058D02*
X245419D01*
X244762Y206595D02*
Y210523D01*
X152309Y190157D02*
X153076D01*
X136752Y188425D02*
X138953Y186224D01*
X148376D01*
X152309Y190157D01*
X133368Y183701D02*
X133388D01*
X130453Y188425D02*
X131857Y187021D01*
Y185212D02*
X133368Y183701D01*
X131857Y185212D02*
Y187021D01*
X187252Y183701D02*
X188900Y185348D01*
Y185551D01*
X167986Y209370D02*
X169364Y210748D01*
X158360Y199744D02*
X159193Y200577D01*
X151221Y199744D02*
X158360D01*
X149350Y197874D02*
X151221Y199744D01*
X159193Y200577D02*
X159332Y200716D01*
X159332Y201476D02*
X159332Y201476D01*
X157422Y203386D02*
X159332Y201476D01*
X157422Y203386D02*
X157422Y203386D01*
Y204146D02*
X157506Y204230D01*
X158266Y204230D02*
X158266Y204230D01*
X164416Y198080D01*
X164416Y198080D02*
X164416Y198080D01*
X165176D02*
X165260Y198164D01*
X165260Y198924D02*
X165260Y198924D01*
X161731Y202453D02*
X165260Y198924D01*
X161731Y202453D02*
X161731Y202453D01*
Y203213D02*
X161815Y203297D01*
X162575Y203297D02*
X162575Y203297D01*
X166104Y199768D01*
X166104Y199768D02*
X166104Y199768D01*
X166864D02*
X166948Y199852D01*
X166948Y200612D02*
X166948Y200612D01*
X163421Y204139D02*
X166948Y200612D01*
X163421Y204139D02*
X163421Y204139D01*
Y204899D02*
X163506Y204983D01*
X164266Y204983D02*
X164266Y204983D01*
X167792Y201456D01*
X167792Y201456D02*
X167792Y201456D01*
X168552D02*
X168636Y201540D01*
X168636Y202300D02*
X168636Y202300D01*
X165079Y205858D02*
X168636Y202300D01*
X165079Y205858D02*
X165079Y205858D01*
Y206617D02*
X165163Y206702D01*
X165923Y206702D02*
X165923Y206702D01*
X168324Y204300D01*
X169084Y204300D02*
X169168Y204385D01*
X166844Y207469D02*
X169168Y205145D01*
X166844Y208228D02*
X167986Y209370D01*
X169364Y210748D02*
X176504D01*
X163967Y214424D02*
X169478Y219936D01*
X154049Y202624D02*
X157224Y205800D01*
X147802Y202624D02*
X154049D01*
X145876Y200699D02*
X147802Y202624D01*
X145876Y197424D02*
Y200699D01*
X147002Y196299D02*
X150925D01*
X145876Y197424D02*
X147002Y196299D01*
X157224Y205800D02*
X157364Y205939D01*
X157364Y206699D02*
X157364Y206699D01*
X157309Y206753D02*
X157364Y206699D01*
X157309Y206753D02*
X157309Y206753D01*
Y207513D02*
X157393Y207598D01*
X158153Y207598D02*
X158153Y207598D01*
X161222Y204529D01*
X161222Y204529D02*
X161222Y204529D01*
X161981D02*
X162066Y204613D01*
X162066Y205373D02*
X162066Y205373D01*
X158870Y208568D02*
X162066Y205373D01*
X158870Y208568D02*
X158870Y208568D01*
Y209328D02*
X158955Y209412D01*
X159714Y209412D02*
X159715Y209412D01*
X162912Y206215D01*
X162912Y206215D02*
X162912Y206215D01*
X163672D02*
X163756Y206299D01*
X163756Y207059D02*
X163756Y207059D01*
X160559Y210257D02*
X163756Y207059D01*
X160559Y210257D02*
X160559Y210257D01*
Y211016D02*
X160643Y211101D01*
X161403Y211101D02*
X161403Y211101D01*
X163836Y208668D01*
X164595Y208668D02*
X164680Y208752D01*
X162247Y211945D02*
X164680Y209512D01*
X162247Y212704D02*
X163967Y214424D01*
X184124Y228324D02*
X185953Y226496D01*
X157622Y209193D02*
X157923Y209494D01*
X153904Y207387D02*
X155710Y209193D01*
X157622D01*
X153904Y205577D02*
Y207387D01*
X152500Y204173D02*
X153904Y205577D01*
X184834Y229424D02*
X187232Y227026D01*
X172792Y229424D02*
X184834D01*
X187232Y225966D02*
Y227026D01*
X170174Y226807D02*
X172792Y229424D01*
X185547Y224750D02*
X186017D01*
X187232Y225966D01*
X184143Y223346D02*
X185547Y224750D01*
X182803Y223346D02*
X184143D01*
X151221Y207383D02*
Y207853D01*
X160063Y216696D01*
X149350Y205513D02*
X151221Y207383D01*
X149350Y204173D02*
Y205513D01*
X151221Y187146D02*
X154194D01*
X170707D02*
X172398D01*
X172576Y187324D01*
X133602Y185276D02*
X149350D01*
X151221Y187146D01*
X154194D02*
X155585D01*
X156122Y185025D02*
Y186609D01*
X156659Y184488D02*
X156779D01*
X157316Y185025D02*
Y188833D01*
X157853Y189370D02*
X157972D01*
X158509Y185025D02*
Y188833D01*
X159046Y184488D02*
X159166D01*
X159703Y185025D02*
Y188833D01*
X160240Y189370D02*
X160360D01*
X160897Y185025D02*
Y188833D01*
X161434Y184488D02*
X161553D01*
X162090Y185025D02*
Y188833D01*
X162628Y189370D02*
X162747D01*
X163284Y185025D02*
Y188833D01*
X163821Y184488D02*
X163941D01*
X164478Y185025D02*
Y188833D01*
X165015Y189370D02*
X165134D01*
X165672Y185025D02*
Y188833D01*
X166209Y184488D02*
X166328D01*
X166865Y185025D02*
Y188833D01*
X167402Y189370D02*
X167522D01*
X168059Y185360D02*
Y188833D01*
X168596Y184822D02*
X168716D01*
X169253Y185360D02*
Y186609D01*
X169790Y187146D02*
X170707D01*
X152263Y193147D02*
X154075D01*
X129173Y188955D02*
X130513Y190295D01*
X129173Y187755D02*
Y188955D01*
X130676Y185052D02*
X133602Y182126D01*
X130676Y185052D02*
Y186252D01*
X129173Y187755D02*
X130676Y186252D01*
X147776Y187012D02*
X150668Y189904D01*
Y191552D01*
X154075Y193147D02*
X154272D01*
X154809Y193684D02*
Y194975D01*
X155346Y195512D02*
X155465D01*
X156003Y193684D02*
Y194975D01*
X156540Y193147D02*
X156659D01*
X157196Y193684D02*
Y194975D01*
X157733Y195512D02*
X157853D01*
X158390Y193684D02*
Y194975D01*
X158927Y193147D02*
X159046D01*
X159584Y193684D02*
Y194975D01*
X160121Y195512D02*
X160240D01*
X160777Y193684D02*
Y194975D01*
X161314Y193147D02*
X161434D01*
X161971Y193684D02*
Y194856D01*
X162508Y195393D02*
X162628D01*
X163165Y193684D02*
Y194856D01*
X163702Y193147D02*
X164816D01*
X184100D01*
X189094Y198142D02*
X189102D01*
X184100Y193147D02*
X189094Y198142D01*
X137503Y190295D02*
X140786Y187012D01*
X147776D01*
X130513Y190295D02*
X137503D01*
X166832Y180847D02*
X189357D01*
X131732D02*
X156031D01*
X130453Y182126D02*
X131732Y180847D01*
X190179Y184689D02*
X190382Y184486D01*
X156031Y180847D02*
X157421D01*
X157958Y178726D02*
Y180309D01*
X158496Y178189D02*
X158615D01*
X159152Y178726D02*
Y181556D01*
X159689Y182093D02*
X159809D01*
X160346Y178726D02*
Y181556D01*
X160883Y178189D02*
X161002D01*
X161540Y178726D02*
Y181556D01*
X162077Y182093D02*
X162196D01*
X162733Y178895D02*
Y181556D01*
X163270Y178358D02*
X163390D01*
X163927Y178895D02*
Y181384D01*
X164464Y181921D02*
X164584D01*
X165121Y181384D02*
Y181384D01*
X165658Y180847D02*
X166832D01*
X184145Y203981D02*
Y205791D01*
X182988Y202824D02*
X184145Y203981D01*
X171076Y202824D02*
X182988D01*
X164787Y171398D02*
X166863D01*
X154370D02*
X157224D01*
X187528Y199724D02*
X189337D01*
X182803Y195000D02*
X187528Y199724D01*
X189337D02*
X190751Y198310D01*
X190966Y185015D02*
X191169Y184812D01*
X190751Y191542D02*
Y198310D01*
X152500Y169528D02*
X154370Y171398D01*
X166863D02*
X170288Y174823D01*
X157224Y171398D02*
X157421D01*
X157958Y171935D02*
Y173223D01*
X158496Y173760D02*
X158615D01*
X159152Y169765D02*
Y173223D01*
X159689Y169228D02*
X159809D01*
X160346Y169765D02*
Y173223D01*
X160883Y173760D02*
X161002D01*
X161540Y169931D02*
Y173223D01*
X162077Y169393D02*
X162196D01*
X162733Y169931D02*
Y170861D01*
X163270Y171398D02*
X164787D01*
X179654Y195000D02*
X182803D01*
X170288Y174823D02*
X186013D01*
X167656Y198150D02*
X168038D01*
X165806Y196299D02*
X167656Y198150D01*
X128386Y189281D02*
X132254Y193150D01*
X138327D02*
X140000Y191476D01*
X144628D01*
X146299Y193147D01*
X128878Y180551D02*
Y185510D01*
X128386Y186002D02*
X128878Y185510D01*
X128386Y186002D02*
Y189281D01*
X154079Y196299D02*
X165806D01*
X150928Y193147D02*
X154079Y196299D01*
X146299Y193147D02*
X150928D01*
X168038Y198150D02*
X168235D01*
X168772Y198687D02*
Y199124D01*
X169309Y199661D02*
X169428D01*
X169965Y194472D02*
Y199124D01*
X170502Y193935D02*
X170622D01*
X171159Y194472D02*
Y199124D01*
X171696Y199661D02*
X171816D01*
X172353Y194553D02*
Y199124D01*
X172890Y194016D02*
X173009D01*
X173546Y194553D02*
Y197612D01*
X174084Y198150D02*
X176339D01*
X182795D02*
X182803Y198142D01*
X176339Y198150D02*
X182795D01*
X132254Y193150D02*
X138327D01*
X169976Y189124D02*
X174271D01*
X175974Y187421D01*
X181524D01*
X149350Y175827D02*
X150925Y177402D01*
X165454D01*
X166876Y178824D01*
X166888Y174547D02*
X168899D01*
X148576D02*
X153760D01*
X141181D02*
X141772D01*
X136752Y178976D02*
X141181Y174547D01*
X168899D02*
X171476Y177124D01*
X141772Y174547D02*
X141969D01*
X142506Y175084D02*
Y178091D01*
X143043Y178628D02*
X143162D01*
X143699Y174980D02*
Y178091D01*
X144237Y174443D02*
X144356D01*
X144893Y174980D02*
Y178091D01*
X145430Y178628D02*
X145550D01*
X146087Y175084D02*
Y178091D01*
X146624Y174547D02*
X148576D01*
X153760D02*
X153957D01*
X154494Y175084D02*
Y176077D01*
X155032Y176614D02*
X155151D01*
X155688Y174815D02*
Y176077D01*
X156225Y174277D02*
X156345D01*
X156882Y174815D02*
Y176077D01*
X157419Y176614D02*
X157538D01*
X158075Y175084D02*
Y176077D01*
X158613Y174547D02*
X158732D01*
X159269Y175084D02*
Y176077D01*
X159806Y176614D02*
X159926D01*
X160463Y175084D02*
Y176077D01*
X161000Y174547D02*
X161119D01*
X161657Y175084D02*
Y176077D01*
X162194Y176614D02*
X162313D01*
X162850Y174815D02*
Y176077D01*
X163388Y174277D02*
X163507D01*
X164044Y174815D02*
Y176002D01*
X164581Y176539D02*
X164700D01*
X165238Y175084D02*
Y176002D01*
X165775Y174547D02*
X166888D01*
X207961Y226461D02*
X217998Y236498D01*
X193806Y217261D02*
X195167Y218622D01*
X193806Y212298D02*
Y217261D01*
X192256Y210748D02*
X193806Y212298D01*
X195167Y218622D02*
X201936D01*
X203571Y220257D01*
Y222071D01*
X219000Y237500D02*
X256500D01*
X258000Y239000D01*
X203571Y222071D02*
X207961Y226461D01*
X217998Y236498D02*
X219000Y237500D01*
X206823Y230433D02*
X210274Y233884D01*
X215390Y239000D02*
X253000D01*
X203571Y223407D02*
Y227180D01*
X202231Y222067D02*
X203571Y223407D01*
X192313Y222067D02*
X202231D01*
X190972Y220727D02*
X192313Y222067D01*
X190972Y208878D02*
X192252Y207598D01*
X190972Y208878D02*
Y220727D01*
X203571Y227180D02*
X206823Y230433D01*
X210274Y233884D02*
X215390Y239000D01*
X220256Y236500D02*
X234846D01*
X201701Y210748D02*
X207000Y216047D01*
X260500Y236500D02*
X263000Y239000D01*
X207000Y216047D02*
Y224156D01*
X219344Y236500D01*
X220256D01*
X234846D02*
X260500D01*
D65*
X187435Y212231D02*
X189102Y213898D01*
X187435Y205931D02*
Y212231D01*
X185953Y204449D02*
X187435Y205931D01*
X196921Y187071D02*
X198551Y188701D01*
X196921Y177699D02*
Y187071D01*
X190639Y171416D02*
X196921Y177699D01*
X188619Y171416D02*
X190639D01*
X187528Y170325D02*
X188619Y171416D01*
X187528Y145209D02*
Y170325D01*
X177900Y135582D02*
X187528Y145209D01*
X177900Y129200D02*
Y135582D01*
X214299Y217047D02*
X215874Y215472D01*
Y210226D02*
Y215472D01*
Y210226D02*
X216927Y209173D01*
X221705D01*
X222173Y209642D01*
Y212323D01*
X223748Y213898D01*
X214299Y217047D02*
X215874Y218622D01*
Y224921D01*
X217449Y226496D01*
X198551Y176102D02*
X200126Y177677D01*
X206425D01*
X211150Y172953D01*
D67*
X122000Y112000D02*
D03*
Y258000D02*
D03*
X317000Y112000D02*
D03*
Y258000D02*
D03*
D68*
X222717Y232618D02*
D03*
X211150Y217032D02*
D03*
X217449Y220213D02*
D03*
X214299D02*
D03*
X268000Y239000D02*
D03*
X192252Y201307D02*
D03*
X288000Y159000D02*
D03*
X189102Y172937D02*
D03*
X268000Y159000D02*
D03*
X201701Y172953D02*
D03*
X268000Y154000D02*
D03*
X201701Y176102D02*
D03*
X182803D02*
D03*
X155650Y182126D02*
D03*
X176504Y188701D02*
D03*
X185953Y185551D02*
D03*
X201701Y169803D02*
D03*
Y188701D02*
D03*
X198551Y191850D02*
D03*
X149350Y207323D02*
D03*
X152500Y207323D02*
D03*
X155650Y201024D02*
D03*
X133602Y213622D02*
D03*
X182803Y210748D02*
D03*
X155650Y219921D02*
D03*
X195402Y210748D02*
D03*
X201701Y220197D02*
D03*
X198551Y226496D02*
D03*
X204850Y210748D02*
D03*
X230047Y182402D02*
D03*
X217449Y204449D02*
D03*
X220598Y185551D02*
D03*
X226898Y207598D02*
D03*
X236347Y204449D02*
D03*
X123760Y215211D02*
D03*
X214307Y207598D02*
D03*
X223748Y163504D02*
D03*
X214299Y166654D02*
D03*
X185953Y220197D02*
D03*
X298000Y234000D02*
D03*
X127303Y201024D02*
D03*
X236347Y169803D02*
D03*
X226898Y172953D02*
D03*
X239496Y179252D02*
D03*
X233197Y226496D02*
D03*
X211150Y223346D02*
D03*
X239496Y213898D02*
D03*
X217449Y198150D02*
D03*
X233197Y191850D02*
D03*
X204850Y198150D02*
D03*
X214299Y185551D02*
D03*
X211150Y182402D02*
D03*
X201701D02*
D03*
X152500Y191575D02*
D03*
Y201024D02*
D03*
X201701Y191850D02*
D03*
X220598Y220197D02*
D03*
X195402Y204449D02*
D03*
X179654Y201307D02*
D03*
X189102Y163504D02*
D03*
X179654Y169803D02*
D03*
X223748Y198150D02*
D03*
X209146Y251724D02*
D03*
X220500Y247500D02*
D03*
X128874Y177402D02*
D03*
X128878Y171102D02*
D03*
X230047Y217047D02*
D03*
X173500Y226500D02*
D03*
X288000Y239000D02*
D03*
X293000Y159000D02*
D03*
X189102Y176102D02*
D03*
X253000Y234000D02*
D03*
X198551Y220197D02*
D03*
X268000Y234000D02*
D03*
X201701Y217047D02*
D03*
X293000Y239000D02*
D03*
X198354Y260800D02*
D03*
X283000Y239000D02*
D03*
X240874Y232008D02*
D03*
X195402Y220197D02*
D03*
X298000Y239000D02*
D03*
X192947Y260800D02*
D03*
X172765Y219936D02*
D03*
X152500Y197874D02*
D03*
X127303Y204165D02*
D03*
X223764Y226496D02*
D03*
Y223346D02*
D03*
X220598Y217047D02*
D03*
Y223346D02*
D03*
X236347Y217047D02*
D03*
Y213898D02*
D03*
X233197Y220197D02*
D03*
X236347D02*
D03*
X217449Y217047D02*
D03*
X230047Y220197D02*
D03*
X223748Y191850D02*
D03*
X220598D02*
D03*
X155650Y178976D02*
D03*
Y172677D02*
D03*
X283000Y234000D02*
D03*
X239496Y169803D02*
D03*
X242000Y149500D02*
D03*
X226898Y198150D02*
D03*
Y191850D02*
D03*
X230047D02*
D03*
Y198150D02*
D03*
X226898Y201299D02*
D03*
X230047D02*
D03*
X233197Y198150D02*
D03*
X223748Y188701D02*
D03*
Y185551D02*
D03*
X220598Y188701D02*
D03*
X226898Y185551D02*
D03*
X122300Y225185D02*
D03*
X200200Y233900D02*
D03*
X205476Y241724D02*
D03*
X240700Y245400D02*
D03*
X182476Y251724D02*
D03*
Y241724D02*
D03*
X201701Y163504D02*
D03*
Y198150D02*
D03*
X183600Y161000D02*
D03*
X195402Y172953D02*
D03*
X223748Y201299D02*
D03*
X201615Y201385D02*
D03*
X195402Y201299D02*
D03*
X166476Y215124D02*
D03*
X192449Y188701D02*
D03*
X189102D02*
D03*
X192252Y169819D02*
D03*
Y166654D02*
D03*
X195402Y182402D02*
D03*
X195402Y188701D02*
D03*
X185953Y169803D02*
D03*
X226898Y220197D02*
D03*
X223748D02*
D03*
X220598Y207598D02*
D03*
X223748Y210748D02*
D03*
X217449Y223346D02*
D03*
X133602Y216772D02*
D03*
X204850Y163504D02*
D03*
X220500Y143100D02*
D03*
X189102Y179252D02*
D03*
X185953D02*
D03*
X189102Y182402D02*
D03*
X192449D02*
D03*
X198543Y207598D02*
D03*
X179654D02*
D03*
X185953Y213898D02*
D03*
X201701D02*
D03*
X198551D02*
D03*
X195402D02*
D03*
X176504Y217047D02*
D03*
X189102Y213898D02*
D03*
X192256D02*
D03*
X182803D02*
D03*
X204850Y217047D02*
D03*
X192252Y220197D02*
D03*
Y223346D02*
D03*
X136752Y169528D02*
D03*
X133602D02*
D03*
X189102Y169803D02*
D03*
X198551Y163504D02*
D03*
X152500Y216772D02*
D03*
X182803Y188701D02*
D03*
X179654D02*
D03*
X195402Y169803D02*
D03*
X204850Y179252D02*
D03*
Y176102D02*
D03*
X198551Y169803D02*
D03*
Y172953D02*
D03*
X211150Y179236D02*
D03*
X214299Y198150D02*
D03*
X217449Y213898D02*
D03*
X220598Y198150D02*
D03*
X211134Y185551D02*
D03*
X204835Y201299D02*
D03*
X208000D02*
D03*
X204850Y191858D02*
D03*
X230031Y163520D02*
D03*
X220598Y163504D02*
D03*
X223748Y166654D02*
D03*
X226898D02*
D03*
X130453Y178976D02*
D03*
X130468Y201024D02*
D03*
X230047Y213898D02*
D03*
X233197Y188701D02*
D03*
Y217047D02*
D03*
X239496Y210748D02*
D03*
X226898Y213898D02*
D03*
X230047Y210748D02*
D03*
X233197D02*
D03*
X236347D02*
D03*
X233197Y213898D02*
D03*
X185953Y207598D02*
D03*
X239440Y201355D02*
D03*
X236347Y198150D02*
D03*
X211142Y213906D02*
D03*
X214299Y188701D02*
D03*
X217449Y169803D02*
D03*
X226898Y163504D02*
D03*
X211000Y232800D02*
D03*
X198551Y210748D02*
D03*
X236018Y156441D02*
D03*
X204850Y226496D02*
D03*
X233197Y201299D02*
D03*
X239496Y166654D02*
D03*
Y172953D02*
D03*
X220598Y169803D02*
D03*
Y226496D02*
D03*
X217449D02*
D03*
X273000Y239000D02*
D03*
X278000D02*
D03*
X195402Y191850D02*
D03*
X198551Y182402D02*
D03*
X195402Y207598D02*
D03*
X198551Y198150D02*
D03*
Y188701D02*
D03*
X177900Y129200D02*
D03*
X226898Y223346D02*
D03*
X223748Y213898D02*
D03*
X214299Y217047D02*
D03*
X223064Y253900D02*
D03*
X154936Y243375D02*
D03*
X195402Y217047D02*
D03*
X127303Y182126D02*
D03*
X133602Y188425D02*
D03*
X130453Y197874D02*
D03*
X152500Y188425D02*
D03*
X149350Y201024D02*
D03*
X155650Y197874D02*
D03*
X123760Y218360D02*
D03*
X155650Y207323D02*
D03*
Y210472D02*
D03*
X152500Y219921D02*
D03*
X176504Y172953D02*
D03*
X179654Y182402D02*
D03*
X182803Y191850D02*
D03*
X176504Y207402D02*
D03*
X182803Y226496D02*
D03*
X185953Y204449D02*
D03*
X179654Y217047D02*
D03*
X123100Y133900D02*
D03*
X220598Y204449D02*
D03*
X226898Y188701D02*
D03*
X245000Y222461D02*
D03*
Y212461D02*
D03*
X230047Y166654D02*
D03*
X223748Y179252D02*
D03*
X245500Y185461D02*
D03*
X233197Y176102D02*
D03*
X236347Y185551D02*
D03*
X239496Y163504D02*
D03*
X198551Y176102D02*
D03*
X211150Y172953D02*
D03*
X195402Y166654D02*
D03*
X192252Y198142D02*
D03*
X214299Y182402D02*
D03*
Y204449D02*
D03*
X211142Y207598D02*
D03*
X211150Y191850D02*
D03*
X201701Y185551D02*
D03*
X201701Y179252D02*
D03*
X177900Y142943D02*
D03*
X258000Y229000D02*
D03*
X217449Y210748D02*
D03*
X253000Y229000D02*
D03*
X201701Y226496D02*
D03*
X258000Y224000D02*
D03*
X214299Y213898D02*
D03*
X253000Y224000D02*
D03*
X258000Y219000D02*
D03*
X253000D02*
D03*
X189102Y226496D02*
D03*
X172064Y250100D02*
D03*
X178476Y246724D02*
D03*
X192236Y226496D02*
D03*
X205476Y246724D02*
D03*
X195402Y223346D02*
D03*
X192252Y217047D02*
D03*
X198551Y223346D02*
D03*
X172064Y256800D02*
D03*
X195402Y226496D02*
D03*
X211150Y220197D02*
D03*
X263000Y229000D02*
D03*
X204850Y220197D02*
D03*
X201701Y223346D02*
D03*
X283000Y229000D02*
D03*
X214325Y223321D02*
D03*
X283000Y214000D02*
D03*
X226898Y217047D02*
D03*
X278000Y214000D02*
D03*
X298000Y229000D02*
D03*
Y224000D02*
D03*
Y219000D02*
D03*
X288000D02*
D03*
X211150Y226496D02*
D03*
X214307Y210748D02*
D03*
X293000Y229000D02*
D03*
X214299Y226496D02*
D03*
X293000Y224000D02*
D03*
X223748Y217047D02*
D03*
X293000Y219000D02*
D03*
Y214000D02*
D03*
X288000Y229000D02*
D03*
Y214000D02*
D03*
Y224000D02*
D03*
X298000Y214000D02*
D03*
X263000Y224000D02*
D03*
X268000D02*
D03*
Y219000D02*
D03*
X226898Y226496D02*
D03*
X268000Y214000D02*
D03*
X263000Y219000D02*
D03*
X230047Y223346D02*
D03*
X278000Y224000D02*
D03*
X220598Y210748D02*
D03*
X230047Y226496D02*
D03*
X273000Y224000D02*
D03*
Y219000D02*
D03*
X233197Y223346D02*
D03*
X273000Y214000D02*
D03*
X220598Y213898D02*
D03*
X278000Y219000D02*
D03*
X189102Y220197D02*
D03*
X258000Y234000D02*
D03*
X263000D02*
D03*
X273000D02*
D03*
X278000D02*
D03*
X189102Y223346D02*
D03*
X288000Y234000D02*
D03*
X189102Y217047D02*
D03*
X198551D02*
D03*
X293000Y234000D02*
D03*
X136752Y188425D02*
D03*
X152500Y182126D02*
D03*
X127303Y197874D02*
D03*
X192252Y204449D02*
D03*
X185953Y223346D02*
D03*
Y182402D02*
D03*
X136752Y194724D02*
D03*
X130453Y188425D02*
D03*
X188900Y185551D02*
D03*
X149350Y210472D02*
D03*
X179654Y210748D02*
D03*
X149350Y213622D02*
D03*
X133602Y204173D02*
D03*
X179654Y220197D02*
D03*
X133602Y201024D02*
D03*
X179654Y223346D02*
D03*
X136752Y210472D02*
D03*
X173776Y207724D02*
D03*
X146201Y207323D02*
D03*
X141576Y213224D02*
D03*
X176504Y201299D02*
D03*
Y204449D02*
D03*
X130453Y216772D02*
D03*
X179654Y204449D02*
D03*
X149350Y219921D02*
D03*
X185953Y201307D02*
D03*
X133602Y210472D02*
D03*
X182803Y201307D02*
D03*
Y204449D02*
D03*
X152500Y213622D02*
D03*
X136752D02*
D03*
X151076Y227724D02*
D03*
X145976Y216824D02*
D03*
X149350Y197874D02*
D03*
X176504Y210748D02*
D03*
X133602Y197874D02*
D03*
X136752D02*
D03*
X182803Y217047D02*
D03*
X185953Y226496D02*
D03*
X152500Y204173D02*
D03*
X179654Y226496D02*
D03*
X182803Y223346D02*
D03*
X149350Y204173D02*
D03*
X136752Y207323D02*
D03*
X182803Y220197D02*
D03*
X133602Y185276D02*
D03*
X172576Y187324D02*
D03*
X155650Y188425D02*
D03*
X182803Y185551D02*
D03*
X149391Y194584D02*
D03*
X179654Y191850D02*
D03*
X149388Y191437D02*
D03*
X136752Y191575D02*
D03*
X133602Y182126D02*
D03*
X189102Y198142D02*
D03*
X152500Y178976D02*
D03*
X189102Y191850D02*
D03*
X130453Y182126D02*
D03*
X185953Y210748D02*
D03*
X146201Y172677D02*
D03*
X141476Y192756D02*
D03*
X185953Y217047D02*
D03*
X171076Y202824D02*
D03*
X189102Y210748D02*
D03*
X146201Y188425D02*
D03*
X133602Y175827D02*
D03*
X189102Y201307D02*
D03*
X152500Y169528D02*
D03*
X179654Y195000D02*
D03*
X189102D02*
D03*
X133602Y172677D02*
D03*
X185953Y191850D02*
D03*
X152500Y172677D02*
D03*
X185953Y188701D02*
D03*
X152500Y175827D02*
D03*
X182803Y198142D02*
D03*
X136752Y175827D02*
D03*
X169976Y189124D02*
D03*
X149350Y175827D02*
D03*
X166876Y178824D02*
D03*
X136752Y178976D02*
D03*
X171476Y177124D02*
D03*
X233197Y172953D02*
D03*
X163500Y243275D02*
D03*
X192252Y191850D02*
D03*
X152500Y185276D02*
D03*
X189102Y207598D02*
D03*
Y204449D02*
D03*
X192256Y210748D02*
D03*
X258000Y239000D02*
D03*
X192252Y207598D02*
D03*
X253000Y239000D02*
D03*
X201701Y210748D02*
D03*
X263000Y239000D02*
D03*
X271500Y136000D02*
D03*
X236347Y172953D02*
D03*
X253000Y214000D02*
D03*
X258000D02*
D03*
X283000Y209000D02*
D03*
X288000D02*
D03*
X273000D02*
D03*
X278000D02*
D03*
X263000D02*
D03*
X220598Y201299D02*
D03*
X268000Y209000D02*
D03*
X223748Y204449D02*
D03*
X253000Y209000D02*
D03*
X223748Y207598D02*
D03*
X258000Y209000D02*
D03*
X236347Y207598D02*
D03*
X239496D02*
D03*
Y204449D02*
D03*
X230047Y207598D02*
D03*
X273000Y204000D02*
D03*
X233197Y207598D02*
D03*
X278000Y204000D02*
D03*
X263000D02*
D03*
X268000D02*
D03*
X253000D02*
D03*
X233197Y204449D02*
D03*
X258000Y204000D02*
D03*
X226898Y204449D02*
D03*
X293000Y199000D02*
D03*
X230047Y204449D02*
D03*
X298000Y199000D02*
D03*
X283000D02*
D03*
X288000D02*
D03*
X236347Y201299D02*
D03*
X234772Y193425D02*
D03*
X253000Y199000D02*
D03*
X237921Y193425D02*
D03*
X258000Y199000D02*
D03*
X293000Y194000D02*
D03*
X230047Y188701D02*
D03*
X298000Y194000D02*
D03*
X283000D02*
D03*
X288000D02*
D03*
X226898Y210748D02*
D03*
X273000Y194000D02*
D03*
X278000D02*
D03*
X263000D02*
D03*
X268000D02*
D03*
X253000D02*
D03*
X258000D02*
D03*
X239496Y217047D02*
D03*
X293000Y189000D02*
D03*
X298000D02*
D03*
X236347Y223346D02*
D03*
X283000Y189000D02*
D03*
X239496Y226496D02*
D03*
X288000Y189000D02*
D03*
X239496Y220197D02*
D03*
X273000Y189000D02*
D03*
X239496Y223346D02*
D03*
X278000Y189000D02*
D03*
X268000D02*
D03*
X263000Y214000D02*
D03*
Y189000D02*
D03*
X236347Y176102D02*
D03*
X223748Y182402D02*
D03*
X253000Y189000D02*
D03*
X226898Y182402D02*
D03*
X258000Y189000D02*
D03*
X230047Y185551D02*
D03*
X293000Y184000D02*
D03*
X233197Y182402D02*
D03*
X298000Y184000D02*
D03*
X233197Y166654D02*
D03*
X283000Y184000D02*
D03*
X236347Y166654D02*
D03*
X288000Y184000D02*
D03*
X273000D02*
D03*
X230047Y169803D02*
D03*
X278000Y184000D02*
D03*
X233197Y169803D02*
D03*
X230047Y176102D02*
D03*
X263000Y184000D02*
D03*
X233197Y179252D02*
D03*
X268000Y184000D02*
D03*
X226898Y179252D02*
D03*
X253000Y184000D02*
D03*
X230047Y179252D02*
D03*
X258000Y184000D02*
D03*
X293000Y179000D02*
D03*
X226898Y169803D02*
D03*
X298000Y179000D02*
D03*
X283000D02*
D03*
X233197Y163504D02*
D03*
X288000Y179000D02*
D03*
X236347Y163504D02*
D03*
X273000Y179000D02*
D03*
X278000D02*
D03*
X263000D02*
D03*
X239496Y176102D02*
D03*
X268000Y179000D02*
D03*
X253000D02*
D03*
X258000D02*
D03*
X298000Y174000D02*
D03*
X233197Y185551D02*
D03*
X293000Y174000D02*
D03*
X236347Y182402D02*
D03*
X220598Y172953D02*
D03*
X288000Y174000D02*
D03*
X223748Y172953D02*
D03*
Y169803D02*
D03*
X263000Y174000D02*
D03*
X226898Y176102D02*
D03*
X230047Y172953D02*
D03*
X268000Y174000D02*
D03*
X220598Y166654D02*
D03*
X253000Y174000D02*
D03*
X258000D02*
D03*
X298000Y169000D02*
D03*
X293000D02*
D03*
X220598Y182402D02*
D03*
X283000Y169000D02*
D03*
X220598Y179252D02*
D03*
X288000Y169000D02*
D03*
X220598Y176102D02*
D03*
X273000Y169000D02*
D03*
X278000D02*
D03*
X223748Y176102D02*
D03*
X214283Y169787D02*
D03*
X263000Y169000D02*
D03*
X217465Y166654D02*
D03*
X268000Y169000D02*
D03*
X217449Y172953D02*
D03*
X253000Y169000D02*
D03*
X258000D02*
D03*
X214299Y176102D02*
D03*
X293000Y164000D02*
D03*
X214315Y172953D02*
D03*
X298000Y164000D02*
D03*
X211134Y176102D02*
D03*
X283000Y164000D02*
D03*
X288000D02*
D03*
X236347Y179252D02*
D03*
X268000Y164000D02*
D03*
X273000D02*
D03*
X211150Y169803D02*
D03*
X258000Y164000D02*
D03*
X204850Y169803D02*
D03*
X263000Y164000D02*
D03*
X214283Y163504D02*
D03*
X298000Y159000D02*
D03*
X217449Y163504D02*
D03*
X253000Y164000D02*
D03*
X211150Y166654D02*
D03*
X278000Y159000D02*
D03*
X211150Y163504D02*
D03*
X283000Y159000D02*
D03*
X273000D02*
D03*
X204850Y166654D02*
D03*
X258000Y159000D02*
D03*
X201701Y166654D02*
D03*
X263000Y159000D02*
D03*
X298000Y154000D02*
D03*
X198551Y166654D02*
D03*
X253000Y159000D02*
D03*
X288000Y154000D02*
D03*
X293000D02*
D03*
X278000D02*
D03*
X283000D02*
D03*
X204850Y172953D02*
D03*
X273000Y154000D02*
D03*
X258000D02*
D03*
X263000D02*
D03*
X253000D02*
D03*
X192246Y185545D02*
D03*
X181700Y258600D02*
D03*
X209541Y260800D02*
D03*
X172429Y236724D02*
D03*
X194741Y160000D02*
D03*
X211142Y210740D02*
D03*
D71*
X183600Y161000D02*
Y170600D01*
X187528Y174528D01*
X189589D01*
X193906Y188097D02*
Y196491D01*
X193781Y196616D02*
X193906Y196491D01*
X193827Y188017D02*
X193906Y188097D01*
X197086Y206141D02*
X198543Y207598D01*
X195032Y206141D02*
X197086D01*
X193885Y204994D02*
X195032Y206141D01*
X193885Y204021D02*
Y204994D01*
X192856Y202991D02*
X193885Y204021D01*
X191234Y202991D02*
X192856D01*
X190677Y202435D02*
X191234Y202991D01*
X190677Y200177D02*
Y202435D01*
Y200177D02*
X191116Y199737D01*
X192718D01*
X193781Y198674D01*
Y196616D02*
Y198674D01*
X193827Y183970D02*
Y188017D01*
Y183970D02*
X193906Y183891D01*
Y181798D02*
Y183891D01*
X193827Y181718D02*
X193906Y181798D01*
X193827Y178765D02*
Y181718D01*
X189589Y174528D02*
X193827Y178765D01*
M02*
