G04*
G04 #@! TF.GenerationSoftware,Altium Limited,Altium Designer,25.6.2 (33)*
G04*
G04 Layer_Physical_Order=6*
G04 Layer_Color=8388736*
%FSLAX25Y25*%
%MOIN*%
G70*
G04*
G04 #@! TF.SameCoordinates,D3077B53-F130-49B9-AE0B-FC42BD5CCE1B*
G04*
G04*
G04 #@! TF.FilePolarity,Positive*
G04*
G01*
G75*
%ADD12C,0.00500*%
%ADD13C,0.01000*%
%ADD59C,0.02362*%
%ADD62C,0.00394*%
%ADD65C,0.00800*%
%ADD67C,0.03937*%
%ADD68C,0.01378*%
%ADD70C,0.00600*%
G36*
X329000Y260000D02*
Y110000D01*
X319000Y100000D01*
X120000D01*
X110000Y110000D01*
Y260000D01*
X120000Y270000D01*
X319000D01*
X329000Y260000D01*
D02*
G37*
%LPC*%
G36*
X209756Y261883D02*
X209326D01*
X208928Y261718D01*
X208623Y261413D01*
X208458Y261015D01*
Y260585D01*
X208623Y260187D01*
X208928Y259882D01*
X209326Y259717D01*
X209756D01*
X210154Y259882D01*
X210459Y260187D01*
X210624Y260585D01*
Y261015D01*
X210459Y261413D01*
X210154Y261718D01*
X209756Y261883D01*
D02*
G37*
G36*
X198569D02*
X198138D01*
X197740Y261718D01*
X197436Y261413D01*
X197271Y261015D01*
Y260585D01*
X197436Y260187D01*
X197740Y259882D01*
X198138Y259717D01*
X198569D01*
X198967Y259882D01*
X199271Y260187D01*
X199436Y260585D01*
Y261015D01*
X199271Y261413D01*
X198967Y261718D01*
X198569Y261883D01*
D02*
G37*
G36*
X193162D02*
X192731D01*
X192333Y261718D01*
X192029Y261413D01*
X191864Y261015D01*
Y260585D01*
X192029Y260187D01*
X192333Y259882D01*
X192731Y259717D01*
X193162D01*
X193560Y259882D01*
X193864Y260187D01*
X194029Y260585D01*
Y261015D01*
X193864Y261413D01*
X193560Y261718D01*
X193162Y261883D01*
D02*
G37*
G36*
X181915Y259683D02*
X181485D01*
X181087Y259518D01*
X180782Y259213D01*
X180617Y258815D01*
Y258385D01*
X180782Y257987D01*
X181087Y257682D01*
X181485Y257517D01*
X181915D01*
X182313Y257682D01*
X182618Y257987D01*
X182783Y258385D01*
Y258815D01*
X182618Y259213D01*
X182313Y259518D01*
X181915Y259683D01*
D02*
G37*
G36*
X172280Y257883D02*
X171849D01*
X171451Y257718D01*
X171146Y257413D01*
X170982Y257015D01*
Y256585D01*
X171146Y256187D01*
X171451Y255882D01*
X171849Y255717D01*
X172280D01*
X172678Y255882D01*
X172982Y256187D01*
X173147Y256585D01*
Y257015D01*
X172982Y257413D01*
X172678Y257718D01*
X172280Y257883D01*
D02*
G37*
G36*
X223280Y254983D02*
X222849D01*
X222451Y254818D01*
X222146Y254513D01*
X221982Y254115D01*
Y253685D01*
X222146Y253287D01*
X222451Y252982D01*
X222849Y252817D01*
X223280D01*
X223677Y252982D01*
X223982Y253287D01*
X224147Y253685D01*
Y254115D01*
X223982Y254513D01*
X223677Y254818D01*
X223280Y254983D01*
D02*
G37*
G36*
X182692Y252807D02*
X182261D01*
X181863Y252642D01*
X181559Y252338D01*
X181394Y251940D01*
Y251509D01*
X181559Y251111D01*
X181863Y250807D01*
X182261Y250642D01*
X182692D01*
X183090Y250807D01*
X183394Y251111D01*
X183559Y251509D01*
Y251940D01*
X183394Y252338D01*
X183090Y252642D01*
X182692Y252807D01*
D02*
G37*
G36*
X172280Y251183D02*
X171849D01*
X171451Y251018D01*
X171146Y250713D01*
X170982Y250315D01*
Y249885D01*
X171146Y249487D01*
X171451Y249182D01*
X171849Y249017D01*
X172280D01*
X172678Y249182D01*
X172982Y249487D01*
X173147Y249885D01*
Y250315D01*
X172982Y250713D01*
X172678Y251018D01*
X172280Y251183D01*
D02*
G37*
G36*
X239313Y250875D02*
X238687D01*
X238108Y250635D01*
X237665Y250192D01*
X237425Y249613D01*
Y248987D01*
X237665Y248408D01*
X238108Y247965D01*
X238687Y247725D01*
X239313D01*
X239892Y247965D01*
X240335Y248408D01*
X240575Y248987D01*
Y249613D01*
X240335Y250192D01*
X239892Y250635D01*
X239313Y250875D01*
D02*
G37*
G36*
X205692Y247807D02*
X205261D01*
X204863Y247642D01*
X204558Y247338D01*
X204394Y246940D01*
Y246509D01*
X204558Y246111D01*
X204863Y245807D01*
X205261Y245642D01*
X205692D01*
X206090Y245807D01*
X206394Y246111D01*
X206559Y246509D01*
Y246940D01*
X206394Y247338D01*
X206090Y247642D01*
X205692Y247807D01*
D02*
G37*
G36*
X178692D02*
X178261D01*
X177863Y247642D01*
X177559Y247338D01*
X177394Y246940D01*
Y246509D01*
X177559Y246111D01*
X177863Y245807D01*
X178261Y245642D01*
X178692D01*
X179090Y245807D01*
X179394Y246111D01*
X179559Y246509D01*
Y246940D01*
X179394Y247338D01*
X179090Y247642D01*
X178692Y247807D01*
D02*
G37*
G36*
X240915Y246483D02*
X240485D01*
X240087Y246318D01*
X239782Y246013D01*
X239617Y245615D01*
Y245185D01*
X239782Y244787D01*
X240087Y244482D01*
X240485Y244317D01*
X240915D01*
X241313Y244482D01*
X241618Y244787D01*
X241783Y245185D01*
Y245615D01*
X241618Y246013D01*
X241313Y246318D01*
X240915Y246483D01*
D02*
G37*
G36*
X155151Y244458D02*
X154720D01*
X154323Y244293D01*
X154018Y243988D01*
X153853Y243590D01*
Y243159D01*
X154018Y242761D01*
X154323Y242457D01*
X154720Y242292D01*
X155151D01*
X155549Y242457D01*
X155854Y242761D01*
X156018Y243159D01*
Y243590D01*
X155854Y243988D01*
X155549Y244293D01*
X155151Y244458D01*
D02*
G37*
G36*
X205692Y242807D02*
X205261D01*
X204863Y242642D01*
X204558Y242338D01*
X204394Y241940D01*
Y241509D01*
X204558Y241111D01*
X204863Y240807D01*
X205261Y240642D01*
X205692D01*
X206090Y240807D01*
X206394Y241111D01*
X206559Y241509D01*
Y241940D01*
X206394Y242338D01*
X206090Y242642D01*
X205692Y242807D01*
D02*
G37*
G36*
X182692D02*
X182261D01*
X181863Y242642D01*
X181559Y242338D01*
X181394Y241940D01*
Y241509D01*
X181559Y241111D01*
X181863Y240807D01*
X182261Y240642D01*
X182692D01*
X183090Y240807D01*
X183394Y241111D01*
X183559Y241509D01*
Y241940D01*
X183394Y242338D01*
X183090Y242642D01*
X182692Y242807D01*
D02*
G37*
G36*
X298215Y240083D02*
X297785D01*
X297387Y239918D01*
X297082Y239613D01*
X296917Y239215D01*
Y238785D01*
X297082Y238387D01*
X297387Y238082D01*
X297785Y237917D01*
X298215D01*
X298613Y238082D01*
X298918Y238387D01*
X299083Y238785D01*
Y239215D01*
X298918Y239613D01*
X298613Y239918D01*
X298215Y240083D01*
D02*
G37*
G36*
X293215D02*
X292785D01*
X292387Y239918D01*
X292082Y239613D01*
X291917Y239215D01*
Y238785D01*
X292082Y238387D01*
X292387Y238082D01*
X292785Y237917D01*
X293215D01*
X293613Y238082D01*
X293918Y238387D01*
X294083Y238785D01*
Y239215D01*
X293918Y239613D01*
X293613Y239918D01*
X293215Y240083D01*
D02*
G37*
G36*
X288215D02*
X287785D01*
X287387Y239918D01*
X287082Y239613D01*
X286917Y239215D01*
Y238785D01*
X287082Y238387D01*
X287387Y238082D01*
X287785Y237917D01*
X288215D01*
X288613Y238082D01*
X288918Y238387D01*
X289083Y238785D01*
Y239215D01*
X288918Y239613D01*
X288613Y239918D01*
X288215Y240083D01*
D02*
G37*
G36*
X283215D02*
X282785D01*
X282387Y239918D01*
X282082Y239613D01*
X281917Y239215D01*
Y238785D01*
X282082Y238387D01*
X282387Y238082D01*
X282785Y237917D01*
X283215D01*
X283613Y238082D01*
X283918Y238387D01*
X284083Y238785D01*
Y239215D01*
X283918Y239613D01*
X283613Y239918D01*
X283215Y240083D01*
D02*
G37*
G36*
X278215D02*
X277785D01*
X277387Y239918D01*
X277082Y239613D01*
X276917Y239215D01*
Y238785D01*
X277082Y238387D01*
X277387Y238082D01*
X277785Y237917D01*
X278215D01*
X278613Y238082D01*
X278918Y238387D01*
X279083Y238785D01*
Y239215D01*
X278918Y239613D01*
X278613Y239918D01*
X278215Y240083D01*
D02*
G37*
G36*
X273215D02*
X272785D01*
X272387Y239918D01*
X272082Y239613D01*
X271917Y239215D01*
Y238785D01*
X272082Y238387D01*
X272387Y238082D01*
X272785Y237917D01*
X273215D01*
X273613Y238082D01*
X273918Y238387D01*
X274083Y238785D01*
Y239215D01*
X273918Y239613D01*
X273613Y239918D01*
X273215Y240083D01*
D02*
G37*
G36*
X268215D02*
X267785D01*
X267387Y239918D01*
X267082Y239613D01*
X266917Y239215D01*
Y238785D01*
X267082Y238387D01*
X267387Y238082D01*
X267785Y237917D01*
X268215D01*
X268613Y238082D01*
X268918Y238387D01*
X269083Y238785D01*
Y239215D01*
X268918Y239613D01*
X268613Y239918D01*
X268215Y240083D01*
D02*
G37*
G36*
X263215D02*
X262785D01*
X262387Y239918D01*
X262082Y239613D01*
X261917Y239215D01*
Y238785D01*
X262082Y238387D01*
X262387Y238082D01*
X262785Y237917D01*
X263215D01*
X263613Y238082D01*
X263918Y238387D01*
X264083Y238785D01*
Y239215D01*
X263918Y239613D01*
X263613Y239918D01*
X263215Y240083D01*
D02*
G37*
G36*
X258215D02*
X257785D01*
X257387Y239918D01*
X257082Y239613D01*
X256917Y239215D01*
Y238785D01*
X257082Y238387D01*
X257387Y238082D01*
X257785Y237917D01*
X258215D01*
X258613Y238082D01*
X258918Y238387D01*
X259083Y238785D01*
Y239215D01*
X258918Y239613D01*
X258613Y239918D01*
X258215Y240083D01*
D02*
G37*
G36*
X253215D02*
X252785D01*
X252387Y239918D01*
X252082Y239613D01*
X251917Y239215D01*
Y238785D01*
X252082Y238387D01*
X252387Y238082D01*
X252785Y237917D01*
X253215D01*
X253613Y238082D01*
X253918Y238387D01*
X254083Y238785D01*
Y239215D01*
X253918Y239613D01*
X253613Y239918D01*
X253215Y240083D01*
D02*
G37*
G36*
X172644Y237807D02*
X172214D01*
X171816Y237642D01*
X171511Y237338D01*
X171346Y236940D01*
Y236509D01*
X171511Y236111D01*
X171816Y235807D01*
X172214Y235642D01*
X172644D01*
X173042Y235807D01*
X173347Y236111D01*
X173512Y236509D01*
Y236940D01*
X173347Y237338D01*
X173042Y237642D01*
X172644Y237807D01*
D02*
G37*
G36*
X141013Y236375D02*
X140387D01*
X139808Y236135D01*
X139365Y235692D01*
X139125Y235113D01*
Y234487D01*
X139365Y233908D01*
X139808Y233465D01*
X140387Y233225D01*
X141013D01*
X141592Y233465D01*
X142035Y233908D01*
X142275Y234487D01*
Y235113D01*
X142035Y235692D01*
X141592Y236135D01*
X141013Y236375D01*
D02*
G37*
G36*
X293215Y235083D02*
X292785D01*
X292387Y234918D01*
X292082Y234613D01*
X291917Y234215D01*
Y233785D01*
X292082Y233387D01*
X292387Y233082D01*
X292785Y232917D01*
X293215D01*
X293613Y233082D01*
X293918Y233387D01*
X294083Y233785D01*
Y234215D01*
X293918Y234613D01*
X293613Y234918D01*
X293215Y235083D01*
D02*
G37*
G36*
X288215D02*
X287785D01*
X287387Y234918D01*
X287082Y234613D01*
X286917Y234215D01*
Y233785D01*
X287082Y233387D01*
X287387Y233082D01*
X287785Y232917D01*
X288215D01*
X288613Y233082D01*
X288918Y233387D01*
X289083Y233785D01*
Y234215D01*
X288918Y234613D01*
X288613Y234918D01*
X288215Y235083D01*
D02*
G37*
G36*
X283215D02*
X282785D01*
X282387Y234918D01*
X282082Y234613D01*
X281917Y234215D01*
Y233785D01*
X282082Y233387D01*
X282387Y233082D01*
X282785Y232917D01*
X283215D01*
X283613Y233082D01*
X283918Y233387D01*
X284083Y233785D01*
Y234215D01*
X283918Y234613D01*
X283613Y234918D01*
X283215Y235083D01*
D02*
G37*
G36*
X278215D02*
X277785D01*
X277387Y234918D01*
X277082Y234613D01*
X276917Y234215D01*
Y233785D01*
X277082Y233387D01*
X277387Y233082D01*
X277785Y232917D01*
X278215D01*
X278613Y233082D01*
X278918Y233387D01*
X279083Y233785D01*
Y234215D01*
X278918Y234613D01*
X278613Y234918D01*
X278215Y235083D01*
D02*
G37*
G36*
X273215D02*
X272785D01*
X272387Y234918D01*
X272082Y234613D01*
X271917Y234215D01*
Y233785D01*
X272082Y233387D01*
X272387Y233082D01*
X272785Y232917D01*
X273215D01*
X273613Y233082D01*
X273918Y233387D01*
X274083Y233785D01*
Y234215D01*
X273918Y234613D01*
X273613Y234918D01*
X273215Y235083D01*
D02*
G37*
G36*
X268215D02*
X267785D01*
X267387Y234918D01*
X267082Y234613D01*
X266917Y234215D01*
Y233785D01*
X267082Y233387D01*
X267387Y233082D01*
X267785Y232917D01*
X268215D01*
X268613Y233082D01*
X268918Y233387D01*
X269083Y233785D01*
Y234215D01*
X268918Y234613D01*
X268613Y234918D01*
X268215Y235083D01*
D02*
G37*
G36*
X263215D02*
X262785D01*
X262387Y234918D01*
X262082Y234613D01*
X261917Y234215D01*
Y233785D01*
X262082Y233387D01*
X262387Y233082D01*
X262785Y232917D01*
X263215D01*
X263613Y233082D01*
X263918Y233387D01*
X264083Y233785D01*
Y234215D01*
X263918Y234613D01*
X263613Y234918D01*
X263215Y235083D01*
D02*
G37*
G36*
X258215D02*
X257785D01*
X257387Y234918D01*
X257082Y234613D01*
X256917Y234215D01*
Y233785D01*
X257082Y233387D01*
X257387Y233082D01*
X257785Y232917D01*
X258215D01*
X258613Y233082D01*
X258918Y233387D01*
X259083Y233785D01*
Y234215D01*
X258918Y234613D01*
X258613Y234918D01*
X258215Y235083D01*
D02*
G37*
G36*
X253215D02*
X252785D01*
X252387Y234918D01*
X252082Y234613D01*
X251917Y234215D01*
Y233785D01*
X252082Y233387D01*
X252387Y233082D01*
X252785Y232917D01*
X253215D01*
X253613Y233082D01*
X253918Y233387D01*
X254083Y233785D01*
Y234215D01*
X253918Y234613D01*
X253613Y234918D01*
X253215Y235083D01*
D02*
G37*
G36*
X200415Y234983D02*
X199985D01*
X199587Y234818D01*
X199282Y234513D01*
X199117Y234115D01*
Y233685D01*
X199282Y233287D01*
X199587Y232982D01*
X199985Y232817D01*
X200415D01*
X200813Y232982D01*
X201118Y233287D01*
X201283Y233685D01*
Y234115D01*
X201118Y234513D01*
X200813Y234818D01*
X200415Y234983D01*
D02*
G37*
G36*
X178376Y235081D02*
X177750D01*
X177171Y234841D01*
X176728Y234398D01*
X176488Y233819D01*
Y233193D01*
X176728Y232614D01*
X177171Y232171D01*
X177750Y231931D01*
X178376D01*
X178955Y232171D01*
X179398Y232614D01*
X179638Y233193D01*
Y233819D01*
X179398Y234398D01*
X178955Y234841D01*
X178376Y235081D01*
D02*
G37*
G36*
X151292Y228807D02*
X150861D01*
X150463Y228642D01*
X150159Y228338D01*
X149994Y227940D01*
Y227509D01*
X150159Y227111D01*
X150463Y226807D01*
X150861Y226642D01*
X151292D01*
X151690Y226807D01*
X151994Y227111D01*
X152159Y227509D01*
Y227940D01*
X151994Y228338D01*
X151690Y228642D01*
X151292Y228807D01*
D02*
G37*
G36*
X205066Y227579D02*
X204635D01*
X204237Y227414D01*
X203933Y227109D01*
X203768Y226711D01*
Y226281D01*
X203933Y225883D01*
X204237Y225578D01*
X204635Y225413D01*
X205066D01*
X205464Y225578D01*
X205768Y225883D01*
X205933Y226281D01*
Y226711D01*
X205768Y227109D01*
X205464Y227414D01*
X205066Y227579D01*
D02*
G37*
G36*
X201916D02*
X201485D01*
X201087Y227414D01*
X200783Y227109D01*
X200618Y226711D01*
Y226281D01*
X200783Y225883D01*
X201087Y225578D01*
X201485Y225413D01*
X201916D01*
X202314Y225578D01*
X202619Y225883D01*
X202783Y226281D01*
Y226711D01*
X202619Y227109D01*
X202314Y227414D01*
X201916Y227579D01*
D02*
G37*
G36*
X195617D02*
X195186D01*
X194788Y227414D01*
X194484Y227109D01*
X194319Y226711D01*
Y226281D01*
X194484Y225883D01*
X194788Y225578D01*
X195186Y225413D01*
X195617D01*
X196015Y225578D01*
X196319Y225883D01*
X196484Y226281D01*
Y226711D01*
X196319Y227109D01*
X196015Y227414D01*
X195617Y227579D01*
D02*
G37*
G36*
X192452D02*
X192021D01*
X191623Y227414D01*
X191318Y227109D01*
X191154Y226711D01*
Y226281D01*
X191318Y225883D01*
X191623Y225578D01*
X192021Y225413D01*
X192452D01*
X192850Y225578D01*
X193154Y225883D01*
X193319Y226281D01*
Y226711D01*
X193154Y227109D01*
X192850Y227414D01*
X192452Y227579D01*
D02*
G37*
G36*
X189318D02*
X188887D01*
X188489Y227414D01*
X188184Y227109D01*
X188020Y226711D01*
Y226281D01*
X188184Y225883D01*
X188489Y225578D01*
X188887Y225413D01*
X189318D01*
X189716Y225578D01*
X190020Y225883D01*
X190185Y226281D01*
Y226711D01*
X190020Y227109D01*
X189716Y227414D01*
X189318Y227579D01*
D02*
G37*
G36*
X186168D02*
X185737D01*
X185339Y227414D01*
X185035Y227109D01*
X184870Y226711D01*
Y226281D01*
X185035Y225883D01*
X185339Y225578D01*
X185737Y225413D01*
X186168D01*
X186566Y225578D01*
X186871Y225883D01*
X187035Y226281D01*
Y226711D01*
X186871Y227109D01*
X186566Y227414D01*
X186168Y227579D01*
D02*
G37*
G36*
X122515Y226268D02*
X122085D01*
X121687Y226103D01*
X121382Y225798D01*
X121217Y225400D01*
Y224970D01*
X121382Y224572D01*
X121687Y224267D01*
X122085Y224102D01*
X122515D01*
X122913Y224267D01*
X123218Y224572D01*
X123383Y224970D01*
Y225400D01*
X123218Y225798D01*
X122913Y226103D01*
X122515Y226268D01*
D02*
G37*
G36*
X298215Y225083D02*
X297785D01*
X297387Y224918D01*
X297082Y224613D01*
X296917Y224215D01*
Y223785D01*
X297082Y223387D01*
X297387Y223082D01*
X297785Y222917D01*
X298215D01*
X298613Y223082D01*
X298918Y223387D01*
X299083Y223785D01*
Y224215D01*
X298918Y224613D01*
X298613Y224918D01*
X298215Y225083D01*
D02*
G37*
G36*
X163715Y244357D02*
X163285D01*
X162887Y244193D01*
X162582Y243888D01*
X162417Y243490D01*
Y243059D01*
X162582Y242661D01*
X162844Y242400D01*
Y226902D01*
X162894Y226650D01*
X163036Y226437D01*
X177615Y211859D01*
X177828Y211717D01*
X178079Y211666D01*
X178484D01*
X178575Y211557D01*
X178699Y211273D01*
X178571Y210963D01*
Y210533D01*
X178736Y210135D01*
X179040Y209830D01*
X179438Y209665D01*
X179869D01*
X180267Y209830D01*
X180571Y210135D01*
X180736Y210533D01*
Y210963D01*
X180608Y211273D01*
X180733Y211557D01*
X180823Y211666D01*
X184783D01*
X184874Y211557D01*
X184998Y211273D01*
X184870Y210963D01*
Y210533D01*
X185035Y210135D01*
X185339Y209830D01*
X185737Y209665D01*
X186168D01*
X186566Y209830D01*
X186871Y210135D01*
X187035Y210533D01*
Y210963D01*
X186907Y211273D01*
X187032Y211557D01*
X187122Y211666D01*
X187933D01*
X188023Y211557D01*
X188148Y211273D01*
X188020Y210963D01*
Y210533D01*
X188184Y210135D01*
X188489Y209830D01*
X188887Y209665D01*
X189318D01*
X189716Y209830D01*
X190020Y210135D01*
X190185Y210533D01*
Y210963D01*
X190057Y211273D01*
X190181Y211557D01*
X190272Y211666D01*
X191086D01*
X191177Y211557D01*
X191301Y211273D01*
X191173Y210963D01*
Y210533D01*
X191338Y210135D01*
X191643Y209830D01*
X192041Y209665D01*
X192471D01*
X192869Y209830D01*
X193174Y210135D01*
X193339Y210533D01*
Y210963D01*
X193210Y211273D01*
X193335Y211557D01*
X193425Y211666D01*
X197382D01*
X197472Y211557D01*
X197597Y211273D01*
X197468Y210963D01*
Y210533D01*
X197633Y210135D01*
X197938Y209830D01*
X198336Y209665D01*
X198345D01*
X199006Y209005D01*
X198783Y208671D01*
X198759Y208681D01*
X198328D01*
X197930Y208516D01*
X197626Y208212D01*
X197461Y207814D01*
Y207383D01*
X197626Y206985D01*
X197930Y206681D01*
X198328Y206516D01*
X198759D01*
X198821Y206542D01*
X199215Y206278D01*
Y203252D01*
X197907Y201943D01*
X197709Y201648D01*
X197640Y201299D01*
Y198769D01*
X197633Y198763D01*
X197468Y198365D01*
Y197934D01*
X197633Y197536D01*
X197938Y197232D01*
X198336Y197067D01*
X198489D01*
X199317Y196240D01*
Y190611D01*
X198489Y189784D01*
X198336D01*
X197938Y189619D01*
X197633Y189314D01*
X197468Y188916D01*
Y188485D01*
X197633Y188087D01*
X197938Y187783D01*
X198336Y187618D01*
X198767D01*
X199164Y187783D01*
X199469Y188087D01*
X199634Y188485D01*
Y188639D01*
X200698Y189703D01*
X200698Y189703D01*
X200874Y189966D01*
X200935Y190276D01*
Y196575D01*
X200874Y196885D01*
X201101Y197202D01*
X201126Y197216D01*
X201485Y197067D01*
X201916D01*
X202314Y197232D01*
X202619Y197536D01*
X202783Y197934D01*
Y198365D01*
X202619Y198763D01*
X202314Y199067D01*
X201916Y199232D01*
X201485D01*
X201087Y199067D01*
X200783Y198763D01*
X200618Y198365D01*
Y197934D01*
X200724Y197678D01*
X200391Y197455D01*
X199634Y198211D01*
Y198365D01*
X199469Y198763D01*
X199462Y198769D01*
Y200922D01*
X200138Y201598D01*
X200532Y201435D01*
Y201170D01*
X200697Y200772D01*
X201002Y200467D01*
X201399Y200303D01*
X201830D01*
X202228Y200467D01*
X202533Y200772D01*
X202697Y201170D01*
Y201601D01*
X202533Y201998D01*
X202228Y202303D01*
X201830Y202468D01*
X201399D01*
X201354Y202449D01*
X201009Y202732D01*
X201037Y202874D01*
Y209173D01*
X200983Y209448D01*
X201140Y209641D01*
X201292Y209746D01*
X201485Y209665D01*
X201916D01*
X202314Y209830D01*
X202619Y210135D01*
X202783Y210533D01*
Y210963D01*
X202655Y211273D01*
X202780Y211557D01*
X202870Y211666D01*
X206425D01*
X206676Y211717D01*
X206889Y211859D01*
X208280Y213249D01*
X210267D01*
X210528Y212988D01*
X210926Y212823D01*
X211357D01*
X211755Y212988D01*
X211987Y213219D01*
X212329Y213130D01*
X212381Y213099D01*
Y211547D01*
X212329Y211516D01*
X211987Y211426D01*
X211755Y211658D01*
X211357Y211823D01*
X210926D01*
X210528Y211658D01*
X210224Y211353D01*
X210059Y210956D01*
Y210525D01*
X210224Y210127D01*
X210528Y209822D01*
X210926Y209658D01*
X211357D01*
X211755Y209822D01*
X211987Y210054D01*
X212329Y209965D01*
X212381Y209933D01*
Y208405D01*
X212329Y208374D01*
X211987Y208284D01*
X211755Y208516D01*
X211357Y208681D01*
X210926D01*
X210528Y208516D01*
X210224Y208212D01*
X210059Y207814D01*
Y207383D01*
X210224Y206985D01*
X210528Y206681D01*
X210926Y206516D01*
X211357D01*
X211755Y206681D01*
X211987Y206912D01*
X212329Y206823D01*
X212381Y206792D01*
Y201299D01*
X212568Y200847D01*
X213852Y199563D01*
X213760Y199098D01*
X213686Y199067D01*
X213381Y198763D01*
X213216Y198365D01*
Y197934D01*
X213381Y197536D01*
X213388Y197530D01*
Y189321D01*
X213381Y189314D01*
X213216Y188916D01*
Y188485D01*
X213381Y188087D01*
X213686Y187783D01*
X214084Y187618D01*
X214515D01*
X214913Y187783D01*
X215217Y188087D01*
X215327Y188109D01*
X219707Y183729D01*
X219830Y183678D01*
X219870Y183585D01*
X219892Y183226D01*
X219681Y183015D01*
X219516Y182617D01*
Y182186D01*
X219681Y181788D01*
X219985Y181484D01*
X220383Y181319D01*
X220814D01*
X221212Y181484D01*
X221516Y181788D01*
X221681Y182186D01*
Y182617D01*
X221516Y183015D01*
X221383Y183148D01*
X221546Y183542D01*
X222800D01*
X222964Y183148D01*
X222830Y183015D01*
X222665Y182617D01*
Y182186D01*
X222830Y181788D01*
X223135Y181484D01*
X223533Y181319D01*
X223963D01*
X224361Y181484D01*
X224666Y181788D01*
X224831Y182186D01*
Y182617D01*
X224666Y183015D01*
X224533Y183148D01*
X224696Y183542D01*
X225950D01*
X226113Y183148D01*
X225980Y183015D01*
X225815Y182617D01*
Y182186D01*
X225980Y181788D01*
X226284Y181484D01*
X226682Y181319D01*
X227113D01*
X227511Y181484D01*
X227816Y181788D01*
X227980Y182186D01*
Y182617D01*
X227816Y183015D01*
X227682Y183148D01*
X227845Y183542D01*
X232249D01*
X232412Y183148D01*
X232279Y183015D01*
X232114Y182617D01*
Y182186D01*
X232127Y182155D01*
X231935Y181794D01*
X231872Y181742D01*
X231465Y181574D01*
X230226Y180335D01*
X229832D01*
X229434Y180170D01*
X229129Y179865D01*
X228965Y179467D01*
Y179037D01*
X229129Y178639D01*
X229434Y178334D01*
X229832Y178169D01*
X230263D01*
X230661Y178334D01*
X230965Y178639D01*
X231130Y179037D01*
Y179431D01*
X232025Y180325D01*
X232151Y180294D01*
X232279Y179866D01*
X232276Y179858D01*
X232114Y179467D01*
Y179037D01*
X232127Y179005D01*
X231935Y178644D01*
X231872Y178593D01*
X231465Y178424D01*
X230226Y177185D01*
X229832D01*
X229434Y177020D01*
X229129Y176716D01*
X228965Y176318D01*
Y175887D01*
X229129Y175489D01*
X229434Y175185D01*
X229832Y175020D01*
X230263D01*
X230661Y175185D01*
X230965Y175489D01*
X231130Y175887D01*
Y176281D01*
X232025Y177176D01*
X232151Y177145D01*
X232279Y176716D01*
X232276Y176709D01*
X232114Y176318D01*
Y175887D01*
X232279Y175489D01*
X232584Y175185D01*
X232605Y175075D01*
X231294Y173764D01*
X231291Y173755D01*
X231266Y173740D01*
X230839Y173692D01*
X230661Y173871D01*
X230263Y174035D01*
X229832D01*
X229434Y173871D01*
X229129Y173566D01*
X228965Y173168D01*
Y172737D01*
X229129Y172339D01*
X229434Y172035D01*
X229832Y171870D01*
X230263D01*
X230443Y171945D01*
X230876Y171748D01*
X230886Y171735D01*
X230918Y171577D01*
X230226Y170886D01*
X229832D01*
X229434Y170721D01*
X229129Y170416D01*
X228965Y170018D01*
Y169588D01*
X229129Y169190D01*
X229434Y168885D01*
X229832Y168720D01*
X230263D01*
X230661Y168885D01*
X230965Y169190D01*
X231130Y169588D01*
Y169982D01*
X232199Y171050D01*
X232386Y171502D01*
Y171718D01*
X232779Y171954D01*
X232981Y171870D01*
X233412D01*
X233810Y172035D01*
X234115Y172339D01*
X234279Y172737D01*
Y173168D01*
X234115Y173566D01*
X233891Y173790D01*
X233999Y174165D01*
X234012Y174184D01*
X235532D01*
X235544Y174165D01*
X235652Y173790D01*
X235429Y173566D01*
X235264Y173168D01*
Y172737D01*
X235277Y172706D01*
X235084Y172345D01*
X235021Y172294D01*
X234615Y172125D01*
X233376Y170886D01*
X232981D01*
X232584Y170721D01*
X232279Y170416D01*
X232114Y170018D01*
Y169588D01*
X232279Y169190D01*
X232584Y168885D01*
X232981Y168720D01*
X233412D01*
X233810Y168885D01*
X234115Y169190D01*
X234279Y169588D01*
Y169982D01*
X235332Y171034D01*
X238681D01*
X238693Y171015D01*
X238802Y170640D01*
X238578Y170416D01*
X238413Y170018D01*
Y169588D01*
X238426Y169556D01*
X238163Y169163D01*
X235067D01*
X234615Y168976D01*
X233376Y167736D01*
X232981D01*
X232584Y167571D01*
X232279Y167267D01*
X232114Y166869D01*
Y166438D01*
X232279Y166040D01*
X232584Y165736D01*
X232981Y165571D01*
X233412D01*
X233810Y165736D01*
X234115Y166040D01*
X234279Y166438D01*
Y166832D01*
X235174Y167727D01*
X235301Y167696D01*
X235429Y167267D01*
X235426Y167260D01*
X235264Y166869D01*
Y166438D01*
X235429Y166040D01*
X235733Y165736D01*
X236131Y165571D01*
X236525D01*
X237174Y164922D01*
X237626Y164735D01*
X238681D01*
X238693Y164716D01*
X238802Y164341D01*
X238578Y164117D01*
X238413Y163719D01*
Y163289D01*
X238426Y163257D01*
X238163Y162864D01*
X237679D01*
X237416Y163257D01*
X237429Y163289D01*
Y163719D01*
X237264Y164117D01*
X236960Y164422D01*
X236562Y164587D01*
X236131D01*
X235733Y164422D01*
X235429Y164117D01*
X235264Y163719D01*
Y163289D01*
X235047Y162973D01*
X234659Y162946D01*
X234279Y163325D01*
Y163719D01*
X234115Y164117D01*
X233810Y164422D01*
X233412Y164587D01*
X232981D01*
X232584Y164422D01*
X232279Y164117D01*
X232114Y163719D01*
Y163289D01*
X232279Y162891D01*
X232584Y162586D01*
X232864Y162470D01*
X232786Y162076D01*
X230913D01*
X230784Y162233D01*
X230645Y162602D01*
X230949Y162906D01*
X231114Y163304D01*
Y163735D01*
X230949Y164133D01*
X230645Y164437D01*
X230247Y164602D01*
X229816D01*
X229728Y164566D01*
X229334Y164829D01*
Y165351D01*
X229728Y165614D01*
X229832Y165571D01*
X230263D01*
X230661Y165736D01*
X230965Y166040D01*
X231130Y166438D01*
Y166869D01*
X230965Y167267D01*
X230661Y167571D01*
X230263Y167736D01*
X229832D01*
X229728Y167693D01*
X229334Y167956D01*
Y168006D01*
X229147Y168457D01*
X227980Y169624D01*
Y170018D01*
X227816Y170416D01*
X227511Y170721D01*
X227113Y170886D01*
X226682D01*
X226284Y170721D01*
X225980Y170416D01*
X225815Y170018D01*
Y169588D01*
X225980Y169190D01*
X226284Y168885D01*
X226682Y168720D01*
X227076D01*
X227866Y167930D01*
X227840Y167799D01*
X227746Y167734D01*
X227402Y167616D01*
X227113Y167736D01*
X226682D01*
X226284Y167571D01*
X225980Y167267D01*
X225815Y166869D01*
Y166475D01*
X225166Y165826D01*
X224979Y165374D01*
Y162974D01*
X225166Y162522D01*
X227443Y160245D01*
X227406Y160023D01*
X227323Y159851D01*
X217311D01*
X216363Y160799D01*
X215911Y160986D01*
X212762D01*
X211639Y162109D01*
X211732Y162573D01*
X211763Y162586D01*
X212067Y162891D01*
X212232Y163289D01*
Y163719D01*
X212067Y164117D01*
X211763Y164422D01*
X211365Y164587D01*
X210934D01*
X210903Y164574D01*
X210509Y164837D01*
Y165321D01*
X210903Y165584D01*
X210934Y165571D01*
X211365D01*
X211763Y165736D01*
X212067Y166040D01*
X212232Y166438D01*
Y166869D01*
X212067Y167267D01*
X211763Y167571D01*
X211365Y167736D01*
X210934D01*
X210903Y167723D01*
X210509Y167986D01*
Y168470D01*
X210903Y168733D01*
X210934Y168720D01*
X211365D01*
X211763Y168885D01*
X212067Y169190D01*
X212232Y169588D01*
Y170018D01*
X212067Y170416D01*
X211763Y170721D01*
X211365Y170886D01*
X210934D01*
X210903Y170873D01*
X210509Y171136D01*
Y171620D01*
X210903Y171883D01*
X210934Y171870D01*
X211365D01*
X211763Y172035D01*
X212067Y172339D01*
X212232Y172737D01*
Y173168D01*
X212067Y173566D01*
X211763Y173871D01*
X211365Y174035D01*
X210934D01*
X210927Y174032D01*
X210605Y174239D01*
X210578Y174643D01*
X210955Y175020D01*
X211349D01*
X211747Y175185D01*
X212052Y175489D01*
X212216Y175887D01*
Y176318D01*
X212052Y176716D01*
X211747Y177020D01*
X211349Y177185D01*
X210918D01*
X210521Y177020D01*
X210216Y176716D01*
X210051Y176318D01*
Y175924D01*
X209418Y175291D01*
X209231Y174839D01*
Y173140D01*
X208867Y172990D01*
X205933Y175924D01*
Y176318D01*
X205768Y176716D01*
X205464Y177020D01*
X205066Y177185D01*
X204635D01*
X204237Y177020D01*
X203933Y176716D01*
X203768Y176318D01*
Y175887D01*
X203933Y175489D01*
X204237Y175185D01*
X204635Y175020D01*
X205029D01*
X208443Y171605D01*
Y162648D01*
X208631Y162196D01*
X212854Y157972D01*
X213306Y157785D01*
X215491D01*
X215701Y157392D01*
X215525Y156966D01*
Y156340D01*
X215765Y155761D01*
X216208Y155318D01*
X216787Y155078D01*
X217413D01*
X217992Y155318D01*
X218435Y155761D01*
X218675Y156340D01*
Y156966D01*
X218499Y157392D01*
X218709Y157785D01*
X235265D01*
X235290Y157736D01*
X235404Y157359D01*
X235100Y157054D01*
X234935Y156656D01*
Y156226D01*
X235100Y155828D01*
X235404Y155523D01*
X235802Y155358D01*
X236233D01*
X236631Y155523D01*
X236936Y155828D01*
X237100Y156226D01*
X237253Y156328D01*
X237335Y156294D01*
X278856D01*
X279308Y156481D01*
X281554Y158727D01*
X281991Y158607D01*
X282082Y158387D01*
X282387Y158082D01*
X282785Y157917D01*
X283215D01*
X283613Y158082D01*
X283918Y158387D01*
X284083Y158785D01*
Y159215D01*
X284070Y159247D01*
X284262Y159608D01*
X284325Y159659D01*
X284732Y159827D01*
X287821Y162917D01*
X288215D01*
X288613Y163082D01*
X288918Y163387D01*
X289083Y163785D01*
Y164215D01*
X288918Y164613D01*
X288613Y164918D01*
X288215Y165083D01*
X287785D01*
X287387Y164918D01*
X287082Y164613D01*
X286917Y164215D01*
Y163821D01*
X284015Y160919D01*
X283147D01*
X282996Y161283D01*
X283452Y161739D01*
X283639Y162190D01*
Y163108D01*
X283918Y163387D01*
X284083Y163785D01*
Y164215D01*
X283918Y164613D01*
X283613Y164918D01*
X283215Y165083D01*
X282785D01*
X282387Y164918D01*
X282082Y164613D01*
X281917Y164215D01*
Y163785D01*
X282082Y163387D01*
X282361Y163108D01*
Y162455D01*
X279395Y159490D01*
X278931Y159582D01*
X278918Y159613D01*
X278613Y159918D01*
X278215Y160083D01*
X277785D01*
X277387Y159918D01*
X277082Y159613D01*
X276917Y159215D01*
Y158785D01*
X276930Y158753D01*
X276667Y158360D01*
X274333D01*
X274070Y158753D01*
X274083Y158785D01*
Y159215D01*
X273918Y159613D01*
X273914Y159617D01*
X274078Y160010D01*
X276459D01*
X276911Y160198D01*
X291306Y174592D01*
X291717Y174566D01*
X291930Y174247D01*
X291917Y174215D01*
Y173785D01*
X292082Y173387D01*
X292387Y173082D01*
X292785Y172917D01*
X293215D01*
X293613Y173082D01*
X293918Y173387D01*
X294083Y173785D01*
Y174215D01*
X294070Y174247D01*
X294262Y174608D01*
X294325Y174659D01*
X294731Y174828D01*
X297821Y177917D01*
X298215D01*
X298613Y178082D01*
X298918Y178387D01*
X299083Y178785D01*
Y179215D01*
X298918Y179613D01*
X298613Y179918D01*
X298215Y180083D01*
X297785D01*
X297387Y179918D01*
X297082Y179613D01*
X296917Y179215D01*
Y178821D01*
X294015Y175919D01*
X291379D01*
X291216Y176312D01*
X292821Y177917D01*
X293215D01*
X293613Y178082D01*
X293918Y178387D01*
X294083Y178785D01*
Y179215D01*
X293918Y179613D01*
X293613Y179918D01*
X293215Y180083D01*
X292785D01*
X292387Y179918D01*
X292082Y179613D01*
X291917Y179215D01*
Y178821D01*
X289015Y175919D01*
X286089D01*
X285637Y175732D01*
X279395Y169490D01*
X278931Y169582D01*
X278918Y169613D01*
X278613Y169918D01*
X278215Y170083D01*
X277785D01*
X277387Y169918D01*
X277082Y169613D01*
X276917Y169215D01*
Y168785D01*
X277082Y168387D01*
X277387Y168082D01*
X277418Y168069D01*
X277510Y167605D01*
X274395Y164490D01*
X273931Y164582D01*
X273918Y164613D01*
X273613Y164918D01*
X273215Y165083D01*
X272785D01*
X272387Y164918D01*
X272082Y164613D01*
X271917Y164215D01*
Y163785D01*
X272082Y163387D01*
X272387Y163082D01*
X272418Y163069D01*
X272510Y162605D01*
X271982Y162076D01*
X269304D01*
X269153Y162440D01*
X283452Y176739D01*
X283639Y177190D01*
Y178108D01*
X283918Y178387D01*
X284083Y178785D01*
Y179215D01*
X284070Y179247D01*
X284262Y179608D01*
X284325Y179659D01*
X284732Y179827D01*
X287821Y182917D01*
X288215D01*
X288613Y183082D01*
X288918Y183387D01*
X289083Y183785D01*
Y184215D01*
X288918Y184613D01*
X288613Y184918D01*
X288215Y185083D01*
X287785D01*
X287387Y184918D01*
X287082Y184613D01*
X286917Y184215D01*
Y183821D01*
X284015Y180919D01*
X281380D01*
X281216Y181312D01*
X282821Y182917D01*
X283215D01*
X283613Y183082D01*
X283918Y183387D01*
X284083Y183785D01*
Y184215D01*
X284070Y184247D01*
X284262Y184608D01*
X284325Y184659D01*
X284732Y184827D01*
X287821Y187917D01*
X288215D01*
X288613Y188082D01*
X288918Y188387D01*
X289083Y188785D01*
Y189215D01*
X288918Y189613D01*
X288613Y189918D01*
X288215Y190083D01*
X287785D01*
X287387Y189918D01*
X287082Y189613D01*
X286917Y189215D01*
Y188821D01*
X284015Y185919D01*
X252470D01*
X252018Y185731D01*
X251107Y184820D01*
X246833D01*
X246570Y185214D01*
X246583Y185245D01*
Y185676D01*
X246418Y186074D01*
X246113Y186379D01*
X246089Y186388D01*
X246168Y186782D01*
X273231D01*
X273683Y186969D01*
X275074Y188361D01*
X277108D01*
X277387Y188082D01*
X277785Y187917D01*
X278215D01*
X278613Y188082D01*
X278918Y188387D01*
X279083Y188785D01*
Y189215D01*
X278918Y189613D01*
X278613Y189918D01*
X278215Y190083D01*
X277785D01*
X277387Y189918D01*
X277108Y189639D01*
X274810D01*
X274375Y189459D01*
X274358Y189452D01*
X273931Y189582D01*
X273918Y189613D01*
X273613Y189918D01*
X273215Y190083D01*
X272821D01*
X271902Y191002D01*
X271450Y191189D01*
X231371D01*
X231108Y191583D01*
X231130Y191635D01*
Y192066D01*
X230965Y192464D01*
X230661Y192768D01*
X230263Y192933D01*
X229832D01*
X229434Y192768D01*
X229129Y192464D01*
X228965Y192066D01*
Y191635D01*
X228986Y191583D01*
X228723Y191189D01*
X228222D01*
X227959Y191583D01*
X227980Y191635D01*
Y192066D01*
X227816Y192464D01*
X227511Y192768D01*
X227480Y192781D01*
X227387Y193246D01*
X230373Y196231D01*
X242021D01*
X242473Y196418D01*
X245935Y199880D01*
X251835D01*
X252030Y199486D01*
X251917Y199215D01*
Y198785D01*
X252082Y198387D01*
X252387Y198082D01*
X252785Y197917D01*
X253215D01*
X253613Y198082D01*
X253918Y198387D01*
X254083Y198785D01*
Y199215D01*
X253970Y199486D01*
X254165Y199880D01*
X256835D01*
X257030Y199486D01*
X256917Y199215D01*
Y198785D01*
X257082Y198387D01*
X257387Y198082D01*
X257785Y197917D01*
X258215D01*
X258613Y198082D01*
X258918Y198387D01*
X259083Y198785D01*
Y199215D01*
X258970Y199486D01*
X259165Y199880D01*
X281835D01*
X282030Y199486D01*
X281917Y199215D01*
Y198785D01*
X282082Y198387D01*
X282387Y198082D01*
X282785Y197917D01*
X283215D01*
X283613Y198082D01*
X283918Y198387D01*
X284083Y198785D01*
Y199215D01*
X283970Y199486D01*
X284165Y199880D01*
X286835D01*
X287030Y199486D01*
X286917Y199215D01*
Y198785D01*
X287082Y198387D01*
X287387Y198082D01*
X287785Y197917D01*
X288215D01*
X288613Y198082D01*
X288918Y198387D01*
X289083Y198785D01*
Y199215D01*
X288970Y199486D01*
X289165Y199880D01*
X289519D01*
X289971Y200067D01*
X299731Y209827D01*
X299919Y210279D01*
Y214530D01*
X299731Y214982D01*
X298982Y215732D01*
X298530Y215919D01*
X296538D01*
X296086Y215732D01*
X294476Y214122D01*
X294272Y214171D01*
X294062Y214265D01*
X293918Y214613D01*
X293613Y214918D01*
X293215Y215083D01*
X292785D01*
X292387Y214918D01*
X292082Y214613D01*
X291917Y214215D01*
Y213785D01*
X292082Y213387D01*
X292387Y213082D01*
X292735Y212938D01*
X292829Y212728D01*
X292878Y212524D01*
X289994Y209639D01*
X288892D01*
X288613Y209918D01*
X288215Y210083D01*
X287785D01*
X287387Y209918D01*
X287082Y209613D01*
X286917Y209215D01*
Y208785D01*
X286930Y208753D01*
X286667Y208360D01*
X284333D01*
X284070Y208753D01*
X284083Y208785D01*
Y209215D01*
X283918Y209613D01*
X283613Y209918D01*
X283215Y210083D01*
X282785D01*
X282387Y209918D01*
X282082Y209613D01*
X281917Y209215D01*
Y208785D01*
X281930Y208753D01*
X281667Y208360D01*
X279333D01*
X279070Y208753D01*
X279083Y208785D01*
Y209215D01*
X278918Y209613D01*
X278613Y209918D01*
X278215Y210083D01*
X277785D01*
X277387Y209918D01*
X277082Y209613D01*
X276917Y209215D01*
Y208785D01*
X276930Y208753D01*
X276667Y208360D01*
X274333D01*
X274070Y208753D01*
X274083Y208785D01*
Y209215D01*
X273918Y209613D01*
X273613Y209918D01*
X273215Y210083D01*
X272785D01*
X272387Y209918D01*
X272082Y209613D01*
X271917Y209215D01*
Y208785D01*
X271930Y208753D01*
X271667Y208360D01*
X269333D01*
X269070Y208753D01*
X269083Y208785D01*
Y209215D01*
X268918Y209613D01*
X268613Y209918D01*
X268215Y210083D01*
X267785D01*
X267387Y209918D01*
X267082Y209613D01*
X266917Y209215D01*
Y208785D01*
X266930Y208753D01*
X266667Y208360D01*
X264333D01*
X264070Y208753D01*
X264083Y208785D01*
Y209215D01*
X263918Y209613D01*
X263613Y209918D01*
X263215Y210083D01*
X262785D01*
X262387Y209918D01*
X262082Y209613D01*
X261917Y209215D01*
Y208785D01*
X261930Y208753D01*
X261667Y208360D01*
X259333D01*
X259070Y208753D01*
X259083Y208785D01*
Y209215D01*
X258918Y209613D01*
X258613Y209918D01*
X258215Y210083D01*
X257785D01*
X257387Y209918D01*
X257082Y209613D01*
X256917Y209215D01*
Y208785D01*
X256930Y208753D01*
X256667Y208360D01*
X254333D01*
X254070Y208753D01*
X254083Y208785D01*
Y209215D01*
X253918Y209613D01*
X254143Y209945D01*
X254230Y210004D01*
X254480Y210377D01*
X254542Y210691D01*
X254627Y210747D01*
X254882Y210825D01*
X254987Y210828D01*
X255245Y210656D01*
X255562Y210593D01*
X255685Y210542D01*
X276991D01*
X277443Y210729D01*
X281306Y214592D01*
X281717Y214566D01*
X281930Y214247D01*
X281917Y214215D01*
Y213785D01*
X282082Y213387D01*
X282387Y213082D01*
X282785Y212917D01*
X283215D01*
X283613Y213082D01*
X283918Y213387D01*
X284083Y213785D01*
Y214215D01*
X284070Y214247D01*
X284333Y214640D01*
X286667D01*
X286930Y214247D01*
X286917Y214215D01*
Y213785D01*
X287082Y213387D01*
X287387Y213082D01*
X287785Y212917D01*
X288215D01*
X288613Y213082D01*
X288918Y213387D01*
X289083Y213785D01*
Y214215D01*
X289070Y214247D01*
X289262Y214608D01*
X289325Y214659D01*
X289732Y214827D01*
X292821Y217917D01*
X293215D01*
X293613Y218082D01*
X293918Y218387D01*
X294083Y218785D01*
Y219215D01*
X293918Y219613D01*
X293613Y219918D01*
X293215Y220083D01*
X292785D01*
X292387Y219918D01*
X292082Y219613D01*
X291917Y219215D01*
Y218821D01*
X289015Y215919D01*
X281089D01*
X280637Y215732D01*
X279395Y214490D01*
X278931Y214582D01*
X278918Y214613D01*
X278613Y214918D01*
X278215Y215083D01*
X277785D01*
X277387Y214918D01*
X277082Y214613D01*
X276917Y214215D01*
Y213785D01*
X277082Y213387D01*
X277387Y213082D01*
X277418Y213069D01*
X277510Y212605D01*
X276726Y211820D01*
X255787D01*
Y212608D01*
X255736Y212731D01*
X255673Y213048D01*
X255424Y213421D01*
X255051Y213670D01*
X254734Y213733D01*
X254611Y213784D01*
X254492D01*
X254473Y213776D01*
X254241Y213887D01*
X254083Y214078D01*
Y214215D01*
X253918Y214613D01*
X253796Y214735D01*
X253959Y215128D01*
X257041D01*
X257204Y214735D01*
X257082Y214613D01*
X256917Y214215D01*
Y213785D01*
X257082Y213387D01*
X257387Y213082D01*
X257785Y212917D01*
X258215D01*
X258613Y213082D01*
X258918Y213387D01*
X259083Y213785D01*
Y214215D01*
X258918Y214613D01*
X258796Y214735D01*
X258959Y215128D01*
X262041D01*
X262204Y214735D01*
X262082Y214613D01*
X261917Y214215D01*
Y213785D01*
X262082Y213387D01*
X262387Y213082D01*
X262785Y212917D01*
X263215D01*
X263613Y213082D01*
X263918Y213387D01*
X264083Y213785D01*
Y214215D01*
X263918Y214613D01*
X263796Y214735D01*
X263959Y215128D01*
X267041D01*
X267204Y214735D01*
X267082Y214613D01*
X266917Y214215D01*
Y213785D01*
X267082Y213387D01*
X267387Y213082D01*
X267785Y212917D01*
X268215D01*
X268613Y213082D01*
X268918Y213387D01*
X269083Y213785D01*
Y214215D01*
X268918Y214613D01*
X268796Y214735D01*
X268959Y215128D01*
X272041D01*
X272204Y214735D01*
X272082Y214613D01*
X271917Y214215D01*
Y213785D01*
X272082Y213387D01*
X272387Y213082D01*
X272785Y212917D01*
X273215D01*
X273613Y213082D01*
X273918Y213387D01*
X274083Y213785D01*
Y214215D01*
X273918Y214613D01*
X273796Y214735D01*
X273959Y215128D01*
X276577D01*
X277029Y215316D01*
X283623Y221909D01*
X283810Y222361D01*
Y223906D01*
X287821Y227917D01*
X288215D01*
X288613Y228082D01*
X288918Y228387D01*
X289083Y228785D01*
Y229215D01*
X289070Y229247D01*
X289333Y229640D01*
X291667D01*
X291930Y229247D01*
X291917Y229215D01*
Y228785D01*
X292082Y228387D01*
X292387Y228082D01*
X292785Y227917D01*
X293215D01*
X293613Y228082D01*
X293918Y228387D01*
X294083Y228785D01*
Y229215D01*
X294070Y229247D01*
X294333Y229640D01*
X296456D01*
X296917Y229179D01*
Y228785D01*
X297082Y228387D01*
X297387Y228082D01*
X297785Y227917D01*
X298215D01*
X298613Y228082D01*
X298918Y228387D01*
X298967Y228506D01*
X299361Y228427D01*
Y227765D01*
X298650Y227054D01*
X293605D01*
X293153Y226867D01*
X291098Y224811D01*
X290910Y224359D01*
Y222814D01*
X288179Y220083D01*
X287785D01*
X287387Y219918D01*
X287082Y219613D01*
X286917Y219215D01*
Y218785D01*
X287082Y218387D01*
X287387Y218082D01*
X287785Y217917D01*
X288215D01*
X288613Y218082D01*
X288918Y218387D01*
X289083Y218785D01*
Y219179D01*
X292002Y222098D01*
X292189Y222550D01*
Y222766D01*
X292583Y223001D01*
X292785Y222917D01*
X293215D01*
X293613Y223082D01*
X293918Y223387D01*
X294083Y223785D01*
Y224215D01*
X293918Y224613D01*
X293613Y224918D01*
X293582Y224931D01*
X293490Y225395D01*
X293870Y225775D01*
X298915D01*
X299367Y225963D01*
X300452Y227048D01*
X300639Y227500D01*
Y229700D01*
X300452Y230152D01*
X299085Y231519D01*
X298633Y231706D01*
X257177D01*
X256725Y231519D01*
X256574Y231368D01*
X242207D01*
X241944Y231762D01*
X241957Y231793D01*
Y232224D01*
X241792Y232621D01*
X241488Y232926D01*
X241090Y233091D01*
X240659D01*
X240261Y232926D01*
X239957Y232621D01*
X239792Y232224D01*
Y231793D01*
X239805Y231762D01*
X239542Y231368D01*
X215382D01*
X214930Y231181D01*
X212203Y228453D01*
X211809Y228616D01*
Y232078D01*
X211918Y232187D01*
X212083Y232585D01*
Y233015D01*
X211918Y233413D01*
X211613Y233718D01*
X211215Y233883D01*
X210785D01*
X210387Y233718D01*
X210082Y233413D01*
X209917Y233015D01*
Y232585D01*
X210082Y232187D01*
X210191Y232078D01*
Y228779D01*
X205853Y224441D01*
X205678Y224178D01*
X205616Y223868D01*
X205616Y223868D01*
Y221477D01*
X205222Y221215D01*
X205066Y221280D01*
X204635D01*
X204237Y221115D01*
X203933Y220810D01*
X203768Y220412D01*
Y219982D01*
X203871Y219733D01*
X203663Y219339D01*
X199739D01*
X199531Y219733D01*
X199634Y219982D01*
Y220412D01*
X199469Y220810D01*
X199164Y221115D01*
X198767Y221280D01*
X198336D01*
X197938Y221115D01*
X197633Y220810D01*
X197468Y220412D01*
Y219982D01*
X197572Y219733D01*
X197363Y219339D01*
X196589D01*
X196381Y219733D01*
X196484Y219982D01*
Y220412D01*
X196319Y220810D01*
X196015Y221115D01*
X195617Y221280D01*
X195186D01*
X194788Y221115D01*
X194484Y220810D01*
X194319Y220412D01*
Y219982D01*
X194447Y219673D01*
X194459Y219518D01*
X194331Y219180D01*
X194215Y219102D01*
X193347Y218234D01*
X193269Y218118D01*
X192931Y217990D01*
X192776Y218002D01*
X192467Y218130D01*
X192037D01*
X191639Y217965D01*
X191334Y217660D01*
X191169Y217263D01*
Y216832D01*
X191334Y216434D01*
X191639Y216129D01*
X192037Y215965D01*
X192467D01*
X192716Y216068D01*
X193110Y215859D01*
Y215380D01*
X193110Y215380D01*
X193171Y215071D01*
X193172Y215069D01*
X192869Y214815D01*
X192471Y214980D01*
X192041D01*
X191643Y214815D01*
X191338Y214511D01*
X191173Y214113D01*
Y213682D01*
X191301Y213373D01*
X191177Y213089D01*
X191086Y212979D01*
X190272D01*
X190181Y213089D01*
X190057Y213373D01*
X190185Y213682D01*
Y214113D01*
X190020Y214511D01*
X189716Y214815D01*
X189318Y214980D01*
X189164D01*
X188407Y215737D01*
X188630Y216071D01*
X188887Y215965D01*
X189318D01*
X189716Y216129D01*
X190020Y216434D01*
X190185Y216832D01*
Y217263D01*
X190020Y217660D01*
X189716Y217965D01*
X189318Y218130D01*
X188887D01*
X188489Y217965D01*
X188184Y217660D01*
X188020Y217263D01*
Y216832D01*
X188169Y216472D01*
X188155Y216447D01*
X187837Y216220D01*
X187528Y216282D01*
X187528Y216282D01*
X187233D01*
X186971Y216675D01*
X187035Y216832D01*
Y217263D01*
X186871Y217660D01*
X186566Y217965D01*
X186168Y218130D01*
X185737D01*
X185339Y217965D01*
X185035Y217660D01*
X184870Y217263D01*
Y216832D01*
X184935Y216675D01*
X184673Y216282D01*
X184083D01*
X183821Y216675D01*
X183886Y216832D01*
Y217263D01*
X183721Y217660D01*
X183416Y217965D01*
X183019Y218130D01*
X182588D01*
X182190Y217965D01*
X182181Y217956D01*
X181875Y218207D01*
X181884Y218220D01*
X181946Y218530D01*
X181946Y218530D01*
Y219009D01*
X182339Y219217D01*
X182588Y219114D01*
X183019D01*
X183416Y219279D01*
X183721Y219584D01*
X183886Y219982D01*
Y220412D01*
X183721Y220810D01*
X183416Y221115D01*
X183019Y221280D01*
X182606D01*
X182564Y221302D01*
X182296Y221585D01*
X182333Y221772D01*
Y222093D01*
X182588Y222264D01*
X183019D01*
X183416Y222429D01*
X183721Y222733D01*
X183886Y223131D01*
Y223562D01*
X183721Y223960D01*
X183416Y224264D01*
X183019Y224429D01*
X182588D01*
X182422Y224787D01*
X182406Y224954D01*
X182865Y225413D01*
X183019D01*
X183416Y225578D01*
X183721Y225883D01*
X183886Y226281D01*
Y226711D01*
X183721Y227109D01*
X183416Y227414D01*
X183019Y227579D01*
X182588D01*
X182190Y227414D01*
X181885Y227109D01*
X181720Y226711D01*
Y226558D01*
X180964Y225801D01*
X180630Y226024D01*
X180736Y226281D01*
Y226711D01*
X180571Y227109D01*
X180267Y227414D01*
X179869Y227579D01*
X179438D01*
X179040Y227414D01*
X178736Y227109D01*
X178571Y226711D01*
Y226281D01*
X178736Y225883D01*
X179040Y225578D01*
X179438Y225413D01*
X179869D01*
X180267Y225578D01*
X180276Y225587D01*
X180582Y225336D01*
X180573Y225323D01*
X180511Y225013D01*
X180511Y225013D01*
Y224534D01*
X180117Y224326D01*
X179869Y224429D01*
X179438D01*
X179040Y224264D01*
X178736Y223960D01*
X178571Y223562D01*
Y223131D01*
X178736Y222733D01*
X179040Y222429D01*
X179438Y222264D01*
X179869D01*
X180055Y222341D01*
X180485Y222185D01*
X180519Y222086D01*
X180531Y221908D01*
X180389Y221694D01*
X180351Y221506D01*
X180081Y221302D01*
X179933Y221253D01*
X179869Y221280D01*
X179438D01*
X179040Y221115D01*
X178736Y220810D01*
X178571Y220412D01*
Y219982D01*
X178736Y219584D01*
X179040Y219279D01*
X179438Y219114D01*
X179869D01*
X180034Y218757D01*
X180051Y218589D01*
X179592Y218130D01*
X179438D01*
X179040Y217965D01*
X178736Y217660D01*
X178571Y217263D01*
Y216832D01*
X178736Y216434D01*
X179040Y216129D01*
X179438Y215965D01*
X179592D01*
X180656Y214900D01*
X180656Y214900D01*
X180919Y214725D01*
X181228Y214663D01*
X181523D01*
X181785Y214269D01*
X181720Y214113D01*
Y213682D01*
X181849Y213373D01*
X181724Y213089D01*
X181634Y212979D01*
X178351D01*
X172870Y218460D01*
X172935Y218693D01*
X173018Y218869D01*
X173378Y219018D01*
X173682Y219323D01*
X173847Y219721D01*
Y220151D01*
X173682Y220549D01*
X173378Y220854D01*
X172980Y221019D01*
X172549D01*
X172151Y220854D01*
X171847Y220549D01*
X171698Y220189D01*
X171522Y220107D01*
X171288Y220041D01*
X164156Y227173D01*
Y242400D01*
X164418Y242661D01*
X164583Y243059D01*
Y243490D01*
X164418Y243888D01*
X164113Y244193D01*
X163715Y244357D01*
D02*
G37*
G36*
X288215Y225083D02*
X287785D01*
X287387Y224918D01*
X287082Y224613D01*
X286917Y224215D01*
Y223785D01*
X287082Y223387D01*
X287387Y223082D01*
X287785Y222917D01*
X288215D01*
X288613Y223082D01*
X288918Y223387D01*
X289083Y223785D01*
Y224215D01*
X288918Y224613D01*
X288613Y224918D01*
X288215Y225083D01*
D02*
G37*
G36*
X201916Y224429D02*
X201485D01*
X201087Y224264D01*
X200783Y223960D01*
X200618Y223562D01*
Y223131D01*
X200783Y222733D01*
X201087Y222429D01*
X201485Y222264D01*
X201916D01*
X202314Y222429D01*
X202619Y222733D01*
X202783Y223131D01*
Y223562D01*
X202619Y223960D01*
X202314Y224264D01*
X201916Y224429D01*
D02*
G37*
G36*
X198767D02*
X198336D01*
X197938Y224264D01*
X197633Y223960D01*
X197468Y223562D01*
Y223131D01*
X197633Y222733D01*
X197938Y222429D01*
X198336Y222264D01*
X198767D01*
X199164Y222429D01*
X199469Y222733D01*
X199634Y223131D01*
Y223562D01*
X199469Y223960D01*
X199164Y224264D01*
X198767Y224429D01*
D02*
G37*
G36*
X195617D02*
X195186D01*
X194788Y224264D01*
X194484Y223960D01*
X194319Y223562D01*
Y223131D01*
X194484Y222733D01*
X194788Y222429D01*
X195186Y222264D01*
X195617D01*
X196015Y222429D01*
X196319Y222733D01*
X196484Y223131D01*
Y223562D01*
X196319Y223960D01*
X196015Y224264D01*
X195617Y224429D01*
D02*
G37*
G36*
X192467D02*
X192037D01*
X191639Y224264D01*
X191334Y223960D01*
X191169Y223562D01*
Y223131D01*
X191334Y222733D01*
X191639Y222429D01*
X192037Y222264D01*
X192467D01*
X192865Y222429D01*
X193170Y222733D01*
X193335Y223131D01*
Y223562D01*
X193170Y223960D01*
X192865Y224264D01*
X192467Y224429D01*
D02*
G37*
G36*
X189318D02*
X188887D01*
X188489Y224264D01*
X188184Y223960D01*
X188020Y223562D01*
Y223131D01*
X188184Y222733D01*
X188489Y222429D01*
X188887Y222264D01*
X189318D01*
X189716Y222429D01*
X190020Y222733D01*
X190185Y223131D01*
Y223562D01*
X190020Y223960D01*
X189716Y224264D01*
X189318Y224429D01*
D02*
G37*
G36*
X186168D02*
X185737D01*
X185339Y224264D01*
X185035Y223960D01*
X184870Y223562D01*
Y223131D01*
X185035Y222733D01*
X185339Y222429D01*
X185737Y222264D01*
X186168D01*
X186566Y222429D01*
X186871Y222733D01*
X187035Y223131D01*
Y223562D01*
X186871Y223960D01*
X186566Y224264D01*
X186168Y224429D01*
D02*
G37*
G36*
X192467Y221280D02*
X192037D01*
X191639Y221115D01*
X191334Y220810D01*
X191169Y220412D01*
Y219982D01*
X191334Y219584D01*
X191639Y219279D01*
X192037Y219114D01*
X192467D01*
X192865Y219279D01*
X193170Y219584D01*
X193335Y219982D01*
Y220412D01*
X193170Y220810D01*
X192865Y221115D01*
X192467Y221280D01*
D02*
G37*
G36*
X189318D02*
X188887D01*
X188489Y221115D01*
X188184Y220810D01*
X188020Y220412D01*
Y219982D01*
X188184Y219584D01*
X188489Y219279D01*
X188887Y219114D01*
X189318D01*
X189716Y219279D01*
X190020Y219584D01*
X190185Y219982D01*
Y220412D01*
X190020Y220810D01*
X189716Y221115D01*
X189318Y221280D01*
D02*
G37*
G36*
X152715Y221004D02*
X152285D01*
X151887Y220839D01*
X151582Y220534D01*
X151417Y220137D01*
Y219706D01*
X151582Y219308D01*
X151887Y219003D01*
X152285Y218839D01*
X152715D01*
X153113Y219003D01*
X153418Y219308D01*
X153583Y219706D01*
Y220137D01*
X153418Y220534D01*
X153113Y220839D01*
X152715Y221004D01*
D02*
G37*
G36*
X149566D02*
X149135D01*
X148737Y220839D01*
X148433Y220534D01*
X148268Y220137D01*
Y219706D01*
X148433Y219308D01*
X148737Y219003D01*
X149135Y218839D01*
X149566D01*
X149964Y219003D01*
X150268Y219308D01*
X150433Y219706D01*
Y220137D01*
X150268Y220534D01*
X149964Y220839D01*
X149566Y221004D01*
D02*
G37*
G36*
X298215Y220083D02*
X297785D01*
X297387Y219918D01*
X297082Y219613D01*
X296917Y219215D01*
Y218785D01*
X297082Y218387D01*
X297387Y218082D01*
X297785Y217917D01*
X298215D01*
X298613Y218082D01*
X298918Y218387D01*
X299083Y218785D01*
Y219215D01*
X298918Y219613D01*
X298613Y219918D01*
X298215Y220083D01*
D02*
G37*
G36*
X123975Y219443D02*
X123545D01*
X123147Y219278D01*
X122842Y218973D01*
X122677Y218576D01*
Y218145D01*
X122842Y217747D01*
X123147Y217442D01*
X123545Y217278D01*
X123975D01*
X124373Y217442D01*
X124678Y217747D01*
X124843Y218145D01*
Y218576D01*
X124678Y218973D01*
X124373Y219278D01*
X123975Y219443D01*
D02*
G37*
G36*
X176719Y218130D02*
X176289D01*
X175891Y217965D01*
X175586Y217660D01*
X175421Y217263D01*
Y216832D01*
X175586Y216434D01*
X175891Y216129D01*
X176289Y215965D01*
X176719D01*
X177117Y216129D01*
X177422Y216434D01*
X177587Y216832D01*
Y217263D01*
X177422Y217660D01*
X177117Y217965D01*
X176719Y218130D01*
D02*
G37*
G36*
X146192Y217907D02*
X145761D01*
X145363Y217742D01*
X145059Y217438D01*
X144894Y217040D01*
Y216609D01*
X145059Y216211D01*
X145363Y215907D01*
X145761Y215742D01*
X146192D01*
X146590Y215907D01*
X146894Y216211D01*
X147059Y216609D01*
Y217040D01*
X146894Y217438D01*
X146590Y217742D01*
X146192Y217907D01*
D02*
G37*
G36*
X133818Y217854D02*
X133387D01*
X132989Y217689D01*
X132685Y217385D01*
X132520Y216987D01*
Y216556D01*
X132685Y216158D01*
X132989Y215854D01*
X133387Y215689D01*
X133818D01*
X134216Y215854D01*
X134520Y216158D01*
X134685Y216556D01*
Y216987D01*
X134520Y217385D01*
X134216Y217689D01*
X133818Y217854D01*
D02*
G37*
G36*
X130668D02*
X130237D01*
X129840Y217689D01*
X129535Y217385D01*
X129370Y216987D01*
Y216556D01*
X129535Y216158D01*
X129840Y215854D01*
X130237Y215689D01*
X130668D01*
X131066Y215854D01*
X131371Y216158D01*
X131535Y216556D01*
Y216987D01*
X131371Y217385D01*
X131066Y217689D01*
X130668Y217854D01*
D02*
G37*
G36*
X152715Y217854D02*
X152285D01*
X151887Y217689D01*
X151582Y217385D01*
X151417Y216987D01*
Y216556D01*
X151582Y216158D01*
X151887Y215854D01*
X152285Y215689D01*
X152715D01*
X153113Y215854D01*
X153418Y216158D01*
X153583Y216556D01*
Y216987D01*
X153418Y217385D01*
X153113Y217689D01*
X152715Y217854D01*
D02*
G37*
G36*
X166692Y216207D02*
X166261D01*
X165863Y216042D01*
X165559Y215738D01*
X165394Y215340D01*
Y214909D01*
X165559Y214511D01*
X165863Y214207D01*
X166261Y214042D01*
X166692D01*
X167090Y214207D01*
X167394Y214511D01*
X167559Y214909D01*
Y215340D01*
X167394Y215738D01*
X167090Y216042D01*
X166692Y216207D01*
D02*
G37*
G36*
X152715Y214705D02*
X152285D01*
X151887Y214540D01*
X151582Y214235D01*
X151417Y213837D01*
Y213407D01*
X151582Y213009D01*
X151887Y212704D01*
X152285Y212539D01*
X152715D01*
X153113Y212704D01*
X153418Y213009D01*
X153583Y213407D01*
Y213837D01*
X153418Y214235D01*
X153113Y214540D01*
X152715Y214705D01*
D02*
G37*
G36*
X149566D02*
X149135D01*
X148737Y214540D01*
X148433Y214235D01*
X148268Y213837D01*
Y213407D01*
X148433Y213009D01*
X148737Y212704D01*
X149135Y212539D01*
X149566D01*
X149964Y212704D01*
X150268Y213009D01*
X150433Y213407D01*
Y213837D01*
X150268Y214235D01*
X149964Y214540D01*
X149566Y214705D01*
D02*
G37*
G36*
X136967D02*
X136537D01*
X136139Y214540D01*
X135834Y214235D01*
X135669Y213837D01*
Y213407D01*
X135834Y213009D01*
X136139Y212704D01*
X136537Y212539D01*
X136967D01*
X137365Y212704D01*
X137670Y213009D01*
X137835Y213407D01*
Y213837D01*
X137670Y214235D01*
X137365Y214540D01*
X136967Y214705D01*
D02*
G37*
G36*
X141792Y214307D02*
X141361D01*
X140963Y214142D01*
X140658Y213838D01*
X140494Y213440D01*
Y213009D01*
X140658Y212611D01*
X140963Y212307D01*
X141361Y212142D01*
X141792D01*
X142190Y212307D01*
X142494Y212611D01*
X142659Y213009D01*
Y213440D01*
X142494Y213838D01*
X142190Y214142D01*
X141792Y214307D01*
D02*
G37*
G36*
X176719Y211831D02*
X176289D01*
X175891Y211666D01*
X175586Y211361D01*
X175421Y210963D01*
Y210533D01*
X175586Y210135D01*
X175891Y209830D01*
X176289Y209665D01*
X176719D01*
X177117Y209830D01*
X177422Y210135D01*
X177587Y210533D01*
Y210963D01*
X177422Y211361D01*
X177117Y211666D01*
X176719Y211831D01*
D02*
G37*
G36*
X149566Y211555D02*
X149135D01*
X148737Y211390D01*
X148433Y211086D01*
X148268Y210688D01*
Y210257D01*
X148433Y209859D01*
X148737Y209555D01*
X149135Y209390D01*
X149566D01*
X149964Y209555D01*
X150268Y209859D01*
X150433Y210257D01*
Y210688D01*
X150268Y211086D01*
X149964Y211390D01*
X149566Y211555D01*
D02*
G37*
G36*
X133818D02*
X133387D01*
X132989Y211390D01*
X132685Y211086D01*
X132520Y210688D01*
Y210257D01*
X132685Y209859D01*
X132989Y209555D01*
X133387Y209390D01*
X133818D01*
X134216Y209555D01*
X134520Y209859D01*
X134685Y210257D01*
Y210688D01*
X134520Y211086D01*
X134216Y211390D01*
X133818Y211555D01*
D02*
G37*
G36*
X136967Y211555D02*
X136537D01*
X136139Y211390D01*
X135834Y211086D01*
X135669Y210688D01*
Y210257D01*
X135834Y209859D01*
X136139Y209555D01*
X136537Y209390D01*
X136967D01*
X137365Y209555D01*
X137670Y209859D01*
X137835Y210257D01*
Y210688D01*
X137670Y211086D01*
X137365Y211390D01*
X136967Y211555D01*
D02*
G37*
G36*
X195617Y208681D02*
X195186D01*
X194788Y208516D01*
X194484Y208212D01*
X194319Y207814D01*
Y207383D01*
X194484Y206985D01*
X194788Y206681D01*
X195186Y206516D01*
X195617D01*
X196015Y206681D01*
X196319Y206985D01*
X196484Y207383D01*
Y207814D01*
X196319Y208212D01*
X196015Y208516D01*
X195617Y208681D01*
D02*
G37*
G36*
X192467D02*
X192037D01*
X191639Y208516D01*
X191334Y208212D01*
X191169Y207814D01*
Y207383D01*
X191334Y206985D01*
X191639Y206681D01*
X192037Y206516D01*
X192467D01*
X192865Y206681D01*
X193170Y206985D01*
X193335Y207383D01*
Y207814D01*
X193170Y208212D01*
X192865Y208516D01*
X192467Y208681D01*
D02*
G37*
G36*
X189318D02*
X188887D01*
X188489Y208516D01*
X188184Y208212D01*
X188020Y207814D01*
Y207383D01*
X188184Y206985D01*
X188489Y206681D01*
X188887Y206516D01*
X189318D01*
X189716Y206681D01*
X190020Y206985D01*
X190185Y207383D01*
Y207814D01*
X190020Y208212D01*
X189716Y208516D01*
X189318Y208681D01*
D02*
G37*
G36*
X186168D02*
X185737D01*
X185339Y208516D01*
X185035Y208212D01*
X184870Y207814D01*
Y207383D01*
X185035Y206985D01*
X185339Y206681D01*
X185737Y206516D01*
X186168D01*
X186566Y206681D01*
X186871Y206985D01*
X187035Y207383D01*
Y207814D01*
X186871Y208212D01*
X186566Y208516D01*
X186168Y208681D01*
D02*
G37*
G36*
X155865Y208405D02*
X155434D01*
X155036Y208241D01*
X154732Y207936D01*
X154567Y207538D01*
Y207107D01*
X154732Y206710D01*
X155036Y206405D01*
X155434Y206240D01*
X155865D01*
X156263Y206405D01*
X156567Y206710D01*
X156732Y207107D01*
Y207538D01*
X156567Y207936D01*
X156263Y208241D01*
X155865Y208405D01*
D02*
G37*
G36*
X146416D02*
X145985D01*
X145588Y208241D01*
X145283Y207936D01*
X145118Y207538D01*
Y207107D01*
X145283Y206710D01*
X145588Y206405D01*
X145985Y206240D01*
X146416D01*
X146814Y206405D01*
X147119Y206710D01*
X147283Y207107D01*
Y207538D01*
X147119Y207936D01*
X146814Y208241D01*
X146416Y208405D01*
D02*
G37*
G36*
X136967D02*
X136537D01*
X136139Y208241D01*
X135834Y207936D01*
X135669Y207538D01*
Y207107D01*
X135834Y206710D01*
X136139Y206405D01*
X136537Y206240D01*
X136967D01*
X137365Y206405D01*
X137670Y206710D01*
X137835Y207107D01*
Y207538D01*
X137670Y207936D01*
X137365Y208241D01*
X136967Y208405D01*
D02*
G37*
G36*
X155865Y211555D02*
X155434D01*
X155036Y211390D01*
X154732Y211086D01*
X154567Y210688D01*
Y210257D01*
X154732Y209859D01*
X155036Y209555D01*
X155434Y209390D01*
X155865D01*
X156263Y209555D01*
X156473Y209765D01*
X173140D01*
X173705Y209201D01*
X173561Y208807D01*
X173163Y208642D01*
X172859Y208338D01*
X172694Y207940D01*
Y207509D01*
X172859Y207111D01*
X173163Y206807D01*
X173561Y206642D01*
X173992D01*
X174390Y206807D01*
X174694Y207111D01*
X174790Y207342D01*
X175223Y207467D01*
X175421Y207313D01*
Y207186D01*
X175586Y206788D01*
X175891Y206484D01*
X176289Y206319D01*
X176586D01*
X177109Y205796D01*
X176886Y205462D01*
X176719Y205532D01*
X176289D01*
X175891Y205367D01*
X175586Y205062D01*
X175421Y204664D01*
Y204234D01*
X175586Y203836D01*
X175891Y203531D01*
X176289Y203366D01*
X176719D01*
X177117Y203531D01*
X177422Y203836D01*
X177587Y204234D01*
Y204664D01*
X177433Y205035D01*
X177485Y205133D01*
X177685Y205356D01*
X177882Y205316D01*
X178475D01*
X178678Y204923D01*
X178571Y204664D01*
Y204234D01*
X178736Y203836D01*
X179040Y203531D01*
X179438Y203366D01*
X179869D01*
X180267Y203531D01*
X180571Y203836D01*
X180736Y204234D01*
Y204664D01*
X180629Y204923D01*
X180832Y205316D01*
X181625D01*
X181827Y204923D01*
X181720Y204664D01*
Y204234D01*
X181885Y203836D01*
X182190Y203531D01*
X182588Y203366D01*
X183019D01*
X183378Y203515D01*
X183403Y203502D01*
X183630Y203184D01*
X183569Y202874D01*
X183569Y202874D01*
Y202587D01*
X183175Y202325D01*
X183019Y202390D01*
X182588D01*
X182190Y202225D01*
X181885Y201920D01*
X181720Y201522D01*
Y201092D01*
X181885Y200694D01*
X182190Y200389D01*
X182588Y200224D01*
X183019D01*
X183175Y200289D01*
X183569Y200027D01*
Y199422D01*
X183175Y199160D01*
X183019Y199224D01*
X182588D01*
X182190Y199060D01*
X181885Y198755D01*
X181720Y198357D01*
Y197926D01*
X181885Y197528D01*
X182190Y197224D01*
X182588Y197059D01*
X183019D01*
X183175Y197124D01*
X183569Y196862D01*
Y193760D01*
X182741Y192933D01*
X182588D01*
X182190Y192768D01*
X181885Y192464D01*
X181720Y192066D01*
Y191635D01*
X181885Y191237D01*
X182190Y190933D01*
X182588Y190768D01*
X183019D01*
X183416Y190933D01*
X183721Y191237D01*
X183886Y191635D01*
Y191789D01*
X184643Y192545D01*
X184976Y192322D01*
X184870Y192066D01*
Y191635D01*
X185035Y191237D01*
X185339Y190933D01*
X185737Y190768D01*
X186168D01*
X186566Y190933D01*
X186871Y191237D01*
X187035Y191635D01*
Y192066D01*
X186871Y192464D01*
X186566Y192768D01*
X186168Y192933D01*
X185737D01*
X185378Y192784D01*
X185353Y192798D01*
X185126Y193115D01*
X185187Y193425D01*
X185187Y193425D01*
Y200027D01*
X185581Y200289D01*
X185737Y200224D01*
X186168D01*
X186566Y200389D01*
X186871Y200694D01*
X187035Y201092D01*
Y201522D01*
X186871Y201920D01*
X186566Y202225D01*
X186168Y202390D01*
X185737D01*
X185453Y202698D01*
X185431Y202783D01*
X186014Y203366D01*
X186168D01*
X186566Y203531D01*
X186871Y203836D01*
X187035Y204234D01*
Y204664D01*
X186871Y205062D01*
X186566Y205367D01*
X186168Y205532D01*
X185870D01*
X184878Y206524D01*
X184649Y206677D01*
X184378Y206731D01*
X180832D01*
X180629Y207125D01*
X180736Y207383D01*
Y207814D01*
X180571Y208212D01*
X180267Y208516D01*
X179869Y208681D01*
X179438D01*
X179040Y208516D01*
X178736Y208212D01*
X178571Y207814D01*
Y207383D01*
X178659Y207171D01*
X178463Y206825D01*
X178115Y206790D01*
X177587Y207319D01*
Y207617D01*
X177422Y208015D01*
X177117Y208319D01*
X176719Y208484D01*
X176421D01*
X173933Y210973D01*
X173704Y211126D01*
X173433Y211180D01*
X156473D01*
X156263Y211390D01*
X155865Y211555D01*
D02*
G37*
G36*
X192467Y205532D02*
X192037D01*
X191639Y205367D01*
X191334Y205062D01*
X191169Y204664D01*
Y204234D01*
X191334Y203836D01*
X191639Y203531D01*
X192037Y203366D01*
X192467D01*
X192865Y203531D01*
X193170Y203836D01*
X193335Y204234D01*
Y204664D01*
X193170Y205062D01*
X192865Y205367D01*
X192467Y205532D01*
D02*
G37*
G36*
X189318D02*
X188887D01*
X188489Y205367D01*
X188184Y205062D01*
X188020Y204664D01*
Y204234D01*
X188184Y203836D01*
X188489Y203531D01*
X188887Y203366D01*
X189318D01*
X189716Y203531D01*
X190020Y203836D01*
X190185Y204234D01*
Y204664D01*
X190020Y205062D01*
X189716Y205367D01*
X189318Y205532D01*
D02*
G37*
G36*
X152715Y205256D02*
X152285D01*
X151887Y205091D01*
X151582Y204786D01*
X151417Y204389D01*
Y203958D01*
X151582Y203560D01*
X151887Y203255D01*
X152285Y203091D01*
X152715D01*
X153113Y203255D01*
X153418Y203560D01*
X153583Y203958D01*
Y204389D01*
X153418Y204786D01*
X153113Y205091D01*
X152715Y205256D01*
D02*
G37*
G36*
X149566D02*
X149135D01*
X148737Y205091D01*
X148433Y204786D01*
X148268Y204389D01*
Y203958D01*
X148433Y203560D01*
X148737Y203255D01*
X149135Y203091D01*
X149566D01*
X149964Y203255D01*
X150268Y203560D01*
X150433Y203958D01*
Y204389D01*
X150268Y204786D01*
X149964Y205091D01*
X149566Y205256D01*
D02*
G37*
G36*
X133818D02*
X133387D01*
X132989Y205091D01*
X132685Y204786D01*
X132520Y204389D01*
Y203958D01*
X132685Y203560D01*
X132989Y203255D01*
X133387Y203091D01*
X133818D01*
X134216Y203255D01*
X134520Y203560D01*
X134685Y203958D01*
Y204389D01*
X134520Y204786D01*
X134216Y205091D01*
X133818Y205256D01*
D02*
G37*
G36*
X127518Y205248D02*
X127088D01*
X126690Y205083D01*
X126385Y204779D01*
X126221Y204381D01*
Y203950D01*
X126385Y203552D01*
X126690Y203247D01*
X127088Y203083D01*
X127518D01*
X127916Y203247D01*
X128221Y203552D01*
X128386Y203950D01*
Y204381D01*
X128221Y204779D01*
X127916Y205083D01*
X127518Y205248D01*
D02*
G37*
G36*
X171292Y203907D02*
X170861D01*
X170463Y203742D01*
X170159Y203438D01*
X169994Y203040D01*
Y202609D01*
X170159Y202211D01*
X170463Y201907D01*
X170861Y201742D01*
X171292D01*
X171690Y201907D01*
X171994Y202211D01*
X172159Y202609D01*
Y203040D01*
X171994Y203438D01*
X171690Y203742D01*
X171292Y203907D01*
D02*
G37*
G36*
X192467Y202390D02*
X192037D01*
X191639Y202225D01*
X191334Y201920D01*
X191169Y201522D01*
Y201092D01*
X191334Y200694D01*
X191639Y200389D01*
X192037Y200224D01*
X192467D01*
X192865Y200389D01*
X193170Y200694D01*
X193335Y201092D01*
Y201522D01*
X193170Y201920D01*
X192865Y202225D01*
X192467Y202390D01*
D02*
G37*
G36*
X189318D02*
X188887D01*
X188489Y202225D01*
X188184Y201920D01*
X188020Y201522D01*
Y201092D01*
X188184Y200694D01*
X188489Y200389D01*
X188887Y200224D01*
X189318D01*
X189716Y200389D01*
X190020Y200694D01*
X190185Y201092D01*
Y201522D01*
X190020Y201920D01*
X189716Y202225D01*
X189318Y202390D01*
D02*
G37*
G36*
X208215Y202382D02*
X207785D01*
X207387Y202217D01*
X207082Y201912D01*
X206917Y201515D01*
Y201084D01*
X207082Y200686D01*
X207387Y200381D01*
X207785Y200217D01*
X208215D01*
X208613Y200381D01*
X208918Y200686D01*
X209083Y201084D01*
Y201515D01*
X208918Y201912D01*
X208613Y202217D01*
X208215Y202382D01*
D02*
G37*
G36*
X205050D02*
X204619D01*
X204221Y202217D01*
X203917Y201912D01*
X203752Y201515D01*
Y201084D01*
X203917Y200686D01*
X204221Y200381D01*
X204619Y200217D01*
X205050D01*
X205448Y200381D01*
X205752Y200686D01*
X205917Y201084D01*
Y201515D01*
X205752Y201912D01*
X205448Y202217D01*
X205050Y202382D01*
D02*
G37*
G36*
X195617D02*
X195186D01*
X194788Y202217D01*
X194484Y201912D01*
X194319Y201515D01*
Y201084D01*
X194484Y200686D01*
X194788Y200381D01*
X195186Y200217D01*
X195617D01*
X196015Y200381D01*
X196319Y200686D01*
X196484Y201084D01*
Y201515D01*
X196319Y201912D01*
X196015Y202217D01*
X195617Y202382D01*
D02*
G37*
G36*
X176719D02*
X176289D01*
X175891Y202217D01*
X175586Y201912D01*
X175421Y201515D01*
Y201084D01*
X175586Y200686D01*
X175891Y200381D01*
X176289Y200217D01*
X176719D01*
X177117Y200381D01*
X177422Y200686D01*
X177587Y201084D01*
Y201515D01*
X177422Y201912D01*
X177117Y202217D01*
X176719Y202382D01*
D02*
G37*
G36*
X130684Y202106D02*
X130253D01*
X129855Y201941D01*
X129551Y201637D01*
X129386Y201239D01*
Y200808D01*
X129551Y200410D01*
X129855Y200106D01*
X130253Y199941D01*
X130684D01*
X131082Y200106D01*
X131386Y200410D01*
X131551Y200808D01*
Y201239D01*
X131386Y201637D01*
X131082Y201941D01*
X130684Y202106D01*
D02*
G37*
G36*
X149566Y202106D02*
X149135D01*
X148737Y201941D01*
X148433Y201637D01*
X148268Y201239D01*
Y200808D01*
X148433Y200410D01*
X148737Y200106D01*
X149135Y199941D01*
X149566D01*
X149964Y200106D01*
X150268Y200410D01*
X150433Y200808D01*
Y201239D01*
X150268Y201637D01*
X149964Y201941D01*
X149566Y202106D01*
D02*
G37*
G36*
X133818D02*
X133387D01*
X132989Y201941D01*
X132685Y201637D01*
X132520Y201239D01*
Y200808D01*
X132685Y200410D01*
X132989Y200106D01*
X133387Y199941D01*
X133818D01*
X134216Y200106D01*
X134520Y200410D01*
X134685Y200808D01*
Y201239D01*
X134520Y201637D01*
X134216Y201941D01*
X133818Y202106D01*
D02*
G37*
G36*
X298215Y200083D02*
X297785D01*
X297387Y199918D01*
X297082Y199613D01*
X296917Y199215D01*
Y198785D01*
X297082Y198387D01*
X297387Y198082D01*
X297785Y197917D01*
X298215D01*
X298613Y198082D01*
X298918Y198387D01*
X299083Y198785D01*
Y199215D01*
X298918Y199613D01*
X298613Y199918D01*
X298215Y200083D01*
D02*
G37*
G36*
X293215D02*
X292785D01*
X292387Y199918D01*
X292082Y199613D01*
X291917Y199215D01*
Y198785D01*
X292082Y198387D01*
X292387Y198082D01*
X292785Y197917D01*
X293215D01*
X293613Y198082D01*
X293918Y198387D01*
X294083Y198785D01*
Y199215D01*
X293918Y199613D01*
X293613Y199918D01*
X293215Y200083D01*
D02*
G37*
G36*
X192467Y199224D02*
X192037D01*
X191639Y199060D01*
X191334Y198755D01*
X191169Y198357D01*
Y197926D01*
X191334Y197528D01*
X191639Y197224D01*
X192037Y197059D01*
X192467D01*
X192865Y197224D01*
X193170Y197528D01*
X193335Y197926D01*
Y198357D01*
X193170Y198755D01*
X192865Y199060D01*
X192467Y199224D01*
D02*
G37*
G36*
X189318D02*
X188887D01*
X188489Y199060D01*
X188184Y198755D01*
X188020Y198357D01*
Y197926D01*
X188184Y197528D01*
X188489Y197224D01*
X188887Y197059D01*
X189318D01*
X189716Y197224D01*
X190020Y197528D01*
X190185Y197926D01*
Y198357D01*
X190020Y198755D01*
X189716Y199060D01*
X189318Y199224D01*
D02*
G37*
G36*
X155865Y198957D02*
X155434D01*
X155036Y198792D01*
X154732Y198487D01*
X154567Y198089D01*
Y197659D01*
X154732Y197261D01*
X155036Y196956D01*
X155434Y196791D01*
X155865D01*
X156263Y196956D01*
X156567Y197261D01*
X156732Y197659D01*
Y198089D01*
X156567Y198487D01*
X156263Y198792D01*
X155865Y198957D01*
D02*
G37*
G36*
X152715D02*
X152285D01*
X151887Y198792D01*
X151582Y198487D01*
X151417Y198089D01*
Y197659D01*
X151582Y197261D01*
X151887Y196956D01*
X152285Y196791D01*
X152715D01*
X153113Y196956D01*
X153418Y197261D01*
X153583Y197659D01*
Y198089D01*
X153418Y198487D01*
X153113Y198792D01*
X152715Y198957D01*
D02*
G37*
G36*
X149566D02*
X149135D01*
X148737Y198792D01*
X148433Y198487D01*
X148268Y198089D01*
Y197659D01*
X148433Y197261D01*
X148737Y196956D01*
X149135Y196791D01*
X149566D01*
X149964Y196956D01*
X150268Y197261D01*
X150433Y197659D01*
Y198089D01*
X150268Y198487D01*
X149964Y198792D01*
X149566Y198957D01*
D02*
G37*
G36*
X136967D02*
X136537D01*
X136139Y198792D01*
X135834Y198487D01*
X135669Y198089D01*
Y197659D01*
X135834Y197261D01*
X136139Y196956D01*
X136537Y196791D01*
X136967D01*
X137365Y196956D01*
X137670Y197261D01*
X137835Y197659D01*
Y198089D01*
X137670Y198487D01*
X137365Y198792D01*
X136967Y198957D01*
D02*
G37*
G36*
X133818D02*
X133387D01*
X132989Y198792D01*
X132685Y198487D01*
X132520Y198089D01*
Y197659D01*
X132685Y197261D01*
X132989Y196956D01*
X133387Y196791D01*
X133818D01*
X134216Y196956D01*
X134520Y197261D01*
X134685Y197659D01*
Y198089D01*
X134520Y198487D01*
X134216Y198792D01*
X133818Y198957D01*
D02*
G37*
G36*
X130668D02*
X130237D01*
X129840Y198792D01*
X129535Y198487D01*
X129370Y198089D01*
Y197659D01*
X129535Y197261D01*
X129840Y196956D01*
X130237Y196791D01*
X130668D01*
X131066Y196956D01*
X131371Y197261D01*
X131535Y197659D01*
Y198089D01*
X131371Y198487D01*
X131066Y198792D01*
X130668Y198957D01*
D02*
G37*
G36*
X127518D02*
X127088D01*
X126690Y198792D01*
X126385Y198487D01*
X126221Y198089D01*
Y197659D01*
X126385Y197261D01*
X126690Y196956D01*
X127088Y196791D01*
X127518D01*
X127916Y196956D01*
X128221Y197261D01*
X128386Y197659D01*
Y198089D01*
X128221Y198487D01*
X127916Y198792D01*
X127518Y198957D01*
D02*
G37*
G36*
X189318Y196083D02*
X188887D01*
X188489Y195918D01*
X188184Y195613D01*
X188020Y195215D01*
Y194785D01*
X188184Y194387D01*
X188489Y194082D01*
X188887Y193917D01*
X189318D01*
X189716Y194082D01*
X190020Y194387D01*
X190185Y194785D01*
Y195215D01*
X190020Y195613D01*
X189716Y195918D01*
X189318Y196083D01*
D02*
G37*
G36*
X179869D02*
X179438D01*
X179040Y195918D01*
X178736Y195613D01*
X178571Y195215D01*
Y194785D01*
X178736Y194387D01*
X179040Y194082D01*
X179438Y193917D01*
X179869D01*
X180267Y194082D01*
X180571Y194387D01*
X180736Y194785D01*
Y195215D01*
X180571Y195613D01*
X180267Y195918D01*
X179869Y196083D01*
D02*
G37*
G36*
X136967Y195807D02*
X136537D01*
X136139Y195642D01*
X135834Y195338D01*
X135669Y194940D01*
Y194509D01*
X135834Y194111D01*
X136139Y193807D01*
X136537Y193642D01*
X136967D01*
X137365Y193807D01*
X137670Y194111D01*
X137835Y194509D01*
Y194940D01*
X137670Y195338D01*
X137365Y195642D01*
X136967Y195807D01*
D02*
G37*
G36*
X149606Y195667D02*
X149175D01*
X148777Y195502D01*
X148473Y195197D01*
X148308Y194800D01*
Y194369D01*
X148473Y193971D01*
X148777Y193666D01*
X149175Y193502D01*
X149606D01*
X150004Y193666D01*
X150309Y193971D01*
X150473Y194369D01*
Y194800D01*
X150309Y195197D01*
X150004Y195502D01*
X149606Y195667D01*
D02*
G37*
G36*
X298215Y195083D02*
X297785D01*
X297387Y194918D01*
X297082Y194613D01*
X296917Y194215D01*
Y193785D01*
X297082Y193387D01*
X297387Y193082D01*
X297785Y192917D01*
X298215D01*
X298613Y193082D01*
X298918Y193387D01*
X299083Y193785D01*
Y194215D01*
X298918Y194613D01*
X298613Y194918D01*
X298215Y195083D01*
D02*
G37*
G36*
X293215D02*
X292785D01*
X292387Y194918D01*
X292082Y194613D01*
X291917Y194215D01*
Y193785D01*
X292082Y193387D01*
X292387Y193082D01*
X292785Y192917D01*
X293215D01*
X293613Y193082D01*
X293918Y193387D01*
X294083Y193785D01*
Y194215D01*
X293918Y194613D01*
X293613Y194918D01*
X293215Y195083D01*
D02*
G37*
G36*
X288215D02*
X287785D01*
X287387Y194918D01*
X287082Y194613D01*
X286917Y194215D01*
Y193785D01*
X287082Y193387D01*
X287387Y193082D01*
X287785Y192917D01*
X288215D01*
X288613Y193082D01*
X288918Y193387D01*
X289083Y193785D01*
Y194215D01*
X288918Y194613D01*
X288613Y194918D01*
X288215Y195083D01*
D02*
G37*
G36*
X283215D02*
X282785D01*
X282387Y194918D01*
X282082Y194613D01*
X281917Y194215D01*
Y193785D01*
X282082Y193387D01*
X282387Y193082D01*
X282785Y192917D01*
X283215D01*
X283613Y193082D01*
X283918Y193387D01*
X284083Y193785D01*
Y194215D01*
X283918Y194613D01*
X283613Y194918D01*
X283215Y195083D01*
D02*
G37*
G36*
X278215D02*
X277785D01*
X277387Y194918D01*
X277082Y194613D01*
X276917Y194215D01*
Y193785D01*
X277082Y193387D01*
X277387Y193082D01*
X277785Y192917D01*
X278215D01*
X278613Y193082D01*
X278918Y193387D01*
X279083Y193785D01*
Y194215D01*
X278918Y194613D01*
X278613Y194918D01*
X278215Y195083D01*
D02*
G37*
G36*
X273215D02*
X272785D01*
X272387Y194918D01*
X272082Y194613D01*
X271917Y194215D01*
Y193785D01*
X272082Y193387D01*
X272387Y193082D01*
X272785Y192917D01*
X273215D01*
X273613Y193082D01*
X273918Y193387D01*
X274083Y193785D01*
Y194215D01*
X273918Y194613D01*
X273613Y194918D01*
X273215Y195083D01*
D02*
G37*
G36*
X268215D02*
X267785D01*
X267387Y194918D01*
X267082Y194613D01*
X266917Y194215D01*
Y193785D01*
X267082Y193387D01*
X267387Y193082D01*
X267785Y192917D01*
X268215D01*
X268613Y193082D01*
X268918Y193387D01*
X269083Y193785D01*
Y194215D01*
X268918Y194613D01*
X268613Y194918D01*
X268215Y195083D01*
D02*
G37*
G36*
X263215D02*
X262785D01*
X262387Y194918D01*
X262082Y194613D01*
X261917Y194215D01*
Y193785D01*
X262082Y193387D01*
X262387Y193082D01*
X262785Y192917D01*
X263215D01*
X263613Y193082D01*
X263918Y193387D01*
X264083Y193785D01*
Y194215D01*
X263918Y194613D01*
X263613Y194918D01*
X263215Y195083D01*
D02*
G37*
G36*
X258215D02*
X257785D01*
X257387Y194918D01*
X257082Y194613D01*
X256917Y194215D01*
Y193785D01*
X257082Y193387D01*
X257387Y193082D01*
X257785Y192917D01*
X258215D01*
X258613Y193082D01*
X258918Y193387D01*
X259083Y193785D01*
Y194215D01*
X258918Y194613D01*
X258613Y194918D01*
X258215Y195083D01*
D02*
G37*
G36*
X253215D02*
X252785D01*
X252387Y194918D01*
X252082Y194613D01*
X251917Y194215D01*
Y193785D01*
X252082Y193387D01*
X252387Y193082D01*
X252785Y192917D01*
X253215D01*
X253613Y193082D01*
X253918Y193387D01*
X254083Y193785D01*
Y194215D01*
X253918Y194613D01*
X253613Y194918D01*
X253215Y195083D01*
D02*
G37*
G36*
X238137Y194508D02*
X237706D01*
X237308Y194343D01*
X237003Y194038D01*
X236839Y193641D01*
Y193210D01*
X237003Y192812D01*
X237308Y192507D01*
X237706Y192342D01*
X238137D01*
X238534Y192507D01*
X238839Y192812D01*
X239004Y193210D01*
Y193641D01*
X238839Y194038D01*
X238534Y194343D01*
X238137Y194508D01*
D02*
G37*
G36*
X234987D02*
X234556D01*
X234158Y194343D01*
X233854Y194038D01*
X233689Y193641D01*
Y193210D01*
X233854Y192812D01*
X234158Y192507D01*
X234556Y192342D01*
X234987D01*
X235385Y192507D01*
X235689Y192812D01*
X235854Y193210D01*
Y193641D01*
X235689Y194038D01*
X235385Y194343D01*
X234987Y194508D01*
D02*
G37*
G36*
X141692Y193839D02*
X141261D01*
X140863Y193674D01*
X140559Y193369D01*
X140394Y192971D01*
Y192541D01*
X140559Y192143D01*
X140863Y191838D01*
X141261Y191673D01*
X141692D01*
X142090Y191838D01*
X142394Y192143D01*
X142559Y192541D01*
Y192971D01*
X142394Y193369D01*
X142090Y193674D01*
X141692Y193839D01*
D02*
G37*
G36*
X205066Y192941D02*
X204635D01*
X204237Y192776D01*
X203933Y192472D01*
X203768Y192074D01*
Y191643D01*
X203933Y191245D01*
X204237Y190940D01*
X204635Y190776D01*
X205066D01*
X205464Y190940D01*
X205768Y191245D01*
X205933Y191643D01*
Y192074D01*
X205768Y192472D01*
X205464Y192776D01*
X205066Y192941D01*
D02*
G37*
G36*
X211365Y192933D02*
X210934D01*
X210536Y192768D01*
X210232Y192464D01*
X210067Y192066D01*
Y191635D01*
X210232Y191237D01*
X210536Y190933D01*
X210934Y190768D01*
X211365D01*
X211763Y190933D01*
X212067Y191237D01*
X212232Y191635D01*
Y192066D01*
X212067Y192464D01*
X211763Y192768D01*
X211365Y192933D01*
D02*
G37*
G36*
X195617D02*
X195186D01*
X194788Y192768D01*
X194484Y192464D01*
X194319Y192066D01*
Y191635D01*
X194484Y191237D01*
X194788Y190933D01*
X195186Y190768D01*
X195617D01*
X196015Y190933D01*
X196319Y191237D01*
X196484Y191635D01*
Y192066D01*
X196319Y192464D01*
X196015Y192768D01*
X195617Y192933D01*
D02*
G37*
G36*
X192467D02*
X192037D01*
X191639Y192768D01*
X191334Y192464D01*
X191169Y192066D01*
Y191635D01*
X191334Y191237D01*
X191639Y190933D01*
X192037Y190768D01*
X192467D01*
X192865Y190933D01*
X193170Y191237D01*
X193335Y191635D01*
Y192066D01*
X193170Y192464D01*
X192865Y192768D01*
X192467Y192933D01*
D02*
G37*
G36*
X189318D02*
X188887D01*
X188489Y192768D01*
X188184Y192464D01*
X188020Y192066D01*
Y191635D01*
X188184Y191237D01*
X188489Y190933D01*
X188887Y190768D01*
X189318D01*
X189716Y190933D01*
X190020Y191237D01*
X190185Y191635D01*
Y192066D01*
X190020Y192464D01*
X189716Y192768D01*
X189318Y192933D01*
D02*
G37*
G36*
X179869D02*
X179438D01*
X179040Y192768D01*
X178736Y192464D01*
X178571Y192066D01*
Y191635D01*
X178736Y191237D01*
X179040Y190933D01*
X179438Y190768D01*
X179869D01*
X180267Y190933D01*
X180571Y191237D01*
X180736Y191635D01*
Y192066D01*
X180571Y192464D01*
X180267Y192768D01*
X179869Y192933D01*
D02*
G37*
G36*
X136967Y192657D02*
X136537D01*
X136139Y192493D01*
X135834Y192188D01*
X135669Y191790D01*
Y191359D01*
X135834Y190962D01*
X136139Y190657D01*
X136537Y190492D01*
X136967D01*
X137365Y190657D01*
X137670Y190962D01*
X137835Y191359D01*
Y191790D01*
X137670Y192188D01*
X137365Y192493D01*
X136967Y192657D01*
D02*
G37*
G36*
X149604Y192520D02*
X149173D01*
X148775Y192355D01*
X148471Y192050D01*
X148306Y191652D01*
Y191222D01*
X148471Y190824D01*
X148775Y190519D01*
X149173Y190354D01*
X149604D01*
X150002Y190519D01*
X150306Y190824D01*
X150471Y191222D01*
Y191652D01*
X150306Y192050D01*
X150002Y192355D01*
X149604Y192520D01*
D02*
G37*
G36*
X170192Y190207D02*
X169761D01*
X169363Y190042D01*
X169059Y189738D01*
X168894Y189340D01*
Y188909D01*
X169059Y188511D01*
X169363Y188207D01*
X169761Y188042D01*
X170192D01*
X170590Y188207D01*
X170894Y188511D01*
X171059Y188909D01*
Y189340D01*
X170894Y189738D01*
X170590Y190042D01*
X170192Y190207D01*
D02*
G37*
G36*
X298215Y190083D02*
X297785D01*
X297387Y189918D01*
X297082Y189613D01*
X296917Y189215D01*
Y188785D01*
X297082Y188387D01*
X297387Y188082D01*
X297785Y187917D01*
X298215D01*
X298613Y188082D01*
X298918Y188387D01*
X299083Y188785D01*
Y189215D01*
X298918Y189613D01*
X298613Y189918D01*
X298215Y190083D01*
D02*
G37*
G36*
X293215D02*
X292785D01*
X292387Y189918D01*
X292082Y189613D01*
X291917Y189215D01*
Y188785D01*
X292082Y188387D01*
X292387Y188082D01*
X292785Y187917D01*
X293215D01*
X293613Y188082D01*
X293918Y188387D01*
X294083Y188785D01*
Y189215D01*
X293918Y189613D01*
X293613Y189918D01*
X293215Y190083D01*
D02*
G37*
G36*
X283215D02*
X282785D01*
X282387Y189918D01*
X282082Y189613D01*
X281917Y189215D01*
Y188785D01*
X282082Y188387D01*
X282387Y188082D01*
X282785Y187917D01*
X283215D01*
X283613Y188082D01*
X283918Y188387D01*
X284083Y188785D01*
Y189215D01*
X283918Y189613D01*
X283613Y189918D01*
X283215Y190083D01*
D02*
G37*
G36*
X192664Y189784D02*
X192234D01*
X191835Y189619D01*
X191531Y189314D01*
X191366Y188916D01*
Y188485D01*
X191531Y188087D01*
X191835Y187783D01*
X192234Y187618D01*
X192664D01*
X193062Y187783D01*
X193367Y188087D01*
X193532Y188485D01*
Y188916D01*
X193367Y189314D01*
X193062Y189619D01*
X192664Y189784D01*
D02*
G37*
G36*
X189318D02*
X188887D01*
X188489Y189619D01*
X188184Y189314D01*
X188020Y188916D01*
Y188485D01*
X188184Y188087D01*
X188489Y187783D01*
X188887Y187618D01*
X189318D01*
X189716Y187783D01*
X190020Y188087D01*
X190185Y188485D01*
Y188916D01*
X190020Y189314D01*
X189716Y189619D01*
X189318Y189784D01*
D02*
G37*
G36*
X186168D02*
X185737D01*
X185339Y189619D01*
X185035Y189314D01*
X184870Y188916D01*
Y188485D01*
X185035Y188087D01*
X185339Y187783D01*
X185737Y187618D01*
X186168D01*
X186566Y187783D01*
X186871Y188087D01*
X187035Y188485D01*
Y188916D01*
X186871Y189314D01*
X186566Y189619D01*
X186168Y189784D01*
D02*
G37*
G36*
X183019D02*
X182588D01*
X182190Y189619D01*
X181885Y189314D01*
X181720Y188916D01*
Y188485D01*
X181885Y188087D01*
X182190Y187783D01*
X182588Y187618D01*
X183019D01*
X183416Y187783D01*
X183721Y188087D01*
X183886Y188485D01*
Y188916D01*
X183721Y189314D01*
X183416Y189619D01*
X183019Y189784D01*
D02*
G37*
G36*
X179869D02*
X179438D01*
X179040Y189619D01*
X178736Y189314D01*
X178571Y188916D01*
Y188485D01*
X178736Y188087D01*
X179040Y187783D01*
X179438Y187618D01*
X179869D01*
X180267Y187783D01*
X180571Y188087D01*
X180736Y188485D01*
Y188916D01*
X180571Y189314D01*
X180267Y189619D01*
X179869Y189784D01*
D02*
G37*
G36*
X195617Y189783D02*
X195186D01*
X194788Y189619D01*
X194484Y189314D01*
X194319Y188916D01*
Y188485D01*
X194484Y188087D01*
X194788Y187783D01*
X195186Y187618D01*
X195617D01*
X196015Y187783D01*
X196319Y188087D01*
X196484Y188485D01*
Y188916D01*
X196319Y189314D01*
X196015Y189619D01*
X195617Y189783D01*
D02*
G37*
G36*
X155865Y189508D02*
X155434D01*
X155036Y189343D01*
X154732Y189039D01*
X154567Y188641D01*
Y188210D01*
X154732Y187812D01*
X155036Y187507D01*
X155434Y187343D01*
X155865D01*
X156263Y187507D01*
X156567Y187812D01*
X156732Y188210D01*
Y188641D01*
X156567Y189039D01*
X156263Y189343D01*
X155865Y189508D01*
D02*
G37*
G36*
X152715D02*
X152285D01*
X151887Y189343D01*
X151582Y189039D01*
X151417Y188641D01*
Y188210D01*
X151582Y187812D01*
X151887Y187507D01*
X152285Y187343D01*
X152715D01*
X153113Y187507D01*
X153418Y187812D01*
X153583Y188210D01*
Y188641D01*
X153418Y189039D01*
X153113Y189343D01*
X152715Y189508D01*
D02*
G37*
G36*
X146416D02*
X145985D01*
X145588Y189343D01*
X145283Y189039D01*
X145118Y188641D01*
Y188210D01*
X145283Y187812D01*
X145588Y187507D01*
X145985Y187343D01*
X146416D01*
X146814Y187507D01*
X147119Y187812D01*
X147283Y188210D01*
Y188641D01*
X147119Y189039D01*
X146814Y189343D01*
X146416Y189508D01*
D02*
G37*
G36*
X136967D02*
X136537D01*
X136139Y189343D01*
X135834Y189039D01*
X135669Y188641D01*
Y188210D01*
X135834Y187812D01*
X136139Y187507D01*
X136537Y187343D01*
X136967D01*
X137365Y187507D01*
X137670Y187812D01*
X137835Y188210D01*
Y188641D01*
X137670Y189039D01*
X137365Y189343D01*
X136967Y189508D01*
D02*
G37*
G36*
X133818D02*
X133387D01*
X132989Y189343D01*
X132685Y189039D01*
X132520Y188641D01*
Y188210D01*
X132685Y187812D01*
X132989Y187507D01*
X133387Y187343D01*
X133818D01*
X134216Y187507D01*
X134520Y187812D01*
X134685Y188210D01*
Y188641D01*
X134520Y189039D01*
X134216Y189343D01*
X133818Y189508D01*
D02*
G37*
G36*
X130668D02*
X130237D01*
X129840Y189343D01*
X129535Y189039D01*
X129370Y188641D01*
Y188210D01*
X129535Y187812D01*
X129840Y187507D01*
X130237Y187343D01*
X130668D01*
X131066Y187507D01*
X131371Y187812D01*
X131535Y188210D01*
Y188641D01*
X131371Y189039D01*
X131066Y189343D01*
X130668Y189508D01*
D02*
G37*
G36*
X172792Y188407D02*
X172361D01*
X171963Y188242D01*
X171659Y187938D01*
X171494Y187540D01*
Y187109D01*
X171659Y186711D01*
X171963Y186407D01*
X172361Y186242D01*
X172792D01*
X173190Y186407D01*
X173494Y186711D01*
X173659Y187109D01*
Y187540D01*
X173494Y187938D01*
X173190Y188242D01*
X172792Y188407D01*
D02*
G37*
G36*
X211349Y186634D02*
X210918D01*
X210521Y186469D01*
X210216Y186164D01*
X210051Y185766D01*
Y185336D01*
X210216Y184938D01*
X210521Y184633D01*
X210918Y184468D01*
X211349D01*
X211747Y184633D01*
X212052Y184938D01*
X212216Y185336D01*
Y185766D01*
X212052Y186164D01*
X211747Y186469D01*
X211349Y186634D01*
D02*
G37*
G36*
X201916D02*
X201485D01*
X201087Y186469D01*
X200783Y186164D01*
X200618Y185766D01*
Y185336D01*
X200783Y184938D01*
X201087Y184633D01*
X201485Y184468D01*
X201916D01*
X202314Y184633D01*
X202619Y184938D01*
X202783Y185336D01*
Y185766D01*
X202619Y186164D01*
X202314Y186469D01*
X201916Y186634D01*
D02*
G37*
G36*
X189115D02*
X188684D01*
X188286Y186469D01*
X187982Y186164D01*
X187817Y185766D01*
Y185336D01*
X187982Y184938D01*
X188286Y184633D01*
X188684Y184468D01*
X189115D01*
X189513Y184633D01*
X189817Y184938D01*
X189982Y185336D01*
Y185766D01*
X189817Y186164D01*
X189513Y186469D01*
X189115Y186634D01*
D02*
G37*
G36*
X183019D02*
X182588D01*
X182190Y186469D01*
X181885Y186164D01*
X181720Y185766D01*
Y185336D01*
X181885Y184938D01*
X182190Y184633D01*
X182588Y184468D01*
X183019D01*
X183416Y184633D01*
X183721Y184938D01*
X183886Y185336D01*
Y185766D01*
X183721Y186164D01*
X183416Y186469D01*
X183019Y186634D01*
D02*
G37*
G36*
X152715Y186358D02*
X152285D01*
X151887Y186193D01*
X151582Y185889D01*
X151417Y185491D01*
Y185060D01*
X151582Y184662D01*
X151887Y184358D01*
X152285Y184193D01*
X152715D01*
X153113Y184358D01*
X153418Y184662D01*
X153583Y185060D01*
Y185491D01*
X153418Y185889D01*
X153113Y186193D01*
X152715Y186358D01*
D02*
G37*
G36*
X133818D02*
X133387D01*
X132989Y186193D01*
X132685Y185889D01*
X132520Y185491D01*
Y185060D01*
X132685Y184662D01*
X132989Y184358D01*
X133387Y184193D01*
X133818D01*
X134216Y184358D01*
X134520Y184662D01*
X134685Y185060D01*
Y185491D01*
X134520Y185889D01*
X134216Y186193D01*
X133818Y186358D01*
D02*
G37*
G36*
X298215Y185083D02*
X297785D01*
X297387Y184918D01*
X297082Y184613D01*
X296917Y184215D01*
Y183785D01*
X297082Y183387D01*
X297387Y183082D01*
X297785Y182917D01*
X298215D01*
X298613Y183082D01*
X298918Y183387D01*
X299083Y183785D01*
Y184215D01*
X298918Y184613D01*
X298613Y184918D01*
X298215Y185083D01*
D02*
G37*
G36*
X293215D02*
X292785D01*
X292387Y184918D01*
X292082Y184613D01*
X291917Y184215D01*
Y183785D01*
X292082Y183387D01*
X292387Y183082D01*
X292785Y182917D01*
X293215D01*
X293613Y183082D01*
X293918Y183387D01*
X294083Y183785D01*
Y184215D01*
X293918Y184613D01*
X293613Y184918D01*
X293215Y185083D01*
D02*
G37*
G36*
X192461Y186628D02*
X192031D01*
X191633Y186463D01*
X191328Y186159D01*
X191163Y185761D01*
Y185330D01*
X191328Y184932D01*
X191633Y184627D01*
X192031Y184463D01*
X192190D01*
X192805Y183848D01*
X192718Y183623D01*
X192612Y183484D01*
X192234D01*
X191835Y183319D01*
X191531Y183015D01*
X191366Y182617D01*
Y182247D01*
X190602Y181483D01*
X190200Y181509D01*
X190131Y181615D01*
X190043Y181843D01*
X190185Y182186D01*
Y182617D01*
X190020Y183015D01*
X189716Y183319D01*
X189318Y183484D01*
X188887D01*
X188489Y183319D01*
X188184Y183015D01*
X188020Y182617D01*
Y182186D01*
X188162Y181843D01*
X188073Y181615D01*
X187966Y181450D01*
X187089D01*
X186982Y181615D01*
X186893Y181843D01*
X187035Y182186D01*
Y182617D01*
X186871Y183015D01*
X186566Y183319D01*
X186168Y183484D01*
X185737D01*
X185339Y183319D01*
X185035Y183015D01*
X184870Y182617D01*
Y182186D01*
X185012Y181843D01*
X184924Y181615D01*
X184817Y181450D01*
X180789D01*
X180683Y181615D01*
X180594Y181843D01*
X180736Y182186D01*
Y182617D01*
X180571Y183015D01*
X180267Y183319D01*
X179869Y183484D01*
X179438D01*
X179040Y183319D01*
X178736Y183015D01*
X178571Y182617D01*
Y182186D01*
X178713Y181843D01*
X178624Y181615D01*
X178518Y181450D01*
X154104D01*
X153583Y181972D01*
Y182341D01*
X153418Y182739D01*
X153113Y183044D01*
X152715Y183209D01*
X152285D01*
X151887Y183044D01*
X151582Y182739D01*
X151417Y182341D01*
Y181911D01*
X151582Y181513D01*
X151887Y181208D01*
X152285Y181043D01*
X152655D01*
X153369Y180329D01*
X153582Y180187D01*
X153833Y180137D01*
X154722D01*
X154885Y179743D01*
X154732Y179590D01*
X154567Y179192D01*
Y178761D01*
X154732Y178363D01*
X155036Y178059D01*
X155434Y177894D01*
X155865D01*
X156263Y178059D01*
X156567Y178363D01*
X156732Y178761D01*
Y179192D01*
X156567Y179590D01*
X156414Y179743D01*
X156577Y180137D01*
X166187D01*
X166266Y179743D01*
X166263Y179742D01*
X165958Y179438D01*
X165794Y179040D01*
Y178609D01*
X165958Y178211D01*
X166263Y177907D01*
X166661Y177742D01*
X167092D01*
X167490Y177907D01*
X167794Y178211D01*
X167959Y178609D01*
Y179040D01*
X167794Y179438D01*
X167490Y179742D01*
X167487Y179743D01*
X167566Y180137D01*
X184792D01*
X184984Y179743D01*
X184870Y179467D01*
Y179037D01*
X185035Y178639D01*
X185339Y178334D01*
X185737Y178169D01*
X186168D01*
X186566Y178334D01*
X186871Y178639D01*
X187035Y179037D01*
Y179467D01*
X186921Y179743D01*
X187113Y180137D01*
X187942D01*
X188134Y179743D01*
X188020Y179467D01*
Y179037D01*
X188184Y178639D01*
X188489Y178334D01*
X188887Y178169D01*
X189318D01*
X189716Y178334D01*
X190020Y178639D01*
X190185Y179037D01*
Y179467D01*
X190071Y179743D01*
X190263Y180137D01*
X190841D01*
X191092Y180187D01*
X191305Y180329D01*
X192294Y181319D01*
X192664D01*
X193062Y181484D01*
X193367Y181788D01*
X193532Y182186D01*
Y182564D01*
X193670Y182670D01*
X193895Y182757D01*
X194319Y182334D01*
Y182186D01*
X194484Y181788D01*
X194788Y181484D01*
X195186Y181319D01*
X195617D01*
X196015Y181484D01*
X196319Y181788D01*
X196484Y182186D01*
Y182617D01*
X196319Y183015D01*
X196015Y183319D01*
X195617Y183484D01*
X195457D01*
X193329Y185613D01*
Y185761D01*
X193164Y186159D01*
X192859Y186463D01*
X192461Y186628D01*
D02*
G37*
G36*
X214515Y183484D02*
X214084D01*
X213686Y183319D01*
X213381Y183015D01*
X213216Y182617D01*
Y182186D01*
X213381Y181788D01*
X213686Y181484D01*
X214084Y181319D01*
X214515D01*
X214913Y181484D01*
X215217Y181788D01*
X215382Y182186D01*
Y182617D01*
X215217Y183015D01*
X214913Y183319D01*
X214515Y183484D01*
D02*
G37*
G36*
X198767D02*
X198336D01*
X197938Y183319D01*
X197633Y183015D01*
X197468Y182617D01*
Y182186D01*
X197633Y181788D01*
X197938Y181484D01*
X198336Y181319D01*
X198767D01*
X199164Y181484D01*
X199469Y181788D01*
X199634Y182186D01*
Y182617D01*
X199469Y183015D01*
X199164Y183319D01*
X198767Y183484D01*
D02*
G37*
G36*
X133818Y183209D02*
X133387D01*
X132989Y183044D01*
X132685Y182739D01*
X132520Y182341D01*
Y181911D01*
X132685Y181513D01*
X132989Y181208D01*
X133387Y181043D01*
X133818D01*
X134216Y181208D01*
X134520Y181513D01*
X134685Y181911D01*
Y182341D01*
X134520Y182739D01*
X134216Y183044D01*
X133818Y183209D01*
D02*
G37*
G36*
X130668D02*
X130237D01*
X129840Y183044D01*
X129535Y182739D01*
X129370Y182341D01*
Y181911D01*
X129535Y181513D01*
X129840Y181208D01*
X130237Y181043D01*
X130668D01*
X131066Y181208D01*
X131371Y181513D01*
X131535Y181911D01*
Y182341D01*
X131371Y182739D01*
X131066Y183044D01*
X130668Y183209D01*
D02*
G37*
G36*
X127518Y183209D02*
X127088D01*
X126690Y183044D01*
X126385Y182739D01*
X126221Y182341D01*
Y181911D01*
X126385Y181513D01*
X126690Y181208D01*
X127088Y181043D01*
X127518D01*
X127916Y181208D01*
X128221Y181513D01*
X128386Y181911D01*
Y182341D01*
X128221Y182739D01*
X127916Y183044D01*
X127518Y183209D01*
D02*
G37*
G36*
X227113Y180335D02*
X226682D01*
X226284Y180170D01*
X225980Y179865D01*
X225815Y179467D01*
Y179037D01*
X225980Y178639D01*
X226284Y178334D01*
X226682Y178169D01*
X227113D01*
X227511Y178334D01*
X227816Y178639D01*
X227980Y179037D01*
Y179467D01*
X227816Y179865D01*
X227511Y180170D01*
X227113Y180335D01*
D02*
G37*
G36*
X223963D02*
X223533D01*
X223135Y180170D01*
X222830Y179865D01*
X222665Y179467D01*
Y179037D01*
X222830Y178639D01*
X223135Y178334D01*
X223533Y178169D01*
X223963D01*
X224361Y178334D01*
X224666Y178639D01*
X224831Y179037D01*
Y179467D01*
X224666Y179865D01*
X224361Y180170D01*
X223963Y180335D01*
D02*
G37*
G36*
X220814D02*
X220383D01*
X219985Y180170D01*
X219681Y179865D01*
X219516Y179467D01*
Y179037D01*
X219681Y178639D01*
X219985Y178334D01*
X220383Y178169D01*
X220814D01*
X221212Y178334D01*
X221516Y178639D01*
X221681Y179037D01*
Y179467D01*
X221516Y179865D01*
X221212Y180170D01*
X220814Y180335D01*
D02*
G37*
G36*
X205066D02*
X204635D01*
X204237Y180170D01*
X203933Y179865D01*
X203768Y179467D01*
Y179037D01*
X203933Y178639D01*
X204237Y178334D01*
X204635Y178169D01*
X205066D01*
X205464Y178334D01*
X205768Y178639D01*
X205933Y179037D01*
Y179467D01*
X205768Y179865D01*
X205464Y180170D01*
X205066Y180335D01*
D02*
G37*
G36*
X201916Y180335D02*
X201485D01*
X201087Y180170D01*
X200783Y179865D01*
X200618Y179467D01*
Y179037D01*
X200783Y178639D01*
X201087Y178334D01*
X201485Y178169D01*
X201916D01*
X202314Y178334D01*
X202619Y178639D01*
X202783Y179037D01*
Y179467D01*
X202619Y179865D01*
X202314Y180170D01*
X201916Y180335D01*
D02*
G37*
G36*
X211365Y180319D02*
X210934D01*
X210536Y180154D01*
X210232Y179850D01*
X210067Y179452D01*
Y179021D01*
X210232Y178623D01*
X210536Y178318D01*
X210934Y178154D01*
X211365D01*
X211763Y178318D01*
X212067Y178623D01*
X212232Y179021D01*
Y179452D01*
X212067Y179850D01*
X211763Y180154D01*
X211365Y180319D01*
D02*
G37*
G36*
X288215Y180083D02*
X287785D01*
X287387Y179918D01*
X287082Y179613D01*
X286917Y179215D01*
Y178785D01*
X287082Y178387D01*
X287387Y178082D01*
X287785Y177917D01*
X288215D01*
X288613Y178082D01*
X288918Y178387D01*
X289083Y178785D01*
Y179215D01*
X288918Y179613D01*
X288613Y179918D01*
X288215Y180083D01*
D02*
G37*
G36*
X152715Y180059D02*
X152285D01*
X151887Y179894D01*
X151582Y179590D01*
X151417Y179192D01*
Y178761D01*
X151582Y178363D01*
X151887Y178059D01*
X152285Y177894D01*
X152715D01*
X153113Y178059D01*
X153418Y178363D01*
X153583Y178761D01*
Y179192D01*
X153418Y179590D01*
X153113Y179894D01*
X152715Y180059D01*
D02*
G37*
G36*
X136967D02*
X136537D01*
X136139Y179894D01*
X135834Y179590D01*
X135669Y179192D01*
Y178761D01*
X135834Y178363D01*
X136139Y178059D01*
X136537Y177894D01*
X136967D01*
X137365Y178059D01*
X137670Y178363D01*
X137835Y178761D01*
Y179192D01*
X137670Y179590D01*
X137365Y179894D01*
X136967Y180059D01*
D02*
G37*
G36*
X130668D02*
X130237D01*
X129840Y179894D01*
X129535Y179590D01*
X129370Y179192D01*
Y178761D01*
X129535Y178363D01*
X129840Y178059D01*
X130237Y177894D01*
X130668D01*
X131066Y178059D01*
X131371Y178363D01*
X131535Y178761D01*
Y179192D01*
X131371Y179590D01*
X131066Y179894D01*
X130668Y180059D01*
D02*
G37*
G36*
X171692Y178207D02*
X171261D01*
X170863Y178042D01*
X170559Y177738D01*
X170394Y177340D01*
Y176909D01*
X170559Y176511D01*
X170863Y176207D01*
X171261Y176042D01*
X171692D01*
X172090Y176207D01*
X172394Y176511D01*
X172559Y176909D01*
Y177340D01*
X172394Y177738D01*
X172090Y178042D01*
X171692Y178207D01*
D02*
G37*
G36*
X227113Y177185D02*
X226682D01*
X226284Y177020D01*
X225980Y176716D01*
X225815Y176318D01*
Y175887D01*
X225980Y175489D01*
X226284Y175185D01*
X226682Y175020D01*
X227113D01*
X227511Y175185D01*
X227816Y175489D01*
X227980Y175887D01*
Y176318D01*
X227816Y176716D01*
X227511Y177020D01*
X227113Y177185D01*
D02*
G37*
G36*
X223963D02*
X223533D01*
X223135Y177020D01*
X222830Y176716D01*
X222665Y176318D01*
Y175887D01*
X222830Y175489D01*
X223135Y175185D01*
X223533Y175020D01*
X223963D01*
X224361Y175185D01*
X224666Y175489D01*
X224831Y175887D01*
Y176318D01*
X224666Y176716D01*
X224361Y177020D01*
X223963Y177185D01*
D02*
G37*
G36*
X220814D02*
X220383D01*
X219985Y177020D01*
X219681Y176716D01*
X219516Y176318D01*
Y175887D01*
X219681Y175489D01*
X219985Y175185D01*
X220383Y175020D01*
X220814D01*
X221212Y175185D01*
X221516Y175489D01*
X221681Y175887D01*
Y176318D01*
X221516Y176716D01*
X221212Y177020D01*
X220814Y177185D01*
D02*
G37*
G36*
X214515D02*
X214084D01*
X213686Y177020D01*
X213381Y176716D01*
X213216Y176318D01*
Y175887D01*
X213381Y175489D01*
X213686Y175185D01*
X214084Y175020D01*
X214515D01*
X214913Y175185D01*
X215217Y175489D01*
X215382Y175887D01*
Y176318D01*
X215217Y176716D01*
X214913Y177020D01*
X214515Y177185D01*
D02*
G37*
G36*
X201916D02*
X201485D01*
X201087Y177020D01*
X200783Y176716D01*
X200618Y176318D01*
Y175887D01*
X200783Y175489D01*
X201087Y175185D01*
X201485Y175020D01*
X201916D01*
X202314Y175185D01*
X202619Y175489D01*
X202783Y175887D01*
Y176318D01*
X202619Y176716D01*
X202314Y177020D01*
X201916Y177185D01*
D02*
G37*
G36*
X198767D02*
X198336D01*
X197938Y177020D01*
X197633Y176716D01*
X197468Y176318D01*
Y175887D01*
X197633Y175489D01*
X197938Y175185D01*
X198336Y175020D01*
X198767D01*
X199164Y175185D01*
X199469Y175489D01*
X199634Y175887D01*
Y176318D01*
X199469Y176716D01*
X199164Y177020D01*
X198767Y177185D01*
D02*
G37*
G36*
X189318D02*
X188887D01*
X188489Y177020D01*
X188184Y176716D01*
X188020Y176318D01*
Y175887D01*
X188184Y175489D01*
X188489Y175185D01*
X188887Y175020D01*
X189318D01*
X189716Y175185D01*
X190020Y175489D01*
X190185Y175887D01*
Y176318D01*
X190020Y176716D01*
X189716Y177020D01*
X189318Y177185D01*
D02*
G37*
G36*
X152715Y176909D02*
X152285D01*
X151887Y176745D01*
X151582Y176440D01*
X151417Y176042D01*
Y175611D01*
X151582Y175214D01*
X151887Y174909D01*
X152285Y174744D01*
X152715D01*
X153113Y174909D01*
X153418Y175214D01*
X153583Y175611D01*
Y176042D01*
X153418Y176440D01*
X153113Y176745D01*
X152715Y176909D01*
D02*
G37*
G36*
X149566D02*
X149135D01*
X148737Y176745D01*
X148433Y176440D01*
X148268Y176042D01*
Y175611D01*
X148433Y175214D01*
X148737Y174909D01*
X149135Y174744D01*
X149566D01*
X149964Y174909D01*
X150268Y175214D01*
X150433Y175611D01*
Y176042D01*
X150268Y176440D01*
X149964Y176745D01*
X149566Y176909D01*
D02*
G37*
G36*
X136967Y176909D02*
X136537D01*
X136139Y176745D01*
X135834Y176440D01*
X135669Y176042D01*
Y175611D01*
X135834Y175214D01*
X136139Y174909D01*
X136537Y174744D01*
X136967D01*
X137365Y174909D01*
X137670Y175214D01*
X137835Y175611D01*
Y176042D01*
X137670Y176440D01*
X137365Y176745D01*
X136967Y176909D01*
D02*
G37*
G36*
X133818D02*
X133387D01*
X132989Y176745D01*
X132685Y176440D01*
X132520Y176042D01*
Y175611D01*
X132685Y175214D01*
X132989Y174909D01*
X133387Y174744D01*
X133818D01*
X134216Y174909D01*
X134520Y175214D01*
X134685Y175611D01*
Y176042D01*
X134520Y176440D01*
X134216Y176745D01*
X133818Y176909D01*
D02*
G37*
G36*
X298215Y175083D02*
X297785D01*
X297387Y174918D01*
X297082Y174613D01*
X296917Y174215D01*
Y173785D01*
X297082Y173387D01*
X297387Y173082D01*
X297785Y172917D01*
X298215D01*
X298613Y173082D01*
X298918Y173387D01*
X299083Y173785D01*
Y174215D01*
X298918Y174613D01*
X298613Y174918D01*
X298215Y175083D01*
D02*
G37*
G36*
X223963Y174035D02*
X223533D01*
X223135Y173871D01*
X222830Y173566D01*
X222665Y173168D01*
Y172737D01*
X222830Y172339D01*
X223135Y172035D01*
X223533Y171870D01*
X223963D01*
X224361Y172035D01*
X224666Y172339D01*
X224831Y172737D01*
Y173168D01*
X224666Y173566D01*
X224361Y173871D01*
X223963Y174035D01*
D02*
G37*
G36*
X220814D02*
X220383D01*
X219985Y173871D01*
X219681Y173566D01*
X219516Y173168D01*
Y172737D01*
X219681Y172339D01*
X219985Y172035D01*
X220383Y171870D01*
X220814D01*
X221212Y172035D01*
X221516Y172339D01*
X221681Y172737D01*
Y173168D01*
X221516Y173566D01*
X221212Y173871D01*
X220814Y174035D01*
D02*
G37*
G36*
X217664D02*
X217233D01*
X216835Y173871D01*
X216531Y173566D01*
X216366Y173168D01*
Y172737D01*
X216531Y172339D01*
X216835Y172035D01*
X217233Y171870D01*
X217664D01*
X218062Y172035D01*
X218367Y172339D01*
X218531Y172737D01*
Y173168D01*
X218367Y173566D01*
X218062Y173871D01*
X217664Y174035D01*
D02*
G37*
G36*
X214530D02*
X214100D01*
X213702Y173871D01*
X213397Y173566D01*
X213232Y173168D01*
Y172737D01*
X213397Y172339D01*
X213702Y172035D01*
X214100Y171870D01*
X214530D01*
X214928Y172035D01*
X215233Y172339D01*
X215398Y172737D01*
Y173168D01*
X215233Y173566D01*
X214928Y173871D01*
X214530Y174035D01*
D02*
G37*
G36*
X205066D02*
X204635D01*
X204237Y173871D01*
X203933Y173566D01*
X203768Y173168D01*
Y172737D01*
X203933Y172339D01*
X204237Y172035D01*
X204635Y171870D01*
X205066D01*
X205464Y172035D01*
X205768Y172339D01*
X205933Y172737D01*
Y173168D01*
X205768Y173566D01*
X205464Y173871D01*
X205066Y174035D01*
D02*
G37*
G36*
X201916D02*
X201485D01*
X201087Y173871D01*
X200783Y173566D01*
X200618Y173168D01*
Y172737D01*
X200783Y172339D01*
X201087Y172035D01*
X201485Y171870D01*
X201916D01*
X202314Y172035D01*
X202619Y172339D01*
X202783Y172737D01*
Y173168D01*
X202619Y173566D01*
X202314Y173871D01*
X201916Y174035D01*
D02*
G37*
G36*
X198767D02*
X198336D01*
X197938Y173871D01*
X197633Y173566D01*
X197468Y173168D01*
Y172737D01*
X197633Y172339D01*
X197938Y172035D01*
X198336Y171870D01*
X198767D01*
X199164Y172035D01*
X199469Y172339D01*
X199634Y172737D01*
Y173168D01*
X199469Y173566D01*
X199164Y173871D01*
X198767Y174035D01*
D02*
G37*
G36*
X195617D02*
X195186D01*
X194788Y173871D01*
X194484Y173566D01*
X194319Y173168D01*
Y172737D01*
X194484Y172339D01*
X194788Y172035D01*
X195186Y171870D01*
X195617D01*
X196015Y172035D01*
X196319Y172339D01*
X196484Y172737D01*
Y173168D01*
X196319Y173566D01*
X196015Y173871D01*
X195617Y174035D01*
D02*
G37*
G36*
X189318Y174020D02*
X188887D01*
X188489Y173855D01*
X188184Y173550D01*
X188020Y173152D01*
Y172722D01*
X188184Y172324D01*
X188489Y172019D01*
X188887Y171854D01*
X189318D01*
X189716Y172019D01*
X190020Y172324D01*
X190185Y172722D01*
Y173152D01*
X190020Y173550D01*
X189716Y173855D01*
X189318Y174020D01*
D02*
G37*
G36*
X155865Y173760D02*
X155434D01*
X155036Y173595D01*
X154732Y173291D01*
X154567Y172892D01*
Y172462D01*
X154732Y172064D01*
X155036Y171759D01*
X155434Y171595D01*
X155865D01*
X156263Y171759D01*
X156567Y172064D01*
X156732Y172462D01*
Y172892D01*
X156567Y173291D01*
X156263Y173595D01*
X155865Y173760D01*
D02*
G37*
G36*
X152715D02*
X152285D01*
X151887Y173595D01*
X151582Y173291D01*
X151417Y172892D01*
Y172462D01*
X151582Y172064D01*
X151887Y171759D01*
X152285Y171595D01*
X152715D01*
X153113Y171759D01*
X153418Y172064D01*
X153583Y172462D01*
Y172892D01*
X153418Y173291D01*
X153113Y173595D01*
X152715Y173760D01*
D02*
G37*
G36*
X146416D02*
X145985D01*
X145588Y173595D01*
X145283Y173291D01*
X145118Y172892D01*
Y172462D01*
X145283Y172064D01*
X145588Y171759D01*
X145985Y171595D01*
X146416D01*
X146814Y171759D01*
X147119Y172064D01*
X147283Y172462D01*
Y172892D01*
X147119Y173291D01*
X146814Y173595D01*
X146416Y173760D01*
D02*
G37*
G36*
X133818D02*
X133387D01*
X132989Y173595D01*
X132685Y173291D01*
X132520Y172892D01*
Y172462D01*
X132685Y172064D01*
X132989Y171759D01*
X133387Y171595D01*
X133818D01*
X134216Y171759D01*
X134520Y172064D01*
X134685Y172462D01*
Y172892D01*
X134520Y173291D01*
X134216Y173595D01*
X133818Y173760D01*
D02*
G37*
G36*
X192467Y170902D02*
X192037D01*
X191639Y170737D01*
X191334Y170432D01*
X191169Y170034D01*
Y169604D01*
X191334Y169206D01*
X191639Y168901D01*
X192037Y168736D01*
X192467D01*
X192865Y168901D01*
X193170Y169206D01*
X193335Y169604D01*
Y170034D01*
X193170Y170432D01*
X192865Y170737D01*
X192467Y170902D01*
D02*
G37*
G36*
X223963Y170886D02*
X223533D01*
X223135Y170721D01*
X222830Y170416D01*
X222665Y170018D01*
Y169588D01*
X222830Y169190D01*
X223135Y168885D01*
X223533Y168720D01*
X223963D01*
X224361Y168885D01*
X224666Y169190D01*
X224831Y169588D01*
Y170018D01*
X224666Y170416D01*
X224361Y170721D01*
X223963Y170886D01*
D02*
G37*
G36*
X220814D02*
X220383D01*
X219985Y170721D01*
X219681Y170416D01*
X219516Y170018D01*
Y169588D01*
X219681Y169190D01*
X219985Y168885D01*
X220383Y168720D01*
X220814D01*
X221212Y168885D01*
X221516Y169190D01*
X221681Y169588D01*
Y170018D01*
X221516Y170416D01*
X221212Y170721D01*
X220814Y170886D01*
D02*
G37*
G36*
X217664D02*
X217233D01*
X216835Y170721D01*
X216531Y170416D01*
X216366Y170018D01*
Y169588D01*
X216531Y169190D01*
X216835Y168885D01*
X217233Y168720D01*
X217664D01*
X218062Y168885D01*
X218367Y169190D01*
X218531Y169588D01*
Y170018D01*
X218367Y170416D01*
X218062Y170721D01*
X217664Y170886D01*
D02*
G37*
G36*
X205066D02*
X204635D01*
X204237Y170721D01*
X203933Y170416D01*
X203768Y170018D01*
Y169588D01*
X203933Y169190D01*
X204237Y168885D01*
X204635Y168720D01*
X205066D01*
X205464Y168885D01*
X205768Y169190D01*
X205933Y169588D01*
Y170018D01*
X205768Y170416D01*
X205464Y170721D01*
X205066Y170886D01*
D02*
G37*
G36*
X198767D02*
X198336D01*
X197938Y170721D01*
X197633Y170416D01*
X197468Y170018D01*
Y169588D01*
X197633Y169190D01*
X197938Y168885D01*
X198336Y168720D01*
X198767D01*
X199164Y168885D01*
X199469Y169190D01*
X199634Y169588D01*
Y170018D01*
X199469Y170416D01*
X199164Y170721D01*
X198767Y170886D01*
D02*
G37*
G36*
X195617D02*
X195186D01*
X194788Y170721D01*
X194484Y170416D01*
X194319Y170018D01*
Y169588D01*
X194484Y169190D01*
X194788Y168885D01*
X195186Y168720D01*
X195617D01*
X196015Y168885D01*
X196319Y169190D01*
X196484Y169588D01*
Y170018D01*
X196319Y170416D01*
X196015Y170721D01*
X195617Y170886D01*
D02*
G37*
G36*
X189318D02*
X188887D01*
X188489Y170721D01*
X188184Y170416D01*
X188020Y170018D01*
Y169588D01*
X188184Y169190D01*
X188489Y168885D01*
X188887Y168720D01*
X189318D01*
X189716Y168885D01*
X190020Y169190D01*
X190185Y169588D01*
Y170018D01*
X190020Y170416D01*
X189716Y170721D01*
X189318Y170886D01*
D02*
G37*
G36*
X176719Y174035D02*
X176289D01*
X175891Y173871D01*
X175586Y173566D01*
X175421Y173168D01*
Y172737D01*
X175586Y172339D01*
X175891Y172035D01*
X176289Y171870D01*
X176719D01*
X177117Y172035D01*
X177124Y172042D01*
X179276D01*
X182159Y169159D01*
X182454Y168961D01*
X182803Y168892D01*
X185333D01*
X185339Y168885D01*
X185737Y168720D01*
X186168D01*
X186566Y168885D01*
X186871Y169190D01*
X187035Y169588D01*
Y170018D01*
X186871Y170416D01*
X186566Y170721D01*
X186168Y170886D01*
X185737D01*
X185339Y170721D01*
X185333Y170714D01*
X183181D01*
X180298Y173597D01*
X180002Y173795D01*
X179654Y173864D01*
X177124D01*
X177117Y173871D01*
X176719Y174035D01*
D02*
G37*
G36*
X214499Y170870D02*
X214068D01*
X213670Y170705D01*
X213366Y170401D01*
X213201Y170003D01*
Y169572D01*
X213366Y169174D01*
X213670Y168870D01*
X214068Y168705D01*
X214499D01*
X214897Y168870D01*
X215201Y169174D01*
X215366Y169572D01*
Y170003D01*
X215201Y170401D01*
X214897Y170705D01*
X214499Y170870D01*
D02*
G37*
G36*
X152715Y170610D02*
X152285D01*
X151887Y170445D01*
X151582Y170141D01*
X151417Y169743D01*
Y169312D01*
X151582Y168914D01*
X151887Y168610D01*
X152285Y168445D01*
X152715D01*
X153113Y168610D01*
X153418Y168914D01*
X153583Y169312D01*
Y169743D01*
X153418Y170141D01*
X153113Y170445D01*
X152715Y170610D01*
D02*
G37*
G36*
X136967D02*
X136537D01*
X136139Y170445D01*
X135834Y170141D01*
X135669Y169743D01*
Y169312D01*
X135834Y168914D01*
X136139Y168610D01*
X136537Y168445D01*
X136967D01*
X137365Y168610D01*
X137670Y168914D01*
X137835Y169312D01*
Y169743D01*
X137670Y170141D01*
X137365Y170445D01*
X136967Y170610D01*
D02*
G37*
G36*
X133818D02*
X133387D01*
X132989Y170445D01*
X132685Y170141D01*
X132520Y169743D01*
Y169312D01*
X132685Y168914D01*
X132989Y168610D01*
X133387Y168445D01*
X133818D01*
X134216Y168610D01*
X134520Y168914D01*
X134685Y169312D01*
Y169743D01*
X134520Y170141D01*
X134216Y170445D01*
X133818Y170610D01*
D02*
G37*
G36*
X298215Y170083D02*
X297785D01*
X297387Y169918D01*
X297082Y169613D01*
X296917Y169215D01*
Y168785D01*
X297082Y168387D01*
X297387Y168082D01*
X297785Y167917D01*
X298215D01*
X298613Y168082D01*
X298918Y168387D01*
X299083Y168785D01*
Y169215D01*
X298918Y169613D01*
X298613Y169918D01*
X298215Y170083D01*
D02*
G37*
G36*
X293215D02*
X292785D01*
X292387Y169918D01*
X292082Y169613D01*
X291917Y169215D01*
Y168785D01*
X292082Y168387D01*
X292387Y168082D01*
X292785Y167917D01*
X293215D01*
X293613Y168082D01*
X293918Y168387D01*
X294083Y168785D01*
Y169215D01*
X293918Y169613D01*
X293613Y169918D01*
X293215Y170083D01*
D02*
G37*
G36*
X288215D02*
X287785D01*
X287387Y169918D01*
X287082Y169613D01*
X286917Y169215D01*
Y168785D01*
X287082Y168387D01*
X287387Y168082D01*
X287785Y167917D01*
X288215D01*
X288613Y168082D01*
X288918Y168387D01*
X289083Y168785D01*
Y169215D01*
X288918Y169613D01*
X288613Y169918D01*
X288215Y170083D01*
D02*
G37*
G36*
X223963Y167736D02*
X223533D01*
X223135Y167571D01*
X222830Y167267D01*
X222665Y166869D01*
Y166438D01*
X222830Y166040D01*
X223135Y165736D01*
X223533Y165571D01*
X223963D01*
X224361Y165736D01*
X224666Y166040D01*
X224831Y166438D01*
Y166869D01*
X224666Y167267D01*
X224361Y167571D01*
X223963Y167736D01*
D02*
G37*
G36*
X220814D02*
X220383D01*
X219985Y167571D01*
X219681Y167267D01*
X219516Y166869D01*
Y166438D01*
X219681Y166040D01*
X219985Y165736D01*
X220383Y165571D01*
X220814D01*
X221212Y165736D01*
X221516Y166040D01*
X221681Y166438D01*
Y166869D01*
X221516Y167267D01*
X221212Y167571D01*
X220814Y167736D01*
D02*
G37*
G36*
X217680D02*
X217249D01*
X216851Y167571D01*
X216547Y167267D01*
X216382Y166869D01*
Y166438D01*
X216547Y166040D01*
X216851Y165736D01*
X217249Y165571D01*
X217680D01*
X218078Y165736D01*
X218382Y166040D01*
X218547Y166438D01*
Y166869D01*
X218382Y167267D01*
X218078Y167571D01*
X217680Y167736D01*
D02*
G37*
G36*
X205066D02*
X204635D01*
X204237Y167571D01*
X203933Y167267D01*
X203768Y166869D01*
Y166438D01*
X203933Y166040D01*
X204237Y165736D01*
X204635Y165571D01*
X205066D01*
X205464Y165736D01*
X205768Y166040D01*
X205933Y166438D01*
Y166869D01*
X205768Y167267D01*
X205464Y167571D01*
X205066Y167736D01*
D02*
G37*
G36*
X201916D02*
X201485D01*
X201087Y167571D01*
X200783Y167267D01*
X200618Y166869D01*
Y166438D01*
X200783Y166040D01*
X201087Y165736D01*
X201485Y165571D01*
X201916D01*
X202314Y165736D01*
X202619Y166040D01*
X202783Y166438D01*
Y166869D01*
X202619Y167267D01*
X202314Y167571D01*
X201916Y167736D01*
D02*
G37*
G36*
X198767D02*
X198336D01*
X197938Y167571D01*
X197633Y167267D01*
X197468Y166869D01*
Y166438D01*
X197633Y166040D01*
X197938Y165736D01*
X198336Y165571D01*
X198767D01*
X199164Y165736D01*
X199469Y166040D01*
X199634Y166438D01*
Y166869D01*
X199469Y167267D01*
X199164Y167571D01*
X198767Y167736D01*
D02*
G37*
G36*
X195617D02*
X195186D01*
X194788Y167571D01*
X194484Y167267D01*
X194319Y166869D01*
Y166438D01*
X194484Y166040D01*
X194788Y165736D01*
X195186Y165571D01*
X195617D01*
X196015Y165736D01*
X196319Y166040D01*
X196484Y166438D01*
Y166869D01*
X196319Y167267D01*
X196015Y167571D01*
X195617Y167736D01*
D02*
G37*
G36*
X192467D02*
X192037D01*
X191639Y167571D01*
X191334Y167267D01*
X191169Y166869D01*
Y166438D01*
X191334Y166040D01*
X191639Y165736D01*
X192037Y165571D01*
X192467D01*
X192865Y165736D01*
X193170Y166040D01*
X193335Y166438D01*
Y166869D01*
X193170Y167267D01*
X192865Y167571D01*
X192467Y167736D01*
D02*
G37*
G36*
X118638Y166298D02*
X118012D01*
X117433Y166059D01*
X116990Y165616D01*
X116750Y165037D01*
Y164410D01*
X116990Y163832D01*
X117433Y163389D01*
X118012Y163149D01*
X118638D01*
X119217Y163389D01*
X119660Y163832D01*
X119900Y164410D01*
Y165037D01*
X119660Y165616D01*
X119217Y166059D01*
X118638Y166298D01*
D02*
G37*
G36*
X298215Y165083D02*
X297785D01*
X297387Y164918D01*
X297082Y164613D01*
X296917Y164215D01*
Y163785D01*
X297082Y163387D01*
X297387Y163082D01*
X297785Y162917D01*
X298215D01*
X298613Y163082D01*
X298918Y163387D01*
X299083Y163785D01*
Y164215D01*
X298918Y164613D01*
X298613Y164918D01*
X298215Y165083D01*
D02*
G37*
G36*
X293215D02*
X292785D01*
X292387Y164918D01*
X292082Y164613D01*
X291917Y164215D01*
Y163785D01*
X292082Y163387D01*
X292387Y163082D01*
X292785Y162917D01*
X293215D01*
X293613Y163082D01*
X293918Y163387D01*
X294083Y163785D01*
Y164215D01*
X293918Y164613D01*
X293613Y164918D01*
X293215Y165083D01*
D02*
G37*
G36*
X220814Y164587D02*
X220383D01*
X219985Y164422D01*
X219681Y164117D01*
X219516Y163719D01*
Y163289D01*
X219681Y162891D01*
X219985Y162586D01*
X220383Y162421D01*
X220814D01*
X221212Y162586D01*
X221516Y162891D01*
X221681Y163289D01*
Y163719D01*
X221516Y164117D01*
X221212Y164422D01*
X220814Y164587D01*
D02*
G37*
G36*
X217664D02*
X217233D01*
X216835Y164422D01*
X216531Y164117D01*
X216366Y163719D01*
Y163289D01*
X216531Y162891D01*
X216835Y162586D01*
X217233Y162421D01*
X217664D01*
X218062Y162586D01*
X218367Y162891D01*
X218531Y163289D01*
Y163719D01*
X218367Y164117D01*
X218062Y164422D01*
X217664Y164587D01*
D02*
G37*
G36*
X214499D02*
X214068D01*
X213670Y164422D01*
X213366Y164117D01*
X213201Y163719D01*
Y163289D01*
X213366Y162891D01*
X213670Y162586D01*
X214068Y162421D01*
X214499D01*
X214897Y162586D01*
X215201Y162891D01*
X215366Y163289D01*
Y163719D01*
X215201Y164117D01*
X214897Y164422D01*
X214499Y164587D01*
D02*
G37*
G36*
X205066D02*
X204635D01*
X204237Y164422D01*
X203933Y164117D01*
X203768Y163719D01*
Y163289D01*
X203933Y162891D01*
X204237Y162586D01*
X204635Y162421D01*
X205066D01*
X205464Y162586D01*
X205768Y162891D01*
X205933Y163289D01*
Y163719D01*
X205768Y164117D01*
X205464Y164422D01*
X205066Y164587D01*
D02*
G37*
G36*
X201916D02*
X201485D01*
X201087Y164422D01*
X200783Y164117D01*
X200618Y163719D01*
Y163289D01*
X200783Y162891D01*
X201087Y162586D01*
X201485Y162421D01*
X201916D01*
X202314Y162586D01*
X202619Y162891D01*
X202783Y163289D01*
Y163719D01*
X202619Y164117D01*
X202314Y164422D01*
X201916Y164587D01*
D02*
G37*
G36*
X198767D02*
X198336D01*
X197938Y164422D01*
X197633Y164117D01*
X197468Y163719D01*
Y163289D01*
X197633Y162891D01*
X197938Y162586D01*
X198336Y162421D01*
X198767D01*
X199164Y162586D01*
X199469Y162891D01*
X199634Y163289D01*
Y163719D01*
X199469Y164117D01*
X199164Y164422D01*
X198767Y164587D01*
D02*
G37*
G36*
X183815Y162083D02*
X183385D01*
X182987Y161918D01*
X182682Y161613D01*
X182517Y161215D01*
Y160785D01*
X182682Y160387D01*
X182987Y160082D01*
X183385Y159917D01*
X183815D01*
X184213Y160082D01*
X184518Y160387D01*
X184683Y160785D01*
Y161215D01*
X184518Y161613D01*
X184213Y161918D01*
X183815Y162083D01*
D02*
G37*
G36*
X194956Y161083D02*
X194526D01*
X194128Y160918D01*
X193823Y160613D01*
X193658Y160215D01*
Y159785D01*
X193823Y159387D01*
X194128Y159082D01*
X194526Y158917D01*
X194956D01*
X195354Y159082D01*
X195659Y159387D01*
X195824Y159785D01*
Y160215D01*
X195659Y160613D01*
X195354Y160918D01*
X194956Y161083D01*
D02*
G37*
G36*
X119685Y161802D02*
X119059D01*
X118480Y161563D01*
X118037Y161120D01*
X117798Y160541D01*
Y159915D01*
X118037Y159336D01*
X118480Y158893D01*
X119059Y158653D01*
X119685D01*
X120264Y158893D01*
X120707Y159336D01*
X120947Y159915D01*
Y160541D01*
X120707Y161120D01*
X120264Y161563D01*
X119685Y161802D01*
D02*
G37*
G36*
X298215Y160083D02*
X297785D01*
X297387Y159918D01*
X297082Y159613D01*
X296917Y159215D01*
Y158785D01*
X297082Y158387D01*
X297387Y158082D01*
X297785Y157917D01*
X298215D01*
X298613Y158082D01*
X298918Y158387D01*
X299083Y158785D01*
Y159215D01*
X298918Y159613D01*
X298613Y159918D01*
X298215Y160083D01*
D02*
G37*
G36*
X293215D02*
X292785D01*
X292387Y159918D01*
X292082Y159613D01*
X291917Y159215D01*
Y158785D01*
X292082Y158387D01*
X292387Y158082D01*
X292785Y157917D01*
X293215D01*
X293613Y158082D01*
X293918Y158387D01*
X294083Y158785D01*
Y159215D01*
X293918Y159613D01*
X293613Y159918D01*
X293215Y160083D01*
D02*
G37*
G36*
X288215D02*
X287785D01*
X287387Y159918D01*
X287082Y159613D01*
X286917Y159215D01*
Y158785D01*
X287082Y158387D01*
X287387Y158082D01*
X287785Y157917D01*
X288215D01*
X288613Y158082D01*
X288918Y158387D01*
X289083Y158785D01*
Y159215D01*
X288918Y159613D01*
X288613Y159918D01*
X288215Y160083D01*
D02*
G37*
G36*
X159147Y159785D02*
X158521D01*
X157942Y159545D01*
X157499Y159102D01*
X157259Y158523D01*
Y157897D01*
X157499Y157318D01*
X157942Y156875D01*
X158521Y156635D01*
X159147D01*
X159726Y156875D01*
X160169Y157318D01*
X160409Y157897D01*
Y158523D01*
X160169Y159102D01*
X159726Y159545D01*
X159147Y159785D01*
D02*
G37*
G36*
X150879D02*
X150253D01*
X149674Y159545D01*
X149231Y159102D01*
X148991Y158523D01*
Y157897D01*
X149231Y157318D01*
X149674Y156875D01*
X150253Y156635D01*
X150879D01*
X151458Y156875D01*
X151901Y157318D01*
X152141Y157897D01*
Y158523D01*
X151901Y159102D01*
X151458Y159545D01*
X150879Y159785D01*
D02*
G37*
G36*
X210713Y157939D02*
X210087D01*
X209508Y157699D01*
X209065Y157256D01*
X208825Y156677D01*
Y156051D01*
X209065Y155472D01*
X209508Y155029D01*
X210087Y154789D01*
X210713D01*
X211292Y155029D01*
X211735Y155472D01*
X211975Y156051D01*
Y156677D01*
X211735Y157256D01*
X211292Y157699D01*
X210713Y157939D01*
D02*
G37*
G36*
X298215Y155083D02*
X297785D01*
X297387Y154918D01*
X297082Y154613D01*
X296917Y154215D01*
Y153785D01*
X297082Y153387D01*
X297387Y153082D01*
X297785Y152917D01*
X298215D01*
X298613Y153082D01*
X298918Y153387D01*
X299083Y153785D01*
Y154215D01*
X298918Y154613D01*
X298613Y154918D01*
X298215Y155083D01*
D02*
G37*
G36*
X293215D02*
X292785D01*
X292387Y154918D01*
X292082Y154613D01*
X291917Y154215D01*
Y153785D01*
X292082Y153387D01*
X292387Y153082D01*
X292785Y152917D01*
X293215D01*
X293613Y153082D01*
X293918Y153387D01*
X294083Y153785D01*
Y154215D01*
X293918Y154613D01*
X293613Y154918D01*
X293215Y155083D01*
D02*
G37*
G36*
X288215D02*
X287785D01*
X287387Y154918D01*
X287082Y154613D01*
X286917Y154215D01*
Y153785D01*
X287082Y153387D01*
X287387Y153082D01*
X287785Y152917D01*
X288215D01*
X288613Y153082D01*
X288918Y153387D01*
X289083Y153785D01*
Y154215D01*
X288918Y154613D01*
X288613Y154918D01*
X288215Y155083D01*
D02*
G37*
G36*
X283215D02*
X282785D01*
X282387Y154918D01*
X282082Y154613D01*
X281917Y154215D01*
Y153785D01*
X282082Y153387D01*
X282387Y153082D01*
X282785Y152917D01*
X283215D01*
X283613Y153082D01*
X283918Y153387D01*
X284083Y153785D01*
Y154215D01*
X283918Y154613D01*
X283613Y154918D01*
X283215Y155083D01*
D02*
G37*
G36*
X278215D02*
X277785D01*
X277387Y154918D01*
X277082Y154613D01*
X276917Y154215D01*
Y153785D01*
X277082Y153387D01*
X277387Y153082D01*
X277785Y152917D01*
X278215D01*
X278613Y153082D01*
X278918Y153387D01*
X279083Y153785D01*
Y154215D01*
X278918Y154613D01*
X278613Y154918D01*
X278215Y155083D01*
D02*
G37*
G36*
X273215D02*
X272785D01*
X272387Y154918D01*
X272082Y154613D01*
X271917Y154215D01*
Y153785D01*
X272082Y153387D01*
X272387Y153082D01*
X272785Y152917D01*
X273215D01*
X273613Y153082D01*
X273918Y153387D01*
X274083Y153785D01*
Y154215D01*
X273918Y154613D01*
X273613Y154918D01*
X273215Y155083D01*
D02*
G37*
G36*
X268215D02*
X267785D01*
X267387Y154918D01*
X267082Y154613D01*
X266917Y154215D01*
Y153785D01*
X267082Y153387D01*
X267387Y153082D01*
X267785Y152917D01*
X268215D01*
X268613Y153082D01*
X268918Y153387D01*
X269083Y153785D01*
Y154215D01*
X268918Y154613D01*
X268613Y154918D01*
X268215Y155083D01*
D02*
G37*
G36*
X263215D02*
X262785D01*
X262387Y154918D01*
X262082Y154613D01*
X261917Y154215D01*
Y153785D01*
X262082Y153387D01*
X262387Y153082D01*
X262785Y152917D01*
X263215D01*
X263613Y153082D01*
X263918Y153387D01*
X264083Y153785D01*
Y154215D01*
X263918Y154613D01*
X263613Y154918D01*
X263215Y155083D01*
D02*
G37*
G36*
X258215D02*
X257785D01*
X257387Y154918D01*
X257082Y154613D01*
X256917Y154215D01*
Y153785D01*
X257082Y153387D01*
X257387Y153082D01*
X257785Y152917D01*
X258215D01*
X258613Y153082D01*
X258918Y153387D01*
X259083Y153785D01*
Y154215D01*
X258918Y154613D01*
X258613Y154918D01*
X258215Y155083D01*
D02*
G37*
G36*
X253215D02*
X252785D01*
X252387Y154918D01*
X252082Y154613D01*
X251917Y154215D01*
Y153785D01*
X252082Y153387D01*
X252387Y153082D01*
X252785Y152917D01*
X253215D01*
X253613Y153082D01*
X253918Y153387D01*
X254083Y153785D01*
Y154215D01*
X253918Y154613D01*
X253613Y154918D01*
X253215Y155083D01*
D02*
G37*
G36*
X178309Y155575D02*
X177683D01*
X177104Y155335D01*
X176661Y154892D01*
X176421Y154313D01*
Y153687D01*
X176661Y153108D01*
X177104Y152665D01*
X177683Y152425D01*
X178309D01*
X178888Y152665D01*
X179331Y153108D01*
X179571Y153687D01*
Y154313D01*
X179331Y154892D01*
X178888Y155335D01*
X178309Y155575D01*
D02*
G37*
G36*
X144463Y154275D02*
X143836D01*
X143258Y154035D01*
X142815Y153592D01*
X142575Y153013D01*
Y152387D01*
X142815Y151808D01*
X143258Y151365D01*
X143836Y151125D01*
X144463D01*
X145042Y151365D01*
X145485Y151808D01*
X145724Y152387D01*
Y153013D01*
X145485Y153592D01*
X145042Y154035D01*
X144463Y154275D01*
D02*
G37*
G36*
X133846Y153859D02*
X133220D01*
X132641Y153619D01*
X132198Y153176D01*
X131958Y152597D01*
Y151971D01*
X132198Y151392D01*
X132641Y150949D01*
X133220Y150709D01*
X133846D01*
X134425Y150949D01*
X134868Y151392D01*
X135108Y151971D01*
Y152597D01*
X134868Y153176D01*
X134425Y153619D01*
X133846Y153859D01*
D02*
G37*
G36*
X242215Y150583D02*
X241785D01*
X241387Y150418D01*
X241082Y150113D01*
X240917Y149715D01*
Y149285D01*
X241082Y148887D01*
X241387Y148582D01*
X241785Y148417D01*
X242215D01*
X242613Y148582D01*
X242918Y148887D01*
X243083Y149285D01*
Y149715D01*
X242918Y150113D01*
X242613Y150418D01*
X242215Y150583D01*
D02*
G37*
G36*
X191338Y150554D02*
X190711D01*
X190132Y150314D01*
X189690Y149871D01*
X189450Y149292D01*
Y148665D01*
X189690Y148087D01*
X190132Y147644D01*
X190711Y147404D01*
X191338D01*
X191917Y147644D01*
X192360Y148087D01*
X192599Y148665D01*
Y149292D01*
X192360Y149871D01*
X191917Y150314D01*
X191338Y150554D01*
D02*
G37*
G36*
X133813Y147875D02*
X133187D01*
X132608Y147635D01*
X132165Y147192D01*
X131925Y146613D01*
Y145987D01*
X132165Y145408D01*
X132608Y144965D01*
X133187Y144725D01*
X133813D01*
X134392Y144965D01*
X134835Y145408D01*
X135075Y145987D01*
Y146613D01*
X134835Y147192D01*
X134392Y147635D01*
X133813Y147875D01*
D02*
G37*
G36*
X298313Y145575D02*
X297687D01*
X297108Y145335D01*
X296665Y144892D01*
X296425Y144313D01*
Y143687D01*
X296665Y143108D01*
X297108Y142665D01*
X297687Y142425D01*
X298313D01*
X298892Y142665D01*
X299335Y143108D01*
X299575Y143687D01*
Y144313D01*
X299335Y144892D01*
X298892Y145335D01*
X298313Y145575D01*
D02*
G37*
G36*
X293313D02*
X292687D01*
X292108Y145335D01*
X291665Y144892D01*
X291425Y144313D01*
Y143687D01*
X291665Y143108D01*
X292108Y142665D01*
X292687Y142425D01*
X293313D01*
X293892Y142665D01*
X294335Y143108D01*
X294575Y143687D01*
Y144313D01*
X294335Y144892D01*
X293892Y145335D01*
X293313Y145575D01*
D02*
G37*
G36*
X288313D02*
X287687D01*
X287108Y145335D01*
X286665Y144892D01*
X286425Y144313D01*
Y143687D01*
X286665Y143108D01*
X287108Y142665D01*
X287687Y142425D01*
X288313D01*
X288892Y142665D01*
X289335Y143108D01*
X289575Y143687D01*
Y144313D01*
X289335Y144892D01*
X288892Y145335D01*
X288313Y145575D01*
D02*
G37*
G36*
X283313D02*
X282687D01*
X282108Y145335D01*
X281665Y144892D01*
X281425Y144313D01*
Y143687D01*
X281665Y143108D01*
X282108Y142665D01*
X282687Y142425D01*
X283313D01*
X283892Y142665D01*
X284335Y143108D01*
X284575Y143687D01*
Y144313D01*
X284335Y144892D01*
X283892Y145335D01*
X283313Y145575D01*
D02*
G37*
G36*
X278313D02*
X277687D01*
X277108Y145335D01*
X276665Y144892D01*
X276425Y144313D01*
Y143687D01*
X276665Y143108D01*
X277108Y142665D01*
X277687Y142425D01*
X278313D01*
X278892Y142665D01*
X279335Y143108D01*
X279575Y143687D01*
Y144313D01*
X279335Y144892D01*
X278892Y145335D01*
X278313Y145575D01*
D02*
G37*
G36*
X273313D02*
X272687D01*
X272108Y145335D01*
X271665Y144892D01*
X271425Y144313D01*
Y143687D01*
X271665Y143108D01*
X272108Y142665D01*
X272687Y142425D01*
X273313D01*
X273892Y142665D01*
X274335Y143108D01*
X274575Y143687D01*
Y144313D01*
X274335Y144892D01*
X273892Y145335D01*
X273313Y145575D01*
D02*
G37*
G36*
X268313D02*
X267687D01*
X267108Y145335D01*
X266665Y144892D01*
X266425Y144313D01*
Y143687D01*
X266665Y143108D01*
X267108Y142665D01*
X267687Y142425D01*
X268313D01*
X268892Y142665D01*
X269335Y143108D01*
X269575Y143687D01*
Y144313D01*
X269335Y144892D01*
X268892Y145335D01*
X268313Y145575D01*
D02*
G37*
G36*
X263313D02*
X262687D01*
X262108Y145335D01*
X261665Y144892D01*
X261425Y144313D01*
Y143687D01*
X261665Y143108D01*
X262108Y142665D01*
X262687Y142425D01*
X263313D01*
X263892Y142665D01*
X264335Y143108D01*
X264575Y143687D01*
Y144313D01*
X264335Y144892D01*
X263892Y145335D01*
X263313Y145575D01*
D02*
G37*
G36*
X258313D02*
X257687D01*
X257108Y145335D01*
X256665Y144892D01*
X256425Y144313D01*
Y143687D01*
X256665Y143108D01*
X257108Y142665D01*
X257687Y142425D01*
X258313D01*
X258892Y142665D01*
X259335Y143108D01*
X259575Y143687D01*
Y144313D01*
X259335Y144892D01*
X258892Y145335D01*
X258313Y145575D01*
D02*
G37*
G36*
X253313D02*
X252687D01*
X252108Y145335D01*
X251665Y144892D01*
X251425Y144313D01*
Y143687D01*
X251665Y143108D01*
X252108Y142665D01*
X252687Y142425D01*
X253313D01*
X253892Y142665D01*
X254335Y143108D01*
X254575Y143687D01*
Y144313D01*
X254335Y144892D01*
X253892Y145335D01*
X253313Y145575D01*
D02*
G37*
G36*
X220715Y144183D02*
X220285D01*
X219887Y144018D01*
X219582Y143713D01*
X219417Y143315D01*
Y142885D01*
X219582Y142487D01*
X219887Y142182D01*
X220285Y142017D01*
X220715D01*
X221113Y142182D01*
X221418Y142487D01*
X221583Y142885D01*
Y143315D01*
X221418Y143713D01*
X221113Y144018D01*
X220715Y144183D01*
D02*
G37*
G36*
X178115Y144026D02*
X177685D01*
X177287Y143861D01*
X176982Y143557D01*
X176817Y143159D01*
Y142728D01*
X176982Y142330D01*
X177287Y142025D01*
X177685Y141861D01*
X178115D01*
X178513Y142025D01*
X178818Y142330D01*
X178983Y142728D01*
Y143159D01*
X178818Y143557D01*
X178513Y143861D01*
X178115Y144026D01*
D02*
G37*
G36*
X188513Y142875D02*
X187887D01*
X187308Y142635D01*
X186865Y142192D01*
X186625Y141613D01*
Y140987D01*
X186865Y140408D01*
X187308Y139965D01*
X187887Y139725D01*
X188513D01*
X189092Y139965D01*
X189535Y140408D01*
X189775Y140987D01*
Y141613D01*
X189535Y142192D01*
X189092Y142635D01*
X188513Y142875D01*
D02*
G37*
G36*
X200238Y141842D02*
X199612D01*
X199033Y141602D01*
X198590Y141159D01*
X198350Y140580D01*
Y139954D01*
X198590Y139375D01*
X199033Y138932D01*
X199612Y138692D01*
X200238D01*
X200817Y138932D01*
X201260Y139375D01*
X201500Y139954D01*
Y140580D01*
X201260Y141159D01*
X200817Y141602D01*
X200238Y141842D01*
D02*
G37*
G36*
X271715Y137083D02*
X271285D01*
X270887Y136918D01*
X270582Y136613D01*
X270417Y136215D01*
Y135785D01*
X270582Y135387D01*
X270887Y135082D01*
X271285Y134917D01*
X271715D01*
X272113Y135082D01*
X272418Y135387D01*
X272583Y135785D01*
Y136215D01*
X272418Y136613D01*
X272113Y136918D01*
X271715Y137083D01*
D02*
G37*
G36*
X123315Y134983D02*
X122885D01*
X122487Y134818D01*
X122182Y134513D01*
X122017Y134115D01*
Y133685D01*
X122182Y133287D01*
X122487Y132982D01*
X122885Y132817D01*
X123315D01*
X123713Y132982D01*
X124018Y133287D01*
X124183Y133685D01*
Y134115D01*
X124018Y134513D01*
X123713Y134818D01*
X123315Y134983D01*
D02*
G37*
G36*
X133846Y134491D02*
X133220D01*
X132641Y134251D01*
X132198Y133808D01*
X131958Y133229D01*
Y132603D01*
X132198Y132024D01*
X132641Y131581D01*
X133220Y131341D01*
X133846D01*
X134425Y131581D01*
X134868Y132024D01*
X135108Y132603D01*
Y133229D01*
X134868Y133808D01*
X134425Y134251D01*
X133846Y134491D01*
D02*
G37*
G36*
X133813Y130275D02*
X133187D01*
X132608Y130035D01*
X132165Y129592D01*
X131925Y129013D01*
Y128387D01*
X132165Y127808D01*
X132608Y127365D01*
X133187Y127125D01*
X133813D01*
X134392Y127365D01*
X134835Y127808D01*
X135075Y128387D01*
Y129013D01*
X134835Y129592D01*
X134392Y130035D01*
X133813Y130275D01*
D02*
G37*
G36*
X133413Y119975D02*
X132787D01*
X132208Y119735D01*
X131765Y119292D01*
X131525Y118713D01*
Y118087D01*
X131765Y117508D01*
X132208Y117065D01*
X132787Y116825D01*
X133413D01*
X133992Y117065D01*
X134435Y117508D01*
X134675Y118087D01*
Y118713D01*
X134435Y119292D01*
X133992Y119735D01*
X133413Y119975D01*
D02*
G37*
G36*
X133813Y142175D02*
X133187D01*
X132608Y141935D01*
X132165Y141492D01*
X131925Y140913D01*
Y140287D01*
X132165Y139708D01*
X132608Y139265D01*
X133187Y139025D01*
X133786D01*
X137689Y135123D01*
Y116700D01*
X137758Y116351D01*
X137956Y116056D01*
X141930Y112081D01*
X142226Y111883D01*
X142575Y111814D01*
X187030D01*
X187193Y111420D01*
X186965Y111192D01*
X186725Y110613D01*
Y109987D01*
X186965Y109408D01*
X187408Y108965D01*
X187987Y108725D01*
X188613D01*
X189192Y108965D01*
X189635Y109408D01*
X189875Y109987D01*
Y110613D01*
X189635Y111192D01*
X189407Y111420D01*
X189570Y111814D01*
X249525D01*
X249874Y111883D01*
X250169Y112081D01*
X267514Y129425D01*
X268113D01*
X268692Y129665D01*
X269135Y130108D01*
X269375Y130687D01*
Y131313D01*
X269135Y131892D01*
X268692Y132335D01*
X268113Y132575D01*
X267487D01*
X266908Y132335D01*
X266465Y131892D01*
X266225Y131313D01*
Y130714D01*
X249148Y113636D01*
X190387D01*
X190174Y114030D01*
X190202Y114074D01*
X247144D01*
X247145Y114075D01*
X247147Y114074D01*
X247295Y114137D01*
X247445Y114199D01*
X247446Y114200D01*
X247447Y114201D01*
X247798Y114557D01*
X247799Y114559D01*
X247800Y114559D01*
X247860Y114710D01*
X247921Y114859D01*
X247920Y114861D01*
X247921Y114863D01*
X247600Y136006D01*
X247537Y136153D01*
X247475Y136301D01*
X247472Y136303D01*
X247471Y136306D01*
X247322Y136365D01*
X247174Y136426D01*
X190027D01*
X189764Y136820D01*
X189875Y137087D01*
Y137713D01*
X189635Y138292D01*
X189192Y138735D01*
X188613Y138975D01*
X187987D01*
X187408Y138735D01*
X186965Y138292D01*
X186725Y137713D01*
Y137087D01*
X186836Y136820D01*
X186573Y136426D01*
X178262D01*
X178213Y136800D01*
X178792Y137039D01*
X179235Y137482D01*
X179475Y138061D01*
Y138688D01*
X179235Y139267D01*
X178792Y139709D01*
X178213Y139949D01*
X177587D01*
X177008Y139709D01*
X176565Y139267D01*
X176325Y138688D01*
Y138061D01*
X176565Y137482D01*
X177008Y137039D01*
X177587Y136800D01*
X177538Y136426D01*
X146800D01*
X146800Y136426D01*
X146499Y136301D01*
X144399Y134201D01*
X144274Y133900D01*
Y129510D01*
X143880Y129347D01*
X143592Y129635D01*
X143013Y129875D01*
X142387D01*
X141808Y129635D01*
X141365Y129192D01*
X141125Y128613D01*
Y127987D01*
X141365Y127408D01*
X141808Y126965D01*
X142387Y126725D01*
X143013D01*
X143592Y126965D01*
X143880Y127253D01*
X144274Y127090D01*
Y119510D01*
X143880Y119347D01*
X143592Y119635D01*
X143013Y119875D01*
X142387D01*
X141808Y119635D01*
X141365Y119192D01*
X141125Y118613D01*
Y117987D01*
X141365Y117408D01*
X141808Y116965D01*
X142387Y116725D01*
X143013D01*
X143592Y116965D01*
X143880Y117253D01*
X144274Y117090D01*
Y116300D01*
X144399Y115999D01*
X144399Y115999D01*
X146199Y114199D01*
X146500Y114074D01*
X186598D01*
X186626Y114030D01*
X186413Y113636D01*
X142952D01*
X139511Y117077D01*
Y135500D01*
X139442Y135849D01*
X139244Y136144D01*
X135075Y140314D01*
Y140913D01*
X134835Y141492D01*
X134392Y141935D01*
X133813Y142175D01*
D02*
G37*
G36*
X273719Y110675D02*
X273092D01*
X272514Y110435D01*
X272071Y109992D01*
X271831Y109413D01*
Y108787D01*
X272071Y108208D01*
X272514Y107765D01*
X273092Y107525D01*
X273719D01*
X274298Y107765D01*
X274741Y108208D01*
X274980Y108787D01*
Y109413D01*
X274741Y109992D01*
X274298Y110435D01*
X273719Y110675D01*
D02*
G37*
G36*
X268712Y110475D02*
X268086D01*
X267507Y110235D01*
X267064Y109792D01*
X266824Y109213D01*
Y108587D01*
X267064Y108008D01*
X267507Y107565D01*
X268086Y107325D01*
X268712D01*
X269291Y107565D01*
X269734Y108008D01*
X269974Y108587D01*
Y109213D01*
X269734Y109792D01*
X269291Y110235D01*
X268712Y110475D01*
D02*
G37*
G36*
X189366Y106575D02*
X188740D01*
X188161Y106335D01*
X187718Y105892D01*
X187478Y105313D01*
Y104687D01*
X187718Y104108D01*
X188161Y103665D01*
X188740Y103425D01*
X189366D01*
X189945Y103665D01*
X190388Y104108D01*
X190628Y104687D01*
Y105313D01*
X190388Y105892D01*
X189945Y106335D01*
X189366Y106575D01*
D02*
G37*
G36*
X172061D02*
X171434D01*
X170855Y106335D01*
X170412Y105892D01*
X170172Y105313D01*
Y104687D01*
X170412Y104108D01*
X170855Y103665D01*
X171434Y103425D01*
X172061D01*
X172639Y103665D01*
X173082Y104108D01*
X173322Y104687D01*
Y105313D01*
X173082Y105892D01*
X172639Y106335D01*
X172061Y106575D01*
D02*
G37*
%LPD*%
G36*
X282667Y230034D02*
X282387Y229918D01*
X282082Y229613D01*
X281917Y229215D01*
Y228785D01*
X282082Y228387D01*
X282387Y228082D01*
X282418Y228069D01*
X282510Y227605D01*
X279395Y224490D01*
X278931Y224582D01*
X278918Y224613D01*
X278613Y224918D01*
X278215Y225083D01*
X277785D01*
X277387Y224918D01*
X277082Y224613D01*
X276917Y224215D01*
Y223785D01*
X277082Y223387D01*
X277387Y223082D01*
X277418Y223069D01*
X277510Y222605D01*
X276726Y221820D01*
X250990D01*
Y225084D01*
X250938Y225208D01*
X250875Y225524D01*
X250626Y225897D01*
X250253Y226147D01*
X249937Y226210D01*
X249813Y226261D01*
X249694D01*
X249570Y226210D01*
X249254Y226147D01*
X248996Y225974D01*
X248794Y226026D01*
X248625Y226096D01*
X248578Y226133D01*
X248551Y226198D01*
X248488Y226515D01*
X248239Y226887D01*
X247866Y227137D01*
X247549Y227200D01*
X247426Y227251D01*
X247306D01*
X247183Y227200D01*
X246866Y227137D01*
X246493Y226887D01*
X246244Y226515D01*
X246181Y226198D01*
X246130Y226075D01*
Y223419D01*
X245736Y223255D01*
X245613Y223378D01*
X245215Y223543D01*
X244785D01*
X244387Y223378D01*
X244221Y223213D01*
X243827Y223376D01*
Y226075D01*
X243776Y226198D01*
X243713Y226515D01*
X243464Y226887D01*
X243091Y227137D01*
X242774Y227200D01*
X242651Y227251D01*
X242531D01*
X242408Y227200D01*
X242091Y227137D01*
X241719Y226887D01*
X241469Y226515D01*
X241406Y226198D01*
X241355Y226075D01*
Y222116D01*
X240311D01*
X240299Y222134D01*
X240190Y222509D01*
X240414Y222733D01*
X240579Y223131D01*
Y223562D01*
X240414Y223960D01*
X240109Y224264D01*
X239711Y224429D01*
X239317D01*
X238668Y225078D01*
X238216Y225265D01*
X230862D01*
X230850Y225284D01*
X230741Y225659D01*
X230965Y225883D01*
X231130Y226281D01*
Y226711D01*
X231117Y226743D01*
X231380Y227136D01*
X237952D01*
X238413Y226675D01*
Y226281D01*
X238578Y225883D01*
X238883Y225578D01*
X239281Y225413D01*
X239711D01*
X240109Y225578D01*
X240414Y225883D01*
X240579Y226281D01*
Y226711D01*
X240414Y227109D01*
X240109Y227414D01*
X239711Y227579D01*
X239317D01*
X238668Y228228D01*
X238216Y228415D01*
X216919D01*
X216467Y228228D01*
X215540Y227301D01*
X215217Y227109D01*
X214913Y227414D01*
X214515Y227579D01*
X214084D01*
X213686Y227414D01*
X213381Y227109D01*
X213216Y226711D01*
Y226281D01*
X213381Y225883D01*
X213534Y225730D01*
X213615Y225430D01*
X213520Y225230D01*
X212568Y224277D01*
X212381Y223825D01*
Y221011D01*
X212362Y221000D01*
X211987Y220891D01*
X211763Y221115D01*
X211365Y221280D01*
X210934D01*
X210536Y221115D01*
X210232Y220810D01*
X210067Y220412D01*
Y219982D01*
X210232Y219584D01*
X210536Y219279D01*
X210934Y219114D01*
X211365D01*
X211763Y219279D01*
X211987Y219503D01*
X212362Y219394D01*
X212381Y219382D01*
Y217846D01*
X212362Y217834D01*
X211987Y217725D01*
X211763Y217949D01*
X211365Y218114D01*
X210934D01*
X210536Y217949D01*
X210232Y217645D01*
X210067Y217247D01*
Y216816D01*
X210232Y216418D01*
X210536Y216114D01*
X210934Y215949D01*
X211365D01*
X211763Y216114D01*
X211987Y216337D01*
X212362Y216229D01*
X212381Y216217D01*
Y214712D01*
X212329Y214681D01*
X211987Y214592D01*
X211755Y214823D01*
X211357Y214988D01*
X210926D01*
X210528Y214823D01*
X210267Y214562D01*
X208008D01*
X207757Y214512D01*
X207544Y214370D01*
X206153Y212979D01*
X202870D01*
X202780Y213089D01*
X202655Y213373D01*
X202783Y213682D01*
Y214113D01*
X202619Y214511D01*
X202314Y214815D01*
X201916Y214980D01*
X201485D01*
X201087Y214815D01*
X200783Y214511D01*
X200618Y214113D01*
Y213682D01*
X200746Y213373D01*
X200622Y213089D01*
X200531Y212979D01*
X199721D01*
X199630Y213089D01*
X199506Y213373D01*
X199634Y213682D01*
Y214113D01*
X199469Y214511D01*
X199164Y214815D01*
X198767Y214980D01*
X198336D01*
X197938Y214815D01*
X197633Y214511D01*
X197468Y214113D01*
Y213682D01*
X197597Y213373D01*
X197472Y213089D01*
X197382Y212979D01*
X196571D01*
X196481Y213089D01*
X196356Y213373D01*
X196484Y213682D01*
Y214113D01*
X196319Y214511D01*
X196015Y214815D01*
X195617Y214980D01*
X195463D01*
X195004Y215439D01*
X195021Y215607D01*
X195186Y215965D01*
X195617D01*
X196015Y216129D01*
X196319Y216434D01*
X196484Y216832D01*
Y217263D01*
X196458Y217327D01*
X196721Y217721D01*
X197232D01*
X197495Y217327D01*
X197468Y217263D01*
Y216832D01*
X197633Y216434D01*
X197938Y216129D01*
X198336Y215965D01*
X198767D01*
X199164Y216129D01*
X199469Y216434D01*
X199634Y216832D01*
Y217263D01*
X199607Y217327D01*
X199870Y217721D01*
X200382D01*
X200645Y217327D01*
X200618Y217263D01*
Y216832D01*
X200783Y216434D01*
X201087Y216129D01*
X201485Y215965D01*
X201916D01*
X202314Y216129D01*
X202619Y216434D01*
X202783Y216832D01*
Y217263D01*
X202757Y217327D01*
X203020Y217721D01*
X203531D01*
X203794Y217327D01*
X203768Y217263D01*
Y216832D01*
X203933Y216434D01*
X204237Y216129D01*
X204635Y215965D01*
X205066D01*
X205464Y216129D01*
X205768Y216434D01*
X205933Y216832D01*
Y217263D01*
X205900Y217342D01*
X205900Y217343D01*
X206119Y217766D01*
X206146Y217777D01*
X206174Y217782D01*
X206437Y217958D01*
X206997Y218518D01*
X206997Y218518D01*
X207173Y218781D01*
X207235Y219091D01*
Y223533D01*
X209741Y226040D01*
X210205Y225947D01*
X210232Y225883D01*
X210536Y225578D01*
X210934Y225413D01*
X211365D01*
X211763Y225578D01*
X212067Y225883D01*
X212232Y226281D01*
Y226675D01*
X215647Y230089D01*
X252002D01*
X252165Y229696D01*
X252082Y229613D01*
X251917Y229215D01*
Y228785D01*
X252082Y228387D01*
X252387Y228082D01*
X252785Y227917D01*
X253215D01*
X253613Y228082D01*
X253918Y228387D01*
X254083Y228785D01*
Y229215D01*
X253918Y229613D01*
X253835Y229696D01*
X253998Y230089D01*
X256838D01*
X257189Y230235D01*
X257387Y229918D01*
X257082Y229613D01*
X256917Y229215D01*
Y228785D01*
X257082Y228387D01*
X257387Y228082D01*
X257785Y227917D01*
X258215D01*
X258613Y228082D01*
X258918Y228387D01*
X259083Y228785D01*
Y229215D01*
X258918Y229613D01*
X258613Y229918D01*
X258333Y230034D01*
X258411Y230428D01*
X262589D01*
X262667Y230034D01*
X262387Y229918D01*
X262082Y229613D01*
X261917Y229215D01*
Y228785D01*
X262082Y228387D01*
X262387Y228082D01*
X262785Y227917D01*
X263215D01*
X263613Y228082D01*
X263918Y228387D01*
X264083Y228785D01*
Y229215D01*
X263918Y229613D01*
X263613Y229918D01*
X263333Y230034D01*
X263411Y230428D01*
X282589D01*
X282667Y230034D01*
D02*
G37*
G36*
X286717Y229566D02*
X286930Y229247D01*
X286917Y229215D01*
Y228821D01*
X282719Y224623D01*
X282532Y224171D01*
Y222626D01*
X279395Y219490D01*
X278931Y219582D01*
X278918Y219613D01*
X278613Y219918D01*
X278215Y220083D01*
X277785D01*
X277387Y219918D01*
X277082Y219613D01*
X276917Y219215D01*
Y218785D01*
X277082Y218387D01*
X277387Y218082D01*
X277418Y218069D01*
X277510Y217605D01*
X276312Y216407D01*
X251516D01*
X251393Y216356D01*
X251076Y216293D01*
X250818Y216121D01*
X250452Y216270D01*
X250424Y216295D01*
Y218143D01*
X250373Y218266D01*
X250310Y218583D01*
X250061Y218956D01*
X249845Y219100D01*
X249690Y219542D01*
X249690Y219606D01*
X249745Y219881D01*
X249796Y220004D01*
Y220654D01*
X249823Y220679D01*
X250189Y220828D01*
X250447Y220656D01*
X250764Y220593D01*
X250887Y220542D01*
X276991D01*
X277443Y220729D01*
X286306Y229592D01*
X286717Y229566D01*
D02*
G37*
G36*
X215530Y209921D02*
Y207538D01*
X215717Y207086D01*
X218089Y204714D01*
Y188761D01*
X218276Y188309D01*
X219616Y186969D01*
X220068Y186782D01*
X222933D01*
X222945Y186763D01*
X223054Y186388D01*
X222830Y186164D01*
X222665Y185766D01*
Y185336D01*
X222716Y185214D01*
X222453Y184820D01*
X220424D01*
X216218Y189026D01*
Y198740D01*
X216031Y199192D01*
X213659Y201564D01*
Y203116D01*
X214053Y203379D01*
X214084Y203366D01*
X214515D01*
X214913Y203531D01*
X215217Y203836D01*
X215382Y204234D01*
Y204664D01*
X215217Y205062D01*
X214913Y205367D01*
X214515Y205532D01*
X214084D01*
X214053Y205519D01*
X213659Y205782D01*
Y209419D01*
X214053Y209682D01*
X214092Y209665D01*
X214522D01*
X214920Y209830D01*
X215136Y210046D01*
X215530Y209921D01*
D02*
G37*
G36*
X298640Y211370D02*
Y210544D01*
X289255Y201159D01*
X245671D01*
X245218Y200971D01*
X241756Y197509D01*
X237679D01*
X237416Y197903D01*
X237429Y197934D01*
Y198365D01*
X237264Y198763D01*
X236960Y199067D01*
X236562Y199232D01*
X236131D01*
X235733Y199067D01*
X235429Y198763D01*
X235264Y198365D01*
Y197934D01*
X235277Y197903D01*
X235014Y197509D01*
X234530D01*
X234267Y197903D01*
X234279Y197934D01*
Y198365D01*
X234115Y198763D01*
X233810Y199067D01*
X233412Y199232D01*
X232981D01*
X232584Y199067D01*
X232279Y198763D01*
X232114Y198365D01*
Y197934D01*
X232127Y197903D01*
X231864Y197509D01*
X231380D01*
X231117Y197903D01*
X231130Y197934D01*
Y198365D01*
X230965Y198763D01*
X230661Y199067D01*
X230263Y199232D01*
X229832D01*
X229434Y199067D01*
X229129Y198763D01*
X228965Y198365D01*
Y197934D01*
X229129Y197536D01*
X229434Y197232D01*
X229456Y197122D01*
X224823Y192490D01*
X224640D01*
X224361Y192768D01*
X223963Y192933D01*
X223533D01*
X223217Y192802D01*
X222942Y192920D01*
X222823Y193013D01*
Y200136D01*
X222942Y200230D01*
X223217Y200347D01*
X223533Y200217D01*
X223963D01*
X224361Y200381D01*
X224666Y200686D01*
X224831Y201084D01*
Y201515D01*
X224666Y201912D01*
X224361Y202217D01*
X223963Y202382D01*
X223533D01*
X223217Y202251D01*
X222942Y202369D01*
X222823Y202462D01*
Y203286D01*
X222942Y203379D01*
X223217Y203497D01*
X223533Y203366D01*
X223963D01*
X224361Y203531D01*
X224666Y203836D01*
X224831Y204234D01*
Y204664D01*
X224666Y205062D01*
X224361Y205367D01*
X223963Y205532D01*
X223533D01*
X223217Y205401D01*
X222942Y205519D01*
X222823Y205612D01*
Y206435D01*
X222942Y206529D01*
X223217Y206647D01*
X223533Y206516D01*
X223963D01*
X224361Y206681D01*
X224666Y206985D01*
X224831Y207383D01*
Y207814D01*
X224780Y207936D01*
X225043Y208330D01*
X228752D01*
X229015Y207936D01*
X228965Y207814D01*
Y207383D01*
X229129Y206985D01*
X229434Y206681D01*
X229832Y206516D01*
X230263D01*
X230661Y206681D01*
X230965Y206985D01*
X231130Y207383D01*
Y207814D01*
X231079Y207936D01*
X231342Y208330D01*
X231902D01*
X232165Y207936D01*
X232114Y207814D01*
Y207383D01*
X232279Y206985D01*
X232584Y206681D01*
X232981Y206516D01*
X233412D01*
X233810Y206681D01*
X234115Y206985D01*
X234279Y207383D01*
Y207814D01*
X234229Y207936D01*
X234492Y208330D01*
X235051D01*
X235315Y207936D01*
X235264Y207814D01*
Y207383D01*
X235429Y206985D01*
X235733Y206681D01*
X236131Y206516D01*
X236562D01*
X236960Y206681D01*
X237264Y206985D01*
X237429Y207383D01*
Y207814D01*
X237378Y207936D01*
X237641Y208330D01*
X238201D01*
X238464Y207936D01*
X238413Y207814D01*
Y207383D01*
X238578Y206985D01*
X238883Y206681D01*
X239281Y206516D01*
X239711D01*
X240109Y206681D01*
X240414Y206985D01*
X240427Y207016D01*
X240732Y207269D01*
X240897Y207200D01*
X241183Y207081D01*
X243178D01*
Y205611D01*
X243229Y205487D01*
X243292Y205171D01*
X243541Y204798D01*
X243914Y204548D01*
X244231Y204485D01*
X244354Y204434D01*
X244474D01*
X244597Y204485D01*
X244914Y204548D01*
X245286Y204798D01*
X245371Y204924D01*
X245844D01*
X245929Y204798D01*
X246302Y204548D01*
X246618Y204485D01*
X246742Y204434D01*
X246861D01*
X246984Y204485D01*
X247301Y204548D01*
X247674Y204798D01*
X247758Y204924D01*
X248232D01*
X248316Y204798D01*
X248689Y204548D01*
X249006Y204485D01*
X249129Y204434D01*
X249248D01*
X249372Y204485D01*
X249688Y204548D01*
X250061Y204798D01*
X250311Y205171D01*
X250374Y205487D01*
X250425Y205611D01*
Y207081D01*
X293530D01*
X293982Y207269D01*
X298247Y211533D01*
X298640Y211370D01*
D02*
G37*
G36*
X252042Y189517D02*
X251917Y189215D01*
Y188785D01*
X252054Y188454D01*
X251952Y188202D01*
X251852Y188060D01*
X234530D01*
X234267Y188454D01*
X234279Y188485D01*
Y188916D01*
X234115Y189314D01*
X233912Y189517D01*
X234056Y189910D01*
X251865D01*
X252042Y189517D01*
D02*
G37*
G36*
X271930Y184247D02*
X271917Y184215D01*
Y183821D01*
X269015Y180919D01*
X261380D01*
X261216Y181312D01*
X262821Y182917D01*
X263215D01*
X263613Y183082D01*
X263918Y183387D01*
X264083Y183785D01*
Y184215D01*
X264070Y184247D01*
X264333Y184640D01*
X266667D01*
X266930Y184247D01*
X266917Y184215D01*
Y183785D01*
X267082Y183387D01*
X267387Y183082D01*
X267785Y182917D01*
X268215D01*
X268613Y183082D01*
X268918Y183387D01*
X269083Y183785D01*
Y184215D01*
X269070Y184247D01*
X269333Y184640D01*
X271667D01*
X271930Y184247D01*
D02*
G37*
G36*
X256930Y179247D02*
X256917Y179215D01*
Y178785D01*
X257082Y178387D01*
X257387Y178082D01*
X257418Y178069D01*
X257510Y177605D01*
X255824Y175919D01*
X240579D01*
Y176318D01*
X240414Y176716D01*
X240160Y176970D01*
X240163Y177240D01*
X240204Y177407D01*
X240478Y177521D01*
X242598Y179640D01*
X251667D01*
X251930Y179247D01*
X251917Y179215D01*
Y178785D01*
X252082Y178387D01*
X252387Y178082D01*
X252785Y177917D01*
X253215D01*
X253613Y178082D01*
X253918Y178387D01*
X254083Y178785D01*
Y179215D01*
X254070Y179247D01*
X254333Y179640D01*
X256667D01*
X256930Y179247D01*
D02*
G37*
G36*
X271717Y179566D02*
X271930Y179247D01*
X271917Y179215D01*
Y178785D01*
X272082Y178387D01*
X272387Y178082D01*
X272418Y178069D01*
X272510Y177605D01*
X269395Y174490D01*
X268931Y174582D01*
X268918Y174613D01*
X268613Y174918D01*
X268215Y175083D01*
X267785D01*
X267387Y174918D01*
X267082Y174613D01*
X266917Y174215D01*
Y173785D01*
X267082Y173387D01*
X267387Y173082D01*
X267418Y173069D01*
X267510Y172605D01*
X265824Y170919D01*
X254269D01*
X254139Y171312D01*
X256554Y173726D01*
X256991Y173607D01*
X257082Y173387D01*
X257387Y173082D01*
X257785Y172917D01*
X258215D01*
X258613Y173082D01*
X258918Y173387D01*
X259083Y173785D01*
Y174215D01*
X259070Y174247D01*
X259333Y174640D01*
X261667D01*
X261930Y174247D01*
X261917Y174215D01*
Y173785D01*
X262082Y173387D01*
X262387Y173082D01*
X262785Y172917D01*
X263215D01*
X263613Y173082D01*
X263918Y173387D01*
X264083Y173785D01*
Y174215D01*
X264070Y174247D01*
X264333Y174640D01*
X266089D01*
X266541Y174828D01*
X271306Y179592D01*
X271717Y179566D01*
D02*
G37*
G36*
X251930Y174247D02*
X251917Y174215D01*
Y173785D01*
X252082Y173387D01*
X252387Y173082D01*
X252785Y172917D01*
X253215D01*
X253496Y173033D01*
X253719Y172700D01*
X253331Y172312D01*
X240829D01*
X240566Y172706D01*
X240579Y172737D01*
Y173168D01*
X240414Y173566D01*
X240160Y173820D01*
X240163Y174091D01*
X240204Y174257D01*
X240478Y174371D01*
X240747Y174640D01*
X251667D01*
X251930Y174247D01*
D02*
G37*
G36*
X286717Y174566D02*
X286930Y174247D01*
X286917Y174215D01*
Y173785D01*
X287082Y173387D01*
X287387Y173082D01*
X287418Y173069D01*
X287510Y172605D01*
X284395Y169490D01*
X283931Y169582D01*
X283918Y169613D01*
X283613Y169918D01*
X283215Y170083D01*
X282785D01*
X282387Y169918D01*
X282082Y169613D01*
X281917Y169215D01*
Y168785D01*
X282082Y168387D01*
X282387Y168082D01*
X282418Y168069D01*
X282510Y167605D01*
X276194Y161289D01*
X273517D01*
X273366Y161653D01*
X286306Y174592D01*
X286717Y174566D01*
D02*
G37*
G36*
X281717Y179566D02*
X281930Y179247D01*
X281917Y179215D01*
Y178785D01*
X282082Y178387D01*
X282361Y178108D01*
Y177455D01*
X274395Y169490D01*
X273931Y169582D01*
X273918Y169613D01*
X273613Y169918D01*
X273215Y170083D01*
X272785D01*
X272387Y169918D01*
X272082Y169613D01*
X271917Y169215D01*
Y168785D01*
X272082Y168387D01*
X272387Y168082D01*
X272418Y168069D01*
X272510Y167605D01*
X269395Y164490D01*
X268931Y164582D01*
X268918Y164613D01*
X268613Y164918D01*
X268215Y165083D01*
X267785D01*
X267387Y164918D01*
X267082Y164613D01*
X266917Y164215D01*
Y163785D01*
X267082Y163387D01*
X267212Y163257D01*
X267049Y162864D01*
X263951D01*
X263788Y163257D01*
X263918Y163387D01*
X264083Y163785D01*
Y164215D01*
X264031Y164341D01*
X264294Y164735D01*
X266183D01*
X266635Y164922D01*
X281306Y179592D01*
X281717Y179566D01*
D02*
G37*
G36*
X276717D02*
X276930Y179247D01*
X276917Y179215D01*
Y178785D01*
X277082Y178387D01*
X277387Y178082D01*
X277418Y178069D01*
X277510Y177605D01*
X269395Y169490D01*
X268931Y169582D01*
X268918Y169613D01*
X268613Y169918D01*
X268215Y170083D01*
X267785D01*
X267387Y169918D01*
X267082Y169613D01*
X266917Y169215D01*
Y168785D01*
X267082Y168387D01*
X267387Y168082D01*
X267418Y168069D01*
X267510Y167605D01*
X265919Y166013D01*
X240829D01*
X240566Y166407D01*
X240579Y166438D01*
Y166869D01*
X240414Y167267D01*
X240160Y167521D01*
X240163Y167791D01*
X240204Y167958D01*
X240478Y168072D01*
X242047Y169640D01*
X251667D01*
X251930Y169247D01*
X251917Y169215D01*
Y168785D01*
X252082Y168387D01*
X252387Y168082D01*
X252785Y167917D01*
X253215D01*
X253613Y168082D01*
X253918Y168387D01*
X254083Y168785D01*
Y169215D01*
X254070Y169247D01*
X254333Y169640D01*
X256667D01*
X256930Y169247D01*
X256917Y169215D01*
Y168785D01*
X257082Y168387D01*
X257387Y168082D01*
X257785Y167917D01*
X258215D01*
X258613Y168082D01*
X258918Y168387D01*
X259083Y168785D01*
Y169215D01*
X259070Y169247D01*
X259333Y169640D01*
X261667D01*
X261930Y169247D01*
X261917Y169215D01*
Y168785D01*
X262082Y168387D01*
X262387Y168082D01*
X262785Y167917D01*
X263215D01*
X263613Y168082D01*
X263918Y168387D01*
X264083Y168785D01*
Y169215D01*
X264070Y169247D01*
X264333Y169640D01*
X266089D01*
X266541Y169827D01*
X276306Y179592D01*
X276717Y179566D01*
D02*
G37*
%LPC*%
G36*
X273215Y225083D02*
X272785D01*
X272387Y224918D01*
X272082Y224613D01*
X271917Y224215D01*
Y223785D01*
X272082Y223387D01*
X272387Y223082D01*
X272785Y222917D01*
X273215D01*
X273613Y223082D01*
X273918Y223387D01*
X274083Y223785D01*
Y224215D01*
X273918Y224613D01*
X273613Y224918D01*
X273215Y225083D01*
D02*
G37*
G36*
X268215D02*
X267785D01*
X267387Y224918D01*
X267082Y224613D01*
X266917Y224215D01*
Y223785D01*
X267082Y223387D01*
X267387Y223082D01*
X267785Y222917D01*
X268215D01*
X268613Y223082D01*
X268918Y223387D01*
X269083Y223785D01*
Y224215D01*
X268918Y224613D01*
X268613Y224918D01*
X268215Y225083D01*
D02*
G37*
G36*
X263215D02*
X262785D01*
X262387Y224918D01*
X262082Y224613D01*
X261917Y224215D01*
Y223785D01*
X262082Y223387D01*
X262387Y223082D01*
X262785Y222917D01*
X263215D01*
X263613Y223082D01*
X263918Y223387D01*
X264083Y223785D01*
Y224215D01*
X263918Y224613D01*
X263613Y224918D01*
X263215Y225083D01*
D02*
G37*
G36*
X258215D02*
X257785D01*
X257387Y224918D01*
X257082Y224613D01*
X256917Y224215D01*
Y223785D01*
X257082Y223387D01*
X257387Y223082D01*
X257785Y222917D01*
X258215D01*
X258613Y223082D01*
X258918Y223387D01*
X259083Y223785D01*
Y224215D01*
X258918Y224613D01*
X258613Y224918D01*
X258215Y225083D01*
D02*
G37*
G36*
X253215D02*
X252785D01*
X252387Y224918D01*
X252082Y224613D01*
X251917Y224215D01*
Y223785D01*
X252082Y223387D01*
X252387Y223082D01*
X252785Y222917D01*
X253215D01*
X253613Y223082D01*
X253918Y223387D01*
X254083Y223785D01*
Y224215D01*
X253918Y224613D01*
X253613Y224918D01*
X253215Y225083D01*
D02*
G37*
G36*
X273215Y220083D02*
X272785D01*
X272387Y219918D01*
X272082Y219613D01*
X271917Y219215D01*
Y218785D01*
X272082Y218387D01*
X272387Y218082D01*
X272785Y217917D01*
X273215D01*
X273613Y218082D01*
X273918Y218387D01*
X274083Y218785D01*
Y219215D01*
X273918Y219613D01*
X273613Y219918D01*
X273215Y220083D01*
D02*
G37*
G36*
X268215D02*
X267785D01*
X267387Y219918D01*
X267082Y219613D01*
X266917Y219215D01*
Y218785D01*
X267082Y218387D01*
X267387Y218082D01*
X267785Y217917D01*
X268215D01*
X268613Y218082D01*
X268918Y218387D01*
X269083Y218785D01*
Y219215D01*
X268918Y219613D01*
X268613Y219918D01*
X268215Y220083D01*
D02*
G37*
G36*
X263215D02*
X262785D01*
X262387Y219918D01*
X262082Y219613D01*
X261917Y219215D01*
Y218785D01*
X262082Y218387D01*
X262387Y218082D01*
X262785Y217917D01*
X263215D01*
X263613Y218082D01*
X263918Y218387D01*
X264083Y218785D01*
Y219215D01*
X263918Y219613D01*
X263613Y219918D01*
X263215Y220083D01*
D02*
G37*
G36*
X258215D02*
X257785D01*
X257387Y219918D01*
X257082Y219613D01*
X256917Y219215D01*
Y218785D01*
X257082Y218387D01*
X257387Y218082D01*
X257785Y217917D01*
X258215D01*
X258613Y218082D01*
X258918Y218387D01*
X259083Y218785D01*
Y219215D01*
X258918Y219613D01*
X258613Y219918D01*
X258215Y220083D01*
D02*
G37*
G36*
X253215D02*
X252785D01*
X252387Y219918D01*
X252082Y219613D01*
X251917Y219215D01*
Y218785D01*
X252082Y218387D01*
X252387Y218082D01*
X252785Y217917D01*
X253215D01*
X253613Y218082D01*
X253918Y218387D01*
X254083Y218785D01*
Y219215D01*
X253918Y219613D01*
X253613Y219918D01*
X253215Y220083D01*
D02*
G37*
G36*
X239711Y205532D02*
X239281D01*
X238883Y205367D01*
X238578Y205062D01*
X238413Y204664D01*
Y204234D01*
X238578Y203836D01*
X238883Y203531D01*
X239281Y203366D01*
X239711D01*
X240109Y203531D01*
X240414Y203836D01*
X240579Y204234D01*
Y204664D01*
X240414Y205062D01*
X240109Y205367D01*
X239711Y205532D01*
D02*
G37*
G36*
X233412D02*
X232981D01*
X232584Y205367D01*
X232279Y205062D01*
X232114Y204664D01*
Y204234D01*
X232279Y203836D01*
X232584Y203531D01*
X232981Y203366D01*
X233412D01*
X233810Y203531D01*
X234115Y203836D01*
X234279Y204234D01*
Y204664D01*
X234115Y205062D01*
X233810Y205367D01*
X233412Y205532D01*
D02*
G37*
G36*
X230263D02*
X229832D01*
X229434Y205367D01*
X229129Y205062D01*
X228965Y204664D01*
Y204234D01*
X229129Y203836D01*
X229434Y203531D01*
X229832Y203366D01*
X230263D01*
X230661Y203531D01*
X230965Y203836D01*
X231130Y204234D01*
Y204664D01*
X230965Y205062D01*
X230661Y205367D01*
X230263Y205532D01*
D02*
G37*
G36*
X227113D02*
X226682D01*
X226284Y205367D01*
X225980Y205062D01*
X225815Y204664D01*
Y204234D01*
X225980Y203836D01*
X226284Y203531D01*
X226682Y203366D01*
X227113D01*
X227511Y203531D01*
X227816Y203836D01*
X227980Y204234D01*
Y204664D01*
X227816Y205062D01*
X227511Y205367D01*
X227113Y205532D01*
D02*
G37*
G36*
X278215Y205083D02*
X277785D01*
X277387Y204918D01*
X277082Y204613D01*
X276917Y204215D01*
Y203785D01*
X277082Y203387D01*
X277387Y203082D01*
X277785Y202917D01*
X278215D01*
X278613Y203082D01*
X278918Y203387D01*
X279083Y203785D01*
Y204215D01*
X278918Y204613D01*
X278613Y204918D01*
X278215Y205083D01*
D02*
G37*
G36*
X273215D02*
X272785D01*
X272387Y204918D01*
X272082Y204613D01*
X271917Y204215D01*
Y203785D01*
X272082Y203387D01*
X272387Y203082D01*
X272785Y202917D01*
X273215D01*
X273613Y203082D01*
X273918Y203387D01*
X274083Y203785D01*
Y204215D01*
X273918Y204613D01*
X273613Y204918D01*
X273215Y205083D01*
D02*
G37*
G36*
X268215D02*
X267785D01*
X267387Y204918D01*
X267082Y204613D01*
X266917Y204215D01*
Y203785D01*
X267082Y203387D01*
X267387Y203082D01*
X267785Y202917D01*
X268215D01*
X268613Y203082D01*
X268918Y203387D01*
X269083Y203785D01*
Y204215D01*
X268918Y204613D01*
X268613Y204918D01*
X268215Y205083D01*
D02*
G37*
G36*
X263215D02*
X262785D01*
X262387Y204918D01*
X262082Y204613D01*
X261917Y204215D01*
Y203785D01*
X262082Y203387D01*
X262387Y203082D01*
X262785Y202917D01*
X263215D01*
X263613Y203082D01*
X263918Y203387D01*
X264083Y203785D01*
Y204215D01*
X263918Y204613D01*
X263613Y204918D01*
X263215Y205083D01*
D02*
G37*
G36*
X258215D02*
X257785D01*
X257387Y204918D01*
X257082Y204613D01*
X256917Y204215D01*
Y203785D01*
X257082Y203387D01*
X257387Y203082D01*
X257785Y202917D01*
X258215D01*
X258613Y203082D01*
X258918Y203387D01*
X259083Y203785D01*
Y204215D01*
X258918Y204613D01*
X258613Y204918D01*
X258215Y205083D01*
D02*
G37*
G36*
X253215D02*
X252785D01*
X252387Y204918D01*
X252082Y204613D01*
X251917Y204215D01*
Y203785D01*
X252082Y203387D01*
X252387Y203082D01*
X252785Y202917D01*
X253215D01*
X253613Y203082D01*
X253918Y203387D01*
X254083Y203785D01*
Y204215D01*
X253918Y204613D01*
X253613Y204918D01*
X253215Y205083D01*
D02*
G37*
G36*
X239655Y202438D02*
X239225D01*
X238827Y202273D01*
X238522Y201969D01*
X238357Y201571D01*
Y201140D01*
X238522Y200742D01*
X238827Y200437D01*
X239225Y200273D01*
X239655D01*
X240053Y200437D01*
X240358Y200742D01*
X240523Y201140D01*
Y201571D01*
X240358Y201969D01*
X240053Y202273D01*
X239655Y202438D01*
D02*
G37*
G36*
X236562Y202382D02*
X236131D01*
X235733Y202217D01*
X235429Y201912D01*
X235264Y201515D01*
Y201084D01*
X235429Y200686D01*
X235733Y200381D01*
X236131Y200217D01*
X236562D01*
X236960Y200381D01*
X237264Y200686D01*
X237429Y201084D01*
Y201515D01*
X237264Y201912D01*
X236960Y202217D01*
X236562Y202382D01*
D02*
G37*
G36*
X233412D02*
X232981D01*
X232584Y202217D01*
X232279Y201912D01*
X232114Y201515D01*
Y201084D01*
X232279Y200686D01*
X232584Y200381D01*
X232981Y200217D01*
X233412D01*
X233810Y200381D01*
X234115Y200686D01*
X234279Y201084D01*
Y201515D01*
X234115Y201912D01*
X233810Y202217D01*
X233412Y202382D01*
D02*
G37*
G36*
X230263D02*
X229832D01*
X229434Y202217D01*
X229129Y201912D01*
X228965Y201515D01*
Y201084D01*
X229129Y200686D01*
X229434Y200381D01*
X229832Y200217D01*
X230263D01*
X230661Y200381D01*
X230965Y200686D01*
X231130Y201084D01*
Y201515D01*
X230965Y201912D01*
X230661Y202217D01*
X230263Y202382D01*
D02*
G37*
G36*
X227113D02*
X226682D01*
X226284Y202217D01*
X225980Y201912D01*
X225815Y201515D01*
Y201084D01*
X225980Y200686D01*
X226284Y200381D01*
X226682Y200217D01*
X227113D01*
X227511Y200381D01*
X227816Y200686D01*
X227980Y201084D01*
Y201515D01*
X227816Y201912D01*
X227511Y202217D01*
X227113Y202382D01*
D02*
G37*
G36*
Y199232D02*
X226682D01*
X226284Y199067D01*
X225980Y198763D01*
X225815Y198365D01*
Y197934D01*
X225980Y197536D01*
X226284Y197232D01*
X226682Y197067D01*
X227113D01*
X227511Y197232D01*
X227816Y197536D01*
X227980Y197934D01*
Y198365D01*
X227816Y198763D01*
X227511Y199067D01*
X227113Y199232D01*
D02*
G37*
%LPD*%
G36*
X247495Y114856D02*
X247144Y114500D01*
X189975D01*
Y115113D01*
X189735Y115692D01*
X189292Y116135D01*
X188713Y116375D01*
X188087D01*
X187508Y116135D01*
X187065Y115692D01*
X186825Y115113D01*
Y114500D01*
X146500D01*
X144700Y116300D01*
Y133900D01*
X146800Y136000D01*
X187565D01*
X187987Y135825D01*
X188613D01*
X189035Y136000D01*
X247174D01*
X247495Y114856D01*
D02*
G37*
%LPC*%
G36*
X188613Y135075D02*
X187987D01*
X187408Y134835D01*
X186965Y134392D01*
X186725Y133813D01*
Y133187D01*
X186965Y132608D01*
X187408Y132165D01*
X187987Y131925D01*
X188613D01*
X189192Y132165D01*
X189635Y132608D01*
X189875Y133187D01*
Y133813D01*
X189635Y134392D01*
X189192Y134835D01*
X188613Y135075D01*
D02*
G37*
G36*
X156369Y129923D02*
X155742D01*
X155163Y129683D01*
X154720Y129240D01*
X154597Y128942D01*
X154056D01*
X154035Y128992D01*
X153592Y129435D01*
X153013Y129675D01*
X152387D01*
X151808Y129435D01*
X151365Y128992D01*
X151125Y128413D01*
Y127787D01*
X151365Y127208D01*
X151808Y126765D01*
X152387Y126525D01*
X153013D01*
X153592Y126765D01*
X154035Y127208D01*
X154158Y127506D01*
X154700D01*
X154720Y127456D01*
X155163Y127013D01*
X155742Y126773D01*
X156369D01*
X156948Y127013D01*
X157391Y127456D01*
X157630Y128035D01*
Y128661D01*
X157391Y129240D01*
X156948Y129683D01*
X156369Y129923D01*
D02*
G37*
G36*
X178115Y130283D02*
X177685D01*
X177287Y130118D01*
X176982Y129813D01*
X176817Y129415D01*
Y128985D01*
X176982Y128587D01*
X177287Y128282D01*
X177685Y128117D01*
X178115D01*
X178513Y128282D01*
X178818Y128587D01*
X178983Y128985D01*
Y129415D01*
X178818Y129813D01*
X178513Y130118D01*
X178115Y130283D01*
D02*
G37*
G36*
X188646Y131091D02*
X188020D01*
X187441Y130851D01*
X186998Y130408D01*
X186758Y129829D01*
Y129202D01*
X186998Y128624D01*
X187441Y128181D01*
X188020Y127941D01*
X188646D01*
X189225Y128181D01*
X189668Y128624D01*
X189908Y129202D01*
Y129829D01*
X189668Y130408D01*
X189225Y130851D01*
X188646Y131091D01*
D02*
G37*
G36*
X212313Y129875D02*
X211687D01*
X211108Y129635D01*
X210665Y129192D01*
X210425Y128613D01*
Y127987D01*
X210665Y127408D01*
X211108Y126965D01*
X211687Y126725D01*
X212313D01*
X212892Y126965D01*
X213335Y127408D01*
X213575Y127987D01*
Y128613D01*
X213335Y129192D01*
X212892Y129635D01*
X212313Y129875D01*
D02*
G37*
G36*
X202313D02*
X201687D01*
X201108Y129635D01*
X200665Y129192D01*
X200425Y128613D01*
Y127987D01*
X200665Y127408D01*
X201108Y126965D01*
X201687Y126725D01*
X202313D01*
X202892Y126965D01*
X203335Y127408D01*
X203575Y127987D01*
Y128613D01*
X203335Y129192D01*
X202892Y129635D01*
X202313Y129875D01*
D02*
G37*
G36*
X188713Y125075D02*
X188087D01*
X187508Y124835D01*
X187065Y124392D01*
X186825Y123813D01*
Y123187D01*
X187065Y122608D01*
X187508Y122165D01*
X188087Y121925D01*
X188713D01*
X189292Y122165D01*
X189735Y122608D01*
X189975Y123187D01*
Y123813D01*
X189735Y124392D01*
X189292Y124835D01*
X188713Y125075D01*
D02*
G37*
G36*
X212313Y124675D02*
X211687D01*
X211108Y124435D01*
X210665Y123992D01*
X210425Y123413D01*
Y122787D01*
X210665Y122208D01*
X211108Y121765D01*
X211687Y121525D01*
X212313D01*
X212892Y121765D01*
X213335Y122208D01*
X213575Y122787D01*
Y123413D01*
X213335Y123992D01*
X212892Y124435D01*
X212313Y124675D01*
D02*
G37*
G36*
X202313D02*
X201687D01*
X201108Y124435D01*
X200665Y123992D01*
X200425Y123413D01*
Y122787D01*
X200665Y122208D01*
X201108Y121765D01*
X201687Y121525D01*
X202313D01*
X202892Y121765D01*
X203335Y122208D01*
X203575Y122787D01*
Y123413D01*
X203335Y123992D01*
X202892Y124435D01*
X202313Y124675D01*
D02*
G37*
G36*
X157813D02*
X157187D01*
X156608Y124435D01*
X156165Y123992D01*
X155925Y123413D01*
Y122787D01*
X156165Y122208D01*
X156608Y121765D01*
X157187Y121525D01*
X157813D01*
X158392Y121765D01*
X158835Y122208D01*
X159075Y122787D01*
Y123413D01*
X158835Y123992D01*
X158392Y124435D01*
X157813Y124675D01*
D02*
G37*
G36*
X188613Y120875D02*
X187987D01*
X187408Y120635D01*
X186965Y120192D01*
X186725Y119613D01*
Y118987D01*
X186965Y118408D01*
X187408Y117965D01*
X187987Y117725D01*
X188613D01*
X189192Y117965D01*
X189635Y118408D01*
X189875Y118987D01*
Y119613D01*
X189635Y120192D01*
X189192Y120635D01*
X188613Y120875D01*
D02*
G37*
%LPD*%
D12*
X178079Y212323D02*
X206425D01*
X190841Y180793D02*
X192449Y182402D01*
X153833Y180793D02*
X190841D01*
X152500Y182126D02*
X153833Y180793D01*
X163500Y226902D02*
Y243275D01*
Y226902D02*
X178079Y212323D01*
X206425D02*
X208008Y213906D01*
X211142D01*
D13*
X176504Y172953D02*
X179654D01*
X182803Y169803D01*
X185953D01*
X133500Y140600D02*
X138600Y135500D01*
Y116700D02*
Y135500D01*
Y116700D02*
X142575Y112725D01*
X249525D01*
X267800Y131000D01*
X198551Y198150D02*
Y201299D01*
X200126Y202874D01*
Y209173D01*
X198551Y210748D02*
X200126Y209173D01*
X214299Y188701D02*
Y198150D01*
D59*
X198991Y152016D02*
D03*
Y155953D02*
D03*
X142700Y123300D02*
D03*
X298000Y149000D02*
D03*
X293000D02*
D03*
X288000D02*
D03*
X283000D02*
D03*
X278000D02*
D03*
X273000D02*
D03*
X268000D02*
D03*
X263000D02*
D03*
X258000D02*
D03*
X253000D02*
D03*
X238500Y122600D02*
D03*
X234700D02*
D03*
X231100D02*
D03*
X298000Y144000D02*
D03*
X293000D02*
D03*
X288000D02*
D03*
X283000D02*
D03*
X278000D02*
D03*
X273000D02*
D03*
X268000D02*
D03*
X263000D02*
D03*
X258000D02*
D03*
X253000D02*
D03*
X152500Y118300D02*
D03*
Y133100D02*
D03*
X207000D02*
D03*
Y118300D02*
D03*
X147500Y118100D02*
D03*
Y133300D02*
D03*
X242284Y122633D02*
D03*
X245700Y122600D02*
D03*
X226284Y122567D02*
D03*
X202000Y133300D02*
D03*
Y118100D02*
D03*
X118325Y164724D02*
D03*
X191025Y148979D02*
D03*
X188200Y141300D02*
D03*
X156055Y128348D02*
D03*
X157500Y123100D02*
D03*
X239000Y249300D02*
D03*
X140700Y234800D02*
D03*
X202000Y128300D02*
D03*
Y123100D02*
D03*
X188300Y137400D02*
D03*
Y133500D02*
D03*
X177900Y138374D02*
D03*
X267800Y131000D02*
D03*
X268399Y108900D02*
D03*
X199925Y140267D02*
D03*
X171747Y105000D02*
D03*
X158834Y158210D02*
D03*
X119372Y160228D02*
D03*
X177996Y154000D02*
D03*
X217100Y156653D02*
D03*
X210400Y156364D02*
D03*
X144150Y152700D02*
D03*
X150566Y158210D02*
D03*
X189053Y105000D02*
D03*
X212000Y128300D02*
D03*
X142700Y118300D02*
D03*
Y128300D02*
D03*
X212000Y123100D02*
D03*
X152700Y128100D02*
D03*
X273406Y109100D02*
D03*
X178063Y233506D02*
D03*
X133533Y152284D02*
D03*
X133500Y146300D02*
D03*
Y140600D02*
D03*
X188300Y110300D02*
D03*
Y119300D02*
D03*
X188400Y123500D02*
D03*
Y114800D02*
D03*
X188333Y129516D02*
D03*
X133100Y118400D02*
D03*
X133500Y128700D02*
D03*
X133533Y132916D02*
D03*
D62*
X243817Y207183D02*
G03*
X243280Y207720I-537J0D01*
G01*
X243817Y205611D02*
G03*
X244354Y205073I537J0D01*
G01*
X244474D02*
G03*
X245011Y205611I0J537D01*
G01*
X245548Y207720D02*
G03*
X245011Y207183I0J-537D01*
G01*
X246204D02*
G03*
X245667Y207720I-537J0D01*
G01*
X246204Y205611D02*
G03*
X246742Y205073I537J0D01*
G01*
X246861D02*
G03*
X247398Y205611I0J537D01*
G01*
X247935Y207720D02*
G03*
X247398Y207183I0J-537D01*
G01*
X248592D02*
G03*
X248055Y207720I-537J0D01*
G01*
X248592Y205611D02*
G03*
X249129Y205073I537J0D01*
G01*
X249248D02*
G03*
X249785Y205611I0J537D01*
G01*
X250323Y207720D02*
G03*
X249785Y207183I0J-537D01*
G01*
X255148Y211718D02*
G03*
X255685Y211181I537J0D01*
G01*
X255148Y212608D02*
G03*
X254611Y213145I-537J0D01*
G01*
X254492D02*
G03*
X253955Y212608I0J-537D01*
G01*
X253417Y210279D02*
G03*
X253955Y210817I0J537D01*
G01*
X252761D02*
G03*
X253298Y210279I537J0D01*
G01*
X252761Y212183D02*
G03*
X252224Y212720I-537J0D01*
G01*
X252104D02*
G03*
X251567Y212183I0J-537D01*
G01*
X251030Y208508D02*
G03*
X251567Y209045I0J537D01*
G01*
X250373D02*
G03*
X250911Y208508I537J0D01*
G01*
X250373Y211807D02*
G03*
X249836Y212344I-537J0D01*
G01*
X249717D02*
G03*
X249180Y211807I0J-537D01*
G01*
X248643Y208508D02*
G03*
X249180Y209045I0J537D01*
G01*
X247986D02*
G03*
X248523Y208508I537J0D01*
G01*
X247986Y211228D02*
G03*
X247449Y211765I-537J0D01*
G01*
X247329D02*
G03*
X246792Y211228I0J-537D01*
G01*
X246255Y208508D02*
G03*
X246792Y209045I0J537D01*
G01*
X245599D02*
G03*
X246136Y208508I537J0D01*
G01*
X245599Y210644D02*
G03*
X245061Y211181I-537J0D01*
G01*
X244942D02*
G03*
X244405Y210644I0J-537D01*
G01*
X243868Y208508D02*
G03*
X244405Y209045I0J537D01*
G01*
X243211D02*
G03*
X243748Y208508I537J0D01*
G01*
X243211Y211762D02*
G03*
X242674Y212299I-537J0D01*
G01*
X242555D02*
G03*
X242018Y211762I0J-537D01*
G01*
X241480Y211181D02*
G03*
X242018Y211718I0J537D01*
G01*
X251516Y215768D02*
G03*
X250979Y215230I0J-537D01*
G01*
X250442Y214318D02*
G03*
X250979Y214855I0J537D01*
G01*
X249785D02*
G03*
X250322Y214318I537J0D01*
G01*
X249785Y218143D02*
G03*
X249248Y218680I-537J0D01*
G01*
X249129D02*
G03*
X248591Y218143I0J-537D01*
G01*
X248054Y212553D02*
G03*
X248591Y213090I0J537D01*
G01*
X247398D02*
G03*
X247935Y212553I537J0D01*
G01*
X247398Y218143D02*
G03*
X246861Y218680I-537J0D01*
G01*
X246741D02*
G03*
X246204Y218143I0J-537D01*
G01*
X245667Y213740D02*
G03*
X246204Y214277I0J537D01*
G01*
X245010D02*
G03*
X245547Y213740I537J0D01*
G01*
X245010Y218143D02*
G03*
X244473Y218680I-537J0D01*
G01*
X244354D02*
G03*
X243817Y218143I0J-537D01*
G01*
X243279Y213087D02*
G03*
X243817Y213624I0J537D01*
G01*
X242623D02*
G03*
X243160Y213087I537J0D01*
G01*
X242623Y218254D02*
G03*
X242086Y218791I-537J0D01*
G01*
X241966D02*
G03*
X241429Y218254I0J-537D01*
G01*
X240892Y215768D02*
G03*
X241429Y216305I0J537D01*
G01*
X250350Y221718D02*
G03*
X250887Y221181I537J0D01*
G01*
X250350Y225084D02*
G03*
X249813Y225622I-537J0D01*
G01*
X249694D02*
G03*
X249157Y225084I0J-537D01*
G01*
X248619Y219467D02*
G03*
X249157Y220004I0J537D01*
G01*
X247963D02*
G03*
X248500Y219467I537J0D01*
G01*
X247963Y226075D02*
G03*
X247426Y226612I-537J0D01*
G01*
X247306D02*
G03*
X246769Y226075I0J-537D01*
G01*
X246232Y219467D02*
G03*
X246769Y220004I0J537D01*
G01*
X245575D02*
G03*
X246113Y219467I537J0D01*
G01*
X245575Y220644D02*
G03*
X245038Y221181I-537J0D01*
G01*
X244919D02*
G03*
X244382Y220644I0J-537D01*
G01*
X243845Y219467D02*
G03*
X244382Y220004I0J537D01*
G01*
X243188D02*
G03*
X243725Y219467I537J0D01*
G01*
X243188Y226075D02*
G03*
X242651Y226612I-537J0D01*
G01*
X242531D02*
G03*
X241994Y226075I0J-537D01*
G01*
X241457Y221476D02*
G03*
X241994Y222013I0J537D01*
G01*
X216919Y221492D02*
X216935D01*
X216169Y220743D02*
X216919Y221492D01*
X216169Y207538D02*
Y220743D01*
X216935Y221492D02*
X217509Y222067D01*
X220364Y218622D02*
X220833D01*
X219319Y217577D02*
X220364Y218622D01*
X220833D02*
X222026Y219814D01*
X221128Y222067D02*
X222173Y223112D01*
X217509Y222067D02*
X221128D01*
X226416Y212570D02*
X239484D01*
X234476Y221476D02*
X241260D01*
X233197Y220197D02*
X234476Y221476D01*
X231622Y219962D02*
X232667Y218917D01*
X238216D01*
X222026Y219814D02*
Y220284D01*
X223218Y221476D01*
X230577D02*
X231622Y220432D01*
X223218Y221476D02*
X230577D01*
X222184Y191605D02*
Y207822D01*
Y191605D02*
X223239Y190550D01*
X223748Y191850D02*
X225088D01*
X235067Y168524D02*
X240026D01*
X241782Y170280D01*
X220068Y187421D02*
X273231D01*
X218728Y188761D02*
X220068Y187421D01*
X225088Y191850D02*
X230108Y196870D01*
X242021D01*
X225494Y218793D02*
X226898Y220197D01*
X204850Y176102D02*
X209083Y171870D01*
X213020Y201299D02*
X215579Y198740D01*
X213020Y201299D02*
Y223825D01*
X215579Y188761D02*
Y198740D01*
X225618Y165374D02*
X226898Y166654D01*
X225618Y162974D02*
Y165374D01*
X216919Y227776D02*
X238216D01*
X223239Y190550D02*
X271450D01*
X218728Y188761D02*
Y204979D01*
X239484Y212570D02*
X240873Y211181D01*
X226898Y213898D02*
X228768Y215768D01*
X225176Y213809D02*
X226416Y212570D01*
X238216Y227776D02*
X239496Y226496D01*
X215714Y226570D02*
X216919Y227776D01*
X215714Y226101D02*
Y226570D01*
X214508Y224896D02*
X215714Y226101D01*
X214090Y224896D02*
X214508D01*
X213020Y223825D02*
X214090Y224896D01*
X215579Y188761D02*
X220159Y184181D01*
X251372D01*
X252470Y185280D01*
X284279D01*
X288000Y189000D01*
X238216Y224626D02*
X239496Y223346D01*
X223218Y224626D02*
X238216D01*
X222173Y223581D02*
X223218Y224626D01*
X222173Y223112D02*
Y223581D01*
X216169Y207538D02*
X218728Y204979D01*
X273231Y187421D02*
X274810Y189000D01*
X278000D01*
X223684Y218793D02*
X225494D01*
X222468Y217577D02*
X223684Y218793D01*
X238216Y218917D02*
X239496Y220197D01*
X231622Y219962D02*
Y220432D01*
X219319Y210218D02*
Y217577D01*
Y210218D02*
X220517Y209020D01*
X220986D01*
X222184Y207822D01*
X271450Y190550D02*
X273000Y189000D01*
X242021Y196870D02*
X245671Y200519D01*
X289519D01*
X299279Y210279D01*
Y214530D01*
X298530Y215280D02*
X299279Y214530D01*
X296538Y215280D02*
X298530D01*
X290258Y209000D02*
X296538Y215280D01*
X288000Y209000D02*
X290258D01*
X250519Y207720D02*
X293530D01*
X298000Y212191D01*
Y214000D01*
X209083Y162648D02*
Y171870D01*
Y162648D02*
X213306Y158424D01*
X235844D01*
X237335Y156933D01*
X278856D01*
X282203Y160280D01*
X284279D01*
X288000Y164000D01*
X236170Y159212D02*
X237661Y157720D01*
X278530D01*
X215911Y160347D02*
X217046Y159212D01*
X236170D01*
X212497Y160347D02*
X215911D01*
X209870Y174839D02*
X211134Y176102D01*
X209870Y162974D02*
Y174839D01*
Y162974D02*
X212497Y160347D01*
X278530Y157720D02*
X283000Y162190D01*
Y164000D01*
X225618Y162974D02*
X227942Y160650D01*
X276459D01*
X291089Y175279D01*
X294280D01*
X298000Y179000D01*
X272247Y161437D02*
X286089Y175279D01*
X228695Y163046D02*
X230305Y161437D01*
X272247D01*
X226898Y169803D02*
X228695Y168006D01*
Y163046D02*
Y168006D01*
X286089Y175279D02*
X289280D01*
X293000Y179000D01*
X233197Y163504D02*
X234476Y162224D01*
X268034D01*
X283000Y177190D01*
Y179000D01*
X236347Y166654D02*
X237626Y165374D01*
X266183D01*
X281089Y180280D01*
X284279D01*
X288000Y184000D01*
X233197Y166654D02*
X235067Y168524D01*
X241782Y170280D02*
X266089D01*
X276089Y180280D01*
X279279D01*
X283000Y184000D01*
X253596Y171673D02*
X257203Y175279D01*
X235067Y171673D02*
X253596D01*
X233197Y169803D02*
X235067Y171673D01*
X257203Y175279D02*
X266089D01*
X271089Y180280D01*
X274279D01*
X278000Y184000D01*
X240483Y175279D02*
X256089D01*
X261089Y180280D01*
X240026Y174823D02*
X240483Y175279D01*
X230047Y169803D02*
X231747Y171502D01*
Y173312D01*
X233257Y174823D01*
X240026D01*
X261089Y180280D02*
X269280D01*
X273000Y184000D01*
X230047Y176102D02*
X231917Y177972D01*
X240026D01*
X242333Y180280D01*
X259279D01*
X263000Y184000D01*
X231917Y181122D02*
X242449D01*
X243888Y182561D01*
X256561D01*
X258000Y184000D01*
X230047Y179252D02*
X231917Y181122D01*
X241465Y207720D02*
X243280D01*
X243817Y205611D02*
Y207183D01*
X244354Y205073D02*
X244474D01*
X245011Y205611D02*
Y207183D01*
X245548Y207720D02*
X245667D01*
X246204Y205611D02*
Y207183D01*
X246742Y205073D02*
X246861D01*
X247398Y205611D02*
Y207183D01*
X247935Y207720D02*
X248055D01*
X248592Y205611D02*
Y207183D01*
X249129Y205073D02*
X249248D01*
X249785Y205611D02*
Y207183D01*
X250323Y207720D02*
X250519D01*
X241183D02*
X241465D01*
X255685Y211181D02*
X256750D01*
X255148Y211718D02*
Y212608D01*
X254492Y213145D02*
X254611D01*
X253955Y210817D02*
Y212608D01*
X253298Y210279D02*
X253417D01*
X252761Y210817D02*
Y212183D01*
X252104Y212720D02*
X252224D01*
X251567Y209045D02*
Y212183D01*
X250911Y208508D02*
X251030D01*
X250373Y209045D02*
Y211807D01*
X249717Y212344D02*
X249836D01*
X249180Y209045D02*
Y211807D01*
X248523Y208508D02*
X248643D01*
X247986Y209045D02*
Y211228D01*
X247329Y211765D02*
X247449D01*
X246792Y209045D02*
Y211228D01*
X246136Y208508D02*
X246255D01*
X245599Y209045D02*
Y210644D01*
X244942Y211181D02*
X245061D01*
X244405Y209045D02*
Y210644D01*
X243748Y208508D02*
X243868D01*
X243211Y209045D02*
Y211762D01*
X242555Y212299D02*
X242674D01*
X242018Y211718D02*
Y211762D01*
X241283Y211181D02*
X241480D01*
X256750D02*
X276991D01*
X240873D02*
X241283D01*
X251516Y215768D02*
X253300D01*
X250979Y214855D02*
Y215230D01*
X250322Y214318D02*
X250442D01*
X249785Y214855D02*
Y218143D01*
X249129Y218680D02*
X249248D01*
X248591Y213090D02*
Y218143D01*
X247935Y212553D02*
X248054D01*
X247398Y213090D02*
Y218143D01*
X246741Y218680D02*
X246861D01*
X246204Y214277D02*
Y218143D01*
X245547Y213740D02*
X245667D01*
X245010Y214277D02*
Y218143D01*
X244354Y218680D02*
X244473D01*
X243817Y213624D02*
Y218143D01*
X243160Y213087D02*
X243279D01*
X242623Y213624D02*
Y218254D01*
X241966Y218791D02*
X242086D01*
X241429Y216305D02*
Y218254D01*
X240695Y215768D02*
X240892D01*
X228768D02*
X240695D01*
X253300D02*
X276577D01*
X250887Y221181D02*
X252413D01*
X250350Y221718D02*
Y225084D01*
X249694Y225622D02*
X249813D01*
X249157Y220004D02*
Y225084D01*
X248500Y219467D02*
X248619D01*
X247963Y220004D02*
Y226075D01*
X247306Y226612D02*
X247426D01*
X246769Y220004D02*
Y226075D01*
X246113Y219467D02*
X246232D01*
X245575Y220004D02*
Y220644D01*
X244919Y221181D02*
X245038D01*
X244382Y220004D02*
Y220644D01*
X243725Y219467D02*
X243845D01*
X243188Y220004D02*
Y226075D01*
X242531Y226612D02*
X242651D01*
X241994Y222013D02*
Y226075D01*
X241260Y221476D02*
X241457D01*
X252413Y221181D02*
X276991D01*
X257177Y231067D02*
X298633D01*
X215382Y230729D02*
X256838D01*
X211150Y226496D02*
X215382Y230729D01*
X256838D02*
X257177Y231067D01*
X298633D02*
X300000Y229700D01*
X222468Y210218D02*
Y217577D01*
Y210218D02*
X223717Y208969D01*
X239935D01*
X241183Y207720D01*
X300000Y227500D02*
Y229700D01*
X298915Y226415D02*
X300000Y227500D01*
X293605Y226415D02*
X298915D01*
X291550Y224359D02*
X293605Y226415D01*
X291550Y222550D02*
Y224359D01*
X288000Y219000D02*
X291550Y222550D01*
X223748Y217047D02*
X225176Y215619D01*
Y213809D02*
Y215619D01*
X276991Y211181D02*
X281089Y215280D01*
X289280D01*
X293000Y219000D01*
X276991Y221181D02*
X286089Y230279D01*
X296721D01*
X298000Y229000D01*
X276577Y215768D02*
X283171Y222361D01*
Y224171D01*
X288000Y229000D01*
D65*
X195396Y182402D02*
X195402D01*
X192252Y185545D02*
X195396Y182402D01*
X192246Y185545D02*
X192252D01*
X198551Y188701D02*
X200126Y190276D01*
Y196575D01*
X198551Y198150D02*
X200126Y196575D01*
X184378Y202874D02*
X185953Y204449D01*
X184378Y193425D02*
Y202874D01*
X182803Y191850D02*
X184378Y193425D01*
X181321Y225013D02*
X182803Y226496D01*
X181321Y222732D02*
Y225013D01*
Y222732D02*
X181524Y222529D01*
Y221772D02*
Y222529D01*
X181136Y221384D02*
X181524Y221772D01*
X181136Y218530D02*
Y221384D01*
X179654Y217047D02*
X181136Y218530D01*
X179654Y217047D02*
X181228Y215472D01*
X187528D01*
X189102Y213898D01*
X193919Y215380D02*
X195402Y213898D01*
X193919Y215380D02*
Y217661D01*
X194787Y218530D01*
X205864D01*
X206425Y219091D01*
Y223868D01*
X211000Y228443D01*
Y232800D01*
D67*
X122000Y112000D02*
D03*
Y258000D02*
D03*
X317000Y112000D02*
D03*
Y258000D02*
D03*
D68*
X222717Y232618D02*
D03*
X211150Y217032D02*
D03*
X217449Y220213D02*
D03*
X214299D02*
D03*
X268000Y239000D02*
D03*
X192252Y201307D02*
D03*
X288000Y159000D02*
D03*
X189102Y172937D02*
D03*
X268000Y159000D02*
D03*
X201701Y172953D02*
D03*
X268000Y154000D02*
D03*
X201701Y176102D02*
D03*
X182803D02*
D03*
X155650Y182126D02*
D03*
X176504Y188701D02*
D03*
X185953Y185551D02*
D03*
X201701Y169803D02*
D03*
Y188701D02*
D03*
X198551Y191850D02*
D03*
X149350Y207323D02*
D03*
X152500Y207323D02*
D03*
X155650Y201024D02*
D03*
X133602Y213622D02*
D03*
X182803Y210748D02*
D03*
X155650Y219921D02*
D03*
X195402Y210748D02*
D03*
X201701Y220197D02*
D03*
X198551Y226496D02*
D03*
X204850Y210748D02*
D03*
X230047Y182402D02*
D03*
X217449Y204449D02*
D03*
X220598Y185551D02*
D03*
X226898Y207598D02*
D03*
X236347Y204449D02*
D03*
X123760Y215211D02*
D03*
X214307Y207598D02*
D03*
X223748Y163504D02*
D03*
X214299Y166654D02*
D03*
X185953Y220197D02*
D03*
X298000Y234000D02*
D03*
X127303Y201024D02*
D03*
X236347Y169803D02*
D03*
X226898Y172953D02*
D03*
X239496Y179252D02*
D03*
X233197Y226496D02*
D03*
X211150Y223346D02*
D03*
X239496Y213898D02*
D03*
X217449Y198150D02*
D03*
X233197Y191850D02*
D03*
X204850Y198150D02*
D03*
X214299Y185551D02*
D03*
X211150Y182402D02*
D03*
X201701D02*
D03*
X152500Y191575D02*
D03*
Y201024D02*
D03*
X201701Y191850D02*
D03*
X220598Y220197D02*
D03*
X195402Y204449D02*
D03*
X179654Y201307D02*
D03*
X189102Y163504D02*
D03*
X179654Y169803D02*
D03*
X223748Y198150D02*
D03*
X209146Y251724D02*
D03*
X220500Y247500D02*
D03*
X128874Y177402D02*
D03*
X128878Y171102D02*
D03*
X230047Y217047D02*
D03*
X173500Y226500D02*
D03*
X288000Y239000D02*
D03*
X293000Y159000D02*
D03*
X189102Y176102D02*
D03*
X253000Y234000D02*
D03*
X198551Y220197D02*
D03*
X268000Y234000D02*
D03*
X201701Y217047D02*
D03*
X293000Y239000D02*
D03*
X198354Y260800D02*
D03*
X283000Y239000D02*
D03*
X240874Y232008D02*
D03*
X195402Y220197D02*
D03*
X298000Y239000D02*
D03*
X192947Y260800D02*
D03*
X172765Y219936D02*
D03*
X152500Y197874D02*
D03*
X127303Y204165D02*
D03*
X223764Y226496D02*
D03*
Y223346D02*
D03*
X220598Y217047D02*
D03*
Y223346D02*
D03*
X236347Y217047D02*
D03*
Y213898D02*
D03*
X233197Y220197D02*
D03*
X236347D02*
D03*
X217449Y217047D02*
D03*
X230047Y220197D02*
D03*
X223748Y191850D02*
D03*
X220598D02*
D03*
X155650Y178976D02*
D03*
Y172677D02*
D03*
X283000Y234000D02*
D03*
X239496Y169803D02*
D03*
X242000Y149500D02*
D03*
X226898Y198150D02*
D03*
Y191850D02*
D03*
X230047D02*
D03*
Y198150D02*
D03*
X226898Y201299D02*
D03*
X230047D02*
D03*
X233197Y198150D02*
D03*
X223748Y188701D02*
D03*
Y185551D02*
D03*
X220598Y188701D02*
D03*
X226898Y185551D02*
D03*
X122300Y225185D02*
D03*
X200200Y233900D02*
D03*
X205476Y241724D02*
D03*
X240700Y245400D02*
D03*
X182476Y251724D02*
D03*
Y241724D02*
D03*
X201701Y163504D02*
D03*
Y198150D02*
D03*
X183600Y161000D02*
D03*
X195402Y172953D02*
D03*
X223748Y201299D02*
D03*
X201615Y201385D02*
D03*
X195402Y201299D02*
D03*
X166476Y215124D02*
D03*
X192449Y188701D02*
D03*
X189102D02*
D03*
X192252Y169819D02*
D03*
Y166654D02*
D03*
X195402Y182402D02*
D03*
X195402Y188701D02*
D03*
X185953Y169803D02*
D03*
X226898Y220197D02*
D03*
X223748D02*
D03*
X220598Y207598D02*
D03*
X223748Y210748D02*
D03*
X217449Y223346D02*
D03*
X133602Y216772D02*
D03*
X204850Y163504D02*
D03*
X220500Y143100D02*
D03*
X189102Y179252D02*
D03*
X185953D02*
D03*
X189102Y182402D02*
D03*
X192449D02*
D03*
X198543Y207598D02*
D03*
X179654D02*
D03*
X185953Y213898D02*
D03*
X201701D02*
D03*
X198551D02*
D03*
X195402D02*
D03*
X176504Y217047D02*
D03*
X189102Y213898D02*
D03*
X192256D02*
D03*
X182803D02*
D03*
X204850Y217047D02*
D03*
X192252Y220197D02*
D03*
Y223346D02*
D03*
X136752Y169528D02*
D03*
X133602D02*
D03*
X189102Y169803D02*
D03*
X198551Y163504D02*
D03*
X152500Y216772D02*
D03*
X182803Y188701D02*
D03*
X179654D02*
D03*
X195402Y169803D02*
D03*
X204850Y179252D02*
D03*
Y176102D02*
D03*
X198551Y169803D02*
D03*
Y172953D02*
D03*
X211150Y179236D02*
D03*
X214299Y198150D02*
D03*
X217449Y213898D02*
D03*
X220598Y198150D02*
D03*
X211134Y185551D02*
D03*
X204835Y201299D02*
D03*
X208000D02*
D03*
X204850Y191858D02*
D03*
X230031Y163520D02*
D03*
X220598Y163504D02*
D03*
X223748Y166654D02*
D03*
X226898D02*
D03*
X130453Y178976D02*
D03*
X130468Y201024D02*
D03*
X230047Y213898D02*
D03*
X233197Y188701D02*
D03*
Y217047D02*
D03*
X239496Y210748D02*
D03*
X226898Y213898D02*
D03*
X230047Y210748D02*
D03*
X233197D02*
D03*
X236347D02*
D03*
X233197Y213898D02*
D03*
X185953Y207598D02*
D03*
X239440Y201355D02*
D03*
X236347Y198150D02*
D03*
X211142Y213906D02*
D03*
X214299Y188701D02*
D03*
X217449Y169803D02*
D03*
X226898Y163504D02*
D03*
X211000Y232800D02*
D03*
X198551Y210748D02*
D03*
X236018Y156441D02*
D03*
X204850Y226496D02*
D03*
X233197Y201299D02*
D03*
X239496Y166654D02*
D03*
Y172953D02*
D03*
X220598Y169803D02*
D03*
Y226496D02*
D03*
X217449D02*
D03*
X273000Y239000D02*
D03*
X278000D02*
D03*
X195402Y191850D02*
D03*
X198551Y182402D02*
D03*
X195402Y207598D02*
D03*
X198551Y198150D02*
D03*
Y188701D02*
D03*
X177900Y129200D02*
D03*
X226898Y223346D02*
D03*
X223748Y213898D02*
D03*
X214299Y217047D02*
D03*
X223064Y253900D02*
D03*
X154936Y243375D02*
D03*
X195402Y217047D02*
D03*
X127303Y182126D02*
D03*
X133602Y188425D02*
D03*
X130453Y197874D02*
D03*
X152500Y188425D02*
D03*
X149350Y201024D02*
D03*
X155650Y197874D02*
D03*
X123760Y218360D02*
D03*
X155650Y207323D02*
D03*
Y210472D02*
D03*
X152500Y219921D02*
D03*
X176504Y172953D02*
D03*
X179654Y182402D02*
D03*
X182803Y191850D02*
D03*
X176504Y207402D02*
D03*
X182803Y226496D02*
D03*
X185953Y204449D02*
D03*
X179654Y217047D02*
D03*
X123100Y133900D02*
D03*
X220598Y204449D02*
D03*
X226898Y188701D02*
D03*
X245000Y222461D02*
D03*
Y212461D02*
D03*
X230047Y166654D02*
D03*
X223748Y179252D02*
D03*
X245500Y185461D02*
D03*
X233197Y176102D02*
D03*
X236347Y185551D02*
D03*
X239496Y163504D02*
D03*
X198551Y176102D02*
D03*
X211150Y172953D02*
D03*
X195402Y166654D02*
D03*
X192252Y198142D02*
D03*
X214299Y182402D02*
D03*
Y204449D02*
D03*
X211142Y207598D02*
D03*
X211150Y191850D02*
D03*
X201701Y185551D02*
D03*
X201701Y179252D02*
D03*
X177900Y142943D02*
D03*
X258000Y229000D02*
D03*
X217449Y210748D02*
D03*
X253000Y229000D02*
D03*
X201701Y226496D02*
D03*
X258000Y224000D02*
D03*
X214299Y213898D02*
D03*
X253000Y224000D02*
D03*
X258000Y219000D02*
D03*
X253000D02*
D03*
X189102Y226496D02*
D03*
X172064Y250100D02*
D03*
X178476Y246724D02*
D03*
X192236Y226496D02*
D03*
X205476Y246724D02*
D03*
X195402Y223346D02*
D03*
X192252Y217047D02*
D03*
X198551Y223346D02*
D03*
X172064Y256800D02*
D03*
X195402Y226496D02*
D03*
X211150Y220197D02*
D03*
X263000Y229000D02*
D03*
X204850Y220197D02*
D03*
X201701Y223346D02*
D03*
X283000Y229000D02*
D03*
X214325Y223321D02*
D03*
X283000Y214000D02*
D03*
X226898Y217047D02*
D03*
X278000Y214000D02*
D03*
X298000Y229000D02*
D03*
Y224000D02*
D03*
Y219000D02*
D03*
X288000D02*
D03*
X211150Y226496D02*
D03*
X214307Y210748D02*
D03*
X293000Y229000D02*
D03*
X214299Y226496D02*
D03*
X293000Y224000D02*
D03*
X223748Y217047D02*
D03*
X293000Y219000D02*
D03*
Y214000D02*
D03*
X288000Y229000D02*
D03*
Y214000D02*
D03*
Y224000D02*
D03*
X298000Y214000D02*
D03*
X263000Y224000D02*
D03*
X268000D02*
D03*
Y219000D02*
D03*
X226898Y226496D02*
D03*
X268000Y214000D02*
D03*
X263000Y219000D02*
D03*
X230047Y223346D02*
D03*
X278000Y224000D02*
D03*
X220598Y210748D02*
D03*
X230047Y226496D02*
D03*
X273000Y224000D02*
D03*
Y219000D02*
D03*
X233197Y223346D02*
D03*
X273000Y214000D02*
D03*
X220598Y213898D02*
D03*
X278000Y219000D02*
D03*
X189102Y220197D02*
D03*
X258000Y234000D02*
D03*
X263000D02*
D03*
X273000D02*
D03*
X278000D02*
D03*
X189102Y223346D02*
D03*
X288000Y234000D02*
D03*
X189102Y217047D02*
D03*
X198551D02*
D03*
X293000Y234000D02*
D03*
X136752Y188425D02*
D03*
X152500Y182126D02*
D03*
X127303Y197874D02*
D03*
X192252Y204449D02*
D03*
X185953Y223346D02*
D03*
Y182402D02*
D03*
X136752Y194724D02*
D03*
X130453Y188425D02*
D03*
X188900Y185551D02*
D03*
X149350Y210472D02*
D03*
X179654Y210748D02*
D03*
X149350Y213622D02*
D03*
X133602Y204173D02*
D03*
X179654Y220197D02*
D03*
X133602Y201024D02*
D03*
X179654Y223346D02*
D03*
X136752Y210472D02*
D03*
X173776Y207724D02*
D03*
X146201Y207323D02*
D03*
X141576Y213224D02*
D03*
X176504Y201299D02*
D03*
Y204449D02*
D03*
X130453Y216772D02*
D03*
X179654Y204449D02*
D03*
X149350Y219921D02*
D03*
X185953Y201307D02*
D03*
X133602Y210472D02*
D03*
X182803Y201307D02*
D03*
Y204449D02*
D03*
X152500Y213622D02*
D03*
X136752D02*
D03*
X151076Y227724D02*
D03*
X145976Y216824D02*
D03*
X149350Y197874D02*
D03*
X176504Y210748D02*
D03*
X133602Y197874D02*
D03*
X136752D02*
D03*
X182803Y217047D02*
D03*
X185953Y226496D02*
D03*
X152500Y204173D02*
D03*
X179654Y226496D02*
D03*
X182803Y223346D02*
D03*
X149350Y204173D02*
D03*
X136752Y207323D02*
D03*
X182803Y220197D02*
D03*
X133602Y185276D02*
D03*
X172576Y187324D02*
D03*
X155650Y188425D02*
D03*
X182803Y185551D02*
D03*
X149391Y194584D02*
D03*
X179654Y191850D02*
D03*
X149388Y191437D02*
D03*
X136752Y191575D02*
D03*
X133602Y182126D02*
D03*
X189102Y198142D02*
D03*
X152500Y178976D02*
D03*
X189102Y191850D02*
D03*
X130453Y182126D02*
D03*
X185953Y210748D02*
D03*
X146201Y172677D02*
D03*
X141476Y192756D02*
D03*
X185953Y217047D02*
D03*
X171076Y202824D02*
D03*
X189102Y210748D02*
D03*
X146201Y188425D02*
D03*
X133602Y175827D02*
D03*
X189102Y201307D02*
D03*
X152500Y169528D02*
D03*
X179654Y195000D02*
D03*
X189102D02*
D03*
X133602Y172677D02*
D03*
X185953Y191850D02*
D03*
X152500Y172677D02*
D03*
X185953Y188701D02*
D03*
X152500Y175827D02*
D03*
X182803Y198142D02*
D03*
X136752Y175827D02*
D03*
X169976Y189124D02*
D03*
X149350Y175827D02*
D03*
X166876Y178824D02*
D03*
X136752Y178976D02*
D03*
X171476Y177124D02*
D03*
X233197Y172953D02*
D03*
X163500Y243275D02*
D03*
X192252Y191850D02*
D03*
X152500Y185276D02*
D03*
X189102Y207598D02*
D03*
Y204449D02*
D03*
X192256Y210748D02*
D03*
X258000Y239000D02*
D03*
X192252Y207598D02*
D03*
X253000Y239000D02*
D03*
X201701Y210748D02*
D03*
X263000Y239000D02*
D03*
X271500Y136000D02*
D03*
X236347Y172953D02*
D03*
X253000Y214000D02*
D03*
X258000D02*
D03*
X283000Y209000D02*
D03*
X288000D02*
D03*
X273000D02*
D03*
X278000D02*
D03*
X263000D02*
D03*
X220598Y201299D02*
D03*
X268000Y209000D02*
D03*
X223748Y204449D02*
D03*
X253000Y209000D02*
D03*
X223748Y207598D02*
D03*
X258000Y209000D02*
D03*
X236347Y207598D02*
D03*
X239496D02*
D03*
Y204449D02*
D03*
X230047Y207598D02*
D03*
X273000Y204000D02*
D03*
X233197Y207598D02*
D03*
X278000Y204000D02*
D03*
X263000D02*
D03*
X268000D02*
D03*
X253000D02*
D03*
X233197Y204449D02*
D03*
X258000Y204000D02*
D03*
X226898Y204449D02*
D03*
X293000Y199000D02*
D03*
X230047Y204449D02*
D03*
X298000Y199000D02*
D03*
X283000D02*
D03*
X288000D02*
D03*
X236347Y201299D02*
D03*
X234772Y193425D02*
D03*
X253000Y199000D02*
D03*
X237921Y193425D02*
D03*
X258000Y199000D02*
D03*
X293000Y194000D02*
D03*
X230047Y188701D02*
D03*
X298000Y194000D02*
D03*
X283000D02*
D03*
X288000D02*
D03*
X226898Y210748D02*
D03*
X273000Y194000D02*
D03*
X278000D02*
D03*
X263000D02*
D03*
X268000D02*
D03*
X253000D02*
D03*
X258000D02*
D03*
X239496Y217047D02*
D03*
X293000Y189000D02*
D03*
X298000D02*
D03*
X236347Y223346D02*
D03*
X283000Y189000D02*
D03*
X239496Y226496D02*
D03*
X288000Y189000D02*
D03*
X239496Y220197D02*
D03*
X273000Y189000D02*
D03*
X239496Y223346D02*
D03*
X278000Y189000D02*
D03*
X268000D02*
D03*
X263000Y214000D02*
D03*
Y189000D02*
D03*
X236347Y176102D02*
D03*
X223748Y182402D02*
D03*
X253000Y189000D02*
D03*
X226898Y182402D02*
D03*
X258000Y189000D02*
D03*
X230047Y185551D02*
D03*
X293000Y184000D02*
D03*
X233197Y182402D02*
D03*
X298000Y184000D02*
D03*
X233197Y166654D02*
D03*
X283000Y184000D02*
D03*
X236347Y166654D02*
D03*
X288000Y184000D02*
D03*
X273000D02*
D03*
X230047Y169803D02*
D03*
X278000Y184000D02*
D03*
X233197Y169803D02*
D03*
X230047Y176102D02*
D03*
X263000Y184000D02*
D03*
X233197Y179252D02*
D03*
X268000Y184000D02*
D03*
X226898Y179252D02*
D03*
X253000Y184000D02*
D03*
X230047Y179252D02*
D03*
X258000Y184000D02*
D03*
X293000Y179000D02*
D03*
X226898Y169803D02*
D03*
X298000Y179000D02*
D03*
X283000D02*
D03*
X233197Y163504D02*
D03*
X288000Y179000D02*
D03*
X236347Y163504D02*
D03*
X273000Y179000D02*
D03*
X278000D02*
D03*
X263000D02*
D03*
X239496Y176102D02*
D03*
X268000Y179000D02*
D03*
X253000D02*
D03*
X258000D02*
D03*
X298000Y174000D02*
D03*
X233197Y185551D02*
D03*
X293000Y174000D02*
D03*
X236347Y182402D02*
D03*
X220598Y172953D02*
D03*
X288000Y174000D02*
D03*
X223748Y172953D02*
D03*
Y169803D02*
D03*
X263000Y174000D02*
D03*
X226898Y176102D02*
D03*
X230047Y172953D02*
D03*
X268000Y174000D02*
D03*
X220598Y166654D02*
D03*
X253000Y174000D02*
D03*
X258000D02*
D03*
X298000Y169000D02*
D03*
X293000D02*
D03*
X220598Y182402D02*
D03*
X283000Y169000D02*
D03*
X220598Y179252D02*
D03*
X288000Y169000D02*
D03*
X220598Y176102D02*
D03*
X273000Y169000D02*
D03*
X278000D02*
D03*
X223748Y176102D02*
D03*
X214283Y169787D02*
D03*
X263000Y169000D02*
D03*
X217465Y166654D02*
D03*
X268000Y169000D02*
D03*
X217449Y172953D02*
D03*
X253000Y169000D02*
D03*
X258000D02*
D03*
X214299Y176102D02*
D03*
X293000Y164000D02*
D03*
X214315Y172953D02*
D03*
X298000Y164000D02*
D03*
X211134Y176102D02*
D03*
X283000Y164000D02*
D03*
X288000D02*
D03*
X236347Y179252D02*
D03*
X268000Y164000D02*
D03*
X273000D02*
D03*
X211150Y169803D02*
D03*
X258000Y164000D02*
D03*
X204850Y169803D02*
D03*
X263000Y164000D02*
D03*
X214283Y163504D02*
D03*
X298000Y159000D02*
D03*
X217449Y163504D02*
D03*
X253000Y164000D02*
D03*
X211150Y166654D02*
D03*
X278000Y159000D02*
D03*
X211150Y163504D02*
D03*
X283000Y159000D02*
D03*
X273000D02*
D03*
X204850Y166654D02*
D03*
X258000Y159000D02*
D03*
X201701Y166654D02*
D03*
X263000Y159000D02*
D03*
X298000Y154000D02*
D03*
X198551Y166654D02*
D03*
X253000Y159000D02*
D03*
X288000Y154000D02*
D03*
X293000D02*
D03*
X278000D02*
D03*
X283000D02*
D03*
X204850Y172953D02*
D03*
X273000Y154000D02*
D03*
X258000D02*
D03*
X263000D02*
D03*
X253000D02*
D03*
X192246Y185545D02*
D03*
X181700Y258600D02*
D03*
X209541Y260800D02*
D03*
X172429Y236724D02*
D03*
X194741Y160000D02*
D03*
X211142Y210740D02*
D03*
D70*
X155650Y210472D02*
X173433D01*
X176504Y207402D01*
X184378Y206024D02*
X185953Y204449D01*
X177882Y206024D02*
X184378D01*
X176504Y207402D02*
X177882Y206024D01*
M02*
