G04*
G04 #@! TF.GenerationSoftware,Altium Limited,Altium Designer,25.6.2 (33)*
G04*
G04 Layer_Physical_Order=3*
G04 Layer_Color=30967*
%FSLAX25Y25*%
%MOIN*%
G70*
G04*
G04 #@! TF.SameCoordinates,D3077B53-F130-49B9-AE0B-FC42BD5CCE1B*
G04*
G04*
G04 #@! TF.FilePolarity,Positive*
G04*
G01*
G75*
%ADD12C,0.00500*%
%ADD13C,0.01000*%
%ADD59C,0.02362*%
%ADD62C,0.00394*%
%ADD65C,0.00800*%
%ADD66C,0.01500*%
%ADD67C,0.03937*%
%ADD68C,0.01378*%
G36*
X329000Y260000D02*
Y110000D01*
X319000Y100000D01*
X120000D01*
X110000Y110000D01*
Y260000D01*
X120000Y270000D01*
X319000D01*
X329000Y260000D01*
D02*
G37*
%LPC*%
G36*
X209756Y261883D02*
X209326D01*
X208928Y261718D01*
X208623Y261413D01*
X208458Y261015D01*
Y260585D01*
X208623Y260187D01*
X208928Y259882D01*
X209326Y259717D01*
X209756D01*
X210154Y259882D01*
X210459Y260187D01*
X210624Y260585D01*
Y261015D01*
X210459Y261413D01*
X210154Y261718D01*
X209756Y261883D01*
D02*
G37*
G36*
X198569D02*
X198138D01*
X197740Y261718D01*
X197436Y261413D01*
X197271Y261015D01*
Y260585D01*
X197436Y260187D01*
X197740Y259882D01*
X198138Y259717D01*
X198569D01*
X198967Y259882D01*
X199271Y260187D01*
X199436Y260585D01*
Y261015D01*
X199271Y261413D01*
X198967Y261718D01*
X198569Y261883D01*
D02*
G37*
G36*
X193162D02*
X192731D01*
X192333Y261718D01*
X192029Y261413D01*
X191864Y261015D01*
Y260585D01*
X192029Y260187D01*
X192333Y259882D01*
X192731Y259717D01*
X193162D01*
X193560Y259882D01*
X193864Y260187D01*
X194029Y260585D01*
Y261015D01*
X193864Y261413D01*
X193560Y261718D01*
X193162Y261883D01*
D02*
G37*
G36*
X181915Y259683D02*
X181485D01*
X181087Y259518D01*
X180782Y259213D01*
X180617Y258815D01*
Y258385D01*
X180782Y257987D01*
X181087Y257682D01*
X181485Y257517D01*
X181915D01*
X182313Y257682D01*
X182618Y257987D01*
X182783Y258385D01*
Y258815D01*
X182618Y259213D01*
X182313Y259518D01*
X181915Y259683D01*
D02*
G37*
G36*
X172280Y257883D02*
X171849D01*
X171451Y257718D01*
X171146Y257413D01*
X170982Y257015D01*
Y256585D01*
X171146Y256187D01*
X171451Y255882D01*
X171849Y255717D01*
X172280D01*
X172678Y255882D01*
X172982Y256187D01*
X173147Y256585D01*
Y257015D01*
X172982Y257413D01*
X172678Y257718D01*
X172280Y257883D01*
D02*
G37*
G36*
X223280Y254983D02*
X222849D01*
X222451Y254818D01*
X222146Y254513D01*
X221982Y254115D01*
Y253685D01*
X222146Y253287D01*
X222451Y252982D01*
X222849Y252817D01*
X223280D01*
X223677Y252982D01*
X223982Y253287D01*
X224147Y253685D01*
Y254115D01*
X223982Y254513D01*
X223677Y254818D01*
X223280Y254983D01*
D02*
G37*
G36*
X182692Y252807D02*
X182261D01*
X181863Y252642D01*
X181559Y252338D01*
X181394Y251940D01*
Y251509D01*
X181559Y251111D01*
X181863Y250807D01*
X182261Y250642D01*
X182692D01*
X183090Y250807D01*
X183394Y251111D01*
X183559Y251509D01*
Y251940D01*
X183394Y252338D01*
X183090Y252642D01*
X182692Y252807D01*
D02*
G37*
G36*
X172280Y251183D02*
X171849D01*
X171451Y251018D01*
X171146Y250713D01*
X170982Y250315D01*
Y249885D01*
X171146Y249487D01*
X171451Y249182D01*
X171849Y249017D01*
X172280D01*
X172678Y249182D01*
X172982Y249487D01*
X173147Y249885D01*
Y250315D01*
X172982Y250713D01*
X172678Y251018D01*
X172280Y251183D01*
D02*
G37*
G36*
X239313Y250875D02*
X238687D01*
X238108Y250635D01*
X237665Y250192D01*
X237425Y249613D01*
Y248987D01*
X237665Y248408D01*
X238108Y247965D01*
X238687Y247725D01*
X239313D01*
X239892Y247965D01*
X240335Y248408D01*
X240575Y248987D01*
Y249613D01*
X240335Y250192D01*
X239892Y250635D01*
X239313Y250875D01*
D02*
G37*
G36*
X205692Y247807D02*
X205261D01*
X204863Y247642D01*
X204558Y247338D01*
X204394Y246940D01*
Y246509D01*
X204558Y246111D01*
X204863Y245807D01*
X205261Y245642D01*
X205692D01*
X206090Y245807D01*
X206394Y246111D01*
X206559Y246509D01*
Y246940D01*
X206394Y247338D01*
X206090Y247642D01*
X205692Y247807D01*
D02*
G37*
G36*
X178692D02*
X178261D01*
X177863Y247642D01*
X177559Y247338D01*
X177394Y246940D01*
Y246509D01*
X177559Y246111D01*
X177863Y245807D01*
X178261Y245642D01*
X178692D01*
X179090Y245807D01*
X179394Y246111D01*
X179559Y246509D01*
Y246940D01*
X179394Y247338D01*
X179090Y247642D01*
X178692Y247807D01*
D02*
G37*
G36*
X240915Y246483D02*
X240485D01*
X240087Y246318D01*
X239782Y246013D01*
X239617Y245615D01*
Y245185D01*
X239782Y244787D01*
X240087Y244482D01*
X240485Y244317D01*
X240915D01*
X241313Y244482D01*
X241618Y244787D01*
X241783Y245185D01*
Y245615D01*
X241618Y246013D01*
X241313Y246318D01*
X240915Y246483D01*
D02*
G37*
G36*
X155151Y244458D02*
X154720D01*
X154323Y244293D01*
X154018Y243988D01*
X153853Y243590D01*
Y243159D01*
X154018Y242761D01*
X154323Y242457D01*
X154720Y242292D01*
X155151D01*
X155549Y242457D01*
X155854Y242761D01*
X156018Y243159D01*
Y243590D01*
X155854Y243988D01*
X155549Y244293D01*
X155151Y244458D01*
D02*
G37*
G36*
X163715Y244357D02*
X163285D01*
X162887Y244193D01*
X162582Y243888D01*
X162417Y243490D01*
Y243059D01*
X162582Y242661D01*
X162887Y242357D01*
X163285Y242192D01*
X163715D01*
X164113Y242357D01*
X164418Y242661D01*
X164583Y243059D01*
Y243490D01*
X164418Y243888D01*
X164113Y244193D01*
X163715Y244357D01*
D02*
G37*
G36*
X182692Y242807D02*
X182261D01*
X181863Y242642D01*
X181559Y242338D01*
X181394Y241940D01*
Y241509D01*
X181559Y241111D01*
X181863Y240807D01*
X182261Y240642D01*
X182692D01*
X183090Y240807D01*
X183394Y241111D01*
X183559Y241509D01*
Y241940D01*
X183394Y242338D01*
X183090Y242642D01*
X182692Y242807D01*
D02*
G37*
G36*
X298215Y240083D02*
X297785D01*
X297387Y239918D01*
X297082Y239613D01*
X296917Y239215D01*
Y238785D01*
X297082Y238387D01*
X297387Y238082D01*
X297785Y237917D01*
X298215D01*
X298613Y238082D01*
X298918Y238387D01*
X299083Y238785D01*
Y239215D01*
X298918Y239613D01*
X298613Y239918D01*
X298215Y240083D01*
D02*
G37*
G36*
X293215D02*
X292785D01*
X292387Y239918D01*
X292082Y239613D01*
X291917Y239215D01*
Y238785D01*
X292082Y238387D01*
X292387Y238082D01*
X292785Y237917D01*
X293215D01*
X293613Y238082D01*
X293918Y238387D01*
X294083Y238785D01*
Y239215D01*
X293918Y239613D01*
X293613Y239918D01*
X293215Y240083D01*
D02*
G37*
G36*
X288215D02*
X287785D01*
X287387Y239918D01*
X287082Y239613D01*
X286917Y239215D01*
Y238785D01*
X287082Y238387D01*
X287387Y238082D01*
X287785Y237917D01*
X288215D01*
X288613Y238082D01*
X288918Y238387D01*
X289083Y238785D01*
Y239215D01*
X288918Y239613D01*
X288613Y239918D01*
X288215Y240083D01*
D02*
G37*
G36*
X283215D02*
X282785D01*
X282387Y239918D01*
X282082Y239613D01*
X281917Y239215D01*
Y238785D01*
X282082Y238387D01*
X282387Y238082D01*
X282785Y237917D01*
X283215D01*
X283613Y238082D01*
X283918Y238387D01*
X284083Y238785D01*
Y239215D01*
X283918Y239613D01*
X283613Y239918D01*
X283215Y240083D01*
D02*
G37*
G36*
X172644Y237807D02*
X172214D01*
X171816Y237642D01*
X171511Y237338D01*
X171346Y236940D01*
Y236509D01*
X171511Y236111D01*
X171816Y235807D01*
X172214Y235642D01*
X172644D01*
X173042Y235807D01*
X173347Y236111D01*
X173512Y236509D01*
Y236940D01*
X173347Y237338D01*
X173042Y237642D01*
X172644Y237807D01*
D02*
G37*
G36*
X141013Y236375D02*
X140387D01*
X139808Y236135D01*
X139365Y235692D01*
X139125Y235113D01*
Y234487D01*
X139365Y233908D01*
X139808Y233465D01*
X140387Y233225D01*
X141013D01*
X141592Y233465D01*
X142035Y233908D01*
X142275Y234487D01*
Y235113D01*
X142035Y235692D01*
X141592Y236135D01*
X141013Y236375D01*
D02*
G37*
G36*
X293215Y235083D02*
X292785D01*
X292387Y234918D01*
X292082Y234613D01*
X291917Y234215D01*
Y233785D01*
X292082Y233387D01*
X292387Y233082D01*
X292785Y232917D01*
X293215D01*
X293613Y233082D01*
X293918Y233387D01*
X294083Y233785D01*
Y234215D01*
X293918Y234613D01*
X293613Y234918D01*
X293215Y235083D01*
D02*
G37*
G36*
X288215D02*
X287785D01*
X287387Y234918D01*
X287082Y234613D01*
X286917Y234215D01*
Y233785D01*
X287082Y233387D01*
X287387Y233082D01*
X287785Y232917D01*
X288215D01*
X288613Y233082D01*
X288918Y233387D01*
X289083Y233785D01*
Y234215D01*
X288918Y234613D01*
X288613Y234918D01*
X288215Y235083D01*
D02*
G37*
G36*
X270806Y243643D02*
X193238D01*
X192786Y243456D01*
X174772Y225442D01*
X174585Y224990D01*
Y213837D01*
X174772Y213385D01*
X176014Y212143D01*
X175922Y211679D01*
X175891Y211666D01*
X175586Y211361D01*
X175421Y210963D01*
Y210533D01*
X175586Y210135D01*
X175891Y209830D01*
X176289Y209665D01*
X176719D01*
X177117Y209830D01*
X177422Y210135D01*
X177532Y210157D01*
X179062Y208626D01*
X179040Y208516D01*
X178736Y208212D01*
X178571Y207814D01*
Y207383D01*
X178736Y206985D01*
X179040Y206681D01*
X179438Y206516D01*
X179869D01*
X180267Y206681D01*
X180571Y206985D01*
X180736Y207383D01*
Y207814D01*
X180723Y207845D01*
X180986Y208239D01*
X181485D01*
X183857Y205867D01*
X184309Y205680D01*
X185138D01*
X185150Y205661D01*
X185259Y205286D01*
X185035Y205062D01*
X184870Y204664D01*
Y204234D01*
X185035Y203836D01*
X185339Y203531D01*
X185737Y203366D01*
X186168D01*
X186566Y203531D01*
X186871Y203836D01*
X187035Y204234D01*
Y204664D01*
X186871Y205062D01*
X186647Y205286D01*
X186755Y205661D01*
X186767Y205680D01*
X188288D01*
X188300Y205661D01*
X188408Y205286D01*
X188184Y205062D01*
X188020Y204664D01*
Y204234D01*
X188184Y203836D01*
X188489Y203531D01*
X188887Y203366D01*
X189318D01*
X189716Y203531D01*
X190020Y203836D01*
X190185Y204234D01*
Y204664D01*
X190020Y205062D01*
X189796Y205286D01*
X189905Y205661D01*
X189917Y205680D01*
X191437D01*
X191449Y205661D01*
X191558Y205286D01*
X191334Y205062D01*
X191169Y204664D01*
Y204234D01*
X191334Y203836D01*
X191639Y203531D01*
X192037Y203366D01*
X192467D01*
X192865Y203531D01*
X193170Y203836D01*
X193335Y204234D01*
Y204664D01*
X193170Y205062D01*
X192946Y205286D01*
X193055Y205661D01*
X193067Y205680D01*
X199081D01*
X199533Y205867D01*
X203432Y209766D01*
X203620Y210218D01*
Y216233D01*
X203638Y216245D01*
X204013Y216353D01*
X204237Y216129D01*
X204635Y215965D01*
X205066D01*
X205464Y216129D01*
X205742Y216408D01*
X209340D01*
X209792Y216595D01*
X210214Y216461D01*
X210232Y216418D01*
X210536Y216114D01*
X210934Y215949D01*
X211365D01*
X211763Y216114D01*
X212067Y216418D01*
X212232Y216816D01*
Y217247D01*
X212213Y217294D01*
X212476Y217688D01*
X212966D01*
X213229Y217294D01*
X213216Y217263D01*
Y216832D01*
X213381Y216434D01*
X213686Y216129D01*
X214084Y215965D01*
X214515D01*
X214913Y216129D01*
X215217Y216434D01*
X215382Y216832D01*
Y217263D01*
X215369Y217294D01*
X215632Y217688D01*
X216116D01*
X216379Y217294D01*
X216366Y217263D01*
Y216832D01*
X216531Y216434D01*
X216835Y216129D01*
X216857Y216020D01*
X215717Y214880D01*
X215604Y214606D01*
X215437Y214565D01*
X215166Y214562D01*
X214913Y214815D01*
X214515Y214980D01*
X214084D01*
X213686Y214815D01*
X213381Y214511D01*
X213216Y214113D01*
Y213682D01*
X213381Y213284D01*
X213686Y212980D01*
X214084Y212815D01*
X214515D01*
X214913Y212980D01*
X215136Y213204D01*
X215511Y213095D01*
X215530Y213083D01*
Y211575D01*
X215136Y211450D01*
X214920Y211666D01*
X214522Y211831D01*
X214092D01*
X213694Y211666D01*
X213389Y211361D01*
X213224Y210963D01*
Y210533D01*
X213389Y210135D01*
X213694Y209830D01*
X214092Y209665D01*
X214522D01*
X214920Y209830D01*
X215136Y210046D01*
X215530Y209921D01*
Y205263D01*
X215511Y205251D01*
X215136Y205143D01*
X214913Y205367D01*
X214515Y205532D01*
X214084D01*
X213686Y205367D01*
X213381Y205062D01*
X213216Y204664D01*
Y204234D01*
X213381Y203836D01*
X213686Y203531D01*
X214084Y203366D01*
X214515D01*
X214913Y203531D01*
X215136Y203755D01*
X215511Y203646D01*
X215530Y203634D01*
Y198964D01*
X215511Y198952D01*
X215136Y198844D01*
X214913Y199067D01*
X214515Y199232D01*
X214084D01*
X213686Y199067D01*
X213381Y198763D01*
X213216Y198365D01*
Y197934D01*
X213381Y197536D01*
X213686Y197232D01*
X214084Y197067D01*
X214515D01*
X214913Y197232D01*
X215166Y197486D01*
X215437Y197482D01*
X215604Y197441D01*
X215717Y197168D01*
X218632Y194253D01*
X219084Y194065D01*
X233439D01*
X233702Y193672D01*
X233689Y193641D01*
Y193210D01*
X233854Y192812D01*
X234158Y192507D01*
X234556Y192342D01*
X234987D01*
X235385Y192507D01*
X235639Y192761D01*
X235909Y192758D01*
X236076Y192717D01*
X236190Y192443D01*
X237650Y190983D01*
X237499Y190620D01*
X230862D01*
X230850Y190638D01*
X230741Y191013D01*
X230965Y191237D01*
X231130Y191635D01*
Y192066D01*
X230965Y192464D01*
X230661Y192768D01*
X230263Y192933D01*
X229832D01*
X229434Y192768D01*
X229129Y192464D01*
X228965Y192066D01*
Y191635D01*
X229129Y191237D01*
X229353Y191013D01*
X229245Y190638D01*
X229233Y190620D01*
X227712D01*
X227700Y190638D01*
X227592Y191013D01*
X227816Y191237D01*
X227980Y191635D01*
Y192066D01*
X227816Y192464D01*
X227511Y192768D01*
X227113Y192933D01*
X226682D01*
X226284Y192768D01*
X225980Y192464D01*
X225815Y192066D01*
Y191635D01*
X225980Y191237D01*
X226234Y190983D01*
X226230Y190713D01*
X226189Y190546D01*
X225916Y190432D01*
X224776Y189292D01*
X224666Y189314D01*
X224361Y189619D01*
X223963Y189784D01*
X223533D01*
X223135Y189619D01*
X222830Y189314D01*
X222665Y188916D01*
Y188485D01*
X222830Y188087D01*
X223135Y187783D01*
X223533Y187618D01*
X223963D01*
X224119Y187683D01*
X224513Y187420D01*
Y186832D01*
X224119Y186569D01*
X223963Y186634D01*
X223533D01*
X223135Y186469D01*
X222830Y186164D01*
X222665Y185766D01*
Y185336D01*
X222830Y184938D01*
X223135Y184633D01*
X223533Y184468D01*
X223963D01*
X223979Y184475D01*
X224345Y184245D01*
X224370Y183928D01*
X223927Y183484D01*
X223533D01*
X223135Y183319D01*
X222830Y183015D01*
X222665Y182617D01*
Y182186D01*
X222830Y181788D01*
X223135Y181484D01*
X223533Y181319D01*
X223963D01*
X224361Y181484D01*
X224666Y181788D01*
X224831Y182186D01*
Y182580D01*
X225604Y183353D01*
X225791Y183806D01*
Y184570D01*
X226185Y184733D01*
X226284Y184633D01*
X226682Y184468D01*
X227113D01*
X227293Y184543D01*
X227727Y184346D01*
X227737Y184333D01*
X227768Y184176D01*
X227076Y183484D01*
X226682D01*
X226284Y183319D01*
X225980Y183015D01*
X225815Y182617D01*
Y182186D01*
X225980Y181788D01*
X226284Y181484D01*
X226682Y181319D01*
X227113D01*
X227164Y181340D01*
X227551Y181113D01*
X227580Y180838D01*
X227076Y180335D01*
X226682D01*
X226284Y180170D01*
X225980Y179865D01*
X225815Y179467D01*
Y179037D01*
X225980Y178639D01*
X226284Y178334D01*
X226682Y178169D01*
X227113D01*
X227511Y178334D01*
X227816Y178639D01*
X227980Y179037D01*
Y179431D01*
X228819Y180269D01*
X229006Y180721D01*
Y182266D01*
X230101Y183361D01*
X232068D01*
X232180Y183178D01*
X232259Y182967D01*
X232114Y182617D01*
Y182186D01*
X232279Y181788D01*
X232584Y181484D01*
X232981Y181319D01*
X233376D01*
X234024Y180670D01*
X234476Y180483D01*
X235532D01*
X235544Y180464D01*
X235652Y180089D01*
X235429Y179865D01*
X235264Y179467D01*
Y179037D01*
X235429Y178639D01*
X235652Y178415D01*
X235544Y178040D01*
X235532Y178021D01*
X234012D01*
X233999Y178040D01*
X233891Y178415D01*
X234115Y178639D01*
X234279Y179037D01*
Y179467D01*
X234115Y179865D01*
X233810Y180170D01*
X233412Y180335D01*
X232981D01*
X232584Y180170D01*
X232279Y179865D01*
X232114Y179467D01*
Y179037D01*
X232279Y178639D01*
X232503Y178415D01*
X232394Y178040D01*
X232382Y178021D01*
X230862D01*
X230850Y178040D01*
X230741Y178415D01*
X230965Y178639D01*
X231130Y179037D01*
Y179467D01*
X230965Y179865D01*
X230661Y180170D01*
X230263Y180335D01*
X229832D01*
X229434Y180170D01*
X229129Y179865D01*
X228965Y179467D01*
Y179037D01*
X229129Y178639D01*
X229353Y178415D01*
X229245Y178040D01*
X229233Y178021D01*
X228177D01*
X227725Y177834D01*
X227076Y177185D01*
X226682D01*
X226284Y177020D01*
X225980Y176716D01*
X225815Y176318D01*
Y175887D01*
X225980Y175489D01*
X226204Y175265D01*
X226095Y174890D01*
X226083Y174872D01*
X224563D01*
X224551Y174890D01*
X224442Y175265D01*
X224666Y175489D01*
X224831Y175887D01*
Y176318D01*
X224666Y176716D01*
X224361Y177020D01*
X223963Y177185D01*
X223533D01*
X223135Y177020D01*
X222830Y176716D01*
X222665Y176318D01*
Y175887D01*
X222827Y175496D01*
X222830Y175489D01*
X222702Y175060D01*
X222576Y175029D01*
X221681Y175924D01*
Y176318D01*
X221516Y176716D01*
X221212Y177020D01*
X220814Y177185D01*
X220383D01*
X219985Y177020D01*
X219681Y176716D01*
X219516Y176318D01*
Y175887D01*
X219681Y175489D01*
X219985Y175185D01*
X220383Y175020D01*
X220777D01*
X222017Y173780D01*
X222423Y173612D01*
X222486Y173561D01*
X222678Y173199D01*
X222665Y173168D01*
Y172737D01*
X222830Y172339D01*
X223054Y172116D01*
X222945Y171741D01*
X222933Y171722D01*
X221413D01*
X221401Y171741D01*
X221292Y172116D01*
X221516Y172339D01*
X221681Y172737D01*
Y173168D01*
X221516Y173566D01*
X221212Y173871D01*
X220814Y174035D01*
X220383D01*
X219985Y173871D01*
X219681Y173566D01*
X219516Y173168D01*
Y172737D01*
X219678Y172346D01*
X219681Y172339D01*
X219553Y171911D01*
X219426Y171879D01*
X218531Y172774D01*
Y173168D01*
X218367Y173566D01*
X218062Y173871D01*
X217664Y174035D01*
X217233D01*
X216835Y173871D01*
X216531Y173566D01*
X216366Y173168D01*
Y172737D01*
X216531Y172339D01*
X216835Y172035D01*
X217233Y171870D01*
X217628D01*
X218867Y170631D01*
X219273Y170462D01*
X219336Y170411D01*
X219529Y170050D01*
X219516Y170018D01*
Y169588D01*
X219681Y169190D01*
X219904Y168966D01*
X219796Y168591D01*
X219784Y168572D01*
X218264D01*
X218251Y168591D01*
X218143Y168966D01*
X218367Y169190D01*
X218531Y169588D01*
Y170018D01*
X218367Y170416D01*
X218062Y170721D01*
X217664Y170886D01*
X217233D01*
X216835Y170721D01*
X216531Y170416D01*
X216366Y170018D01*
Y169588D01*
X216531Y169190D01*
X216755Y168966D01*
X216646Y168591D01*
X216634Y168572D01*
X215130D01*
X214993Y168966D01*
X215201Y169174D01*
X215366Y169572D01*
Y170003D01*
X215201Y170401D01*
X214897Y170705D01*
X214499Y170870D01*
X214068D01*
X213670Y170705D01*
X213366Y170401D01*
X213282Y170384D01*
X212132Y171535D01*
X211858Y171648D01*
X211817Y171815D01*
X211814Y172086D01*
X212067Y172339D01*
X212232Y172737D01*
Y173168D01*
X212067Y173566D01*
X211763Y173871D01*
X211365Y174035D01*
X210934D01*
X210536Y173871D01*
X210232Y173566D01*
X210067Y173168D01*
Y172737D01*
X210232Y172339D01*
X210456Y172116D01*
X210347Y171741D01*
X210335Y171722D01*
X206130D01*
X205678Y171535D01*
X205029Y170886D01*
X204635D01*
X204604Y170873D01*
X204210Y171136D01*
Y171620D01*
X204604Y171883D01*
X204635Y171870D01*
X205066D01*
X205464Y172035D01*
X205768Y172339D01*
X205933Y172737D01*
Y173168D01*
X205768Y173566D01*
X205464Y173871D01*
X205066Y174035D01*
X204635D01*
X204604Y174022D01*
X204243Y174215D01*
X204191Y174278D01*
X204023Y174684D01*
X202783Y175924D01*
Y176318D01*
X202619Y176716D01*
X202314Y177020D01*
X201916Y177185D01*
X201485D01*
X201087Y177020D01*
X200783Y176716D01*
X200618Y176318D01*
Y175887D01*
X200783Y175489D01*
X201087Y175185D01*
X201485Y175020D01*
X201880D01*
X202774Y174125D01*
X202743Y173998D01*
X202314Y173871D01*
X202307Y173873D01*
X201916Y174035D01*
X201485D01*
X201087Y173871D01*
X200783Y173566D01*
X200618Y173168D01*
Y172737D01*
X200783Y172339D01*
X201087Y172035D01*
X201485Y171870D01*
X201916D01*
X202314Y172035D01*
X202538Y172259D01*
X202913Y172150D01*
X202932Y172138D01*
Y167468D01*
X202913Y167456D01*
X202538Y167348D01*
X202314Y167571D01*
X201916Y167736D01*
X201485D01*
X201087Y167571D01*
X200783Y167267D01*
X200618Y166869D01*
Y166438D01*
X200783Y166040D01*
X201087Y165736D01*
X201485Y165571D01*
X201916D01*
X202314Y165736D01*
X202538Y165960D01*
X202913Y165851D01*
X202932Y165839D01*
Y164319D01*
X202913Y164307D01*
X202538Y164198D01*
X202314Y164422D01*
X201916Y164587D01*
X201485D01*
X201087Y164422D01*
X200977Y164312D01*
X200466Y164303D01*
X199356Y165413D01*
X199253Y165586D01*
X199342Y165914D01*
X199469Y166040D01*
X199634Y166438D01*
Y166869D01*
X199469Y167267D01*
X199164Y167571D01*
X198767Y167736D01*
X198336D01*
X197986Y167591D01*
X197774Y167672D01*
X197592Y167783D01*
Y168252D01*
X197405Y168703D01*
X196484Y169624D01*
Y170018D01*
X196319Y170416D01*
X196015Y170721D01*
X195617Y170886D01*
X195186D01*
X194870Y171103D01*
X194843Y171491D01*
X195223Y171870D01*
X195617D01*
X196015Y172035D01*
X196319Y172339D01*
X196484Y172737D01*
Y173168D01*
X196419Y173325D01*
X196681Y173718D01*
X196976D01*
X196976Y173718D01*
X197286Y173780D01*
X197604Y173553D01*
X197617Y173528D01*
X197468Y173168D01*
Y172737D01*
X197633Y172339D01*
X197938Y172035D01*
X198336Y171870D01*
X198767D01*
X199164Y172035D01*
X199469Y172339D01*
X199634Y172737D01*
Y173168D01*
X199469Y173566D01*
X199164Y173871D01*
X198767Y174035D01*
X198336D01*
X198079Y173929D01*
X197856Y174263D01*
X198613Y175020D01*
X198767D01*
X199164Y175185D01*
X199469Y175489D01*
X199634Y175887D01*
Y176318D01*
X199469Y176716D01*
X199164Y177020D01*
X198767Y177185D01*
X198336D01*
X197938Y177020D01*
X197633Y176716D01*
X197468Y176318D01*
Y176164D01*
X196641Y175337D01*
X190382D01*
X190120Y175731D01*
X190185Y175887D01*
Y176318D01*
X190020Y176716D01*
X189716Y177020D01*
X189318Y177185D01*
X188887D01*
X188489Y177020D01*
X188184Y176716D01*
X188020Y176318D01*
Y175887D01*
X188084Y175731D01*
X187822Y175337D01*
X187528D01*
X187218Y175275D01*
X186955Y175100D01*
X165365Y153509D01*
X145519D01*
X145485Y153592D01*
X145042Y154035D01*
X144463Y154275D01*
X143836D01*
X143258Y154035D01*
X142815Y153592D01*
X142575Y153013D01*
Y152387D01*
X142815Y151808D01*
X143258Y151365D01*
X143836Y151125D01*
X144463D01*
X145042Y151365D01*
X145485Y151808D01*
X145519Y151891D01*
X165700D01*
X165700Y151891D01*
X166010Y151952D01*
X166272Y152128D01*
X184643Y170498D01*
X184976Y170275D01*
X184870Y170018D01*
Y169588D01*
X185035Y169190D01*
X185339Y168885D01*
X185737Y168720D01*
X186168D01*
X186566Y168885D01*
X186871Y169190D01*
X187035Y169588D01*
Y170018D01*
X186871Y170416D01*
X186566Y170721D01*
X186168Y170886D01*
X185737D01*
X185481Y170780D01*
X185258Y171113D01*
X187603Y173458D01*
X187711Y173437D01*
X188020Y173152D01*
Y172722D01*
X188184Y172324D01*
X188489Y172019D01*
X188887Y171854D01*
X189318D01*
X189716Y172019D01*
X190020Y172324D01*
X190185Y172722D01*
Y173152D01*
X190114Y173325D01*
X190367Y173718D01*
X194122D01*
X194384Y173325D01*
X194319Y173168D01*
Y172774D01*
X193670Y172125D01*
X193483Y171673D01*
Y170634D01*
X193464Y170622D01*
X193089Y170513D01*
X192865Y170737D01*
X192467Y170902D01*
X192037D01*
X191639Y170737D01*
X191334Y170432D01*
X191169Y170034D01*
Y169604D01*
X191334Y169206D01*
X191639Y168901D01*
X192037Y168736D01*
X192467D01*
X192865Y168901D01*
X193089Y169125D01*
X193464Y169016D01*
X193483Y169004D01*
Y167468D01*
X193464Y167456D01*
X193089Y167348D01*
X192865Y167571D01*
X192467Y167736D01*
X192037D01*
X191639Y167571D01*
X191334Y167267D01*
X191321Y167236D01*
X190857Y167143D01*
X189742Y168258D01*
Y168911D01*
X190020Y169190D01*
X190185Y169588D01*
Y170018D01*
X190020Y170416D01*
X189716Y170721D01*
X189318Y170886D01*
X188887D01*
X188489Y170721D01*
X188184Y170416D01*
X188020Y170018D01*
Y169588D01*
X188184Y169190D01*
X188463Y168911D01*
Y167994D01*
X188650Y167542D01*
X194716Y161476D01*
X194553Y161083D01*
X194526D01*
X194128Y160918D01*
X193823Y160613D01*
X193658Y160215D01*
Y159785D01*
X193823Y159387D01*
X194128Y159082D01*
X194526Y158917D01*
X194956D01*
X195354Y159082D01*
X195659Y159387D01*
X195824Y159785D01*
Y160046D01*
X195892Y160123D01*
X196387Y160159D01*
X198880Y157666D01*
X199331Y157479D01*
X205224D01*
X205267Y157497D01*
X208791D01*
X209001Y157103D01*
X208825Y156677D01*
Y156439D01*
X199137Y146750D01*
X186895D01*
X179571Y154074D01*
Y154313D01*
X179331Y154892D01*
X178888Y155335D01*
X178309Y155575D01*
X177683D01*
X177104Y155335D01*
X176661Y154892D01*
X176421Y154313D01*
Y153687D01*
X176661Y153108D01*
X177104Y152665D01*
X177683Y152425D01*
X177922D01*
X185587Y144760D01*
X185966Y144507D01*
X186412Y144418D01*
X199620D01*
X200066Y144507D01*
X200445Y144760D01*
X210474Y154789D01*
X210713D01*
X211292Y155029D01*
X211735Y155472D01*
X211975Y156051D01*
Y156677D01*
X211799Y157103D01*
X212009Y157497D01*
X212699D01*
X216648Y153548D01*
X217100Y153361D01*
X252108D01*
X252387Y153082D01*
X252785Y152917D01*
X253215D01*
X253613Y153082D01*
X253918Y153387D01*
X254083Y153785D01*
Y154215D01*
X254070Y154247D01*
X254333Y154640D01*
X256456D01*
X256917Y154179D01*
Y153785D01*
X257082Y153387D01*
X257387Y153082D01*
X257785Y152917D01*
X258215D01*
X258613Y153082D01*
X258918Y153387D01*
X259083Y153785D01*
Y154215D01*
X258918Y154613D01*
X258613Y154918D01*
X258215Y155083D01*
X257821D01*
X257437Y155467D01*
X257600Y155861D01*
X260235D01*
X261917Y154179D01*
Y153785D01*
X262082Y153387D01*
X262387Y153082D01*
X262785Y152917D01*
X263215D01*
X263613Y153082D01*
X263918Y153387D01*
X263931Y153418D01*
X264357Y153548D01*
X264375Y153541D01*
X264809Y153361D01*
X267108D01*
X267387Y153082D01*
X267785Y152917D01*
X268215D01*
X268613Y153082D01*
X268918Y153387D01*
X269083Y153785D01*
Y154215D01*
X268918Y154613D01*
X268613Y154918D01*
X268215Y155083D01*
X267785D01*
X267387Y154918D01*
X267108Y154639D01*
X265074D01*
X261541Y158173D01*
X261089Y158360D01*
X259333D01*
X259070Y158753D01*
X259083Y158785D01*
Y159215D01*
X258918Y159613D01*
X258613Y159918D01*
X258215Y160083D01*
X257785D01*
X257387Y159918D01*
X257108Y159639D01*
X255074D01*
X253982Y160731D01*
X253530Y160919D01*
X241688D01*
X240325Y162282D01*
X240343Y162820D01*
X240414Y162891D01*
X240579Y163289D01*
Y163719D01*
X240414Y164117D01*
X240190Y164341D01*
X240299Y164716D01*
X240311Y164735D01*
X251706D01*
X251969Y164341D01*
X251917Y164215D01*
Y163785D01*
X252082Y163387D01*
X252387Y163082D01*
X252785Y162917D01*
X253215D01*
X253613Y163082D01*
X253918Y163387D01*
X253931Y163418D01*
X254358Y163548D01*
X254375Y163541D01*
X254809Y163361D01*
X257108D01*
X257387Y163082D01*
X257785Y162917D01*
X258215D01*
X258613Y163082D01*
X258918Y163387D01*
X258931Y163418D01*
X259358Y163548D01*
X259375Y163541D01*
X259809Y163361D01*
X262108D01*
X262387Y163082D01*
X262785Y162917D01*
X263215D01*
X263613Y163082D01*
X263918Y163387D01*
X264083Y163785D01*
Y164215D01*
X263918Y164613D01*
X263613Y164918D01*
X263215Y165083D01*
X262785D01*
X262387Y164918D01*
X262108Y164639D01*
X260074D01*
X256541Y168173D01*
X256089Y168360D01*
X254333D01*
X254070Y168753D01*
X254083Y168785D01*
Y169215D01*
X253918Y169613D01*
X253613Y169918D01*
X253215Y170083D01*
X252785D01*
X252387Y169918D01*
X252108Y169639D01*
X242373D01*
X240478Y171535D01*
X240204Y171648D01*
X240163Y171815D01*
X240160Y172086D01*
X240414Y172339D01*
X240427Y172371D01*
X240891Y172463D01*
X241086Y172268D01*
X241538Y172081D01*
X265824D01*
X267510Y170395D01*
X267418Y169931D01*
X267387Y169918D01*
X267082Y169613D01*
X266917Y169215D01*
Y168785D01*
X267082Y168387D01*
X267387Y168082D01*
X267785Y167917D01*
X268215D01*
X268613Y168082D01*
X268918Y168387D01*
X268931Y168418D01*
X269357Y168548D01*
X269375Y168541D01*
X269810Y168361D01*
X272108D01*
X272387Y168082D01*
X272785Y167917D01*
X273215D01*
X273613Y168082D01*
X273918Y168387D01*
X274083Y168785D01*
Y169215D01*
X273918Y169613D01*
X273613Y169918D01*
X273215Y170083D01*
X272785D01*
X272387Y169918D01*
X272108Y169639D01*
X270074D01*
X266541Y173172D01*
X266089Y173360D01*
X264333D01*
X264070Y173753D01*
X264083Y173785D01*
Y174215D01*
X263918Y174613D01*
X263613Y174918D01*
X263215Y175083D01*
X262785D01*
X262387Y174918D01*
X262108Y174639D01*
X260074D01*
X256880Y177834D01*
X256428Y178021D01*
X254109D01*
X253918Y178387D01*
X254083Y178785D01*
Y179215D01*
X253918Y179613D01*
X253613Y179918D01*
X253215Y180083D01*
X252785D01*
X252387Y179918D01*
X252082Y179613D01*
X251917Y179215D01*
Y178785D01*
X252082Y178387D01*
X251891Y178021D01*
X237161D01*
X237149Y178040D01*
X237040Y178415D01*
X237264Y178639D01*
X237429Y179037D01*
Y179467D01*
X237264Y179865D01*
X237040Y180089D01*
X237149Y180464D01*
X237161Y180483D01*
X291932D01*
X292384Y180670D01*
X295074Y183361D01*
X297108D01*
X297387Y183082D01*
X297785Y182917D01*
X298215D01*
X298613Y183082D01*
X298918Y183387D01*
X299083Y183785D01*
Y184215D01*
X298918Y184613D01*
X298613Y184918D01*
X298215Y185083D01*
X297785D01*
X297387Y184918D01*
X297108Y184639D01*
X294810D01*
X294375Y184459D01*
X294357Y184452D01*
X293931Y184582D01*
X293918Y184613D01*
X293613Y184918D01*
X293215Y185083D01*
X292785D01*
X292387Y184918D01*
X292082Y184613D01*
X291917Y184215D01*
Y183785D01*
X292082Y183387D01*
X292387Y183082D01*
X292418Y183069D01*
X292510Y182605D01*
X291667Y181761D01*
X237679D01*
X237416Y182155D01*
X237429Y182186D01*
Y182617D01*
X237284Y182967D01*
X237364Y183178D01*
X237475Y183361D01*
X252108D01*
X252387Y183082D01*
X252785Y182917D01*
X253215D01*
X253613Y183082D01*
X253918Y183387D01*
X254083Y183785D01*
Y184215D01*
X253918Y184613D01*
X253613Y184918D01*
X253215Y185083D01*
X252785D01*
X252387Y184918D01*
X252108Y184639D01*
X246724D01*
X246495Y185033D01*
X246583Y185245D01*
Y185676D01*
X246418Y186074D01*
X246113Y186379D01*
X246089Y186388D01*
X246168Y186782D01*
X256421D01*
X256873Y186969D01*
X257821Y187917D01*
X258215D01*
X258613Y188082D01*
X258918Y188387D01*
X258931Y188418D01*
X259395Y188510D01*
X260637Y187268D01*
X261089Y187081D01*
X296721D01*
X297172Y187268D01*
X297821Y187917D01*
X298215D01*
X298613Y188082D01*
X298918Y188387D01*
X299083Y188785D01*
Y189215D01*
X298918Y189613D01*
X298613Y189918D01*
X298215Y190083D01*
X297785D01*
X297387Y189918D01*
X297082Y189613D01*
X296917Y189215D01*
Y188821D01*
X296456Y188360D01*
X294333D01*
X294070Y188753D01*
X294083Y188785D01*
Y189215D01*
X293918Y189613D01*
X293613Y189918D01*
X293215Y190083D01*
X292785D01*
X292387Y189918D01*
X292082Y189613D01*
X291917Y189215D01*
Y188785D01*
X291930Y188753D01*
X291667Y188360D01*
X289333D01*
X289070Y188753D01*
X289083Y188785D01*
Y189215D01*
X288918Y189613D01*
X288613Y189918D01*
X288215Y190083D01*
X287785D01*
X287387Y189918D01*
X287082Y189613D01*
X286917Y189215D01*
Y188785D01*
X286930Y188753D01*
X286667Y188360D01*
X284333D01*
X284070Y188753D01*
X284083Y188785D01*
Y189215D01*
X283918Y189613D01*
X283613Y189918D01*
X283215Y190083D01*
X282785D01*
X282387Y189918D01*
X282082Y189613D01*
X281917Y189215D01*
Y188785D01*
X281930Y188753D01*
X281667Y188360D01*
X279333D01*
X279070Y188753D01*
X279083Y188785D01*
Y189215D01*
X278918Y189613D01*
X278613Y189918D01*
X278215Y190083D01*
X277785D01*
X277387Y189918D01*
X277082Y189613D01*
X276917Y189215D01*
Y188785D01*
X276930Y188753D01*
X276667Y188360D01*
X274333D01*
X274070Y188753D01*
X274083Y188785D01*
Y189215D01*
X273918Y189613D01*
X273613Y189918D01*
X273215Y190083D01*
X272785D01*
X272387Y189918D01*
X272082Y189613D01*
X271917Y189215D01*
Y188785D01*
X271930Y188753D01*
X271667Y188360D01*
X269333D01*
X269070Y188753D01*
X269083Y188785D01*
Y189215D01*
X268918Y189613D01*
X268613Y189918D01*
X268215Y190083D01*
X267785D01*
X267387Y189918D01*
X267108Y189639D01*
X265074D01*
X261541Y193173D01*
X261089Y193360D01*
X259333D01*
X259070Y193753D01*
X259083Y193785D01*
Y194215D01*
X258918Y194613D01*
X258613Y194918D01*
X258215Y195083D01*
X257785D01*
X257387Y194918D01*
X257082Y194613D01*
X256917Y194215D01*
Y193785D01*
X256930Y193753D01*
X256667Y193360D01*
X254333D01*
X254070Y193753D01*
X254083Y193785D01*
Y194215D01*
X253918Y194613D01*
X253613Y194918D01*
X253215Y195083D01*
X252785D01*
X252387Y194918D01*
X252082Y194613D01*
X251917Y194215D01*
Y193785D01*
X251930Y193753D01*
X251667Y193360D01*
X240700D01*
X238903Y195157D01*
X238451Y195344D01*
X237848D01*
X237248Y195944D01*
X236796Y196131D01*
X221711D01*
X221088Y196754D01*
X221181Y197219D01*
X221212Y197232D01*
X221516Y197536D01*
X221681Y197934D01*
Y198365D01*
X221516Y198763D01*
X221212Y199067D01*
X220814Y199232D01*
X220383D01*
X220352Y199219D01*
X219958Y199482D01*
Y199966D01*
X220352Y200230D01*
X220383Y200217D01*
X220814D01*
X221212Y200381D01*
X221516Y200686D01*
X221681Y201084D01*
Y201515D01*
X221516Y201912D01*
X221212Y202217D01*
X220814Y202382D01*
X220383D01*
X220352Y202369D01*
X219958Y202632D01*
Y203116D01*
X220352Y203379D01*
X220383Y203366D01*
X220814D01*
X221212Y203531D01*
X221516Y203836D01*
X221681Y204234D01*
Y204664D01*
X221516Y205062D01*
X221212Y205367D01*
X220814Y205532D01*
X220383D01*
X220067Y205748D01*
X220040Y206136D01*
X220420Y206516D01*
X220814D01*
X221212Y206681D01*
X221516Y206985D01*
X221681Y207383D01*
Y207814D01*
X221553Y208124D01*
X221676Y208407D01*
X221767Y208518D01*
X222579D01*
X222670Y208407D01*
X222794Y208124D01*
X222665Y207814D01*
Y207383D01*
X222830Y206985D01*
X223135Y206681D01*
X223533Y206516D01*
X223963D01*
X224361Y206681D01*
X224666Y206985D01*
X224831Y207383D01*
Y207814D01*
X224702Y208124D01*
X224826Y208407D01*
X224917Y208518D01*
X228878D01*
X228969Y208407D01*
X229093Y208124D01*
X228965Y207814D01*
Y207383D01*
X229129Y206985D01*
X229434Y206681D01*
X229832Y206516D01*
X230226D01*
X231465Y205276D01*
X231872Y205108D01*
X231935Y205057D01*
X232127Y204695D01*
X232114Y204664D01*
Y204234D01*
X232162Y204118D01*
X231959Y203686D01*
X231904Y203670D01*
X231708Y203692D01*
X231130Y204270D01*
Y204664D01*
X230965Y205062D01*
X230661Y205367D01*
X230263Y205532D01*
X229832D01*
X229434Y205367D01*
X229129Y205062D01*
X228965Y204664D01*
Y204234D01*
X229129Y203836D01*
X229434Y203531D01*
X229832Y203366D01*
X230226D01*
X231164Y202428D01*
X231616Y202241D01*
X232051D01*
X232152Y202096D01*
X232252Y201847D01*
X232114Y201515D01*
Y201084D01*
X232127Y201053D01*
X231864Y200659D01*
X231380D01*
X231117Y201053D01*
X231130Y201084D01*
Y201515D01*
X230965Y201912D01*
X230661Y202217D01*
X230263Y202382D01*
X229832D01*
X229434Y202217D01*
X229334Y202118D01*
X228941Y202281D01*
Y203045D01*
X228754Y203497D01*
X227980Y204270D01*
Y204664D01*
X227816Y205062D01*
X227511Y205367D01*
X227113Y205532D01*
X226682D01*
X226284Y205367D01*
X225980Y205062D01*
X225815Y204664D01*
Y204234D01*
X225980Y203836D01*
X226284Y203531D01*
X226682Y203366D01*
X227076D01*
X227520Y202923D01*
X227495Y202606D01*
X227129Y202375D01*
X227113Y202382D01*
X226682D01*
X226284Y202217D01*
X225980Y201912D01*
X225815Y201515D01*
Y201084D01*
X225980Y200686D01*
X226284Y200381D01*
X226682Y200217D01*
X227113D01*
X227511Y200381D01*
X227816Y200686D01*
X227925Y200708D01*
X229065Y199568D01*
X229339Y199454D01*
X229380Y199287D01*
X229383Y199017D01*
X229129Y198763D01*
X228965Y198365D01*
Y197934D01*
X229129Y197536D01*
X229434Y197232D01*
X229832Y197067D01*
X230263D01*
X230661Y197232D01*
X230965Y197536D01*
X231130Y197934D01*
Y198365D01*
X230965Y198763D01*
X230741Y198987D01*
X230850Y199362D01*
X230862Y199381D01*
X232382D01*
X232394Y199362D01*
X232503Y198987D01*
X232279Y198763D01*
X232114Y198365D01*
Y197934D01*
X232279Y197536D01*
X232584Y197232D01*
X232981Y197067D01*
X233412D01*
X233810Y197232D01*
X234115Y197536D01*
X234279Y197934D01*
Y198365D01*
X234115Y198763D01*
X233891Y198987D01*
X233999Y199362D01*
X234012Y199381D01*
X235532D01*
X235544Y199362D01*
X235652Y198987D01*
X235429Y198763D01*
X235264Y198365D01*
Y197934D01*
X235429Y197536D01*
X235733Y197232D01*
X236131Y197067D01*
X236562D01*
X236960Y197232D01*
X237264Y197536D01*
X237429Y197934D01*
Y198365D01*
X237264Y198763D01*
X237040Y198987D01*
X237149Y199362D01*
X237161Y199381D01*
X251807D01*
X251917Y199215D01*
Y198785D01*
X252082Y198387D01*
X252387Y198082D01*
X252785Y197917D01*
X253215D01*
X253613Y198082D01*
X253918Y198387D01*
X254083Y198785D01*
Y199215D01*
X254070Y199247D01*
X254333Y199640D01*
X256667D01*
X256930Y199247D01*
X256917Y199215D01*
Y198785D01*
X257082Y198387D01*
X257387Y198082D01*
X257785Y197917D01*
X258215D01*
X258613Y198082D01*
X258918Y198387D01*
X259083Y198785D01*
Y199215D01*
X259070Y199247D01*
X259333Y199640D01*
X281667D01*
X281930Y199247D01*
X281917Y199215D01*
Y198785D01*
X282082Y198387D01*
X282387Y198082D01*
X282785Y197917D01*
X283215D01*
X283613Y198082D01*
X283918Y198387D01*
X284083Y198785D01*
Y199215D01*
X284070Y199247D01*
X284333Y199640D01*
X286667D01*
X286930Y199247D01*
X286917Y199215D01*
Y198785D01*
X287082Y198387D01*
X287387Y198082D01*
X287785Y197917D01*
X288215D01*
X288613Y198082D01*
X288918Y198387D01*
X289083Y198785D01*
Y199215D01*
X289070Y199247D01*
X289333Y199640D01*
X291456D01*
X291917Y199179D01*
Y198785D01*
X292082Y198387D01*
X292387Y198082D01*
X292785Y197917D01*
X293215D01*
X293613Y198082D01*
X293918Y198387D01*
X293931Y198418D01*
X294357Y198548D01*
X294375Y198541D01*
X294810Y198361D01*
X297108D01*
X297387Y198082D01*
X297785Y197917D01*
X298215D01*
X298613Y198082D01*
X298918Y198387D01*
X299083Y198785D01*
Y199215D01*
X298918Y199613D01*
X298613Y199918D01*
X298215Y200083D01*
X297785D01*
X297387Y199918D01*
X297108Y199639D01*
X295074D01*
X292761Y201952D01*
X292309Y202139D01*
X272600D01*
X272437Y202533D01*
X272821Y202917D01*
X273215D01*
X273613Y203082D01*
X273918Y203387D01*
X274083Y203785D01*
Y204215D01*
X273918Y204613D01*
X273613Y204918D01*
X273215Y205083D01*
X272785D01*
X272387Y204918D01*
X272082Y204613D01*
X271917Y204215D01*
Y203821D01*
X271456Y203360D01*
X269333D01*
X269070Y203753D01*
X269083Y203785D01*
Y204215D01*
X268918Y204613D01*
X268613Y204918D01*
X268215Y205083D01*
X267785D01*
X267387Y204918D01*
X267082Y204613D01*
X266917Y204215D01*
Y203785D01*
X266930Y203753D01*
X266667Y203360D01*
X264333D01*
X264070Y203753D01*
X264083Y203785D01*
Y204215D01*
X263918Y204613D01*
X263613Y204918D01*
X263215Y205083D01*
X262785D01*
X262387Y204918D01*
X262082Y204613D01*
X261917Y204215D01*
Y203785D01*
X261930Y203753D01*
X261667Y203360D01*
X259333D01*
X259070Y203753D01*
X259083Y203785D01*
Y204215D01*
X258918Y204613D01*
X258613Y204918D01*
X258215Y205083D01*
X257785D01*
X257387Y204918D01*
X257082Y204613D01*
X256917Y204215D01*
Y203785D01*
X256930Y203753D01*
X256667Y203360D01*
X254333D01*
X254070Y203753D01*
X254083Y203785D01*
Y204215D01*
X253918Y204613D01*
X253613Y204918D01*
X253215Y205083D01*
X252785D01*
X252387Y204918D01*
X252082Y204613D01*
X251917Y204215D01*
Y203785D01*
X251930Y203753D01*
X251667Y203360D01*
X243299D01*
X240478Y206180D01*
X240204Y206294D01*
X240163Y206461D01*
X240160Y206731D01*
X240414Y206985D01*
X240442Y207052D01*
X240666Y207136D01*
X240913Y207160D01*
X241061Y207061D01*
X241312Y207011D01*
X242927D01*
X242931Y206999D01*
X242943Y206994D01*
Y205202D01*
X242932D01*
X243027Y204722D01*
X243299Y204316D01*
X243705Y204044D01*
X243932Y203999D01*
X243941Y203997D01*
X243941Y203997D01*
X244185Y203949D01*
X244315D01*
D01*
X244794Y204044D01*
X245200Y204316D01*
X245472Y204722D01*
X245523Y204980D01*
X245709Y205053D01*
X245948Y205095D01*
X246305Y204856D01*
X246532Y204811D01*
X246541Y204809D01*
X246541Y204809D01*
X246785Y204760D01*
X246915D01*
D01*
X247394Y204856D01*
X247800Y205127D01*
X248072Y205534D01*
X248167Y206013D01*
X248156D01*
Y206994D01*
X248168Y206999D01*
X248173Y207011D01*
X293552D01*
X293803Y207061D01*
X294016Y207203D01*
X296156Y209343D01*
X296298Y209556D01*
X296348Y209807D01*
Y221420D01*
X297846Y222917D01*
X298215D01*
X298613Y223082D01*
X298918Y223387D01*
X299083Y223785D01*
Y224215D01*
X298918Y224613D01*
X298613Y224918D01*
X298215Y225083D01*
X297785D01*
X297387Y224918D01*
X297082Y224613D01*
X296917Y224215D01*
Y223846D01*
X295228Y222156D01*
X295086Y221943D01*
X295036Y221692D01*
Y210079D01*
X293280Y208324D01*
X289318D01*
X289055Y208717D01*
X289083Y208785D01*
Y209215D01*
X288918Y209613D01*
X288613Y209918D01*
X288215Y210083D01*
X287785D01*
X287387Y209918D01*
X287082Y209613D01*
X286917Y209215D01*
Y208785D01*
X286945Y208717D01*
X286682Y208324D01*
X284318D01*
X284055Y208717D01*
X284083Y208785D01*
Y209215D01*
X283918Y209613D01*
X283613Y209918D01*
X283215Y210083D01*
X282785D01*
X282387Y209918D01*
X282082Y209613D01*
X281917Y209215D01*
Y208785D01*
X281945Y208717D01*
X281682Y208324D01*
X279318D01*
X279055Y208717D01*
X279083Y208785D01*
Y209215D01*
X278918Y209613D01*
X278613Y209918D01*
X278215Y210083D01*
X277785D01*
X277387Y209918D01*
X277082Y209613D01*
X276917Y209215D01*
Y208785D01*
X276945Y208717D01*
X276682Y208324D01*
X274318D01*
X274055Y208717D01*
X274083Y208785D01*
Y209215D01*
X273918Y209613D01*
X273613Y209918D01*
X273215Y210083D01*
X272785D01*
X272387Y209918D01*
X272082Y209613D01*
X271917Y209215D01*
Y208785D01*
X271945Y208717D01*
X271682Y208324D01*
X269318D01*
X269055Y208717D01*
X269083Y208785D01*
Y209215D01*
X268918Y209613D01*
X268613Y209918D01*
X268215Y210083D01*
X267785D01*
X267387Y209918D01*
X267082Y209613D01*
X266917Y209215D01*
Y208785D01*
X266945Y208717D01*
X266682Y208324D01*
X264318D01*
X264055Y208717D01*
X264083Y208785D01*
Y209215D01*
X263918Y209613D01*
X263613Y209918D01*
X263215Y210083D01*
X262785D01*
X262387Y209918D01*
X262082Y209613D01*
X261917Y209215D01*
Y208785D01*
X261945Y208717D01*
X261682Y208324D01*
X259318D01*
X259055Y208717D01*
X259083Y208785D01*
Y209215D01*
X258918Y209613D01*
X258613Y209918D01*
X258215Y210083D01*
X257785D01*
X257387Y209918D01*
X257082Y209613D01*
X256917Y209215D01*
Y208785D01*
X256945Y208717D01*
X256682Y208324D01*
X254318D01*
X254055Y208717D01*
X254083Y208785D01*
Y209215D01*
X253918Y209613D01*
X253613Y209918D01*
X253215Y210083D01*
X252785D01*
X252387Y209918D01*
X252082Y209613D01*
X251917Y209215D01*
Y208785D01*
X251945Y208717D01*
X251682Y208324D01*
X248085D01*
Y208335D01*
X247605Y208240D01*
X247199Y207968D01*
X247086Y207800D01*
X246613D01*
X246500Y207968D01*
X246428Y208490D01*
X246505Y208605D01*
X246568Y208922D01*
X246619Y209045D01*
Y209425D01*
X246647Y209450D01*
X247013Y209599D01*
X247271Y209427D01*
X247587Y209364D01*
X247711Y209313D01*
X247830D01*
X247954Y209364D01*
X248270Y209427D01*
X248643Y209676D01*
X248892Y210049D01*
X248955Y210366D01*
X249007Y210489D01*
Y210542D01*
X266991D01*
X267443Y210729D01*
X278452Y221739D01*
X278639Y222190D01*
Y223108D01*
X278918Y223387D01*
X278946Y223454D01*
X279410Y223546D01*
X282536Y220421D01*
Y218808D01*
X282586Y218557D01*
X282728Y218344D01*
X282973Y218083D01*
X282973Y218083D01*
X283379Y217811D01*
X283627Y217762D01*
X283856Y217368D01*
X283797Y217185D01*
X283525Y216778D01*
X283430Y216299D01*
X283525Y215820D01*
X283797Y215413D01*
X283797Y215413D01*
X283889Y215321D01*
X284295Y215050D01*
X284774Y214954D01*
X285254Y215050D01*
X285660Y215321D01*
X285965Y215107D01*
X286256Y214815D01*
X286256Y214815D01*
X286917Y214155D01*
Y213785D01*
X287082Y213387D01*
X287387Y213082D01*
X287785Y212917D01*
X288215D01*
X288613Y213082D01*
X288918Y213387D01*
X289083Y213785D01*
Y214215D01*
X288918Y214613D01*
X288613Y214918D01*
X288215Y215083D01*
X287845D01*
X287185Y215744D01*
X287185Y215744D01*
X286575Y216353D01*
X286583Y216361D01*
X286177Y216633D01*
X285757Y216716D01*
X285648Y216907D01*
X285593Y217109D01*
X286439Y217955D01*
X286726Y218225D01*
X286726Y218225D01*
X286744Y218252D01*
X287217Y218252D01*
X287387Y218082D01*
X287785Y217917D01*
X288215D01*
X288613Y218082D01*
X288918Y218387D01*
X288946Y218454D01*
X289410Y218546D01*
X292344Y215613D01*
Y214875D01*
X292082Y214613D01*
X291917Y214215D01*
Y213785D01*
X292082Y213387D01*
X292387Y213082D01*
X292785Y212917D01*
X293215D01*
X293613Y213082D01*
X293918Y213387D01*
X294083Y213785D01*
Y214215D01*
X293918Y214613D01*
X293656Y214875D01*
Y215885D01*
X293606Y216136D01*
X293464Y216349D01*
X283229Y226584D01*
X283179Y226617D01*
X283298Y227011D01*
X284061D01*
X286917Y224154D01*
Y223785D01*
X287082Y223387D01*
X287387Y223082D01*
X287785Y222917D01*
X288215D01*
X288613Y223082D01*
X288918Y223387D01*
X289083Y223785D01*
Y224215D01*
X288918Y224613D01*
X288613Y224918D01*
X288215Y225083D01*
X287845D01*
X284797Y228131D01*
X284584Y228274D01*
X284333Y228324D01*
X284318D01*
X284055Y228717D01*
X284083Y228785D01*
Y229215D01*
X283918Y229613D01*
X283613Y229918D01*
X283215Y230083D01*
X282785D01*
X282387Y229918D01*
X282082Y229613D01*
X281917Y229215D01*
Y228785D01*
X281945Y228717D01*
X281682Y228324D01*
X279614D01*
X277154Y230783D01*
X277157Y230841D01*
X277280Y231177D01*
X286883D01*
X287619Y230440D01*
X287527Y229976D01*
X287387Y229918D01*
X287082Y229613D01*
X286917Y229215D01*
Y228785D01*
X287082Y228387D01*
X287387Y228082D01*
X287785Y227917D01*
X288215D01*
X288613Y228082D01*
X288918Y228387D01*
X288976Y228527D01*
X289440Y228619D01*
X290547Y227512D01*
Y225975D01*
X290597Y225724D01*
X290739Y225511D01*
X291952Y224299D01*
X291917Y224215D01*
Y223785D01*
X292082Y223387D01*
X292387Y223082D01*
X292785Y222917D01*
X293215D01*
X293613Y223082D01*
X293918Y223387D01*
X294083Y223785D01*
Y224215D01*
X293918Y224613D01*
X293613Y224918D01*
X293215Y225083D01*
X293024D01*
X291860Y226247D01*
Y227784D01*
X291810Y228035D01*
X291668Y228248D01*
X287619Y232297D01*
X287406Y232440D01*
X287155Y232490D01*
X253069D01*
X253063Y232493D01*
X253046Y232524D01*
X253186Y232850D01*
X253268Y232939D01*
X253613Y233082D01*
X253918Y233387D01*
X254083Y233785D01*
Y234215D01*
X254070Y234247D01*
X254333Y234640D01*
X256456D01*
X256917Y234179D01*
Y233785D01*
X257082Y233387D01*
X257387Y233082D01*
X257785Y232917D01*
X258215D01*
X258613Y233082D01*
X258918Y233387D01*
X259083Y233785D01*
Y234215D01*
X258918Y234613D01*
X258613Y234918D01*
X258333Y235034D01*
X258411Y235428D01*
X260668D01*
X261917Y234179D01*
Y233785D01*
X262082Y233387D01*
X262387Y233082D01*
X262785Y232917D01*
X263215D01*
X263613Y233082D01*
X263918Y233387D01*
X264083Y233785D01*
Y234215D01*
X263918Y234613D01*
X263613Y234918D01*
X263215Y235083D01*
X262821D01*
X262053Y235851D01*
X262203Y236215D01*
X264881D01*
X266917Y234179D01*
Y233785D01*
X267082Y233387D01*
X267387Y233082D01*
X267785Y232917D01*
X268215D01*
X268613Y233082D01*
X268918Y233387D01*
X269083Y233785D01*
Y234215D01*
X268918Y234613D01*
X268613Y234918D01*
X268215Y235083D01*
X267821D01*
X265598Y237306D01*
X265146Y237493D01*
X191352D01*
X190900Y237306D01*
X181072Y227478D01*
X180958Y227204D01*
X180791Y227163D01*
X180521Y227160D01*
X180267Y227414D01*
X180236Y227427D01*
X180143Y227891D01*
X191892Y239640D01*
X251667D01*
X251930Y239247D01*
X251917Y239215D01*
Y238785D01*
X252082Y238387D01*
X252387Y238082D01*
X252785Y237917D01*
X253215D01*
X253613Y238082D01*
X253918Y238387D01*
X254083Y238785D01*
Y239215D01*
X254070Y239247D01*
X254333Y239640D01*
X256667D01*
X256930Y239247D01*
X256917Y239215D01*
Y238785D01*
X257082Y238387D01*
X257387Y238082D01*
X257785Y237917D01*
X258215D01*
X258613Y238082D01*
X258918Y238387D01*
X259083Y238785D01*
Y239215D01*
X259070Y239247D01*
X259333Y239640D01*
X261667D01*
X261930Y239247D01*
X261917Y239215D01*
Y238785D01*
X262082Y238387D01*
X262387Y238082D01*
X262785Y237917D01*
X263215D01*
X263613Y238082D01*
X263918Y238387D01*
X264083Y238785D01*
Y239215D01*
X264070Y239247D01*
X264333Y239640D01*
X266667D01*
X266930Y239247D01*
X266917Y239215D01*
Y238785D01*
X267082Y238387D01*
X267387Y238082D01*
X267785Y237917D01*
X268215D01*
X268613Y238082D01*
X268918Y238387D01*
X268931Y238418D01*
X269395Y238510D01*
X272510Y235395D01*
X272418Y234931D01*
X272387Y234918D01*
X272082Y234613D01*
X271917Y234215D01*
Y233785D01*
X272082Y233387D01*
X272387Y233082D01*
X272785Y232917D01*
X273215D01*
X273613Y233082D01*
X273918Y233387D01*
X273931Y233418D01*
X274358Y233548D01*
X274375Y233541D01*
X274810Y233361D01*
X277108D01*
X277387Y233082D01*
X277785Y232917D01*
X278215D01*
X278613Y233082D01*
X278918Y233387D01*
X279083Y233785D01*
Y234215D01*
X278918Y234613D01*
X278613Y234918D01*
X278215Y235083D01*
X277785D01*
X277387Y234918D01*
X277108Y234639D01*
X275074D01*
X268982Y240732D01*
X268530Y240919D01*
X206716D01*
X206478Y241312D01*
X206559Y241509D01*
Y241940D01*
X206546Y241971D01*
X206809Y242365D01*
X270541D01*
X272510Y240395D01*
X272418Y239931D01*
X272387Y239918D01*
X272082Y239613D01*
X271917Y239215D01*
Y238785D01*
X272082Y238387D01*
X272387Y238082D01*
X272785Y237917D01*
X273215D01*
X273613Y238082D01*
X273918Y238387D01*
X273931Y238418D01*
X274395Y238510D01*
X275637Y237268D01*
X276089Y237081D01*
X279015D01*
X281917Y234179D01*
Y233785D01*
X282082Y233387D01*
X282387Y233082D01*
X282785Y232917D01*
X283215D01*
X283613Y233082D01*
X283918Y233387D01*
X284083Y233785D01*
Y234215D01*
X283918Y234613D01*
X283613Y234918D01*
X283215Y235083D01*
X282821D01*
X279731Y238173D01*
X279325Y238341D01*
X279262Y238392D01*
X279070Y238753D01*
X279083Y238785D01*
Y239215D01*
X278918Y239613D01*
X278613Y239918D01*
X278215Y240083D01*
X277785D01*
X277387Y239918D01*
X277082Y239613D01*
X276917Y239215D01*
Y238785D01*
X276930Y238753D01*
X276717Y238434D01*
X276306Y238408D01*
X271258Y243456D01*
X270806Y243643D01*
D02*
G37*
G36*
X298215Y230083D02*
X297785D01*
X297387Y229918D01*
X297082Y229613D01*
X296917Y229215D01*
Y228785D01*
X297082Y228387D01*
X297387Y228082D01*
X297785Y227917D01*
X298215D01*
X298613Y228082D01*
X298918Y228387D01*
X299083Y228785D01*
Y229215D01*
X298918Y229613D01*
X298613Y229918D01*
X298215Y230083D01*
D02*
G37*
G36*
X293215D02*
X292785D01*
X292387Y229918D01*
X292082Y229613D01*
X291917Y229215D01*
Y228785D01*
X292082Y228387D01*
X292387Y228082D01*
X292785Y227917D01*
X293215D01*
X293613Y228082D01*
X293918Y228387D01*
X294083Y228785D01*
Y229215D01*
X293918Y229613D01*
X293613Y229918D01*
X293215Y230083D01*
D02*
G37*
G36*
X151292Y228807D02*
X150861D01*
X150463Y228642D01*
X150159Y228338D01*
X149994Y227940D01*
Y227509D01*
X150159Y227111D01*
X150463Y226807D01*
X150861Y226642D01*
X151292D01*
X151690Y226807D01*
X151994Y227111D01*
X152159Y227509D01*
Y227940D01*
X151994Y228338D01*
X151690Y228642D01*
X151292Y228807D01*
D02*
G37*
G36*
X122515Y226268D02*
X122085D01*
X121687Y226103D01*
X121382Y225798D01*
X121217Y225400D01*
Y224970D01*
X121382Y224572D01*
X121687Y224267D01*
X122085Y224102D01*
X122515D01*
X122913Y224267D01*
X122920Y224274D01*
X146859D01*
X149799Y221333D01*
X149576Y221000D01*
X149566Y221004D01*
X149135D01*
X148737Y220839D01*
X148433Y220534D01*
X148268Y220137D01*
Y219706D01*
X148433Y219308D01*
X148737Y219003D01*
X149135Y218839D01*
X149566D01*
X149964Y219003D01*
X150268Y219308D01*
X150433Y219706D01*
Y220137D01*
X150429Y220147D01*
X150762Y220370D01*
X151417Y219715D01*
Y219706D01*
X151582Y219308D01*
X151887Y219003D01*
X152285Y218839D01*
X152438D01*
X153195Y218082D01*
X152972Y217748D01*
X152715Y217854D01*
X152285D01*
X151887Y217689D01*
X151582Y217385D01*
X151417Y216987D01*
Y216556D01*
X151582Y216158D01*
X151887Y215854D01*
X152285Y215689D01*
X152715D01*
X153113Y215854D01*
X153418Y216158D01*
X153583Y216556D01*
Y216987D01*
X153476Y217244D01*
X153810Y217467D01*
X154840Y216436D01*
Y211194D01*
X154732Y211086D01*
X154567Y210688D01*
Y210257D01*
X154732Y209859D01*
X155036Y209555D01*
X155434Y209390D01*
X155865D01*
X156263Y209555D01*
X156567Y209859D01*
X156732Y210257D01*
Y210688D01*
X156567Y211086D01*
X156459Y211194D01*
Y216772D01*
X156397Y217081D01*
X156222Y217344D01*
X153583Y219983D01*
Y220137D01*
X153418Y220534D01*
X153113Y220839D01*
X152715Y221004D01*
X152706D01*
X147880Y225829D01*
X147585Y226027D01*
X147236Y226096D01*
X122920D01*
X122913Y226103D01*
X122515Y226268D01*
D02*
G37*
G36*
X178376Y235081D02*
X177750D01*
X177171Y234841D01*
X176728Y234398D01*
X176488Y233819D01*
Y233220D01*
X170538Y227269D01*
X170340Y226974D01*
X170271Y226625D01*
Y204957D01*
X170340Y204608D01*
X170538Y204313D01*
X170618Y204233D01*
X170526Y203768D01*
X170463Y203742D01*
X170159Y203438D01*
X169994Y203040D01*
Y202609D01*
X170159Y202211D01*
X170463Y201907D01*
X170861Y201742D01*
X171292D01*
X171690Y201907D01*
X171994Y202211D01*
X172384Y202211D01*
X172573Y202072D01*
X172611Y202013D01*
X172673Y201701D01*
X172871Y201405D01*
X175204Y199072D01*
X175500Y198875D01*
X175848Y198805D01*
X181480D01*
X181743Y198412D01*
X181720Y198357D01*
Y197926D01*
X181885Y197528D01*
X182190Y197224D01*
X182588Y197059D01*
X183019D01*
X183416Y197224D01*
X183721Y197528D01*
X183886Y197926D01*
Y198357D01*
X183860Y198419D01*
X184123Y198813D01*
X187783D01*
X188046Y198419D01*
X188020Y198357D01*
Y197926D01*
X188184Y197528D01*
X188489Y197224D01*
X188887Y197059D01*
X189318D01*
X189716Y197224D01*
X190020Y197528D01*
X190185Y197926D01*
Y198357D01*
X190159Y198419D01*
X190422Y198813D01*
X190932D01*
X191195Y198419D01*
X191169Y198357D01*
Y197926D01*
X191334Y197528D01*
X191639Y197224D01*
X192037Y197059D01*
X192467D01*
X192865Y197224D01*
X193170Y197528D01*
X193335Y197926D01*
Y198357D01*
X193312Y198412D01*
X193575Y198805D01*
X197225D01*
X197488Y198412D01*
X197468Y198365D01*
Y197934D01*
X197633Y197536D01*
X197938Y197232D01*
X198336Y197067D01*
X198767D01*
X199164Y197232D01*
X199469Y197536D01*
X199634Y197934D01*
Y198365D01*
X199579Y198498D01*
X199842Y198891D01*
X200410D01*
X200673Y198498D01*
X200618Y198365D01*
Y197934D01*
X200783Y197536D01*
X201087Y197232D01*
X201485Y197067D01*
X201916D01*
X202314Y197232D01*
X202619Y197536D01*
X202783Y197934D01*
Y198365D01*
X202729Y198498D01*
X202992Y198891D01*
X203236D01*
X203584Y198961D01*
X203880Y199158D01*
X204938Y200217D01*
X205050D01*
X205448Y200381D01*
X205752Y200686D01*
X205917Y201084D01*
Y201515D01*
X205752Y201912D01*
X205448Y202217D01*
X205050Y202382D01*
X204619D01*
X204489Y202328D01*
X204266Y202662D01*
X209785Y208181D01*
X210119Y207958D01*
X210059Y207814D01*
Y207383D01*
X210224Y206985D01*
X210528Y206681D01*
X210926Y206516D01*
X211357D01*
X211755Y206681D01*
X212060Y206985D01*
X212224Y207383D01*
Y207814D01*
X212060Y208212D01*
X211755Y208516D01*
X211357Y208681D01*
X210926D01*
X210782Y208622D01*
X210559Y208955D01*
X211262Y209658D01*
X211357D01*
X211755Y209822D01*
X212060Y210127D01*
X212224Y210525D01*
Y210956D01*
X212060Y211353D01*
X211755Y211658D01*
X211357Y211823D01*
X210926D01*
X210528Y211658D01*
X210224Y211353D01*
X210113Y211086D01*
X201495Y202468D01*
X201399D01*
X201002Y202303D01*
X200697Y201998D01*
X200532Y201601D01*
Y201170D01*
X200558Y201108D01*
X200295Y200714D01*
X197966D01*
X197617Y200644D01*
X197592Y200628D01*
X196721D01*
X196458Y201022D01*
X196484Y201084D01*
Y201515D01*
X196319Y201912D01*
X196015Y202217D01*
X195617Y202382D01*
X195186D01*
X194788Y202217D01*
X194484Y201912D01*
X194319Y201515D01*
Y201084D01*
X194345Y201022D01*
X194082Y200628D01*
X193569D01*
X193306Y201022D01*
X193335Y201092D01*
Y201522D01*
X193170Y201920D01*
X192865Y202225D01*
X192467Y202390D01*
X192037D01*
X191639Y202225D01*
X191334Y201920D01*
X191169Y201522D01*
Y201092D01*
X191195Y201029D01*
X190932Y200636D01*
X190422D01*
X190159Y201029D01*
X190185Y201092D01*
Y201522D01*
X190020Y201920D01*
X189716Y202225D01*
X189318Y202390D01*
X188887D01*
X188489Y202225D01*
X188184Y201920D01*
X188020Y201522D01*
Y201092D01*
X188046Y201029D01*
X187783Y200636D01*
X187273D01*
X187010Y201029D01*
X187035Y201092D01*
Y201522D01*
X186871Y201920D01*
X186566Y202225D01*
X186168Y202390D01*
X185737D01*
X185339Y202225D01*
X185035Y201920D01*
X184870Y201522D01*
Y201092D01*
X184896Y201029D01*
X184633Y200636D01*
X184123D01*
X183860Y201029D01*
X183886Y201092D01*
Y201522D01*
X183721Y201920D01*
X183416Y202225D01*
X183019Y202390D01*
X182588D01*
X182190Y202225D01*
X181885Y201920D01*
X181720Y201522D01*
Y201092D01*
X181750Y201022D01*
X181486Y200628D01*
X177824D01*
X177561Y201022D01*
X177587Y201084D01*
Y201515D01*
X177422Y201912D01*
X177117Y202217D01*
X176719Y202382D01*
X176289D01*
X175891Y202217D01*
X175586Y201912D01*
X175560Y201850D01*
X175096Y201758D01*
X174426Y202427D01*
Y202624D01*
X174357Y202973D01*
X174160Y203268D01*
X172093Y205334D01*
Y218616D01*
X172487Y218879D01*
X172549Y218853D01*
X172980D01*
X173378Y219018D01*
X173682Y219323D01*
X173847Y219721D01*
Y220151D01*
X173682Y220549D01*
X173378Y220854D01*
X172980Y221019D01*
X172549D01*
X172487Y220993D01*
X172093Y221256D01*
Y226248D01*
X177777Y231931D01*
X178376D01*
X178955Y232171D01*
X179398Y232614D01*
X179638Y233193D01*
Y233819D01*
X179398Y234398D01*
X178955Y234841D01*
X178376Y235081D01*
D02*
G37*
G36*
X298215Y220083D02*
X297785D01*
X297387Y219918D01*
X297082Y219613D01*
X296917Y219215D01*
Y218785D01*
X297082Y218387D01*
X297387Y218082D01*
X297785Y217917D01*
X298215D01*
X298613Y218082D01*
X298918Y218387D01*
X299083Y218785D01*
Y219215D01*
X298918Y219613D01*
X298613Y219918D01*
X298215Y220083D01*
D02*
G37*
G36*
X293215D02*
X292785D01*
X292387Y219918D01*
X292082Y219613D01*
X291917Y219215D01*
Y218785D01*
X292082Y218387D01*
X292387Y218082D01*
X292785Y217917D01*
X293215D01*
X293613Y218082D01*
X293918Y218387D01*
X294083Y218785D01*
Y219215D01*
X293918Y219613D01*
X293613Y219918D01*
X293215Y220083D01*
D02*
G37*
G36*
X278215D02*
X277785D01*
X277387Y219918D01*
X277082Y219613D01*
X276917Y219215D01*
Y218785D01*
X277082Y218387D01*
X277387Y218082D01*
X277785Y217917D01*
X278215D01*
X278613Y218082D01*
X278918Y218387D01*
X279083Y218785D01*
Y219215D01*
X278918Y219613D01*
X278613Y219918D01*
X278215Y220083D01*
D02*
G37*
G36*
X123975Y219443D02*
X123545D01*
X123147Y219278D01*
X122842Y218973D01*
X122677Y218576D01*
Y218145D01*
X122842Y217747D01*
X123147Y217442D01*
X123545Y217278D01*
X123975D01*
X124373Y217442D01*
X124678Y217747D01*
X124843Y218145D01*
Y218576D01*
X124678Y218973D01*
X124373Y219278D01*
X123975Y219443D01*
D02*
G37*
G36*
X146192Y217907D02*
X145761D01*
X145363Y217742D01*
X145059Y217438D01*
X144894Y217040D01*
Y216609D01*
X145059Y216211D01*
X145363Y215907D01*
X145761Y215742D01*
X146192D01*
X146590Y215907D01*
X146894Y216211D01*
X147059Y216609D01*
Y217040D01*
X146894Y217438D01*
X146590Y217742D01*
X146192Y217907D01*
D02*
G37*
G36*
X133818Y217854D02*
X133387D01*
X132989Y217689D01*
X132685Y217385D01*
X132520Y216987D01*
Y216556D01*
X132685Y216158D01*
X132989Y215854D01*
X133387Y215689D01*
X133818D01*
X134216Y215854D01*
X134520Y216158D01*
X134685Y216556D01*
Y216987D01*
X134520Y217385D01*
X134216Y217689D01*
X133818Y217854D01*
D02*
G37*
G36*
X130668D02*
X130237D01*
X129840Y217689D01*
X129535Y217385D01*
X129370Y216987D01*
Y216556D01*
X129535Y216158D01*
X129840Y215854D01*
X130237Y215689D01*
X130668D01*
X131066Y215854D01*
X131371Y216158D01*
X131535Y216556D01*
Y216987D01*
X131371Y217385D01*
X131066Y217689D01*
X130668Y217854D01*
D02*
G37*
G36*
X166692Y216207D02*
X166261D01*
X165863Y216042D01*
X165559Y215738D01*
X165394Y215340D01*
Y214909D01*
X165559Y214511D01*
X165863Y214207D01*
X166261Y214042D01*
X166692D01*
X167090Y214207D01*
X167394Y214511D01*
X167559Y214909D01*
Y215340D01*
X167394Y215738D01*
X167090Y216042D01*
X166692Y216207D01*
D02*
G37*
G36*
X298215Y215083D02*
X297785D01*
X297387Y214918D01*
X297082Y214613D01*
X296917Y214215D01*
Y213785D01*
X297082Y213387D01*
X297387Y213082D01*
X297785Y212917D01*
X298215D01*
X298613Y213082D01*
X298918Y213387D01*
X299083Y213785D01*
Y214215D01*
X298918Y214613D01*
X298613Y214918D01*
X298215Y215083D01*
D02*
G37*
G36*
X283215D02*
X282785D01*
X282387Y214918D01*
X282082Y214613D01*
X281917Y214215D01*
Y213785D01*
X282082Y213387D01*
X282387Y213082D01*
X282785Y212917D01*
X283215D01*
X283613Y213082D01*
X283918Y213387D01*
X284083Y213785D01*
Y214215D01*
X283918Y214613D01*
X283613Y214918D01*
X283215Y215083D01*
D02*
G37*
G36*
X278215D02*
X277785D01*
X277387Y214918D01*
X277082Y214613D01*
X276917Y214215D01*
Y213785D01*
X277082Y213387D01*
X277387Y213082D01*
X277785Y212917D01*
X278215D01*
X278613Y213082D01*
X278918Y213387D01*
X279083Y213785D01*
Y214215D01*
X278918Y214613D01*
X278613Y214918D01*
X278215Y215083D01*
D02*
G37*
G36*
X273215D02*
X272785D01*
X272387Y214918D01*
X272082Y214613D01*
X271917Y214215D01*
Y213785D01*
X272082Y213387D01*
X272387Y213082D01*
X272785Y212917D01*
X273215D01*
X273613Y213082D01*
X273918Y213387D01*
X274083Y213785D01*
Y214215D01*
X273918Y214613D01*
X273613Y214918D01*
X273215Y215083D01*
D02*
G37*
G36*
X211357Y214988D02*
X210926D01*
X210528Y214823D01*
X210224Y214519D01*
X210059Y214121D01*
Y213690D01*
X210224Y213292D01*
X210528Y212988D01*
X210926Y212823D01*
X211357D01*
X211755Y212988D01*
X212060Y213292D01*
X212224Y213690D01*
Y214121D01*
X212060Y214519D01*
X211755Y214823D01*
X211357Y214988D01*
D02*
G37*
G36*
X152715Y214705D02*
X152285D01*
X151887Y214540D01*
X151582Y214235D01*
X151417Y213837D01*
Y213407D01*
X151582Y213009D01*
X151887Y212704D01*
X152285Y212539D01*
X152715D01*
X153113Y212704D01*
X153418Y213009D01*
X153583Y213407D01*
Y213837D01*
X153418Y214235D01*
X153113Y214540D01*
X152715Y214705D01*
D02*
G37*
G36*
X149566D02*
X149135D01*
X148737Y214540D01*
X148433Y214235D01*
X148268Y213837D01*
Y213407D01*
X148433Y213009D01*
X148737Y212704D01*
X149135Y212539D01*
X149566D01*
X149964Y212704D01*
X150268Y213009D01*
X150433Y213407D01*
Y213837D01*
X150268Y214235D01*
X149964Y214540D01*
X149566Y214705D01*
D02*
G37*
G36*
X136967D02*
X136537D01*
X136139Y214540D01*
X135834Y214235D01*
X135669Y213837D01*
Y213407D01*
X135834Y213009D01*
X136139Y212704D01*
X136537Y212539D01*
X136967D01*
X137365Y212704D01*
X137670Y213009D01*
X137835Y213407D01*
Y213837D01*
X137670Y214235D01*
X137365Y214540D01*
X136967Y214705D01*
D02*
G37*
G36*
X141792Y214307D02*
X141361D01*
X140963Y214142D01*
X140658Y213838D01*
X140494Y213440D01*
Y213009D01*
X140658Y212611D01*
X140963Y212307D01*
X141361Y212142D01*
X141792D01*
X142190Y212307D01*
X142494Y212611D01*
X142659Y213009D01*
Y213440D01*
X142494Y213838D01*
X142190Y214142D01*
X141792Y214307D01*
D02*
G37*
G36*
X149566Y211555D02*
X149135D01*
X148737Y211390D01*
X148433Y211086D01*
X148268Y210688D01*
Y210257D01*
X148433Y209859D01*
X148737Y209555D01*
X149135Y209390D01*
X149566D01*
X149964Y209555D01*
X150268Y209859D01*
X150433Y210257D01*
Y210688D01*
X150268Y211086D01*
X149964Y211390D01*
X149566Y211555D01*
D02*
G37*
G36*
X133818D02*
X133387D01*
X132989Y211390D01*
X132685Y211086D01*
X132520Y210688D01*
Y210257D01*
X132685Y209859D01*
X132989Y209555D01*
X133387Y209390D01*
X133818D01*
X134216Y209555D01*
X134520Y209859D01*
X134685Y210257D01*
Y210688D01*
X134520Y211086D01*
X134216Y211390D01*
X133818Y211555D01*
D02*
G37*
G36*
X136967Y211555D02*
X136537D01*
X136139Y211390D01*
X135834Y211086D01*
X135669Y210688D01*
Y210257D01*
X135834Y209859D01*
X136139Y209555D01*
X136537Y209390D01*
X136967D01*
X137365Y209555D01*
X137670Y209859D01*
X137835Y210257D01*
Y210688D01*
X137670Y211086D01*
X137365Y211390D01*
X136967Y211555D01*
D02*
G37*
G36*
X173992Y208807D02*
X173561D01*
X173163Y208642D01*
X172859Y208338D01*
X172694Y207940D01*
Y207509D01*
X172859Y207111D01*
X173163Y206807D01*
X173561Y206642D01*
X173992D01*
X174390Y206807D01*
X174694Y207111D01*
X174859Y207509D01*
Y207940D01*
X174694Y208338D01*
X174390Y208642D01*
X173992Y208807D01*
D02*
G37*
G36*
X176719Y208484D02*
X176289D01*
X175891Y208319D01*
X175586Y208015D01*
X175421Y207617D01*
Y207186D01*
X175586Y206788D01*
X175891Y206484D01*
X176289Y206319D01*
X176719D01*
X177117Y206484D01*
X177422Y206788D01*
X177587Y207186D01*
Y207617D01*
X177422Y208015D01*
X177117Y208319D01*
X176719Y208484D01*
D02*
G37*
G36*
X155865Y208405D02*
X155434D01*
X155036Y208241D01*
X154732Y207936D01*
X154567Y207538D01*
Y207107D01*
X154732Y206710D01*
X155036Y206405D01*
X155434Y206240D01*
X155865D01*
X156263Y206405D01*
X156567Y206710D01*
X156732Y207107D01*
Y207538D01*
X156567Y207936D01*
X156263Y208241D01*
X155865Y208405D01*
D02*
G37*
G36*
X146416D02*
X145985D01*
X145588Y208241D01*
X145283Y207936D01*
X145118Y207538D01*
Y207107D01*
X145283Y206710D01*
X145588Y206405D01*
X145985Y206240D01*
X146416D01*
X146814Y206405D01*
X147119Y206710D01*
X147283Y207107D01*
Y207538D01*
X147119Y207936D01*
X146814Y208241D01*
X146416Y208405D01*
D02*
G37*
G36*
X136967D02*
X136537D01*
X136139Y208241D01*
X135834Y207936D01*
X135669Y207538D01*
Y207107D01*
X135834Y206710D01*
X136139Y206405D01*
X136537Y206240D01*
X136967D01*
X137365Y206405D01*
X137670Y206710D01*
X137835Y207107D01*
Y207538D01*
X137670Y207936D01*
X137365Y208241D01*
X136967Y208405D01*
D02*
G37*
G36*
X223963Y205532D02*
X223533D01*
X223135Y205367D01*
X222830Y205062D01*
X222665Y204664D01*
Y204234D01*
X222830Y203836D01*
X223135Y203531D01*
X223533Y203366D01*
X223963D01*
X224361Y203531D01*
X224666Y203836D01*
X224831Y204234D01*
Y204664D01*
X224666Y205062D01*
X224361Y205367D01*
X223963Y205532D01*
D02*
G37*
G36*
X183019D02*
X182588D01*
X182190Y205367D01*
X181885Y205062D01*
X181720Y204664D01*
Y204234D01*
X181885Y203836D01*
X182190Y203531D01*
X182588Y203366D01*
X183019D01*
X183416Y203531D01*
X183721Y203836D01*
X183886Y204234D01*
Y204664D01*
X183721Y205062D01*
X183416Y205367D01*
X183019Y205532D01*
D02*
G37*
G36*
X179869D02*
X179438D01*
X179040Y205367D01*
X178736Y205062D01*
X178571Y204664D01*
Y204234D01*
X178736Y203836D01*
X179040Y203531D01*
X179438Y203366D01*
X179869D01*
X180267Y203531D01*
X180571Y203836D01*
X180736Y204234D01*
Y204664D01*
X180571Y205062D01*
X180267Y205367D01*
X179869Y205532D01*
D02*
G37*
G36*
X176719D02*
X176289D01*
X175891Y205367D01*
X175586Y205062D01*
X175421Y204664D01*
Y204234D01*
X175586Y203836D01*
X175891Y203531D01*
X176289Y203366D01*
X176719D01*
X177117Y203531D01*
X177422Y203836D01*
X177587Y204234D01*
Y204664D01*
X177422Y205062D01*
X177117Y205367D01*
X176719Y205532D01*
D02*
G37*
G36*
X152715Y205256D02*
X152285D01*
X151887Y205091D01*
X151582Y204786D01*
X151417Y204389D01*
Y203958D01*
X151582Y203560D01*
X151887Y203255D01*
X152285Y203091D01*
X152715D01*
X153113Y203255D01*
X153418Y203560D01*
X153583Y203958D01*
Y204389D01*
X153418Y204786D01*
X153113Y205091D01*
X152715Y205256D01*
D02*
G37*
G36*
X149566D02*
X149135D01*
X148737Y205091D01*
X148433Y204786D01*
X148268Y204389D01*
Y203958D01*
X148433Y203560D01*
X148737Y203255D01*
X149135Y203091D01*
X149566D01*
X149964Y203255D01*
X150268Y203560D01*
X150433Y203958D01*
Y204389D01*
X150268Y204786D01*
X149964Y205091D01*
X149566Y205256D01*
D02*
G37*
G36*
X133818D02*
X133387D01*
X132989Y205091D01*
X132685Y204786D01*
X132520Y204389D01*
Y203958D01*
X132685Y203560D01*
X132989Y203255D01*
X133387Y203091D01*
X133818D01*
X134216Y203255D01*
X134520Y203560D01*
X134685Y203958D01*
Y204389D01*
X134520Y204786D01*
X134216Y205091D01*
X133818Y205256D01*
D02*
G37*
G36*
X127518Y205248D02*
X127088D01*
X126690Y205083D01*
X126385Y204779D01*
X126221Y204381D01*
Y203950D01*
X126385Y203552D01*
X126690Y203247D01*
X127088Y203083D01*
X127518D01*
X127916Y203247D01*
X128221Y203552D01*
X128386Y203950D01*
Y204381D01*
X128221Y204779D01*
X127916Y205083D01*
X127518Y205248D01*
D02*
G37*
G36*
X278215Y205083D02*
X277785D01*
X277387Y204918D01*
X277082Y204613D01*
X276917Y204215D01*
Y203785D01*
X277082Y203387D01*
X277387Y203082D01*
X277785Y202917D01*
X278215D01*
X278613Y203082D01*
X278918Y203387D01*
X279083Y203785D01*
Y204215D01*
X278918Y204613D01*
X278613Y204918D01*
X278215Y205083D01*
D02*
G37*
G36*
X223963Y202382D02*
X223533D01*
X223135Y202217D01*
X222830Y201912D01*
X222665Y201515D01*
Y201084D01*
X222830Y200686D01*
X223135Y200381D01*
X223533Y200217D01*
X223963D01*
X224361Y200381D01*
X224666Y200686D01*
X224831Y201084D01*
Y201515D01*
X224666Y201912D01*
X224361Y202217D01*
X223963Y202382D01*
D02*
G37*
G36*
X208215D02*
X207785D01*
X207387Y202217D01*
X207082Y201912D01*
X206917Y201515D01*
Y201084D01*
X207082Y200686D01*
X207387Y200381D01*
X207785Y200217D01*
X208215D01*
X208613Y200381D01*
X208918Y200686D01*
X209083Y201084D01*
Y201515D01*
X208918Y201912D01*
X208613Y202217D01*
X208215Y202382D01*
D02*
G37*
G36*
X130684Y202106D02*
X130253D01*
X129855Y201941D01*
X129551Y201637D01*
X129386Y201239D01*
Y200808D01*
X129551Y200410D01*
X129855Y200106D01*
X130253Y199941D01*
X130684D01*
X131082Y200106D01*
X131386Y200410D01*
X131551Y200808D01*
Y201239D01*
X131386Y201637D01*
X131082Y201941D01*
X130684Y202106D01*
D02*
G37*
G36*
X149566Y202106D02*
X149135D01*
X148737Y201941D01*
X148433Y201637D01*
X148268Y201239D01*
Y200808D01*
X148433Y200410D01*
X148737Y200106D01*
X149135Y199941D01*
X149566D01*
X149964Y200106D01*
X150268Y200410D01*
X150433Y200808D01*
Y201239D01*
X150268Y201637D01*
X149964Y201941D01*
X149566Y202106D01*
D02*
G37*
G36*
X133818D02*
X133387D01*
X132989Y201941D01*
X132685Y201637D01*
X132520Y201239D01*
Y200808D01*
X132685Y200410D01*
X132989Y200106D01*
X133387Y199941D01*
X133818D01*
X134216Y200106D01*
X134520Y200410D01*
X134685Y200808D01*
Y201239D01*
X134520Y201637D01*
X134216Y201941D01*
X133818Y202106D01*
D02*
G37*
G36*
X227113Y199232D02*
X226682D01*
X226284Y199067D01*
X225980Y198763D01*
X225815Y198365D01*
Y197934D01*
X225980Y197536D01*
X226284Y197232D01*
X226682Y197067D01*
X227113D01*
X227511Y197232D01*
X227816Y197536D01*
X227980Y197934D01*
Y198365D01*
X227816Y198763D01*
X227511Y199067D01*
X227113Y199232D01*
D02*
G37*
G36*
X155865Y198957D02*
X155434D01*
X155036Y198792D01*
X154732Y198487D01*
X154567Y198089D01*
Y197659D01*
X154732Y197261D01*
X155036Y196956D01*
X155434Y196791D01*
X155865D01*
X156263Y196956D01*
X156567Y197261D01*
X156732Y197659D01*
Y198089D01*
X156567Y198487D01*
X156263Y198792D01*
X155865Y198957D01*
D02*
G37*
G36*
X152715D02*
X152285D01*
X151887Y198792D01*
X151582Y198487D01*
X151417Y198089D01*
Y197659D01*
X151582Y197261D01*
X151887Y196956D01*
X152285Y196791D01*
X152715D01*
X153113Y196956D01*
X153418Y197261D01*
X153583Y197659D01*
Y198089D01*
X153418Y198487D01*
X153113Y198792D01*
X152715Y198957D01*
D02*
G37*
G36*
X149566D02*
X149135D01*
X148737Y198792D01*
X148433Y198487D01*
X148268Y198089D01*
Y197659D01*
X148433Y197261D01*
X148737Y196956D01*
X149135Y196791D01*
X149566D01*
X149964Y196956D01*
X150268Y197261D01*
X150433Y197659D01*
Y198089D01*
X150268Y198487D01*
X149964Y198792D01*
X149566Y198957D01*
D02*
G37*
G36*
X136967D02*
X136537D01*
X136139Y198792D01*
X135834Y198487D01*
X135669Y198089D01*
Y197659D01*
X135834Y197261D01*
X136139Y196956D01*
X136537Y196791D01*
X136967D01*
X137365Y196956D01*
X137670Y197261D01*
X137835Y197659D01*
Y198089D01*
X137670Y198487D01*
X137365Y198792D01*
X136967Y198957D01*
D02*
G37*
G36*
X133818D02*
X133387D01*
X132989Y198792D01*
X132685Y198487D01*
X132520Y198089D01*
Y197659D01*
X132685Y197261D01*
X132989Y196956D01*
X133387Y196791D01*
X133818D01*
X134216Y196956D01*
X134520Y197261D01*
X134685Y197659D01*
Y198089D01*
X134520Y198487D01*
X134216Y198792D01*
X133818Y198957D01*
D02*
G37*
G36*
X130668D02*
X130237D01*
X129840Y198792D01*
X129535Y198487D01*
X129370Y198089D01*
Y197659D01*
X129535Y197261D01*
X129840Y196956D01*
X130237Y196791D01*
X130668D01*
X131066Y196956D01*
X131371Y197261D01*
X131535Y197659D01*
Y198089D01*
X131371Y198487D01*
X131066Y198792D01*
X130668Y198957D01*
D02*
G37*
G36*
X127518D02*
X127088D01*
X126690Y198792D01*
X126385Y198487D01*
X126221Y198089D01*
Y197659D01*
X126385Y197261D01*
X126690Y196956D01*
X127088Y196791D01*
X127518D01*
X127916Y196956D01*
X128221Y197261D01*
X128386Y197659D01*
Y198089D01*
X128221Y198487D01*
X127916Y198792D01*
X127518Y198957D01*
D02*
G37*
G36*
X189318Y196083D02*
X188887D01*
X188489Y195918D01*
X188184Y195613D01*
X188020Y195215D01*
Y194785D01*
X188184Y194387D01*
X188489Y194082D01*
X188887Y193917D01*
X189318D01*
X189716Y194082D01*
X190020Y194387D01*
X190185Y194785D01*
Y195215D01*
X190020Y195613D01*
X189716Y195918D01*
X189318Y196083D01*
D02*
G37*
G36*
X179869D02*
X179438D01*
X179040Y195918D01*
X178736Y195613D01*
X178571Y195215D01*
Y194785D01*
X178736Y194387D01*
X179040Y194082D01*
X179438Y193917D01*
X179869D01*
X180267Y194082D01*
X180571Y194387D01*
X180736Y194785D01*
Y195215D01*
X180571Y195613D01*
X180267Y195918D01*
X179869Y196083D01*
D02*
G37*
G36*
X136967Y195807D02*
X136537D01*
X136139Y195642D01*
X135834Y195338D01*
X135669Y194940D01*
Y194509D01*
X135834Y194111D01*
X136139Y193807D01*
X136537Y193642D01*
X136967D01*
X137365Y193807D01*
X137670Y194111D01*
X137835Y194509D01*
Y194940D01*
X137670Y195338D01*
X137365Y195642D01*
X136967Y195807D01*
D02*
G37*
G36*
X149606Y195667D02*
X149175D01*
X148777Y195502D01*
X148473Y195197D01*
X148308Y194800D01*
Y194369D01*
X148473Y193971D01*
X148777Y193666D01*
X149175Y193502D01*
X149606D01*
X150004Y193666D01*
X150309Y193971D01*
X150473Y194369D01*
Y194800D01*
X150309Y195197D01*
X150004Y195502D01*
X149606Y195667D01*
D02*
G37*
G36*
X298215Y195083D02*
X297785D01*
X297387Y194918D01*
X297082Y194613D01*
X296917Y194215D01*
Y193785D01*
X297082Y193387D01*
X297387Y193082D01*
X297785Y192917D01*
X298215D01*
X298613Y193082D01*
X298918Y193387D01*
X299083Y193785D01*
Y194215D01*
X298918Y194613D01*
X298613Y194918D01*
X298215Y195083D01*
D02*
G37*
G36*
X293215D02*
X292785D01*
X292387Y194918D01*
X292082Y194613D01*
X291917Y194215D01*
Y193785D01*
X292082Y193387D01*
X292387Y193082D01*
X292785Y192917D01*
X293215D01*
X293613Y193082D01*
X293918Y193387D01*
X294083Y193785D01*
Y194215D01*
X293918Y194613D01*
X293613Y194918D01*
X293215Y195083D01*
D02*
G37*
G36*
X288215D02*
X287785D01*
X287387Y194918D01*
X287082Y194613D01*
X286917Y194215D01*
Y193785D01*
X287082Y193387D01*
X287387Y193082D01*
X287785Y192917D01*
X288215D01*
X288613Y193082D01*
X288918Y193387D01*
X289083Y193785D01*
Y194215D01*
X288918Y194613D01*
X288613Y194918D01*
X288215Y195083D01*
D02*
G37*
G36*
X283215D02*
X282785D01*
X282387Y194918D01*
X282082Y194613D01*
X281917Y194215D01*
Y193785D01*
X282082Y193387D01*
X282387Y193082D01*
X282785Y192917D01*
X283215D01*
X283613Y193082D01*
X283918Y193387D01*
X284083Y193785D01*
Y194215D01*
X283918Y194613D01*
X283613Y194918D01*
X283215Y195083D01*
D02*
G37*
G36*
X278215D02*
X277785D01*
X277387Y194918D01*
X277082Y194613D01*
X276917Y194215D01*
Y193785D01*
X277082Y193387D01*
X277387Y193082D01*
X277785Y192917D01*
X278215D01*
X278613Y193082D01*
X278918Y193387D01*
X279083Y193785D01*
Y194215D01*
X278918Y194613D01*
X278613Y194918D01*
X278215Y195083D01*
D02*
G37*
G36*
X273215D02*
X272785D01*
X272387Y194918D01*
X272082Y194613D01*
X271917Y194215D01*
Y193785D01*
X272082Y193387D01*
X272387Y193082D01*
X272785Y192917D01*
X273215D01*
X273613Y193082D01*
X273918Y193387D01*
X274083Y193785D01*
Y194215D01*
X273918Y194613D01*
X273613Y194918D01*
X273215Y195083D01*
D02*
G37*
G36*
X268215D02*
X267785D01*
X267387Y194918D01*
X267082Y194613D01*
X266917Y194215D01*
Y193785D01*
X267082Y193387D01*
X267387Y193082D01*
X267785Y192917D01*
X268215D01*
X268613Y193082D01*
X268918Y193387D01*
X269083Y193785D01*
Y194215D01*
X268918Y194613D01*
X268613Y194918D01*
X268215Y195083D01*
D02*
G37*
G36*
X263215D02*
X262785D01*
X262387Y194918D01*
X262082Y194613D01*
X261917Y194215D01*
Y193785D01*
X262082Y193387D01*
X262387Y193082D01*
X262785Y192917D01*
X263215D01*
X263613Y193082D01*
X263918Y193387D01*
X264083Y193785D01*
Y194215D01*
X263918Y194613D01*
X263613Y194918D01*
X263215Y195083D01*
D02*
G37*
G36*
X141692Y193839D02*
X141261D01*
X140863Y193674D01*
X140559Y193369D01*
X140394Y192971D01*
Y192541D01*
X140559Y192143D01*
X140863Y191838D01*
X141261Y191673D01*
X141692D01*
X142090Y191838D01*
X142394Y192143D01*
X142559Y192541D01*
Y192971D01*
X142394Y193369D01*
X142090Y193674D01*
X141692Y193839D01*
D02*
G37*
G36*
X205066Y192941D02*
X204635D01*
X204237Y192776D01*
X203933Y192472D01*
X203768Y192074D01*
Y191643D01*
X203933Y191245D01*
X204237Y190940D01*
X204635Y190776D01*
X205066D01*
X205464Y190940D01*
X205768Y191245D01*
X205933Y191643D01*
Y192074D01*
X205768Y192472D01*
X205464Y192776D01*
X205066Y192941D01*
D02*
G37*
G36*
X223963Y192933D02*
X223533D01*
X223135Y192768D01*
X222830Y192464D01*
X222665Y192066D01*
Y191635D01*
X222830Y191237D01*
X223135Y190933D01*
X223533Y190768D01*
X223963D01*
X224361Y190933D01*
X224666Y191237D01*
X224831Y191635D01*
Y192066D01*
X224666Y192464D01*
X224361Y192768D01*
X223963Y192933D01*
D02*
G37*
G36*
X220814D02*
X220383D01*
X219985Y192768D01*
X219681Y192464D01*
X219516Y192066D01*
Y191635D01*
X219681Y191237D01*
X219985Y190933D01*
X220383Y190768D01*
X220814D01*
X221212Y190933D01*
X221516Y191237D01*
X221681Y191635D01*
Y192066D01*
X221516Y192464D01*
X221212Y192768D01*
X220814Y192933D01*
D02*
G37*
G36*
X211365D02*
X210934D01*
X210536Y192768D01*
X210232Y192464D01*
X210067Y192066D01*
Y191635D01*
X210232Y191237D01*
X210536Y190933D01*
X210934Y190768D01*
X211365D01*
X211763Y190933D01*
X212067Y191237D01*
X212232Y191635D01*
Y192066D01*
X212067Y192464D01*
X211763Y192768D01*
X211365Y192933D01*
D02*
G37*
G36*
X195617D02*
X195186D01*
X194788Y192768D01*
X194484Y192464D01*
X194319Y192066D01*
Y191635D01*
X194484Y191237D01*
X194788Y190933D01*
X195186Y190768D01*
X195617D01*
X196015Y190933D01*
X196319Y191237D01*
X196484Y191635D01*
Y192066D01*
X196319Y192464D01*
X196015Y192768D01*
X195617Y192933D01*
D02*
G37*
G36*
X192467D02*
X192037D01*
X191639Y192768D01*
X191334Y192464D01*
X191169Y192066D01*
Y191635D01*
X191334Y191237D01*
X191639Y190933D01*
X192037Y190768D01*
X192467D01*
X192865Y190933D01*
X193170Y191237D01*
X193335Y191635D01*
Y192066D01*
X193170Y192464D01*
X192865Y192768D01*
X192467Y192933D01*
D02*
G37*
G36*
X189318D02*
X188887D01*
X188489Y192768D01*
X188184Y192464D01*
X188020Y192066D01*
Y191635D01*
X188184Y191237D01*
X188489Y190933D01*
X188887Y190768D01*
X189318D01*
X189716Y190933D01*
X190020Y191237D01*
X190185Y191635D01*
Y192066D01*
X190020Y192464D01*
X189716Y192768D01*
X189318Y192933D01*
D02*
G37*
G36*
X186168D02*
X185737D01*
X185339Y192768D01*
X185035Y192464D01*
X184870Y192066D01*
Y191635D01*
X185035Y191237D01*
X185339Y190933D01*
X185737Y190768D01*
X186168D01*
X186566Y190933D01*
X186871Y191237D01*
X187035Y191635D01*
Y192066D01*
X186871Y192464D01*
X186566Y192768D01*
X186168Y192933D01*
D02*
G37*
G36*
X183019D02*
X182588D01*
X182190Y192768D01*
X181885Y192464D01*
X181720Y192066D01*
Y191635D01*
X181885Y191237D01*
X182190Y190933D01*
X182588Y190768D01*
X183019D01*
X183416Y190933D01*
X183721Y191237D01*
X183886Y191635D01*
Y192066D01*
X183721Y192464D01*
X183416Y192768D01*
X183019Y192933D01*
D02*
G37*
G36*
X179869D02*
X179438D01*
X179040Y192768D01*
X178736Y192464D01*
X178571Y192066D01*
Y191635D01*
X178736Y191237D01*
X179040Y190933D01*
X179438Y190768D01*
X179869D01*
X180267Y190933D01*
X180571Y191237D01*
X180736Y191635D01*
Y192066D01*
X180571Y192464D01*
X180267Y192768D01*
X179869Y192933D01*
D02*
G37*
G36*
X136967Y192657D02*
X136537D01*
X136139Y192493D01*
X135834Y192188D01*
X135669Y191790D01*
Y191359D01*
X135834Y190962D01*
X136139Y190657D01*
X136537Y190492D01*
X136967D01*
X137365Y190657D01*
X137670Y190962D01*
X137835Y191359D01*
Y191790D01*
X137670Y192188D01*
X137365Y192493D01*
X136967Y192657D01*
D02*
G37*
G36*
X149604Y192520D02*
X149173D01*
X148775Y192355D01*
X148471Y192050D01*
X148306Y191652D01*
Y191222D01*
X148471Y190824D01*
X148775Y190519D01*
X149173Y190354D01*
X149604D01*
X150002Y190519D01*
X150306Y190824D01*
X150471Y191222D01*
Y191652D01*
X150306Y192050D01*
X150002Y192355D01*
X149604Y192520D01*
D02*
G37*
G36*
X170192Y190207D02*
X169761D01*
X169363Y190042D01*
X169059Y189738D01*
X168894Y189340D01*
Y188909D01*
X169059Y188511D01*
X169363Y188207D01*
X169761Y188042D01*
X170192D01*
X170590Y188207D01*
X170894Y188511D01*
X171059Y188909D01*
Y189340D01*
X170894Y189738D01*
X170590Y190042D01*
X170192Y190207D01*
D02*
G37*
G36*
X220814Y189784D02*
X220383D01*
X219985Y189619D01*
X219681Y189314D01*
X219516Y188916D01*
Y188485D01*
X219681Y188087D01*
X219985Y187783D01*
X220383Y187618D01*
X220814D01*
X221212Y187783D01*
X221516Y188087D01*
X221681Y188485D01*
Y188916D01*
X221516Y189314D01*
X221212Y189619D01*
X220814Y189784D01*
D02*
G37*
G36*
X214515D02*
X214084D01*
X213686Y189619D01*
X213381Y189314D01*
X213216Y188916D01*
Y188485D01*
X213381Y188087D01*
X213686Y187783D01*
X214084Y187618D01*
X214515D01*
X214913Y187783D01*
X215217Y188087D01*
X215382Y188485D01*
Y188916D01*
X215217Y189314D01*
X214913Y189619D01*
X214515Y189784D01*
D02*
G37*
G36*
X198767D02*
X198336D01*
X197938Y189619D01*
X197633Y189314D01*
X197468Y188916D01*
Y188485D01*
X197633Y188087D01*
X197938Y187783D01*
X198336Y187618D01*
X198767D01*
X199164Y187783D01*
X199469Y188087D01*
X199634Y188485D01*
Y188916D01*
X199469Y189314D01*
X199164Y189619D01*
X198767Y189784D01*
D02*
G37*
G36*
X192664D02*
X192234D01*
X191835Y189619D01*
X191531Y189314D01*
X191366Y188916D01*
Y188485D01*
X191531Y188087D01*
X191835Y187783D01*
X192234Y187618D01*
X192664D01*
X193062Y187783D01*
X193367Y188087D01*
X193532Y188485D01*
Y188916D01*
X193367Y189314D01*
X193062Y189619D01*
X192664Y189784D01*
D02*
G37*
G36*
X189318D02*
X188887D01*
X188489Y189619D01*
X188184Y189314D01*
X188020Y188916D01*
Y188485D01*
X188184Y188087D01*
X188489Y187783D01*
X188887Y187618D01*
X189318D01*
X189716Y187783D01*
X190020Y188087D01*
X190185Y188485D01*
Y188916D01*
X190020Y189314D01*
X189716Y189619D01*
X189318Y189784D01*
D02*
G37*
G36*
X186168D02*
X185737D01*
X185339Y189619D01*
X185035Y189314D01*
X184870Y188916D01*
Y188485D01*
X185035Y188087D01*
X185339Y187783D01*
X185737Y187618D01*
X186168D01*
X186566Y187783D01*
X186871Y188087D01*
X187035Y188485D01*
Y188916D01*
X186871Y189314D01*
X186566Y189619D01*
X186168Y189784D01*
D02*
G37*
G36*
X183019D02*
X182588D01*
X182190Y189619D01*
X181885Y189314D01*
X181720Y188916D01*
Y188485D01*
X181885Y188087D01*
X182190Y187783D01*
X182588Y187618D01*
X183019D01*
X183416Y187783D01*
X183721Y188087D01*
X183886Y188485D01*
Y188916D01*
X183721Y189314D01*
X183416Y189619D01*
X183019Y189784D01*
D02*
G37*
G36*
X179869D02*
X179438D01*
X179040Y189619D01*
X178736Y189314D01*
X178571Y188916D01*
Y188485D01*
X178736Y188087D01*
X179040Y187783D01*
X179438Y187618D01*
X179869D01*
X180267Y187783D01*
X180571Y188087D01*
X180736Y188485D01*
Y188916D01*
X180571Y189314D01*
X180267Y189619D01*
X179869Y189784D01*
D02*
G37*
G36*
X195617Y189783D02*
X195186D01*
X194788Y189619D01*
X194484Y189314D01*
X194319Y188916D01*
Y188485D01*
X194484Y188087D01*
X194788Y187783D01*
X195186Y187618D01*
X195617D01*
X196015Y187783D01*
X196319Y188087D01*
X196484Y188485D01*
Y188916D01*
X196319Y189314D01*
X196015Y189619D01*
X195617Y189783D01*
D02*
G37*
G36*
X155865Y189508D02*
X155434D01*
X155036Y189343D01*
X154732Y189039D01*
X154567Y188641D01*
Y188210D01*
X154732Y187812D01*
X155036Y187507D01*
X155434Y187343D01*
X155865D01*
X156263Y187507D01*
X156567Y187812D01*
X156732Y188210D01*
Y188641D01*
X156567Y189039D01*
X156263Y189343D01*
X155865Y189508D01*
D02*
G37*
G36*
X152715D02*
X152285D01*
X151887Y189343D01*
X151582Y189039D01*
X151417Y188641D01*
Y188210D01*
X151582Y187812D01*
X151887Y187507D01*
X152285Y187343D01*
X152715D01*
X153113Y187507D01*
X153418Y187812D01*
X153583Y188210D01*
Y188641D01*
X153418Y189039D01*
X153113Y189343D01*
X152715Y189508D01*
D02*
G37*
G36*
X146416D02*
X145985D01*
X145588Y189343D01*
X145283Y189039D01*
X145118Y188641D01*
Y188210D01*
X145283Y187812D01*
X145588Y187507D01*
X145985Y187343D01*
X146416D01*
X146814Y187507D01*
X147119Y187812D01*
X147283Y188210D01*
Y188641D01*
X147119Y189039D01*
X146814Y189343D01*
X146416Y189508D01*
D02*
G37*
G36*
X136967D02*
X136537D01*
X136139Y189343D01*
X135834Y189039D01*
X135669Y188641D01*
Y188210D01*
X135834Y187812D01*
X136139Y187507D01*
X136537Y187343D01*
X136967D01*
X137365Y187507D01*
X137670Y187812D01*
X137835Y188210D01*
Y188641D01*
X137670Y189039D01*
X137365Y189343D01*
X136967Y189508D01*
D02*
G37*
G36*
X133818D02*
X133387D01*
X132989Y189343D01*
X132685Y189039D01*
X132520Y188641D01*
Y188210D01*
X132685Y187812D01*
X132989Y187507D01*
X133387Y187343D01*
X133818D01*
X134216Y187507D01*
X134520Y187812D01*
X134685Y188210D01*
Y188641D01*
X134520Y189039D01*
X134216Y189343D01*
X133818Y189508D01*
D02*
G37*
G36*
X130668D02*
X130237D01*
X129840Y189343D01*
X129535Y189039D01*
X129370Y188641D01*
Y188210D01*
X129535Y187812D01*
X129840Y187507D01*
X130237Y187343D01*
X130668D01*
X131066Y187507D01*
X131371Y187812D01*
X131535Y188210D01*
Y188641D01*
X131371Y189039D01*
X131066Y189343D01*
X130668Y189508D01*
D02*
G37*
G36*
X172792Y188407D02*
X172361D01*
X171963Y188242D01*
X171659Y187938D01*
X171494Y187540D01*
Y187109D01*
X171659Y186711D01*
X171963Y186407D01*
X172361Y186242D01*
X172792D01*
X173190Y186407D01*
X173494Y186711D01*
X173659Y187109D01*
Y187540D01*
X173494Y187938D01*
X173190Y188242D01*
X172792Y188407D01*
D02*
G37*
G36*
X211349Y186634D02*
X210918D01*
X210521Y186469D01*
X210216Y186164D01*
X210051Y185766D01*
Y185336D01*
X210216Y184938D01*
X210521Y184633D01*
X210918Y184468D01*
X211349D01*
X211747Y184633D01*
X212052Y184938D01*
X212216Y185336D01*
Y185766D01*
X212052Y186164D01*
X211747Y186469D01*
X211349Y186634D01*
D02*
G37*
G36*
X201916D02*
X201485D01*
X201087Y186469D01*
X200783Y186164D01*
X200618Y185766D01*
Y185336D01*
X200783Y184938D01*
X201087Y184633D01*
X201485Y184468D01*
X201916D01*
X202314Y184633D01*
X202619Y184938D01*
X202783Y185336D01*
Y185766D01*
X202619Y186164D01*
X202314Y186469D01*
X201916Y186634D01*
D02*
G37*
G36*
X189115D02*
X188684D01*
X188286Y186469D01*
X187982Y186164D01*
X187817Y185766D01*
Y185336D01*
X187982Y184938D01*
X188286Y184633D01*
X188684Y184468D01*
X189115D01*
X189513Y184633D01*
X189817Y184938D01*
X189982Y185336D01*
Y185766D01*
X189817Y186164D01*
X189513Y186469D01*
X189115Y186634D01*
D02*
G37*
G36*
X183019D02*
X182588D01*
X182190Y186469D01*
X181885Y186164D01*
X181720Y185766D01*
Y185336D01*
X181885Y184938D01*
X182190Y184633D01*
X182588Y184468D01*
X183019D01*
X183416Y184633D01*
X183721Y184938D01*
X183886Y185336D01*
Y185766D01*
X183721Y186164D01*
X183416Y186469D01*
X183019Y186634D01*
D02*
G37*
G36*
X192461Y186628D02*
X192031D01*
X191633Y186463D01*
X191328Y186159D01*
X191163Y185761D01*
Y185330D01*
X191328Y184932D01*
X191633Y184627D01*
X192031Y184463D01*
X192461D01*
X192859Y184627D01*
X193164Y184932D01*
X193329Y185330D01*
Y185761D01*
X193164Y186159D01*
X192859Y186463D01*
X192461Y186628D01*
D02*
G37*
G36*
X152715Y186358D02*
X152285D01*
X151887Y186193D01*
X151582Y185889D01*
X151417Y185491D01*
Y185060D01*
X151582Y184662D01*
X151887Y184358D01*
X152285Y184193D01*
X152715D01*
X153113Y184358D01*
X153418Y184662D01*
X153583Y185060D01*
Y185491D01*
X153418Y185889D01*
X153113Y186193D01*
X152715Y186358D01*
D02*
G37*
G36*
X133818D02*
X133387D01*
X132989Y186193D01*
X132685Y185889D01*
X132520Y185491D01*
Y185060D01*
X132685Y184662D01*
X132989Y184358D01*
X133387Y184193D01*
X133818D01*
X134216Y184358D01*
X134520Y184662D01*
X134685Y185060D01*
Y185491D01*
X134520Y185889D01*
X134216Y186193D01*
X133818Y186358D01*
D02*
G37*
G36*
X288215Y185083D02*
X287785D01*
X287387Y184918D01*
X287082Y184613D01*
X286917Y184215D01*
Y183785D01*
X287082Y183387D01*
X287387Y183082D01*
X287785Y182917D01*
X288215D01*
X288613Y183082D01*
X288918Y183387D01*
X289083Y183785D01*
Y184215D01*
X288918Y184613D01*
X288613Y184918D01*
X288215Y185083D01*
D02*
G37*
G36*
X283215D02*
X282785D01*
X282387Y184918D01*
X282082Y184613D01*
X281917Y184215D01*
Y183785D01*
X282082Y183387D01*
X282387Y183082D01*
X282785Y182917D01*
X283215D01*
X283613Y183082D01*
X283918Y183387D01*
X284083Y183785D01*
Y184215D01*
X283918Y184613D01*
X283613Y184918D01*
X283215Y185083D01*
D02*
G37*
G36*
X278215D02*
X277785D01*
X277387Y184918D01*
X277082Y184613D01*
X276917Y184215D01*
Y183785D01*
X277082Y183387D01*
X277387Y183082D01*
X277785Y182917D01*
X278215D01*
X278613Y183082D01*
X278918Y183387D01*
X279083Y183785D01*
Y184215D01*
X278918Y184613D01*
X278613Y184918D01*
X278215Y185083D01*
D02*
G37*
G36*
X273215D02*
X272785D01*
X272387Y184918D01*
X272082Y184613D01*
X271917Y184215D01*
Y183785D01*
X272082Y183387D01*
X272387Y183082D01*
X272785Y182917D01*
X273215D01*
X273613Y183082D01*
X273918Y183387D01*
X274083Y183785D01*
Y184215D01*
X273918Y184613D01*
X273613Y184918D01*
X273215Y185083D01*
D02*
G37*
G36*
X268215D02*
X267785D01*
X267387Y184918D01*
X267082Y184613D01*
X266917Y184215D01*
Y183785D01*
X267082Y183387D01*
X267387Y183082D01*
X267785Y182917D01*
X268215D01*
X268613Y183082D01*
X268918Y183387D01*
X269083Y183785D01*
Y184215D01*
X268918Y184613D01*
X268613Y184918D01*
X268215Y185083D01*
D02*
G37*
G36*
X263215D02*
X262785D01*
X262387Y184918D01*
X262082Y184613D01*
X261917Y184215D01*
Y183785D01*
X262082Y183387D01*
X262387Y183082D01*
X262785Y182917D01*
X263215D01*
X263613Y183082D01*
X263918Y183387D01*
X264083Y183785D01*
Y184215D01*
X263918Y184613D01*
X263613Y184918D01*
X263215Y185083D01*
D02*
G37*
G36*
X258215D02*
X257785D01*
X257387Y184918D01*
X257082Y184613D01*
X256917Y184215D01*
Y183785D01*
X257082Y183387D01*
X257387Y183082D01*
X257785Y182917D01*
X258215D01*
X258613Y183082D01*
X258918Y183387D01*
X259083Y183785D01*
Y184215D01*
X258918Y184613D01*
X258613Y184918D01*
X258215Y185083D01*
D02*
G37*
G36*
X220814Y183484D02*
X220383D01*
X219985Y183319D01*
X219681Y183015D01*
X219516Y182617D01*
Y182186D01*
X219681Y181788D01*
X219985Y181484D01*
X220383Y181319D01*
X220814D01*
X221212Y181484D01*
X221516Y181788D01*
X221681Y182186D01*
Y182617D01*
X221516Y183015D01*
X221212Y183319D01*
X220814Y183484D01*
D02*
G37*
G36*
X214515D02*
X214084D01*
X213686Y183319D01*
X213381Y183015D01*
X213216Y182617D01*
Y182186D01*
X213381Y181788D01*
X213686Y181484D01*
X214084Y181319D01*
X214515D01*
X214913Y181484D01*
X215217Y181788D01*
X215382Y182186D01*
Y182617D01*
X215217Y183015D01*
X214913Y183319D01*
X214515Y183484D01*
D02*
G37*
G36*
X198767D02*
X198336D01*
X197938Y183319D01*
X197633Y183015D01*
X197468Y182617D01*
Y182186D01*
X197633Y181788D01*
X197938Y181484D01*
X198336Y181319D01*
X198767D01*
X199164Y181484D01*
X199469Y181788D01*
X199634Y182186D01*
Y182617D01*
X199469Y183015D01*
X199164Y183319D01*
X198767Y183484D01*
D02*
G37*
G36*
X192664D02*
X192234D01*
X191835Y183319D01*
X191531Y183015D01*
X191366Y182617D01*
Y182186D01*
X191531Y181788D01*
X191835Y181484D01*
X192234Y181319D01*
X192664D01*
X193062Y181484D01*
X193367Y181788D01*
X193532Y182186D01*
Y182617D01*
X193367Y183015D01*
X193062Y183319D01*
X192664Y183484D01*
D02*
G37*
G36*
X189318D02*
X188887D01*
X188489Y183319D01*
X188184Y183015D01*
X188020Y182617D01*
Y182186D01*
X188184Y181788D01*
X188489Y181484D01*
X188887Y181319D01*
X189318D01*
X189716Y181484D01*
X190020Y181788D01*
X190185Y182186D01*
Y182617D01*
X190020Y183015D01*
X189716Y183319D01*
X189318Y183484D01*
D02*
G37*
G36*
X186168D02*
X185737D01*
X185339Y183319D01*
X185035Y183015D01*
X184870Y182617D01*
Y182186D01*
X185035Y181788D01*
X185339Y181484D01*
X185737Y181319D01*
X186168D01*
X186566Y181484D01*
X186871Y181788D01*
X187035Y182186D01*
Y182617D01*
X186871Y183015D01*
X186566Y183319D01*
X186168Y183484D01*
D02*
G37*
G36*
X179869D02*
X179438D01*
X179040Y183319D01*
X178736Y183015D01*
X178571Y182617D01*
Y182186D01*
X178736Y181788D01*
X179040Y181484D01*
X179438Y181319D01*
X179869D01*
X180267Y181484D01*
X180571Y181788D01*
X180736Y182186D01*
Y182617D01*
X180571Y183015D01*
X180267Y183319D01*
X179869Y183484D01*
D02*
G37*
G36*
X195617Y183484D02*
X195186D01*
X194788Y183319D01*
X194484Y183015D01*
X194319Y182617D01*
Y182186D01*
X194484Y181788D01*
X194788Y181484D01*
X195186Y181319D01*
X195617D01*
X196015Y181484D01*
X196319Y181788D01*
X196484Y182186D01*
Y182617D01*
X196319Y183015D01*
X196015Y183319D01*
X195617Y183484D01*
D02*
G37*
G36*
X152715Y183209D02*
X152285D01*
X151887Y183044D01*
X151582Y182739D01*
X151417Y182341D01*
Y181911D01*
X151582Y181513D01*
X151887Y181208D01*
X152285Y181043D01*
X152715D01*
X153113Y181208D01*
X153418Y181513D01*
X153583Y181911D01*
Y182341D01*
X153418Y182739D01*
X153113Y183044D01*
X152715Y183209D01*
D02*
G37*
G36*
X133818D02*
X133387D01*
X132989Y183044D01*
X132685Y182739D01*
X132520Y182341D01*
Y181911D01*
X132685Y181513D01*
X132989Y181208D01*
X133387Y181043D01*
X133818D01*
X134216Y181208D01*
X134520Y181513D01*
X134685Y181911D01*
Y182341D01*
X134520Y182739D01*
X134216Y183044D01*
X133818Y183209D01*
D02*
G37*
G36*
X130668D02*
X130237D01*
X129840Y183044D01*
X129535Y182739D01*
X129370Y182341D01*
Y181911D01*
X129535Y181513D01*
X129840Y181208D01*
X130237Y181043D01*
X130668D01*
X131066Y181208D01*
X131371Y181513D01*
X131535Y181911D01*
Y182341D01*
X131371Y182739D01*
X131066Y183044D01*
X130668Y183209D01*
D02*
G37*
G36*
X127518Y183209D02*
X127088D01*
X126690Y183044D01*
X126385Y182739D01*
X126221Y182341D01*
Y181911D01*
X126385Y181513D01*
X126690Y181208D01*
X127088Y181043D01*
X127518D01*
X127916Y181208D01*
X128221Y181513D01*
X128386Y181911D01*
Y182341D01*
X128221Y182739D01*
X127916Y183044D01*
X127518Y183209D01*
D02*
G37*
G36*
X223963Y180335D02*
X223533D01*
X223135Y180170D01*
X222830Y179865D01*
X222665Y179467D01*
Y179037D01*
X222830Y178639D01*
X223135Y178334D01*
X223533Y178169D01*
X223963D01*
X224361Y178334D01*
X224666Y178639D01*
X224831Y179037D01*
Y179467D01*
X224666Y179865D01*
X224361Y180170D01*
X223963Y180335D01*
D02*
G37*
G36*
X220814D02*
X220383D01*
X219985Y180170D01*
X219681Y179865D01*
X219516Y179467D01*
Y179037D01*
X219681Y178639D01*
X219985Y178334D01*
X220383Y178169D01*
X220814D01*
X221212Y178334D01*
X221516Y178639D01*
X221681Y179037D01*
Y179467D01*
X221516Y179865D01*
X221212Y180170D01*
X220814Y180335D01*
D02*
G37*
G36*
X205066D02*
X204635D01*
X204237Y180170D01*
X203933Y179865D01*
X203768Y179467D01*
Y179037D01*
X203933Y178639D01*
X204237Y178334D01*
X204635Y178169D01*
X205066D01*
X205464Y178334D01*
X205768Y178639D01*
X205933Y179037D01*
Y179467D01*
X205768Y179865D01*
X205464Y180170D01*
X205066Y180335D01*
D02*
G37*
G36*
X189318D02*
X188887D01*
X188489Y180170D01*
X188184Y179865D01*
X188020Y179467D01*
Y179037D01*
X188184Y178639D01*
X188489Y178334D01*
X188887Y178169D01*
X189318D01*
X189716Y178334D01*
X190020Y178639D01*
X190185Y179037D01*
Y179467D01*
X190020Y179865D01*
X189716Y180170D01*
X189318Y180335D01*
D02*
G37*
G36*
X186168D02*
X185737D01*
X185339Y180170D01*
X185035Y179865D01*
X184870Y179467D01*
Y179037D01*
X185035Y178639D01*
X185339Y178334D01*
X185737Y178169D01*
X186168D01*
X186566Y178334D01*
X186871Y178639D01*
X187035Y179037D01*
Y179467D01*
X186871Y179865D01*
X186566Y180170D01*
X186168Y180335D01*
D02*
G37*
G36*
X201916Y180335D02*
X201485D01*
X201087Y180170D01*
X200783Y179865D01*
X200618Y179467D01*
Y179037D01*
X200783Y178639D01*
X201087Y178334D01*
X201485Y178169D01*
X201916D01*
X202314Y178334D01*
X202619Y178639D01*
X202783Y179037D01*
Y179467D01*
X202619Y179865D01*
X202314Y180170D01*
X201916Y180335D01*
D02*
G37*
G36*
X211365Y180319D02*
X210934D01*
X210536Y180154D01*
X210232Y179850D01*
X210067Y179452D01*
Y179021D01*
X210232Y178623D01*
X210536Y178318D01*
X210934Y178154D01*
X211365D01*
X211763Y178318D01*
X212067Y178623D01*
X212232Y179021D01*
Y179452D01*
X212067Y179850D01*
X211763Y180154D01*
X211365Y180319D01*
D02*
G37*
G36*
X298215Y180083D02*
X297785D01*
X297387Y179918D01*
X297082Y179613D01*
X296917Y179215D01*
Y178785D01*
X297082Y178387D01*
X297387Y178082D01*
X297785Y177917D01*
X298215D01*
X298613Y178082D01*
X298918Y178387D01*
X299083Y178785D01*
Y179215D01*
X298918Y179613D01*
X298613Y179918D01*
X298215Y180083D01*
D02*
G37*
G36*
X293215D02*
X292785D01*
X292387Y179918D01*
X292082Y179613D01*
X291917Y179215D01*
Y178785D01*
X292082Y178387D01*
X292387Y178082D01*
X292785Y177917D01*
X293215D01*
X293613Y178082D01*
X293918Y178387D01*
X294083Y178785D01*
Y179215D01*
X293918Y179613D01*
X293613Y179918D01*
X293215Y180083D01*
D02*
G37*
G36*
X288215D02*
X287785D01*
X287387Y179918D01*
X287082Y179613D01*
X286917Y179215D01*
Y178785D01*
X287082Y178387D01*
X287387Y178082D01*
X287785Y177917D01*
X288215D01*
X288613Y178082D01*
X288918Y178387D01*
X289083Y178785D01*
Y179215D01*
X288918Y179613D01*
X288613Y179918D01*
X288215Y180083D01*
D02*
G37*
G36*
X283215D02*
X282785D01*
X282387Y179918D01*
X282082Y179613D01*
X281917Y179215D01*
Y178785D01*
X282082Y178387D01*
X282387Y178082D01*
X282785Y177917D01*
X283215D01*
X283613Y178082D01*
X283918Y178387D01*
X284083Y178785D01*
Y179215D01*
X283918Y179613D01*
X283613Y179918D01*
X283215Y180083D01*
D02*
G37*
G36*
X278215D02*
X277785D01*
X277387Y179918D01*
X277082Y179613D01*
X276917Y179215D01*
Y178785D01*
X277082Y178387D01*
X277387Y178082D01*
X277785Y177917D01*
X278215D01*
X278613Y178082D01*
X278918Y178387D01*
X279083Y178785D01*
Y179215D01*
X278918Y179613D01*
X278613Y179918D01*
X278215Y180083D01*
D02*
G37*
G36*
X273215D02*
X272785D01*
X272387Y179918D01*
X272082Y179613D01*
X271917Y179215D01*
Y178785D01*
X272082Y178387D01*
X272387Y178082D01*
X272785Y177917D01*
X273215D01*
X273613Y178082D01*
X273918Y178387D01*
X274083Y178785D01*
Y179215D01*
X273918Y179613D01*
X273613Y179918D01*
X273215Y180083D01*
D02*
G37*
G36*
X268215D02*
X267785D01*
X267387Y179918D01*
X267082Y179613D01*
X266917Y179215D01*
Y178785D01*
X267082Y178387D01*
X267387Y178082D01*
X267785Y177917D01*
X268215D01*
X268613Y178082D01*
X268918Y178387D01*
X269083Y178785D01*
Y179215D01*
X268918Y179613D01*
X268613Y179918D01*
X268215Y180083D01*
D02*
G37*
G36*
X263215D02*
X262785D01*
X262387Y179918D01*
X262082Y179613D01*
X261917Y179215D01*
Y178785D01*
X262082Y178387D01*
X262387Y178082D01*
X262785Y177917D01*
X263215D01*
X263613Y178082D01*
X263918Y178387D01*
X264083Y178785D01*
Y179215D01*
X263918Y179613D01*
X263613Y179918D01*
X263215Y180083D01*
D02*
G37*
G36*
X258215D02*
X257785D01*
X257387Y179918D01*
X257082Y179613D01*
X256917Y179215D01*
Y178785D01*
X257082Y178387D01*
X257387Y178082D01*
X257785Y177917D01*
X258215D01*
X258613Y178082D01*
X258918Y178387D01*
X259083Y178785D01*
Y179215D01*
X258918Y179613D01*
X258613Y179918D01*
X258215Y180083D01*
D02*
G37*
G36*
X155865Y180059D02*
X155434D01*
X155036Y179894D01*
X154732Y179590D01*
X154567Y179192D01*
Y178761D01*
X154732Y178363D01*
X155036Y178059D01*
X155434Y177894D01*
X155865D01*
X156263Y178059D01*
X156567Y178363D01*
X156732Y178761D01*
Y179192D01*
X156567Y179590D01*
X156263Y179894D01*
X155865Y180059D01*
D02*
G37*
G36*
X152715D02*
X152285D01*
X151887Y179894D01*
X151582Y179590D01*
X151417Y179192D01*
Y178761D01*
X151582Y178363D01*
X151887Y178059D01*
X152285Y177894D01*
X152715D01*
X153113Y178059D01*
X153418Y178363D01*
X153583Y178761D01*
Y179192D01*
X153418Y179590D01*
X153113Y179894D01*
X152715Y180059D01*
D02*
G37*
G36*
X136967D02*
X136537D01*
X136139Y179894D01*
X135834Y179590D01*
X135669Y179192D01*
Y178761D01*
X135834Y178363D01*
X136139Y178059D01*
X136537Y177894D01*
X136967D01*
X137365Y178059D01*
X137670Y178363D01*
X137835Y178761D01*
Y179192D01*
X137670Y179590D01*
X137365Y179894D01*
X136967Y180059D01*
D02*
G37*
G36*
X130668D02*
X130237D01*
X129840Y179894D01*
X129535Y179590D01*
X129370Y179192D01*
Y178761D01*
X129535Y178363D01*
X129840Y178059D01*
X130237Y177894D01*
X130668D01*
X131066Y178059D01*
X131371Y178363D01*
X131535Y178761D01*
Y179192D01*
X131371Y179590D01*
X131066Y179894D01*
X130668Y180059D01*
D02*
G37*
G36*
X167092Y179907D02*
X166661D01*
X166263Y179742D01*
X165958Y179438D01*
X165794Y179040D01*
Y178609D01*
X165958Y178211D01*
X166263Y177907D01*
X166661Y177742D01*
X167092D01*
X167490Y177907D01*
X167794Y178211D01*
X167959Y178609D01*
Y179040D01*
X167794Y179438D01*
X167490Y179742D01*
X167092Y179907D01*
D02*
G37*
G36*
X171692Y178207D02*
X171261D01*
X170863Y178042D01*
X170559Y177738D01*
X170394Y177340D01*
Y176909D01*
X170559Y176511D01*
X170863Y176207D01*
X171261Y176042D01*
X171692D01*
X172090Y176207D01*
X172394Y176511D01*
X172559Y176909D01*
Y177340D01*
X172394Y177738D01*
X172090Y178042D01*
X171692Y178207D01*
D02*
G37*
G36*
X214515Y177185D02*
X214084D01*
X213686Y177020D01*
X213381Y176716D01*
X213216Y176318D01*
Y175887D01*
X213381Y175489D01*
X213686Y175185D01*
X214084Y175020D01*
X214515D01*
X214913Y175185D01*
X215217Y175489D01*
X215382Y175887D01*
Y176318D01*
X215217Y176716D01*
X214913Y177020D01*
X214515Y177185D01*
D02*
G37*
G36*
X211349D02*
X210918D01*
X210521Y177020D01*
X210216Y176716D01*
X210051Y176318D01*
Y175887D01*
X210216Y175489D01*
X210521Y175185D01*
X210918Y175020D01*
X211349D01*
X211747Y175185D01*
X212052Y175489D01*
X212216Y175887D01*
Y176318D01*
X212052Y176716D01*
X211747Y177020D01*
X211349Y177185D01*
D02*
G37*
G36*
X205066D02*
X204635D01*
X204237Y177020D01*
X203933Y176716D01*
X203768Y176318D01*
Y175887D01*
X203933Y175489D01*
X204237Y175185D01*
X204635Y175020D01*
X205066D01*
X205464Y175185D01*
X205768Y175489D01*
X205933Y175887D01*
Y176318D01*
X205768Y176716D01*
X205464Y177020D01*
X205066Y177185D01*
D02*
G37*
G36*
X152715Y176909D02*
X152285D01*
X151887Y176745D01*
X151582Y176440D01*
X151417Y176042D01*
Y175611D01*
X151582Y175214D01*
X151887Y174909D01*
X152285Y174744D01*
X152715D01*
X153113Y174909D01*
X153418Y175214D01*
X153583Y175611D01*
Y176042D01*
X153418Y176440D01*
X153113Y176745D01*
X152715Y176909D01*
D02*
G37*
G36*
X149566D02*
X149135D01*
X148737Y176745D01*
X148433Y176440D01*
X148268Y176042D01*
Y175611D01*
X148433Y175214D01*
X148737Y174909D01*
X149135Y174744D01*
X149566D01*
X149964Y174909D01*
X150268Y175214D01*
X150433Y175611D01*
Y176042D01*
X150268Y176440D01*
X149964Y176745D01*
X149566Y176909D01*
D02*
G37*
G36*
X136967Y176909D02*
X136537D01*
X136139Y176745D01*
X135834Y176440D01*
X135669Y176042D01*
Y175611D01*
X135834Y175214D01*
X136139Y174909D01*
X136537Y174744D01*
X136967D01*
X137365Y174909D01*
X137670Y175214D01*
X137835Y175611D01*
Y176042D01*
X137670Y176440D01*
X137365Y176745D01*
X136967Y176909D01*
D02*
G37*
G36*
X133818D02*
X133387D01*
X132989Y176745D01*
X132685Y176440D01*
X132520Y176042D01*
Y175611D01*
X132685Y175214D01*
X132989Y174909D01*
X133387Y174744D01*
X133818D01*
X134216Y174909D01*
X134520Y175214D01*
X134685Y175611D01*
Y176042D01*
X134520Y176440D01*
X134216Y176745D01*
X133818Y176909D01*
D02*
G37*
G36*
X298215Y175083D02*
X297785D01*
X297387Y174918D01*
X297082Y174613D01*
X296917Y174215D01*
Y173785D01*
X297082Y173387D01*
X297387Y173082D01*
X297785Y172917D01*
X298215D01*
X298613Y173082D01*
X298918Y173387D01*
X299083Y173785D01*
Y174215D01*
X298918Y174613D01*
X298613Y174918D01*
X298215Y175083D01*
D02*
G37*
G36*
X293215D02*
X292785D01*
X292387Y174918D01*
X292082Y174613D01*
X291917Y174215D01*
Y173785D01*
X292082Y173387D01*
X292387Y173082D01*
X292785Y172917D01*
X293215D01*
X293613Y173082D01*
X293918Y173387D01*
X294083Y173785D01*
Y174215D01*
X293918Y174613D01*
X293613Y174918D01*
X293215Y175083D01*
D02*
G37*
G36*
X288215D02*
X287785D01*
X287387Y174918D01*
X287082Y174613D01*
X286917Y174215D01*
Y173785D01*
X287082Y173387D01*
X287387Y173082D01*
X287785Y172917D01*
X288215D01*
X288613Y173082D01*
X288918Y173387D01*
X289083Y173785D01*
Y174215D01*
X288918Y174613D01*
X288613Y174918D01*
X288215Y175083D01*
D02*
G37*
G36*
X268215D02*
X267785D01*
X267387Y174918D01*
X267082Y174613D01*
X266917Y174215D01*
Y173785D01*
X267082Y173387D01*
X267387Y173082D01*
X267785Y172917D01*
X268215D01*
X268613Y173082D01*
X268918Y173387D01*
X269083Y173785D01*
Y174215D01*
X268918Y174613D01*
X268613Y174918D01*
X268215Y175083D01*
D02*
G37*
G36*
X214530Y174035D02*
X214100D01*
X213702Y173871D01*
X213397Y173566D01*
X213232Y173168D01*
Y172737D01*
X213397Y172339D01*
X213702Y172035D01*
X214100Y171870D01*
X214530D01*
X214928Y172035D01*
X215233Y172339D01*
X215398Y172737D01*
Y173168D01*
X215233Y173566D01*
X214928Y173871D01*
X214530Y174035D01*
D02*
G37*
G36*
X176719D02*
X176289D01*
X175891Y173871D01*
X175586Y173566D01*
X175421Y173168D01*
Y172737D01*
X175586Y172339D01*
X175891Y172035D01*
X176289Y171870D01*
X176719D01*
X177117Y172035D01*
X177422Y172339D01*
X177587Y172737D01*
Y173168D01*
X177422Y173566D01*
X177117Y173871D01*
X176719Y174035D01*
D02*
G37*
G36*
X155865Y173760D02*
X155434D01*
X155036Y173595D01*
X154732Y173291D01*
X154567Y172892D01*
Y172462D01*
X154732Y172064D01*
X155036Y171759D01*
X155434Y171595D01*
X155865D01*
X156263Y171759D01*
X156567Y172064D01*
X156732Y172462D01*
Y172892D01*
X156567Y173291D01*
X156263Y173595D01*
X155865Y173760D01*
D02*
G37*
G36*
X152715D02*
X152285D01*
X151887Y173595D01*
X151582Y173291D01*
X151417Y172892D01*
Y172462D01*
X151582Y172064D01*
X151887Y171759D01*
X152285Y171595D01*
X152715D01*
X153113Y171759D01*
X153418Y172064D01*
X153583Y172462D01*
Y172892D01*
X153418Y173291D01*
X153113Y173595D01*
X152715Y173760D01*
D02*
G37*
G36*
X146416D02*
X145985D01*
X145588Y173595D01*
X145283Y173291D01*
X145118Y172892D01*
Y172462D01*
X145283Y172064D01*
X145588Y171759D01*
X145985Y171595D01*
X146416D01*
X146814Y171759D01*
X147119Y172064D01*
X147283Y172462D01*
Y172892D01*
X147119Y173291D01*
X146814Y173595D01*
X146416Y173760D01*
D02*
G37*
G36*
X133818D02*
X133387D01*
X132989Y173595D01*
X132685Y173291D01*
X132520Y172892D01*
Y172462D01*
X132685Y172064D01*
X132989Y171759D01*
X133387Y171595D01*
X133818D01*
X134216Y171759D01*
X134520Y172064D01*
X134685Y172462D01*
Y172892D01*
X134520Y173291D01*
X134216Y173595D01*
X133818Y173760D01*
D02*
G37*
G36*
X198767Y170886D02*
X198336D01*
X197938Y170721D01*
X197633Y170416D01*
X197468Y170018D01*
Y169588D01*
X197633Y169190D01*
X197938Y168885D01*
X198336Y168720D01*
X198767D01*
X199164Y168885D01*
X199469Y169190D01*
X199634Y169588D01*
Y170018D01*
X199469Y170416D01*
X199164Y170721D01*
X198767Y170886D01*
D02*
G37*
G36*
X152715Y170610D02*
X152285D01*
X151887Y170445D01*
X151582Y170141D01*
X151417Y169743D01*
Y169312D01*
X151582Y168914D01*
X151887Y168610D01*
X152285Y168445D01*
X152715D01*
X153113Y168610D01*
X153418Y168914D01*
X153583Y169312D01*
Y169743D01*
X153418Y170141D01*
X153113Y170445D01*
X152715Y170610D01*
D02*
G37*
G36*
X136967D02*
X136537D01*
X136139Y170445D01*
X135834Y170141D01*
X135669Y169743D01*
Y169312D01*
X135834Y168914D01*
X136139Y168610D01*
X136537Y168445D01*
X136967D01*
X137365Y168610D01*
X137670Y168914D01*
X137835Y169312D01*
Y169743D01*
X137670Y170141D01*
X137365Y170445D01*
X136967Y170610D01*
D02*
G37*
G36*
X133818D02*
X133387D01*
X132989Y170445D01*
X132685Y170141D01*
X132520Y169743D01*
Y169312D01*
X132685Y168914D01*
X132989Y168610D01*
X133387Y168445D01*
X133818D01*
X134216Y168610D01*
X134520Y168914D01*
X134685Y169312D01*
Y169743D01*
X134520Y170141D01*
X134216Y170445D01*
X133818Y170610D01*
D02*
G37*
G36*
X298215Y170083D02*
X297785D01*
X297387Y169918D01*
X297082Y169613D01*
X296917Y169215D01*
Y168785D01*
X297082Y168387D01*
X297387Y168082D01*
X297785Y167917D01*
X298215D01*
X298613Y168082D01*
X298918Y168387D01*
X299083Y168785D01*
Y169215D01*
X298918Y169613D01*
X298613Y169918D01*
X298215Y170083D01*
D02*
G37*
G36*
X293215D02*
X292785D01*
X292387Y169918D01*
X292082Y169613D01*
X291917Y169215D01*
Y168785D01*
X292082Y168387D01*
X292387Y168082D01*
X292785Y167917D01*
X293215D01*
X293613Y168082D01*
X293918Y168387D01*
X294083Y168785D01*
Y169215D01*
X293918Y169613D01*
X293613Y169918D01*
X293215Y170083D01*
D02*
G37*
G36*
X288215D02*
X287785D01*
X287387Y169918D01*
X287082Y169613D01*
X286917Y169215D01*
Y168785D01*
X287082Y168387D01*
X287387Y168082D01*
X287785Y167917D01*
X288215D01*
X288613Y168082D01*
X288918Y168387D01*
X289083Y168785D01*
Y169215D01*
X288918Y169613D01*
X288613Y169918D01*
X288215Y170083D01*
D02*
G37*
G36*
X283215D02*
X282785D01*
X282387Y169918D01*
X282082Y169613D01*
X281917Y169215D01*
Y168785D01*
X282082Y168387D01*
X282387Y168082D01*
X282785Y167917D01*
X283215D01*
X283613Y168082D01*
X283918Y168387D01*
X284083Y168785D01*
Y169215D01*
X283918Y169613D01*
X283613Y169918D01*
X283215Y170083D01*
D02*
G37*
G36*
X278215D02*
X277785D01*
X277387Y169918D01*
X277082Y169613D01*
X276917Y169215D01*
Y168785D01*
X277082Y168387D01*
X277387Y168082D01*
X277785Y167917D01*
X278215D01*
X278613Y168082D01*
X278918Y168387D01*
X279083Y168785D01*
Y169215D01*
X278918Y169613D01*
X278613Y169918D01*
X278215Y170083D01*
D02*
G37*
G36*
X263215D02*
X262785D01*
X262387Y169918D01*
X262082Y169613D01*
X261917Y169215D01*
Y168785D01*
X262082Y168387D01*
X262387Y168082D01*
X262785Y167917D01*
X263215D01*
X263613Y168082D01*
X263918Y168387D01*
X264083Y168785D01*
Y169215D01*
X263918Y169613D01*
X263613Y169918D01*
X263215Y170083D01*
D02*
G37*
G36*
X258215D02*
X257785D01*
X257387Y169918D01*
X257082Y169613D01*
X256917Y169215D01*
Y168785D01*
X257082Y168387D01*
X257387Y168082D01*
X257785Y167917D01*
X258215D01*
X258613Y168082D01*
X258918Y168387D01*
X259083Y168785D01*
Y169215D01*
X258918Y169613D01*
X258613Y169918D01*
X258215Y170083D01*
D02*
G37*
G36*
X118638Y166298D02*
X118012D01*
X117433Y166059D01*
X116990Y165616D01*
X116750Y165037D01*
Y164410D01*
X116990Y163832D01*
X117433Y163389D01*
X118012Y163149D01*
X118638D01*
X119217Y163389D01*
X119660Y163832D01*
X119900Y164410D01*
Y165037D01*
X119660Y165616D01*
X119217Y166059D01*
X118638Y166298D01*
D02*
G37*
G36*
X298215Y165083D02*
X297785D01*
X297387Y164918D01*
X297082Y164613D01*
X296917Y164215D01*
Y163785D01*
X297082Y163387D01*
X297387Y163082D01*
X297785Y162917D01*
X298215D01*
X298613Y163082D01*
X298918Y163387D01*
X299083Y163785D01*
Y164215D01*
X298918Y164613D01*
X298613Y164918D01*
X298215Y165083D01*
D02*
G37*
G36*
X293215D02*
X292785D01*
X292387Y164918D01*
X292082Y164613D01*
X291917Y164215D01*
Y163785D01*
X292082Y163387D01*
X292387Y163082D01*
X292785Y162917D01*
X293215D01*
X293613Y163082D01*
X293918Y163387D01*
X294083Y163785D01*
Y164215D01*
X293918Y164613D01*
X293613Y164918D01*
X293215Y165083D01*
D02*
G37*
G36*
X288215D02*
X287785D01*
X287387Y164918D01*
X287082Y164613D01*
X286917Y164215D01*
Y163785D01*
X287082Y163387D01*
X287387Y163082D01*
X287785Y162917D01*
X288215D01*
X288613Y163082D01*
X288918Y163387D01*
X289083Y163785D01*
Y164215D01*
X288918Y164613D01*
X288613Y164918D01*
X288215Y165083D01*
D02*
G37*
G36*
X283215D02*
X282785D01*
X282387Y164918D01*
X282082Y164613D01*
X281917Y164215D01*
Y163785D01*
X282082Y163387D01*
X282387Y163082D01*
X282785Y162917D01*
X283215D01*
X283613Y163082D01*
X283918Y163387D01*
X284083Y163785D01*
Y164215D01*
X283918Y164613D01*
X283613Y164918D01*
X283215Y165083D01*
D02*
G37*
G36*
X273215D02*
X272785D01*
X272387Y164918D01*
X272082Y164613D01*
X271917Y164215D01*
Y163785D01*
X272082Y163387D01*
X272387Y163082D01*
X272785Y162917D01*
X273215D01*
X273613Y163082D01*
X273918Y163387D01*
X274083Y163785D01*
Y164215D01*
X273918Y164613D01*
X273613Y164918D01*
X273215Y165083D01*
D02*
G37*
G36*
X268215D02*
X267785D01*
X267387Y164918D01*
X267082Y164613D01*
X266917Y164215D01*
Y163785D01*
X267082Y163387D01*
X267387Y163082D01*
X267785Y162917D01*
X268215D01*
X268613Y163082D01*
X268918Y163387D01*
X269083Y163785D01*
Y164215D01*
X268918Y164613D01*
X268613Y164918D01*
X268215Y165083D01*
D02*
G37*
G36*
X183815Y162083D02*
X183385D01*
X182987Y161918D01*
X182682Y161613D01*
X182517Y161215D01*
Y160785D01*
X182682Y160387D01*
X182987Y160082D01*
X183385Y159917D01*
X183815D01*
X184213Y160082D01*
X184518Y160387D01*
X184683Y160785D01*
Y161215D01*
X184518Y161613D01*
X184213Y161918D01*
X183815Y162083D01*
D02*
G37*
G36*
X119685Y161802D02*
X119059D01*
X118480Y161563D01*
X118037Y161120D01*
X117798Y160541D01*
Y159915D01*
X118037Y159336D01*
X118480Y158893D01*
X119059Y158653D01*
X119685D01*
X120264Y158893D01*
X120707Y159336D01*
X120947Y159915D01*
Y160541D01*
X120707Y161120D01*
X120264Y161563D01*
X119685Y161802D01*
D02*
G37*
G36*
X298215Y160083D02*
X297785D01*
X297387Y159918D01*
X297082Y159613D01*
X296917Y159215D01*
Y158785D01*
X297082Y158387D01*
X297387Y158082D01*
X297785Y157917D01*
X298215D01*
X298613Y158082D01*
X298918Y158387D01*
X299083Y158785D01*
Y159215D01*
X298918Y159613D01*
X298613Y159918D01*
X298215Y160083D01*
D02*
G37*
G36*
X293215D02*
X292785D01*
X292387Y159918D01*
X292082Y159613D01*
X291917Y159215D01*
Y158785D01*
X292082Y158387D01*
X292387Y158082D01*
X292785Y157917D01*
X293215D01*
X293613Y158082D01*
X293918Y158387D01*
X294083Y158785D01*
Y159215D01*
X293918Y159613D01*
X293613Y159918D01*
X293215Y160083D01*
D02*
G37*
G36*
X288215D02*
X287785D01*
X287387Y159918D01*
X287082Y159613D01*
X286917Y159215D01*
Y158785D01*
X287082Y158387D01*
X287387Y158082D01*
X287785Y157917D01*
X288215D01*
X288613Y158082D01*
X288918Y158387D01*
X289083Y158785D01*
Y159215D01*
X288918Y159613D01*
X288613Y159918D01*
X288215Y160083D01*
D02*
G37*
G36*
X283215D02*
X282785D01*
X282387Y159918D01*
X282082Y159613D01*
X281917Y159215D01*
Y158785D01*
X282082Y158387D01*
X282387Y158082D01*
X282785Y157917D01*
X283215D01*
X283613Y158082D01*
X283918Y158387D01*
X284083Y158785D01*
Y159215D01*
X283918Y159613D01*
X283613Y159918D01*
X283215Y160083D01*
D02*
G37*
G36*
X278215D02*
X277785D01*
X277387Y159918D01*
X277082Y159613D01*
X276917Y159215D01*
Y158785D01*
X277082Y158387D01*
X277387Y158082D01*
X277785Y157917D01*
X278215D01*
X278613Y158082D01*
X278918Y158387D01*
X279083Y158785D01*
Y159215D01*
X278918Y159613D01*
X278613Y159918D01*
X278215Y160083D01*
D02*
G37*
G36*
X273215D02*
X272785D01*
X272387Y159918D01*
X272082Y159613D01*
X271917Y159215D01*
Y158785D01*
X272082Y158387D01*
X272387Y158082D01*
X272785Y157917D01*
X273215D01*
X273613Y158082D01*
X273918Y158387D01*
X274083Y158785D01*
Y159215D01*
X273918Y159613D01*
X273613Y159918D01*
X273215Y160083D01*
D02*
G37*
G36*
X268215D02*
X267785D01*
X267387Y159918D01*
X267082Y159613D01*
X266917Y159215D01*
Y158785D01*
X267082Y158387D01*
X267387Y158082D01*
X267785Y157917D01*
X268215D01*
X268613Y158082D01*
X268918Y158387D01*
X269083Y158785D01*
Y159215D01*
X268918Y159613D01*
X268613Y159918D01*
X268215Y160083D01*
D02*
G37*
G36*
X263215D02*
X262785D01*
X262387Y159918D01*
X262082Y159613D01*
X261917Y159215D01*
Y158785D01*
X262082Y158387D01*
X262387Y158082D01*
X262785Y157917D01*
X263215D01*
X263613Y158082D01*
X263918Y158387D01*
X264083Y158785D01*
Y159215D01*
X263918Y159613D01*
X263613Y159918D01*
X263215Y160083D01*
D02*
G37*
G36*
X159147Y159785D02*
X158521D01*
X157942Y159545D01*
X157499Y159102D01*
X157259Y158523D01*
Y157897D01*
X157499Y157318D01*
X157942Y156875D01*
X158521Y156635D01*
X159147D01*
X159726Y156875D01*
X160169Y157318D01*
X160409Y157897D01*
Y158523D01*
X160169Y159102D01*
X159726Y159545D01*
X159147Y159785D01*
D02*
G37*
G36*
X150879D02*
X150253D01*
X149674Y159545D01*
X149231Y159102D01*
X148991Y158523D01*
Y157897D01*
X149231Y157318D01*
X149674Y156875D01*
X150253Y156635D01*
X150879D01*
X151458Y156875D01*
X151901Y157318D01*
X152141Y157897D01*
Y158523D01*
X151901Y159102D01*
X151458Y159545D01*
X150879Y159785D01*
D02*
G37*
G36*
X298215Y155083D02*
X297785D01*
X297387Y154918D01*
X297082Y154613D01*
X296917Y154215D01*
Y153785D01*
X297082Y153387D01*
X297387Y153082D01*
X297785Y152917D01*
X298215D01*
X298613Y153082D01*
X298918Y153387D01*
X299083Y153785D01*
Y154215D01*
X298918Y154613D01*
X298613Y154918D01*
X298215Y155083D01*
D02*
G37*
G36*
X293215D02*
X292785D01*
X292387Y154918D01*
X292082Y154613D01*
X291917Y154215D01*
Y153785D01*
X292082Y153387D01*
X292387Y153082D01*
X292785Y152917D01*
X293215D01*
X293613Y153082D01*
X293918Y153387D01*
X294083Y153785D01*
Y154215D01*
X293918Y154613D01*
X293613Y154918D01*
X293215Y155083D01*
D02*
G37*
G36*
X288215D02*
X287785D01*
X287387Y154918D01*
X287082Y154613D01*
X286917Y154215D01*
Y153785D01*
X287082Y153387D01*
X287387Y153082D01*
X287785Y152917D01*
X288215D01*
X288613Y153082D01*
X288918Y153387D01*
X289083Y153785D01*
Y154215D01*
X288918Y154613D01*
X288613Y154918D01*
X288215Y155083D01*
D02*
G37*
G36*
X283215D02*
X282785D01*
X282387Y154918D01*
X282082Y154613D01*
X281917Y154215D01*
Y153785D01*
X282082Y153387D01*
X282387Y153082D01*
X282785Y152917D01*
X283215D01*
X283613Y153082D01*
X283918Y153387D01*
X284083Y153785D01*
Y154215D01*
X283918Y154613D01*
X283613Y154918D01*
X283215Y155083D01*
D02*
G37*
G36*
X278215D02*
X277785D01*
X277387Y154918D01*
X277082Y154613D01*
X276917Y154215D01*
Y153785D01*
X277082Y153387D01*
X277387Y153082D01*
X277785Y152917D01*
X278215D01*
X278613Y153082D01*
X278918Y153387D01*
X279083Y153785D01*
Y154215D01*
X278918Y154613D01*
X278613Y154918D01*
X278215Y155083D01*
D02*
G37*
G36*
X273215D02*
X272785D01*
X272387Y154918D01*
X272082Y154613D01*
X271917Y154215D01*
Y153785D01*
X272082Y153387D01*
X272387Y153082D01*
X272785Y152917D01*
X273215D01*
X273613Y153082D01*
X273918Y153387D01*
X274083Y153785D01*
Y154215D01*
X273918Y154613D01*
X273613Y154918D01*
X273215Y155083D01*
D02*
G37*
G36*
X133846Y153859D02*
X133220D01*
X132641Y153619D01*
X132198Y153176D01*
X131958Y152597D01*
Y151971D01*
X132198Y151392D01*
X132641Y150949D01*
X133220Y150709D01*
X133846D01*
X134425Y150949D01*
X134868Y151392D01*
X135108Y151971D01*
Y152597D01*
X134868Y153176D01*
X134425Y153619D01*
X133846Y153859D01*
D02*
G37*
G36*
X242215Y150583D02*
X241785D01*
X241387Y150418D01*
X241082Y150113D01*
X240917Y149715D01*
Y149285D01*
X241082Y148887D01*
X241387Y148582D01*
X241785Y148417D01*
X242215D01*
X242613Y148582D01*
X242918Y148887D01*
X243083Y149285D01*
Y149715D01*
X242918Y150113D01*
X242613Y150418D01*
X242215Y150583D01*
D02*
G37*
G36*
X191338Y150554D02*
X190711D01*
X190132Y150314D01*
X189690Y149871D01*
X189450Y149292D01*
Y148665D01*
X189690Y148087D01*
X190132Y147644D01*
X190711Y147404D01*
X191338D01*
X191917Y147644D01*
X192360Y148087D01*
X192599Y148665D01*
Y149292D01*
X192360Y149871D01*
X191917Y150314D01*
X191338Y150554D01*
D02*
G37*
G36*
X133813Y147875D02*
X133187D01*
X132608Y147635D01*
X132165Y147192D01*
X131925Y146613D01*
Y145987D01*
X132165Y145408D01*
X132608Y144965D01*
X133187Y144725D01*
X133813D01*
X134392Y144965D01*
X134835Y145408D01*
X135075Y145987D01*
Y146613D01*
X134835Y147192D01*
X134392Y147635D01*
X133813Y147875D01*
D02*
G37*
G36*
X298313Y145575D02*
X297687D01*
X297108Y145335D01*
X296665Y144892D01*
X296425Y144313D01*
Y143687D01*
X296665Y143108D01*
X297108Y142665D01*
X297687Y142425D01*
X298313D01*
X298892Y142665D01*
X299335Y143108D01*
X299575Y143687D01*
Y144313D01*
X299335Y144892D01*
X298892Y145335D01*
X298313Y145575D01*
D02*
G37*
G36*
X293313D02*
X292687D01*
X292108Y145335D01*
X291665Y144892D01*
X291425Y144313D01*
Y143687D01*
X291665Y143108D01*
X292108Y142665D01*
X292687Y142425D01*
X293313D01*
X293892Y142665D01*
X294335Y143108D01*
X294575Y143687D01*
Y144313D01*
X294335Y144892D01*
X293892Y145335D01*
X293313Y145575D01*
D02*
G37*
G36*
X288313D02*
X287687D01*
X287108Y145335D01*
X286665Y144892D01*
X286425Y144313D01*
Y143687D01*
X286665Y143108D01*
X287108Y142665D01*
X287687Y142425D01*
X288313D01*
X288892Y142665D01*
X289335Y143108D01*
X289575Y143687D01*
Y144313D01*
X289335Y144892D01*
X288892Y145335D01*
X288313Y145575D01*
D02*
G37*
G36*
X283313D02*
X282687D01*
X282108Y145335D01*
X281665Y144892D01*
X281425Y144313D01*
Y143687D01*
X281665Y143108D01*
X282108Y142665D01*
X282687Y142425D01*
X283313D01*
X283892Y142665D01*
X284335Y143108D01*
X284575Y143687D01*
Y144313D01*
X284335Y144892D01*
X283892Y145335D01*
X283313Y145575D01*
D02*
G37*
G36*
X278313D02*
X277687D01*
X277108Y145335D01*
X276665Y144892D01*
X276425Y144313D01*
Y143687D01*
X276665Y143108D01*
X277108Y142665D01*
X277687Y142425D01*
X278313D01*
X278892Y142665D01*
X279335Y143108D01*
X279575Y143687D01*
Y144313D01*
X279335Y144892D01*
X278892Y145335D01*
X278313Y145575D01*
D02*
G37*
G36*
X273313D02*
X272687D01*
X272108Y145335D01*
X271665Y144892D01*
X271425Y144313D01*
Y143687D01*
X271665Y143108D01*
X272108Y142665D01*
X272687Y142425D01*
X273313D01*
X273892Y142665D01*
X274335Y143108D01*
X274575Y143687D01*
Y144313D01*
X274335Y144892D01*
X273892Y145335D01*
X273313Y145575D01*
D02*
G37*
G36*
X268313D02*
X267687D01*
X267108Y145335D01*
X266665Y144892D01*
X266425Y144313D01*
Y143687D01*
X266665Y143108D01*
X267108Y142665D01*
X267687Y142425D01*
X268313D01*
X268892Y142665D01*
X269335Y143108D01*
X269575Y143687D01*
Y144313D01*
X269335Y144892D01*
X268892Y145335D01*
X268313Y145575D01*
D02*
G37*
G36*
X263313D02*
X262687D01*
X262108Y145335D01*
X261665Y144892D01*
X261425Y144313D01*
Y143687D01*
X261665Y143108D01*
X262108Y142665D01*
X262687Y142425D01*
X263313D01*
X263892Y142665D01*
X264335Y143108D01*
X264575Y143687D01*
Y144313D01*
X264335Y144892D01*
X263892Y145335D01*
X263313Y145575D01*
D02*
G37*
G36*
X258313D02*
X257687D01*
X257108Y145335D01*
X256665Y144892D01*
X256425Y144313D01*
Y143687D01*
X256665Y143108D01*
X257108Y142665D01*
X257687Y142425D01*
X258313D01*
X258892Y142665D01*
X259335Y143108D01*
X259575Y143687D01*
Y144313D01*
X259335Y144892D01*
X258892Y145335D01*
X258313Y145575D01*
D02*
G37*
G36*
X253313D02*
X252687D01*
X252108Y145335D01*
X251665Y144892D01*
X251425Y144313D01*
Y143687D01*
X251665Y143108D01*
X252108Y142665D01*
X252687Y142425D01*
X253313D01*
X253892Y142665D01*
X254335Y143108D01*
X254575Y143687D01*
Y144313D01*
X254335Y144892D01*
X253892Y145335D01*
X253313Y145575D01*
D02*
G37*
G36*
X178115Y144026D02*
X177685D01*
X177287Y143861D01*
X176982Y143557D01*
X176817Y143159D01*
Y142728D01*
X176982Y142330D01*
X177287Y142025D01*
X177685Y141861D01*
X178115D01*
X178513Y142025D01*
X178818Y142330D01*
X178983Y142728D01*
Y143159D01*
X178818Y143557D01*
X178513Y143861D01*
X178115Y144026D01*
D02*
G37*
G36*
X188513Y142875D02*
X187887D01*
X187308Y142635D01*
X186865Y142192D01*
X186625Y141613D01*
Y140987D01*
X186865Y140408D01*
X187308Y139965D01*
X187887Y139725D01*
X188513D01*
X189092Y139965D01*
X189535Y140408D01*
X189775Y140987D01*
Y141613D01*
X189535Y142192D01*
X189092Y142635D01*
X188513Y142875D01*
D02*
G37*
G36*
X133813Y142175D02*
X133187D01*
X132608Y141935D01*
X132165Y141492D01*
X131925Y140913D01*
Y140287D01*
X132165Y139708D01*
X132608Y139265D01*
X133187Y139025D01*
X133813D01*
X134392Y139265D01*
X134835Y139708D01*
X135075Y140287D01*
Y140913D01*
X134835Y141492D01*
X134392Y141935D01*
X133813Y142175D01*
D02*
G37*
G36*
X200238Y141842D02*
X199612D01*
X199033Y141602D01*
X198590Y141159D01*
X198350Y140580D01*
Y139954D01*
X198590Y139375D01*
X199033Y138932D01*
X199612Y138692D01*
X200238D01*
X200817Y138932D01*
X201260Y139375D01*
X201500Y139954D01*
Y140580D01*
X201260Y141159D01*
X200817Y141602D01*
X200238Y141842D01*
D02*
G37*
G36*
X178213Y139949D02*
X177587D01*
X177008Y139709D01*
X176565Y139267D01*
X176325Y138688D01*
Y138061D01*
X176565Y137482D01*
X177008Y137039D01*
X177587Y136800D01*
X178213D01*
X178792Y137039D01*
X179235Y137482D01*
X179475Y138061D01*
Y138688D01*
X179235Y139267D01*
X178792Y139709D01*
X178213Y139949D01*
D02*
G37*
G36*
X188613Y138975D02*
X187987D01*
X187408Y138735D01*
X186965Y138292D01*
X186725Y137713D01*
Y137087D01*
X186965Y136508D01*
X187408Y136065D01*
X187987Y135825D01*
X188613D01*
X189192Y136065D01*
X189635Y136508D01*
X189875Y137087D01*
Y137713D01*
X189635Y138292D01*
X189192Y138735D01*
X188613Y138975D01*
D02*
G37*
G36*
X220715Y144183D02*
X220285D01*
X219887Y144018D01*
X219582Y143713D01*
X219417Y143315D01*
Y142885D01*
X219582Y142487D01*
X219887Y142182D01*
X220285Y142017D01*
X220438D01*
X227028Y135428D01*
X227028Y135428D01*
X227290Y135252D01*
X227600Y135191D01*
X227600Y135191D01*
X270778D01*
X270887Y135082D01*
X271285Y134917D01*
X271715D01*
X272113Y135082D01*
X272418Y135387D01*
X272583Y135785D01*
Y136215D01*
X272418Y136613D01*
X272113Y136918D01*
X271715Y137083D01*
X271285D01*
X270887Y136918D01*
X270778Y136809D01*
X227935D01*
X221583Y143162D01*
Y143315D01*
X221418Y143713D01*
X221113Y144018D01*
X220715Y144183D01*
D02*
G37*
G36*
X123315Y134983D02*
X122885D01*
X122487Y134818D01*
X122182Y134513D01*
X122017Y134115D01*
Y133685D01*
X122182Y133287D01*
X122487Y132982D01*
X122885Y132817D01*
X123315D01*
X123713Y132982D01*
X124018Y133287D01*
X124183Y133685D01*
Y134115D01*
X124018Y134513D01*
X123713Y134818D01*
X123315Y134983D01*
D02*
G37*
G36*
X188613Y135075D02*
X187987D01*
X187408Y134835D01*
X186965Y134392D01*
X186725Y133813D01*
Y133187D01*
X186965Y132608D01*
X187408Y132165D01*
X187987Y131925D01*
X188613D01*
X189192Y132165D01*
X189635Y132608D01*
X189875Y133187D01*
Y133813D01*
X189635Y134392D01*
X189192Y134835D01*
X188613Y135075D01*
D02*
G37*
G36*
X202313Y134875D02*
X201687D01*
X201108Y134635D01*
X200665Y134192D01*
X200425Y133613D01*
Y132987D01*
X200665Y132408D01*
X201108Y131965D01*
X201687Y131725D01*
X202313D01*
X202892Y131965D01*
X203335Y132408D01*
X203575Y132987D01*
Y133613D01*
X203335Y134192D01*
X202892Y134635D01*
X202313Y134875D01*
D02*
G37*
G36*
X147813D02*
X147187D01*
X146608Y134635D01*
X146165Y134192D01*
X145925Y133613D01*
Y132987D01*
X146165Y132408D01*
X146608Y131965D01*
X147187Y131725D01*
X147813D01*
X148392Y131965D01*
X148835Y132408D01*
X149075Y132987D01*
Y133613D01*
X148835Y134192D01*
X148392Y134635D01*
X147813Y134875D01*
D02*
G37*
G36*
X207313Y134675D02*
X206687D01*
X206108Y134435D01*
X205665Y133992D01*
X205425Y133413D01*
Y132787D01*
X205665Y132208D01*
X206108Y131765D01*
X206687Y131525D01*
X207313D01*
X207892Y131765D01*
X208335Y132208D01*
X208575Y132787D01*
Y133413D01*
X208335Y133992D01*
X207892Y134435D01*
X207313Y134675D01*
D02*
G37*
G36*
X152813D02*
X152187D01*
X151608Y134435D01*
X151165Y133992D01*
X150925Y133413D01*
Y132787D01*
X151165Y132208D01*
X151608Y131765D01*
X152187Y131525D01*
X152813D01*
X153392Y131765D01*
X153835Y132208D01*
X154075Y132787D01*
Y133413D01*
X153835Y133992D01*
X153392Y134435D01*
X152813Y134675D01*
D02*
G37*
G36*
X133846Y134491D02*
X133220D01*
X132641Y134251D01*
X132198Y133808D01*
X131958Y133229D01*
Y132603D01*
X132198Y132024D01*
X132641Y131581D01*
X133220Y131341D01*
X133846D01*
X134425Y131581D01*
X134868Y132024D01*
X135108Y132603D01*
Y133229D01*
X134868Y133808D01*
X134425Y134251D01*
X133846Y134491D01*
D02*
G37*
G36*
X268113Y132575D02*
X267487D01*
X266908Y132335D01*
X266465Y131892D01*
X266225Y131313D01*
Y130687D01*
X266465Y130108D01*
X266908Y129665D01*
X267487Y129425D01*
X268113D01*
X268692Y129665D01*
X269135Y130108D01*
X269375Y130687D01*
Y131313D01*
X269135Y131892D01*
X268692Y132335D01*
X268113Y132575D01*
D02*
G37*
G36*
X156369Y129923D02*
X155742D01*
X155163Y129683D01*
X154720Y129240D01*
X154540Y128803D01*
X154117Y128794D01*
X154035Y128992D01*
X153592Y129435D01*
X153013Y129675D01*
X152387D01*
X151808Y129435D01*
X151365Y128992D01*
X151125Y128413D01*
Y127787D01*
X151365Y127208D01*
X151808Y126765D01*
X152387Y126525D01*
X153013D01*
X153592Y126765D01*
X154035Y127208D01*
X154216Y127645D01*
X154639Y127654D01*
X154720Y127456D01*
X155163Y127013D01*
X155742Y126773D01*
X156369D01*
X156948Y127013D01*
X157391Y127456D01*
X157630Y128035D01*
Y128661D01*
X157391Y129240D01*
X156948Y129683D01*
X156369Y129923D01*
D02*
G37*
G36*
X178115Y130283D02*
X177685D01*
X177287Y130118D01*
X176982Y129813D01*
X176817Y129415D01*
Y128985D01*
X176982Y128587D01*
X177287Y128282D01*
X177685Y128117D01*
X178115D01*
X178513Y128282D01*
X178818Y128587D01*
X178983Y128985D01*
Y129415D01*
X178818Y129813D01*
X178513Y130118D01*
X178115Y130283D01*
D02*
G37*
G36*
X188646Y131091D02*
X188020D01*
X187441Y130851D01*
X186998Y130408D01*
X186758Y129829D01*
Y129202D01*
X186998Y128624D01*
X187441Y128181D01*
X188020Y127941D01*
X188646D01*
X189225Y128181D01*
X189668Y128624D01*
X189908Y129202D01*
Y129829D01*
X189668Y130408D01*
X189225Y130851D01*
X188646Y131091D01*
D02*
G37*
G36*
X133813Y130275D02*
X133187D01*
X132608Y130035D01*
X132165Y129592D01*
X131925Y129013D01*
Y128387D01*
X132165Y127808D01*
X132608Y127365D01*
X133187Y127125D01*
X133813D01*
X134392Y127365D01*
X134835Y127808D01*
X135075Y128387D01*
Y129013D01*
X134835Y129592D01*
X134392Y130035D01*
X133813Y130275D01*
D02*
G37*
G36*
X212313Y129875D02*
X211687D01*
X211108Y129635D01*
X210665Y129192D01*
X210425Y128613D01*
Y127987D01*
X210665Y127408D01*
X211108Y126965D01*
X211687Y126725D01*
X212313D01*
X212892Y126965D01*
X213335Y127408D01*
X213575Y127987D01*
Y128613D01*
X213335Y129192D01*
X212892Y129635D01*
X212313Y129875D01*
D02*
G37*
G36*
X202313D02*
X201687D01*
X201108Y129635D01*
X200665Y129192D01*
X200425Y128613D01*
Y127987D01*
X200665Y127408D01*
X201108Y126965D01*
X201687Y126725D01*
X202313D01*
X202892Y126965D01*
X203335Y127408D01*
X203575Y127987D01*
Y128613D01*
X203335Y129192D01*
X202892Y129635D01*
X202313Y129875D01*
D02*
G37*
G36*
X143013D02*
X142387D01*
X141808Y129635D01*
X141365Y129192D01*
X141125Y128613D01*
Y127987D01*
X141365Y127408D01*
X141808Y126965D01*
X142387Y126725D01*
X143013D01*
X143592Y126965D01*
X144035Y127408D01*
X144275Y127987D01*
Y128613D01*
X144035Y129192D01*
X143592Y129635D01*
X143013Y129875D01*
D02*
G37*
G36*
X188713Y125075D02*
X188087D01*
X187508Y124835D01*
X187065Y124392D01*
X186825Y123813D01*
Y123187D01*
X187065Y122608D01*
X187508Y122165D01*
X188087Y121925D01*
X188713D01*
X189292Y122165D01*
X189735Y122608D01*
X189975Y123187D01*
Y123813D01*
X189735Y124392D01*
X189292Y124835D01*
X188713Y125075D01*
D02*
G37*
G36*
X212313Y124675D02*
X211687D01*
X211108Y124435D01*
X210665Y123992D01*
X210425Y123413D01*
Y122787D01*
X210665Y122208D01*
X211108Y121765D01*
X211687Y121525D01*
X212313D01*
X212892Y121765D01*
X213335Y122208D01*
X213575Y122787D01*
Y123413D01*
X213335Y123992D01*
X212892Y124435D01*
X212313Y124675D01*
D02*
G37*
G36*
X202313D02*
X201687D01*
X201108Y124435D01*
X200665Y123992D01*
X200425Y123413D01*
Y122787D01*
X200665Y122208D01*
X201108Y121765D01*
X201687Y121525D01*
X202313D01*
X202892Y121765D01*
X203335Y122208D01*
X203575Y122787D01*
Y123413D01*
X203335Y123992D01*
X202892Y124435D01*
X202313Y124675D01*
D02*
G37*
G36*
X157813D02*
X157187D01*
X156608Y124435D01*
X156165Y123992D01*
X155925Y123413D01*
Y122787D01*
X156165Y122208D01*
X156608Y121765D01*
X157187Y121525D01*
X157813D01*
X158392Y121765D01*
X158835Y122208D01*
X159075Y122787D01*
Y123413D01*
X158835Y123992D01*
X158392Y124435D01*
X157813Y124675D01*
D02*
G37*
G36*
X242598Y124208D02*
X241971D01*
X241392Y123968D01*
X240949Y123525D01*
X240709Y122946D01*
Y122320D01*
X240949Y121741D01*
X241392Y121298D01*
X241971Y121058D01*
X242598D01*
X243176Y121298D01*
X243619Y121741D01*
X243772Y122110D01*
X244198D01*
X244365Y121708D01*
X244808Y121265D01*
X245387Y121025D01*
X246013D01*
X246592Y121265D01*
X247035Y121708D01*
X247275Y122287D01*
Y122913D01*
X247035Y123492D01*
X246592Y123935D01*
X246013Y124175D01*
X245387D01*
X244808Y123935D01*
X244365Y123492D01*
X244212Y123123D01*
X243786D01*
X243619Y123525D01*
X243176Y123968D01*
X242598Y124208D01*
D02*
G37*
G36*
X238813Y124175D02*
X238187D01*
X237608Y123935D01*
X237165Y123492D01*
X236925Y122913D01*
Y122287D01*
X237165Y121708D01*
X237608Y121265D01*
X238187Y121025D01*
X238813D01*
X239392Y121265D01*
X239835Y121708D01*
X240075Y122287D01*
Y122913D01*
X239835Y123492D01*
X239392Y123935D01*
X238813Y124175D01*
D02*
G37*
G36*
X235013D02*
X234387D01*
X233808Y123935D01*
X233365Y123492D01*
X233125Y122913D01*
Y122287D01*
X233365Y121708D01*
X233808Y121265D01*
X234387Y121025D01*
X235013D01*
X235592Y121265D01*
X236035Y121708D01*
X236275Y122287D01*
Y122913D01*
X236035Y123492D01*
X235592Y123935D01*
X235013Y124175D01*
D02*
G37*
G36*
X231413D02*
X230787D01*
X230208Y123935D01*
X229765Y123492D01*
X229525Y122913D01*
Y122287D01*
X229765Y121708D01*
X230208Y121265D01*
X230787Y121025D01*
X231413D01*
X231992Y121265D01*
X232435Y121708D01*
X232675Y122287D01*
Y122913D01*
X232435Y123492D01*
X231992Y123935D01*
X231413Y124175D01*
D02*
G37*
G36*
X226597Y124142D02*
X225971D01*
X225392Y123902D01*
X224949Y123459D01*
X224710Y122880D01*
Y122254D01*
X224949Y121675D01*
X225392Y121232D01*
X225971Y120992D01*
X226597D01*
X227176Y121232D01*
X227619Y121675D01*
X227859Y122254D01*
Y122880D01*
X227619Y123459D01*
X227176Y123902D01*
X226597Y124142D01*
D02*
G37*
G36*
X188613Y120875D02*
X187987D01*
X187408Y120635D01*
X186965Y120192D01*
X186725Y119613D01*
Y118987D01*
X186965Y118408D01*
X187408Y117965D01*
X187987Y117725D01*
X188613D01*
X189192Y117965D01*
X189635Y118408D01*
X189875Y118987D01*
Y119613D01*
X189635Y120192D01*
X189192Y120635D01*
X188613Y120875D01*
D02*
G37*
G36*
X133413Y119975D02*
X132787D01*
X132208Y119735D01*
X131765Y119292D01*
X131525Y118713D01*
Y118087D01*
X131765Y117508D01*
X132208Y117065D01*
X132787Y116825D01*
X133413D01*
X133992Y117065D01*
X134435Y117508D01*
X134675Y118087D01*
Y118713D01*
X134435Y119292D01*
X133992Y119735D01*
X133413Y119975D01*
D02*
G37*
G36*
X207313Y119875D02*
X206687D01*
X206108Y119635D01*
X205665Y119192D01*
X205425Y118613D01*
Y117987D01*
X205665Y117408D01*
X206108Y116965D01*
X206687Y116725D01*
X207313D01*
X207892Y116965D01*
X208335Y117408D01*
X208575Y117987D01*
Y118613D01*
X208335Y119192D01*
X207892Y119635D01*
X207313Y119875D01*
D02*
G37*
G36*
X152813D02*
X152187D01*
X151608Y119635D01*
X151165Y119192D01*
X150925Y118613D01*
Y117987D01*
X151165Y117408D01*
X151608Y116965D01*
X152187Y116725D01*
X152813D01*
X153392Y116965D01*
X153835Y117408D01*
X154075Y117987D01*
Y118613D01*
X153835Y119192D01*
X153392Y119635D01*
X152813Y119875D01*
D02*
G37*
G36*
X143013D02*
X142387D01*
X141808Y119635D01*
X141365Y119192D01*
X141125Y118613D01*
Y117987D01*
X141365Y117408D01*
X141808Y116965D01*
X142387Y116725D01*
X143013D01*
X143592Y116965D01*
X144035Y117408D01*
X144275Y117987D01*
Y118613D01*
X144035Y119192D01*
X143592Y119635D01*
X143013Y119875D01*
D02*
G37*
G36*
X202313Y119675D02*
X201687D01*
X201108Y119435D01*
X200665Y118992D01*
X200425Y118413D01*
Y117787D01*
X200665Y117208D01*
X201108Y116765D01*
X201687Y116525D01*
X202313D01*
X202892Y116765D01*
X203335Y117208D01*
X203575Y117787D01*
Y118413D01*
X203335Y118992D01*
X202892Y119435D01*
X202313Y119675D01*
D02*
G37*
G36*
X147813D02*
X147187D01*
X146608Y119435D01*
X146165Y118992D01*
X145925Y118413D01*
Y117787D01*
X146165Y117208D01*
X146608Y116765D01*
X147187Y116525D01*
X147813D01*
X148392Y116765D01*
X148835Y117208D01*
X149075Y117787D01*
Y118413D01*
X148835Y118992D01*
X148392Y119435D01*
X147813Y119675D01*
D02*
G37*
G36*
X188713Y116375D02*
X188087D01*
X187508Y116135D01*
X187065Y115692D01*
X186825Y115113D01*
Y114487D01*
X187065Y113908D01*
X187508Y113465D01*
X188087Y113225D01*
X188713D01*
X189292Y113465D01*
X189735Y113908D01*
X189975Y114487D01*
Y115113D01*
X189735Y115692D01*
X189292Y116135D01*
X188713Y116375D01*
D02*
G37*
G36*
X188613Y111875D02*
X187987D01*
X187408Y111635D01*
X186965Y111192D01*
X186725Y110613D01*
Y109987D01*
X186965Y109408D01*
X187408Y108965D01*
X187987Y108725D01*
X188613D01*
X189192Y108965D01*
X189635Y109408D01*
X189875Y109987D01*
Y110613D01*
X189635Y111192D01*
X189192Y111635D01*
X188613Y111875D01*
D02*
G37*
G36*
X273719Y110675D02*
X273092D01*
X272514Y110435D01*
X272071Y109992D01*
X271831Y109413D01*
Y108787D01*
X272071Y108208D01*
X272514Y107765D01*
X273092Y107525D01*
X273719D01*
X274298Y107765D01*
X274741Y108208D01*
X274980Y108787D01*
Y109413D01*
X274741Y109992D01*
X274298Y110435D01*
X273719Y110675D01*
D02*
G37*
G36*
X268712Y110475D02*
X268086D01*
X267507Y110235D01*
X267064Y109792D01*
X266824Y109213D01*
Y108587D01*
X267064Y108008D01*
X267507Y107565D01*
X268086Y107325D01*
X268712D01*
X269291Y107565D01*
X269734Y108008D01*
X269974Y108587D01*
Y109213D01*
X269734Y109792D01*
X269291Y110235D01*
X268712Y110475D01*
D02*
G37*
G36*
X189366Y106575D02*
X188740D01*
X188161Y106335D01*
X187718Y105892D01*
X187478Y105313D01*
Y104687D01*
X187718Y104108D01*
X188161Y103665D01*
X188740Y103425D01*
X189366D01*
X189945Y103665D01*
X190388Y104108D01*
X190628Y104687D01*
Y105313D01*
X190388Y105892D01*
X189945Y106335D01*
X189366Y106575D01*
D02*
G37*
G36*
X172061D02*
X171434D01*
X170855Y106335D01*
X170412Y105892D01*
X170172Y105313D01*
Y104687D01*
X170412Y104108D01*
X170855Y103665D01*
X171434Y103425D01*
X172061D01*
X172639Y103665D01*
X173082Y104108D01*
X173322Y104687D01*
Y105313D01*
X173082Y105892D01*
X172639Y106335D01*
X172061Y106575D01*
D02*
G37*
%LPD*%
G36*
X215594Y234397D02*
X215628Y234247D01*
X215377Y233871D01*
X215282Y233392D01*
X215291Y233348D01*
X215156Y233214D01*
X214943Y233077D01*
X214526Y233160D01*
X214047Y233065D01*
X213640Y232793D01*
X213640Y232793D01*
X213548Y232701D01*
X213277Y232295D01*
X213181Y231816D01*
X213277Y231336D01*
X213548Y230930D01*
X213556Y230938D01*
X213556Y230938D01*
X216116Y228378D01*
X216111Y228366D01*
X216116Y228354D01*
X215044Y227282D01*
X214913Y227414D01*
X214515Y227579D01*
X214084D01*
X213686Y227414D01*
X213381Y227109D01*
X213216Y226711D01*
Y226281D01*
X213381Y225883D01*
X213686Y225578D01*
X214084Y225413D01*
X214515D01*
X214913Y225578D01*
X215217Y225883D01*
X215230Y225914D01*
X215260D01*
X215511Y225964D01*
X215724Y226106D01*
X215972Y226354D01*
X216150Y226321D01*
X216392Y226217D01*
X216531Y225883D01*
X216835Y225578D01*
X217233Y225413D01*
X217664D01*
X218062Y225578D01*
X218216Y225732D01*
X218609Y225569D01*
Y224274D01*
X218216Y224111D01*
X218062Y224264D01*
X217664Y224429D01*
X217233D01*
X216835Y224264D01*
X216531Y223960D01*
X216366Y223562D01*
Y223131D01*
X216531Y222733D01*
X216835Y222429D01*
X217233Y222264D01*
X217664D01*
X217941Y222379D01*
X218297Y222252D01*
X218380Y222190D01*
X218403Y222079D01*
X217619Y221295D01*
X217233D01*
X216835Y221130D01*
X216531Y220826D01*
X216366Y220428D01*
Y219997D01*
X216531Y219599D01*
X216771Y219360D01*
X216699Y219053D01*
X216650Y218966D01*
X215098D01*
X215049Y219053D01*
X214977Y219360D01*
X215217Y219599D01*
X215382Y219997D01*
Y220428D01*
X215217Y220826D01*
X214913Y221130D01*
X214515Y221295D01*
X214084D01*
X213686Y221130D01*
X213381Y220826D01*
X213216Y220428D01*
Y219997D01*
X213381Y219599D01*
X213621Y219360D01*
X213549Y219053D01*
X213500Y218966D01*
X211964D01*
X211952Y218985D01*
X211844Y219360D01*
X212067Y219584D01*
X212232Y219982D01*
Y220412D01*
X212067Y220810D01*
X211763Y221115D01*
X211365Y221280D01*
X210934D01*
X210536Y221115D01*
X210232Y220810D01*
X210067Y220412D01*
Y219982D01*
X210232Y219584D01*
X210486Y219330D01*
X210482Y219059D01*
X210441Y218892D01*
X210168Y218779D01*
X209075Y217687D01*
X205742D01*
X205464Y217965D01*
X205066Y218130D01*
X204635D01*
X204237Y217965D01*
X204013Y217741D01*
X203638Y217850D01*
X203620Y217862D01*
Y219382D01*
X203638Y219394D01*
X204013Y219503D01*
X204237Y219279D01*
X204635Y219114D01*
X205066D01*
X205464Y219279D01*
X205768Y219584D01*
X205933Y219982D01*
Y220412D01*
X205768Y220810D01*
X205464Y221115D01*
X205066Y221280D01*
X204635D01*
X204237Y221115D01*
X204013Y220891D01*
X203638Y221000D01*
X203620Y221011D01*
Y222067D01*
X203432Y222519D01*
X202783Y223168D01*
Y223562D01*
X202619Y223960D01*
X202314Y224264D01*
X201916Y224429D01*
X201485D01*
X201087Y224264D01*
X200783Y223960D01*
X200618Y223562D01*
Y223131D01*
X200783Y222733D01*
X201087Y222429D01*
X201485Y222264D01*
X201880D01*
X202341Y221802D01*
Y218380D01*
X201947Y218117D01*
X201916Y218130D01*
X201485D01*
X201087Y217965D01*
X200783Y217660D01*
X200618Y217263D01*
Y216869D01*
X199845Y216095D01*
X199658Y215643D01*
Y214879D01*
X199264Y214716D01*
X199164Y214815D01*
X198767Y214980D01*
X198372D01*
X197599Y215754D01*
X197147Y215941D01*
X196383D01*
X196220Y216335D01*
X196319Y216434D01*
X196484Y216832D01*
Y217263D01*
X196319Y217660D01*
X196015Y217965D01*
X195617Y218130D01*
X195186D01*
X194788Y217965D01*
X194484Y217660D01*
X194319Y217263D01*
Y216832D01*
X194484Y216434D01*
X194583Y216335D01*
X194420Y215941D01*
X193233D01*
X193070Y216335D01*
X193170Y216434D01*
X193335Y216832D01*
Y217263D01*
X193170Y217660D01*
X192865Y217965D01*
X192467Y218130D01*
X192037D01*
X191639Y217965D01*
X191334Y217660D01*
X191169Y217263D01*
Y216832D01*
X191334Y216434D01*
X191434Y216335D01*
X191270Y215941D01*
X190084D01*
X189921Y216335D01*
X190020Y216434D01*
X190185Y216832D01*
Y217263D01*
X190020Y217660D01*
X189716Y217965D01*
X189318Y218130D01*
X188887D01*
X188489Y217965D01*
X188184Y217660D01*
X188020Y217263D01*
Y216832D01*
X188184Y216434D01*
X188284Y216335D01*
X188121Y215941D01*
X186934D01*
X186771Y216335D01*
X186871Y216434D01*
X187035Y216832D01*
Y217263D01*
X186871Y217660D01*
X186566Y217965D01*
X186168Y218130D01*
X185737D01*
X185706Y218117D01*
X185312Y218380D01*
Y222014D01*
X185706Y222277D01*
X185737Y222264D01*
X186168D01*
X186566Y222429D01*
X186790Y222653D01*
X187165Y222544D01*
X187184Y222532D01*
Y221476D01*
X187371Y221024D01*
X188020Y220375D01*
Y219982D01*
X188184Y219584D01*
X188489Y219279D01*
X188887Y219114D01*
X189318D01*
X189716Y219279D01*
X190020Y219584D01*
X190185Y219982D01*
Y220412D01*
X190020Y220810D01*
X189716Y221115D01*
X189318Y221280D01*
X188924D01*
X188544Y221659D01*
X188571Y222047D01*
X188887Y222264D01*
X189318D01*
X189716Y222429D01*
X190020Y222733D01*
X190185Y223131D01*
Y223562D01*
X190020Y223960D01*
X189716Y224264D01*
X189318Y224429D01*
X188887D01*
X188856Y224416D01*
X188462Y224679D01*
Y225163D01*
X188856Y225426D01*
X188887Y225413D01*
X189318D01*
X189716Y225578D01*
X190020Y225883D01*
X190185Y226281D01*
Y226711D01*
X190020Y227109D01*
X189716Y227414D01*
X189684Y227427D01*
X189592Y227891D01*
X196341Y234640D01*
X198909D01*
X199172Y234247D01*
X199117Y234115D01*
Y233962D01*
X193347Y228191D01*
X193171Y227929D01*
X193124Y227694D01*
X193050Y227618D01*
X192961Y227562D01*
X192716Y227469D01*
X192452Y227579D01*
X192021D01*
X191623Y227414D01*
X191318Y227109D01*
X191154Y226711D01*
Y226281D01*
X191318Y225883D01*
X191623Y225578D01*
X192021Y225413D01*
X192452D01*
X192716Y225523D01*
X192751Y225507D01*
X192958Y225197D01*
X192190Y224429D01*
X192037D01*
X191639Y224264D01*
X191334Y223960D01*
X191169Y223562D01*
Y223131D01*
X191334Y222733D01*
X191639Y222429D01*
X192037Y222264D01*
X192467D01*
X192865Y222429D01*
X193170Y222733D01*
X193335Y223131D01*
Y223285D01*
X194091Y224042D01*
X194425Y223818D01*
X194319Y223562D01*
Y223131D01*
X194484Y222733D01*
X194788Y222429D01*
X195186Y222264D01*
X195617D01*
X196015Y222429D01*
X196319Y222733D01*
X196484Y223131D01*
Y223562D01*
X196319Y223960D01*
X196015Y224264D01*
X195617Y224429D01*
X195186D01*
X194869Y224298D01*
X194600Y224538D01*
X194578Y224571D01*
X194667Y224704D01*
X194728Y225013D01*
X194728Y225013D01*
Y225177D01*
X195122Y225440D01*
X195186Y225413D01*
X195617D01*
X196015Y225578D01*
X196319Y225883D01*
X196484Y226281D01*
Y226711D01*
X196319Y227109D01*
X196015Y227414D01*
X195617Y227579D01*
X195580D01*
X195417Y227972D01*
X200262Y232817D01*
X200415D01*
X200813Y232982D01*
X201118Y233287D01*
X201283Y233685D01*
Y234115D01*
X201228Y234247D01*
X201491Y234640D01*
X215472D01*
X215594Y234397D01*
D02*
G37*
G36*
X235367Y227161D02*
X235379Y227156D01*
Y225264D01*
X235367D01*
X235463Y224785D01*
X235573Y224619D01*
X235703Y224331D01*
X235518Y224049D01*
X235429Y223960D01*
X235264Y223562D01*
Y223131D01*
X235292Y223064D01*
X235029Y222670D01*
X234515D01*
X234252Y223064D01*
X234279Y223131D01*
Y223562D01*
X234115Y223960D01*
X233810Y224264D01*
X233412Y224429D01*
X232981D01*
X232584Y224264D01*
X232279Y223960D01*
X232114Y223562D01*
Y223131D01*
X232142Y223064D01*
X231879Y222670D01*
X231365D01*
X231102Y223064D01*
X231130Y223131D01*
Y223562D01*
X230965Y223960D01*
X230661Y224264D01*
X230263Y224429D01*
X229832D01*
X229434Y224264D01*
X229129Y223960D01*
X228965Y223562D01*
Y223131D01*
X228993Y223064D01*
X228729Y222670D01*
X228216D01*
X227952Y223064D01*
X227980Y223131D01*
Y223562D01*
X227816Y223960D01*
X227511Y224264D01*
X227113Y224429D01*
X226682D01*
X226284Y224264D01*
X225980Y223960D01*
X225815Y223562D01*
Y223131D01*
X225843Y223064D01*
X225580Y222670D01*
X225565D01*
X225314Y222620D01*
X225101Y222478D01*
X223903Y221280D01*
X223533D01*
X223135Y221115D01*
X222830Y220810D01*
X222665Y220412D01*
Y219982D01*
X222830Y219584D01*
X223054Y219360D01*
X222945Y218985D01*
X222933Y218966D01*
X218248D01*
X218198Y219053D01*
X218127Y219360D01*
X218367Y219599D01*
X218531Y219997D01*
Y220351D01*
X219730Y221550D01*
X219872Y221763D01*
X219922Y222014D01*
Y222029D01*
X220316Y222292D01*
X220383Y222264D01*
X220814D01*
X221212Y222429D01*
X221516Y222733D01*
X221681Y223131D01*
Y223562D01*
X221516Y223960D01*
X221212Y224264D01*
X220814Y224429D01*
X220383D01*
X220316Y224401D01*
X219922Y224664D01*
Y225178D01*
X220316Y225441D01*
X220383Y225413D01*
X220814D01*
X221212Y225578D01*
X221516Y225883D01*
X221681Y226281D01*
Y226651D01*
X222096Y227066D01*
X222455Y227039D01*
X222681Y226711D01*
Y226281D01*
X222846Y225883D01*
X223150Y225578D01*
X223548Y225413D01*
X223979D01*
X224377Y225578D01*
X224682Y225883D01*
X224847Y226281D01*
Y226711D01*
X224819Y226779D01*
X225082Y227172D01*
X225580D01*
X225843Y226779D01*
X225815Y226711D01*
Y226281D01*
X225980Y225883D01*
X226284Y225578D01*
X226682Y225413D01*
X227113D01*
X227511Y225578D01*
X227816Y225883D01*
X227980Y226281D01*
Y226711D01*
X227952Y226779D01*
X228216Y227172D01*
X228729D01*
X228993Y226779D01*
X228965Y226711D01*
Y226281D01*
X229129Y225883D01*
X229434Y225578D01*
X229832Y225413D01*
X230263D01*
X230661Y225578D01*
X230965Y225883D01*
X231130Y226281D01*
Y226711D01*
X231102Y226779D01*
X231365Y227172D01*
X235362D01*
X235367Y227161D01*
D02*
G37*
G36*
X238426Y217294D02*
X238413Y217263D01*
Y216832D01*
X238578Y216434D01*
X238883Y216129D01*
X239281Y215965D01*
X239711D01*
X240109Y216129D01*
X240414Y216434D01*
X240579Y216832D01*
Y217045D01*
X240632Y217081D01*
X240748D01*
X240871Y217132D01*
X241188Y217195D01*
X241446Y217368D01*
X241812Y217218D01*
X241839Y217193D01*
Y213352D01*
X241891Y213229D01*
X241924Y213060D01*
X241680Y212667D01*
X237161D01*
X237149Y212685D01*
X237040Y213060D01*
X237264Y213284D01*
X237429Y213682D01*
Y214113D01*
X237264Y214511D01*
X236960Y214815D01*
X236562Y214980D01*
X236131D01*
X235733Y214815D01*
X235429Y214511D01*
X235264Y214113D01*
Y213682D01*
X235429Y213284D01*
X235652Y213060D01*
X235544Y212685D01*
X235532Y212667D01*
X234012D01*
X233999Y212685D01*
X233891Y213060D01*
X234115Y213284D01*
X234279Y213682D01*
Y214113D01*
X234115Y214511D01*
X233810Y214815D01*
X233412Y214980D01*
X232981D01*
X232584Y214815D01*
X232279Y214511D01*
X232114Y214113D01*
Y213682D01*
X232279Y213284D01*
X232503Y213060D01*
X232394Y212685D01*
X232382Y212667D01*
X230862D01*
X230850Y212685D01*
X230741Y213060D01*
X230965Y213284D01*
X231130Y213682D01*
Y214113D01*
X230965Y214511D01*
X230866Y214610D01*
X231029Y215004D01*
X231793D01*
X232245Y215191D01*
X233018Y215965D01*
X233412D01*
X233810Y216129D01*
X234115Y216434D01*
X234279Y216832D01*
Y217263D01*
X234267Y217294D01*
X234530Y217688D01*
X235014D01*
X235277Y217294D01*
X235264Y217263D01*
Y216832D01*
X235429Y216434D01*
X235733Y216129D01*
X236131Y215965D01*
X236562D01*
X236960Y216129D01*
X237264Y216434D01*
X237429Y216832D01*
Y217263D01*
X237416Y217294D01*
X237679Y217688D01*
X238163D01*
X238426Y217294D01*
D02*
G37*
G36*
X218640Y209894D02*
X219744Y208790D01*
X219822Y208701D01*
X219753Y208284D01*
X219681Y208212D01*
X219516Y207814D01*
Y207420D01*
X218867Y206771D01*
X218680Y206319D01*
Y197620D01*
X218867Y197168D01*
X220327Y195708D01*
X220176Y195344D01*
X219349D01*
X216809Y197884D01*
Y209415D01*
X217202Y209678D01*
X217233Y209665D01*
X217664D01*
X218062Y209830D01*
X218120Y209888D01*
X218475Y210039D01*
X218640Y209894D01*
D02*
G37*
%LPC*%
G36*
X211215Y233883D02*
X210785D01*
X210387Y233718D01*
X210082Y233413D01*
X209917Y233015D01*
Y232585D01*
X210082Y232187D01*
X210387Y231882D01*
X210785Y231717D01*
X211215D01*
X211613Y231882D01*
X211918Y232187D01*
X212083Y232585D01*
Y233015D01*
X211918Y233413D01*
X211613Y233718D01*
X211215Y233883D01*
D02*
G37*
G36*
X211365Y227579D02*
X210934D01*
X210536Y227414D01*
X210232Y227109D01*
X210067Y226711D01*
Y226281D01*
X210232Y225883D01*
X210536Y225578D01*
X210934Y225413D01*
X211365D01*
X211763Y225578D01*
X212067Y225883D01*
X212232Y226281D01*
Y226711D01*
X212067Y227109D01*
X211763Y227414D01*
X211365Y227579D01*
D02*
G37*
G36*
X205066D02*
X204635D01*
X204237Y227414D01*
X203933Y227109D01*
X203768Y226711D01*
Y226281D01*
X203933Y225883D01*
X204237Y225578D01*
X204635Y225413D01*
X205066D01*
X205464Y225578D01*
X205768Y225883D01*
X205933Y226281D01*
Y226711D01*
X205768Y227109D01*
X205464Y227414D01*
X205066Y227579D01*
D02*
G37*
G36*
X201916D02*
X201485D01*
X201087Y227414D01*
X200783Y227109D01*
X200618Y226711D01*
Y226281D01*
X200783Y225883D01*
X201087Y225578D01*
X201485Y225413D01*
X201916D01*
X202314Y225578D01*
X202619Y225883D01*
X202783Y226281D01*
Y226711D01*
X202619Y227109D01*
X202314Y227414D01*
X201916Y227579D01*
D02*
G37*
G36*
X198767Y224429D02*
X198336D01*
X197938Y224264D01*
X197633Y223960D01*
X197468Y223562D01*
Y223131D01*
X197633Y222733D01*
X197938Y222429D01*
X198336Y222264D01*
X198767D01*
X199164Y222429D01*
X199469Y222733D01*
X199634Y223131D01*
Y223562D01*
X199469Y223960D01*
X199164Y224264D01*
X198767Y224429D01*
D02*
G37*
G36*
X214540Y224404D02*
X214109D01*
X213712Y224239D01*
X213407Y223934D01*
X213242Y223536D01*
Y223106D01*
X213407Y222708D01*
X213712Y222403D01*
X214109Y222238D01*
X214540D01*
X214938Y222403D01*
X215243Y222708D01*
X215407Y223106D01*
Y223536D01*
X215243Y223934D01*
X214938Y224239D01*
X214540Y224404D01*
D02*
G37*
G36*
X198767Y221280D02*
X198336D01*
X197938Y221115D01*
X197633Y220810D01*
X197468Y220412D01*
Y219982D01*
X197633Y219584D01*
X197938Y219279D01*
X198336Y219114D01*
X198767D01*
X199164Y219279D01*
X199469Y219584D01*
X199634Y219982D01*
Y220412D01*
X199469Y220810D01*
X199164Y221115D01*
X198767Y221280D01*
D02*
G37*
G36*
X195617D02*
X195186D01*
X194788Y221115D01*
X194484Y220810D01*
X194319Y220412D01*
Y219982D01*
X194484Y219584D01*
X194788Y219279D01*
X195186Y219114D01*
X195617D01*
X196015Y219279D01*
X196319Y219584D01*
X196484Y219982D01*
Y220412D01*
X196319Y220810D01*
X196015Y221115D01*
X195617Y221280D01*
D02*
G37*
G36*
X192467D02*
X192037D01*
X191639Y221115D01*
X191334Y220810D01*
X191169Y220412D01*
Y219982D01*
X191334Y219584D01*
X191639Y219279D01*
X192037Y219114D01*
X192467D01*
X192865Y219279D01*
X193170Y219584D01*
X193335Y219982D01*
Y220412D01*
X193170Y220810D01*
X192865Y221115D01*
X192467Y221280D01*
D02*
G37*
G36*
X198767Y218130D02*
X198336D01*
X197938Y217965D01*
X197633Y217660D01*
X197468Y217263D01*
Y216832D01*
X197633Y216434D01*
X197938Y216129D01*
X198336Y215965D01*
X198767D01*
X199164Y216129D01*
X199469Y216434D01*
X199634Y216832D01*
Y217263D01*
X199469Y217660D01*
X199164Y217965D01*
X198767Y218130D01*
D02*
G37*
G36*
X223979Y224429D02*
X223548D01*
X223150Y224264D01*
X222846Y223960D01*
X222681Y223562D01*
Y223131D01*
X222846Y222733D01*
X223150Y222429D01*
X223548Y222264D01*
X223979D01*
X224377Y222429D01*
X224682Y222733D01*
X224847Y223131D01*
Y223562D01*
X224682Y223960D01*
X224377Y224264D01*
X223979Y224429D01*
D02*
G37*
%LPD*%
D12*
X248085Y207667D02*
G03*
X247500Y207082I0J-585D01*
G01*
X246915Y205428D02*
G03*
X247500Y206013I0J585D01*
G01*
X246200D02*
G03*
X246785Y205428I585J0D01*
G01*
X246200Y207082D02*
G03*
X245615Y207667I-585J0D01*
G01*
X245485D02*
G03*
X244900Y207082I0J-585D01*
G01*
X244315Y204617D02*
G03*
X244900Y205202I0J585D01*
G01*
X243600D02*
G03*
X244185Y204617I585J0D01*
G01*
X243600Y207082D02*
G03*
X243015Y207667I-585J0D01*
G01*
X286111Y215889D02*
G03*
X285284Y215889I-414J-414D01*
G01*
X284361Y215793D02*
G03*
X285188Y215793I414J414D01*
G01*
X284269Y216713D02*
G03*
X284269Y215885I414J-414D01*
G01*
X286254Y218697D02*
G03*
X286254Y219525I-414J414D01*
G01*
X286162Y219617D02*
G03*
X285334Y219617I-414J-414D01*
G01*
X283445Y218555D02*
G03*
X284273Y218555I414J414D01*
G01*
X251326Y225333D02*
G03*
X250741Y224748I0J-585D01*
G01*
X250156Y218561D02*
G03*
X250741Y219146I0J585D01*
G01*
X249441D02*
G03*
X250026Y218561I585J0D01*
G01*
X249441Y225126D02*
G03*
X248856Y225711I-585J0D01*
G01*
X248726D02*
G03*
X248141Y225126I0J-585D01*
G01*
X247556Y218561D02*
G03*
X248141Y219146I0J585D01*
G01*
X246841D02*
G03*
X247426Y218561I585J0D01*
G01*
X246841Y224748D02*
G03*
X246256Y225333I-585J0D01*
G01*
X246126D02*
G03*
X245541Y224748I0J-585D01*
G01*
X244956Y223793D02*
G03*
X245541Y224378I0J585D01*
G01*
X244241D02*
G03*
X244826Y223793I585J0D01*
G01*
X244241Y224748D02*
G03*
X243656Y225333I-585J0D01*
G01*
X249035Y228414D02*
G03*
X249620Y227829I585J0D01*
G01*
X249035Y228520D02*
G03*
X248450Y229105I-585J0D01*
G01*
X248320D02*
G03*
X247735Y228520I0J-585D01*
G01*
X247150Y226226D02*
G03*
X247735Y226811I0J585D01*
G01*
X246435D02*
G03*
X247020Y226226I585J0D01*
G01*
X246435Y228854D02*
G03*
X245850Y229439I-585J0D01*
G01*
X245720D02*
G03*
X245135Y228854I0J-585D01*
G01*
X244550Y226226D02*
G03*
X245135Y226811I0J585D01*
G01*
X243835D02*
G03*
X244420Y226226I585J0D01*
G01*
X243835Y228854D02*
G03*
X243250Y229439I-585J0D01*
G01*
X243120D02*
G03*
X242535Y228854I0J-585D01*
G01*
X241950Y225765D02*
G03*
X242535Y226350I0J585D01*
G01*
X241235D02*
G03*
X241820Y225765I585J0D01*
G01*
X241235Y228854D02*
G03*
X240650Y229439I-585J0D01*
G01*
X240520D02*
G03*
X239935Y228854I0J-585D01*
G01*
X239350Y227829D02*
G03*
X239935Y228414I0J585D01*
G01*
X238635D02*
G03*
X239220Y227829I585J0D01*
G01*
X238635Y228854D02*
G03*
X238050Y229439I-585J0D01*
G01*
X237920D02*
G03*
X237335Y228854I0J-585D01*
G01*
X236750Y224679D02*
G03*
X237335Y225264I0J585D01*
G01*
X236035D02*
G03*
X236620Y224679I585J0D01*
G01*
X236035Y227244D02*
G03*
X235450Y227829I-585J0D01*
G01*
X235594Y230918D02*
G03*
X236179Y230333I585J0D01*
G01*
X235594Y230918D02*
G03*
X235009Y231503I-585J0D01*
G01*
X234879D02*
G03*
X234294Y230918I0J-585D01*
G01*
X233709Y229174D02*
G03*
X234294Y229759I0J585D01*
G01*
X232994D02*
G03*
X233579Y229174I585J0D01*
G01*
X232994Y231862D02*
G03*
X232409Y232447I-585J0D01*
G01*
X232279D02*
G03*
X231694Y231862I0J-585D01*
G01*
X231109Y228722D02*
G03*
X231694Y229307I0J585D01*
G01*
X230394D02*
G03*
X230979Y228722I585J0D01*
G01*
X230394Y231862D02*
G03*
X229809Y232447I-585J0D01*
G01*
X229679D02*
G03*
X229094Y231862I0J-585D01*
G01*
X228509Y228722D02*
G03*
X229094Y229307I0J585D01*
G01*
X227794D02*
G03*
X228379Y228722I585J0D01*
G01*
X227794Y231862D02*
G03*
X227209Y232447I-585J0D01*
G01*
X227079D02*
G03*
X226494Y231862I0J-585D01*
G01*
X225909Y228722D02*
G03*
X226494Y229307I0J585D01*
G01*
X225194D02*
G03*
X225779Y228722I585J0D01*
G01*
X225194Y231862D02*
G03*
X224609Y232447I-585J0D01*
G01*
X224479D02*
G03*
X223894Y231862I0J-585D01*
G01*
X223309Y230333D02*
G03*
X223894Y230918I0J585D01*
G01*
X219400Y231537D02*
G03*
X220228Y231537I414J414D01*
G01*
X217040Y233897D02*
G03*
X216213Y233897I-414J-414D01*
G01*
X216121Y233805D02*
G03*
X216121Y232978I414J-414D01*
G01*
X219613Y228659D02*
G03*
X219613Y229486I-414J414D01*
G01*
X218694Y228567D02*
G03*
X219521Y228567I414J414D01*
G01*
X214940Y232321D02*
G03*
X214112Y232321I-414J-414D01*
G01*
X214020Y232229D02*
G03*
X214020Y231402I414J-414D01*
G01*
X216643Y227952D02*
G03*
X216643Y228780I-414J414D01*
G01*
X217449Y220213D02*
X217465D01*
X219266Y222014D01*
X221356Y232665D02*
X221384Y232694D01*
Y233170D01*
X250353Y233950D02*
X252470Y231833D01*
X222165Y233950D02*
X250353D01*
X221384Y233170D02*
X222165Y233950D01*
X223748Y220197D02*
X225565Y222014D01*
X217449Y213898D02*
X218952Y212394D01*
X221931Y227829D02*
X233900D01*
X220288Y209174D02*
X239805D01*
X241312Y207667D01*
X248085D02*
X250519D01*
X247500Y206013D02*
Y207082D01*
X246785Y205428D02*
X246915D01*
X246200Y206013D02*
Y207082D01*
X245485Y207667D02*
X245615D01*
X244900Y205202D02*
Y207082D01*
X244185Y204617D02*
X244315D01*
X243600Y205202D02*
Y207082D01*
X241465Y207667D02*
X243015D01*
X250519D02*
X293552D01*
X241312D02*
X241465D01*
X286544Y215456D02*
X286720Y215280D01*
X286111Y215889D02*
X286544Y215456D01*
X286111Y215889D02*
X286111Y215889D01*
X285188Y215793D02*
X285284Y215889D01*
X284269Y215885D02*
X284361Y215793D01*
X284269Y216713D02*
X286254Y218697D01*
Y218697D02*
Y218697D01*
X286254Y219525D02*
X286254Y219525D01*
X286162Y219617D02*
X286254Y219525D01*
X286162Y219617D02*
X286162Y219617D01*
X284273Y218555D02*
X285334Y219617D01*
X283445Y218555D02*
X283445Y218555D01*
X283445Y218555D02*
X283445Y218555D01*
X283268Y218732D02*
X283445Y218555D01*
X286720Y215280D02*
X288000Y214000D01*
X283192Y218808D02*
X283268Y218732D01*
X283192Y218808D02*
Y220693D01*
X251326Y225333D02*
X252439D01*
X250741Y219146D02*
Y224748D01*
X250026Y218561D02*
X250156D01*
X249441Y219146D02*
Y225126D01*
X248726Y225711D02*
X248856D01*
X248141Y219146D02*
Y225126D01*
X247426Y218561D02*
X247556D01*
X246841Y219146D02*
Y224748D01*
X246126Y225333D02*
X246256D01*
X245541Y224378D02*
Y224748D01*
X244826Y223793D02*
X244956D01*
X244241Y224378D02*
Y224748D01*
X243367Y225333D02*
X243656D01*
X242398Y224364D02*
X243367Y225333D01*
X240048Y222014D02*
X242398Y224364D01*
X252439Y225333D02*
X278552D01*
X249620Y227829D02*
X251034D01*
X249035Y228414D02*
Y228520D01*
X248320Y229105D02*
X248450D01*
X247735Y226811D02*
Y228520D01*
X247020Y226226D02*
X247150D01*
X246435Y226811D02*
Y228854D01*
X245720Y229439D02*
X245850D01*
X245135Y226811D02*
Y228854D01*
X244420Y226226D02*
X244550D01*
X243835Y226811D02*
Y228854D01*
X243120Y229439D02*
X243250D01*
X242535Y226350D02*
Y228854D01*
X241820Y225765D02*
X241950D01*
X241235Y226350D02*
Y228854D01*
X240520Y229439D02*
X240650D01*
X239935Y228414D02*
Y228854D01*
X239220Y227829D02*
X239350D01*
X238635Y228414D02*
Y228854D01*
X237920Y229439D02*
X238050D01*
X237335Y225264D02*
Y228854D01*
X236620Y224679D02*
X236750D01*
X236035Y225264D02*
Y227244D01*
X233900Y227829D02*
X235450D01*
X251034D02*
X252287D01*
X253889Y226226D01*
X236179Y230333D02*
X237396D01*
X235594Y230918D02*
Y230918D01*
X234879Y231503D02*
X235009D01*
X234294Y229759D02*
Y230918D01*
X233579Y229174D02*
X233709D01*
X232994Y229759D02*
Y231862D01*
X232279Y232447D02*
X232409D01*
X231694Y229307D02*
Y231862D01*
X230979Y228722D02*
X231109D01*
X230394Y229307D02*
Y231862D01*
X229679Y232447D02*
X229809D01*
X229094Y229307D02*
Y231862D01*
X228379Y228722D02*
X228509D01*
X227794Y229307D02*
Y231862D01*
X227079Y232447D02*
X227209D01*
X226494Y229307D02*
Y231862D01*
X225779Y228722D02*
X225909D01*
X225194Y229307D02*
Y231862D01*
X224479Y232447D02*
X224609D01*
X223894Y230918D02*
Y231862D01*
X223059Y230333D02*
X223309D01*
X237396D02*
X276677D01*
X222550D02*
X223059D01*
X220228Y231537D02*
X221356Y232665D01*
X217040Y233897D02*
X219400Y231537D01*
X216121Y233805D02*
X216213Y233897D01*
X216121Y232978D02*
X219613Y229486D01*
X219613Y229486D02*
X219613Y229486D01*
X219521Y228567D02*
X219613Y228659D01*
X218694Y228567D02*
X218694Y228567D01*
X214940Y232321D02*
X218694Y228567D01*
X214940Y232321D02*
X214940Y232321D01*
X214020Y232229D02*
X214112Y232321D01*
X214020Y231402D02*
X214020Y231402D01*
X216643Y228780D01*
X216466Y227776D02*
X216643Y227952D01*
X215260Y226570D02*
X216466Y227776D01*
X218952Y210509D02*
Y212394D01*
Y210509D02*
X220288Y209174D01*
X293552Y207667D02*
X295692Y209807D01*
Y221692D01*
X298000Y224000D01*
X282765Y226120D02*
X293000Y215885D01*
Y214000D02*
Y215885D01*
X225565Y222014D02*
X240048D01*
X278552Y225333D02*
X283192Y220693D01*
X253889Y226226D02*
X278922D01*
X279029Y226120D02*
X282765D01*
X278922Y226226D02*
X279029Y226120D01*
X276677Y230333D02*
X279342Y227667D01*
X284333D01*
X220598Y226496D02*
X221931Y227829D01*
X219266Y222014D02*
Y227048D01*
X222550Y230333D01*
X284333Y227667D02*
X288000Y224000D01*
X214299Y226496D02*
X214373Y226570D01*
X215260D01*
X252470Y231833D02*
X287155D01*
X291204Y225975D02*
X293000Y224178D01*
X287155Y231833D02*
X291204Y227784D01*
Y225975D02*
Y227784D01*
X293000Y224000D02*
Y224178D01*
D13*
X171182Y226625D02*
X178063Y233506D01*
X171182Y204957D02*
Y226625D01*
X147236Y225185D02*
X152500Y219921D01*
X122300Y225185D02*
X147236D01*
X201615Y201385D02*
X201701D01*
X211056Y210740D01*
X211142D01*
X204732Y201299D02*
X204835D01*
X203236Y199803D02*
X204732Y201299D01*
X197966Y199803D02*
X203236D01*
X197880Y199716D02*
X197966Y199803D01*
X192915Y199716D02*
X197880D01*
X192908Y199724D02*
X192915Y199716D01*
X182148Y199724D02*
X192908D01*
X182140Y199716D02*
X182148Y199724D01*
X175848Y199716D02*
X182140D01*
X173515Y202050D02*
X175848Y199716D01*
X173515Y202050D02*
Y202624D01*
X171182Y204957D02*
X173515Y202624D01*
D59*
X198991Y152016D02*
D03*
Y155953D02*
D03*
X142700Y123300D02*
D03*
X298000Y149000D02*
D03*
X293000D02*
D03*
X288000D02*
D03*
X283000D02*
D03*
X278000D02*
D03*
X273000D02*
D03*
X268000D02*
D03*
X263000D02*
D03*
X258000D02*
D03*
X253000D02*
D03*
X238500Y122600D02*
D03*
X234700D02*
D03*
X231100D02*
D03*
X298000Y144000D02*
D03*
X293000D02*
D03*
X288000D02*
D03*
X283000D02*
D03*
X278000D02*
D03*
X273000D02*
D03*
X268000D02*
D03*
X263000D02*
D03*
X258000D02*
D03*
X253000D02*
D03*
X152500Y118300D02*
D03*
Y133100D02*
D03*
X207000D02*
D03*
Y118300D02*
D03*
X147500Y118100D02*
D03*
Y133300D02*
D03*
X242284Y122633D02*
D03*
X245700Y122600D02*
D03*
X226284Y122567D02*
D03*
X202000Y133300D02*
D03*
Y118100D02*
D03*
X118325Y164724D02*
D03*
X191025Y148979D02*
D03*
X188200Y141300D02*
D03*
X156055Y128348D02*
D03*
X157500Y123100D02*
D03*
X239000Y249300D02*
D03*
X140700Y234800D02*
D03*
X202000Y128300D02*
D03*
Y123100D02*
D03*
X188300Y137400D02*
D03*
Y133500D02*
D03*
X177900Y138374D02*
D03*
X267800Y131000D02*
D03*
X268399Y108900D02*
D03*
X199925Y140267D02*
D03*
X171747Y105000D02*
D03*
X158834Y158210D02*
D03*
X119372Y160228D02*
D03*
X177996Y154000D02*
D03*
X217100Y156653D02*
D03*
X210400Y156364D02*
D03*
X144150Y152700D02*
D03*
X150566Y158210D02*
D03*
X189053Y105000D02*
D03*
X212000Y128300D02*
D03*
X142700Y118300D02*
D03*
Y128300D02*
D03*
X212000Y123100D02*
D03*
X152700Y128100D02*
D03*
X273406Y109100D02*
D03*
X178063Y233506D02*
D03*
X133533Y152284D02*
D03*
X133500Y146300D02*
D03*
Y140600D02*
D03*
X188300Y110300D02*
D03*
Y119300D02*
D03*
X188400Y123500D02*
D03*
Y114800D02*
D03*
X188333Y129516D02*
D03*
X133100Y118400D02*
D03*
X133500Y128700D02*
D03*
X133533Y132916D02*
D03*
D62*
X251372Y217721D02*
G03*
X250834Y217183I0J-537D01*
G01*
X250297Y216646D02*
G03*
X250834Y217183I0J537D01*
G01*
X249641D02*
G03*
X250178Y216646I537J0D01*
G01*
X249641Y217196D02*
G03*
X249104Y217733I-537J0D01*
G01*
X248984D02*
G03*
X248447Y217196I0J-537D01*
G01*
X247910Y212798D02*
G03*
X248447Y213335I0J537D01*
G01*
X247253D02*
G03*
X247791Y212798I537J0D01*
G01*
X247253Y217183D02*
G03*
X246716Y217721I-537J0D01*
G01*
X246597D02*
G03*
X246060Y217183I0J-537D01*
G01*
X245522Y213740D02*
G03*
X246060Y214277I0J537D01*
G01*
X244866D02*
G03*
X245403Y213740I537J0D01*
G01*
X244866Y219259D02*
G03*
X244329Y219796I-537J0D01*
G01*
X244209D02*
G03*
X243672Y219259I0J-537D01*
G01*
X243135Y212815D02*
G03*
X243672Y213352I0J537D01*
G01*
X242478D02*
G03*
X243016Y212815I537J0D01*
G01*
X242478Y219259D02*
G03*
X241941Y219796I-537J0D01*
G01*
X241822D02*
G03*
X241285Y219259I0J-537D01*
G01*
X240748Y217721D02*
G03*
X241285Y218258I0J537D01*
G01*
X248905Y211181D02*
G03*
X248367Y210644I0J-537D01*
G01*
X247830Y209952D02*
G03*
X248367Y210489I0J537D01*
G01*
X247174D02*
G03*
X247711Y209952I537J0D01*
G01*
X247174Y211094D02*
G03*
X246637Y211631I-537J0D01*
G01*
X246517D02*
G03*
X245980Y211094I0J-537D01*
G01*
X245443Y208508D02*
G03*
X245980Y209045I0J537D01*
G01*
X244786D02*
G03*
X245323Y208508I537J0D01*
G01*
X244786Y210642D02*
G03*
X244629Y211022I-537J0D01*
G01*
X264809Y154000D02*
X268000D01*
X261089Y157720D02*
X264809Y154000D01*
X240858Y157720D02*
X261089D01*
X201701Y176102D02*
X203571Y174232D01*
X205899Y160645D02*
X237933D01*
X240858Y157720D01*
X203571Y162974D02*
Y174232D01*
Y162974D02*
X205899Y160645D01*
X265146Y236854D02*
X268000Y234000D01*
X191352Y236854D02*
X265146D01*
X181524Y227026D02*
X191352Y236854D01*
X181524Y213368D02*
Y227026D01*
Y213368D02*
X182273Y212618D01*
X199081D02*
X200297Y213834D01*
Y215643D01*
X201701Y217047D01*
X182273Y212618D02*
X199081D01*
X210620Y218327D02*
X238163D01*
X217385Y215643D02*
X231793D01*
X216169Y214428D02*
X217385Y215643D01*
X194122Y171673D02*
X195402Y172953D01*
X226898Y204449D02*
X228302Y203045D01*
Y201235D02*
Y203045D01*
X229517Y200020D02*
X252210D01*
X189102Y167994D02*
X196099Y160997D01*
X219319Y206319D02*
X220598Y207598D01*
X219319Y197620D02*
Y206319D01*
X221878Y212028D02*
X242859D01*
X179714Y208878D02*
X181750D01*
X177784Y210809D02*
X179714Y208878D01*
X200297Y212494D02*
X201701Y213898D01*
X197147Y215302D02*
X198551Y213898D01*
X204850Y217047D02*
X209340D01*
X189102Y167994D02*
Y169803D01*
X198786Y165079D02*
X200421Y163443D01*
X196953Y166442D02*
X198317Y165079D01*
X196953Y166442D02*
Y168252D01*
X198317Y165079D02*
X198786D01*
X200421Y162974D02*
Y163443D01*
X195402Y169803D02*
X196953Y168252D01*
X194122Y166124D02*
Y171673D01*
X201175Y159071D02*
X217188D01*
X199331Y158118D02*
X205224D01*
X196453Y160997D02*
X199331Y158118D01*
X194122Y166124D02*
X201175Y159071D01*
X212964Y158136D02*
X217100Y154000D01*
X205241Y158136D02*
X212964D01*
X205224Y158118D02*
X205241Y158136D01*
X217100Y154000D02*
X253000D01*
X214328Y167933D02*
X240026D01*
X230108Y187421D02*
X256421D01*
X231793Y215643D02*
X233197Y217047D01*
X201701Y223346D02*
X202980Y222067D01*
Y210218D02*
Y222067D01*
X199081Y206319D02*
X202980Y210218D01*
X184309Y206319D02*
X199081D01*
X181750Y208878D02*
X184309Y206319D01*
X177784Y210809D02*
Y211278D01*
X175224Y213837D02*
X177784Y211278D01*
X175224Y213837D02*
Y224990D01*
X193238Y243004D01*
X270806D01*
X276089Y237720D01*
X279279D01*
X283000Y234000D01*
X231616Y202880D02*
X240720D01*
X216169Y197620D02*
Y214428D01*
Y197620D02*
X219084Y194705D01*
X235302D01*
X236642Y193365D01*
Y192895D02*
Y193365D01*
Y192895D02*
X238769Y190768D01*
X258042D01*
X261089Y187721D01*
X296721D01*
X298000Y189000D01*
X219319Y197620D02*
X221446Y195492D01*
X237584Y194705D02*
X238451D01*
X221446Y195492D02*
X236796D01*
X237584Y194705D01*
X238451D02*
X240436Y192720D01*
X261089D01*
X200297Y210684D02*
Y212494D01*
X199081Y209469D02*
X200297Y210684D01*
X182273Y209469D02*
X199081D01*
X180933Y210809D02*
X182273Y209469D01*
X180933Y210809D02*
Y211278D01*
X178374Y213837D02*
X180933Y211278D01*
X178374Y213837D02*
Y227026D01*
X191628Y240280D01*
X268530D01*
X274810Y234000D01*
X278000D01*
X185889Y215302D02*
X197147D01*
X184673Y216517D02*
X185889Y215302D01*
X184673Y216517D02*
Y227026D01*
X193714Y236067D01*
X260933D01*
X263000Y234000D01*
X196076Y235279D02*
X256720D01*
X258000Y234000D01*
X187823Y221476D02*
X189102Y220197D01*
X187823Y221476D02*
Y227026D01*
X196076Y235279D01*
X261089Y192720D02*
X264809Y189000D01*
X268000D01*
X291721Y200279D02*
X293000Y199000D01*
X252470Y200279D02*
X291721D01*
X252210Y200020D02*
X252470Y200279D01*
X228302Y201235D02*
X229517Y200020D01*
X242100Y201500D02*
X292309D01*
X240720Y202880D02*
X242100Y201500D01*
X230047Y204449D02*
X231616Y202880D01*
X292309Y201500D02*
X294810Y199000D01*
X298000D01*
X243034Y202720D02*
X271721D01*
X240026Y205728D02*
X243034Y202720D01*
X231917Y205728D02*
X240026D01*
X230047Y207598D02*
X231917Y205728D01*
X271721Y202720D02*
X273000Y204000D01*
X223748Y182402D02*
X225152Y183806D01*
Y188765D01*
X226368Y189980D01*
X239060D01*
X240041Y189000D01*
X253000D01*
X226898Y182402D02*
X228597Y184101D01*
Y185910D01*
X230108Y187421D01*
X256421D02*
X258000Y189000D01*
X226898Y179252D02*
X228367Y180721D01*
Y182531D01*
X229836Y184000D01*
X253000D01*
X233197Y182402D02*
X234476Y181122D01*
X291932D01*
X294810Y184000D01*
X298000D01*
X226898Y176102D02*
X228177Y177382D01*
X256428D01*
X259809Y174000D01*
X263000D01*
X220598Y176102D02*
X222468Y174232D01*
X240026D01*
X241538Y172721D01*
X266089D01*
X269810Y169000D01*
X273000D01*
X217449Y172953D02*
X219319Y171083D01*
X240026D01*
X242109Y169000D01*
X253000D01*
X204850Y169803D02*
X206130Y171083D01*
X211680D01*
X213004Y169758D01*
Y169257D02*
Y169758D01*
Y169257D02*
X214328Y167933D01*
X240026D02*
X240239Y167720D01*
X256089D01*
X259809Y164000D01*
X263000D01*
X211150Y169803D02*
X212554Y168399D01*
Y166590D02*
Y168399D01*
Y166590D02*
X213769Y165374D01*
X253435D01*
X254809Y164000D01*
X258000D01*
X241423Y160280D02*
X253530D01*
X239478Y162224D02*
X241423Y160280D01*
X253530D02*
X254809Y159000D01*
X204850Y166654D02*
X209279Y162224D01*
X239478D01*
X254809Y159000D02*
X258000D01*
X218423Y159858D02*
X220561Y157720D01*
X203537Y159858D02*
X218423D01*
X217188Y159071D02*
X221097Y155161D01*
X244450D01*
X239745Y157720D02*
X240965Y156500D01*
X220561Y157720D02*
X239745D01*
X240965Y156500D02*
X260500D01*
X263000Y154000D01*
X244568Y155280D02*
X256720D01*
X258000Y154000D01*
X244450Y155161D02*
X244568Y155280D01*
X200421Y162974D02*
X203537Y159858D01*
X196099Y160997D02*
X196453D01*
X251372Y217721D02*
X252183D01*
X250834Y217183D02*
Y217183D01*
X250178Y216646D02*
X250297D01*
X249641Y217183D02*
Y217196D01*
X248984Y217733D02*
X249104D01*
X248447Y213335D02*
Y217196D01*
X247791Y212798D02*
X247910D01*
X247253Y213335D02*
Y217183D01*
X246597Y217721D02*
X246716D01*
X246060Y214277D02*
Y217183D01*
X245403Y213740D02*
X245522D01*
X244866Y214277D02*
Y219259D01*
X244209Y219796D02*
X244329D01*
X243672Y213352D02*
Y219259D01*
X243016Y212815D02*
X243135D01*
X242478Y213352D02*
Y219259D01*
X241822Y219796D02*
X241941D01*
X241285Y218258D02*
Y219259D01*
X240632Y217721D02*
X240748D01*
X240026Y218327D02*
X240632Y217721D01*
X238163Y218327D02*
X240026D01*
X252183Y217721D02*
X268530D01*
X248905Y211181D02*
X250400D01*
X248367Y210489D02*
Y210644D01*
X247711Y209952D02*
X247830D01*
X247174Y210489D02*
Y211094D01*
X246517Y211631D02*
X246637D01*
X245980Y209045D02*
Y211094D01*
X245323Y208508D02*
X245443D01*
X244786Y209045D02*
Y210642D01*
X244629Y211022D02*
X244629Y211022D01*
X243623Y212028D02*
X244629Y211022D01*
X242859Y212028D02*
X243623D01*
X278000Y222190D02*
Y224000D01*
X266991Y211181D02*
X278000Y222190D01*
X250400Y211181D02*
X266991D01*
X220598Y210748D02*
X221878Y212028D01*
X273000Y222190D02*
Y224000D01*
X268530Y217721D02*
X273000Y222190D01*
X209340Y217047D02*
X210620Y218327D01*
D65*
X152500Y219921D02*
X155650Y216772D01*
Y210472D02*
Y216772D01*
X192252Y223346D02*
X193919Y225013D01*
Y227619D01*
X200200Y233900D01*
X220500Y143100D02*
X227600Y136000D01*
X271500D01*
X144150Y152700D02*
X165700D01*
X187528Y174528D01*
X196976D01*
X198551Y176102D01*
D66*
X177996Y154000D02*
X186412Y145584D01*
X199620D02*
X210400Y156364D01*
X186412Y145584D02*
X199620D01*
D67*
X122000Y112000D02*
D03*
Y258000D02*
D03*
X317000Y112000D02*
D03*
Y258000D02*
D03*
D68*
X222717Y232618D02*
D03*
X211150Y217032D02*
D03*
X217449Y220213D02*
D03*
X214299D02*
D03*
X268000Y239000D02*
D03*
X192252Y201307D02*
D03*
X288000Y159000D02*
D03*
X189102Y172937D02*
D03*
X268000Y159000D02*
D03*
X201701Y172953D02*
D03*
X268000Y154000D02*
D03*
X201701Y176102D02*
D03*
X182803D02*
D03*
X155650Y182126D02*
D03*
X176504Y188701D02*
D03*
X185953Y185551D02*
D03*
X201701Y169803D02*
D03*
Y188701D02*
D03*
X198551Y191850D02*
D03*
X149350Y207323D02*
D03*
X152500Y207323D02*
D03*
X155650Y201024D02*
D03*
X133602Y213622D02*
D03*
X182803Y210748D02*
D03*
X155650Y219921D02*
D03*
X195402Y210748D02*
D03*
X201701Y220197D02*
D03*
X198551Y226496D02*
D03*
X204850Y210748D02*
D03*
X230047Y182402D02*
D03*
X217449Y204449D02*
D03*
X220598Y185551D02*
D03*
X226898Y207598D02*
D03*
X236347Y204449D02*
D03*
X123760Y215211D02*
D03*
X214307Y207598D02*
D03*
X223748Y163504D02*
D03*
X214299Y166654D02*
D03*
X185953Y220197D02*
D03*
X298000Y234000D02*
D03*
X127303Y201024D02*
D03*
X236347Y169803D02*
D03*
X226898Y172953D02*
D03*
X239496Y179252D02*
D03*
X233197Y226496D02*
D03*
X211150Y223346D02*
D03*
X239496Y213898D02*
D03*
X217449Y198150D02*
D03*
X233197Y191850D02*
D03*
X204850Y198150D02*
D03*
X214299Y185551D02*
D03*
X211150Y182402D02*
D03*
X201701D02*
D03*
X152500Y191575D02*
D03*
Y201024D02*
D03*
X201701Y191850D02*
D03*
X220598Y220197D02*
D03*
X195402Y204449D02*
D03*
X179654Y201307D02*
D03*
X189102Y163504D02*
D03*
X179654Y169803D02*
D03*
X223748Y198150D02*
D03*
X209146Y251724D02*
D03*
X220500Y247500D02*
D03*
X128874Y177402D02*
D03*
X128878Y171102D02*
D03*
X230047Y217047D02*
D03*
X173500Y226500D02*
D03*
X288000Y239000D02*
D03*
X293000Y159000D02*
D03*
X189102Y176102D02*
D03*
X253000Y234000D02*
D03*
X198551Y220197D02*
D03*
X268000Y234000D02*
D03*
X201701Y217047D02*
D03*
X293000Y239000D02*
D03*
X198354Y260800D02*
D03*
X283000Y239000D02*
D03*
X240874Y232008D02*
D03*
X195402Y220197D02*
D03*
X298000Y239000D02*
D03*
X192947Y260800D02*
D03*
X172765Y219936D02*
D03*
X152500Y197874D02*
D03*
X127303Y204165D02*
D03*
X223764Y226496D02*
D03*
Y223346D02*
D03*
X220598Y217047D02*
D03*
Y223346D02*
D03*
X236347Y217047D02*
D03*
Y213898D02*
D03*
X233197Y220197D02*
D03*
X236347D02*
D03*
X217449Y217047D02*
D03*
X230047Y220197D02*
D03*
X223748Y191850D02*
D03*
X220598D02*
D03*
X155650Y178976D02*
D03*
Y172677D02*
D03*
X283000Y234000D02*
D03*
X239496Y169803D02*
D03*
X242000Y149500D02*
D03*
X226898Y198150D02*
D03*
Y191850D02*
D03*
X230047D02*
D03*
Y198150D02*
D03*
X226898Y201299D02*
D03*
X230047D02*
D03*
X233197Y198150D02*
D03*
X223748Y188701D02*
D03*
Y185551D02*
D03*
X220598Y188701D02*
D03*
X226898Y185551D02*
D03*
X122300Y225185D02*
D03*
X200200Y233900D02*
D03*
X205476Y241724D02*
D03*
X240700Y245400D02*
D03*
X182476Y251724D02*
D03*
Y241724D02*
D03*
X201701Y163504D02*
D03*
Y198150D02*
D03*
X183600Y161000D02*
D03*
X195402Y172953D02*
D03*
X223748Y201299D02*
D03*
X201615Y201385D02*
D03*
X195402Y201299D02*
D03*
X166476Y215124D02*
D03*
X192449Y188701D02*
D03*
X189102D02*
D03*
X192252Y169819D02*
D03*
Y166654D02*
D03*
X195402Y182402D02*
D03*
X195402Y188701D02*
D03*
X185953Y169803D02*
D03*
X226898Y220197D02*
D03*
X223748D02*
D03*
X220598Y207598D02*
D03*
X223748Y210748D02*
D03*
X217449Y223346D02*
D03*
X133602Y216772D02*
D03*
X204850Y163504D02*
D03*
X220500Y143100D02*
D03*
X189102Y179252D02*
D03*
X185953D02*
D03*
X189102Y182402D02*
D03*
X192449D02*
D03*
X198543Y207598D02*
D03*
X179654D02*
D03*
X185953Y213898D02*
D03*
X201701D02*
D03*
X198551D02*
D03*
X195402D02*
D03*
X176504Y217047D02*
D03*
X189102Y213898D02*
D03*
X192256D02*
D03*
X182803D02*
D03*
X204850Y217047D02*
D03*
X192252Y220197D02*
D03*
Y223346D02*
D03*
X136752Y169528D02*
D03*
X133602D02*
D03*
X189102Y169803D02*
D03*
X198551Y163504D02*
D03*
X152500Y216772D02*
D03*
X182803Y188701D02*
D03*
X179654D02*
D03*
X195402Y169803D02*
D03*
X204850Y179252D02*
D03*
Y176102D02*
D03*
X198551Y169803D02*
D03*
Y172953D02*
D03*
X211150Y179236D02*
D03*
X214299Y198150D02*
D03*
X217449Y213898D02*
D03*
X220598Y198150D02*
D03*
X211134Y185551D02*
D03*
X204835Y201299D02*
D03*
X208000D02*
D03*
X204850Y191858D02*
D03*
X230031Y163520D02*
D03*
X220598Y163504D02*
D03*
X223748Y166654D02*
D03*
X226898D02*
D03*
X130453Y178976D02*
D03*
X130468Y201024D02*
D03*
X230047Y213898D02*
D03*
X233197Y188701D02*
D03*
Y217047D02*
D03*
X239496Y210748D02*
D03*
X226898Y213898D02*
D03*
X230047Y210748D02*
D03*
X233197D02*
D03*
X236347D02*
D03*
X233197Y213898D02*
D03*
X185953Y207598D02*
D03*
X239440Y201355D02*
D03*
X236347Y198150D02*
D03*
X211142Y213906D02*
D03*
X214299Y188701D02*
D03*
X217449Y169803D02*
D03*
X226898Y163504D02*
D03*
X211000Y232800D02*
D03*
X198551Y210748D02*
D03*
X236018Y156441D02*
D03*
X204850Y226496D02*
D03*
X233197Y201299D02*
D03*
X239496Y166654D02*
D03*
Y172953D02*
D03*
X220598Y169803D02*
D03*
Y226496D02*
D03*
X217449D02*
D03*
X273000Y239000D02*
D03*
X278000D02*
D03*
X195402Y191850D02*
D03*
X198551Y182402D02*
D03*
X195402Y207598D02*
D03*
X198551Y198150D02*
D03*
Y188701D02*
D03*
X177900Y129200D02*
D03*
X226898Y223346D02*
D03*
X223748Y213898D02*
D03*
X214299Y217047D02*
D03*
X223064Y253900D02*
D03*
X154936Y243375D02*
D03*
X195402Y217047D02*
D03*
X127303Y182126D02*
D03*
X133602Y188425D02*
D03*
X130453Y197874D02*
D03*
X152500Y188425D02*
D03*
X149350Y201024D02*
D03*
X155650Y197874D02*
D03*
X123760Y218360D02*
D03*
X155650Y207323D02*
D03*
Y210472D02*
D03*
X152500Y219921D02*
D03*
X176504Y172953D02*
D03*
X179654Y182402D02*
D03*
X182803Y191850D02*
D03*
X176504Y207402D02*
D03*
X182803Y226496D02*
D03*
X185953Y204449D02*
D03*
X179654Y217047D02*
D03*
X123100Y133900D02*
D03*
X220598Y204449D02*
D03*
X226898Y188701D02*
D03*
X245000Y222461D02*
D03*
Y212461D02*
D03*
X230047Y166654D02*
D03*
X223748Y179252D02*
D03*
X245500Y185461D02*
D03*
X233197Y176102D02*
D03*
X236347Y185551D02*
D03*
X239496Y163504D02*
D03*
X198551Y176102D02*
D03*
X211150Y172953D02*
D03*
X195402Y166654D02*
D03*
X192252Y198142D02*
D03*
X214299Y182402D02*
D03*
Y204449D02*
D03*
X211142Y207598D02*
D03*
X211150Y191850D02*
D03*
X201701Y185551D02*
D03*
X201701Y179252D02*
D03*
X177900Y142943D02*
D03*
X258000Y229000D02*
D03*
X217449Y210748D02*
D03*
X253000Y229000D02*
D03*
X201701Y226496D02*
D03*
X258000Y224000D02*
D03*
X214299Y213898D02*
D03*
X253000Y224000D02*
D03*
X258000Y219000D02*
D03*
X253000D02*
D03*
X189102Y226496D02*
D03*
X172064Y250100D02*
D03*
X178476Y246724D02*
D03*
X192236Y226496D02*
D03*
X205476Y246724D02*
D03*
X195402Y223346D02*
D03*
X192252Y217047D02*
D03*
X198551Y223346D02*
D03*
X172064Y256800D02*
D03*
X195402Y226496D02*
D03*
X211150Y220197D02*
D03*
X263000Y229000D02*
D03*
X204850Y220197D02*
D03*
X201701Y223346D02*
D03*
X283000Y229000D02*
D03*
X214325Y223321D02*
D03*
X283000Y214000D02*
D03*
X226898Y217047D02*
D03*
X278000Y214000D02*
D03*
X298000Y229000D02*
D03*
Y224000D02*
D03*
Y219000D02*
D03*
X288000D02*
D03*
X211150Y226496D02*
D03*
X214307Y210748D02*
D03*
X293000Y229000D02*
D03*
X214299Y226496D02*
D03*
X293000Y224000D02*
D03*
X223748Y217047D02*
D03*
X293000Y219000D02*
D03*
Y214000D02*
D03*
X288000Y229000D02*
D03*
Y214000D02*
D03*
Y224000D02*
D03*
X298000Y214000D02*
D03*
X263000Y224000D02*
D03*
X268000D02*
D03*
Y219000D02*
D03*
X226898Y226496D02*
D03*
X268000Y214000D02*
D03*
X263000Y219000D02*
D03*
X230047Y223346D02*
D03*
X278000Y224000D02*
D03*
X220598Y210748D02*
D03*
X230047Y226496D02*
D03*
X273000Y224000D02*
D03*
Y219000D02*
D03*
X233197Y223346D02*
D03*
X273000Y214000D02*
D03*
X220598Y213898D02*
D03*
X278000Y219000D02*
D03*
X189102Y220197D02*
D03*
X258000Y234000D02*
D03*
X263000D02*
D03*
X273000D02*
D03*
X278000D02*
D03*
X189102Y223346D02*
D03*
X288000Y234000D02*
D03*
X189102Y217047D02*
D03*
X198551D02*
D03*
X293000Y234000D02*
D03*
X136752Y188425D02*
D03*
X152500Y182126D02*
D03*
X127303Y197874D02*
D03*
X192252Y204449D02*
D03*
X185953Y223346D02*
D03*
Y182402D02*
D03*
X136752Y194724D02*
D03*
X130453Y188425D02*
D03*
X188900Y185551D02*
D03*
X149350Y210472D02*
D03*
X179654Y210748D02*
D03*
X149350Y213622D02*
D03*
X133602Y204173D02*
D03*
X179654Y220197D02*
D03*
X133602Y201024D02*
D03*
X179654Y223346D02*
D03*
X136752Y210472D02*
D03*
X173776Y207724D02*
D03*
X146201Y207323D02*
D03*
X141576Y213224D02*
D03*
X176504Y201299D02*
D03*
Y204449D02*
D03*
X130453Y216772D02*
D03*
X179654Y204449D02*
D03*
X149350Y219921D02*
D03*
X185953Y201307D02*
D03*
X133602Y210472D02*
D03*
X182803Y201307D02*
D03*
Y204449D02*
D03*
X152500Y213622D02*
D03*
X136752D02*
D03*
X151076Y227724D02*
D03*
X145976Y216824D02*
D03*
X149350Y197874D02*
D03*
X176504Y210748D02*
D03*
X133602Y197874D02*
D03*
X136752D02*
D03*
X182803Y217047D02*
D03*
X185953Y226496D02*
D03*
X152500Y204173D02*
D03*
X179654Y226496D02*
D03*
X182803Y223346D02*
D03*
X149350Y204173D02*
D03*
X136752Y207323D02*
D03*
X182803Y220197D02*
D03*
X133602Y185276D02*
D03*
X172576Y187324D02*
D03*
X155650Y188425D02*
D03*
X182803Y185551D02*
D03*
X149391Y194584D02*
D03*
X179654Y191850D02*
D03*
X149388Y191437D02*
D03*
X136752Y191575D02*
D03*
X133602Y182126D02*
D03*
X189102Y198142D02*
D03*
X152500Y178976D02*
D03*
X189102Y191850D02*
D03*
X130453Y182126D02*
D03*
X185953Y210748D02*
D03*
X146201Y172677D02*
D03*
X141476Y192756D02*
D03*
X185953Y217047D02*
D03*
X171076Y202824D02*
D03*
X189102Y210748D02*
D03*
X146201Y188425D02*
D03*
X133602Y175827D02*
D03*
X189102Y201307D02*
D03*
X152500Y169528D02*
D03*
X179654Y195000D02*
D03*
X189102D02*
D03*
X133602Y172677D02*
D03*
X185953Y191850D02*
D03*
X152500Y172677D02*
D03*
X185953Y188701D02*
D03*
X152500Y175827D02*
D03*
X182803Y198142D02*
D03*
X136752Y175827D02*
D03*
X169976Y189124D02*
D03*
X149350Y175827D02*
D03*
X166876Y178824D02*
D03*
X136752Y178976D02*
D03*
X171476Y177124D02*
D03*
X233197Y172953D02*
D03*
X163500Y243275D02*
D03*
X192252Y191850D02*
D03*
X152500Y185276D02*
D03*
X189102Y207598D02*
D03*
Y204449D02*
D03*
X192256Y210748D02*
D03*
X258000Y239000D02*
D03*
X192252Y207598D02*
D03*
X253000Y239000D02*
D03*
X201701Y210748D02*
D03*
X263000Y239000D02*
D03*
X271500Y136000D02*
D03*
X236347Y172953D02*
D03*
X253000Y214000D02*
D03*
X258000D02*
D03*
X283000Y209000D02*
D03*
X288000D02*
D03*
X273000D02*
D03*
X278000D02*
D03*
X263000D02*
D03*
X220598Y201299D02*
D03*
X268000Y209000D02*
D03*
X223748Y204449D02*
D03*
X253000Y209000D02*
D03*
X223748Y207598D02*
D03*
X258000Y209000D02*
D03*
X236347Y207598D02*
D03*
X239496D02*
D03*
Y204449D02*
D03*
X230047Y207598D02*
D03*
X273000Y204000D02*
D03*
X233197Y207598D02*
D03*
X278000Y204000D02*
D03*
X263000D02*
D03*
X268000D02*
D03*
X253000D02*
D03*
X233197Y204449D02*
D03*
X258000Y204000D02*
D03*
X226898Y204449D02*
D03*
X293000Y199000D02*
D03*
X230047Y204449D02*
D03*
X298000Y199000D02*
D03*
X283000D02*
D03*
X288000D02*
D03*
X236347Y201299D02*
D03*
X234772Y193425D02*
D03*
X253000Y199000D02*
D03*
X237921Y193425D02*
D03*
X258000Y199000D02*
D03*
X293000Y194000D02*
D03*
X230047Y188701D02*
D03*
X298000Y194000D02*
D03*
X283000D02*
D03*
X288000D02*
D03*
X226898Y210748D02*
D03*
X273000Y194000D02*
D03*
X278000D02*
D03*
X263000D02*
D03*
X268000D02*
D03*
X253000D02*
D03*
X258000D02*
D03*
X239496Y217047D02*
D03*
X293000Y189000D02*
D03*
X298000D02*
D03*
X236347Y223346D02*
D03*
X283000Y189000D02*
D03*
X239496Y226496D02*
D03*
X288000Y189000D02*
D03*
X239496Y220197D02*
D03*
X273000Y189000D02*
D03*
X239496Y223346D02*
D03*
X278000Y189000D02*
D03*
X268000D02*
D03*
X263000Y214000D02*
D03*
Y189000D02*
D03*
X236347Y176102D02*
D03*
X223748Y182402D02*
D03*
X253000Y189000D02*
D03*
X226898Y182402D02*
D03*
X258000Y189000D02*
D03*
X230047Y185551D02*
D03*
X293000Y184000D02*
D03*
X233197Y182402D02*
D03*
X298000Y184000D02*
D03*
X233197Y166654D02*
D03*
X283000Y184000D02*
D03*
X236347Y166654D02*
D03*
X288000Y184000D02*
D03*
X273000D02*
D03*
X230047Y169803D02*
D03*
X278000Y184000D02*
D03*
X233197Y169803D02*
D03*
X230047Y176102D02*
D03*
X263000Y184000D02*
D03*
X233197Y179252D02*
D03*
X268000Y184000D02*
D03*
X226898Y179252D02*
D03*
X253000Y184000D02*
D03*
X230047Y179252D02*
D03*
X258000Y184000D02*
D03*
X293000Y179000D02*
D03*
X226898Y169803D02*
D03*
X298000Y179000D02*
D03*
X283000D02*
D03*
X233197Y163504D02*
D03*
X288000Y179000D02*
D03*
X236347Y163504D02*
D03*
X273000Y179000D02*
D03*
X278000D02*
D03*
X263000D02*
D03*
X239496Y176102D02*
D03*
X268000Y179000D02*
D03*
X253000D02*
D03*
X258000D02*
D03*
X298000Y174000D02*
D03*
X233197Y185551D02*
D03*
X293000Y174000D02*
D03*
X236347Y182402D02*
D03*
X220598Y172953D02*
D03*
X288000Y174000D02*
D03*
X223748Y172953D02*
D03*
Y169803D02*
D03*
X263000Y174000D02*
D03*
X226898Y176102D02*
D03*
X230047Y172953D02*
D03*
X268000Y174000D02*
D03*
X220598Y166654D02*
D03*
X253000Y174000D02*
D03*
X258000D02*
D03*
X298000Y169000D02*
D03*
X293000D02*
D03*
X220598Y182402D02*
D03*
X283000Y169000D02*
D03*
X220598Y179252D02*
D03*
X288000Y169000D02*
D03*
X220598Y176102D02*
D03*
X273000Y169000D02*
D03*
X278000D02*
D03*
X223748Y176102D02*
D03*
X214283Y169787D02*
D03*
X263000Y169000D02*
D03*
X217465Y166654D02*
D03*
X268000Y169000D02*
D03*
X217449Y172953D02*
D03*
X253000Y169000D02*
D03*
X258000D02*
D03*
X214299Y176102D02*
D03*
X293000Y164000D02*
D03*
X214315Y172953D02*
D03*
X298000Y164000D02*
D03*
X211134Y176102D02*
D03*
X283000Y164000D02*
D03*
X288000D02*
D03*
X236347Y179252D02*
D03*
X268000Y164000D02*
D03*
X273000D02*
D03*
X211150Y169803D02*
D03*
X258000Y164000D02*
D03*
X204850Y169803D02*
D03*
X263000Y164000D02*
D03*
X214283Y163504D02*
D03*
X298000Y159000D02*
D03*
X217449Y163504D02*
D03*
X253000Y164000D02*
D03*
X211150Y166654D02*
D03*
X278000Y159000D02*
D03*
X211150Y163504D02*
D03*
X283000Y159000D02*
D03*
X273000D02*
D03*
X204850Y166654D02*
D03*
X258000Y159000D02*
D03*
X201701Y166654D02*
D03*
X263000Y159000D02*
D03*
X298000Y154000D02*
D03*
X198551Y166654D02*
D03*
X253000Y159000D02*
D03*
X288000Y154000D02*
D03*
X293000D02*
D03*
X278000D02*
D03*
X283000D02*
D03*
X204850Y172953D02*
D03*
X273000Y154000D02*
D03*
X258000D02*
D03*
X263000D02*
D03*
X253000D02*
D03*
X192246Y185545D02*
D03*
X181700Y258600D02*
D03*
X209541Y260800D02*
D03*
X172429Y236724D02*
D03*
X194741Y160000D02*
D03*
X211142Y210740D02*
D03*
M02*
