G04*
G04 #@! TF.GenerationSoftware,Altium Limited,Altium Designer,25.6.2 (33)*
G04*
G04 Layer_Color=32768*
%FSLAX25Y25*%
%MOIN*%
G70*
G04*
G04 #@! TF.SameCoordinates,D3077B53-F130-49B9-AE0B-FC42BD5CCE1B*
G04*
G04*
G04 #@! TF.FilePolarity,Positive*
G04*
G01*
G75*
%ADD11C,0.00787*%
%ADD12C,0.00500*%
%ADD62C,0.00394*%
D11*
X253394Y133429D02*
G03*
X253394Y133429I-394J0D01*
G01*
X275528Y262446D02*
X279072D01*
Y255753D02*
Y262446D01*
X275528Y255753D02*
X279072D01*
X275528D02*
Y262446D01*
X125015Y164310D02*
Y178090D01*
X114385D02*
X125015D01*
X114385Y164310D02*
Y178090D01*
Y164310D02*
X125015D01*
X182025Y149450D02*
Y155750D01*
Y149450D02*
X185175D01*
Y155750D01*
X182025D02*
X185175D01*
X166546Y129128D02*
Y132672D01*
X159853Y129128D02*
X166546D01*
X159853D02*
Y132672D01*
X166546D01*
X162860Y216008D02*
Y222307D01*
X159710D02*
X162860D01*
X159710Y216008D02*
Y222307D01*
Y216008D02*
X162860D01*
X169766Y219060D02*
Y225359D01*
X166616D02*
X169766D01*
X166616Y219060D02*
Y225359D01*
Y219060D02*
X169766D01*
X187250Y262275D02*
X193550D01*
X187250Y259125D02*
Y262275D01*
Y259125D02*
X193550D01*
Y262275D01*
X197650Y259125D02*
X203950D01*
Y262275D01*
X197650D02*
X203950D01*
X197650Y259125D02*
Y262275D01*
X234442Y103139D02*
Y133061D01*
Y103139D02*
X252158D01*
Y133061D01*
X234442D02*
X252158D01*
X171858Y231931D02*
Y235081D01*
X178157D01*
Y231931D02*
Y235081D01*
X171858Y231931D02*
X178157D01*
X193310Y135185D02*
X207090D01*
Y145815D01*
X193310D02*
X207090D01*
X193310Y135185D02*
Y145815D01*
X133101Y165921D02*
X145699D01*
X133101Y156079D02*
Y165921D01*
Y156079D02*
X145699D01*
Y165921D01*
X164950Y152425D02*
X171250D01*
Y155575D01*
X164950D02*
X171250D01*
X164950Y152425D02*
Y155575D01*
X151910Y114580D02*
X165690D01*
X151910Y103950D02*
Y114580D01*
Y103950D02*
X165690D01*
Y114580D01*
X168643Y207402D02*
X172186D01*
X168643D02*
Y214094D01*
X172186D01*
Y207402D02*
Y214094D01*
X163701Y202577D02*
X167244D01*
Y195884D02*
Y202577D01*
X163701Y195884D02*
X167244D01*
X163701D02*
Y202577D01*
X148317Y194865D02*
X150483D01*
Y190535D02*
Y194865D01*
X148317Y190535D02*
X150483D01*
X148317D02*
Y194865D01*
X269844Y115516D02*
X275356D01*
Y127484D01*
X269844D02*
X275356D01*
X269844Y115516D02*
Y127484D01*
X136978Y122346D02*
Y126086D01*
X130088Y122346D02*
X136978D01*
X130088D02*
Y126086D01*
X136978D01*
X139845Y110630D02*
Y114370D01*
X132955Y110630D02*
X139845D01*
X132955D02*
Y114370D01*
X139845D01*
X215155Y120030D02*
X222045D01*
Y123770D01*
X215155D02*
X222045D01*
X215155Y120030D02*
Y123770D01*
D12*
X305894Y240910D02*
G03*
X300776Y246028I-5118J0D01*
G01*
X250224D02*
G03*
X245106Y240910I0J-5118D01*
G01*
Y142091D02*
G03*
X250224Y136972I5118J0D01*
G01*
X300776D02*
G03*
X305894Y142091I0J5118D01*
G01*
X265707Y133232D02*
X285293D01*
X269644Y249768D02*
X281356D01*
X245106Y142091D02*
Y144335D01*
X305894Y183626D02*
X307862D01*
Y199374D01*
X305894D02*
X307862D01*
X305894D02*
Y231579D01*
X307862D01*
Y238665D01*
X305894D02*
X307862D01*
X305894D02*
Y240910D01*
X281356Y246028D02*
X300776D01*
X281356D02*
Y249768D01*
X269644Y246028D02*
Y249768D01*
X250224Y246028D02*
X269644D01*
X245106Y238665D02*
Y240910D01*
X243138Y238665D02*
X245106D01*
X243138Y231579D02*
Y238665D01*
Y231579D02*
X245106D01*
Y199374D02*
Y231579D01*
X243138Y199374D02*
X245106D01*
X243138Y183626D02*
Y199374D01*
Y183626D02*
X245106D01*
Y151421D02*
Y183626D01*
X243138Y151421D02*
X245106D01*
X243138Y144335D02*
Y151421D01*
Y144335D02*
X245106D01*
X250224Y136972D02*
X265707D01*
Y133232D02*
Y136972D01*
X285293Y133232D02*
Y136972D01*
X300776D01*
X305894Y142091D02*
Y144335D01*
X307862D01*
Y151421D01*
X305894D02*
X307862D01*
X305894D02*
Y183626D01*
D62*
X324284Y112000D02*
G03*
X324284Y112000I-7283J0D01*
G01*
X129283D02*
G03*
X129283Y112000I-7283J0D01*
G01*
X324284Y258000D02*
G03*
X324284Y258000I-7283J0D01*
G01*
X129283D02*
G03*
X129283Y258000I-7283J0D01*
G01*
X295056Y252296D02*
Y264304D01*
X289544Y252296D02*
Y264304D01*
X295056D01*
X289544Y252296D02*
X295056D01*
X216272Y187654D02*
Y194346D01*
X212728Y187654D02*
Y194346D01*
Y187654D02*
X216272D01*
X212728Y194346D02*
X216272D01*
X137551Y144795D02*
Y150110D01*
X145819Y144795D02*
Y150110D01*
X137551Y144795D02*
X145819D01*
X137551Y150110D02*
X145819D01*
X170934Y158843D02*
Y164157D01*
X162666Y158843D02*
Y164157D01*
X170934D01*
X162666Y158843D02*
X170934D01*
X116642Y148566D02*
X121958D01*
X116642Y156834D02*
X121958D01*
Y148566D02*
Y156834D01*
X116642Y148566D02*
Y156834D01*
X164566Y140143D02*
Y145457D01*
X172834Y140143D02*
Y145457D01*
X164566Y140143D02*
X172834D01*
X164566Y145457D02*
X172834D01*
X170566Y126542D02*
Y131858D01*
X178834Y126542D02*
Y131858D01*
X170566Y126542D02*
X178834D01*
X170566Y131858D02*
X178834D01*
X177453Y144672D02*
X184146D01*
X177453Y141128D02*
X184146D01*
Y144672D01*
X177453Y141128D02*
Y144672D01*
X181754Y138972D02*
X188446D01*
X181754Y135428D02*
X188446D01*
Y138972D01*
X181754Y135428D02*
Y138972D01*
X181853Y130972D02*
X188547D01*
X181853Y127428D02*
X188547D01*
Y130972D01*
X181853Y127428D02*
Y130972D01*
X178834Y102342D02*
Y107658D01*
X170566Y102342D02*
Y107658D01*
X178834D01*
X170566Y102342D02*
X178834D01*
X175735Y110043D02*
Y115357D01*
X184002Y110043D02*
Y115357D01*
X175735Y110043D02*
X184002D01*
X175735Y115357D02*
X184002D01*
X181966Y102342D02*
Y107658D01*
X190234Y102342D02*
Y107658D01*
X181966Y102342D02*
X190234D01*
X181966Y107658D02*
X190234D01*
X127053Y134772D02*
X133747D01*
X127053Y131228D02*
X133747D01*
Y134772D01*
X127053Y131228D02*
Y134772D01*
X147018Y182081D02*
Y185821D01*
X140325Y182081D02*
Y185821D01*
X147018D01*
X140325Y182081D02*
X147018D01*
X127654Y171072D02*
X134346D01*
X127654Y167528D02*
X134346D01*
Y171072D01*
X127654Y167528D02*
Y171072D01*
X163333Y118254D02*
Y124946D01*
X175932Y118254D02*
Y124946D01*
X163333Y118254D02*
X175932D01*
X163333Y124946D02*
X175932D01*
X169220Y178779D02*
X175913D01*
X169220Y182323D02*
X175913D01*
X169220Y178779D02*
Y182323D01*
X175913Y178779D02*
Y182323D01*
X174496Y183780D02*
X181189D01*
X174496Y187323D02*
X181189D01*
X174496Y183780D02*
Y187323D01*
X181189Y183780D02*
Y187323D01*
X193954Y158228D02*
X200646D01*
X193954Y161772D02*
X200646D01*
X193954Y158228D02*
Y161772D01*
X200646Y158228D02*
Y161772D01*
X194957Y148066D02*
Y156334D01*
X189643Y148066D02*
Y156334D01*
Y148066D02*
X194957D01*
X189643Y156334D02*
X194957D01*
X195522Y124653D02*
Y131346D01*
X191978Y124653D02*
Y131346D01*
Y124653D02*
X195522D01*
X191978Y131346D02*
X195522D01*
X160606Y151911D02*
Y158604D01*
X157062Y151911D02*
Y158604D01*
Y151911D02*
X160606D01*
X157062Y158604D02*
X160606D01*
X152338Y151911D02*
Y158604D01*
X148794Y151911D02*
Y158604D01*
Y151911D02*
X152338D01*
X148794Y158604D02*
X152338D01*
X220346Y158228D02*
Y161772D01*
X213653Y158228D02*
Y161772D01*
X220346D01*
X213653Y158228D02*
X220346D01*
X202153Y228228D02*
Y231772D01*
X208846Y228228D02*
Y231772D01*
X202153Y228228D02*
X208846D01*
X202153Y231772D02*
X208846D01*
X226346Y193228D02*
Y196772D01*
X219654Y193228D02*
Y196772D01*
X226346D01*
X219654Y193228D02*
X226346D01*
X199346Y228228D02*
Y231772D01*
X192654Y228228D02*
Y231772D01*
X199346D01*
X192654Y228228D02*
X199346D01*
X173728Y190654D02*
X177272D01*
X173728Y197346D02*
X177272D01*
Y190654D02*
Y197346D01*
X173728Y190654D02*
Y197346D01*
X158464Y192953D02*
X162008D01*
X158464Y199646D02*
X162008D01*
Y192953D02*
Y199646D01*
X158464Y192953D02*
Y199646D01*
X168988Y192940D02*
X172531D01*
X168988Y199633D02*
X172531D01*
Y192940D02*
Y199633D01*
X168988Y192940D02*
Y199633D01*
X191154Y193228D02*
Y196772D01*
X197846Y193228D02*
Y196772D01*
X191154Y193228D02*
X197846D01*
X191154Y196772D02*
X197846D01*
X180654Y164728D02*
Y168272D01*
X187346Y164728D02*
Y168272D01*
X180654Y164728D02*
X187346D01*
X180654Y168272D02*
X187346D01*
X191154Y177228D02*
Y180772D01*
X197846Y177228D02*
Y180772D01*
X191154Y177228D02*
X197846D01*
X191154Y180772D02*
X197846D01*
X210846Y158228D02*
Y161772D01*
X204153Y158228D02*
Y161772D01*
X210846D01*
X204153Y158228D02*
X210846D01*
X215728Y175154D02*
X219272D01*
X215728Y181846D02*
X219272D01*
Y175154D02*
Y181846D01*
X215728Y175154D02*
Y181846D01*
X206228Y167654D02*
X209772D01*
X206228Y174346D02*
X209772D01*
Y167654D02*
Y174346D01*
X206228Y167654D02*
Y174346D01*
X225134Y233842D02*
Y239158D01*
X216866Y233842D02*
Y239158D01*
X225134D01*
X216866Y233842D02*
X225134D01*
X223847Y228728D02*
Y232272D01*
X217154Y228728D02*
Y232272D01*
X223847D01*
X217154Y228728D02*
X223847D01*
X210953Y199528D02*
Y203071D01*
X217646Y199528D02*
Y203071D01*
X210953Y199528D02*
X217646D01*
X210953Y203071D02*
X217646D01*
X208197Y193228D02*
Y196772D01*
X201504Y193228D02*
Y196772D01*
X208197D01*
X201504Y193228D02*
X208197D01*
X204728Y188847D02*
X208272D01*
X204728Y182153D02*
X208272D01*
X204728D02*
Y188847D01*
X208272Y182153D02*
Y188847D01*
X233653Y157728D02*
Y161272D01*
X240347Y157728D02*
Y161272D01*
X233653Y157728D02*
X240347D01*
X233653Y161272D02*
X240347D01*
X223654Y157728D02*
Y161272D01*
X230346Y157728D02*
Y161272D01*
X223654Y157728D02*
X230346D01*
X223654Y161272D02*
X230346D01*
X169467Y166185D02*
X173011D01*
X169467Y172878D02*
X173011D01*
Y166185D02*
Y172878D01*
X169467Y166185D02*
Y172878D01*
X158037Y166419D02*
X161580D01*
X158037Y173112D02*
X161580D01*
Y166419D02*
Y173112D01*
X158037Y166419D02*
Y173112D01*
X202614Y205728D02*
Y209272D01*
X209307Y205728D02*
Y209272D01*
X202614Y205728D02*
X209307D01*
X202614Y209272D02*
X209307D01*
X217701Y133846D02*
X230299D01*
X217701Y127154D02*
X230299D01*
Y133846D01*
X217701Y127154D02*
Y133846D01*
X217801Y116647D02*
X230399D01*
X217801Y109953D02*
X230399D01*
Y116647D01*
X217801Y109953D02*
Y116647D01*
X204142Y108872D02*
X210835D01*
X204142Y105328D02*
X210835D01*
Y108872D01*
X204142Y105328D02*
Y108872D01*
M02*
