M48
;Layer_Color=9474304
;FILE_FORMAT=2:5
INCH,LZ
;TYPE=PLATED
T01F00S00C0.00800
T02F00S00C0.01181
;TYPE=NON_PLATED
T03F00S00C0.10433
%
T01
X01231Y01339
X01779Y01292
Y0142943
X02205Y01431
X0242Y01495
X0253Y0154
X0258
X0263
X0268
X0273
X0278
X0283
X0288
X0293
X0298
X02715Y0136
X0273Y0159
X0268
Y0164
Y0169
Y0174
Y0179
Y0184
Y0189
Y0194
X0273
X0278
X0283
Y0199
X0288
X0293
X0298
Y0194
X0293
X0288
Y0189
X0293
X0298
Y0184
X0293
X0288
X0283
Y0189
X0278
X0273
Y0184
X0278
Y0179
X0283
X0288
X0293
X0298
Y0174
X0293
X0288
Y0169
X0293
X0298
Y0164
X0293
Y0159
X0288
Y0164
X0283
Y0169
X0278
X0273
Y0164
X0263
Y0169
Y0174
Y0179
Y0184
Y0189
Y0194
X0258
Y0199
Y0204
Y0209
Y0214
Y0219
Y0224
Y0229
X0253
Y0234
X0258
X0263
X0268
Y0239
X0273
X0278
X0283
X0288
X0293
X0298
Y0234
Y0229
Y0224
Y0219
X0293
X0288
Y0214
X0283
X0278
X0273
X0268
Y0219
Y0224
X0263
Y0229
Y0219
Y0214
Y0209
X0268
X0273
X0278
X0283
X0288
X0293Y0214
X0298
X0293Y0224
Y0229
X0288
X0283
Y0234
X0278
X0273
Y0224
X0278
Y0219
X0273
Y0204
X0278
X0268
X0263
X0253
Y0209
Y0214
Y0219
Y0224
X0245Y0222461
X0239496Y0223346
Y0220197
X0236347
X0233197
Y0223346
X0236347
X0233197Y0226496
X0230047
X0226898
X0223764
Y0223346
X0226898
Y0220197
X0223748
X0220598
Y0223346
X0217449
Y0220213
X0214299
X0214325Y0223321
X021115Y0223346
Y0220197
Y0217032
X0211142Y0213906
X0214299Y0213898
X0217449
Y0210748
X0214307
Y0207598
X0214299Y0204449
X0217449
X0220598
Y0207598
Y0210748
Y0213898
Y0217047
X0217449
X0214299
X020485
X0201701
Y0220197
Y0223346
Y0226496
X0198551
X0195402
Y0223346
Y0220197
X0198551
Y0223346
X0192252
Y0220197
X0189102
Y0223346
Y0226496
X0192236
X0185953
X0182803
X0179654
Y0223346
Y0220197
X0182803
Y0223346
X0185953
Y0220197
Y0217047
Y0213898
Y0210748
X0182803
Y0213898
Y0217047
X0179654
X0176504Y0217047
Y0210748
X0179654
Y0207598
Y0204449
Y0201307
X0182803
Y0204449
X0185953
X0185953Y0201307
X0189102
X0189102Y0204449
X0192252
Y0201307
X0195402Y0201299
Y0204449
Y0207598
X0198543
X0198551Y0210748
X0195402
X0192256
X0192256Y0213898
X0195402
X0198551
X0201701
Y0210748
X020485
X0211142Y021074
Y0207598
X0208Y0201299
X0204835
X020485Y019815
X0201701
X0198551
Y019185
X0195402
X0192252
X0189102
Y0188701
X0185953
Y0185551
X01889
X0189102Y0182402
Y0179252
Y0176102
Y0172937
Y0169803
X0185953
X0179654
X0176504Y0172953
X0171476Y0177124
X0166876Y0178824
X0169976Y0189124
X0172576Y0187324
X0176504Y0188701
X0179654
X0182803
Y019185
X0179654
X0179654Y0195
X0182803Y0198142
X0189102
X0189102Y0195
X0192252Y0198142
Y0207598
X0189102
X0185953
X0189102Y0210748
Y0213898
Y0217047
X0192252
X0195402
X0198551
X020485Y0220197
Y0226496
X021115
X0214299
X0217449
X0220598
X0222717Y0232618
X0211Y02328
X02002Y02339
X0205476Y0241724
Y0246724
X0209146Y0251724
X0209541Y02608
X0198354
X0192947
X01817Y02586
X0182476Y0251724
X0178476Y0246724
X0182476Y0241724
X0172429Y0236724
X01735Y02265
X0172765Y0219936
X0166476Y0215124
X0173776Y0207724
X0176504Y0207402
Y0204449
Y0201299
X0171076Y0202824
X0185953Y019185
Y0182402
Y0179252
X0182803Y0176102
X0179654Y0182402
X0182803Y0185551
X0192246Y0185545
X0192449Y0182402
X0195402Y0182402
X0198551Y0182402
X0201701
Y0185551
Y0188701
Y019185
X020485Y0191858
X021115Y019185
X0214299Y0188701
Y0185551
Y0182402
X021115
X0211134Y0185551
X021115Y0179236
X0211134Y0176102
X021115Y0172953
Y0169803
Y0166654
X0214299
X0214283Y0169787
X0217449Y0169803
X0220598
Y0166654
X0217465
X0217449Y0163504
X0220598
X0223748
X0226898
X0230031Y016352
X0230047Y0166654
Y0169803
X0233197
X0236347
Y0166654
X0233197
Y0163504
X0236347
X0239496
Y0166654
Y0169803
Y0172953
X0236347
X0233197
Y0176102
X0236347
Y0179252
X0233197
Y0182402
Y0185551
X0236347
Y0182402
X0230047
Y0185551
X0226898
X0223748
Y0182402
X0226898
Y0179252
X0223748
Y0176102
X0226898
Y0172953
X0223748
X0220598
X0217449
X0214315
X0214299Y0176102
X0220598
Y0179252
Y0182402
Y0185551
Y0188701
Y019185
X0223748
X0226898
X0230047
X0233197
X0234772Y0193425
X0237921
X0236347Y019815
X0233197
X0230047
X0226898
X0223748
Y0201299
X0226898
X0230047
X0233197
X0236347
Y0204449
Y0207598
X0233197
Y0204449
X0230047
Y0207598
X0226898
X0223748
Y0204449
X0226898
Y0210748
X0223748
Y0213898
X0226898
X0230047
Y0210748
X0233197
X0236347
Y0213898
X0233197
Y0217047
X0236347
X0239496
Y0213898
Y0210748
Y0207598
Y0204449
X023944Y0201355
X0253Y0199
Y0194
Y0189
X0258
Y0184
X0253
Y0179
X0258
Y0174
X0253
Y0169
X0258
Y0164
X0253
Y0159
X0258
X0263
X0278
X0283
X0298
X0273Y0179
X0239496Y0179252
Y0176102
X0230047
Y0179252
Y0172953
X0226898Y0169803
Y0166654
X0223748
Y0169803
X0214283Y0163504
X021115
X020485
X0201701
X0198551
Y0166654
Y0169803
X0195402
Y0166654
X0192252
Y0169819
X0195402Y0172953
X0198551
X0201701
Y0176102
X0201701Y0179252
X020485Y0179252
Y0176102
Y0172953
Y0169803
Y0166654
X0201701
Y0169803
X0198551Y0176102
Y0188701
X0195402Y0188701
X0192449Y0188701
X0201615Y0201385
X0214299Y019815
X0217449
X0220598
Y0201299
X0223748Y0188701
X0226898
X0230047
X0233197
X02455Y0185461
X0245Y0212461
X0230047Y0217047
Y0220197
Y0223346
X0226898Y0217047
X0223748
X0239496Y0226496
X0240874Y0232008
X02407Y02454
X0253Y0239
X0258
X0263
X0288Y0234
X0293
X0288Y0224
X02205Y02475
X0223064Y02539
X0172064Y02568
Y02501
X01635Y0243275
X01836Y0161
X0189102Y0163504
X0194741Y016
X0236018Y0156441
X015565Y0172677
X01525
Y0169528
Y0175827
Y0178976
X015565
Y0182126
X01525
Y0185276
Y0188425
Y0191575
X0149388Y0191437
X0149391Y0194584
X014935Y0197874
X01525
Y0201024
X014935
Y0204173
X01525
Y0207323
X014935Y0207323
Y0210472
Y0213622
X01525
Y0216772
Y0219921
X014935
X015565
Y0210472
Y0207323
Y0201024
Y0197874
Y0188425
X0146201
X0141476Y0192756
X0136752Y0191575
Y0188425
X0133602
Y0185276
Y0182126
X0130453
Y0178976
X0128874Y0177402
X0127303Y0182126
X0130453Y0188425
X0130453Y0197874
X0133602
Y0201024
X0130468Y0201024
X0127303Y0201024
Y0204165
Y0197874
X0136752
Y0194724
X0133602Y0204173
X0136752Y0207323
Y0210472
X0133602Y0210472
Y0213622
X0136752
X0141576Y0213224
X0145976Y0216824
X0146201Y0207323
X0133602Y0216772
X0130453
X012376Y0215211
Y021836
X01223Y0225185
X0151076Y0227724
X0154936Y0243375
X014935Y0175827
X0146201Y0172677
X0136752Y0169528
X0133602
Y0172677
Y0175827
X0136752
Y0178976
X0128878Y0171102
T02
X01331Y01184
X01427Y01183
Y01233
Y01283
X01335Y01287
X0133533Y0132916
X01335Y01406
Y01463
X0133533Y0152284
X014415Y01527
X01475Y01333
X01525Y01331
X01527Y01281
X0156055Y0128348
X01525Y01183
X01475Y01181
X01575Y01231
X01884Y01235
X01883Y01193
X01884Y01148
X01883Y01103
X0189053Y0105
X0171747
X01779Y0138374
X01883Y01374
Y01335
X0188333Y0129516
X01882Y01413
X0191025Y0148979
X0198991Y0152016
Y0155953
X0199925Y0140267
X0202Y01333
Y01283
Y01231
Y01181
X0207Y01183
X0212Y01231
Y01283
X0207Y01331
X0226284Y0122567
X02311Y01226
X02347
X02385
X0242284Y0122633
X02457Y01226
X0253Y0144
Y0149
X0258
X0263
X0268
X0273
X0278
X0283
X0288
X0293
X0298
Y0144
X0293
X0288
X0283
X0278
X0273
X0268
X0263
X0258
X02678Y0131
X0268399Y01089
X0273406Y01091
X0177996Y0154
X0158834Y015821
X02104Y0156364
X02171Y0156653
X0239Y02493
X0178063Y0233506
X01407Y02348
X0150566Y015821
X0119372Y0160228
X0118325Y0164724
T03
X0122Y0112
X0317
Y0258
X0122
M30
