G04*
G04 #@! TF.GenerationSoftware,Altium Limited,Altium Designer,25.6.2 (33)*
G04*
G04 Layer_Color=8388736*
%FSLAX25Y25*%
%MOIN*%
G70*
G04*
G04 #@! TF.SameCoordinates,D3077B53-F130-49B9-AE0B-FC42BD5CCE1B*
G04*
G04*
G04 #@! TF.FilePolarity,Negative*
G04*
G01*
G75*
%ADD15R,0.05512X0.07087*%
%ADD16R,0.03150X0.03543*%
%ADD17C,0.02480*%
%ADD18R,0.03543X0.03150*%
%ADD19R,0.03543X0.03150*%
%ADD21R,0.03347X0.01181*%
%ADD22R,0.05512X0.06299*%
%ADD23R,0.03197X0.02593*%
%ADD24R,0.02593X0.03197*%
%ADD27R,0.11024X0.05512*%
%ADD28R,0.05118X0.04331*%
%ADD31R,0.04331X0.08071*%
%ADD32R,0.08071X0.04331*%
%ADD38R,0.05142X0.04166*%
%ADD41R,0.04724X0.04724*%
%ADD42R,0.03150X0.03150*%
%ADD43R,0.03366X0.03568*%
%ADD44C,0.02172*%
%ADD45C,0.01654*%
%ADD46R,0.13786X0.17329*%
G04:AMPARAMS|DCode=47|XSize=41.01mil|YSize=21.32mil|CornerRadius=8.06mil|HoleSize=0mil|Usage=FLASHONLY|Rotation=180.000|XOffset=0mil|YOffset=0mil|HoleType=Round|Shape=RoundedRectangle|*
%AMROUNDEDRECTD47*
21,1,0.04101,0.00520,0,0,180.0*
21,1,0.02488,0.02132,0,0,180.0*
1,1,0.01613,-0.01244,0.00260*
1,1,0.01613,0.01244,0.00260*
1,1,0.01613,0.01244,-0.00260*
1,1,0.01613,-0.01244,-0.00260*
%
%ADD47ROUNDEDRECTD47*%
%ADD48R,0.03943X0.04337*%
%ADD49R,0.03904X0.05479*%
%ADD50R,0.05518X0.04337*%
%ADD51R,0.03353X0.03747*%
%ADD52R,0.04337X0.05518*%
%ADD53R,0.03747X0.03353*%
%ADD54R,0.03550X0.04337*%
%ADD55R,0.03550X0.02762*%
%ADD56R,0.02762X0.03550*%
%ADD57R,0.03156X0.03943*%
%ADD58C,0.04337*%
%ADD59C,0.02362*%
%ADD60C,0.01778*%
%ADD61C,0.03162*%
D15*
X117982Y125200D02*
D03*
Y142600D02*
D03*
Y133900D02*
D03*
Y151300D02*
D03*
X172782Y130500D02*
D03*
Y121600D02*
D03*
Y112700D02*
D03*
Y139400D02*
D03*
X128218Y142600D02*
D03*
Y151300D02*
D03*
X183018Y121600D02*
D03*
Y112700D02*
D03*
Y139400D02*
D03*
Y130500D02*
D03*
X128218Y125200D02*
D03*
Y133900D02*
D03*
D16*
X144247Y106900D02*
D03*
X144047Y144500D02*
D03*
X198347Y106900D02*
D03*
X198047Y144400D02*
D03*
X166524Y236724D02*
D03*
X234453Y233900D02*
D03*
X228547D02*
D03*
X149953Y144500D02*
D03*
X150153Y106900D02*
D03*
X203953Y144400D02*
D03*
X204253Y106900D02*
D03*
X172429Y236724D02*
D03*
D17*
X145100Y125700D02*
D03*
X160100Y120700D02*
D03*
Y125700D02*
D03*
X140100D02*
D03*
X160100Y130700D02*
D03*
X214600D02*
D03*
Y120700D02*
D03*
Y125700D02*
D03*
X199600D02*
D03*
X194600D02*
D03*
X199600Y135700D02*
D03*
X204600Y130700D02*
D03*
Y120700D02*
D03*
X199600Y115700D02*
D03*
X145100Y135700D02*
D03*
X150100Y130700D02*
D03*
Y120700D02*
D03*
X145100Y115700D02*
D03*
X155100Y130700D02*
D03*
X145100Y120700D02*
D03*
X209600Y130700D02*
D03*
X155100Y120700D02*
D03*
X145100Y130700D02*
D03*
X199600D02*
D03*
X209600Y120700D02*
D03*
X155100Y135700D02*
D03*
Y115700D02*
D03*
Y125700D02*
D03*
X209600Y135700D02*
D03*
Y115700D02*
D03*
X150100Y135700D02*
D03*
Y115700D02*
D03*
X204600Y135700D02*
D03*
Y115700D02*
D03*
X199600Y120700D02*
D03*
X140100Y135700D02*
D03*
Y130700D02*
D03*
X194600Y120700D02*
D03*
Y115700D02*
D03*
Y130700D02*
D03*
Y135700D02*
D03*
X140100Y115700D02*
D03*
Y120700D02*
D03*
X214600Y115700D02*
D03*
X209600Y125700D02*
D03*
X204600D02*
D03*
X214600Y135700D02*
D03*
X160100D02*
D03*
X150100Y125700D02*
D03*
X160100Y115700D02*
D03*
D18*
X162146Y107100D02*
D03*
X161946Y144300D02*
D03*
X300847Y136000D02*
D03*
X216347Y107100D02*
D03*
X295247Y109100D02*
D03*
X198354Y260800D02*
D03*
X192947D02*
D03*
X186253D02*
D03*
X205047D02*
D03*
X155254Y144300D02*
D03*
X155454Y107100D02*
D03*
X209653D02*
D03*
X294153Y136000D02*
D03*
X288554Y109100D02*
D03*
D19*
X185000Y150747D02*
D03*
X122300Y243653D02*
D03*
X129000D02*
D03*
X217100Y150747D02*
D03*
X122300Y227547D02*
D03*
X129000D02*
D03*
X185000Y156653D02*
D03*
X217100D02*
D03*
X122300Y237747D02*
D03*
X129000D02*
D03*
X122300Y233453D02*
D03*
X129000D02*
D03*
D21*
X193283Y151031D02*
D03*
X204700Y153000D02*
D03*
Y156937D02*
D03*
Y151031D02*
D03*
Y154969D02*
D03*
X193283Y153000D02*
D03*
Y154969D02*
D03*
Y156937D02*
D03*
D22*
X198991Y153984D02*
D03*
D23*
X135700Y242364D02*
D03*
X241400Y235536D02*
D03*
Y240864D02*
D03*
X135700Y227536D02*
D03*
X210400Y156364D02*
D03*
X135700Y237036D02*
D03*
Y232864D02*
D03*
X210400Y151036D02*
D03*
D24*
X172064Y243375D02*
D03*
X224364Y260600D02*
D03*
X166736Y256800D02*
D03*
Y250100D02*
D03*
X223064Y253900D02*
D03*
X154936Y243375D02*
D03*
X217736Y253900D02*
D03*
X172064Y250100D02*
D03*
X219036Y260600D02*
D03*
X172064Y256800D02*
D03*
X160264Y243375D02*
D03*
X166736D02*
D03*
D27*
X227269Y138118D02*
D03*
Y107082D02*
D03*
X241300D02*
D03*
X241268Y138118D02*
D03*
X241300Y117318D02*
D03*
X241268Y127882D02*
D03*
X227269Y117318D02*
D03*
Y127882D02*
D03*
D28*
X220366Y246748D02*
D03*
X228634Y240252D02*
D03*
Y246748D02*
D03*
X220366Y240252D02*
D03*
D31*
X165004Y154000D02*
D03*
X177996D02*
D03*
D32*
X119000Y208504D02*
D03*
Y221496D02*
D03*
D38*
X119345Y160200D02*
D03*
X144055Y152700D02*
D03*
X125455Y160200D02*
D03*
X137945Y152700D02*
D03*
D41*
X284134Y136000D02*
D03*
X275866D02*
D03*
D42*
X282953Y109100D02*
D03*
X277047D02*
D03*
D43*
X267963Y136000D02*
D03*
X263037D02*
D03*
D44*
X193827Y199724D02*
D03*
X190677Y174528D02*
D03*
X203276D02*
D03*
Y177677D02*
D03*
X181228Y168228D02*
D03*
X184378Y177677D02*
D03*
X178079Y190276D02*
D03*
X187528Y187126D02*
D03*
X190677Y165079D02*
D03*
X193827Y174528D02*
D03*
X196976Y177677D02*
D03*
X212724Y168228D02*
D03*
X203276Y171378D02*
D03*
X200126Y180827D02*
D03*
X212724D02*
D03*
X196976Y183976D02*
D03*
X200126Y187126D02*
D03*
X196976Y190276D02*
D03*
X203276Y183976D02*
D03*
X209575D02*
D03*
X206425Y190276D02*
D03*
X203276D02*
D03*
X206425Y187126D02*
D03*
X212724D02*
D03*
X209575Y190276D02*
D03*
X181228Y199724D02*
D03*
X184378Y209173D02*
D03*
X178079Y221772D02*
D03*
X190677Y196575D02*
D03*
X200126Y193425D02*
D03*
X196976Y196575D02*
D03*
Y202874D02*
D03*
X200126Y199724D02*
D03*
X203276Y202874D02*
D03*
Y193425D02*
D03*
X206425Y196575D02*
D03*
X212724Y193425D02*
D03*
X209575Y196575D02*
D03*
X212724Y199724D02*
D03*
X209575Y202874D02*
D03*
X187528Y218622D02*
D03*
X196976Y209173D02*
D03*
X203276Y218622D02*
D03*
X200126Y224921D02*
D03*
X206425Y209173D02*
D03*
X212724Y206024D02*
D03*
X206425D02*
D03*
Y212323D02*
D03*
X209575Y221772D02*
D03*
X215874Y177677D02*
D03*
Y183976D02*
D03*
X222173Y165079D02*
D03*
X225323Y174528D02*
D03*
X228472Y183976D02*
D03*
X215874Y196575D02*
D03*
X219024Y187126D02*
D03*
X215874Y190276D02*
D03*
Y202874D02*
D03*
X222173Y196575D02*
D03*
X225323Y206024D02*
D03*
X219024Y218622D02*
D03*
X228472Y215472D02*
D03*
X234772Y171378D02*
D03*
X231622Y193425D02*
D03*
X234772Y202874D02*
D03*
X231622Y224921D02*
D03*
X237921Y212323D02*
D03*
Y180827D02*
D03*
X190677Y177677D02*
D03*
X200126Y218622D02*
D03*
X203276Y215472D02*
D03*
X196976Y218622D02*
D03*
X203276Y196575D02*
D03*
X206425Y193425D02*
D03*
X200126Y206024D02*
D03*
X196976Y180827D02*
D03*
X200126Y183976D02*
D03*
X196976Y187126D02*
D03*
Y193425D02*
D03*
Y199724D02*
D03*
Y206024D02*
D03*
X200126Y190276D02*
D03*
Y196575D02*
D03*
Y202874D02*
D03*
X203276Y206024D02*
D03*
X200126Y209173D02*
D03*
X215874Y224921D02*
D03*
X225323Y221772D02*
D03*
X212724Y215472D02*
D03*
X222173Y212323D02*
D03*
X196976Y215472D02*
D03*
X193827Y221772D02*
D03*
X178079Y174528D02*
D03*
X181228Y183976D02*
D03*
X187528Y171378D02*
D03*
X190677Y180827D02*
D03*
X184378Y193425D02*
D03*
X187528Y202874D02*
D03*
X178079Y206024D02*
D03*
X181228Y215472D02*
D03*
X184378Y224921D02*
D03*
X190677Y212323D02*
D03*
X225323Y190276D02*
D03*
X237921Y196575D02*
D03*
X228472Y199724D02*
D03*
X219024Y202874D02*
D03*
X231622Y209173D02*
D03*
X234772Y218622D02*
D03*
X219024Y171378D02*
D03*
X222173Y180827D02*
D03*
X228472Y168228D02*
D03*
X231622Y177677D02*
D03*
X234772Y187126D02*
D03*
X237921Y165079D02*
D03*
X206425D02*
D03*
X196976Y168228D02*
D03*
X209575Y174528D02*
D03*
X200126Y177677D02*
D03*
X193827Y196575D02*
D03*
X212724Y183976D02*
D03*
Y190276D02*
D03*
X215874Y180827D02*
D03*
Y187126D02*
D03*
Y193425D02*
D03*
X212724Y196575D02*
D03*
Y202874D02*
D03*
X215874Y206024D02*
D03*
Y199724D02*
D03*
X206425Y202874D02*
D03*
X209575Y206024D02*
D03*
X203276Y180827D02*
D03*
X206425Y183976D02*
D03*
X209575Y187126D02*
D03*
X203276D02*
D03*
X209575Y193425D02*
D03*
Y199724D02*
D03*
X206425Y221772D02*
D03*
X222173D02*
D03*
X215874Y209173D02*
D03*
X203276Y224921D02*
D03*
X212724Y212323D02*
D03*
X228472Y218622D02*
D03*
X219024Y215472D02*
D03*
X190677Y224921D02*
D03*
X193827D02*
D03*
X196976Y221772D02*
D03*
X193827Y215472D02*
D03*
X200126Y221772D02*
D03*
X196976Y224921D02*
D03*
X209575Y218622D02*
D03*
X206425D02*
D03*
X203276Y221772D02*
D03*
X215874D02*
D03*
X212724Y218622D02*
D03*
Y221772D02*
D03*
X219024D02*
D03*
X225323Y215472D02*
D03*
X231622Y218622D02*
D03*
X215874Y212323D02*
D03*
X206425Y224921D02*
D03*
X209575D02*
D03*
X212724Y209173D02*
D03*
Y224921D02*
D03*
X222173Y215472D02*
D03*
X219024Y224921D02*
D03*
X225323Y212323D02*
D03*
X222173Y218622D02*
D03*
X215874D02*
D03*
X225323D02*
D03*
X215874Y215472D02*
D03*
X222173Y224921D02*
D03*
Y209173D02*
D03*
X225323Y224921D02*
D03*
X209575Y215472D02*
D03*
X228472Y221772D02*
D03*
X219024Y209173D02*
D03*
X228472Y224921D02*
D03*
X206425Y215472D02*
D03*
X231622Y221772D02*
D03*
X219024Y212323D02*
D03*
X234772Y224921D02*
D03*
X190677Y218622D02*
D03*
X200126Y212323D02*
D03*
X193827Y218622D02*
D03*
X203276Y212323D02*
D03*
X190677Y221772D02*
D03*
Y215472D02*
D03*
X200126D02*
D03*
X193827Y212323D02*
D03*
X190677Y190276D02*
D03*
X193827Y202874D02*
D03*
Y183976D02*
D03*
X187528Y221772D02*
D03*
Y183976D02*
D03*
X190677Y187126D02*
D03*
X181228Y206024D02*
D03*
Y209173D02*
D03*
Y218622D02*
D03*
Y221772D02*
D03*
X178079Y209173D02*
D03*
Y224921D02*
D03*
Y199724D02*
D03*
Y202874D02*
D03*
X181228D02*
D03*
X184378Y199724D02*
D03*
Y202874D02*
D03*
Y206024D02*
D03*
Y212323D02*
D03*
X181228D02*
D03*
X178079D02*
D03*
Y218622D02*
D03*
Y215472D02*
D03*
X184378D02*
D03*
X187528Y224921D02*
D03*
X181228D02*
D03*
X184378Y221772D02*
D03*
Y218622D02*
D03*
X178079Y187126D02*
D03*
X184378D02*
D03*
X181228Y193425D02*
D03*
Y190276D02*
D03*
X190677Y183976D02*
D03*
Y199724D02*
D03*
X187528Y180827D02*
D03*
X190677Y193425D02*
D03*
X187528Y209173D02*
D03*
Y215472D02*
D03*
Y212323D02*
D03*
Y206024D02*
D03*
X190677Y209173D02*
D03*
X187528Y199724D02*
D03*
X178079Y196575D02*
D03*
X187528D02*
D03*
Y193425D02*
D03*
X178079D02*
D03*
X187528Y190276D02*
D03*
X184378Y196575D02*
D03*
Y190276D02*
D03*
X181228Y196575D02*
D03*
Y187126D02*
D03*
X196976Y212323D02*
D03*
X231622Y174528D02*
D03*
X209575Y212323D02*
D03*
X193827Y190276D02*
D03*
Y193425D02*
D03*
X206425Y180827D02*
D03*
X190677Y206024D02*
D03*
Y202874D02*
D03*
X193827Y209173D02*
D03*
Y206024D02*
D03*
X203276Y209173D02*
D03*
X209575Y180827D02*
D03*
X234772Y174528D02*
D03*
X225323Y196575D02*
D03*
Y199724D02*
D03*
X219024Y190276D02*
D03*
X222173D02*
D03*
X219024Y193425D02*
D03*
X222173D02*
D03*
Y187126D02*
D03*
X225323D02*
D03*
X219024Y196575D02*
D03*
Y199724D02*
D03*
X222173Y202874D02*
D03*
Y206024D02*
D03*
X234772D02*
D03*
X237921D02*
D03*
Y199724D02*
D03*
Y202874D02*
D03*
X228472Y206024D02*
D03*
X231622D02*
D03*
X234772Y209173D02*
D03*
X237921D02*
D03*
X231622Y199724D02*
D03*
Y202874D02*
D03*
X225323D02*
D03*
X228472D02*
D03*
Y196575D02*
D03*
X231622D02*
D03*
X225323Y193425D02*
D03*
X228472D02*
D03*
X234772Y196575D02*
D03*
Y199724D02*
D03*
Y193425D02*
D03*
X237921D02*
D03*
X228472Y190276D02*
D03*
X231622D02*
D03*
X234772D02*
D03*
X237921D02*
D03*
X225323Y209173D02*
D03*
X228472D02*
D03*
X231622Y212323D02*
D03*
X234772D02*
D03*
Y215472D02*
D03*
X237921D02*
D03*
X228472Y212323D02*
D03*
X231622Y215472D02*
D03*
X234772Y221772D02*
D03*
X237921Y224921D02*
D03*
Y218622D02*
D03*
Y221772D02*
D03*
X219024Y206024D02*
D03*
X222173Y199724D02*
D03*
X234772Y177677D02*
D03*
X222173Y183976D02*
D03*
X225323D02*
D03*
X228472Y187126D02*
D03*
X231622Y183976D02*
D03*
Y168228D02*
D03*
X234772D02*
D03*
X228472Y171378D02*
D03*
X231622D02*
D03*
X228472Y177677D02*
D03*
X231622Y180827D02*
D03*
X225323D02*
D03*
X228472D02*
D03*
X225323Y171378D02*
D03*
Y168228D02*
D03*
X231622Y165079D02*
D03*
X234772D02*
D03*
X237921Y171378D02*
D03*
Y168228D02*
D03*
Y177677D02*
D03*
Y174528D02*
D03*
Y187126D02*
D03*
Y183976D02*
D03*
X231622Y187126D02*
D03*
X234772Y183976D02*
D03*
X219024Y174528D02*
D03*
X222173D02*
D03*
Y171378D02*
D03*
Y168228D02*
D03*
X225323Y177677D02*
D03*
X228472Y174528D02*
D03*
X219024Y168228D02*
D03*
Y165079D02*
D03*
X225323D02*
D03*
X228472D02*
D03*
X219024Y183976D02*
D03*
Y180827D02*
D03*
Y177677D02*
D03*
X222173D02*
D03*
X212724Y171378D02*
D03*
X215874Y168228D02*
D03*
Y174528D02*
D03*
Y171378D02*
D03*
X212724Y177677D02*
D03*
Y174528D02*
D03*
X209575Y177677D02*
D03*
X206425D02*
D03*
X234772Y180827D02*
D03*
X193827Y171378D02*
D03*
Y168228D02*
D03*
X209575Y171378D02*
D03*
X206425D02*
D03*
X212724Y165079D02*
D03*
X215874D02*
D03*
X209575Y168228D02*
D03*
Y165079D02*
D03*
X200126Y174528D02*
D03*
X206425Y168228D02*
D03*
X203276D02*
D03*
X200126Y171378D02*
D03*
Y168228D02*
D03*
X203276Y165079D02*
D03*
X200126D02*
D03*
X196976D02*
D03*
X193827D02*
D03*
X206425Y174528D02*
D03*
X196976D02*
D03*
Y171378D02*
D03*
X190677D02*
D03*
X206425Y199724D02*
D03*
X193827Y187126D02*
D03*
Y180827D02*
D03*
Y177677D02*
D03*
X203276Y199724D02*
D03*
X209575Y209173D02*
D03*
X187528Y165079D02*
D03*
X184378D02*
D03*
X181228D02*
D03*
X178079D02*
D03*
X190677Y168228D02*
D03*
X187528D02*
D03*
X184378D02*
D03*
X178079D02*
D03*
X184378Y171378D02*
D03*
X181228D02*
D03*
X178079D02*
D03*
X187528Y174528D02*
D03*
X184378D02*
D03*
X181228D02*
D03*
X187528Y177677D02*
D03*
X181228D02*
D03*
X178079D02*
D03*
X184378Y180827D02*
D03*
X181228D02*
D03*
X178079D02*
D03*
X184378Y183976D02*
D03*
X178079D02*
D03*
D45*
X128878Y171102D02*
D03*
Y177402D02*
D03*
Y183701D02*
D03*
X154075Y171102D02*
D03*
Y177402D02*
D03*
Y183701D02*
D03*
X132028Y193150D02*
D03*
X150925D02*
D03*
X128878Y199449D02*
D03*
X150925D02*
D03*
X132028Y205748D02*
D03*
X150925D02*
D03*
X128878D02*
D03*
X154075Y199449D02*
D03*
X150925Y208898D02*
D03*
X154075Y202598D02*
D03*
X128878Y208898D02*
D03*
Y215197D02*
D03*
X135177D02*
D03*
X154075D02*
D03*
Y218347D02*
D03*
X128878Y180551D02*
D03*
Y174252D02*
D03*
Y202598D02*
D03*
X132028Y190000D02*
D03*
Y196299D02*
D03*
X147776Y199449D02*
D03*
X154075Y174252D02*
D03*
X150925Y190000D02*
D03*
X154075Y180551D02*
D03*
Y196299D02*
D03*
X128878Y212047D02*
D03*
X154075Y208898D02*
D03*
Y205748D02*
D03*
X132028Y208898D02*
D03*
Y215197D02*
D03*
X128878Y218347D02*
D03*
X150925D02*
D03*
X154075Y212047D02*
D03*
X135177Y186850D02*
D03*
X128878Y196299D02*
D03*
X150925Y183701D02*
D03*
X132028Y171102D02*
D03*
X135177Y193150D02*
D03*
X128878Y190000D02*
D03*
X147776Y212047D02*
D03*
Y215197D02*
D03*
X135177Y202598D02*
D03*
Y199449D02*
D03*
Y208898D02*
D03*
X147776Y205748D02*
D03*
X135177Y218347D02*
D03*
X150925Y215197D02*
D03*
X132028Y218347D02*
D03*
X147776D02*
D03*
X132028Y212047D02*
D03*
X150925D02*
D03*
X135177D02*
D03*
X147776Y208898D02*
D03*
Y196299D02*
D03*
X132028Y199449D02*
D03*
X150925Y196299D02*
D03*
X135177D02*
D03*
X150925Y202598D02*
D03*
X132028D02*
D03*
X147776D02*
D03*
X135177Y205748D02*
D03*
X132028Y186850D02*
D03*
X154075Y190000D02*
D03*
X147776Y193150D02*
D03*
Y190000D02*
D03*
X135177D02*
D03*
Y183701D02*
D03*
X150925Y180551D02*
D03*
X132028Y183701D02*
D03*
X147776Y171102D02*
D03*
X135177D02*
D03*
X147776Y180551D02*
D03*
Y174252D02*
D03*
Y186850D02*
D03*
X135177Y174252D02*
D03*
X150925Y171102D02*
D03*
X132028Y174252D02*
D03*
X150925D02*
D03*
X132028Y177402D02*
D03*
X150925D02*
D03*
X132028Y180551D02*
D03*
X135177Y177402D02*
D03*
X147776D02*
D03*
X135177Y180551D02*
D03*
X150925Y186850D02*
D03*
X147776Y183701D02*
D03*
X154075Y186850D02*
D03*
X128878D02*
D03*
X154075Y193150D02*
D03*
X128878D02*
D03*
D46*
X193811Y244224D02*
D03*
D47*
X209146Y251724D02*
D03*
X178476Y246724D02*
D03*
Y241724D02*
D03*
X209146Y246724D02*
D03*
Y241724D02*
D03*
X178476Y251724D02*
D03*
X209146Y236724D02*
D03*
X178476D02*
D03*
D48*
X215950Y143900D02*
D03*
X209650D02*
D03*
D49*
X236000Y147571D02*
D03*
X226000Y156429D02*
D03*
X236000D02*
D03*
X226000Y147571D02*
D03*
X231000D02*
D03*
Y156429D02*
D03*
D50*
X245500Y156547D02*
D03*
X120400Y188153D02*
D03*
X245500Y173953D02*
D03*
X119400Y175153D02*
D03*
X120400Y182247D02*
D03*
X119400Y169247D02*
D03*
X245500Y162453D02*
D03*
Y168047D02*
D03*
D51*
X117039Y203000D02*
D03*
X121961D02*
D03*
D52*
X157653Y152600D02*
D03*
X151747D02*
D03*
D53*
X245000Y202961D02*
D03*
Y207539D02*
D03*
Y217539D02*
D03*
X245500Y180539D02*
D03*
X245000Y198039D02*
D03*
Y222461D02*
D03*
Y212461D02*
D03*
X245500Y185461D02*
D03*
D54*
X171747Y105000D02*
D03*
X189053D02*
D03*
X177653D02*
D03*
X183147D02*
D03*
D55*
X235500Y239741D02*
D03*
Y244859D02*
D03*
D56*
X214659Y260800D02*
D03*
X209541D02*
D03*
D57*
X214744Y233700D02*
D03*
X220256D02*
D03*
D58*
X122000Y112000D02*
D03*
Y258000D02*
D03*
X317000Y112000D02*
D03*
Y258000D02*
D03*
D59*
X198991Y152016D02*
D03*
Y155953D02*
D03*
D60*
X209146Y251724D02*
D03*
X220500Y247500D02*
D03*
X198354Y260800D02*
D03*
X192947D02*
D03*
X122300Y225185D02*
D03*
X240700Y245400D02*
D03*
X236018Y156441D02*
D03*
X223064Y253900D02*
D03*
X154936Y243375D02*
D03*
X245000Y222461D02*
D03*
Y212461D02*
D03*
X245500Y185461D02*
D03*
X177900Y142943D02*
D03*
X172064Y250100D02*
D03*
X178476Y246724D02*
D03*
X172064Y256800D02*
D03*
X271500Y136000D02*
D03*
X181700Y258600D02*
D03*
X209541Y260800D02*
D03*
X172429Y236724D02*
D03*
D61*
X188300Y133500D02*
D03*
X133500Y146300D02*
D03*
X188400Y114800D02*
D03*
X133500Y128700D02*
D03*
M02*
