G04*
G04 #@! TF.GenerationSoftware,Altium Limited,Altium Designer,25.6.2 (33)*
G04*
G04 Layer_Color=32768*
%FSLAX25Y25*%
%MOIN*%
G70*
G04*
G04 #@! TF.SameCoordinates,D3077B53-F130-49B9-AE0B-FC42BD5CCE1B*
G04*
G04*
G04 #@! TF.FilePolarity,Positive*
G04*
G01*
G75*
G36*
X231741Y155341D02*
X229772D01*
X229776Y155338D01*
X229790Y155320D01*
X229812Y155298D01*
X229837Y155261D01*
X229870Y155221D01*
X229907Y155170D01*
X229947Y155112D01*
X229987Y155047D01*
Y155043D01*
X229990Y155039D01*
X230005Y155018D01*
X230023Y154981D01*
X230045Y154938D01*
X230070Y154886D01*
X230096Y154832D01*
X230121Y154777D01*
X230143Y154723D01*
X229845D01*
Y154726D01*
X229837Y154734D01*
X229834Y154748D01*
X229823Y154766D01*
X229812Y154788D01*
X229797Y154814D01*
X229761Y154876D01*
X229721Y154948D01*
X229670Y155021D01*
X229612Y155098D01*
X229550Y155174D01*
X229546Y155178D01*
X229543Y155181D01*
X229532Y155192D01*
X229521Y155207D01*
X229484Y155240D01*
X229441Y155283D01*
X229390Y155327D01*
X229331Y155374D01*
X229273Y155414D01*
X229211Y155451D01*
Y155651D01*
X231741D01*
Y155341D01*
D02*
G37*
G36*
X230675Y153307D02*
X231741D01*
Y152972D01*
X230675D01*
X229222Y152000D01*
Y152404D01*
X229987Y152899D01*
X229990D01*
X229998Y152906D01*
X230009Y152914D01*
X230023Y152925D01*
X230041Y152936D01*
X230063Y152950D01*
X230118Y152986D01*
X230183Y153026D01*
X230256Y153067D01*
X230332Y153114D01*
X230413Y153157D01*
X230409D01*
X230402Y153161D01*
X230391Y153168D01*
X230376Y153179D01*
X230358Y153190D01*
X230336Y153205D01*
X230281Y153238D01*
X230216Y153278D01*
X230139Y153325D01*
X230056Y153380D01*
X229965Y153438D01*
X229222Y153922D01*
Y154311D01*
X230675Y153307D01*
D02*
G37*
M02*
