G04*
G04 #@! TF.GenerationSoftware,Altium Limited,Altium Designer,25.6.2 (33)*
G04*
G04 Layer_Color=128*
%FSLAX25Y25*%
%MOIN*%
G70*
G04*
G04 #@! TF.SameCoordinates,D3077B53-F130-49B9-AE0B-FC42BD5CCE1B*
G04*
G04*
G04 #@! TF.FilePolarity,Positive*
G04*
G01*
G75*
%ADD12C,0.00500*%
D12*
X116783Y112000D02*
X127216D01*
X122000Y106783D02*
Y117217D01*
X116783Y258000D02*
X127216D01*
X122000Y252783D02*
Y263216D01*
X311784Y112000D02*
X322217D01*
X317000Y106783D02*
Y117217D01*
X311784Y258000D02*
X322217D01*
X317000Y252783D02*
Y263216D01*
X222317Y232618D02*
X223117D01*
X222717Y232218D02*
Y233018D01*
X210750Y217032D02*
X211550D01*
X211150Y216632D02*
Y217431D01*
X217049Y220213D02*
X217849D01*
X217449Y219813D02*
Y220613D01*
X213899Y220213D02*
X214699D01*
X214299Y219813D02*
Y220613D01*
X267600Y239000D02*
X268400D01*
X268000Y238600D02*
Y239400D01*
X191852Y201307D02*
X192652D01*
X192252Y200907D02*
Y201707D01*
X287600Y159000D02*
X288400D01*
X288000Y158600D02*
Y159400D01*
X188702Y172937D02*
X189502D01*
X189102Y172537D02*
Y173337D01*
X267600Y159000D02*
X268400D01*
X268000Y158600D02*
Y159400D01*
X201301Y172953D02*
X202101D01*
X201701Y172553D02*
Y173353D01*
X267600Y154000D02*
X268400D01*
X268000Y153600D02*
Y154400D01*
X201301Y176102D02*
X202101D01*
X201701Y175702D02*
Y176502D01*
X182403Y176102D02*
X183203D01*
X182803Y175702D02*
Y176502D01*
X155250Y182126D02*
X156050D01*
X155650Y181726D02*
Y182526D01*
X176104Y188701D02*
X176904D01*
X176504Y188301D02*
Y189101D01*
X185553Y185551D02*
X186353D01*
X185953Y185151D02*
Y185951D01*
X198401Y152016D02*
X199582D01*
X198991Y151425D02*
Y152606D01*
X198401Y155953D02*
X199582D01*
X198991Y155362D02*
Y156543D01*
X201301Y169803D02*
X202101D01*
X201701Y169403D02*
Y170203D01*
X201301Y188701D02*
X202101D01*
X201701Y188301D02*
Y189101D01*
X198151Y191850D02*
X198951D01*
X198551Y191450D02*
Y192250D01*
X148950Y207323D02*
X149750D01*
X149350Y206923D02*
Y207723D01*
X152100Y207323D02*
X152900D01*
X152500Y206923D02*
Y207723D01*
X155250Y201024D02*
X156050D01*
X155650Y200624D02*
Y201424D01*
X133202Y213622D02*
X134002D01*
X133602Y213222D02*
Y214022D01*
X182403Y210748D02*
X183203D01*
X182803Y210348D02*
Y211148D01*
X155250Y219921D02*
X156050D01*
X155650Y219521D02*
Y220321D01*
X195002Y210748D02*
X195802D01*
X195402Y210348D02*
Y211148D01*
X201301Y220197D02*
X202101D01*
X201701Y219797D02*
Y220597D01*
X198151Y226496D02*
X198951D01*
X198551Y226096D02*
Y226896D01*
X204450Y210748D02*
X205250D01*
X204850Y210348D02*
Y211148D01*
X229647Y182402D02*
X230447D01*
X230047Y182002D02*
Y182802D01*
X217049Y204449D02*
X217849D01*
X217449Y204049D02*
Y204849D01*
X220198Y185551D02*
X220998D01*
X220598Y185151D02*
Y185951D01*
X226498Y207598D02*
X227298D01*
X226898Y207198D02*
Y207998D01*
X235946Y204449D02*
X236747D01*
X236347Y204049D02*
Y204849D01*
X123360Y215211D02*
X124160D01*
X123760Y214811D02*
Y215611D01*
X213907Y207598D02*
X214707D01*
X214307Y207198D02*
Y207998D01*
X223348Y163504D02*
X224148D01*
X223748Y163104D02*
Y163904D01*
X213899Y166654D02*
X214699D01*
X214299Y166253D02*
Y167053D01*
X142109Y123300D02*
X143291D01*
X142700Y122709D02*
Y123891D01*
X185553Y220197D02*
X186353D01*
X185953Y219797D02*
Y220597D01*
X297600Y234000D02*
X298400D01*
X298000Y233600D02*
Y234400D01*
X297410Y149000D02*
X298590D01*
X298000Y148409D02*
Y149591D01*
X292409Y149000D02*
X293590D01*
X293000Y148409D02*
Y149591D01*
X287409Y149000D02*
X288591D01*
X288000Y148409D02*
Y149591D01*
X282410Y149000D02*
X283591D01*
X283000Y148409D02*
Y149591D01*
X277410Y149000D02*
X278590D01*
X278000Y148409D02*
Y149591D01*
X272410Y149000D02*
X273590D01*
X273000Y148409D02*
Y149591D01*
X267409Y149000D02*
X268590D01*
X268000Y148409D02*
Y149591D01*
X262409Y149000D02*
X263591D01*
X263000Y148409D02*
Y149591D01*
X257410Y149000D02*
X258591D01*
X258000Y148409D02*
Y149591D01*
X252410Y149000D02*
X253590D01*
X253000Y148409D02*
Y149591D01*
X126903Y201024D02*
X127703D01*
X127303Y200624D02*
Y201424D01*
X235946Y169803D02*
X236747D01*
X236347Y169403D02*
Y170203D01*
X226498Y172953D02*
X227298D01*
X226898Y172553D02*
Y173353D01*
X239096Y179252D02*
X239896D01*
X239496Y178852D02*
Y179652D01*
X232797Y226496D02*
X233597D01*
X233197Y226096D02*
Y226896D01*
X210750Y223346D02*
X211550D01*
X211150Y222947D02*
Y223746D01*
X239096Y213898D02*
X239896D01*
X239496Y213498D02*
Y214298D01*
X217049Y198150D02*
X217849D01*
X217449Y197750D02*
Y198550D01*
X232797Y191850D02*
X233597D01*
X233197Y191450D02*
Y192250D01*
X204450Y198150D02*
X205250D01*
X204850Y197750D02*
Y198550D01*
X213899Y185551D02*
X214699D01*
X214299Y185151D02*
Y185951D01*
X210750Y182402D02*
X211550D01*
X211150Y182002D02*
Y182802D01*
X201301Y182402D02*
X202101D01*
X201701Y182002D02*
Y182802D01*
X152100Y191575D02*
X152900D01*
X152500Y191175D02*
Y191975D01*
X152100Y201024D02*
X152900D01*
X152500Y200624D02*
Y201424D01*
X201301Y191850D02*
X202101D01*
X201701Y191450D02*
Y192250D01*
X220198Y220197D02*
X220998D01*
X220598Y219797D02*
Y220597D01*
X195002Y204449D02*
X195802D01*
X195402Y204049D02*
Y204849D01*
X179253Y201307D02*
X180053D01*
X179654Y200907D02*
Y201707D01*
X188702Y163504D02*
X189502D01*
X189102Y163104D02*
Y163904D01*
X179253Y169803D02*
X180053D01*
X179654Y169403D02*
Y170203D01*
X223348Y198150D02*
X224148D01*
X223748Y197750D02*
Y198550D01*
X208746Y251724D02*
X209546D01*
X209146Y251324D02*
Y252124D01*
X220100Y247500D02*
X220900D01*
X220500Y247100D02*
Y247900D01*
X128474Y177402D02*
X129274D01*
X128874Y177002D02*
Y177802D01*
X128478Y171102D02*
X129278D01*
X128878Y170702D02*
Y171502D01*
X229647Y217047D02*
X230447D01*
X230047Y216647D02*
Y217447D01*
X173100Y226500D02*
X173900D01*
X173500Y226100D02*
Y226900D01*
X287600Y239000D02*
X288400D01*
X288000Y238600D02*
Y239400D01*
X292600Y159000D02*
X293400D01*
X293000Y158600D02*
Y159400D01*
X188702Y176102D02*
X189502D01*
X189102Y175702D02*
Y176502D01*
X252600Y234000D02*
X253400D01*
X253000Y233600D02*
Y234400D01*
X198151Y220197D02*
X198951D01*
X198551Y219797D02*
Y220597D01*
X237910Y122600D02*
X239090D01*
X238500Y122009D02*
Y123191D01*
X234109Y122600D02*
X235291D01*
X234700Y122009D02*
Y123191D01*
X230509Y122600D02*
X231691D01*
X231100Y122009D02*
Y123191D01*
X297410Y144000D02*
X298590D01*
X298000Y143409D02*
Y144591D01*
X292409Y144000D02*
X293590D01*
X293000Y143409D02*
Y144591D01*
X287409Y144000D02*
X288591D01*
X288000Y143409D02*
Y144591D01*
X282410Y144000D02*
X283591D01*
X283000Y143409D02*
Y144591D01*
X277410Y144000D02*
X278590D01*
X278000Y143409D02*
Y144591D01*
X272410Y144000D02*
X273590D01*
X273000Y143409D02*
Y144591D01*
X267409Y144000D02*
X268590D01*
X268000Y143409D02*
Y144591D01*
X262409Y144000D02*
X263591D01*
X263000Y143409D02*
Y144591D01*
X257410Y144000D02*
X258591D01*
X258000Y143409D02*
Y144591D01*
X252410Y144000D02*
X253590D01*
X253000Y143409D02*
Y144591D01*
X151909Y118300D02*
X153091D01*
X152500Y117709D02*
Y118891D01*
X151909Y133100D02*
X153091D01*
X152500Y132509D02*
Y133691D01*
X206410Y133100D02*
X207591D01*
X207000Y132509D02*
Y133691D01*
X206410Y118300D02*
X207591D01*
X207000Y117709D02*
Y118891D01*
X146909Y118100D02*
X148091D01*
X147500Y117509D02*
Y118691D01*
X146909Y133300D02*
X148091D01*
X147500Y132709D02*
Y133891D01*
X241694Y122633D02*
X242875D01*
X242284Y122043D02*
Y123224D01*
X245110Y122600D02*
X246290D01*
X245700Y122009D02*
Y123191D01*
X225694Y122567D02*
X226875D01*
X226284Y121976D02*
Y123158D01*
X201409Y133300D02*
X202591D01*
X202000Y132709D02*
Y133891D01*
X201409Y118100D02*
X202591D01*
X202000Y117509D02*
Y118691D01*
X267600Y234000D02*
X268400D01*
X268000Y233600D02*
Y234400D01*
X201301Y217047D02*
X202101D01*
X201701Y216647D02*
Y217447D01*
X292600Y239000D02*
X293400D01*
X293000Y238600D02*
Y239400D01*
X197953Y260800D02*
X198753D01*
X198354Y260400D02*
Y261200D01*
X282600Y239000D02*
X283400D01*
X283000Y238600D02*
Y239400D01*
X240474Y232008D02*
X241274D01*
X240874Y231608D02*
Y232408D01*
X195002Y220197D02*
X195802D01*
X195402Y219797D02*
Y220597D01*
X297600Y239000D02*
X298400D01*
X298000Y238600D02*
Y239400D01*
X192546Y260800D02*
X193347D01*
X192947Y260400D02*
Y261200D01*
X172365Y219936D02*
X173165D01*
X172765Y219536D02*
Y220336D01*
X152100Y197874D02*
X152900D01*
X152500Y197474D02*
Y198274D01*
X117735Y164724D02*
X118916D01*
X118325Y164133D02*
Y165314D01*
X126903Y204165D02*
X127703D01*
X127303Y203765D02*
Y204565D01*
X223364Y226496D02*
X224164D01*
X223764Y226096D02*
Y226896D01*
X223364Y223346D02*
X224164D01*
X223764Y222947D02*
Y223746D01*
X220198Y217047D02*
X220998D01*
X220598Y216647D02*
Y217447D01*
X220198Y223346D02*
X220998D01*
X220598Y222947D02*
Y223746D01*
X235946Y217047D02*
X236747D01*
X236347Y216647D02*
Y217447D01*
X235946Y213898D02*
X236747D01*
X236347Y213498D02*
Y214298D01*
X232797Y220197D02*
X233597D01*
X233197Y219797D02*
Y220597D01*
X235946Y220197D02*
X236747D01*
X236347Y219797D02*
Y220597D01*
X217049Y217047D02*
X217849D01*
X217449Y216647D02*
Y217447D01*
X229647Y220197D02*
X230447D01*
X230047Y219797D02*
Y220597D01*
X223348Y191850D02*
X224148D01*
X223748Y191450D02*
Y192250D01*
X220198Y191850D02*
X220998D01*
X220598Y191450D02*
Y192250D01*
X155250Y178976D02*
X156050D01*
X155650Y178576D02*
Y179376D01*
X155250Y172677D02*
X156050D01*
X155650Y172277D02*
Y173077D01*
X282600Y234000D02*
X283400D01*
X283000Y233600D02*
Y234400D01*
X190434Y148979D02*
X191615D01*
X191025Y148388D02*
Y149569D01*
X187609Y141300D02*
X188791D01*
X188200Y140709D02*
Y141891D01*
X155465Y128348D02*
X156646D01*
X156055Y127757D02*
Y128938D01*
X156909Y123100D02*
X158091D01*
X157500Y122509D02*
Y123691D01*
X239096Y169803D02*
X239896D01*
X239496Y169403D02*
Y170203D01*
X241600Y149500D02*
X242400D01*
X242000Y149100D02*
Y149900D01*
X226498Y198150D02*
X227298D01*
X226898Y197750D02*
Y198550D01*
X226498Y191850D02*
X227298D01*
X226898Y191450D02*
Y192250D01*
X229647Y191850D02*
X230447D01*
X230047Y191450D02*
Y192250D01*
X229647Y198150D02*
X230447D01*
X230047Y197750D02*
Y198550D01*
X226498Y201299D02*
X227298D01*
X226898Y200899D02*
Y201699D01*
X229647Y201299D02*
X230447D01*
X230047Y200899D02*
Y201699D01*
X232797Y198150D02*
X233597D01*
X233197Y197750D02*
Y198550D01*
X223348Y188701D02*
X224148D01*
X223748Y188301D02*
Y189101D01*
X223348Y185551D02*
X224148D01*
X223748Y185151D02*
Y185951D01*
X220198Y188701D02*
X220998D01*
X220598Y188301D02*
Y189101D01*
X226498Y185551D02*
X227298D01*
X226898Y185151D02*
Y185951D01*
X121900Y225185D02*
X122700D01*
X122300Y224785D02*
Y225585D01*
X199800Y233900D02*
X200600D01*
X200200Y233500D02*
Y234300D01*
X205076Y241724D02*
X205876D01*
X205476Y241324D02*
Y242124D01*
X240300Y245400D02*
X241100D01*
X240700Y245000D02*
Y245800D01*
X238409Y249300D02*
X239591D01*
X239000Y248710D02*
Y249890D01*
X182076Y251724D02*
X182876D01*
X182476Y251324D02*
Y252124D01*
X182076Y241724D02*
X182876D01*
X182476Y241324D02*
Y242124D01*
X140109Y234800D02*
X141291D01*
X140700Y234209D02*
Y235390D01*
X201301Y163504D02*
X202101D01*
X201701Y163104D02*
Y163904D01*
X201301Y198150D02*
X202101D01*
X201701Y197750D02*
Y198550D01*
X201409Y128300D02*
X202591D01*
X202000Y127709D02*
Y128891D01*
X201409Y123100D02*
X202591D01*
X202000Y122509D02*
Y123691D01*
X187709Y137400D02*
X188891D01*
X188300Y136809D02*
Y137991D01*
X187709Y133500D02*
X188891D01*
X188300Y132909D02*
Y134091D01*
X183200Y161000D02*
X184000D01*
X183600Y160600D02*
Y161400D01*
X195002Y172953D02*
X195802D01*
X195402Y172553D02*
Y173353D01*
X223348Y201299D02*
X224148D01*
X223748Y200899D02*
Y201699D01*
X201215Y201385D02*
X202015D01*
X201615Y200985D02*
Y201785D01*
X195002Y201299D02*
X195802D01*
X195402Y200899D02*
Y201699D01*
X166076Y215124D02*
X166876D01*
X166476Y214724D02*
Y215524D01*
X192049Y188701D02*
X192849D01*
X192449Y188301D02*
Y189101D01*
X188702Y188701D02*
X189502D01*
X189102Y188301D02*
Y189101D01*
X191852Y169819D02*
X192652D01*
X192252Y169419D02*
Y170219D01*
X191852Y166654D02*
X192652D01*
X192252Y166253D02*
Y167053D01*
X195002Y182402D02*
X195802D01*
X195402Y182002D02*
Y182802D01*
X195002Y188701D02*
X195802D01*
X195402Y188301D02*
Y189101D01*
X185553Y169803D02*
X186353D01*
X185953Y169403D02*
Y170203D01*
X177309Y138374D02*
X178491D01*
X177900Y137784D02*
Y138965D01*
X226498Y220197D02*
X227298D01*
X226898Y219797D02*
Y220597D01*
X223348Y220197D02*
X224148D01*
X223748Y219797D02*
Y220597D01*
X220198Y207598D02*
X220998D01*
X220598Y207198D02*
Y207998D01*
X223348Y210748D02*
X224148D01*
X223748Y210348D02*
Y211148D01*
X217049Y223346D02*
X217849D01*
X217449Y222947D02*
Y223746D01*
X133202Y216772D02*
X134002D01*
X133602Y216372D02*
Y217172D01*
X267210Y131000D02*
X268390D01*
X267800Y130409D02*
Y131591D01*
X267809Y108900D02*
X268990D01*
X268399Y108309D02*
Y109491D01*
X199335Y140267D02*
X200516D01*
X199925Y139676D02*
Y140858D01*
X204450Y163504D02*
X205250D01*
X204850Y163104D02*
Y163904D01*
X220100Y143100D02*
X220900D01*
X220500Y142700D02*
Y143500D01*
X188702Y179252D02*
X189502D01*
X189102Y178852D02*
Y179652D01*
X185553Y179252D02*
X186353D01*
X185953Y178852D02*
Y179652D01*
X188702Y182402D02*
X189502D01*
X189102Y182002D02*
Y182802D01*
X192049Y182402D02*
X192849D01*
X192449Y182002D02*
Y182802D01*
X198143Y207598D02*
X198943D01*
X198543Y207198D02*
Y207998D01*
X179253Y207598D02*
X180053D01*
X179654Y207198D02*
Y207998D01*
X185553Y213898D02*
X186353D01*
X185953Y213498D02*
Y214298D01*
X201301Y213898D02*
X202101D01*
X201701Y213498D02*
Y214298D01*
X198151Y213898D02*
X198951D01*
X198551Y213498D02*
Y214298D01*
X195002Y213898D02*
X195802D01*
X195402Y213498D02*
Y214298D01*
X176104Y217047D02*
X176904D01*
X176504Y216647D02*
Y217447D01*
X188702Y213898D02*
X189502D01*
X189102Y213498D02*
Y214298D01*
X191856Y213898D02*
X192656D01*
X192256Y213498D02*
Y214298D01*
X182403Y213898D02*
X183203D01*
X182803Y213498D02*
Y214298D01*
X204450Y217047D02*
X205250D01*
X204850Y216647D02*
Y217447D01*
X191852Y220197D02*
X192652D01*
X192252Y219797D02*
Y220597D01*
X191852Y223346D02*
X192652D01*
X192252Y222947D02*
Y223746D01*
X136352Y169528D02*
X137152D01*
X136752Y169128D02*
Y169928D01*
X133202Y169528D02*
X134002D01*
X133602Y169128D02*
Y169928D01*
X188702Y169803D02*
X189502D01*
X189102Y169403D02*
Y170203D01*
X198151Y163504D02*
X198951D01*
X198551Y163104D02*
Y163904D01*
X152100Y216772D02*
X152900D01*
X152500Y216372D02*
Y217172D01*
X182403Y188701D02*
X183203D01*
X182803Y188301D02*
Y189101D01*
X179253Y188701D02*
X180053D01*
X179654Y188301D02*
Y189101D01*
X195002Y169803D02*
X195802D01*
X195402Y169403D02*
Y170203D01*
X204450Y179252D02*
X205250D01*
X204850Y178852D02*
Y179652D01*
X204450Y176102D02*
X205250D01*
X204850Y175702D02*
Y176502D01*
X198151Y169803D02*
X198951D01*
X198551Y169403D02*
Y170203D01*
X198151Y172953D02*
X198951D01*
X198551Y172553D02*
Y173353D01*
X210750Y179236D02*
X211550D01*
X211150Y178836D02*
Y179636D01*
X213899Y198150D02*
X214699D01*
X214299Y197750D02*
Y198550D01*
X217049Y213898D02*
X217849D01*
X217449Y213498D02*
Y214298D01*
X220198Y198150D02*
X220998D01*
X220598Y197750D02*
Y198550D01*
X210734Y185551D02*
X211534D01*
X211134Y185151D02*
Y185951D01*
X204435Y201299D02*
X205235D01*
X204835Y200899D02*
Y201699D01*
X207600Y201299D02*
X208400D01*
X208000Y200899D02*
Y201699D01*
X204450Y191858D02*
X205250D01*
X204850Y191458D02*
Y192258D01*
X229631Y163520D02*
X230432D01*
X230031Y163120D02*
Y163920D01*
X220198Y163504D02*
X220998D01*
X220598Y163104D02*
Y163904D01*
X223348Y166654D02*
X224148D01*
X223748Y166253D02*
Y167053D01*
X226498Y166654D02*
X227298D01*
X226898Y166253D02*
Y167053D01*
X130053Y178976D02*
X130853D01*
X130453Y178576D02*
Y179376D01*
X130069Y201024D02*
X130868D01*
X130468Y200624D02*
Y201424D01*
X229647Y213898D02*
X230447D01*
X230047Y213498D02*
Y214298D01*
X232797Y188701D02*
X233597D01*
X233197Y188301D02*
Y189101D01*
X232797Y217047D02*
X233597D01*
X233197Y216647D02*
Y217447D01*
X239096Y210748D02*
X239896D01*
X239496Y210348D02*
Y211148D01*
X226498Y213898D02*
X227298D01*
X226898Y213498D02*
Y214298D01*
X229647Y210748D02*
X230447D01*
X230047Y210348D02*
Y211148D01*
X232797Y210748D02*
X233597D01*
X233197Y210348D02*
Y211148D01*
X235946Y210748D02*
X236747D01*
X236347Y210348D02*
Y211148D01*
X232797Y213898D02*
X233597D01*
X233197Y213498D02*
Y214298D01*
X185553Y207598D02*
X186353D01*
X185953Y207198D02*
Y207998D01*
X239040Y201355D02*
X239840D01*
X239440Y200955D02*
Y201755D01*
X235946Y198150D02*
X236747D01*
X236347Y197750D02*
Y198550D01*
X210742Y213906D02*
X211542D01*
X211142Y213506D02*
Y214305D01*
X213899Y188701D02*
X214699D01*
X214299Y188301D02*
Y189101D01*
X217049Y169803D02*
X217849D01*
X217449Y169403D02*
Y170203D01*
X226498Y163504D02*
X227298D01*
X226898Y163104D02*
Y163904D01*
X210600Y232800D02*
X211400D01*
X211000Y232400D02*
Y233200D01*
X198151Y210748D02*
X198951D01*
X198551Y210348D02*
Y211148D01*
X235618Y156441D02*
X236418D01*
X236018Y156041D02*
Y156841D01*
X204450Y226496D02*
X205250D01*
X204850Y226096D02*
Y226896D01*
X232797Y201299D02*
X233597D01*
X233197Y200899D02*
Y201699D01*
X239096Y166654D02*
X239896D01*
X239496Y166253D02*
Y167053D01*
X239096Y172953D02*
X239896D01*
X239496Y172553D02*
Y173353D01*
X220198Y169803D02*
X220998D01*
X220598Y169403D02*
Y170203D01*
X220198Y226496D02*
X220998D01*
X220598Y226096D02*
Y226896D01*
X217049Y226496D02*
X217849D01*
X217449Y226096D02*
Y226896D01*
X272600Y239000D02*
X273400D01*
X273000Y238600D02*
Y239400D01*
X277600Y239000D02*
X278400D01*
X278000Y238600D02*
Y239400D01*
X195002Y191850D02*
X195802D01*
X195402Y191450D02*
Y192250D01*
X198151Y182402D02*
X198951D01*
X198551Y182002D02*
Y182802D01*
X195002Y207598D02*
X195802D01*
X195402Y207198D02*
Y207998D01*
X171157Y105000D02*
X172338D01*
X171747Y104409D02*
Y105591D01*
X198151Y198150D02*
X198951D01*
X198551Y197750D02*
Y198550D01*
X198151Y188701D02*
X198951D01*
X198551Y188301D02*
Y189101D01*
X177500Y129200D02*
X178300D01*
X177900Y128800D02*
Y129600D01*
X226498Y223346D02*
X227298D01*
X226898Y222947D02*
Y223746D01*
X223348Y213898D02*
X224148D01*
X223748Y213498D02*
Y214298D01*
X213899Y217047D02*
X214699D01*
X214299Y216647D02*
Y217447D01*
X222664Y253900D02*
X223464D01*
X223064Y253500D02*
Y254300D01*
X154536Y243375D02*
X155336D01*
X154936Y242975D02*
Y243775D01*
X195002Y217047D02*
X195802D01*
X195402Y216647D02*
Y217447D01*
X158243Y158210D02*
X159424D01*
X158834Y157620D02*
Y158801D01*
X126903Y182126D02*
X127703D01*
X127303Y181726D02*
Y182526D01*
X133202Y188425D02*
X134002D01*
X133602Y188025D02*
Y188825D01*
X130053Y197874D02*
X130853D01*
X130453Y197474D02*
Y198274D01*
X152100Y188425D02*
X152900D01*
X152500Y188025D02*
Y188825D01*
X148950Y201024D02*
X149750D01*
X149350Y200624D02*
Y201424D01*
X155250Y197874D02*
X156050D01*
X155650Y197474D02*
Y198274D01*
X123360Y218360D02*
X124160D01*
X123760Y217960D02*
Y218760D01*
X155250Y207323D02*
X156050D01*
X155650Y206923D02*
Y207723D01*
X155250Y210472D02*
X156050D01*
X155650Y210072D02*
Y210872D01*
X152100Y219921D02*
X152900D01*
X152500Y219521D02*
Y220321D01*
X176104Y172953D02*
X176904D01*
X176504Y172553D02*
Y173353D01*
X179253Y182402D02*
X180053D01*
X179654Y182002D02*
Y182802D01*
X182403Y191850D02*
X183203D01*
X182803Y191450D02*
Y192250D01*
X176104Y207402D02*
X176904D01*
X176504Y207002D02*
Y207802D01*
X182403Y226496D02*
X183203D01*
X182803Y226096D02*
Y226896D01*
X185553Y204449D02*
X186353D01*
X185953Y204049D02*
Y204849D01*
X179253Y217047D02*
X180053D01*
X179654Y216647D02*
Y217447D01*
X122700Y133900D02*
X123500D01*
X123100Y133500D02*
Y134300D01*
X220198Y204449D02*
X220998D01*
X220598Y204049D02*
Y204849D01*
X226498Y188701D02*
X227298D01*
X226898Y188301D02*
Y189101D01*
X244600Y222461D02*
X245400D01*
X245000Y222061D02*
Y222861D01*
X244600Y212461D02*
X245400D01*
X245000Y212061D02*
Y212861D01*
X118782Y160228D02*
X119963D01*
X119372Y159637D02*
Y160818D01*
X229647Y166654D02*
X230447D01*
X230047Y166253D02*
Y167053D01*
X223348Y179252D02*
X224148D01*
X223748Y178852D02*
Y179652D01*
X245100Y185461D02*
X245900D01*
X245500Y185061D02*
Y185861D01*
X177406Y154000D02*
X178587D01*
X177996Y153409D02*
Y154591D01*
X216510Y156653D02*
X217690D01*
X217100Y156062D02*
Y157243D01*
X209809Y156364D02*
X210991D01*
X210400Y155774D02*
Y156955D01*
X232797Y176102D02*
X233597D01*
X233197Y175702D02*
Y176502D01*
X235946Y185551D02*
X236747D01*
X236347Y185151D02*
Y185951D01*
X239096Y163504D02*
X239896D01*
X239496Y163104D02*
Y163904D01*
X198151Y176102D02*
X198951D01*
X198551Y175702D02*
Y176502D01*
X210750Y172953D02*
X211550D01*
X211150Y172553D02*
Y173353D01*
X143559Y152700D02*
X144740D01*
X144150Y152109D02*
Y153291D01*
X195002Y166654D02*
X195802D01*
X195402Y166253D02*
Y167053D01*
X191852Y198142D02*
X192652D01*
X192252Y197742D02*
Y198542D01*
X149976Y158210D02*
X151157D01*
X150566Y157620D02*
Y158801D01*
X213899Y182402D02*
X214699D01*
X214299Y182002D02*
Y182802D01*
X213899Y204449D02*
X214699D01*
X214299Y204049D02*
Y204849D01*
X188462Y105000D02*
X189643D01*
X189053Y104409D02*
Y105591D01*
X210742Y207598D02*
X211542D01*
X211142Y207198D02*
Y207998D01*
X210750Y191850D02*
X211550D01*
X211150Y191450D02*
Y192250D01*
X201301Y185551D02*
X202101D01*
X201701Y185151D02*
Y185951D01*
X201301Y179252D02*
X202101D01*
X201701Y178852D02*
Y179652D01*
X177500Y142943D02*
X178300D01*
X177900Y142543D02*
Y143343D01*
X257600Y229000D02*
X258400D01*
X258000Y228600D02*
Y229400D01*
X217049Y210748D02*
X217849D01*
X217449Y210348D02*
Y211148D01*
X252600Y229000D02*
X253400D01*
X253000Y228600D02*
Y229400D01*
X201301Y226496D02*
X202101D01*
X201701Y226096D02*
Y226896D01*
X257600Y224000D02*
X258400D01*
X258000Y223600D02*
Y224400D01*
X213899Y213898D02*
X214699D01*
X214299Y213498D02*
Y214298D01*
X252600Y224000D02*
X253400D01*
X253000Y223600D02*
Y224400D01*
X257600Y219000D02*
X258400D01*
X258000Y218600D02*
Y219400D01*
X252600Y219000D02*
X253400D01*
X253000Y218600D02*
Y219400D01*
X188702Y226496D02*
X189502D01*
X189102Y226096D02*
Y226896D01*
X171664Y250100D02*
X172464D01*
X172064Y249700D02*
Y250500D01*
X178076Y246724D02*
X178876D01*
X178476Y246324D02*
Y247124D01*
X191836Y226496D02*
X192636D01*
X192236Y226096D02*
Y226896D01*
X205076Y246724D02*
X205876D01*
X205476Y246324D02*
Y247124D01*
X195002Y223346D02*
X195802D01*
X195402Y222947D02*
Y223746D01*
X191852Y217047D02*
X192652D01*
X192252Y216647D02*
Y217447D01*
X198151Y223346D02*
X198951D01*
X198551Y222947D02*
Y223746D01*
X171664Y256800D02*
X172464D01*
X172064Y256400D02*
Y257200D01*
X195002Y226496D02*
X195802D01*
X195402Y226096D02*
Y226896D01*
X210750Y220197D02*
X211550D01*
X211150Y219797D02*
Y220597D01*
X262600Y229000D02*
X263400D01*
X263000Y228600D02*
Y229400D01*
X204450Y220197D02*
X205250D01*
X204850Y219797D02*
Y220597D01*
X201301Y223346D02*
X202101D01*
X201701Y222947D02*
Y223746D01*
X282600Y229000D02*
X283400D01*
X283000Y228600D02*
Y229400D01*
X213925Y223321D02*
X214725D01*
X214325Y222921D02*
Y223721D01*
X282600Y214000D02*
X283400D01*
X283000Y213600D02*
Y214400D01*
X226498Y217047D02*
X227298D01*
X226898Y216647D02*
Y217447D01*
X277600Y214000D02*
X278400D01*
X278000Y213600D02*
Y214400D01*
X297600Y229000D02*
X298400D01*
X298000Y228600D02*
Y229400D01*
X297600Y224000D02*
X298400D01*
X298000Y223600D02*
Y224400D01*
X297600Y219000D02*
X298400D01*
X298000Y218600D02*
Y219400D01*
X287600Y219000D02*
X288400D01*
X288000Y218600D02*
Y219400D01*
X210750Y226496D02*
X211550D01*
X211150Y226096D02*
Y226896D01*
X213907Y210748D02*
X214707D01*
X214307Y210348D02*
Y211148D01*
X292600Y229000D02*
X293400D01*
X293000Y228600D02*
Y229400D01*
X213899Y226496D02*
X214699D01*
X214299Y226096D02*
Y226896D01*
X292600Y224000D02*
X293400D01*
X293000Y223600D02*
Y224400D01*
X223348Y217047D02*
X224148D01*
X223748Y216647D02*
Y217447D01*
X292600Y219000D02*
X293400D01*
X293000Y218600D02*
Y219400D01*
X292600Y214000D02*
X293400D01*
X293000Y213600D02*
Y214400D01*
X287600Y229000D02*
X288400D01*
X288000Y228600D02*
Y229400D01*
X287600Y214000D02*
X288400D01*
X288000Y213600D02*
Y214400D01*
X287600Y224000D02*
X288400D01*
X288000Y223600D02*
Y224400D01*
X297600Y214000D02*
X298400D01*
X298000Y213600D02*
Y214400D01*
X262600Y224000D02*
X263400D01*
X263000Y223600D02*
Y224400D01*
X267600Y224000D02*
X268400D01*
X268000Y223600D02*
Y224400D01*
X267600Y219000D02*
X268400D01*
X268000Y218600D02*
Y219400D01*
X226498Y226496D02*
X227298D01*
X226898Y226096D02*
Y226896D01*
X267600Y214000D02*
X268400D01*
X268000Y213600D02*
Y214400D01*
X262600Y219000D02*
X263400D01*
X263000Y218600D02*
Y219400D01*
X229647Y223346D02*
X230447D01*
X230047Y222947D02*
Y223746D01*
X277600Y224000D02*
X278400D01*
X278000Y223600D02*
Y224400D01*
X220198Y210748D02*
X220998D01*
X220598Y210348D02*
Y211148D01*
X229647Y226496D02*
X230447D01*
X230047Y226096D02*
Y226896D01*
X272600Y224000D02*
X273400D01*
X273000Y223600D02*
Y224400D01*
X272600Y219000D02*
X273400D01*
X273000Y218600D02*
Y219400D01*
X232797Y223346D02*
X233597D01*
X233197Y222947D02*
Y223746D01*
X272600Y214000D02*
X273400D01*
X273000Y213600D02*
Y214400D01*
X220198Y213898D02*
X220998D01*
X220598Y213498D02*
Y214298D01*
X277600Y219000D02*
X278400D01*
X278000Y218600D02*
Y219400D01*
X188702Y220197D02*
X189502D01*
X189102Y219797D02*
Y220597D01*
X257600Y234000D02*
X258400D01*
X258000Y233600D02*
Y234400D01*
X262600Y234000D02*
X263400D01*
X263000Y233600D02*
Y234400D01*
X272600Y234000D02*
X273400D01*
X273000Y233600D02*
Y234400D01*
X277600Y234000D02*
X278400D01*
X278000Y233600D02*
Y234400D01*
X188702Y223346D02*
X189502D01*
X189102Y222947D02*
Y223746D01*
X287600Y234000D02*
X288400D01*
X288000Y233600D02*
Y234400D01*
X188702Y217047D02*
X189502D01*
X189102Y216647D02*
Y217447D01*
X198151Y217047D02*
X198951D01*
X198551Y216647D02*
Y217447D01*
X292600Y234000D02*
X293400D01*
X293000Y233600D02*
Y234400D01*
X136352Y188425D02*
X137152D01*
X136752Y188025D02*
Y188825D01*
X152100Y182126D02*
X152900D01*
X152500Y181726D02*
Y182526D01*
X126903Y197874D02*
X127703D01*
X127303Y197474D02*
Y198274D01*
X191852Y204449D02*
X192652D01*
X192252Y204049D02*
Y204849D01*
X185553Y223346D02*
X186353D01*
X185953Y222947D02*
Y223746D01*
X185553Y182402D02*
X186353D01*
X185953Y182002D02*
Y182802D01*
X136352Y194724D02*
X137152D01*
X136752Y194324D02*
Y195124D01*
X130053Y188425D02*
X130853D01*
X130453Y188025D02*
Y188825D01*
X188500Y185551D02*
X189300D01*
X188900Y185151D02*
Y185951D01*
X148950Y210472D02*
X149750D01*
X149350Y210072D02*
Y210872D01*
X179253Y210748D02*
X180053D01*
X179654Y210348D02*
Y211148D01*
X148950Y213622D02*
X149750D01*
X149350Y213222D02*
Y214022D01*
X133202Y204173D02*
X134002D01*
X133602Y203773D02*
Y204573D01*
X179253Y220197D02*
X180053D01*
X179654Y219797D02*
Y220597D01*
X133202Y201024D02*
X134002D01*
X133602Y200624D02*
Y201424D01*
X179253Y223346D02*
X180053D01*
X179654Y222947D02*
Y223746D01*
X136352Y210472D02*
X137152D01*
X136752Y210072D02*
Y210872D01*
X173376Y207724D02*
X174176D01*
X173776Y207324D02*
Y208124D01*
X145801Y207323D02*
X146601D01*
X146201Y206923D02*
Y207723D01*
X141176Y213224D02*
X141976D01*
X141576Y212824D02*
Y213624D01*
X176104Y201299D02*
X176904D01*
X176504Y200899D02*
Y201699D01*
X176104Y204449D02*
X176904D01*
X176504Y204049D02*
Y204849D01*
X130053Y216772D02*
X130853D01*
X130453Y216372D02*
Y217172D01*
X179253Y204449D02*
X180053D01*
X179654Y204049D02*
Y204849D01*
X148950Y219921D02*
X149750D01*
X149350Y219521D02*
Y220321D01*
X185553Y201307D02*
X186353D01*
X185953Y200907D02*
Y201707D01*
X133202Y210472D02*
X134002D01*
X133602Y210072D02*
Y210872D01*
X182403Y201307D02*
X183203D01*
X182803Y200907D02*
Y201707D01*
X182403Y204449D02*
X183203D01*
X182803Y204049D02*
Y204849D01*
X152100Y213622D02*
X152900D01*
X152500Y213222D02*
Y214022D01*
X136352Y213622D02*
X137152D01*
X136752Y213222D02*
Y214022D01*
X150676Y227724D02*
X151476D01*
X151076Y227324D02*
Y228124D01*
X145576Y216824D02*
X146376D01*
X145976Y216424D02*
Y217224D01*
X148950Y197874D02*
X149750D01*
X149350Y197474D02*
Y198274D01*
X176104Y210748D02*
X176904D01*
X176504Y210348D02*
Y211148D01*
X133202Y197874D02*
X134002D01*
X133602Y197474D02*
Y198274D01*
X136352Y197874D02*
X137152D01*
X136752Y197474D02*
Y198274D01*
X182403Y217047D02*
X183203D01*
X182803Y216647D02*
Y217447D01*
X185553Y226496D02*
X186353D01*
X185953Y226096D02*
Y226896D01*
X152100Y204173D02*
X152900D01*
X152500Y203773D02*
Y204573D01*
X179253Y226496D02*
X180053D01*
X179654Y226096D02*
Y226896D01*
X182403Y223346D02*
X183203D01*
X182803Y222947D02*
Y223746D01*
X148950Y204173D02*
X149750D01*
X149350Y203773D02*
Y204573D01*
X136352Y207323D02*
X137152D01*
X136752Y206923D02*
Y207723D01*
X182403Y220197D02*
X183203D01*
X182803Y219797D02*
Y220597D01*
X133202Y185276D02*
X134002D01*
X133602Y184876D02*
Y185676D01*
X172176Y187324D02*
X172976D01*
X172576Y186924D02*
Y187724D01*
X155250Y188425D02*
X156050D01*
X155650Y188025D02*
Y188825D01*
X182403Y185551D02*
X183203D01*
X182803Y185151D02*
Y185951D01*
X148991Y194584D02*
X149791D01*
X149391Y194184D02*
Y194984D01*
X179253Y191850D02*
X180053D01*
X179654Y191450D02*
Y192250D01*
X148988Y191437D02*
X149788D01*
X149388Y191037D02*
Y191837D01*
X136352Y191575D02*
X137152D01*
X136752Y191175D02*
Y191975D01*
X133202Y182126D02*
X134002D01*
X133602Y181726D02*
Y182526D01*
X188702Y198142D02*
X189502D01*
X189102Y197742D02*
Y198542D01*
X152100Y178976D02*
X152900D01*
X152500Y178576D02*
Y179376D01*
X188702Y191850D02*
X189502D01*
X189102Y191450D02*
Y192250D01*
X130053Y182126D02*
X130853D01*
X130453Y181726D02*
Y182526D01*
X185553Y210748D02*
X186353D01*
X185953Y210348D02*
Y211148D01*
X145801Y172677D02*
X146601D01*
X146201Y172277D02*
Y173077D01*
X141076Y192756D02*
X141876D01*
X141476Y192356D02*
Y193156D01*
X185553Y217047D02*
X186353D01*
X185953Y216647D02*
Y217447D01*
X170676Y202824D02*
X171476D01*
X171076Y202424D02*
Y203224D01*
X188702Y210748D02*
X189502D01*
X189102Y210348D02*
Y211148D01*
X145801Y188425D02*
X146601D01*
X146201Y188025D02*
Y188825D01*
X133202Y175827D02*
X134002D01*
X133602Y175427D02*
Y176227D01*
X188702Y201307D02*
X189502D01*
X189102Y200907D02*
Y201707D01*
X152100Y169528D02*
X152900D01*
X152500Y169128D02*
Y169928D01*
X179253Y195000D02*
X180053D01*
X179654Y194600D02*
Y195400D01*
X188702Y195000D02*
X189502D01*
X189102Y194600D02*
Y195400D01*
X133202Y172677D02*
X134002D01*
X133602Y172277D02*
Y173077D01*
X185553Y191850D02*
X186353D01*
X185953Y191450D02*
Y192250D01*
X152100Y172677D02*
X152900D01*
X152500Y172277D02*
Y173077D01*
X185553Y188701D02*
X186353D01*
X185953Y188301D02*
Y189101D01*
X152100Y175827D02*
X152900D01*
X152500Y175427D02*
Y176227D01*
X182403Y198142D02*
X183203D01*
X182803Y197742D02*
Y198542D01*
X136352Y175827D02*
X137152D01*
X136752Y175427D02*
Y176227D01*
X169576Y189124D02*
X170376D01*
X169976Y188724D02*
Y189524D01*
X148950Y175827D02*
X149750D01*
X149350Y175427D02*
Y176227D01*
X166476Y178824D02*
X167276D01*
X166876Y178424D02*
Y179224D01*
X136352Y178976D02*
X137152D01*
X136752Y178576D02*
Y179376D01*
X171076Y177124D02*
X171876D01*
X171476Y176724D02*
Y177524D01*
X232797Y172953D02*
X233597D01*
X233197Y172553D02*
Y173353D01*
X211409Y128300D02*
X212591D01*
X212000Y127709D02*
Y128891D01*
X142109Y118300D02*
X143291D01*
X142700Y117709D02*
Y118891D01*
X142109Y128300D02*
X143291D01*
X142700Y127709D02*
Y128891D01*
X211409Y123100D02*
X212591D01*
X212000Y122509D02*
Y123691D01*
X163100Y243275D02*
X163900D01*
X163500Y242875D02*
Y243675D01*
X191852Y191850D02*
X192652D01*
X192252Y191450D02*
Y192250D01*
X152100Y185276D02*
X152900D01*
X152500Y184876D02*
Y185676D01*
X188702Y207598D02*
X189502D01*
X189102Y207198D02*
Y207998D01*
X188702Y204449D02*
X189502D01*
X189102Y204049D02*
Y204849D01*
X152109Y128100D02*
X153291D01*
X152700Y127509D02*
Y128691D01*
X272815Y109100D02*
X273996D01*
X273406Y108509D02*
Y109691D01*
X191856Y210748D02*
X192656D01*
X192256Y210348D02*
Y211148D01*
X257600Y239000D02*
X258400D01*
X258000Y238600D02*
Y239400D01*
X191852Y207598D02*
X192652D01*
X192252Y207198D02*
Y207998D01*
X252600Y239000D02*
X253400D01*
X253000Y238600D02*
Y239400D01*
X201301Y210748D02*
X202101D01*
X201701Y210348D02*
Y211148D01*
X262600Y239000D02*
X263400D01*
X263000Y238600D02*
Y239400D01*
X271100Y136000D02*
X271900D01*
X271500Y135600D02*
Y136400D01*
X235946Y172953D02*
X236747D01*
X236347Y172553D02*
Y173353D01*
X252600Y214000D02*
X253400D01*
X253000Y213600D02*
Y214400D01*
X257600Y214000D02*
X258400D01*
X258000Y213600D02*
Y214400D01*
X282600Y209000D02*
X283400D01*
X283000Y208600D02*
Y209400D01*
X287600Y209000D02*
X288400D01*
X288000Y208600D02*
Y209400D01*
X272600Y209000D02*
X273400D01*
X273000Y208600D02*
Y209400D01*
X277600Y209000D02*
X278400D01*
X278000Y208600D02*
Y209400D01*
X262600Y209000D02*
X263400D01*
X263000Y208600D02*
Y209400D01*
X220198Y201299D02*
X220998D01*
X220598Y200899D02*
Y201699D01*
X267600Y209000D02*
X268400D01*
X268000Y208600D02*
Y209400D01*
X223348Y204449D02*
X224148D01*
X223748Y204049D02*
Y204849D01*
X252600Y209000D02*
X253400D01*
X253000Y208600D02*
Y209400D01*
X223348Y207598D02*
X224148D01*
X223748Y207198D02*
Y207998D01*
X257600Y209000D02*
X258400D01*
X258000Y208600D02*
Y209400D01*
X235946Y207598D02*
X236747D01*
X236347Y207198D02*
Y207998D01*
X239096Y207598D02*
X239896D01*
X239496Y207198D02*
Y207998D01*
X239096Y204449D02*
X239896D01*
X239496Y204049D02*
Y204849D01*
X229647Y207598D02*
X230447D01*
X230047Y207198D02*
Y207998D01*
X272600Y204000D02*
X273400D01*
X273000Y203600D02*
Y204400D01*
X232797Y207598D02*
X233597D01*
X233197Y207198D02*
Y207998D01*
X277600Y204000D02*
X278400D01*
X278000Y203600D02*
Y204400D01*
X262600Y204000D02*
X263400D01*
X263000Y203600D02*
Y204400D01*
X267600Y204000D02*
X268400D01*
X268000Y203600D02*
Y204400D01*
X252600Y204000D02*
X253400D01*
X253000Y203600D02*
Y204400D01*
X232797Y204449D02*
X233597D01*
X233197Y204049D02*
Y204849D01*
X257600Y204000D02*
X258400D01*
X258000Y203600D02*
Y204400D01*
X226498Y204449D02*
X227298D01*
X226898Y204049D02*
Y204849D01*
X292600Y199000D02*
X293400D01*
X293000Y198600D02*
Y199400D01*
X229647Y204449D02*
X230447D01*
X230047Y204049D02*
Y204849D01*
X297600Y199000D02*
X298400D01*
X298000Y198600D02*
Y199400D01*
X282600Y199000D02*
X283400D01*
X283000Y198600D02*
Y199400D01*
X287600Y199000D02*
X288400D01*
X288000Y198600D02*
Y199400D01*
X235946Y201299D02*
X236747D01*
X236347Y200899D02*
Y201699D01*
X234372Y193425D02*
X235172D01*
X234772Y193025D02*
Y193825D01*
X252600Y199000D02*
X253400D01*
X253000Y198600D02*
Y199400D01*
X237521Y193425D02*
X238321D01*
X237921Y193025D02*
Y193825D01*
X257600Y199000D02*
X258400D01*
X258000Y198600D02*
Y199400D01*
X292600Y194000D02*
X293400D01*
X293000Y193600D02*
Y194400D01*
X229647Y188701D02*
X230447D01*
X230047Y188301D02*
Y189101D01*
X297600Y194000D02*
X298400D01*
X298000Y193600D02*
Y194400D01*
X282600Y194000D02*
X283400D01*
X283000Y193600D02*
Y194400D01*
X287600Y194000D02*
X288400D01*
X288000Y193600D02*
Y194400D01*
X226498Y210748D02*
X227298D01*
X226898Y210348D02*
Y211148D01*
X272600Y194000D02*
X273400D01*
X273000Y193600D02*
Y194400D01*
X277600Y194000D02*
X278400D01*
X278000Y193600D02*
Y194400D01*
X262600Y194000D02*
X263400D01*
X263000Y193600D02*
Y194400D01*
X267600Y194000D02*
X268400D01*
X268000Y193600D02*
Y194400D01*
X252600Y194000D02*
X253400D01*
X253000Y193600D02*
Y194400D01*
X257600Y194000D02*
X258400D01*
X258000Y193600D02*
Y194400D01*
X239096Y217047D02*
X239896D01*
X239496Y216647D02*
Y217447D01*
X292600Y189000D02*
X293400D01*
X293000Y188600D02*
Y189400D01*
X297600Y189000D02*
X298400D01*
X298000Y188600D02*
Y189400D01*
X235946Y223346D02*
X236747D01*
X236347Y222947D02*
Y223746D01*
X282600Y189000D02*
X283400D01*
X283000Y188600D02*
Y189400D01*
X239096Y226496D02*
X239896D01*
X239496Y226096D02*
Y226896D01*
X287600Y189000D02*
X288400D01*
X288000Y188600D02*
Y189400D01*
X239096Y220197D02*
X239896D01*
X239496Y219797D02*
Y220597D01*
X272600Y189000D02*
X273400D01*
X273000Y188600D02*
Y189400D01*
X239096Y223346D02*
X239896D01*
X239496Y222947D02*
Y223746D01*
X277600Y189000D02*
X278400D01*
X278000Y188600D02*
Y189400D01*
X267600Y189000D02*
X268400D01*
X268000Y188600D02*
Y189400D01*
X262600Y214000D02*
X263400D01*
X263000Y213600D02*
Y214400D01*
X262600Y189000D02*
X263400D01*
X263000Y188600D02*
Y189400D01*
X235946Y176102D02*
X236747D01*
X236347Y175702D02*
Y176502D01*
X223348Y182402D02*
X224148D01*
X223748Y182002D02*
Y182802D01*
X252600Y189000D02*
X253400D01*
X253000Y188600D02*
Y189400D01*
X226498Y182402D02*
X227298D01*
X226898Y182002D02*
Y182802D01*
X257600Y189000D02*
X258400D01*
X258000Y188600D02*
Y189400D01*
X229647Y185551D02*
X230447D01*
X230047Y185151D02*
Y185951D01*
X292600Y184000D02*
X293400D01*
X293000Y183600D02*
Y184400D01*
X232797Y182402D02*
X233597D01*
X233197Y182002D02*
Y182802D01*
X297600Y184000D02*
X298400D01*
X298000Y183600D02*
Y184400D01*
X232797Y166654D02*
X233597D01*
X233197Y166253D02*
Y167053D01*
X282600Y184000D02*
X283400D01*
X283000Y183600D02*
Y184400D01*
X235946Y166654D02*
X236747D01*
X236347Y166253D02*
Y167053D01*
X287600Y184000D02*
X288400D01*
X288000Y183600D02*
Y184400D01*
X272600Y184000D02*
X273400D01*
X273000Y183600D02*
Y184400D01*
X229647Y169803D02*
X230447D01*
X230047Y169403D02*
Y170203D01*
X277600Y184000D02*
X278400D01*
X278000Y183600D02*
Y184400D01*
X232797Y169803D02*
X233597D01*
X233197Y169403D02*
Y170203D01*
X229647Y176102D02*
X230447D01*
X230047Y175702D02*
Y176502D01*
X262600Y184000D02*
X263400D01*
X263000Y183600D02*
Y184400D01*
X232797Y179252D02*
X233597D01*
X233197Y178852D02*
Y179652D01*
X267600Y184000D02*
X268400D01*
X268000Y183600D02*
Y184400D01*
X226498Y179252D02*
X227298D01*
X226898Y178852D02*
Y179652D01*
X252600Y184000D02*
X253400D01*
X253000Y183600D02*
Y184400D01*
X229647Y179252D02*
X230447D01*
X230047Y178852D02*
Y179652D01*
X257600Y184000D02*
X258400D01*
X258000Y183600D02*
Y184400D01*
X292600Y179000D02*
X293400D01*
X293000Y178600D02*
Y179400D01*
X226498Y169803D02*
X227298D01*
X226898Y169403D02*
Y170203D01*
X297600Y179000D02*
X298400D01*
X298000Y178600D02*
Y179400D01*
X282600Y179000D02*
X283400D01*
X283000Y178600D02*
Y179400D01*
X232797Y163504D02*
X233597D01*
X233197Y163104D02*
Y163904D01*
X287600Y179000D02*
X288400D01*
X288000Y178600D02*
Y179400D01*
X235946Y163504D02*
X236747D01*
X236347Y163104D02*
Y163904D01*
X272600Y179000D02*
X273400D01*
X273000Y178600D02*
Y179400D01*
X277600Y179000D02*
X278400D01*
X278000Y178600D02*
Y179400D01*
X262600Y179000D02*
X263400D01*
X263000Y178600D02*
Y179400D01*
X239096Y176102D02*
X239896D01*
X239496Y175702D02*
Y176502D01*
X267600Y179000D02*
X268400D01*
X268000Y178600D02*
Y179400D01*
X252600Y179000D02*
X253400D01*
X253000Y178600D02*
Y179400D01*
X257600Y179000D02*
X258400D01*
X258000Y178600D02*
Y179400D01*
X297600Y174000D02*
X298400D01*
X298000Y173600D02*
Y174400D01*
X232797Y185551D02*
X233597D01*
X233197Y185151D02*
Y185951D01*
X292600Y174000D02*
X293400D01*
X293000Y173600D02*
Y174400D01*
X235946Y182402D02*
X236747D01*
X236347Y182002D02*
Y182802D01*
X220198Y172953D02*
X220998D01*
X220598Y172553D02*
Y173353D01*
X287600Y174000D02*
X288400D01*
X288000Y173600D02*
Y174400D01*
X223348Y172953D02*
X224148D01*
X223748Y172553D02*
Y173353D01*
X223348Y169803D02*
X224148D01*
X223748Y169403D02*
Y170203D01*
X262600Y174000D02*
X263400D01*
X263000Y173600D02*
Y174400D01*
X226498Y176102D02*
X227298D01*
X226898Y175702D02*
Y176502D01*
X229647Y172953D02*
X230447D01*
X230047Y172553D02*
Y173353D01*
X267600Y174000D02*
X268400D01*
X268000Y173600D02*
Y174400D01*
X220198Y166654D02*
X220998D01*
X220598Y166253D02*
Y167053D01*
X252600Y174000D02*
X253400D01*
X253000Y173600D02*
Y174400D01*
X257600Y174000D02*
X258400D01*
X258000Y173600D02*
Y174400D01*
X297600Y169000D02*
X298400D01*
X298000Y168600D02*
Y169400D01*
X292600Y169000D02*
X293400D01*
X293000Y168600D02*
Y169400D01*
X220198Y182402D02*
X220998D01*
X220598Y182002D02*
Y182802D01*
X282600Y169000D02*
X283400D01*
X283000Y168600D02*
Y169400D01*
X220198Y179252D02*
X220998D01*
X220598Y178852D02*
Y179652D01*
X287600Y169000D02*
X288400D01*
X288000Y168600D02*
Y169400D01*
X220198Y176102D02*
X220998D01*
X220598Y175702D02*
Y176502D01*
X272600Y169000D02*
X273400D01*
X273000Y168600D02*
Y169400D01*
X277600Y169000D02*
X278400D01*
X278000Y168600D02*
Y169400D01*
X223348Y176102D02*
X224148D01*
X223748Y175702D02*
Y176502D01*
X213883Y169787D02*
X214684D01*
X214283Y169387D02*
Y170187D01*
X262600Y169000D02*
X263400D01*
X263000Y168600D02*
Y169400D01*
X217065Y166654D02*
X217865D01*
X217465Y166253D02*
Y167053D01*
X267600Y169000D02*
X268400D01*
X268000Y168600D02*
Y169400D01*
X217049Y172953D02*
X217849D01*
X217449Y172553D02*
Y173353D01*
X252600Y169000D02*
X253400D01*
X253000Y168600D02*
Y169400D01*
X257600Y169000D02*
X258400D01*
X258000Y168600D02*
Y169400D01*
X213899Y176102D02*
X214699D01*
X214299Y175702D02*
Y176502D01*
X292600Y164000D02*
X293400D01*
X293000Y163600D02*
Y164400D01*
X213915Y172953D02*
X214715D01*
X214315Y172553D02*
Y173353D01*
X297600Y164000D02*
X298400D01*
X298000Y163600D02*
Y164400D01*
X210734Y176102D02*
X211534D01*
X211134Y175702D02*
Y176502D01*
X282600Y164000D02*
X283400D01*
X283000Y163600D02*
Y164400D01*
X287600Y164000D02*
X288400D01*
X288000Y163600D02*
Y164400D01*
X235946Y179252D02*
X236747D01*
X236347Y178852D02*
Y179652D01*
X267600Y164000D02*
X268400D01*
X268000Y163600D02*
Y164400D01*
X272600Y164000D02*
X273400D01*
X273000Y163600D02*
Y164400D01*
X210750Y169803D02*
X211550D01*
X211150Y169403D02*
Y170203D01*
X257600Y164000D02*
X258400D01*
X258000Y163600D02*
Y164400D01*
X204450Y169803D02*
X205250D01*
X204850Y169403D02*
Y170203D01*
X262600Y164000D02*
X263400D01*
X263000Y163600D02*
Y164400D01*
X213883Y163504D02*
X214684D01*
X214283Y163104D02*
Y163904D01*
X297600Y159000D02*
X298400D01*
X298000Y158600D02*
Y159400D01*
X217049Y163504D02*
X217849D01*
X217449Y163104D02*
Y163904D01*
X252600Y164000D02*
X253400D01*
X253000Y163600D02*
Y164400D01*
X210750Y166654D02*
X211550D01*
X211150Y166253D02*
Y167053D01*
X277600Y159000D02*
X278400D01*
X278000Y158600D02*
Y159400D01*
X210750Y163504D02*
X211550D01*
X211150Y163104D02*
Y163904D01*
X282600Y159000D02*
X283400D01*
X283000Y158600D02*
Y159400D01*
X272600Y159000D02*
X273400D01*
X273000Y158600D02*
Y159400D01*
X204450Y166654D02*
X205250D01*
X204850Y166253D02*
Y167053D01*
X257600Y159000D02*
X258400D01*
X258000Y158600D02*
Y159400D01*
X201301Y166654D02*
X202101D01*
X201701Y166253D02*
Y167053D01*
X262600Y159000D02*
X263400D01*
X263000Y158600D02*
Y159400D01*
X297600Y154000D02*
X298400D01*
X298000Y153600D02*
Y154400D01*
X198151Y166654D02*
X198951D01*
X198551Y166253D02*
Y167053D01*
X252600Y159000D02*
X253400D01*
X253000Y158600D02*
Y159400D01*
X287600Y154000D02*
X288400D01*
X288000Y153600D02*
Y154400D01*
X292600Y154000D02*
X293400D01*
X293000Y153600D02*
Y154400D01*
X277600Y154000D02*
X278400D01*
X278000Y153600D02*
Y154400D01*
X282600Y154000D02*
X283400D01*
X283000Y153600D02*
Y154400D01*
X204450Y172953D02*
X205250D01*
X204850Y172553D02*
Y173353D01*
X272600Y154000D02*
X273400D01*
X273000Y153600D02*
Y154400D01*
X257600Y154000D02*
X258400D01*
X258000Y153600D02*
Y154400D01*
X262600Y154000D02*
X263400D01*
X263000Y153600D02*
Y154400D01*
X252600Y154000D02*
X253400D01*
X253000Y153600D02*
Y154400D01*
X177472Y233506D02*
X178654D01*
X178063Y232915D02*
Y234097D01*
X132942Y152284D02*
X134124D01*
X133533Y151694D02*
Y152875D01*
X132909Y146300D02*
X134091D01*
X133500Y145709D02*
Y146891D01*
X132909Y140600D02*
X134091D01*
X133500Y140009D02*
Y141191D01*
X191846Y185545D02*
X192646D01*
X192246Y185145D02*
Y185945D01*
X181300Y258600D02*
X182100D01*
X181700Y258200D02*
Y259000D01*
X209141Y260800D02*
X209941D01*
X209541Y260400D02*
Y261200D01*
X172029Y236724D02*
X172829D01*
X172429Y236324D02*
Y237124D01*
X194341Y160000D02*
X195141D01*
X194741Y159600D02*
Y160400D01*
X187709Y110300D02*
X188891D01*
X188300Y109709D02*
Y110891D01*
X187709Y119300D02*
X188891D01*
X188300Y118709D02*
Y119891D01*
X187809Y123500D02*
X188991D01*
X188400Y122909D02*
Y124091D01*
X187809Y114800D02*
X188991D01*
X188400Y114209D02*
Y115391D01*
X210742Y210740D02*
X211542D01*
X211142Y210340D02*
Y211140D01*
X187742Y129516D02*
X188924D01*
X188333Y128925D02*
Y130106D01*
X132509Y118400D02*
X133691D01*
X133100Y117809D02*
Y118991D01*
X132909Y128700D02*
X134091D01*
X133500Y128109D02*
Y129291D01*
X132942Y132916D02*
X134124D01*
X133533Y132325D02*
Y133506D01*
M02*
